<?xml version="1.0" encoding="utf-8" standalone="no"?>
<!DOCTYPE svg PUBLIC "-//W3C//DTD SVG 1.1//EN"
  "http://www.w3.org/Graphics/SVG/1.1/DTD/svg11.dtd">
<svg xmlns:xlink="http://www.w3.org/1999/xlink" width="259.2pt" height="309.6pt" viewBox="0 0 259.2 309.6" xmlns="http://www.w3.org/2000/svg" version="1.1">
 <metadata>
  <rdf:RDF xmlns:dc="http://purl.org/dc/elements/1.1/" xmlns:cc="http://creativecommons.org/ns#" xmlns:rdf="http://www.w3.org/1999/02/22-rdf-syntax-ns#">
   <cc:Work>
    <dc:type rdf:resource="http://purl.org/dc/dcmitype/StillImage"/>
    <dc:date>2026-07-10T23:04:54.647813</dc:date>
    <dc:format>image/svg+xml</dc:format>
    <dc:creator>
     <cc:Agent>
      <dc:title>Matplotlib v3.10.8, https://matplotlib.org/</dc:title>
     </cc:Agent>
    </dc:creator>
   </cc:Work>
  </rdf:RDF>
 </metadata>
 <defs>
  <style type="text/css">*{stroke-linejoin: round; stroke-linecap: butt}</style>
 </defs>
 <g id="figure_1">
  <g id="patch_1">
   <path d="M 0 309.6 
L 259.2 309.6 
L 259.2 0 
L 0 0 
L 0 309.6 
z
" style="fill: none"/>
  </g>
  <g id="axes_1">
   <g id="line2d_1">
    <path d="M 17.063415 299.221951 
L 242.136585 299.221951 
" clip-path="url(#pfa217771a7)" style="fill: none; stroke: #c3c3c3; stroke-width: 3; stroke-linecap: round"/>
   </g>
   <g id="patch_2">
    <path d="M 129.6 88.403415 
C 131.888121 88.403415 134.082834 87.494335 135.700779 85.876389 
C 137.318725 84.258443 138.227805 82.06373 138.227805 79.77561 
C 138.227805 77.487489 137.318725 75.292776 135.700779 73.67483 
C 134.082834 72.056885 131.888121 71.147805 129.6 71.147805 
C 127.311879 71.147805 125.117166 72.056885 123.499221 73.67483 
C 121.881275 75.292776 120.972195 77.487489 120.972195 79.77561 
C 120.972195 82.06373 121.881275 84.258443 123.499221 85.876389 
C 125.117166 87.494335 127.311879 88.403415 129.6 88.403415 
z
" clip-path="url(#pfa217771a7)" style="fill: #9aa0a6; fill-opacity: 0.285"/>
   </g>
   <g id="patch_3">
    <path d="M 95.839024 86.160185 
C 97.532234 86.160185 99.156321 85.487466 100.353601 84.290186 
C 101.550881 83.092907 102.2236 81.468819 102.2236 79.77561 
C 102.2236 78.082401 101.550881 76.458313 100.353601 75.261033 
C 99.156321 74.063753 97.532234 73.391034 95.839024 73.391034 
C 94.145815 73.391034 92.521727 74.063753 91.324448 75.261033 
C 90.127168 76.458313 89.454449 78.082401 89.454449 79.77561 
C 89.454449 81.468819 90.127168 83.092907 91.324448 84.290186 
C 92.521727 85.487466 94.145815 86.160185 95.839024 86.160185 
z
" clip-path="url(#pfa217771a7)" style="fill: #9aa0a6; fill-opacity: 0.285"/>
   </g>
   <g id="patch_4">
    <path d="M 129.6 88.403415 
L 95.839024 86.160185 
L 95.839024 73.391034 
L 129.6 71.147805 
z
" clip-path="url(#pfa217771a7)" style="fill: #9aa0a6; fill-opacity: 0.285"/>
   </g>
   <g id="patch_5">
    <path d="M 95.839024 86.160185 
C 97.532234 86.160185 99.156321 85.487466 100.353601 84.290186 
C 101.550881 83.092907 102.2236 81.468819 102.2236 79.77561 
C 102.2236 78.082401 101.550881 76.458313 100.353601 75.261033 
C 99.156321 74.063753 97.532234 73.391034 95.839024 73.391034 
C 94.145815 73.391034 92.521727 74.063753 91.324448 75.261033 
C 90.127168 76.458313 89.454449 78.082401 89.454449 79.77561 
C 89.454449 81.468819 90.127168 83.092907 91.324448 84.290186 
C 92.521727 85.487466 94.145815 86.160185 95.839024 86.160185 
z
" clip-path="url(#pfa217771a7)" style="fill: #9aa0a6; fill-opacity: 0.285"/>
   </g>
   <g id="patch_6">
    <path d="M 58.326829 85.124849 
C 59.745464 85.124849 61.106186 84.561219 62.109312 83.558093 
C 63.112439 82.554967 63.676068 81.194245 63.676068 79.77561 
C 63.676068 78.356975 63.112439 76.996253 62.109312 75.993127 
C 61.106186 74.99 59.745464 74.426371 58.326829 74.426371 
C 56.908194 74.426371 55.547472 74.99 54.544346 75.993127 
C 53.54122 76.996253 52.97759 78.356975 52.97759 79.77561 
C 52.97759 81.194245 53.54122 82.554967 54.544346 83.558093 
C 55.547472 84.561219 56.908194 85.124849 58.326829 85.124849 
z
" clip-path="url(#pfa217771a7)" style="fill: #9aa0a6; fill-opacity: 0.285"/>
   </g>
   <g id="patch_7">
    <path d="M 95.839024 86.160185 
L 58.326829 85.124849 
L 58.326829 74.426371 
L 95.839024 73.391034 
z
" clip-path="url(#pfa217771a7)" style="fill: #9aa0a6; fill-opacity: 0.285"/>
   </g>
   <g id="patch_8">
    <path d="M 58.326829 85.655646 
C 59.886233 85.655646 61.381978 85.036089 62.484643 83.933423 
C 63.587308 82.830758 64.206866 81.335014 64.206866 79.77561 
C 64.206866 78.216206 63.587308 76.720461 62.484643 75.617796 
C 61.381978 74.515131 59.886233 73.895573 58.326829 73.895573 
C 56.767425 73.895573 55.271681 74.515131 54.169016 75.617796 
C 53.06635 76.720461 52.446793 78.216206 52.446793 79.77561 
C 52.446793 81.335014 53.06635 82.830758 54.169016 83.933423 
C 55.271681 85.036089 56.767425 85.655646 58.326829 85.655646 
z
" clip-path="url(#pfa217771a7)" style="fill: #9aa0a6; fill-opacity: 0.285; stroke: #7d8288; stroke-opacity: 0.85; stroke-width: 1.3; stroke-linejoin: miter"/>
   </g>
   <g id="line2d_2">
    <path d="M 129.6 88.403415 
L 95.839024 86.160185 
L 93.655371 85.775148 
L 91.735098 84.666478 
L 90.30982 82.967898 
L 89.551445 80.88428 
L 89.551445 78.66694 
L 90.30982 76.583322 
L 91.735098 74.884741 
L 93.655371 73.776071 
L 95.839024 73.391034 
L 129.6 71.147805 
L 132.550883 71.668125 
L 135.145846 73.166328 
L 137.071898 75.461707 
L 138.096729 78.277407 
L 138.096729 81.273812 
L 137.071898 84.089512 
L 135.145846 86.384892 
L 132.550883 87.883094 
L 129.6 88.403415 
L 129.6 88.403415 
" clip-path="url(#pfa217771a7)" style="fill: none; stroke: #7d8288; stroke-opacity: 0.85; stroke-width: 1.7; stroke-linecap: round"/>
   </g>
   <g id="line2d_3">
    <path d="M 95.839024 86.160185 
L 58.326829 85.124849 
L 56.497282 84.80225 
L 54.888405 83.873365 
L 53.694252 82.450229 
L 53.058857 80.704495 
L 53.058857 78.846724 
L 53.694252 77.10099 
L 54.888405 75.677855 
L 56.497282 74.748969 
L 58.326829 74.426371 
L 95.839024 73.391034 
L 98.022678 73.776071 
L 99.94295 74.884741 
L 101.368229 76.583322 
L 102.126604 78.66694 
L 102.126604 80.88428 
L 101.368229 82.967898 
L 99.94295 84.666478 
L 98.022678 85.775148 
L 95.839024 86.160185 
L 95.839024 86.160185 
" clip-path="url(#pfa217771a7)" style="fill: none; stroke: #7d8288; stroke-opacity: 0.85; stroke-width: 1.7; stroke-linecap: round"/>
   </g>
   <g id="patch_9">
    <path d="M 129.6 64.770732 
C 131.58967 64.770732 133.498116 63.980227 134.905026 62.573318 
C 136.311935 61.166409 137.102439 59.257963 137.102439 57.268293 
C 137.102439 55.278623 136.311935 53.370176 134.905026 51.963267 
C 133.498116 50.556358 131.58967 49.765854 129.6 49.765854 
C 127.61033 49.765854 125.701884 50.556358 124.294974 51.963267 
C 122.888065 53.370176 122.097561 55.278623 122.097561 57.268293 
C 122.097561 59.257963 122.888065 61.166409 124.294974 62.573318 
C 125.701884 63.980227 127.61033 64.770732 129.6 64.770732 
z
" clip-path="url(#pfa217771a7)" style="fill: #9aa0a6; fill-opacity: 0.3"/>
   </g>
   <g id="patch_10">
    <path d="M 129.6 91.40439 
C 132.683989 91.40439 135.64208 90.179109 137.82279 87.998399 
C 140.003499 85.81769 141.22878 82.859598 141.22878 79.77561 
C 141.22878 76.691621 140.003499 73.733529 137.82279 71.55282 
C 135.64208 69.372111 132.683989 68.146829 129.6 68.146829 
C 126.516011 68.146829 123.55792 69.372111 121.37721 71.55282 
C 119.196501 73.733529 117.97122 76.691621 117.97122 79.77561 
C 117.97122 82.859598 119.196501 85.81769 121.37721 87.998399 
C 123.55792 90.179109 126.516011 91.40439 129.6 91.40439 
z
" clip-path="url(#pfa217771a7)" style="fill: #9aa0a6; fill-opacity: 0.3"/>
   </g>
   <g id="patch_11">
    <path d="M 137.102439 57.268293 
L 141.22878 79.77561 
L 117.97122 79.77561 
L 122.097561 57.268293 
z
" clip-path="url(#pfa217771a7)" style="fill: #9aa0a6; fill-opacity: 0.3"/>
   </g>
   <g id="patch_12">
    <path d="M 129.6 103.033171 
C 135.767977 103.033171 141.684161 100.582607 146.045579 96.221189 
C 150.406998 91.85977 152.857561 85.943587 152.857561 79.77561 
C 152.857561 73.607632 150.406998 67.691449 146.045579 63.330031 
C 141.684161 58.968612 135.767977 56.518049 129.6 56.518049 
C 123.432023 56.518049 117.515839 58.968612 113.154421 63.330031 
C 108.793002 67.691449 106.342439 73.607632 106.342439 79.77561 
C 106.342439 85.943587 108.793002 91.85977 113.154421 96.221189 
C 117.515839 100.582607 123.432023 103.033171 129.6 103.033171 
z
" clip-path="url(#pfa217771a7)" style="fill: #9aa0a6; fill-opacity: 0.3"/>
   </g>
   <g id="patch_13">
    <path d="M 129.6 164.553171 
C 134.176241 164.553171 138.565667 162.735011 141.801559 159.49912 
C 145.03745 156.263228 146.85561 151.873802 146.85561 147.297561 
C 146.85561 142.72132 145.03745 138.331893 141.801559 135.096002 
C 138.565667 131.860111 134.176241 130.041951 129.6 130.041951 
C 125.023759 130.041951 120.634333 131.860111 117.398441 135.096002 
C 114.16255 138.331893 112.34439 142.72132 112.34439 147.297561 
C 112.34439 151.873802 114.16255 156.263228 117.398441 159.49912 
C 120.634333 162.735011 125.023759 164.553171 129.6 164.553171 
z
" clip-path="url(#pfa217771a7)" style="fill: #9aa0a6; fill-opacity: 0.3"/>
   </g>
   <g id="patch_14">
    <path d="M 152.857561 79.77561 
L 146.85561 147.297561 
L 112.34439 147.297561 
L 106.342439 79.77561 
z
" clip-path="url(#pfa217771a7)" style="fill: #9aa0a6; fill-opacity: 0.3"/>
   </g>
   <g id="patch_15">
    <path d="M 129.6 161.552195 
C 133.380373 161.552195 137.006421 160.050237 139.679548 157.377109 
C 142.352676 154.703982 143.854634 151.077934 143.854634 147.297561 
C 143.854634 143.517188 142.352676 139.89114 139.679548 137.218013 
C 137.006421 134.544885 133.380373 133.042927 129.6 133.042927 
C 125.819627 133.042927 122.193579 134.544885 119.520452 137.218013 
C 116.847324 139.89114 115.345366 143.517188 115.345366 147.297561 
C 115.345366 151.077934 116.847324 154.703982 119.520452 157.377109 
C 122.193579 160.050237 125.819627 161.552195 129.6 161.552195 
z
" clip-path="url(#pfa217771a7)" style="fill: #9aa0a6; fill-opacity: 0.3"/>
   </g>
   <g id="patch_16">
    <path d="M 129.6 227.76122 
C 132.037346 227.76122 134.375192 226.792852 136.098656 225.069388 
C 137.82212 223.345924 138.790488 221.008078 138.790488 218.570732 
C 138.790488 216.133386 137.82212 213.795539 136.098656 212.072075 
C 134.375192 210.348612 132.037346 209.380244 129.6 209.380244 
C 127.162654 209.380244 124.824808 210.348612 123.101344 212.072075 
C 121.37788 213.795539 120.409512 216.133386 120.409512 218.570732 
C 120.409512 221.008078 121.37788 223.345924 123.101344 225.069388 
C 124.824808 226.792852 127.162654 227.76122 129.6 227.76122 
z
" clip-path="url(#pfa217771a7)" style="fill: #9aa0a6; fill-opacity: 0.3"/>
   </g>
   <g id="patch_17">
    <path d="M 143.854634 147.297561 
L 138.790488 218.570732 
L 120.409512 218.570732 
L 115.345366 147.297561 
z
" clip-path="url(#pfa217771a7)" style="fill: #9aa0a6; fill-opacity: 0.3"/>
   </g>
   <g id="patch_18">
    <path d="M 129.6 227.76122 
C 132.037346 227.76122 134.375192 226.792852 136.098656 225.069388 
C 137.82212 223.345924 138.790488 221.008078 138.790488 218.570732 
C 138.790488 216.133386 137.82212 213.795539 136.098656 212.072075 
C 134.375192 210.348612 132.037346 209.380244 129.6 209.380244 
C 127.162654 209.380244 124.824808 210.348612 123.101344 212.072075 
C 121.37788 213.795539 120.409512 216.133386 120.409512 218.570732 
C 120.409512 221.008078 121.37788 223.345924 123.101344 225.069388 
C 124.824808 226.792852 127.162654 227.76122 129.6 227.76122 
z
" clip-path="url(#pfa217771a7)" style="fill: #9aa0a6; fill-opacity: 0.3"/>
   </g>
   <g id="patch_19">
    <path d="M 129.6 290.406585 
C 131.241478 290.406585 132.815946 289.754419 133.976646 288.593719 
C 135.137346 287.433019 135.789512 285.858551 135.789512 284.217073 
C 135.789512 282.575595 135.137346 281.001127 133.976646 279.840427 
C 132.815946 278.679727 131.241478 278.027561 129.6 278.027561 
C 127.958522 278.027561 126.384054 278.679727 125.223354 279.840427 
C 124.062654 281.001127 123.410488 282.575595 123.410488 284.217073 
C 123.410488 285.858551 124.062654 287.433019 125.223354 288.593719 
C 126.384054 289.754419 127.958522 290.406585 129.6 290.406585 
z
" clip-path="url(#pfa217771a7)" style="fill: #9aa0a6; fill-opacity: 0.3"/>
   </g>
   <g id="patch_20">
    <path d="M 138.790488 218.570732 
L 135.789512 284.217073 
L 123.410488 284.217073 
L 120.409512 218.570732 
z
" clip-path="url(#pfa217771a7)" style="fill: #9aa0a6; fill-opacity: 0.3"/>
   </g>
   <g id="patch_21">
    <path d="M 129.6 289.478159 
C 130.995256 289.478159 132.333554 288.923817 133.320149 287.937222 
C 134.306744 286.950627 134.861085 285.612329 134.861085 284.217073 
C 134.861085 282.821817 134.306744 281.483519 133.320149 280.496924 
C 132.333554 279.510329 130.995256 278.955988 129.6 278.955988 
C 128.204744 278.955988 126.866446 279.510329 125.879851 280.496924 
C 124.893256 281.483519 124.338915 282.821817 124.338915 284.217073 
C 124.338915 285.612329 124.893256 286.950627 125.879851 287.937222 
C 126.866446 288.923817 128.204744 289.478159 129.6 289.478159 
z
" clip-path="url(#pfa217771a7)" style="fill: #9aa0a6; fill-opacity: 0.3"/>
   </g>
   <g id="patch_22">
    <path d="M 146.480488 287.621305 
C 147.383301 287.621305 148.249258 287.262614 148.887643 286.624228 
C 149.526028 285.985843 149.88472 285.119886 149.88472 284.217073 
C 149.88472 283.31426 149.526028 282.448303 148.887643 281.809918 
C 148.249258 281.171533 147.383301 280.812841 146.480488 280.812841 
C 145.577675 280.812841 144.711718 281.171533 144.073332 281.809918 
C 143.434947 282.448303 143.076256 283.31426 143.076256 284.217073 
C 143.076256 285.119886 143.434947 285.985843 144.073332 286.624228 
C 144.711718 287.262614 145.577675 287.621305 146.480488 287.621305 
z
" clip-path="url(#pfa217771a7)" style="fill: #9aa0a6; fill-opacity: 0.3"/>
   </g>
   <g id="patch_23">
    <path d="M 129.6 278.955988 
L 146.480488 280.812841 
L 146.480488 287.621305 
L 129.6 289.478159 
z
" clip-path="url(#pfa217771a7)" style="fill: #9aa0a6; fill-opacity: 0.3"/>
   </g>
   <g id="line2d_4">
    <path d="M 137.102439 57.268293 
L 141.22878 79.77561 
L 140.527479 83.752887 
L 138.508163 87.250446 
L 135.41439 89.846429 
L 131.619317 91.227723 
L 127.580683 91.227723 
L 123.78561 89.846429 
L 120.691837 87.250446 
L 118.672521 83.752887 
L 117.97122 79.77561 
L 122.097561 57.268293 
L 122.550013 54.702307 
L 123.852798 52.445818 
L 125.84878 50.77099 
L 128.297215 49.879833 
L 130.902785 49.879833 
L 133.35122 50.77099 
L 135.347202 52.445818 
L 136.649987 54.702307 
L 137.102439 57.268293 
L 137.102439 57.268293 
" clip-path="url(#pfa217771a7)" style="fill: none; stroke: #7d8288; stroke-opacity: 0.85; stroke-width: 1.7; stroke-linecap: round"/>
   </g>
   <g id="line2d_5">
    <path d="M 152.857561 79.77561 
L 146.85561 147.297561 
L 145.814969 153.199327 
L 142.818564 158.389253 
L 138.227805 162.241357 
L 132.596405 164.291019 
L 126.603595 164.291019 
L 120.972195 162.241357 
L 116.381436 158.389253 
L 113.385031 153.199327 
L 112.34439 147.297561 
L 106.342439 79.77561 
L 107.745042 71.821055 
L 111.783675 64.825938 
L 117.97122 59.633971 
L 125.561367 56.871383 
L 133.638633 56.871383 
L 141.22878 59.633971 
L 147.416325 64.825938 
L 151.454958 71.821055 
L 152.857561 79.77561 
L 152.857561 79.77561 
" clip-path="url(#pfa217771a7)" style="fill: none; stroke: #7d8288; stroke-opacity: 0.85; stroke-width: 1.7; stroke-linecap: round"/>
   </g>
   <g id="patch_24">
    <path d="M 129.6 89.153659 
C 132.087088 89.153659 134.472645 88.165528 136.231282 86.406892 
C 137.989918 84.648255 138.978049 82.262697 138.978049 79.77561 
C 138.978049 77.288522 137.989918 74.902964 136.231282 73.144328 
C 134.472645 71.385691 132.087088 70.397561 129.6 70.397561 
C 127.112912 70.397561 124.727355 71.385691 122.968718 73.144328 
C 121.210082 74.902964 120.221951 77.288522 120.221951 79.77561 
C 120.221951 82.262697 121.210082 84.648255 122.968718 86.406892 
C 124.727355 88.165528 127.112912 89.153659 129.6 89.153659 
z
" clip-path="url(#pfa217771a7)" style="fill: #9aa0a6; fill-opacity: 0.3"/>
   </g>
   <g id="patch_25">
    <path d="M 163.360976 86.715366 
C 165.20142 86.715366 166.966733 85.984149 168.268124 84.682758 
C 169.569515 83.381367 170.300732 81.616055 170.300732 79.77561 
C 170.300732 77.935165 169.569515 76.169852 168.268124 74.868461 
C 166.966733 73.56707 165.20142 72.835854 163.360976 72.835854 
C 161.520531 72.835854 159.755218 73.56707 158.453827 74.868461 
C 157.152436 76.169852 156.42122 77.935165 156.42122 79.77561 
C 156.42122 81.616055 157.152436 83.381367 158.453827 84.682758 
C 159.755218 85.984149 161.520531 86.715366 163.360976 86.715366 
z
" clip-path="url(#pfa217771a7)" style="fill: #9aa0a6; fill-opacity: 0.3"/>
   </g>
   <g id="patch_26">
    <path d="M 129.6 70.397561 
L 163.360976 72.835854 
L 163.360976 86.715366 
L 129.6 89.153659 
z
" clip-path="url(#pfa217771a7)" style="fill: #9aa0a6; fill-opacity: 0.3"/>
   </g>
   <g id="patch_27">
    <path d="M 163.360976 86.715366 
C 165.20142 86.715366 166.966733 85.984149 168.268124 84.682758 
C 169.569515 83.381367 170.300732 81.616055 170.300732 79.77561 
C 170.300732 77.935165 169.569515 76.169852 168.268124 74.868461 
C 166.966733 73.56707 165.20142 72.835854 163.360976 72.835854 
C 161.520531 72.835854 159.755218 73.56707 158.453827 74.868461 
C 157.152436 76.169852 156.42122 77.935165 156.42122 79.77561 
C 156.42122 81.616055 157.152436 83.381367 158.453827 84.682758 
C 159.755218 85.984149 161.520531 86.715366 163.360976 86.715366 
z
" clip-path="url(#pfa217771a7)" style="fill: #9aa0a6; fill-opacity: 0.3"/>
   </g>
   <g id="patch_28">
    <path d="M 200.873171 85.59 
C 202.415165 85.59 203.894211 84.977359 204.984566 83.887005 
C 206.07492 82.79665 206.687561 81.317604 206.687561 79.77561 
C 206.687561 78.233615 206.07492 76.75457 204.984566 75.664215 
C 203.894211 74.57386 202.415165 73.96122 200.873171 73.96122 
C 199.331176 73.96122 197.852131 74.57386 196.761776 75.664215 
C 195.671421 76.75457 195.05878 78.233615 195.05878 79.77561 
C 195.05878 81.317604 195.671421 82.79665 196.761776 83.887005 
C 197.852131 84.977359 199.331176 85.59 200.873171 85.59 
z
" clip-path="url(#pfa217771a7)" style="fill: #9aa0a6; fill-opacity: 0.3"/>
   </g>
   <g id="patch_29">
    <path d="M 163.360976 72.835854 
L 200.873171 73.96122 
L 200.873171 85.59 
L 163.360976 86.715366 
z
" clip-path="url(#pfa217771a7)" style="fill: #9aa0a6; fill-opacity: 0.3"/>
   </g>
   <g id="patch_30">
    <path d="M 129.6 288.673522 
C 130.781864 288.673522 131.915481 288.203962 132.751185 287.368258 
C 133.586889 286.532554 134.056449 285.398937 134.056449 284.217073 
C 134.056449 283.035209 133.586889 281.901592 132.751185 281.065888 
C 131.915481 280.230184 130.781864 279.760624 129.6 279.760624 
C 128.418136 279.760624 127.284519 280.230184 126.448815 281.065888 
C 125.613111 281.901592 125.143551 283.035209 125.143551 284.217073 
C 125.143551 285.398937 125.613111 286.532554 126.448815 287.368258 
C 127.284519 288.203962 128.418136 288.673522 129.6 288.673522 
z
" clip-path="url(#pfa217771a7)" style="fill: #9aa0a6; fill-opacity: 0.3; stroke: #7d8288; stroke-opacity: 0.85; stroke-width: 1.3; stroke-linejoin: miter"/>
   </g>
   <g id="patch_31">
    <path d="M 200.873171 85.965122 
C 202.514649 85.965122 204.089117 85.312956 205.249817 84.152256 
C 206.410517 82.991556 207.062683 81.417088 207.062683 79.77561 
C 207.062683 78.134132 206.410517 76.559664 205.249817 75.398964 
C 204.089117 74.238264 202.514649 73.586098 200.873171 73.586098 
C 199.231693 73.586098 197.657225 74.238264 196.496525 75.398964 
C 195.335825 76.559664 194.683659 78.134132 194.683659 79.77561 
C 194.683659 81.417088 195.335825 82.991556 196.496525 84.152256 
C 197.657225 85.312956 199.231693 85.965122 200.873171 85.965122 
z
" clip-path="url(#pfa217771a7)" style="fill: #9aa0a6; fill-opacity: 0.3; stroke: #7d8288; stroke-opacity: 0.85; stroke-width: 1.6; stroke-linejoin: miter"/>
   </g>
   <g id="line2d_6">
    <path d="M 143.854634 147.297561 
L 138.790488 218.570732 
L 138.236234 221.714064 
L 136.640322 224.478263 
L 134.195244 226.529928 
L 131.195911 227.621595 
L 128.004089 227.621595 
L 125.004756 226.529928 
L 122.559678 224.478263 
L 120.963766 221.714064 
L 120.409512 218.570732 
L 115.345366 147.297561 
L 116.205025 142.422189 
L 118.680317 138.134859 
L 122.472683 134.952686 
L 127.124709 133.259487 
L 132.075291 133.259487 
L 136.727317 134.952686 
L 140.519683 138.134859 
L 142.994975 142.422189 
L 143.854634 147.297561 
L 143.854634 147.297561 
" clip-path="url(#pfa217771a7)" style="fill: none; stroke: #7d8288; stroke-opacity: 0.85; stroke-width: 1.7; stroke-linecap: round"/>
   </g>
   <g id="line2d_7">
    <path d="M 138.790488 218.570732 
L 135.789512 284.217073 
L 135.416239 286.334011 
L 134.341441 288.195615 
L 132.694756 289.577348 
L 130.674798 290.312553 
L 128.525202 290.312553 
L 126.505244 289.577348 
L 124.858559 288.195615 
L 123.783761 286.334011 
L 123.410488 284.217073 
L 120.409512 218.570732 
L 120.963766 215.4274 
L 122.559678 212.6632 
L 125.004756 210.611536 
L 128.004089 209.519868 
L 131.195911 209.519868 
L 134.195244 210.611536 
L 136.640322 212.6632 
L 138.236234 215.4274 
L 138.790488 218.570732 
L 138.790488 218.570732 
" clip-path="url(#pfa217771a7)" style="fill: none; stroke: #7d8288; stroke-opacity: 0.85; stroke-width: 1.7; stroke-linecap: round"/>
   </g>
   <g id="line2d_8">
    <path d="M 129.6 278.955988 
L 146.480488 280.812841 
L 147.644804 281.018142 
L 148.668686 281.60928 
L 149.428639 282.514957 
L 149.833002 283.625935 
L 149.833002 284.808212 
L 149.428639 285.919189 
L 148.668686 286.824866 
L 147.644804 287.416005 
L 146.480488 287.621305 
L 129.6 289.478159 
L 127.800603 289.160876 
L 126.21824 288.247298 
L 125.043766 286.847616 
L 124.418842 285.130651 
L 124.418842 283.303495 
L 125.043766 281.58653 
L 126.21824 280.186848 
L 127.800603 279.27327 
L 129.6 278.955988 
L 129.6 278.955988 
" clip-path="url(#pfa217771a7)" style="fill: none; stroke: #7d8288; stroke-opacity: 0.85; stroke-width: 1.5; stroke-linecap: round"/>
   </g>
   <g id="line2d_9">
    <path d="M 129.6 70.397561 
L 163.360976 72.835854 
L 165.734512 73.254372 
L 167.821765 74.459448 
L 169.370981 76.305732 
L 170.195301 78.570534 
L 170.195301 80.980686 
L 169.370981 83.245488 
L 167.821765 85.091771 
L 165.734512 86.296847 
L 163.360976 86.715366 
L 129.6 89.153659 
L 126.392518 88.588093 
L 123.571906 86.959612 
L 121.478372 84.464634 
L 120.364425 81.404091 
L 120.364425 78.147129 
L 121.478372 75.086585 
L 123.571906 72.591608 
L 126.392518 70.963127 
L 129.6 70.397561 
L 129.6 70.397561 
" clip-path="url(#pfa217771a7)" style="fill: none; stroke: #7d8288; stroke-opacity: 0.85; stroke-width: 1.7; stroke-linecap: round"/>
   </g>
   <g id="line2d_10">
    <path d="M 163.360976 72.835854 
L 200.873171 73.96122 
L 202.861809 74.31187 
L 204.610589 75.321528 
L 205.90858 76.868415 
L 206.599227 78.765951 
L 206.599227 80.785268 
L 205.90858 82.682805 
L 204.610589 84.229691 
L 202.861809 85.239349 
L 200.873171 85.59 
L 163.360976 86.715366 
L 160.987439 86.296847 
L 158.900186 85.091771 
L 157.350971 83.245488 
L 156.52665 80.980686 
L 156.52665 78.570534 
L 157.350971 76.305732 
L 158.900186 74.459448 
L 160.987439 73.254372 
L 163.360976 72.835854 
L 163.360976 72.835854 
" clip-path="url(#pfa217771a7)" style="fill: none; stroke: #7d8288; stroke-opacity: 0.85; stroke-width: 1.7; stroke-linecap: round"/>
   </g>
   <g id="patch_32">
    <path d="M 129.6 72.273171 
C 133.57934 72.273171 137.396233 70.692162 140.210051 67.878344 
C 143.023869 65.064525 144.604878 61.247633 144.604878 57.268293 
C 144.604878 53.288953 143.023869 49.47206 140.210051 46.658242 
C 137.396233 43.844423 133.57934 42.263415 129.6 42.263415 
C 125.62066 42.263415 121.803767 43.844423 118.989949 46.658242 
C 116.176131 49.47206 114.595122 53.288953 114.595122 57.268293 
C 114.595122 61.247633 116.176131 65.064525 118.989949 67.878344 
C 121.803767 70.692162 125.62066 72.273171 129.6 72.273171 
z
" clip-path="url(#pfa217771a7)" style="fill: #9aa0a6; fill-opacity: 0.3; stroke: #7d8288; stroke-opacity: 0.85; stroke-width: 1.8; stroke-linejoin: miter"/>
   </g>
   <g id="patch_33">
    <path d="M 129.6 88.403415 
C 131.888121 88.403415 134.082834 87.494335 135.700779 85.876389 
C 137.318725 84.258443 138.227805 82.06373 138.227805 79.77561 
C 138.227805 77.487489 137.318725 75.292776 135.700779 73.67483 
C 134.082834 72.056885 131.888121 71.147805 129.6 71.147805 
C 127.311879 71.147805 125.117166 72.056885 123.499221 73.67483 
C 121.881275 75.292776 120.972195 77.487489 120.972195 79.77561 
C 120.972195 82.06373 121.881275 84.258443 123.499221 85.876389 
C 125.117166 87.494335 127.311879 88.403415 129.6 88.403415 
z
" clip-path="url(#pfa217771a7)" style="fill: #2c3e50; fill-opacity: 0.95"/>
   </g>
   <g id="patch_34">
    <path d="M 95.839024 86.160185 
C 97.532234 86.160185 99.156321 85.487466 100.353601 84.290186 
C 101.550881 83.092907 102.2236 81.468819 102.2236 79.77561 
C 102.2236 78.082401 101.550881 76.458313 100.353601 75.261033 
C 99.156321 74.063753 97.532234 73.391034 95.839024 73.391034 
C 94.145815 73.391034 92.521727 74.063753 91.324448 75.261033 
C 90.127168 76.458313 89.454449 78.082401 89.454449 79.77561 
C 89.454449 81.468819 90.127168 83.092907 91.324448 84.290186 
C 92.521727 85.487466 94.145815 86.160185 95.839024 86.160185 
z
" clip-path="url(#pfa217771a7)" style="fill: #2c3e50; fill-opacity: 0.95"/>
   </g>
   <g id="patch_35">
    <path d="M 129.6 88.403415 
L 95.839024 86.160185 
L 95.839024 73.391034 
L 129.6 71.147805 
z
" clip-path="url(#pfa217771a7)" style="fill: #2c3e50; fill-opacity: 0.95"/>
   </g>
   <g id="patch_36">
    <path d="M 95.839024 86.160185 
C 97.532234 86.160185 99.156321 85.487466 100.353601 84.290186 
C 101.550881 83.092907 102.2236 81.468819 102.2236 79.77561 
C 102.2236 78.082401 101.550881 76.458313 100.353601 75.261033 
C 99.156321 74.063753 97.532234 73.391034 95.839024 73.391034 
C 94.145815 73.391034 92.521727 74.063753 91.324448 75.261033 
C 90.127168 76.458313 89.454449 78.082401 89.454449 79.77561 
C 89.454449 81.468819 90.127168 83.092907 91.324448 84.290186 
C 92.521727 85.487466 94.145815 86.160185 95.839024 86.160185 
z
" clip-path="url(#pfa217771a7)" style="fill: #2c3e50; fill-opacity: 0.95"/>
   </g>
   <g id="patch_37">
    <path d="M 80.834146 85.124849 
C 82.252781 85.124849 83.613503 84.561219 84.61663 83.558093 
C 85.619756 82.554967 86.183385 81.194245 86.183385 79.77561 
C 86.183385 78.356975 85.619756 76.996253 84.61663 75.993127 
C 83.613503 74.99 82.252781 74.426371 80.834146 74.426371 
C 79.415512 74.426371 78.054789 74.99 77.051663 75.993127 
C 76.048537 76.996253 75.484907 78.356975 75.484907 79.77561 
C 75.484907 81.194245 76.048537 82.554967 77.051663 83.558093 
C 78.054789 84.561219 79.415512 85.124849 80.834146 85.124849 
z
" clip-path="url(#pfa217771a7)" style="fill: #2c3e50; fill-opacity: 0.95"/>
   </g>
   <g id="patch_38">
    <path d="M 95.839024 86.160185 
L 80.834146 85.124849 
L 80.834146 74.426371 
L 95.839024 73.391034 
z
" clip-path="url(#pfa217771a7)" style="fill: #2c3e50; fill-opacity: 0.95"/>
   </g>
   <g id="patch_39">
    <path d="M 80.834146 85.655646 
C 82.39355 85.655646 83.889295 85.036089 84.99196 83.933423 
C 86.094625 82.830758 86.714183 81.335014 86.714183 79.77561 
C 86.714183 78.216206 86.094625 76.720461 84.99196 75.617796 
C 83.889295 74.515131 82.39355 73.895573 80.834146 73.895573 
C 79.274742 73.895573 77.778998 74.515131 76.676333 75.617796 
C 75.573668 76.720461 74.95411 78.216206 74.95411 79.77561 
C 74.95411 81.335014 75.573668 82.830758 76.676333 83.933423 
C 77.778998 85.036089 79.274742 85.655646 80.834146 85.655646 
z
" clip-path="url(#pfa217771a7)" style="fill: #f2e0c9; fill-opacity: 0.95; stroke: #a49888; stroke-width: 1.3; stroke-linejoin: miter"/>
   </g>
   <g id="line2d_11">
    <path d="M 129.6 88.403415 
L 95.839024 86.160185 
L 93.655371 85.775148 
L 91.735098 84.666478 
L 90.30982 82.967898 
L 89.551445 80.88428 
L 89.551445 78.66694 
L 90.30982 76.583322 
L 91.735098 74.884741 
L 93.655371 73.776071 
L 95.839024 73.391034 
L 129.6 71.147805 
L 132.550883 71.668125 
L 135.145846 73.166328 
L 137.071898 75.461707 
L 138.096729 78.277407 
L 138.096729 81.273812 
L 137.071898 84.089512 
L 135.145846 86.384892 
L 132.550883 87.883094 
L 129.6 88.403415 
L 129.6 88.403415 
" clip-path="url(#pfa217771a7)" style="fill: none; stroke: #1d2a36; stroke-width: 1.7; stroke-linecap: round"/>
   </g>
   <g id="line2d_12">
    <path d="M 95.839024 86.160185 
L 80.834146 85.124849 
L 79.004599 84.80225 
L 77.395722 83.873365 
L 76.201569 82.450229 
L 75.566174 80.704495 
L 75.566174 78.846724 
L 76.201569 77.10099 
L 77.395722 75.677855 
L 79.004599 74.748969 
L 80.834146 74.426371 
L 95.839024 73.391034 
L 98.022678 73.776071 
L 99.94295 74.884741 
L 101.368229 76.583322 
L 102.126604 78.66694 
L 102.126604 80.88428 
L 101.368229 82.967898 
L 99.94295 84.666478 
L 98.022678 85.775148 
L 95.839024 86.160185 
L 95.839024 86.160185 
" clip-path="url(#pfa217771a7)" style="fill: none; stroke: #1d2a36; stroke-width: 1.7; stroke-linecap: round"/>
   </g>
   <g id="patch_40">
    <path d="M 129.6 64.770732 
C 131.58967 64.770732 133.498116 63.980227 134.905026 62.573318 
C 136.311935 61.166409 137.102439 59.257963 137.102439 57.268293 
C 137.102439 55.278623 136.311935 53.370176 134.905026 51.963267 
C 133.498116 50.556358 131.58967 49.765854 129.6 49.765854 
C 127.61033 49.765854 125.701884 50.556358 124.294974 51.963267 
C 122.888065 53.370176 122.097561 55.278623 122.097561 57.268293 
C 122.097561 59.257963 122.888065 61.166409 124.294974 62.573318 
C 125.701884 63.980227 127.61033 64.770732 129.6 64.770732 
z
" clip-path="url(#pfa217771a7)" style="fill: #2c3e50"/>
   </g>
   <g id="patch_41">
    <path d="M 129.6 91.40439 
C 132.683989 91.40439 135.64208 90.179109 137.82279 87.998399 
C 140.003499 85.81769 141.22878 82.859598 141.22878 79.77561 
C 141.22878 76.691621 140.003499 73.733529 137.82279 71.55282 
C 135.64208 69.372111 132.683989 68.146829 129.6 68.146829 
C 126.516011 68.146829 123.55792 69.372111 121.37721 71.55282 
C 119.196501 73.733529 117.97122 76.691621 117.97122 79.77561 
C 117.97122 82.859598 119.196501 85.81769 121.37721 87.998399 
C 123.55792 90.179109 126.516011 91.40439 129.6 91.40439 
z
" clip-path="url(#pfa217771a7)" style="fill: #2c3e50"/>
   </g>
   <g id="patch_42">
    <path d="M 137.102439 57.268293 
L 141.22878 79.77561 
L 117.97122 79.77561 
L 122.097561 57.268293 
z
" clip-path="url(#pfa217771a7)" style="fill: #2c3e50"/>
   </g>
   <g id="patch_43">
    <path d="M 129.6 103.033171 
C 135.767977 103.033171 141.684161 100.582607 146.045579 96.221189 
C 150.406998 91.85977 152.857561 85.943587 152.857561 79.77561 
C 152.857561 73.607632 150.406998 67.691449 146.045579 63.330031 
C 141.684161 58.968612 135.767977 56.518049 129.6 56.518049 
C 123.432023 56.518049 117.515839 58.968612 113.154421 63.330031 
C 108.793002 67.691449 106.342439 73.607632 106.342439 79.77561 
C 106.342439 85.943587 108.793002 91.85977 113.154421 96.221189 
C 117.515839 100.582607 123.432023 103.033171 129.6 103.033171 
z
" clip-path="url(#pfa217771a7)" style="fill: #2c3e50"/>
   </g>
   <g id="patch_44">
    <path d="M 129.6 164.553171 
C 134.176241 164.553171 138.565667 162.735011 141.801559 159.49912 
C 145.03745 156.263228 146.85561 151.873802 146.85561 147.297561 
C 146.85561 142.72132 145.03745 138.331893 141.801559 135.096002 
C 138.565667 131.860111 134.176241 130.041951 129.6 130.041951 
C 125.023759 130.041951 120.634333 131.860111 117.398441 135.096002 
C 114.16255 138.331893 112.34439 142.72132 112.34439 147.297561 
C 112.34439 151.873802 114.16255 156.263228 117.398441 159.49912 
C 120.634333 162.735011 125.023759 164.553171 129.6 164.553171 
z
" clip-path="url(#pfa217771a7)" style="fill: #2c3e50"/>
   </g>
   <g id="patch_45">
    <path d="M 152.857561 79.77561 
L 146.85561 147.297561 
L 112.34439 147.297561 
L 106.342439 79.77561 
z
" clip-path="url(#pfa217771a7)" style="fill: #2c3e50"/>
   </g>
   <g id="patch_46">
    <path d="M 129.6 161.552195 
C 133.380373 161.552195 137.006421 160.050237 139.679548 157.377109 
C 142.352676 154.703982 143.854634 151.077934 143.854634 147.297561 
C 143.854634 143.517188 142.352676 139.89114 139.679548 137.218013 
C 137.006421 134.544885 133.380373 133.042927 129.6 133.042927 
C 125.819627 133.042927 122.193579 134.544885 119.520452 137.218013 
C 116.847324 139.89114 115.345366 143.517188 115.345366 147.297561 
C 115.345366 151.077934 116.847324 154.703982 119.520452 157.377109 
C 122.193579 160.050237 125.819627 161.552195 129.6 161.552195 
z
" clip-path="url(#pfa217771a7)" style="fill: #3c3f42"/>
   </g>
   <g id="patch_47">
    <path d="M 129.6 227.76122 
C 132.037346 227.76122 134.375192 226.792852 136.098656 225.069388 
C 137.82212 223.345924 138.790488 221.008078 138.790488 218.570732 
C 138.790488 216.133386 137.82212 213.795539 136.098656 212.072075 
C 134.375192 210.348612 132.037346 209.380244 129.6 209.380244 
C 127.162654 209.380244 124.824808 210.348612 123.101344 212.072075 
C 121.37788 213.795539 120.409512 216.133386 120.409512 218.570732 
C 120.409512 221.008078 121.37788 223.345924 123.101344 225.069388 
C 124.824808 226.792852 127.162654 227.76122 129.6 227.76122 
z
" clip-path="url(#pfa217771a7)" style="fill: #3c3f42"/>
   </g>
   <g id="patch_48">
    <path d="M 143.854634 147.297561 
L 138.790488 218.570732 
L 120.409512 218.570732 
L 115.345366 147.297561 
z
" clip-path="url(#pfa217771a7)" style="fill: #3c3f42"/>
   </g>
   <g id="patch_49">
    <path d="M 129.6 227.76122 
C 132.037346 227.76122 134.375192 226.792852 136.098656 225.069388 
C 137.82212 223.345924 138.790488 221.008078 138.790488 218.570732 
C 138.790488 216.133386 137.82212 213.795539 136.098656 212.072075 
C 134.375192 210.348612 132.037346 209.380244 129.6 209.380244 
C 127.162654 209.380244 124.824808 210.348612 123.101344 212.072075 
C 121.37788 213.795539 120.409512 216.133386 120.409512 218.570732 
C 120.409512 221.008078 121.37788 223.345924 123.101344 225.069388 
C 124.824808 226.792852 127.162654 227.76122 129.6 227.76122 
z
" clip-path="url(#pfa217771a7)" style="fill: #3c3f42"/>
   </g>
   <g id="patch_50">
    <path d="M 129.6 290.406585 
C 131.241478 290.406585 132.815946 289.754419 133.976646 288.593719 
C 135.137346 287.433019 135.789512 285.858551 135.789512 284.217073 
C 135.789512 282.575595 135.137346 281.001127 133.976646 279.840427 
C 132.815946 278.679727 131.241478 278.027561 129.6 278.027561 
C 127.958522 278.027561 126.384054 278.679727 125.223354 279.840427 
C 124.062654 281.001127 123.410488 282.575595 123.410488 284.217073 
C 123.410488 285.858551 124.062654 287.433019 125.223354 288.593719 
C 126.384054 289.754419 127.958522 290.406585 129.6 290.406585 
z
" clip-path="url(#pfa217771a7)" style="fill: #3c3f42"/>
   </g>
   <g id="patch_51">
    <path d="M 138.790488 218.570732 
L 135.789512 284.217073 
L 123.410488 284.217073 
L 120.409512 218.570732 
z
" clip-path="url(#pfa217771a7)" style="fill: #3c3f42"/>
   </g>
   <g id="patch_52">
    <path d="M 129.6 289.478159 
C 130.995256 289.478159 132.333554 288.923817 133.320149 287.937222 
C 134.306744 286.950627 134.861085 285.612329 134.861085 284.217073 
C 134.861085 282.821817 134.306744 281.483519 133.320149 280.496924 
C 132.333554 279.510329 130.995256 278.955988 129.6 278.955988 
C 128.204744 278.955988 126.866446 279.510329 125.879851 280.496924 
C 124.893256 281.483519 124.338915 282.821817 124.338915 284.217073 
C 124.338915 285.612329 124.893256 286.950627 125.879851 287.937222 
C 126.866446 288.923817 128.204744 289.478159 129.6 289.478159 
z
" clip-path="url(#pfa217771a7)" style="fill: #1b1b1b"/>
   </g>
   <g id="patch_53">
    <path d="M 146.480488 287.621305 
C 147.383301 287.621305 148.249258 287.262614 148.887643 286.624228 
C 149.526028 285.985843 149.88472 285.119886 149.88472 284.217073 
C 149.88472 283.31426 149.526028 282.448303 148.887643 281.809918 
C 148.249258 281.171533 147.383301 280.812841 146.480488 280.812841 
C 145.577675 280.812841 144.711718 281.171533 144.073332 281.809918 
C 143.434947 282.448303 143.076256 283.31426 143.076256 284.217073 
C 143.076256 285.119886 143.434947 285.985843 144.073332 286.624228 
C 144.711718 287.262614 145.577675 287.621305 146.480488 287.621305 
z
" clip-path="url(#pfa217771a7)" style="fill: #1b1b1b"/>
   </g>
   <g id="patch_54">
    <path d="M 129.6 278.955988 
L 146.480488 280.812841 
L 146.480488 287.621305 
L 129.6 289.478159 
z
" clip-path="url(#pfa217771a7)" style="fill: #1b1b1b"/>
   </g>
   <g id="line2d_13">
    <path d="M 137.102439 57.268293 
L 141.22878 79.77561 
L 140.527479 83.752887 
L 138.508163 87.250446 
L 135.41439 89.846429 
L 131.619317 91.227723 
L 127.580683 91.227723 
L 123.78561 89.846429 
L 120.691837 87.250446 
L 118.672521 83.752887 
L 117.97122 79.77561 
L 122.097561 57.268293 
L 122.550013 54.702307 
L 123.852798 52.445818 
L 125.84878 50.77099 
L 128.297215 49.879833 
L 130.902785 49.879833 
L 133.35122 50.77099 
L 135.347202 52.445818 
L 136.649987 54.702307 
L 137.102439 57.268293 
L 137.102439 57.268293 
" clip-path="url(#pfa217771a7)" style="fill: none; stroke: #1d2a36; stroke-width: 1.7; stroke-linecap: round"/>
   </g>
   <g id="line2d_14">
    <path d="M 152.857561 79.77561 
L 146.85561 147.297561 
L 145.814969 153.199327 
L 142.818564 158.389253 
L 138.227805 162.241357 
L 132.596405 164.291019 
L 126.603595 164.291019 
L 120.972195 162.241357 
L 116.381436 158.389253 
L 113.385031 153.199327 
L 112.34439 147.297561 
L 106.342439 79.77561 
L 107.745042 71.821055 
L 111.783675 64.825938 
L 117.97122 59.633971 
L 125.561367 56.871383 
L 133.638633 56.871383 
L 141.22878 59.633971 
L 147.416325 64.825938 
L 151.454958 71.821055 
L 152.857561 79.77561 
L 152.857561 79.77561 
" clip-path="url(#pfa217771a7)" style="fill: none; stroke: #1d2a36; stroke-width: 1.7; stroke-linecap: round"/>
   </g>
   <g id="patch_55">
    <path d="M 129.6 89.153659 
C 132.087088 89.153659 134.472645 88.165528 136.231282 86.406892 
C 137.989918 84.648255 138.978049 82.262697 138.978049 79.77561 
C 138.978049 77.288522 137.989918 74.902964 136.231282 73.144328 
C 134.472645 71.385691 132.087088 70.397561 129.6 70.397561 
C 127.112912 70.397561 124.727355 71.385691 122.968718 73.144328 
C 121.210082 74.902964 120.221951 77.288522 120.221951 79.77561 
C 120.221951 82.262697 121.210082 84.648255 122.968718 86.406892 
C 124.727355 88.165528 127.112912 89.153659 129.6 89.153659 
z
" clip-path="url(#pfa217771a7)" style="fill: #2c3e50"/>
   </g>
   <g id="patch_56">
    <path d="M 163.360976 86.715366 
C 165.20142 86.715366 166.966733 85.984149 168.268124 84.682758 
C 169.569515 83.381367 170.300732 81.616055 170.300732 79.77561 
C 170.300732 77.935165 169.569515 76.169852 168.268124 74.868461 
C 166.966733 73.56707 165.20142 72.835854 163.360976 72.835854 
C 161.520531 72.835854 159.755218 73.56707 158.453827 74.868461 
C 157.152436 76.169852 156.42122 77.935165 156.42122 79.77561 
C 156.42122 81.616055 157.152436 83.381367 158.453827 84.682758 
C 159.755218 85.984149 161.520531 86.715366 163.360976 86.715366 
z
" clip-path="url(#pfa217771a7)" style="fill: #2c3e50"/>
   </g>
   <g id="patch_57">
    <path d="M 129.6 70.397561 
L 163.360976 72.835854 
L 163.360976 86.715366 
L 129.6 89.153659 
z
" clip-path="url(#pfa217771a7)" style="fill: #2c3e50"/>
   </g>
   <g id="patch_58">
    <path d="M 163.360976 86.715366 
C 165.20142 86.715366 166.966733 85.984149 168.268124 84.682758 
C 169.569515 83.381367 170.300732 81.616055 170.300732 79.77561 
C 170.300732 77.935165 169.569515 76.169852 168.268124 74.868461 
C 166.966733 73.56707 165.20142 72.835854 163.360976 72.835854 
C 161.520531 72.835854 159.755218 73.56707 158.453827 74.868461 
C 157.152436 76.169852 156.42122 77.935165 156.42122 79.77561 
C 156.42122 81.616055 157.152436 83.381367 158.453827 84.682758 
C 159.755218 85.984149 161.520531 86.715366 163.360976 86.715366 
z
" clip-path="url(#pfa217771a7)" style="fill: #2c3e50"/>
   </g>
   <g id="patch_59">
    <path d="M 178.365854 85.59 
C 179.907848 85.59 181.386894 84.977359 182.477248 83.887005 
C 183.567603 82.79665 184.180244 81.317604 184.180244 79.77561 
C 184.180244 78.233615 183.567603 76.75457 182.477248 75.664215 
C 181.386894 74.57386 179.907848 73.96122 178.365854 73.96122 
C 176.823859 73.96122 175.344814 74.57386 174.254459 75.664215 
C 173.164104 76.75457 172.551463 78.233615 172.551463 79.77561 
C 172.551463 81.317604 173.164104 82.79665 174.254459 83.887005 
C 175.344814 84.977359 176.823859 85.59 178.365854 85.59 
z
" clip-path="url(#pfa217771a7)" style="fill: #2c3e50"/>
   </g>
   <g id="patch_60">
    <path d="M 163.360976 72.835854 
L 178.365854 73.96122 
L 178.365854 85.59 
L 163.360976 86.715366 
z
" clip-path="url(#pfa217771a7)" style="fill: #2c3e50"/>
   </g>
   <g id="patch_61">
    <path d="M 129.6 288.673522 
C 130.781864 288.673522 131.915481 288.203962 132.751185 287.368258 
C 133.586889 286.532554 134.056449 285.398937 134.056449 284.217073 
C 134.056449 283.035209 133.586889 281.901592 132.751185 281.065888 
C 131.915481 280.230184 130.781864 279.760624 129.6 279.760624 
C 128.418136 279.760624 127.284519 280.230184 126.448815 281.065888 
C 125.613111 281.901592 125.143551 283.035209 125.143551 284.217073 
C 125.143551 285.398937 125.613111 286.532554 126.448815 287.368258 
C 127.284519 288.203962 128.418136 288.673522 129.6 288.673522 
z
" clip-path="url(#pfa217771a7)" style="fill: #1b1b1b; stroke: #121212; stroke-width: 1.3; stroke-linejoin: miter"/>
   </g>
   <g id="patch_62">
    <path d="M 178.365854 85.965122 
C 180.007331 85.965122 181.5818 85.312956 182.7425 84.152256 
C 183.9032 82.991556 184.555366 81.417088 184.555366 79.77561 
C 184.555366 78.134132 183.9032 76.559664 182.7425 75.398964 
C 181.5818 74.238264 180.007331 73.586098 178.365854 73.586098 
C 176.724376 73.586098 175.149908 74.238264 173.989208 75.398964 
C 172.828508 76.559664 172.176341 78.134132 172.176341 79.77561 
C 172.176341 81.417088 172.828508 82.991556 173.989208 84.152256 
C 175.149908 85.312956 176.724376 85.965122 178.365854 85.965122 
z
" clip-path="url(#pfa217771a7)" style="fill: #f2e0c9; stroke: #a49888; stroke-width: 1.6; stroke-linejoin: miter"/>
   </g>
   <g id="line2d_15">
    <path d="M 143.854634 147.297561 
L 138.790488 218.570732 
L 138.236234 221.714064 
L 136.640322 224.478263 
L 134.195244 226.529928 
L 131.195911 227.621595 
L 128.004089 227.621595 
L 125.004756 226.529928 
L 122.559678 224.478263 
L 120.963766 221.714064 
L 120.409512 218.570732 
L 115.345366 147.297561 
L 116.205025 142.422189 
L 118.680317 138.134859 
L 122.472683 134.952686 
L 127.124709 133.259487 
L 132.075291 133.259487 
L 136.727317 134.952686 
L 140.519683 138.134859 
L 142.994975 142.422189 
L 143.854634 147.297561 
L 143.854634 147.297561 
" clip-path="url(#pfa217771a7)" style="fill: none; stroke: #282a2c; stroke-width: 1.7; stroke-linecap: round"/>
   </g>
   <g id="line2d_16">
    <path d="M 138.790488 218.570732 
L 135.789512 284.217073 
L 135.416239 286.334011 
L 134.341441 288.195615 
L 132.694756 289.577348 
L 130.674798 290.312553 
L 128.525202 290.312553 
L 126.505244 289.577348 
L 124.858559 288.195615 
L 123.783761 286.334011 
L 123.410488 284.217073 
L 120.409512 218.570732 
L 120.963766 215.4274 
L 122.559678 212.6632 
L 125.004756 210.611536 
L 128.004089 209.519868 
L 131.195911 209.519868 
L 134.195244 210.611536 
L 136.640322 212.6632 
L 138.236234 215.4274 
L 138.790488 218.570732 
L 138.790488 218.570732 
" clip-path="url(#pfa217771a7)" style="fill: none; stroke: #282a2c; stroke-width: 1.7; stroke-linecap: round"/>
   </g>
   <g id="line2d_17">
    <path d="M 129.6 278.955988 
L 146.480488 280.812841 
L 147.644804 281.018142 
L 148.668686 281.60928 
L 149.428639 282.514957 
L 149.833002 283.625935 
L 149.833002 284.808212 
L 149.428639 285.919189 
L 148.668686 286.824866 
L 147.644804 287.416005 
L 146.480488 287.621305 
L 129.6 289.478159 
L 127.800603 289.160876 
L 126.21824 288.247298 
L 125.043766 286.847616 
L 124.418842 285.130651 
L 124.418842 283.303495 
L 125.043766 281.58653 
L 126.21824 280.186848 
L 127.800603 279.27327 
L 129.6 278.955988 
L 129.6 278.955988 
" clip-path="url(#pfa217771a7)" style="fill: none; stroke: #121212; stroke-width: 1.5; stroke-linecap: round"/>
   </g>
   <g id="line2d_18">
    <path d="M 129.6 70.397561 
L 163.360976 72.835854 
L 165.734512 73.254372 
L 167.821765 74.459448 
L 169.370981 76.305732 
L 170.195301 78.570534 
L 170.195301 80.980686 
L 169.370981 83.245488 
L 167.821765 85.091771 
L 165.734512 86.296847 
L 163.360976 86.715366 
L 129.6 89.153659 
L 126.392518 88.588093 
L 123.571906 86.959612 
L 121.478372 84.464634 
L 120.364425 81.404091 
L 120.364425 78.147129 
L 121.478372 75.086585 
L 123.571906 72.591608 
L 126.392518 70.963127 
L 129.6 70.397561 
L 129.6 70.397561 
" clip-path="url(#pfa217771a7)" style="fill: none; stroke: #1d2a36; stroke-width: 1.7; stroke-linecap: round"/>
   </g>
   <g id="line2d_19">
    <path d="M 163.360976 72.835854 
L 178.365854 73.96122 
L 180.354492 74.31187 
L 182.103272 75.321528 
L 183.401263 76.868415 
L 184.09191 78.765951 
L 184.09191 80.785268 
L 183.401263 82.682805 
L 182.103272 84.229691 
L 180.354492 85.239349 
L 178.365854 85.59 
L 163.360976 86.715366 
L 160.987439 86.296847 
L 158.900186 85.091771 
L 157.350971 83.245488 
L 156.52665 80.980686 
L 156.52665 78.570534 
L 157.350971 76.305732 
L 158.900186 74.459448 
L 160.987439 73.254372 
L 163.360976 72.835854 
L 163.360976 72.835854 
" clip-path="url(#pfa217771a7)" style="fill: none; stroke: #1d2a36; stroke-width: 1.7; stroke-linecap: round"/>
   </g>
   <g id="patch_63">
    <path d="M 129.6 72.273171 
C 133.57934 72.273171 137.396233 70.692162 140.210051 67.878344 
C 143.023869 65.064525 144.604878 61.247633 144.604878 57.268293 
C 144.604878 53.288953 143.023869 49.47206 140.210051 46.658242 
C 137.396233 43.844423 133.57934 42.263415 129.6 42.263415 
C 125.62066 42.263415 121.803767 43.844423 118.989949 46.658242 
C 116.176131 49.47206 114.595122 53.288953 114.595122 57.268293 
C 114.595122 61.247633 116.176131 65.064525 118.989949 67.878344 
C 121.803767 70.692162 125.62066 72.273171 129.6 72.273171 
z
" clip-path="url(#pfa217771a7)" style="fill: #f2e0c9; stroke: #a49888; stroke-width: 1.8; stroke-linejoin: miter"/>
   </g>
   <g id="line2d_20">
    <path d="M 80.834146 77.149756 
L 85.074655 82.401463 
L 89.315164 77.149756 
L 93.555673 82.401463 
L 97.796182 77.149756 
L 102.036691 82.401463 
L 106.2772 77.149756 
L 110.517709 82.401463 
L 114.758218 77.149756 
L 118.998727 82.401463 
L 123.239236 77.149756 
L 127.479745 82.401463 
L 131.720255 77.149756 
L 135.960764 82.401463 
L 140.201273 77.149756 
L 144.441782 82.401463 
L 148.682291 77.149756 
L 152.9228 82.401463 
L 157.163309 77.149756 
L 161.403818 82.401463 
L 165.644327 77.149756 
L 169.884836 82.401463 
L 174.125345 77.149756 
L 178.365854 82.401463 
" clip-path="url(#pfa217771a7)" style="fill: none; stroke: #c0392b; stroke-width: 3.2; stroke-linecap: round"/>
   </g>
   <g id="patch_64">
    <path d="M 176.719887 67.779074 
Q 129.600742 99.649205 84.519017 69.158091 
" clip-path="url(#pfa217771a7)" style="fill: none; stroke-dasharray: 2.2,0; stroke-dashoffset: 0; stroke: #c0392b; stroke-width: 2.2; stroke-linecap: round"/>
    <path d="M 87.588982 74.614767 
L 84.519017 69.158091 
L 90.726337 69.976124 
z
" clip-path="url(#pfa217771a7)" style="fill: #c0392b; stroke-dasharray: 2.2,0; stroke-dashoffset: 0; stroke: #c0392b; stroke-width: 2.2; stroke-linecap: round"/>
   </g>
  </g>
 </g>
 <defs>
  <clipPath id="pfa217771a7">
   <rect x="5.809756" y="1" width="247.580488" height="307.6"/>
  </clipPath>
 </defs>
</svg>
