<?xml version="1.0" encoding="utf-8" standalone="no"?>
<!DOCTYPE svg PUBLIC "-//W3C//DTD SVG 1.1//EN"
  "http://www.w3.org/Graphics/SVG/1.1/DTD/svg11.dtd">
<svg xmlns:xlink="http://www.w3.org/1999/xlink" width="259.2pt" height="309.6pt" viewBox="0 0 259.2 309.6" xmlns="http://www.w3.org/2000/svg" version="1.1">
 <metadata>
  <rdf:RDF xmlns:dc="http://purl.org/dc/elements/1.1/" xmlns:cc="http://creativecommons.org/ns#" xmlns:rdf="http://www.w3.org/1999/02/22-rdf-syntax-ns#">
   <cc:Work>
    <dc:type rdf:resource="http://purl.org/dc/dcmitype/StillImage"/>
    <dc:date>2026-07-10T23:04:55.371445</dc:date>
    <dc:format>image/svg+xml</dc:format>
    <dc:creator>
     <cc:Agent>
      <dc:title>Matplotlib v3.10.8, https://matplotlib.org/</dc:title>
     </cc:Agent>
    </dc:creator>
   </cc:Work>
  </rdf:RDF>
 </metadata>
 <defs>
  <style type="text/css">*{stroke-linejoin: round; stroke-linecap: butt}</style>
 </defs>
 <g id="figure_1">
  <g id="patch_1">
   <path d="M 0 309.6 
L 259.2 309.6 
L 259.2 0 
L 0 0 
L 0 309.6 
z
" style="fill: none"/>
  </g>
  <g id="axes_1">
   <g id="line2d_1">
    <path d="M 17.063415 299.221951 
L 242.136585 299.221951 
" clip-path="url(#pcee2d55a46)" style="fill: none; stroke: #c3c3c3; stroke-width: 3; stroke-linecap: round"/>
   </g>
   <g id="patch_2">
    <path d="M 153.982927 222.306946 
C 157.46087 222.306946 160.796834 220.925145 163.256111 218.465868 
C 165.715389 216.00659 167.09719 212.670626 167.09719 209.192683 
C 167.09719 205.71474 165.715389 202.378776 163.256111 199.919498 
C 160.796834 197.460221 157.46087 196.07842 153.982927 196.07842 
C 150.504984 196.07842 147.16902 197.460221 144.709742 199.919498 
C 142.250465 202.378776 140.868663 205.71474 140.868663 209.192683 
C 140.868663 212.670626 142.250465 216.00659 144.709742 218.465868 
C 147.16902 220.925145 150.504984 222.306946 153.982927 222.306946 
z
" clip-path="url(#pcee2d55a46)" style="fill: #9aa0a6; fill-opacity: 0.285"/>
   </g>
   <g id="patch_3">
    <path d="M 135.226829 253.284517 
C 137.469187 253.284517 139.620006 252.393619 141.205593 250.808032 
C 142.79118 249.222445 143.682078 247.071626 143.682078 244.829268 
C 143.682078 242.58691 142.79118 240.436091 141.205593 238.850505 
C 139.620006 237.264918 137.469187 236.37402 135.226829 236.37402 
C 132.984471 236.37402 130.833652 237.264918 129.248066 238.850505 
C 127.662479 240.436091 126.77158 242.58691 126.77158 244.829268 
C 126.77158 247.071626 127.662479 249.222445 129.248066 250.808032 
C 130.833652 252.393619 132.984471 253.284517 135.226829 253.284517 
z
" clip-path="url(#pcee2d55a46)" style="fill: #9aa0a6; fill-opacity: 0.285"/>
   </g>
   <g id="patch_4">
    <path d="M 165.587977 215.300604 
L 142.709033 248.76727 
L 127.744626 240.891266 
L 142.377876 203.084762 
z
" clip-path="url(#pcee2d55a46)" style="fill: #9aa0a6; fill-opacity: 0.285"/>
   </g>
   <g id="patch_5">
    <path d="M 135.226829 253.284517 
C 137.469187 253.284517 139.620006 252.393619 141.205593 250.808032 
C 142.79118 249.222445 143.682078 247.071626 143.682078 244.829268 
C 143.682078 242.58691 142.79118 240.436091 141.205593 238.850505 
C 139.620006 237.264918 137.469187 236.37402 135.226829 236.37402 
C 132.984471 236.37402 130.833652 237.264918 129.248066 238.850505 
C 127.662479 240.436091 126.77158 242.58691 126.77158 244.829268 
C 126.77158 247.071626 127.662479 249.222445 129.248066 250.808032 
C 130.833652 252.393619 132.984471 253.284517 135.226829 253.284517 
z
" clip-path="url(#pcee2d55a46)" style="fill: #9aa0a6; fill-opacity: 0.285"/>
   </g>
   <g id="patch_6">
    <path d="M 120.221951 288.035815 
C 121.732111 288.035815 123.180621 287.435822 124.248466 286.367978 
C 125.31631 285.300134 125.916302 283.851623 125.916302 282.341463 
C 125.916302 280.831304 125.31631 279.382793 124.248466 278.314949 
C 123.180621 277.247105 121.732111 276.647112 120.221951 276.647112 
C 118.711792 276.647112 117.263281 277.247105 116.195437 278.314949 
C 115.127593 279.382793 114.5276 280.831304 114.5276 282.341463 
C 114.5276 283.851623 115.127593 285.300134 116.195437 286.367978 
C 117.263281 287.435822 118.711792 288.035815 120.221951 288.035815 
z
" clip-path="url(#pcee2d55a46)" style="fill: #9aa0a6; fill-opacity: 0.285"/>
   </g>
   <g id="patch_7">
    <path d="M 143.077331 247.969469 
L 125.509024 284.456292 
L 114.934879 280.226634 
L 127.376328 241.689068 
z
" clip-path="url(#pcee2d55a46)" style="fill: #9aa0a6; fill-opacity: 0.285"/>
   </g>
   <g id="patch_8">
    <path d="M 120.221951 287.181662 
C 121.505587 287.181662 122.736821 286.671668 123.644488 285.764001 
C 124.552156 284.856333 125.06215 283.625099 125.06215 282.341463 
C 125.06215 281.057828 124.552156 279.826594 123.644488 278.918926 
C 122.736821 278.011259 121.505587 277.501265 120.221951 277.501265 
C 118.938316 277.501265 117.707081 278.011259 116.799414 278.918926 
C 115.891747 279.826594 115.381753 281.057828 115.381753 282.341463 
C 115.381753 283.625099 115.891747 284.856333 116.799414 285.764001 
C 117.707081 286.671668 118.938316 287.181662 120.221951 287.181662 
z
" clip-path="url(#pcee2d55a46)" style="fill: #9aa0a6; fill-opacity: 0.285"/>
   </g>
   <g id="patch_9">
    <path d="M 112.719512 289.224576 
C 113.5501 289.224576 114.346781 288.89458 114.934095 288.307266 
C 115.521409 287.719952 115.851405 286.923271 115.851405 286.092683 
C 115.851405 285.262095 115.521409 284.465414 114.934095 283.8781 
C 114.346781 283.290786 113.5501 282.96079 112.719512 282.96079 
C 111.888924 282.96079 111.092244 283.290786 110.504929 283.8781 
C 109.917615 284.465414 109.587619 285.262095 109.587619 286.092683 
C 109.587619 286.923271 109.917615 287.719952 110.504929 288.307266 
C 111.092244 288.89458 111.888924 289.224576 112.719512 289.224576 
z
" clip-path="url(#pcee2d55a46)" style="fill: #9aa0a6; fill-opacity: 0.285"/>
   </g>
   <g id="patch_10">
    <path d="M 122.386554 286.670669 
L 114.120137 288.893933 
L 111.318887 283.291433 
L 118.057349 278.012258 
z
" clip-path="url(#pcee2d55a46)" style="fill: #9aa0a6; fill-opacity: 0.285"/>
   </g>
   <g id="patch_11">
    <path d="M 120.221951 286.441396 
C 121.309266 286.441396 122.352194 286.009402 123.121042 285.240554 
C 123.889889 284.471706 124.321884 283.428778 124.321884 282.341463 
C 124.321884 281.254149 123.889889 280.211221 123.121042 279.442373 
C 122.352194 278.673525 121.309266 278.241531 120.221951 278.241531 
C 119.134636 278.241531 118.091709 278.673525 117.322861 279.442373 
C 116.554013 280.211221 116.122018 281.254149 116.122018 282.341463 
C 116.122018 283.428778 116.554013 284.471706 117.322861 285.240554 
C 118.091709 286.009402 119.134636 286.441396 120.221951 286.441396 
z
" clip-path="url(#pcee2d55a46)" style="fill: #9aa0a6; fill-opacity: 0.285; stroke: #7d8288; stroke-opacity: 0.85; stroke-width: 1.3; stroke-linejoin: miter"/>
   </g>
   <g id="line2d_2">
    <path d="M 165.587977 215.300604 
L 142.709033 248.76727 
L 140.910925 251.088844 
L 138.427231 252.655421 
L 135.557521 253.278048 
L 132.647925 252.881627 
L 130.049383 251.513974 
L 128.075318 249.340046 
L 126.96383 246.622052 
L 126.848982 243.687821 
L 127.744626 240.891266 
L 142.377876 203.084762 
L 145.166779 199.483953 
L 149.019038 197.054161 
L 153.470017 196.088454 
L 157.982859 196.70331 
L 162.013251 198.824568 
L 165.075067 202.196375 
L 166.799008 206.412039 
L 166.977139 210.963091 
L 165.587977 215.300604 
L 165.587977 215.300604 
" clip-path="url(#pcee2d55a46)" style="fill: none; stroke: #7d8288; stroke-opacity: 0.85; stroke-width: 1.7; stroke-linecap: round"/>
   </g>
   <g id="line2d_3">
    <path d="M 143.077331 247.969469 
L 125.509024 284.456292 
L 124.46686 286.137038 
L 122.912698 287.359981 
L 121.033992 287.977617 
L 119.057342 287.915449 
L 117.221161 287.180977 
L 115.746919 285.862788 
L 114.812433 284.119875 
L 114.530414 282.16246 
L 114.934879 280.226634 
L 127.376328 241.689068 
L 128.923783 239.193415 
L 131.231478 237.37753 
L 134.021072 236.460434 
L 136.956098 236.552744 
L 139.682548 237.643324 
L 141.871573 239.600635 
L 143.259144 242.188596 
L 143.677899 245.095062 
L 143.077331 247.969469 
L 143.077331 247.969469 
" clip-path="url(#pcee2d55a46)" style="fill: none; stroke: #7d8288; stroke-opacity: 0.85; stroke-width: 1.7; stroke-linecap: round"/>
   </g>
   <g id="line2d_4">
    <path d="M 122.386554 286.670669 
L 114.120137 288.893933 
L 113.077585 289.204039 
L 111.991844 289.13887 
L 110.993871 288.706285 
L 110.204035 287.958462 
L 109.717603 286.985597 
L 109.593246 285.905035 
L 109.845962 284.847105 
L 110.445271 283.939411 
L 111.318887 283.291433 
L 118.057349 278.012258 
L 119.668566 277.533004 
L 121.346529 277.63372 
L 122.888852 278.30226 
L 124.109507 279.457987 
L 124.861265 280.961505 
L 125.053454 282.631465 
L 124.662892 284.266447 
L 123.736688 285.669248 
L 122.386554 286.670669 
L 122.386554 286.670669 
" clip-path="url(#pcee2d55a46)" style="fill: none; stroke: #7d8288; stroke-opacity: 0.85; stroke-width: 1.5; stroke-linecap: round"/>
   </g>
   <g id="patch_12">
    <path d="M 67.704878 211.068293 
C 69.694548 211.068293 71.602994 210.277788 73.009904 208.870879 
C 74.416813 207.46397 75.207317 205.555524 75.207317 203.565854 
C 75.207317 201.576184 74.416813 199.667737 73.009904 198.260828 
C 71.602994 196.853919 69.694548 196.063415 67.704878 196.063415 
C 65.715208 196.063415 63.806762 196.853919 62.399853 198.260828 
C 60.992943 199.667737 60.202439 201.576184 60.202439 203.565854 
C 60.202439 205.555524 60.992943 207.46397 62.399853 208.870879 
C 63.806762 210.277788 65.715208 211.068293 67.704878 211.068293 
z
" clip-path="url(#pcee2d55a46)" style="fill: #9aa0a6; fill-opacity: 0.3"/>
   </g>
   <g id="patch_13">
    <path d="M 80.834146 220.821463 
C 83.918135 220.821463 86.876227 219.596182 89.056936 217.415472 
C 91.237645 215.234763 92.462927 212.276672 92.462927 209.192683 
C 92.462927 206.108694 91.237645 203.150603 89.056936 200.969893 
C 86.876227 198.789184 83.918135 197.563902 80.834146 197.563902 
C 77.750158 197.563902 74.792066 198.789184 72.611357 200.969893 
C 70.430648 203.150603 69.205366 206.108694 69.205366 209.192683 
C 69.205366 212.276672 70.430648 215.234763 72.611357 217.415472 
C 74.792066 219.596182 77.750158 220.821463 80.834146 220.821463 
z
" clip-path="url(#pcee2d55a46)" style="fill: #9aa0a6; fill-opacity: 0.3"/>
   </g>
   <g id="patch_14">
    <path d="M 70.660234 196.670024 
L 85.414947 198.504147 
L 76.253345 219.881219 
L 64.749523 210.461683 
z
" clip-path="url(#pcee2d55a46)" style="fill: #9aa0a6; fill-opacity: 0.3"/>
   </g>
   <g id="patch_15">
    <path d="M 80.834146 232.450244 
C 87.002124 232.450244 92.918307 229.999681 97.279725 225.638262 
C 101.641144 221.276843 104.091707 215.36066 104.091707 209.192683 
C 104.091707 203.024706 101.641144 197.108522 97.279725 192.747104 
C 92.918307 188.385685 87.002124 185.935122 80.834146 185.935122 
C 74.666169 185.935122 68.749986 188.385685 64.388567 192.747104 
C 60.027149 197.108522 57.576585 203.024706 57.576585 209.192683 
C 57.576585 215.36066 60.027149 221.276843 64.388567 225.638262 
C 68.749986 229.999681 74.666169 232.450244 80.834146 232.450244 
z
" clip-path="url(#pcee2d55a46)" style="fill: #9aa0a6; fill-opacity: 0.3"/>
   </g>
   <g id="patch_16">
    <path d="M 153.982927 226.448293 
C 158.559168 226.448293 162.948594 224.630133 166.184486 221.394242 
C 169.420377 218.15835 171.238537 213.768924 171.238537 209.192683 
C 171.238537 204.616442 169.420377 200.227015 166.184486 196.991124 
C 162.948594 193.755233 158.559168 191.937073 153.982927 191.937073 
C 149.406686 191.937073 145.017259 193.755233 141.781368 196.991124 
C 138.545477 200.227015 136.727317 204.616442 136.727317 209.192683 
C 136.727317 213.768924 138.545477 218.15835 141.781368 221.394242 
C 145.017259 224.630133 149.406686 226.448293 153.982927 226.448293 
z
" clip-path="url(#pcee2d55a46)" style="fill: #9aa0a6; fill-opacity: 0.3"/>
   </g>
   <g id="patch_17">
    <path d="M 80.834146 185.935122 
L 153.982927 191.937073 
L 153.982927 226.448293 
L 80.834146 232.450244 
z
" clip-path="url(#pcee2d55a46)" style="fill: #9aa0a6; fill-opacity: 0.3"/>
   </g>
   <g id="patch_18">
    <path d="M 153.982927 223.447317 
C 157.7633 223.447317 161.389348 221.945359 164.062475 219.272231 
C 166.735603 216.599104 168.237561 212.973056 168.237561 209.192683 
C 168.237561 205.41231 166.735603 201.786262 164.062475 199.113134 
C 161.389348 196.440007 157.7633 194.938049 153.982927 194.938049 
C 150.202554 194.938049 146.576506 196.440007 143.903378 199.113134 
C 141.230251 201.786262 139.728293 205.41231 139.728293 209.192683 
C 139.728293 212.973056 141.230251 216.599104 143.903378 219.272231 
C 146.576506 221.945359 150.202554 223.447317 153.982927 223.447317 
z
" clip-path="url(#pcee2d55a46)" style="fill: #9aa0a6; fill-opacity: 0.3"/>
   </g>
   <g id="patch_19">
    <path d="M 153.982927 261.522195 
C 156.420273 261.522195 158.758119 260.553827 160.481583 258.830364 
C 162.205047 257.1069 163.173415 254.769053 163.173415 252.331707 
C 163.173415 249.894361 162.205047 247.556515 160.481583 245.833051 
C 158.758119 244.109587 156.420273 243.14122 153.982927 243.14122 
C 151.545581 243.14122 149.207734 244.109587 147.484271 245.833051 
C 145.760807 247.556515 144.792439 249.894361 144.792439 252.331707 
C 144.792439 254.769053 145.760807 257.1069 147.484271 258.830364 
C 149.207734 260.553827 151.545581 261.522195 153.982927 261.522195 
z
" clip-path="url(#pcee2d55a46)" style="fill: #9aa0a6; fill-opacity: 0.3"/>
   </g>
   <g id="patch_20">
    <path d="M 168.237561 209.192683 
L 163.173415 252.331707 
L 144.792439 252.331707 
L 139.728293 209.192683 
z
" clip-path="url(#pcee2d55a46)" style="fill: #9aa0a6; fill-opacity: 0.3"/>
   </g>
   <g id="patch_21">
    <path d="M 153.982927 261.522195 
C 156.420273 261.522195 158.758119 260.553827 160.481583 258.830364 
C 162.205047 257.1069 163.173415 254.769053 163.173415 252.331707 
C 163.173415 249.894361 162.205047 247.556515 160.481583 245.833051 
C 158.758119 244.109587 156.420273 243.14122 153.982927 243.14122 
C 151.545581 243.14122 149.207734 244.109587 147.484271 245.833051 
C 145.760807 247.556515 144.792439 249.894361 144.792439 252.331707 
C 144.792439 254.769053 145.760807 257.1069 147.484271 258.830364 
C 149.207734 260.553827 151.545581 261.522195 153.982927 261.522195 
z
" clip-path="url(#pcee2d55a46)" style="fill: #9aa0a6; fill-opacity: 0.3"/>
   </g>
   <g id="patch_22">
    <path d="M 153.982927 290.406585 
C 155.624405 290.406585 157.198873 289.754419 158.359573 288.593719 
C 159.520273 287.433019 160.172439 285.858551 160.172439 284.217073 
C 160.172439 282.575595 159.520273 281.001127 158.359573 279.840427 
C 157.198873 278.679727 155.624405 278.027561 153.982927 278.027561 
C 152.341449 278.027561 150.766981 278.679727 149.606281 279.840427 
C 148.445581 281.001127 147.793415 282.575595 147.793415 284.217073 
C 147.793415 285.858551 148.445581 287.433019 149.606281 288.593719 
C 150.766981 289.754419 152.341449 290.406585 153.982927 290.406585 
z
" clip-path="url(#pcee2d55a46)" style="fill: #9aa0a6; fill-opacity: 0.3"/>
   </g>
   <g id="patch_23">
    <path d="M 163.173415 252.331707 
L 160.172439 284.217073 
L 147.793415 284.217073 
L 144.792439 252.331707 
z
" clip-path="url(#pcee2d55a46)" style="fill: #9aa0a6; fill-opacity: 0.3"/>
   </g>
   <g id="patch_24">
    <path d="M 153.982927 289.478159 
C 155.378183 289.478159 156.716481 288.923817 157.703076 287.937222 
C 158.689671 286.950627 159.244012 285.612329 159.244012 284.217073 
C 159.244012 282.821817 158.689671 281.483519 157.703076 280.496924 
C 156.716481 279.510329 155.378183 278.955988 153.982927 278.955988 
C 152.587671 278.955988 151.249373 279.510329 150.262778 280.496924 
C 149.276183 281.483519 148.721841 282.821817 148.721841 284.217073 
C 148.721841 285.612329 149.276183 286.950627 150.262778 287.937222 
C 151.249373 288.923817 152.587671 289.478159 153.982927 289.478159 
z
" clip-path="url(#pcee2d55a46)" style="fill: #9aa0a6; fill-opacity: 0.3"/>
   </g>
   <g id="patch_25">
    <path d="M 153.982927 293.248134 
C 154.88574 293.248134 155.751697 292.889443 156.390082 292.251058 
C 157.028467 291.612673 157.387159 290.746715 157.387159 289.843902 
C 157.387159 288.94109 157.028467 288.075132 156.390082 287.436747 
C 155.751697 286.798362 154.88574 286.439671 153.982927 286.439671 
C 153.080114 286.439671 152.214157 286.798362 151.575772 287.436747 
C 150.937386 288.075132 150.578695 288.94109 150.578695 289.843902 
C 150.578695 290.746715 150.937386 291.612673 151.575772 292.251058 
C 152.214157 292.889443 153.080114 293.248134 153.982927 293.248134 
z
" clip-path="url(#pcee2d55a46)" style="fill: #9aa0a6; fill-opacity: 0.3"/>
   </g>
   <g id="patch_26">
    <path d="M 159.244012 284.217073 
L 157.387159 289.843902 
L 150.578695 289.843902 
L 148.721841 284.217073 
z
" clip-path="url(#pcee2d55a46)" style="fill: #9aa0a6; fill-opacity: 0.3"/>
   </g>
   <g id="line2d_5">
    <path d="M 70.660234 196.670024 
L 85.414947 198.504147 
L 88.794386 200.715471 
L 91.213702 203.949272 
L 92.38109 207.815505 
L 92.155747 211.847847 
L 90.564852 215.559936 
L 87.800289 218.504041 
L 84.195508 220.325059 
L 80.185296 220.803347 
L 76.253345 219.881219 
L 64.749523 210.461683 
L 62.56924 209.035023 
L 61.008391 206.9487 
L 60.255237 204.454355 
L 60.40062 201.852845 
L 61.427004 199.457948 
L 63.210592 197.558526 
L 65.536258 196.383676 
L 68.123491 196.075102 
L 70.660234 196.670024 
L 70.660234 196.670024 
" clip-path="url(#pcee2d55a46)" style="fill: none; stroke: #7d8288; stroke-opacity: 0.85; stroke-width: 1.7; stroke-linecap: round"/>
   </g>
   <g id="line2d_6">
    <path d="M 80.834146 185.935122 
L 153.982927 191.937073 
L 159.884693 192.977714 
L 165.074619 195.974119 
L 168.926723 200.564878 
L 170.976385 206.196278 
L 170.976385 212.189088 
L 168.926723 217.820488 
L 165.074619 222.411247 
L 159.884693 225.407652 
L 153.982927 226.448293 
L 80.834146 232.450244 
L 72.879592 231.047641 
L 65.884474 227.009008 
L 60.692508 220.821463 
L 57.92992 213.231316 
L 57.92992 205.15405 
L 60.692508 197.563902 
L 65.884474 191.376358 
L 72.879592 187.337725 
L 80.834146 185.935122 
L 80.834146 185.935122 
" clip-path="url(#pcee2d55a46)" style="fill: none; stroke: #7d8288; stroke-opacity: 0.85; stroke-width: 1.7; stroke-linecap: round"/>
   </g>
   <g id="patch_27">
    <path d="M 80.834146 218.570732 
C 83.321234 218.570732 85.706792 217.582601 87.465428 215.823965 
C 89.224065 214.065328 90.212195 211.679771 90.212195 209.192683 
C 90.212195 206.705595 89.224065 204.320038 87.465428 202.561401 
C 85.706792 200.802765 83.321234 199.814634 80.834146 199.814634 
C 78.347059 199.814634 75.961501 200.802765 74.202864 202.561401 
C 72.444228 204.320038 71.456098 206.705595 71.456098 209.192683 
C 71.456098 211.679771 72.444228 214.065328 74.202864 215.823965 
C 75.961501 217.582601 78.347059 218.570732 80.834146 218.570732 
z
" clip-path="url(#pcee2d55a46)" style="fill: #9aa0a6; fill-opacity: 0.3"/>
   </g>
   <g id="patch_28">
    <path d="M 80.834146 259.271463 
C 82.674591 259.271463 84.439904 258.540247 85.741295 257.238856 
C 87.042686 255.937465 87.773902 254.172152 87.773902 252.331707 
C 87.773902 250.491262 87.042686 248.72595 85.741295 247.424559 
C 84.439904 246.123168 82.674591 245.391951 80.834146 245.391951 
C 78.993702 245.391951 77.228389 246.123168 75.926998 247.424559 
C 74.625607 248.72595 73.89439 250.491262 73.89439 252.331707 
C 73.89439 254.172152 74.625607 255.937465 75.926998 257.238856 
C 77.228389 258.540247 78.993702 259.271463 80.834146 259.271463 
z
" clip-path="url(#pcee2d55a46)" style="fill: #9aa0a6; fill-opacity: 0.3"/>
   </g>
   <g id="patch_29">
    <path d="M 90.212195 209.192683 
L 87.773902 252.331707 
L 73.89439 252.331707 
L 71.456098 209.192683 
z
" clip-path="url(#pcee2d55a46)" style="fill: #9aa0a6; fill-opacity: 0.3"/>
   </g>
   <g id="patch_30">
    <path d="M 80.834146 259.271463 
C 82.674591 259.271463 84.439904 258.540247 85.741295 257.238856 
C 87.042686 255.937465 87.773902 254.172152 87.773902 252.331707 
C 87.773902 250.491262 87.042686 248.72595 85.741295 247.424559 
C 84.439904 246.123168 82.674591 245.391951 80.834146 245.391951 
C 78.993702 245.391951 77.228389 246.123168 75.926998 247.424559 
C 74.625607 248.72595 73.89439 250.491262 73.89439 252.331707 
C 73.89439 254.172152 74.625607 255.937465 75.926998 257.238856 
C 77.228389 258.540247 78.993702 259.271463 80.834146 259.271463 
z
" clip-path="url(#pcee2d55a46)" style="fill: #9aa0a6; fill-opacity: 0.3"/>
   </g>
   <g id="patch_31">
    <path d="M 80.834146 290.031463 
C 82.376141 290.031463 83.855186 289.418823 84.945541 288.328468 
C 86.035896 287.238113 86.648537 285.759067 86.648537 284.217073 
C 86.648537 282.675079 86.035896 281.196033 84.945541 280.105678 
C 83.855186 279.015324 82.376141 278.402683 80.834146 278.402683 
C 79.292152 278.402683 77.813106 279.015324 76.722752 280.105678 
C 75.632397 281.196033 75.019756 282.675079 75.019756 284.217073 
C 75.019756 285.759067 75.632397 287.238113 76.722752 288.328468 
C 77.813106 289.418823 79.292152 290.031463 80.834146 290.031463 
z
" clip-path="url(#pcee2d55a46)" style="fill: #9aa0a6; fill-opacity: 0.3"/>
   </g>
   <g id="patch_32">
    <path d="M 87.773902 252.331707 
L 86.648537 284.217073 
L 75.019756 284.217073 
L 73.89439 252.331707 
z
" clip-path="url(#pcee2d55a46)" style="fill: #9aa0a6; fill-opacity: 0.3"/>
   </g>
   <g id="patch_33">
    <path d="M 153.982927 288.673522 
C 155.164791 288.673522 156.298408 288.203962 157.134112 287.368258 
C 157.969816 286.532554 158.439376 285.398937 158.439376 284.217073 
C 158.439376 283.035209 157.969816 281.901592 157.134112 281.065888 
C 156.298408 280.230184 155.164791 279.760624 153.982927 279.760624 
C 152.801063 279.760624 151.667446 280.230184 150.831742 281.065888 
C 149.996038 281.901592 149.526478 283.035209 149.526478 284.217073 
C 149.526478 285.398937 149.996038 286.532554 150.831742 287.368258 
C 151.667446 288.203962 152.801063 288.673522 153.982927 288.673522 
z
" clip-path="url(#pcee2d55a46)" style="fill: #9aa0a6; fill-opacity: 0.3; stroke: #7d8288; stroke-opacity: 0.85; stroke-width: 1.3; stroke-linejoin: miter"/>
   </g>
   <g id="patch_34">
    <path d="M 80.834146 290.406585 
C 82.475624 290.406585 84.050092 289.754419 85.210792 288.593719 
C 86.371492 287.433019 87.023659 285.858551 87.023659 284.217073 
C 87.023659 282.575595 86.371492 281.001127 85.210792 279.840427 
C 84.050092 278.679727 82.475624 278.027561 80.834146 278.027561 
C 79.192669 278.027561 77.6182 278.679727 76.4575 279.840427 
C 75.2968 281.001127 74.644634 282.575595 74.644634 284.217073 
C 74.644634 285.858551 75.2968 287.433019 76.4575 288.593719 
C 77.6182 289.754419 79.192669 290.406585 80.834146 290.406585 
z
" clip-path="url(#pcee2d55a46)" style="fill: #9aa0a6; fill-opacity: 0.3; stroke: #7d8288; stroke-opacity: 0.85; stroke-width: 1.6; stroke-linejoin: miter"/>
   </g>
   <g id="line2d_7">
    <path d="M 168.237561 209.192683 
L 163.173415 252.331707 
L 162.61916 255.475039 
L 161.023249 258.239239 
L 158.578171 260.290903 
L 155.578838 261.382571 
L 152.387015 261.382571 
L 149.387683 260.290903 
L 146.942605 258.239239 
L 145.346693 255.475039 
L 144.792439 252.331707 
L 139.728293 209.192683 
L 140.587952 204.317311 
L 143.063244 200.029981 
L 146.85561 196.847808 
L 151.507636 195.154609 
L 156.458218 195.154609 
L 161.110244 196.847808 
L 164.90261 200.029981 
L 167.377901 204.317311 
L 168.237561 209.192683 
L 168.237561 209.192683 
" clip-path="url(#pcee2d55a46)" style="fill: none; stroke: #7d8288; stroke-opacity: 0.85; stroke-width: 1.7; stroke-linecap: round"/>
   </g>
   <g id="line2d_8">
    <path d="M 163.173415 252.331707 
L 160.172439 284.217073 
L 159.799166 286.334011 
L 158.724368 288.195615 
L 157.077683 289.577348 
L 155.057724 290.312553 
L 152.908129 290.312553 
L 150.888171 289.577348 
L 149.241485 288.195615 
L 148.166688 286.334011 
L 147.793415 284.217073 
L 144.792439 252.331707 
L 145.346693 249.188375 
L 146.942605 246.424176 
L 149.387683 244.372511 
L 152.387015 243.280844 
L 155.578838 243.280844 
L 158.578171 244.372511 
L 161.023249 246.424176 
L 162.61916 249.188375 
L 163.173415 252.331707 
L 163.173415 252.331707 
" clip-path="url(#pcee2d55a46)" style="fill: none; stroke: #7d8288; stroke-opacity: 0.85; stroke-width: 1.7; stroke-linecap: round"/>
   </g>
   <g id="line2d_9">
    <path d="M 159.244012 284.217073 
L 157.387159 289.843902 
L 157.181858 291.008218 
L 156.59072 292.0321 
L 155.685043 292.792054 
L 154.574065 293.196416 
L 153.391788 293.196416 
L 152.280811 292.792054 
L 151.375134 292.0321 
L 150.783995 291.008218 
L 150.578695 289.843902 
L 148.721841 284.217073 
L 149.039124 282.417676 
L 149.952702 280.835313 
L 151.352384 279.66084 
L 153.069349 279.035916 
L 154.896505 279.035916 
L 156.61347 279.66084 
L 158.013152 280.835313 
L 158.92673 282.417676 
L 159.244012 284.217073 
L 159.244012 284.217073 
" clip-path="url(#pcee2d55a46)" style="fill: none; stroke: #7d8288; stroke-opacity: 0.85; stroke-width: 1.5; stroke-linecap: round"/>
   </g>
   <g id="line2d_10">
    <path d="M 90.212195 209.192683 
L 87.773902 252.331707 
L 87.355384 254.705244 
L 86.150308 256.792497 
L 84.304024 258.341712 
L 82.039222 259.166033 
L 79.62907 259.166033 
L 77.364268 258.341712 
L 75.517985 256.792497 
L 74.312909 254.705244 
L 73.89439 252.331707 
L 71.456098 209.192683 
L 72.021663 205.985201 
L 73.650144 203.164589 
L 76.145122 201.071054 
L 79.205665 199.957108 
L 82.462627 199.957108 
L 85.523171 201.071054 
L 88.018148 203.164589 
L 89.64663 205.985201 
L 90.212195 209.192683 
L 90.212195 209.192683 
" clip-path="url(#pcee2d55a46)" style="fill: none; stroke: #7d8288; stroke-opacity: 0.85; stroke-width: 1.7; stroke-linecap: round"/>
   </g>
   <g id="line2d_11">
    <path d="M 87.773902 252.331707 
L 86.648537 284.217073 
L 86.297886 286.205712 
L 85.288228 287.954491 
L 83.741341 289.252483 
L 81.843805 289.94313 
L 79.824488 289.94313 
L 77.926951 289.252483 
L 76.380065 287.954491 
L 75.370407 286.205712 
L 75.019756 284.217073 
L 73.89439 252.331707 
L 74.312909 249.958171 
L 75.517985 247.870918 
L 77.364268 246.321702 
L 79.62907 245.497382 
L 82.039222 245.497382 
L 84.304024 246.321702 
L 86.150308 247.870918 
L 87.355384 249.958171 
L 87.773902 252.331707 
L 87.773902 252.331707 
" clip-path="url(#pcee2d55a46)" style="fill: none; stroke: #7d8288; stroke-opacity: 0.85; stroke-width: 1.7; stroke-linecap: round"/>
   </g>
   <g id="patch_35">
    <path d="M 67.704878 218.570732 
C 71.684218 218.570732 75.501111 216.989723 78.314929 214.175905 
C 81.128747 211.362086 82.709756 207.545194 82.709756 203.565854 
C 82.709756 199.586513 81.128747 195.769621 78.314929 192.955803 
C 75.501111 190.141984 71.684218 188.560976 67.704878 188.560976 
C 63.725538 188.560976 59.908645 190.141984 57.094827 192.955803 
C 54.281009 195.769621 52.7 199.586513 52.7 203.565854 
C 52.7 207.545194 54.281009 211.362086 57.094827 214.175905 
C 59.908645 216.989723 63.725538 218.570732 67.704878 218.570732 
z
" clip-path="url(#pcee2d55a46)" style="fill: #9aa0a6; fill-opacity: 0.3; stroke: #7d8288; stroke-opacity: 0.85; stroke-width: 1.8; stroke-linejoin: miter"/>
   </g>
   <g id="patch_36">
    <path d="M 153.982927 222.306946 
C 157.46087 222.306946 160.796834 220.925145 163.256111 218.465868 
C 165.715389 216.00659 167.09719 212.670626 167.09719 209.192683 
C 167.09719 205.71474 165.715389 202.378776 163.256111 199.919498 
C 160.796834 197.460221 157.46087 196.07842 153.982927 196.07842 
C 150.504984 196.07842 147.16902 197.460221 144.709742 199.919498 
C 142.250465 202.378776 140.868663 205.71474 140.868663 209.192683 
C 140.868663 212.670626 142.250465 216.00659 144.709742 218.465868 
C 147.16902 220.925145 150.504984 222.306946 153.982927 222.306946 
z
" clip-path="url(#pcee2d55a46)" style="fill: #3c3f42; fill-opacity: 0.95"/>
   </g>
   <g id="patch_37">
    <path d="M 189.619512 234.52842 
C 191.86187 234.52842 194.012689 233.637521 195.598276 232.051934 
C 197.183863 230.466348 198.074761 228.315529 198.074761 226.073171 
C 198.074761 223.830813 197.183863 221.679994 195.598276 220.094407 
C 194.012689 218.50882 191.86187 217.617922 189.619512 217.617922 
C 187.377154 217.617922 185.226335 218.50882 183.640748 220.094407 
C 182.055162 221.679994 181.164263 223.830813 181.164263 226.073171 
C 181.164263 228.315529 182.055162 230.466348 183.640748 232.051934 
C 185.226335 233.637521 187.377154 234.52842 189.619512 234.52842 
z
" clip-path="url(#pcee2d55a46)" style="fill: #3c3f42; fill-opacity: 0.95"/>
   </g>
   <g id="patch_38">
    <path d="M 159.596964 197.340827 
L 193.239089 218.431842 
L 185.999936 233.714499 
L 148.36889 221.044539 
z
" clip-path="url(#pcee2d55a46)" style="fill: #3c3f42; fill-opacity: 0.95"/>
   </g>
   <g id="patch_39">
    <path d="M 189.619512 234.52842 
C 191.86187 234.52842 194.012689 233.637521 195.598276 232.051934 
C 197.183863 230.466348 198.074761 228.315529 198.074761 226.073171 
C 198.074761 223.830813 197.183863 221.679994 195.598276 220.094407 
C 194.012689 218.50882 191.86187 217.617922 189.619512 217.617922 
C 187.377154 217.617922 185.226335 218.50882 183.640748 220.094407 
C 182.055162 221.679994 181.164263 223.830813 181.164263 226.073171 
C 181.164263 228.315529 182.055162 230.466348 183.640748 232.051934 
C 185.226335 233.637521 187.377154 234.52842 189.619512 234.52842 
z
" clip-path="url(#pcee2d55a46)" style="fill: #3c3f42; fill-opacity: 0.95"/>
   </g>
   <g id="patch_40">
    <path d="M 217.753659 254.274839 
C 219.263818 254.274839 220.712329 253.674846 221.780173 252.607002 
C 222.848017 251.539158 223.44801 250.090647 223.44801 248.580488 
C 223.44801 247.070328 222.848017 245.621818 221.780173 244.553973 
C 220.712329 243.486129 219.263818 242.886137 217.753659 242.886137 
C 216.243499 242.886137 214.794988 243.486129 213.727144 244.553973 
C 212.6593 245.621818 212.059307 247.070328 212.059307 248.580488 
C 212.059307 250.090647 212.6593 251.539158 213.727144 252.607002 
C 214.794988 253.674846 216.243499 254.274839 217.753659 254.274839 
z
" clip-path="url(#pcee2d55a46)" style="fill: #3c3f42; fill-opacity: 0.95"/>
   </g>
   <g id="patch_41">
    <path d="M 194.901464 219.470731 
L 221.310892 244.133947 
L 214.196426 253.027029 
L 184.33756 232.675611 
z
" clip-path="url(#pcee2d55a46)" style="fill: #3c3f42; fill-opacity: 0.95"/>
   </g>
   <g id="patch_42">
    <path d="M 217.753659 253.420686 
C 219.037294 253.420686 220.268528 252.910692 221.176196 252.003025 
C 222.083863 251.095358 222.593857 249.864123 222.593857 248.580488 
C 222.593857 247.296852 222.083863 246.065618 221.176196 245.157951 
C 220.268528 244.250283 219.037294 243.740289 217.753659 243.740289 
C 216.470023 243.740289 215.238789 244.250283 214.331121 245.157951 
C 213.423454 246.065618 212.91346 247.296852 212.91346 248.580488 
C 212.91346 249.864123 213.423454 251.095358 214.331121 252.003025 
C 215.238789 252.910692 216.470023 253.420686 217.753659 253.420686 
z
" clip-path="url(#pcee2d55a46)" style="fill: #1b1b1b; fill-opacity: 0.95"/>
   </g>
   <g id="patch_43">
    <path d="M 227.131707 255.4636 
C 227.962295 255.4636 228.758976 255.133604 229.34629 254.54629 
C 229.933604 253.958976 230.2636 253.162295 230.2636 252.331707 
C 230.2636 251.50112 229.933604 250.704439 229.34629 250.117124 
C 228.758976 249.52981 227.962295 249.199814 227.131707 249.199814 
C 226.30112 249.199814 225.504439 249.52981 224.917124 250.117124 
C 224.32981 250.704439 223.999814 251.50112 223.999814 252.331707 
C 223.999814 253.162295 224.32981 253.958976 224.917124 254.54629 
C 225.504439 255.133604 226.30112 255.4636 227.131707 255.4636 
z
" clip-path="url(#pcee2d55a46)" style="fill: #1b1b1b; fill-opacity: 0.95"/>
   </g>
   <g id="patch_44">
    <path d="M 219.551263 244.086476 
L 228.294863 249.423818 
L 225.968551 255.239597 
L 215.956054 253.074499 
z
" clip-path="url(#pcee2d55a46)" style="fill: #1b1b1b; fill-opacity: 0.95"/>
   </g>
   <g id="patch_45">
    <path d="M 217.753659 252.680421 
C 218.840973 252.680421 219.883901 252.248426 220.652749 251.479578 
C 221.421597 250.71073 221.853591 249.667803 221.853591 248.580488 
C 221.853591 247.493173 221.421597 246.450245 220.652749 245.681397 
C 219.883901 244.91255 218.840973 244.480555 217.753659 244.480555 
C 216.666344 244.480555 215.623416 244.91255 214.854568 245.681397 
C 214.08572 246.450245 213.653726 247.493173 213.653726 248.580488 
C 213.653726 249.667803 214.08572 250.71073 214.854568 251.479578 
C 215.623416 252.248426 216.666344 252.680421 217.753659 252.680421 
z
" clip-path="url(#pcee2d55a46)" style="fill: #1b1b1b; fill-opacity: 0.95; stroke: #121212; stroke-width: 1.3; stroke-linejoin: miter"/>
   </g>
   <g id="line2d_12">
    <path d="M 159.596964 197.340827 
L 193.239089 218.431842 
L 195.63429 220.130639 
L 197.30402 222.546193 
L 198.046885 225.387152 
L 197.773284 228.310855 
L 196.516219 230.964661 
L 194.427308 233.02848 
L 191.758507 234.253387 
L 188.831711 234.491639 
L 185.999936 233.714499 
L 148.36889 221.044539 
L 144.653884 218.409671 
L 142.064099 214.663098 
L 140.9119 210.256712 
L 141.33626 205.721989 
L 143.285994 201.605882 
L 146.525937 198.404856 
L 150.665303 196.505001 
L 155.204823 196.135467 
L 159.596964 197.340827 
L 159.596964 197.340827 
" clip-path="url(#pcee2d55a46)" style="fill: none; stroke: #282a2c; stroke-width: 1.7; stroke-linecap: round"/>
   </g>
   <g id="line2d_13">
    <path d="M 194.901464 219.470731 
L 221.310892 244.133947 
L 222.617171 245.618751 
L 223.336839 247.460785 
L 223.383093 249.437871 
L 222.750354 251.311545 
L 221.51494 252.855812 
L 219.82586 253.884413 
L 217.886842 254.273281 
L 215.93176 253.975515 
L 214.196426 253.027029 
L 184.33756 232.675611 
L 182.397933 230.470901 
L 181.329336 227.73576 
L 181.260655 224.800086 
L 182.200177 222.017965 
L 184.034579 219.724962 
L 186.542607 218.197646 
L 189.421756 217.620235 
L 192.324756 218.062373 
L 194.901464 219.470731 
L 194.901464 219.470731 
" clip-path="url(#pcee2d55a46)" style="fill: none; stroke: #282a2c; stroke-width: 1.7; stroke-linecap: round"/>
   </g>
   <g id="line2d_14">
    <path d="M 219.551263 244.086476 
L 228.294863 249.423818 
L 229.219273 249.997007 
L 229.891892 250.851797 
L 230.231592 251.885085 
L 230.1974 252.972243 
L 229.79344 253.982142 
L 229.068436 254.792975 
L 228.109834 255.306942 
L 227.033255 255.462053 
L 225.968551 255.239597 
L 215.956054 253.074499 
L 214.52742 252.18866 
L 213.487919 250.867622 
L 212.962928 249.270722 
L 213.01577 247.59057 
L 213.640072 246.029816 
L 214.760533 244.776711 
L 216.242009 243.982397 
L 217.905812 243.742681 
L 219.551263 244.086476 
L 219.551263 244.086476 
" clip-path="url(#pcee2d55a46)" style="fill: none; stroke: #121212; stroke-width: 1.5; stroke-linecap: round"/>
   </g>
   <g id="patch_46">
    <path d="M 60.202439 186.685366 
C 62.192109 186.685366 64.100555 185.894862 65.507465 184.487952 
C 66.914374 183.081043 67.704878 181.172597 67.704878 179.182927 
C 67.704878 177.193257 66.914374 175.284811 65.507465 173.877901 
C 64.100555 172.470992 62.192109 171.680488 60.202439 171.680488 
C 58.212769 171.680488 56.304323 172.470992 54.897414 173.877901 
C 53.490504 175.284811 52.7 177.193257 52.7 179.182927 
C 52.7 181.172597 53.490504 183.081043 54.897414 184.487952 
C 56.304323 185.894862 58.212769 186.685366 60.202439 186.685366 
z
" clip-path="url(#pcee2d55a46)" style="fill: #2c3e50"/>
   </g>
   <g id="patch_47">
    <path d="M 78.958537 220.821463 
C 82.042525 220.821463 85.000617 219.596182 87.181326 217.415472 
C 89.362035 215.234763 90.587317 212.276672 90.587317 209.192683 
C 90.587317 206.108694 89.362035 203.150603 87.181326 200.969893 
C 85.000617 198.789184 82.042525 197.563902 78.958537 197.563902 
C 75.874548 197.563902 72.916456 198.789184 70.735747 200.969893 
C 68.555038 203.150603 67.329756 206.108694 67.329756 209.192683 
C 67.329756 212.276672 68.555038 215.234763 70.735747 217.415472 
C 72.916456 219.596182 75.874548 220.821463 78.958537 220.821463 
z
" clip-path="url(#pcee2d55a46)" style="fill: #2c3e50"/>
   </g>
   <g id="patch_48">
    <path d="M 66.564495 175.206642 
L 88.819723 203.029442 
L 69.09735 215.355924 
L 53.840383 183.159212 
z
" clip-path="url(#pcee2d55a46)" style="fill: #2c3e50"/>
   </g>
   <g id="patch_49">
    <path d="M 78.958537 232.450244 
C 85.126514 232.450244 91.042697 229.999681 95.404116 225.638262 
C 99.765534 221.276843 102.216098 215.36066 102.216098 209.192683 
C 102.216098 203.024706 99.765534 197.108522 95.404116 192.747104 
C 91.042697 188.385685 85.126514 185.935122 78.958537 185.935122 
C 72.790559 185.935122 66.874376 188.385685 62.512958 192.747104 
C 58.151539 197.108522 55.700976 203.024706 55.700976 209.192683 
C 55.700976 215.36066 58.151539 221.276843 62.512958 225.638262 
C 66.874376 229.999681 72.790559 232.450244 78.958537 232.450244 
z
" clip-path="url(#pcee2d55a46)" style="fill: #2c3e50"/>
   </g>
   <g id="patch_50">
    <path d="M 153.982927 226.448293 
C 158.559168 226.448293 162.948594 224.630133 166.184486 221.394242 
C 169.420377 218.15835 171.238537 213.768924 171.238537 209.192683 
C 171.238537 204.616442 169.420377 200.227015 166.184486 196.991124 
C 162.948594 193.755233 158.559168 191.937073 153.982927 191.937073 
C 149.406686 191.937073 145.017259 193.755233 141.781368 196.991124 
C 138.545477 200.227015 136.727317 204.616442 136.727317 209.192683 
C 136.727317 213.768924 138.545477 218.15835 141.781368 221.394242 
C 145.017259 224.630133 149.406686 226.448293 153.982927 226.448293 
z
" clip-path="url(#pcee2d55a46)" style="fill: #2c3e50"/>
   </g>
   <g id="patch_51">
    <path d="M 78.958537 185.935122 
L 153.982927 191.937073 
L 153.982927 226.448293 
L 78.958537 232.450244 
z
" clip-path="url(#pcee2d55a46)" style="fill: #2c3e50"/>
   </g>
   <g id="patch_52">
    <path d="M 153.982927 223.447317 
C 157.7633 223.447317 161.389348 221.945359 164.062475 219.272231 
C 166.735603 216.599104 168.237561 212.973056 168.237561 209.192683 
C 168.237561 205.41231 166.735603 201.786262 164.062475 199.113134 
C 161.389348 196.440007 157.7633 194.938049 153.982927 194.938049 
C 150.202554 194.938049 146.576506 196.440007 143.903378 199.113134 
C 141.230251 201.786262 139.728293 205.41231 139.728293 209.192683 
C 139.728293 212.973056 141.230251 216.599104 143.903378 219.272231 
C 146.576506 221.945359 150.202554 223.447317 153.982927 223.447317 
z
" clip-path="url(#pcee2d55a46)" style="fill: #3c3f42"/>
   </g>
   <g id="patch_53">
    <path d="M 153.982927 261.522195 
C 156.420273 261.522195 158.758119 260.553827 160.481583 258.830364 
C 162.205047 257.1069 163.173415 254.769053 163.173415 252.331707 
C 163.173415 249.894361 162.205047 247.556515 160.481583 245.833051 
C 158.758119 244.109587 156.420273 243.14122 153.982927 243.14122 
C 151.545581 243.14122 149.207734 244.109587 147.484271 245.833051 
C 145.760807 247.556515 144.792439 249.894361 144.792439 252.331707 
C 144.792439 254.769053 145.760807 257.1069 147.484271 258.830364 
C 149.207734 260.553827 151.545581 261.522195 153.982927 261.522195 
z
" clip-path="url(#pcee2d55a46)" style="fill: #3c3f42"/>
   </g>
   <g id="patch_54">
    <path d="M 168.237561 209.192683 
L 163.173415 252.331707 
L 144.792439 252.331707 
L 139.728293 209.192683 
z
" clip-path="url(#pcee2d55a46)" style="fill: #3c3f42"/>
   </g>
   <g id="patch_55">
    <path d="M 153.982927 261.522195 
C 156.420273 261.522195 158.758119 260.553827 160.481583 258.830364 
C 162.205047 257.1069 163.173415 254.769053 163.173415 252.331707 
C 163.173415 249.894361 162.205047 247.556515 160.481583 245.833051 
C 158.758119 244.109587 156.420273 243.14122 153.982927 243.14122 
C 151.545581 243.14122 149.207734 244.109587 147.484271 245.833051 
C 145.760807 247.556515 144.792439 249.894361 144.792439 252.331707 
C 144.792439 254.769053 145.760807 257.1069 147.484271 258.830364 
C 149.207734 260.553827 151.545581 261.522195 153.982927 261.522195 
z
" clip-path="url(#pcee2d55a46)" style="fill: #3c3f42"/>
   </g>
   <g id="patch_56">
    <path d="M 153.982927 290.406585 
C 155.624405 290.406585 157.198873 289.754419 158.359573 288.593719 
C 159.520273 287.433019 160.172439 285.858551 160.172439 284.217073 
C 160.172439 282.575595 159.520273 281.001127 158.359573 279.840427 
C 157.198873 278.679727 155.624405 278.027561 153.982927 278.027561 
C 152.341449 278.027561 150.766981 278.679727 149.606281 279.840427 
C 148.445581 281.001127 147.793415 282.575595 147.793415 284.217073 
C 147.793415 285.858551 148.445581 287.433019 149.606281 288.593719 
C 150.766981 289.754419 152.341449 290.406585 153.982927 290.406585 
z
" clip-path="url(#pcee2d55a46)" style="fill: #3c3f42"/>
   </g>
   <g id="patch_57">
    <path d="M 163.173415 252.331707 
L 160.172439 284.217073 
L 147.793415 284.217073 
L 144.792439 252.331707 
z
" clip-path="url(#pcee2d55a46)" style="fill: #3c3f42"/>
   </g>
   <g id="patch_58">
    <path d="M 153.982927 289.478159 
C 155.378183 289.478159 156.716481 288.923817 157.703076 287.937222 
C 158.689671 286.950627 159.244012 285.612329 159.244012 284.217073 
C 159.244012 282.821817 158.689671 281.483519 157.703076 280.496924 
C 156.716481 279.510329 155.378183 278.955988 153.982927 278.955988 
C 152.587671 278.955988 151.249373 279.510329 150.262778 280.496924 
C 149.276183 281.483519 148.721841 282.821817 148.721841 284.217073 
C 148.721841 285.612329 149.276183 286.950627 150.262778 287.937222 
C 151.249373 288.923817 152.587671 289.478159 153.982927 289.478159 
z
" clip-path="url(#pcee2d55a46)" style="fill: #1b1b1b"/>
   </g>
   <g id="patch_59">
    <path d="M 153.982927 293.248134 
C 154.88574 293.248134 155.751697 292.889443 156.390082 292.251058 
C 157.028467 291.612673 157.387159 290.746715 157.387159 289.843902 
C 157.387159 288.94109 157.028467 288.075132 156.390082 287.436747 
C 155.751697 286.798362 154.88574 286.439671 153.982927 286.439671 
C 153.080114 286.439671 152.214157 286.798362 151.575772 287.436747 
C 150.937386 288.075132 150.578695 288.94109 150.578695 289.843902 
C 150.578695 290.746715 150.937386 291.612673 151.575772 292.251058 
C 152.214157 292.889443 153.080114 293.248134 153.982927 293.248134 
z
" clip-path="url(#pcee2d55a46)" style="fill: #1b1b1b"/>
   </g>
   <g id="patch_60">
    <path d="M 159.244012 284.217073 
L 157.387159 289.843902 
L 150.578695 289.843902 
L 148.721841 284.217073 
z
" clip-path="url(#pcee2d55a46)" style="fill: #1b1b1b"/>
   </g>
   <g id="line2d_15">
    <path d="M 66.564495 175.206642 
L 88.819723 203.029442 
L 90.332973 206.773855 
L 90.474299 210.810014 
L 89.226653 214.6511 
L 86.740521 217.83382 
L 83.315767 219.974291 
L 79.365467 220.814341 
L 75.366085 220.252648 
L 71.800005 218.35696 
L 69.09735 215.355924 
L 53.840383 183.159212 
L 52.864093 180.743461 
L 52.772915 178.139487 
L 53.577848 175.661367 
L 55.181804 173.608 
L 57.391322 172.227051 
L 59.939903 171.685083 
L 62.52015 172.047466 
L 64.820846 173.27049 
L 66.564495 175.206642 
L 66.564495 175.206642 
" clip-path="url(#pcee2d55a46)" style="fill: none; stroke: #1d2a36; stroke-width: 1.7; stroke-linecap: round"/>
   </g>
   <g id="line2d_16">
    <path d="M 78.958537 185.935122 
L 153.982927 191.937073 
L 159.884693 192.977714 
L 165.074619 195.974119 
L 168.926723 200.564878 
L 170.976385 206.196278 
L 170.976385 212.189088 
L 168.926723 217.820488 
L 165.074619 222.411247 
L 159.884693 225.407652 
L 153.982927 226.448293 
L 78.958537 232.450244 
L 71.003982 231.047641 
L 64.008865 227.009008 
L 58.816898 220.821463 
L 56.05431 213.231316 
L 56.05431 205.15405 
L 58.816898 197.563902 
L 64.008865 191.376358 
L 71.003982 187.337725 
L 78.958537 185.935122 
L 78.958537 185.935122 
" clip-path="url(#pcee2d55a46)" style="fill: none; stroke: #1d2a36; stroke-width: 1.7; stroke-linecap: round"/>
   </g>
   <g id="patch_61">
    <path d="M 78.958537 218.570732 
C 81.445624 218.570732 83.831182 217.582601 85.589818 215.823965 
C 87.348455 214.065328 88.336585 211.679771 88.336585 209.192683 
C 88.336585 206.705595 87.348455 204.320038 85.589818 202.561401 
C 83.831182 200.802765 81.445624 199.814634 78.958537 199.814634 
C 76.471449 199.814634 74.085891 200.802765 72.327255 202.561401 
C 70.568618 204.320038 69.580488 206.705595 69.580488 209.192683 
C 69.580488 211.679771 70.568618 214.065328 72.327255 215.823965 
C 74.085891 217.582601 76.471449 218.570732 78.958537 218.570732 
z
" clip-path="url(#pcee2d55a46)" style="fill: #2c3e50"/>
   </g>
   <g id="patch_62">
    <path d="M 78.958537 259.271463 
C 80.798981 259.271463 82.564294 258.540247 83.865685 257.238856 
C 85.167076 255.937465 85.898293 254.172152 85.898293 252.331707 
C 85.898293 250.491262 85.167076 248.72595 83.865685 247.424559 
C 82.564294 246.123168 80.798981 245.391951 78.958537 245.391951 
C 77.118092 245.391951 75.352779 246.123168 74.051388 247.424559 
C 72.749997 248.72595 72.01878 250.491262 72.01878 252.331707 
C 72.01878 254.172152 72.749997 255.937465 74.051388 257.238856 
C 75.352779 258.540247 77.118092 259.271463 78.958537 259.271463 
z
" clip-path="url(#pcee2d55a46)" style="fill: #2c3e50"/>
   </g>
   <g id="patch_63">
    <path d="M 88.336585 209.192683 
L 85.898293 252.331707 
L 72.01878 252.331707 
L 69.580488 209.192683 
z
" clip-path="url(#pcee2d55a46)" style="fill: #2c3e50"/>
   </g>
   <g id="patch_64">
    <path d="M 78.958537 259.271463 
C 80.798981 259.271463 82.564294 258.540247 83.865685 257.238856 
C 85.167076 255.937465 85.898293 254.172152 85.898293 252.331707 
C 85.898293 250.491262 85.167076 248.72595 83.865685 247.424559 
C 82.564294 246.123168 80.798981 245.391951 78.958537 245.391951 
C 77.118092 245.391951 75.352779 246.123168 74.051388 247.424559 
C 72.749997 248.72595 72.01878 250.491262 72.01878 252.331707 
C 72.01878 254.172152 72.749997 255.937465 74.051388 257.238856 
C 75.352779 258.540247 77.118092 259.271463 78.958537 259.271463 
z
" clip-path="url(#pcee2d55a46)" style="fill: #2c3e50"/>
   </g>
   <g id="patch_65">
    <path d="M 78.958537 290.031463 
C 80.500531 290.031463 81.979577 289.418823 83.069931 288.328468 
C 84.160286 287.238113 84.772927 285.759067 84.772927 284.217073 
C 84.772927 282.675079 84.160286 281.196033 83.069931 280.105678 
C 81.979577 279.015324 80.500531 278.402683 78.958537 278.402683 
C 77.416542 278.402683 75.937496 279.015324 74.847142 280.105678 
C 73.756787 281.196033 73.144146 282.675079 73.144146 284.217073 
C 73.144146 285.759067 73.756787 287.238113 74.847142 288.328468 
C 75.937496 289.418823 77.416542 290.031463 78.958537 290.031463 
z
" clip-path="url(#pcee2d55a46)" style="fill: #2c3e50"/>
   </g>
   <g id="patch_66">
    <path d="M 85.898293 252.331707 
L 84.772927 284.217073 
L 73.144146 284.217073 
L 72.01878 252.331707 
z
" clip-path="url(#pcee2d55a46)" style="fill: #2c3e50"/>
   </g>
   <g id="patch_67">
    <path d="M 153.982927 288.673522 
C 155.164791 288.673522 156.298408 288.203962 157.134112 287.368258 
C 157.969816 286.532554 158.439376 285.398937 158.439376 284.217073 
C 158.439376 283.035209 157.969816 281.901592 157.134112 281.065888 
C 156.298408 280.230184 155.164791 279.760624 153.982927 279.760624 
C 152.801063 279.760624 151.667446 280.230184 150.831742 281.065888 
C 149.996038 281.901592 149.526478 283.035209 149.526478 284.217073 
C 149.526478 285.398937 149.996038 286.532554 150.831742 287.368258 
C 151.667446 288.203962 152.801063 288.673522 153.982927 288.673522 
z
" clip-path="url(#pcee2d55a46)" style="fill: #1b1b1b; stroke: #121212; stroke-width: 1.3; stroke-linejoin: miter"/>
   </g>
   <g id="patch_68">
    <path d="M 78.958537 290.406585 
C 80.600014 290.406585 82.174483 289.754419 83.335183 288.593719 
C 84.495883 287.433019 85.148049 285.858551 85.148049 284.217073 
C 85.148049 282.575595 84.495883 281.001127 83.335183 279.840427 
C 82.174483 278.679727 80.600014 278.027561 78.958537 278.027561 
C 77.317059 278.027561 75.742591 278.679727 74.581891 279.840427 
C 73.42119 281.001127 72.769024 282.575595 72.769024 284.217073 
C 72.769024 285.858551 73.42119 287.433019 74.581891 288.593719 
C 75.742591 289.754419 77.317059 290.406585 78.958537 290.406585 
z
" clip-path="url(#pcee2d55a46)" style="fill: #f2e0c9; stroke: #a49888; stroke-width: 1.6; stroke-linejoin: miter"/>
   </g>
   <g id="line2d_17">
    <path d="M 168.237561 209.192683 
L 163.173415 252.331707 
L 162.61916 255.475039 
L 161.023249 258.239239 
L 158.578171 260.290903 
L 155.578838 261.382571 
L 152.387015 261.382571 
L 149.387683 260.290903 
L 146.942605 258.239239 
L 145.346693 255.475039 
L 144.792439 252.331707 
L 139.728293 209.192683 
L 140.587952 204.317311 
L 143.063244 200.029981 
L 146.85561 196.847808 
L 151.507636 195.154609 
L 156.458218 195.154609 
L 161.110244 196.847808 
L 164.90261 200.029981 
L 167.377901 204.317311 
L 168.237561 209.192683 
L 168.237561 209.192683 
" clip-path="url(#pcee2d55a46)" style="fill: none; stroke: #282a2c; stroke-width: 1.7; stroke-linecap: round"/>
   </g>
   <g id="line2d_18">
    <path d="M 163.173415 252.331707 
L 160.172439 284.217073 
L 159.799166 286.334011 
L 158.724368 288.195615 
L 157.077683 289.577348 
L 155.057724 290.312553 
L 152.908129 290.312553 
L 150.888171 289.577348 
L 149.241485 288.195615 
L 148.166688 286.334011 
L 147.793415 284.217073 
L 144.792439 252.331707 
L 145.346693 249.188375 
L 146.942605 246.424176 
L 149.387683 244.372511 
L 152.387015 243.280844 
L 155.578838 243.280844 
L 158.578171 244.372511 
L 161.023249 246.424176 
L 162.61916 249.188375 
L 163.173415 252.331707 
L 163.173415 252.331707 
" clip-path="url(#pcee2d55a46)" style="fill: none; stroke: #282a2c; stroke-width: 1.7; stroke-linecap: round"/>
   </g>
   <g id="line2d_19">
    <path d="M 159.244012 284.217073 
L 157.387159 289.843902 
L 157.181858 291.008218 
L 156.59072 292.0321 
L 155.685043 292.792054 
L 154.574065 293.196416 
L 153.391788 293.196416 
L 152.280811 292.792054 
L 151.375134 292.0321 
L 150.783995 291.008218 
L 150.578695 289.843902 
L 148.721841 284.217073 
L 149.039124 282.417676 
L 149.952702 280.835313 
L 151.352384 279.66084 
L 153.069349 279.035916 
L 154.896505 279.035916 
L 156.61347 279.66084 
L 158.013152 280.835313 
L 158.92673 282.417676 
L 159.244012 284.217073 
L 159.244012 284.217073 
" clip-path="url(#pcee2d55a46)" style="fill: none; stroke: #121212; stroke-width: 1.5; stroke-linecap: round"/>
   </g>
   <g id="line2d_20">
    <path d="M 88.336585 209.192683 
L 85.898293 252.331707 
L 85.479774 254.705244 
L 84.274698 256.792497 
L 82.428415 258.341712 
L 80.163613 259.166033 
L 77.753461 259.166033 
L 75.488659 258.341712 
L 73.642375 256.792497 
L 72.437299 254.705244 
L 72.01878 252.331707 
L 69.580488 209.192683 
L 70.146053 205.985201 
L 71.774534 203.164589 
L 74.269512 201.071054 
L 77.330056 199.957108 
L 80.587018 199.957108 
L 83.647561 201.071054 
L 86.142539 203.164589 
L 87.77102 205.985201 
L 88.336585 209.192683 
L 88.336585 209.192683 
" clip-path="url(#pcee2d55a46)" style="fill: none; stroke: #1d2a36; stroke-width: 1.7; stroke-linecap: round"/>
   </g>
   <g id="line2d_21">
    <path d="M 85.898293 252.331707 
L 84.772927 284.217073 
L 84.422276 286.205712 
L 83.412618 287.954491 
L 81.865732 289.252483 
L 79.968195 289.94313 
L 77.948878 289.94313 
L 76.051341 289.252483 
L 74.504455 287.954491 
L 73.494797 286.205712 
L 73.144146 284.217073 
L 72.01878 252.331707 
L 72.437299 249.958171 
L 73.642375 247.870918 
L 75.488659 246.321702 
L 77.753461 245.497382 
L 80.163613 245.497382 
L 82.428415 246.321702 
L 84.274698 247.870918 
L 85.479774 249.958171 
L 85.898293 252.331707 
L 85.898293 252.331707 
" clip-path="url(#pcee2d55a46)" style="fill: none; stroke: #1d2a36; stroke-width: 1.7; stroke-linecap: round"/>
   </g>
   <g id="patch_69">
    <path d="M 60.202439 194.187805 
C 64.181779 194.187805 67.998672 192.606796 70.81249 189.792978 
C 73.626308 186.979159 75.207317 183.162267 75.207317 179.182927 
C 75.207317 175.203587 73.626308 171.386694 70.81249 168.572876 
C 67.998672 165.759057 64.181779 164.178049 60.202439 164.178049 
C 56.223099 164.178049 52.406206 165.759057 49.592388 168.572876 
C 46.77857 171.386694 45.197561 175.203587 45.197561 179.182927 
C 45.197561 183.162267 46.77857 186.979159 49.592388 189.792978 
C 52.406206 192.606796 56.223099 194.187805 60.202439 194.187805 
z
" clip-path="url(#pcee2d55a46)" style="fill: #f2e0c9; stroke: #a49888; stroke-width: 1.8; stroke-linejoin: miter"/>
   </g>
   <g id="patch_70">
    <path d="M 41.446341 201.564776 
Q 41.446341 194.187413 41.446341 189.269725 
" clip-path="url(#pcee2d55a46)" style="fill: none; stroke-dasharray: 2.2,0; stroke-dashoffset: 0; stroke: #c0392b; stroke-width: 2.2; stroke-linecap: round"/>
    <path d="M 38.646341 194.869725 
L 41.446341 189.269725 
L 44.246341 194.869725 
z
" clip-path="url(#pcee2d55a46)" style="fill: #c0392b; stroke-dasharray: 2.2,0; stroke-dashoffset: 0; stroke: #c0392b; stroke-width: 2.2; stroke-linecap: round"/>
   </g>
  </g>
 </g>
 <defs>
  <clipPath id="pcee2d55a46">
   <rect x="5.809756" y="1" width="247.580488" height="307.6"/>
  </clipPath>
 </defs>
</svg>
