<?xml version="1.0" encoding="utf-8" standalone="no"?>
<!DOCTYPE svg PUBLIC "-//W3C//DTD SVG 1.1//EN"
  "http://www.w3.org/Graphics/SVG/1.1/DTD/svg11.dtd">
<svg xmlns:xlink="http://www.w3.org/1999/xlink" width="259.2pt" height="309.6pt" viewBox="0 0 259.2 309.6" xmlns="http://www.w3.org/2000/svg" version="1.1">
 <metadata>
  <rdf:RDF xmlns:dc="http://purl.org/dc/elements/1.1/" xmlns:cc="http://creativecommons.org/ns#" xmlns:rdf="http://www.w3.org/1999/02/22-rdf-syntax-ns#">
   <cc:Work>
    <dc:type rdf:resource="http://purl.org/dc/dcmitype/StillImage"/>
    <dc:date>2026-07-10T23:04:58.430847</dc:date>
    <dc:format>image/svg+xml</dc:format>
    <dc:creator>
     <cc:Agent>
      <dc:title>Matplotlib v3.10.8, https://matplotlib.org/</dc:title>
     </cc:Agent>
    </dc:creator>
   </cc:Work>
  </rdf:RDF>
 </metadata>
 <defs>
  <style type="text/css">*{stroke-linejoin: round; stroke-linecap: butt}</style>
 </defs>
 <g id="figure_1">
  <g id="patch_1">
   <path d="M 0 309.6 
L 259.2 309.6 
L 259.2 0 
L 0 0 
L 0 309.6 
z
" style="fill: none"/>
  </g>
  <g id="axes_1">
   <g id="line2d_1">
    <path d="M 17.063415 299.221951 
L 242.136585 299.221951 
" clip-path="url(#pd14cb6fff2)" style="fill: none; stroke: #c3c3c3; stroke-width: 3; stroke-linecap: round"/>
   </g>
   <g id="patch_2">
    <path d="M 152.107317 244.829268 
L 182.117073 244.829268 
L 182.117073 231.7 
L 152.107317 231.7 
z
" clip-path="url(#pd14cb6fff2)" style="fill: #9aa5b1; stroke: #9aa5b1"/>
   </g>
   <g id="patch_3">
    <path d="M 156.60878 265.460976 
L 162.610732 265.460976 
L 162.610732 244.829268 
L 156.60878 244.829268 
z
" clip-path="url(#pd14cb6fff2)" style="fill: #9aa5b1; stroke: #9aa5b1; stroke-linejoin: miter"/>
   </g>
   <g id="patch_4">
    <path d="M 171.613659 265.460976 
L 177.61561 265.460976 
L 177.61561 244.829268 
L 171.613659 244.829268 
z
" clip-path="url(#pd14cb6fff2)" style="fill: #9aa5b1; stroke: #9aa5b1; stroke-linejoin: miter"/>
   </g>
   <g id="patch_5">
    <path d="M 118.346341 167.914263 
C 121.824285 167.914263 125.160249 166.532462 127.619526 164.073185 
C 130.078803 161.613907 131.460605 158.277943 131.460605 154.8 
C 131.460605 151.322057 130.078803 147.986093 127.619526 145.526815 
C 125.160249 143.067538 121.824285 141.685737 118.346341 141.685737 
C 114.868398 141.685737 111.532434 143.067538 109.073157 145.526815 
C 106.61388 147.986093 105.232078 151.322057 105.232078 154.8 
C 105.232078 158.277943 106.61388 161.613907 109.073157 164.073185 
C 111.532434 166.532462 114.868398 167.914263 118.346341 167.914263 
z
" clip-path="url(#pd14cb6fff2)" style="fill: #9aa0a6; fill-opacity: 0.285"/>
   </g>
   <g id="patch_6">
    <path d="M 144.604878 238.279639 
C 146.847236 238.279639 148.998055 237.388741 150.583642 235.803154 
C 152.169228 234.217567 153.060127 232.066748 153.060127 229.82439 
C 153.060127 227.582032 152.169228 225.431213 150.583642 223.845626 
C 148.998055 222.26004 146.847236 221.369141 144.604878 221.369141 
C 142.36252 221.369141 140.211701 222.26004 138.626114 223.845626 
C 137.040528 225.431213 136.149629 227.582032 136.149629 229.82439 
C 136.149629 232.066748 137.040528 234.217567 138.626114 235.803154 
C 140.211701 237.388741 142.36252 238.279639 144.604878 238.279639 
z
" clip-path="url(#pd14cb6fff2)" style="fill: #9aa0a6; fill-opacity: 0.285"/>
   </g>
   <g id="patch_7">
    <path d="M 130.724349 150.467698 
L 152.585435 227.031195 
L 136.624321 232.617585 
L 105.968334 159.132302 
z
" clip-path="url(#pd14cb6fff2)" style="fill: #9aa0a6; fill-opacity: 0.285"/>
   </g>
   <g id="patch_8">
    <path d="M 144.604878 238.279639 
C 146.847236 238.279639 148.998055 237.388741 150.583642 235.803154 
C 152.169228 234.217567 153.060127 232.066748 153.060127 229.82439 
C 153.060127 227.582032 152.169228 225.431213 150.583642 223.845626 
C 148.998055 222.26004 146.847236 221.369141 144.604878 221.369141 
C 142.36252 221.369141 140.211701 222.26004 138.626114 223.845626 
C 137.040528 225.431213 136.149629 227.582032 136.149629 229.82439 
C 136.149629 232.066748 137.040528 234.217567 138.626114 235.803154 
C 140.211701 237.388741 142.36252 238.279639 144.604878 238.279639 
z
" clip-path="url(#pd14cb6fff2)" style="fill: #9aa0a6; fill-opacity: 0.285"/>
   </g>
   <g id="patch_9">
    <path d="M 163.360976 252.399229 
C 164.871135 252.399229 166.319646 251.799237 167.38749 250.731392 
C 168.455334 249.663548 169.055327 248.215038 169.055327 246.704878 
C 169.055327 245.194718 168.455334 243.746208 167.38749 242.678364 
C 166.319646 241.61052 164.871135 241.010527 163.360976 241.010527 
C 161.850816 241.010527 160.402305 241.61052 159.334461 242.678364 
C 158.266617 243.746208 157.666624 245.194718 157.666624 246.704878 
C 157.666624 248.215038 158.266617 249.663548 159.334461 250.731392 
C 160.402305 251.799237 161.850816 252.399229 163.360976 252.399229 
z
" clip-path="url(#pd14cb6fff2)" style="fill: #9aa0a6; fill-opacity: 0.285"/>
   </g>
   <g id="patch_10">
    <path d="M 150.261141 223.539653 
L 167.170296 242.4723 
L 159.551655 250.937456 
L 138.948615 236.109127 
z
" clip-path="url(#pd14cb6fff2)" style="fill: #9aa0a6; fill-opacity: 0.285"/>
   </g>
   <g id="patch_11">
    <path d="M 163.360976 251.545077 
C 164.644611 251.545077 165.875845 251.035083 166.783513 250.127415 
C 167.69118 249.219748 168.201174 247.988514 168.201174 246.704878 
C 168.201174 245.421242 167.69118 244.190008 166.783513 243.282341 
C 165.875845 242.374673 164.644611 241.86468 163.360976 241.86468 
C 162.07734 241.86468 160.846106 242.374673 159.938438 243.282341 
C 159.030771 244.190008 158.520777 245.421242 158.520777 246.704878 
C 158.520777 247.988514 159.030771 249.219748 159.938438 250.127415 
C 160.846106 251.035083 162.07734 251.545077 163.360976 251.545077 
z
" clip-path="url(#pd14cb6fff2)" style="fill: #9aa0a6; fill-opacity: 0.285"/>
   </g>
   <g id="patch_12">
    <path d="M 172.739024 242.334332 
C 173.569612 242.334332 174.366293 242.004336 174.953607 241.417022 
C 175.540922 240.829708 175.870918 240.033027 175.870918 239.202439 
C 175.870918 238.371851 175.540922 237.57517 174.953607 236.987856 
C 174.366293 236.400542 173.569612 236.070546 172.739024 236.070546 
C 171.908437 236.070546 171.111756 236.400542 170.524441 236.987856 
C 169.937127 237.57517 169.607131 238.371851 169.607131 239.202439 
C 169.607131 240.033027 169.937127 240.829708 170.524441 241.417022 
C 171.111756 242.004336 171.908437 242.334332 172.739024 242.334332 
z
" clip-path="url(#pd14cb6fff2)" style="fill: #9aa0a6; fill-opacity: 0.285"/>
   </g>
   <g id="patch_13">
    <path d="M 160.337328 242.925318 
L 170.782546 236.756841 
L 174.695503 241.648037 
L 166.384624 250.484438 
z
" clip-path="url(#pd14cb6fff2)" style="fill: #9aa0a6; fill-opacity: 0.285"/>
   </g>
   <g id="patch_14">
    <path d="M 163.360976 250.804811 
C 164.448291 250.804811 165.491218 250.372816 166.260066 249.603968 
C 167.028914 248.835121 167.460908 247.792193 167.460908 246.704878 
C 167.460908 245.617563 167.028914 244.574635 166.260066 243.805788 
C 165.491218 243.03694 164.448291 242.604945 163.360976 242.604945 
C 162.273661 242.604945 161.230733 243.03694 160.461885 243.805788 
C 159.693038 244.574635 159.261043 245.617563 159.261043 246.704878 
C 159.261043 247.792193 159.693038 248.835121 160.461885 249.603968 
C 161.230733 250.372816 162.273661 250.804811 163.360976 250.804811 
z
" clip-path="url(#pd14cb6fff2)" style="fill: #9aa0a6; fill-opacity: 0.285; stroke: #7d8288; stroke-opacity: 0.85; stroke-width: 1.3; stroke-linejoin: miter"/>
   </g>
   <g id="line2d_2">
    <path d="M 130.724349 150.467698 
L 152.585435 227.031195 
L 153.059478 229.929157 
L 152.513771 232.814482 
L 151.014135 235.339158 
L 148.741447 237.198672 
L 145.969829 238.168738 
L 143.033577 238.132353 
L 140.286848 237.093905 
L 138.060936 235.178646 
L 136.624321 232.617585 
L 105.968334 159.132302 
L 105.233085 154.637505 
L 106.079488 150.162307 
L 108.405454 146.246483 
L 111.930438 143.362339 
L 116.229275 141.857746 
L 120.783461 141.91418 
L 125.043695 143.524834 
L 128.496129 146.49544 
L 130.724349 150.467698 
L 130.724349 150.467698 
" clip-path="url(#pd14cb6fff2)" style="fill: none; stroke: #7d8288; stroke-opacity: 0.85; stroke-width: 1.7; stroke-linecap: round"/>
   </g>
   <g id="line2d_3">
    <path d="M 150.261141 223.539653 
L 167.170296 242.4723 
L 168.388193 244.03042 
L 168.999733 245.911119 
L 168.931156 247.887557 
L 168.190733 249.721347 
L 166.86777 251.191305 
L 165.121836 252.120135 
L 163.163516 252.395805 
L 161.229012 251.985065 
L 159.551655 250.937456 
L 138.948615 236.109127 
L 137.140223 233.795555 
L 136.232178 231.003002 
L 136.334005 228.068291 
L 137.433421 225.345391 
L 139.39782 223.162725 
L 141.990268 221.783554 
L 144.898076 221.374227 
L 147.77052 221.984113 
L 150.261141 223.539653 
L 150.261141 223.539653 
" clip-path="url(#pd14cb6fff2)" style="fill: none; stroke: #7d8288; stroke-opacity: 0.85; stroke-width: 1.7; stroke-linecap: round"/>
   </g>
   <g id="line2d_4">
    <path d="M 160.337328 242.925318 
L 170.782546 236.756841 
L 171.73698 236.235174 
L 172.812275 236.071403 
L 173.878735 236.28528 
L 174.807729 236.851011 
L 175.487207 237.700358 
L 175.835213 238.730878 
L 175.809774 239.818276 
L 175.413956 240.831394 
L 174.695503 241.648037 
L 166.384624 250.484438 
L 164.90959 251.290651 
L 163.24777 251.543753 
L 161.599605 251.213214 
L 160.163887 250.338904 
L 159.113785 249.026276 
L 158.575957 247.433654 
L 158.615272 245.753131 
L 159.22699 244.187402 
L 160.337328 242.925318 
L 160.337328 242.925318 
" clip-path="url(#pd14cb6fff2)" style="fill: none; stroke: #7d8288; stroke-opacity: 0.85; stroke-width: 1.5; stroke-linecap: round"/>
   </g>
   <g id="patch_15">
    <path d="M 118.346341 91.029268 
C 120.336012 91.029268 122.244458 90.238764 123.651367 88.831855 
C 125.058276 87.424946 125.84878 85.516499 125.84878 83.526829 
C 125.84878 81.537159 125.058276 79.628713 123.651367 78.221804 
C 122.244458 76.814895 120.336012 76.02439 118.346341 76.02439 
C 116.356671 76.02439 114.448225 76.814895 113.041316 78.221804 
C 111.634407 79.628713 110.843902 81.537159 110.843902 83.526829 
C 110.843902 85.516499 111.634407 87.424946 113.041316 88.831855 
C 114.448225 90.238764 116.356671 91.029268 118.346341 91.029268 
z
" clip-path="url(#pd14cb6fff2)" style="fill: #9aa0a6; fill-opacity: 0.3"/>
   </g>
   <g id="patch_16">
    <path d="M 118.346341 117.662927 
C 121.43033 117.662927 124.388422 116.437645 126.569131 114.256936 
C 128.74984 112.076227 129.975122 109.118135 129.975122 106.034146 
C 129.975122 102.950158 128.74984 99.992066 126.569131 97.811357 
C 124.388422 95.630648 121.43033 94.405366 118.346341 94.405366 
C 115.262353 94.405366 112.304261 95.630648 110.123552 97.811357 
C 107.942843 99.992066 106.717561 102.950158 106.717561 106.034146 
C 106.717561 109.118135 107.942843 112.076227 110.123552 114.256936 
C 112.304261 116.437645 115.262353 117.662927 118.346341 117.662927 
z
" clip-path="url(#pd14cb6fff2)" style="fill: #9aa0a6; fill-opacity: 0.3"/>
   </g>
   <g id="patch_17">
    <path d="M 125.84878 83.526829 
L 129.975122 106.034146 
L 106.717561 106.034146 
L 110.843902 83.526829 
z
" clip-path="url(#pd14cb6fff2)" style="fill: #9aa0a6; fill-opacity: 0.3"/>
   </g>
   <g id="patch_18">
    <path d="M 118.346341 129.291707 
C 124.514319 129.291707 130.430502 126.841144 134.791921 122.479725 
C 139.153339 118.118307 141.603902 112.202124 141.603902 106.034146 
C 141.603902 99.866169 139.153339 93.949986 134.791921 89.588567 
C 130.430502 85.227149 124.514319 82.776585 118.346341 82.776585 
C 112.178364 82.776585 106.262181 85.227149 101.900762 89.588567 
C 97.539344 93.949986 95.08878 99.866169 95.08878 106.034146 
C 95.08878 112.202124 97.539344 118.118307 101.900762 122.479725 
C 106.262181 126.841144 112.178364 129.291707 118.346341 129.291707 
z
" clip-path="url(#pd14cb6fff2)" style="fill: #9aa0a6; fill-opacity: 0.3"/>
   </g>
   <g id="patch_19">
    <path d="M 118.346341 172.05561 
C 122.922583 172.05561 127.312009 170.23745 130.5479 167.001559 
C 133.783791 163.765667 135.601951 159.376241 135.601951 154.8 
C 135.601951 150.223759 133.783791 145.834333 130.5479 142.598441 
C 127.312009 139.36255 122.922583 137.54439 118.346341 137.54439 
C 113.7701 137.54439 109.380674 139.36255 106.144783 142.598441 
C 102.908892 145.834333 101.090732 150.223759 101.090732 154.8 
C 101.090732 159.376241 102.908892 163.765667 106.144783 167.001559 
C 109.380674 170.23745 113.7701 172.05561 118.346341 172.05561 
z
" clip-path="url(#pd14cb6fff2)" style="fill: #9aa0a6; fill-opacity: 0.3"/>
   </g>
   <g id="patch_20">
    <path d="M 141.603902 106.034146 
L 135.601951 154.8 
L 101.090732 154.8 
L 95.08878 106.034146 
z
" clip-path="url(#pd14cb6fff2)" style="fill: #9aa0a6; fill-opacity: 0.3"/>
   </g>
   <g id="patch_21">
    <path d="M 118.346341 169.054634 
C 122.126715 169.054634 125.752762 167.552676 128.42589 164.879548 
C 131.099017 162.206421 132.600976 158.580373 132.600976 154.8 
C 132.600976 151.019627 131.099017 147.393579 128.42589 144.720452 
C 125.752762 142.047324 122.126715 140.545366 118.346341 140.545366 
C 114.565968 140.545366 110.93992 142.047324 108.266793 144.720452 
C 105.593665 147.393579 104.091707 151.019627 104.091707 154.8 
C 104.091707 158.580373 105.593665 162.206421 108.266793 164.879548 
C 110.93992 167.552676 114.565968 169.054634 118.346341 169.054634 
z
" clip-path="url(#pd14cb6fff2)" style="fill: #9aa0a6; fill-opacity: 0.3"/>
   </g>
   <g id="patch_22">
    <path d="M 118.346341 220.25878 
C 120.783687 220.25878 123.121534 219.290413 124.844998 217.566949 
C 126.568461 215.843485 127.536829 213.505639 127.536829 211.068293 
C 127.536829 208.630947 126.568461 206.2931 124.844998 204.569636 
C 123.121534 202.846173 120.783687 201.877805 118.346341 201.877805 
C 115.908996 201.877805 113.571149 202.846173 111.847685 204.569636 
C 110.124221 206.2931 109.155854 208.630947 109.155854 211.068293 
C 109.155854 213.505639 110.124221 215.843485 111.847685 217.566949 
C 113.571149 219.290413 115.908996 220.25878 118.346341 220.25878 
z
" clip-path="url(#pd14cb6fff2)" style="fill: #9aa0a6; fill-opacity: 0.3"/>
   </g>
   <g id="patch_23">
    <path d="M 132.600976 154.8 
L 127.536829 211.068293 
L 109.155854 211.068293 
L 104.091707 154.8 
z
" clip-path="url(#pd14cb6fff2)" style="fill: #9aa0a6; fill-opacity: 0.3"/>
   </g>
   <g id="patch_24">
    <path d="M 118.346341 220.25878 
C 120.783687 220.25878 123.121534 219.290413 124.844998 217.566949 
C 126.568461 215.843485 127.536829 213.505639 127.536829 211.068293 
C 127.536829 208.630947 126.568461 206.2931 124.844998 204.569636 
C 123.121534 202.846173 120.783687 201.877805 118.346341 201.877805 
C 115.908996 201.877805 113.571149 202.846173 111.847685 204.569636 
C 110.124221 206.2931 109.155854 208.630947 109.155854 211.068293 
C 109.155854 213.505639 110.124221 215.843485 111.847685 217.566949 
C 113.571149 219.290413 115.908996 220.25878 118.346341 220.25878 
z
" clip-path="url(#pd14cb6fff2)" style="fill: #9aa0a6; fill-opacity: 0.3"/>
   </g>
   <g id="patch_25">
    <path d="M 118.346341 267.899268 
C 119.987819 267.899268 121.562287 267.247102 122.722988 266.086402 
C 123.883688 264.925702 124.535854 263.351234 124.535854 261.709756 
C 124.535854 260.068278 123.883688 258.49381 122.722988 257.33311 
C 121.562287 256.17241 119.987819 255.520244 118.346341 255.520244 
C 116.704864 255.520244 115.130396 256.17241 113.969695 257.33311 
C 112.808995 258.49381 112.156829 260.068278 112.156829 261.709756 
C 112.156829 263.351234 112.808995 264.925702 113.969695 266.086402 
C 115.130396 267.247102 116.704864 267.899268 118.346341 267.899268 
z
" clip-path="url(#pd14cb6fff2)" style="fill: #9aa0a6; fill-opacity: 0.3"/>
   </g>
   <g id="patch_26">
    <path d="M 127.536829 211.068293 
L 124.535854 261.709756 
L 112.156829 261.709756 
L 109.155854 211.068293 
z
" clip-path="url(#pd14cb6fff2)" style="fill: #9aa0a6; fill-opacity: 0.3"/>
   </g>
   <g id="patch_27">
    <path d="M 118.346341 266.970841 
C 119.741598 266.970841 121.079896 266.4165 122.066491 265.429905 
C 123.053086 264.44331 123.607427 263.105012 123.607427 261.709756 
C 123.607427 260.3145 123.053086 258.976202 122.066491 257.989607 
C 121.079896 257.003012 119.741598 256.448671 118.346341 256.448671 
C 116.951085 256.448671 115.612787 257.003012 114.626192 257.989607 
C 113.639597 258.976202 113.085256 260.3145 113.085256 261.709756 
C 113.085256 263.105012 113.639597 264.44331 114.626192 265.429905 
C 115.612787 266.4165 116.951085 266.970841 118.346341 266.970841 
z
" clip-path="url(#pd14cb6fff2)" style="fill: #9aa0a6; fill-opacity: 0.3"/>
   </g>
   <g id="patch_28">
    <path d="M 133.35122 265.113988 
C 134.254032 265.113988 135.11999 264.755296 135.758375 264.116911 
C 136.39676 263.478526 136.755451 262.612569 136.755451 261.709756 
C 136.755451 260.806943 136.39676 259.940986 135.758375 259.302601 
C 135.11999 258.664216 134.254032 258.305524 133.35122 258.305524 
C 132.448407 258.305524 131.582449 258.664216 130.944064 259.302601 
C 130.305679 259.940986 129.946988 260.806943 129.946988 261.709756 
C 129.946988 262.612569 130.305679 263.478526 130.944064 264.116911 
C 131.582449 264.755296 132.448407 265.113988 133.35122 265.113988 
z
" clip-path="url(#pd14cb6fff2)" style="fill: #9aa0a6; fill-opacity: 0.3"/>
   </g>
   <g id="patch_29">
    <path d="M 118.346341 256.448671 
L 133.35122 258.305524 
L 133.35122 265.113988 
L 118.346341 266.970841 
z
" clip-path="url(#pd14cb6fff2)" style="fill: #9aa0a6; fill-opacity: 0.3"/>
   </g>
   <g id="line2d_5">
    <path d="M 125.84878 83.526829 
L 129.975122 106.034146 
L 129.273821 110.011424 
L 127.254504 113.508982 
L 124.160732 116.104966 
L 120.365658 117.48626 
L 116.327025 117.48626 
L 112.531951 116.104966 
L 109.438179 113.508982 
L 107.418862 110.011424 
L 106.717561 106.034146 
L 110.843902 83.526829 
L 111.296355 80.960844 
L 112.59914 78.704354 
L 114.595122 77.029526 
L 117.043557 76.138369 
L 119.649126 76.138369 
L 122.097561 77.029526 
L 124.093543 78.704354 
L 125.396328 80.960844 
L 125.84878 83.526829 
L 125.84878 83.526829 
" clip-path="url(#pd14cb6fff2)" style="fill: none; stroke: #7d8288; stroke-opacity: 0.85; stroke-width: 1.7; stroke-linecap: round"/>
   </g>
   <g id="line2d_6">
    <path d="M 141.603902 106.034146 
L 135.601951 154.8 
L 134.561311 160.701766 
L 131.564905 165.891692 
L 126.974146 169.743796 
L 121.342747 171.793458 
L 115.349936 171.793458 
L 109.718537 169.743796 
L 105.127777 165.891692 
L 102.131372 160.701766 
L 101.090732 154.8 
L 95.08878 106.034146 
L 96.491383 98.079592 
L 100.530016 91.084474 
L 106.717561 85.892508 
L 114.307708 83.12992 
L 122.384975 83.12992 
L 129.975122 85.892508 
L 136.162667 91.084474 
L 140.2013 98.079592 
L 141.603902 106.034146 
L 141.603902 106.034146 
" clip-path="url(#pd14cb6fff2)" style="fill: none; stroke: #7d8288; stroke-opacity: 0.85; stroke-width: 1.7; stroke-linecap: round"/>
   </g>
   <g id="patch_30">
    <path d="M 118.346341 115.412195 
C 120.833429 115.412195 123.218987 114.424065 124.977623 112.665428 
C 126.73626 110.906792 127.72439 108.521234 127.72439 106.034146 
C 127.72439 103.547059 126.73626 101.161501 124.977623 99.402864 
C 123.218987 97.644228 120.833429 96.656098 118.346341 96.656098 
C 115.859254 96.656098 113.473696 97.644228 111.71506 99.402864 
C 109.956423 101.161501 108.968293 103.547059 108.968293 106.034146 
C 108.968293 108.521234 109.956423 110.906792 111.71506 112.665428 
C 113.473696 114.424065 115.859254 115.412195 118.346341 115.412195 
z
" clip-path="url(#pd14cb6fff2)" style="fill: #9aa0a6; fill-opacity: 0.3"/>
   </g>
   <g id="patch_31">
    <path d="M 118.346341 139.232439 
C 120.186786 139.232439 121.952099 138.501223 123.25349 137.199832 
C 124.554881 135.898441 125.286098 134.133128 125.286098 132.292683 
C 125.286098 130.452238 124.554881 128.686925 123.25349 127.385534 
C 121.952099 126.084143 120.186786 125.352927 118.346341 125.352927 
C 116.505897 125.352927 114.740584 126.084143 113.439193 127.385534 
C 112.137802 128.686925 111.406585 130.452238 111.406585 132.292683 
C 111.406585 134.133128 112.137802 135.898441 113.439193 137.199832 
C 114.740584 138.501223 116.505897 139.232439 118.346341 139.232439 
z
" clip-path="url(#pd14cb6fff2)" style="fill: #9aa0a6; fill-opacity: 0.3"/>
   </g>
   <g id="patch_32">
    <path d="M 127.72439 106.034146 
L 125.286098 132.292683 
L 111.406585 132.292683 
L 108.968293 106.034146 
z
" clip-path="url(#pd14cb6fff2)" style="fill: #9aa0a6; fill-opacity: 0.3"/>
   </g>
   <g id="patch_33">
    <path d="M 118.346341 139.232439 
C 120.186786 139.232439 121.952099 138.501223 123.25349 137.199832 
C 124.554881 135.898441 125.286098 134.133128 125.286098 132.292683 
C 125.286098 130.452238 124.554881 128.686925 123.25349 127.385534 
C 121.952099 126.084143 120.186786 125.352927 118.346341 125.352927 
C 116.505897 125.352927 114.740584 126.084143 113.439193 127.385534 
C 112.137802 128.686925 111.406585 130.452238 111.406585 132.292683 
C 111.406585 134.133128 112.137802 135.898441 113.439193 137.199832 
C 114.740584 138.501223 116.505897 139.232439 118.346341 139.232439 
z
" clip-path="url(#pd14cb6fff2)" style="fill: #9aa0a6; fill-opacity: 0.3"/>
   </g>
   <g id="patch_34">
    <path d="M 118.346341 166.24122 
C 119.888336 166.24122 121.367382 165.628579 122.457736 164.538224 
C 123.548091 163.447869 124.160732 161.968824 124.160732 160.426829 
C 124.160732 158.884835 123.548091 157.405789 122.457736 156.315434 
C 121.367382 155.22508 119.888336 154.612439 118.346341 154.612439 
C 116.804347 154.612439 115.325301 155.22508 114.234947 156.315434 
C 113.144592 157.405789 112.531951 158.884835 112.531951 160.426829 
C 112.531951 161.968824 113.144592 163.447869 114.234947 164.538224 
C 115.325301 165.628579 116.804347 166.24122 118.346341 166.24122 
z
" clip-path="url(#pd14cb6fff2)" style="fill: #9aa0a6; fill-opacity: 0.3"/>
   </g>
   <g id="patch_35">
    <path d="M 125.286098 132.292683 
L 124.160732 160.426829 
L 112.531951 160.426829 
L 111.406585 132.292683 
z
" clip-path="url(#pd14cb6fff2)" style="fill: #9aa0a6; fill-opacity: 0.3"/>
   </g>
   <g id="patch_36">
    <path d="M 118.346341 266.166205 
C 119.528205 266.166205 120.661823 265.696645 121.497527 264.860941 
C 122.333231 264.025237 122.80279 262.89162 122.80279 261.709756 
C 122.80279 260.527892 122.333231 259.394275 121.497527 258.558571 
C 120.661823 257.722867 119.528205 257.253307 118.346341 257.253307 
C 117.164477 257.253307 116.03086 257.722867 115.195156 258.558571 
C 114.359452 259.394275 113.889893 260.527892 113.889893 261.709756 
C 113.889893 262.89162 114.359452 264.025237 115.195156 264.860941 
C 116.03086 265.696645 117.164477 266.166205 118.346341 266.166205 
z
" clip-path="url(#pd14cb6fff2)" style="fill: #9aa0a6; fill-opacity: 0.3; stroke: #7d8288; stroke-opacity: 0.85; stroke-width: 1.3; stroke-linejoin: miter"/>
   </g>
   <g id="patch_37">
    <path d="M 118.346341 166.616341 
C 119.987819 166.616341 121.562287 165.964175 122.722988 164.803475 
C 123.883688 163.642775 124.535854 162.068307 124.535854 160.426829 
C 124.535854 158.785351 123.883688 157.210883 122.722988 156.050183 
C 121.562287 154.889483 119.987819 154.237317 118.346341 154.237317 
C 116.704864 154.237317 115.130396 154.889483 113.969695 156.050183 
C 112.808995 157.210883 112.156829 158.785351 112.156829 160.426829 
C 112.156829 162.068307 112.808995 163.642775 113.969695 164.803475 
C 115.130396 165.964175 116.704864 166.616341 118.346341 166.616341 
z
" clip-path="url(#pd14cb6fff2)" style="fill: #9aa0a6; fill-opacity: 0.3; stroke: #7d8288; stroke-opacity: 0.85; stroke-width: 1.6; stroke-linejoin: miter"/>
   </g>
   <g id="line2d_7">
    <path d="M 132.600976 154.8 
L 127.536829 211.068293 
L 126.982575 214.211625 
L 125.386664 216.975824 
L 122.941585 219.027489 
L 119.942253 220.119156 
L 116.75043 220.119156 
L 113.751098 219.027489 
L 111.306019 216.975824 
L 109.710108 214.211625 
L 109.155854 211.068293 
L 104.091707 154.8 
L 104.951367 149.924628 
L 107.426658 145.637298 
L 111.219024 142.455125 
L 115.87105 140.761926 
L 120.821633 140.761926 
L 125.473659 142.455125 
L 129.266025 145.637298 
L 131.741316 149.924628 
L 132.600976 154.8 
L 132.600976 154.8 
" clip-path="url(#pd14cb6fff2)" style="fill: none; stroke: #7d8288; stroke-opacity: 0.85; stroke-width: 1.7; stroke-linecap: round"/>
   </g>
   <g id="line2d_8">
    <path d="M 127.536829 211.068293 
L 124.535854 261.709756 
L 124.16258 263.826694 
L 123.087783 265.688298 
L 121.441098 267.070031 
L 119.421139 267.805236 
L 117.271544 267.805236 
L 115.251585 267.070031 
L 113.6049 265.688298 
L 112.530103 263.826694 
L 112.156829 261.709756 
L 109.155854 211.068293 
L 109.710108 207.924961 
L 111.306019 205.160761 
L 113.751098 203.109097 
L 116.75043 202.017429 
L 119.942253 202.017429 
L 122.941585 203.109097 
L 125.386664 205.160761 
L 126.982575 207.924961 
L 127.536829 211.068293 
L 127.536829 211.068293 
" clip-path="url(#pd14cb6fff2)" style="fill: none; stroke: #7d8288; stroke-opacity: 0.85; stroke-width: 1.7; stroke-linecap: round"/>
   </g>
   <g id="line2d_9">
    <path d="M 118.346341 256.448671 
L 133.35122 258.305524 
L 134.515535 258.510825 
L 135.539417 259.101963 
L 136.299371 260.00764 
L 136.703733 261.118617 
L 136.703733 262.300895 
L 136.299371 263.411872 
L 135.539417 264.317549 
L 134.515535 264.908688 
L 133.35122 265.113988 
L 118.346341 266.970841 
L 116.546944 266.653559 
L 114.964581 265.739981 
L 113.790108 264.340299 
L 113.165184 262.623334 
L 113.165184 260.796178 
L 113.790108 259.079213 
L 114.964581 257.679531 
L 116.546944 256.765953 
L 118.346341 256.448671 
L 118.346341 256.448671 
" clip-path="url(#pd14cb6fff2)" style="fill: none; stroke: #7d8288; stroke-opacity: 0.85; stroke-width: 1.5; stroke-linecap: round"/>
   </g>
   <g id="line2d_10">
    <path d="M 127.72439 106.034146 
L 125.286098 132.292683 
L 124.867579 134.666219 
L 123.662503 136.753472 
L 121.81622 138.302688 
L 119.551417 139.127009 
L 117.141265 139.127009 
L 114.876463 138.302688 
L 113.03018 136.753472 
L 111.825104 134.666219 
L 111.406585 132.292683 
L 108.968293 106.034146 
L 109.533858 102.826665 
L 111.162339 100.006053 
L 113.657317 97.912518 
L 116.71786 96.798571 
L 119.974823 96.798571 
L 123.035366 97.912518 
L 125.530344 100.006053 
L 127.158825 102.826665 
L 127.72439 106.034146 
L 127.72439 106.034146 
" clip-path="url(#pd14cb6fff2)" style="fill: none; stroke: #7d8288; stroke-opacity: 0.85; stroke-width: 1.7; stroke-linecap: round"/>
   </g>
   <g id="line2d_11">
    <path d="M 125.286098 132.292683 
L 124.160732 160.426829 
L 123.810081 162.415468 
L 122.800423 164.164247 
L 121.253537 165.462239 
L 119.356 166.152886 
L 117.336683 166.152886 
L 115.439146 165.462239 
L 113.89226 164.164247 
L 112.882602 162.415468 
L 112.531951 160.426829 
L 111.406585 132.292683 
L 111.825104 129.919147 
L 113.03018 127.831894 
L 114.876463 126.282678 
L 117.141265 125.458357 
L 119.551417 125.458357 
L 121.81622 126.282678 
L 123.662503 127.831894 
L 124.867579 129.919147 
L 125.286098 132.292683 
L 125.286098 132.292683 
" clip-path="url(#pd14cb6fff2)" style="fill: none; stroke: #7d8288; stroke-opacity: 0.85; stroke-width: 1.7; stroke-linecap: round"/>
   </g>
   <g id="patch_38">
    <path d="M 118.346341 98.531707 
C 122.325682 98.531707 126.142574 96.950699 128.956392 94.13688 
C 131.770211 91.323062 133.35122 87.506169 133.35122 83.526829 
C 133.35122 79.547489 131.770211 75.730597 128.956392 72.916778 
C 126.142574 70.10296 122.325682 68.521951 118.346341 68.521951 
C 114.367001 68.521951 110.550109 70.10296 107.73629 72.916778 
C 104.922472 75.730597 103.341463 79.547489 103.341463 83.526829 
C 103.341463 87.506169 104.922472 91.323062 107.73629 94.13688 
C 110.550109 96.950699 114.367001 98.531707 118.346341 98.531707 
z
" clip-path="url(#pd14cb6fff2)" style="fill: #9aa0a6; fill-opacity: 0.3; stroke: #7d8288; stroke-opacity: 0.85; stroke-width: 1.8; stroke-linejoin: miter"/>
   </g>
   <g id="patch_39">
    <path d="M 114.595122 201.675239 
C 118.073065 201.675239 121.409029 200.293438 123.868307 197.83416 
C 126.327584 195.374883 127.709385 192.038919 127.709385 188.560976 
C 127.709385 185.083032 126.327584 181.747068 123.868307 179.287791 
C 121.409029 176.828514 118.073065 175.446712 114.595122 175.446712 
C 111.117179 175.446712 107.781215 176.828514 105.321937 179.287791 
C 102.86266 181.747068 101.480859 185.083032 101.480859 188.560976 
C 101.480859 192.038919 102.86266 195.374883 105.321937 197.83416 
C 107.781215 200.293438 111.117179 201.675239 114.595122 201.675239 
z
" clip-path="url(#pd14cb6fff2)" style="fill: #3c3f42; fill-opacity: 0.95"/>
   </g>
   <g id="patch_40">
    <path d="M 88.336585 219.523541 
C 90.578944 219.523541 92.729762 218.632643 94.315349 217.047056 
C 95.900936 215.46147 96.791834 213.310651 96.791834 211.068293 
C 96.791834 208.825934 95.900936 206.675116 94.315349 205.089529 
C 92.729762 203.503942 90.578944 202.613044 88.336585 202.613044 
C 86.094227 202.613044 83.943408 203.503942 82.357822 205.089529 
C 80.772235 206.675116 79.881337 208.825934 79.881337 211.068293 
C 79.881337 213.310651 80.772235 215.46147 82.357822 217.047056 
C 83.943408 218.632643 86.094227 219.523541 88.336585 219.523541 
z
" clip-path="url(#pd14cb6fff2)" style="fill: #3c3f42; fill-opacity: 0.95"/>
   </g>
   <g id="patch_41">
    <path d="M 123.129771 198.518067 
L 93.839188 217.487996 
L 82.833982 204.648589 
L 106.060472 178.603885 
z
" clip-path="url(#pd14cb6fff2)" style="fill: #3c3f42; fill-opacity: 0.95"/>
   </g>
   <g id="patch_42">
    <path d="M 88.336585 219.523541 
C 90.578944 219.523541 92.729762 218.632643 94.315349 217.047056 
C 95.900936 215.46147 96.791834 213.310651 96.791834 211.068293 
C 96.791834 208.825934 95.900936 206.675116 94.315349 205.089529 
C 92.729762 203.503942 90.578944 202.613044 88.336585 202.613044 
C 86.094227 202.613044 83.943408 203.503942 82.357822 205.089529 
C 80.772235 206.675116 79.881337 208.825934 79.881337 211.068293 
C 79.881337 213.310651 80.772235 215.46147 82.357822 217.047056 
C 83.943408 218.632643 86.094227 219.523541 88.336585 219.523541 
z
" clip-path="url(#pd14cb6fff2)" style="fill: #3c3f42; fill-opacity: 0.95"/>
   </g>
   <g id="patch_43">
    <path d="M 86.460976 250.52362 
C 87.971135 250.52362 89.419646 249.923627 90.48749 248.855783 
C 91.555334 247.787939 92.155327 246.339428 92.155327 244.829268 
C 92.155327 243.319109 91.555334 241.870598 90.48749 240.802754 
C 89.419646 239.73491 87.971135 239.134917 86.460976 239.134917 
C 84.950816 239.134917 83.502305 239.73491 82.434461 240.802754 
C 81.366617 241.870598 80.766624 243.319109 80.766624 244.829268 
C 80.766624 246.339428 81.366617 247.787939 82.434461 248.855783 
C 83.502305 249.923627 84.950816 250.52362 86.460976 250.52362 
z
" clip-path="url(#pd14cb6fff2)" style="fill: #3c3f42; fill-opacity: 0.95"/>
   </g>
   <g id="patch_44">
    <path d="M 96.778816 211.537305 
L 92.14656 245.145134 
L 80.775392 244.513403 
L 79.894355 210.59928 
z
" clip-path="url(#pd14cb6fff2)" style="fill: #3c3f42; fill-opacity: 0.95"/>
   </g>
   <g id="patch_45">
    <path d="M 86.460976 249.669467 
C 87.744611 249.669467 88.975845 249.159473 89.883513 248.251806 
C 90.79118 247.344138 91.301174 246.112904 91.301174 244.829268 
C 91.301174 243.545633 90.79118 242.314399 89.883513 241.406731 
C 88.975845 240.499064 87.744611 239.98907 86.460976 239.98907 
C 85.17734 239.98907 83.946106 240.499064 83.038438 241.406731 
C 82.130771 242.314399 81.620777 243.545633 81.620777 244.829268 
C 81.620777 246.112904 82.130771 247.344138 83.038438 248.251806 
C 83.946106 249.159473 85.17734 249.669467 86.460976 249.669467 
z
" clip-path="url(#pd14cb6fff2)" style="fill: #1b1b1b; fill-opacity: 0.95"/>
   </g>
   <g id="patch_46">
    <path d="M 77.082927 242.334332 
C 77.913515 242.334332 78.710195 242.004336 79.29751 241.417022 
C 79.884824 240.829708 80.21482 240.033027 80.21482 239.202439 
C 80.21482 238.371851 79.884824 237.57517 79.29751 236.987856 
C 78.710195 236.400542 77.913515 236.070546 77.082927 236.070546 
C 76.252339 236.070546 75.455658 236.400542 74.868344 236.987856 
C 74.28103 237.57517 73.951034 238.371851 73.951034 239.202439 
C 73.951034 240.033027 74.28103 240.829708 74.868344 241.417022 
C 75.455658 242.004336 76.252339 242.334332 77.082927 242.334332 
z
" clip-path="url(#pd14cb6fff2)" style="fill: #1b1b1b; fill-opacity: 0.95"/>
   </g>
   <g id="patch_47">
    <path d="M 83.970714 248.979704 
L 75.471581 241.888015 
L 78.694273 236.516863 
L 88.951237 240.678832 
z
" clip-path="url(#pd14cb6fff2)" style="fill: #1b1b1b; fill-opacity: 0.95"/>
   </g>
   <g id="patch_48">
    <path d="M 86.460976 248.929201 
C 87.548291 248.929201 88.591218 248.497206 89.360066 247.728359 
C 90.128914 246.959511 90.560908 245.916583 90.560908 244.829268 
C 90.560908 243.741953 90.128914 242.699026 89.360066 241.930178 
C 88.591218 241.16133 87.548291 240.729335 86.460976 240.729335 
C 85.373661 240.729335 84.330733 241.16133 83.561885 241.930178 
C 82.793038 242.699026 82.361043 243.741953 82.361043 244.829268 
C 82.361043 245.916583 82.793038 246.959511 83.561885 247.728359 
C 84.330733 248.497206 85.373661 248.929201 86.460976 248.929201 
z
" clip-path="url(#pd14cb6fff2)" style="fill: #1b1b1b; fill-opacity: 0.95; stroke: #121212; stroke-width: 1.3; stroke-linejoin: miter"/>
   </g>
   <g id="line2d_12">
    <path d="M 123.129771 198.518067 
L 93.839188 217.487996 
L 91.311673 218.982842 
L 88.425318 219.523076 
L 85.528261 219.043538 
L 82.969929 217.602069 
L 81.058895 215.372529 
L 80.025658 212.623835 
L 79.994841 209.68752 
L 80.970162 206.917746 
L 82.833982 204.648589 
L 106.060472 178.603885 
L 109.980701 176.285349 
L 114.457496 175.447434 
L 118.950891 176.191207 
L 122.918916 178.426956 
L 125.882969 181.885017 
L 127.485541 186.148298 
L 127.533338 190.702583 
L 126.020595 194.998559 
L 123.129771 198.518067 
L 123.129771 198.518067 
" clip-path="url(#pd14cb6fff2)" style="fill: none; stroke: #282a2c; stroke-width: 1.7; stroke-linecap: round"/>
   </g>
   <g id="line2d_13">
    <path d="M 96.778816 211.537305 
L 92.14656 245.145134 
L 91.695644 247.070669 
L 90.613351 248.725858 
L 89.03022 249.911061 
L 87.1372 250.483325 
L 85.162617 250.373626 
L 83.344636 249.595196 
L 81.902531 248.241924 
L 81.010242 246.477036 
L 80.775392 244.513403 
L 79.894355 210.59928 
L 80.563895 207.740152 
L 82.170937 205.282447 
L 84.521647 203.5226 
L 87.332495 202.672875 
L 90.264451 202.835762 
L 92.963878 203.991613 
L 95.105185 206.001016 
L 96.430099 208.621608 
L 96.778816 211.537305 
L 96.778816 211.537305 
" clip-path="url(#pd14cb6fff2)" style="fill: none; stroke: #282a2c; stroke-width: 1.7; stroke-linecap: round"/>
   </g>
   <g id="line2d_14">
    <path d="M 83.970714 248.979704 
L 75.471581 241.888015 
L 74.650236 241.174942 
L 74.122309 240.223957 
L 73.951477 239.149761 
L 74.158343 238.081919 
L 74.717958 237.149228 
L 75.562822 236.464185 
L 76.591034 236.109415 
L 77.678575 236.12771 
L 78.694273 236.516863 
L 88.951237 240.678832 
L 90.220589 241.780854 
L 91.036476 243.250559 
L 91.300489 244.91068 
L 90.980787 246.560982 
L 90.115928 248.002413 
L 88.810228 249.061116 
L 87.221173 249.609396 
L 85.540428 249.581122 
L 83.970714 248.979704 
L 83.970714 248.979704 
" clip-path="url(#pd14cb6fff2)" style="fill: none; stroke: #121212; stroke-width: 1.5; stroke-linecap: round"/>
   </g>
   <g id="patch_49">
    <path d="M 114.595122 128.541463 
C 116.584792 128.541463 118.493238 127.750959 119.900147 126.34405 
C 121.307057 124.937141 122.097561 123.028694 122.097561 121.039024 
C 122.097561 119.049354 121.307057 117.140908 119.900147 115.733999 
C 118.493238 114.32709 116.584792 113.536585 114.595122 113.536585 
C 112.605452 113.536585 110.697006 114.32709 109.290096 115.733999 
C 107.883187 117.140908 107.092683 119.049354 107.092683 121.039024 
C 107.092683 123.028694 107.883187 124.937141 109.290096 126.34405 
C 110.697006 127.750959 112.605452 128.541463 114.595122 128.541463 
z
" clip-path="url(#pd14cb6fff2)" style="fill: #2c3e50"/>
   </g>
   <g id="patch_50">
    <path d="M 114.595122 155.175122 
C 117.679111 155.175122 120.637202 153.94984 122.817911 151.769131 
C 124.998621 149.588422 126.223902 146.63033 126.223902 143.546341 
C 126.223902 140.462353 124.998621 137.504261 122.817911 135.323552 
C 120.637202 133.142843 117.679111 131.917561 114.595122 131.917561 
C 111.511133 131.917561 108.553042 133.142843 106.372332 135.323552 
C 104.191623 137.504261 102.966341 140.462353 102.966341 143.546341 
C 102.966341 146.63033 104.191623 149.588422 106.372332 151.769131 
C 108.553042 153.94984 111.511133 155.175122 114.595122 155.175122 
z
" clip-path="url(#pd14cb6fff2)" style="fill: #2c3e50"/>
   </g>
   <g id="patch_51">
    <path d="M 122.097561 121.039024 
L 126.223902 143.546341 
L 102.966341 143.546341 
L 107.092683 121.039024 
z
" clip-path="url(#pd14cb6fff2)" style="fill: #2c3e50"/>
   </g>
   <g id="patch_52">
    <path d="M 114.595122 166.803902 
C 120.763099 166.803902 126.679282 164.353339 131.040701 159.991921 
C 135.40212 155.630502 137.852683 149.714319 137.852683 143.546341 
C 137.852683 137.378364 135.40212 131.462181 131.040701 127.100762 
C 126.679282 122.739344 120.763099 120.28878 114.595122 120.28878 
C 108.427145 120.28878 102.510961 122.739344 98.149543 127.100762 
C 93.788124 131.462181 91.337561 137.378364 91.337561 143.546341 
C 91.337561 149.714319 93.788124 155.630502 98.149543 159.991921 
C 102.510961 164.353339 108.427145 166.803902 114.595122 166.803902 
z
" clip-path="url(#pd14cb6fff2)" style="fill: #2c3e50"/>
   </g>
   <g id="patch_53">
    <path d="M 114.595122 205.816585 
C 119.171363 205.816585 123.560789 203.998425 126.796681 200.762534 
C 130.032572 197.526643 131.850732 193.137217 131.850732 188.560976 
C 131.850732 183.984734 130.032572 179.595308 126.796681 176.359417 
C 123.560789 173.123526 119.171363 171.305366 114.595122 171.305366 
C 110.018881 171.305366 105.629454 173.123526 102.393563 176.359417 
C 99.157672 179.595308 97.339512 183.984734 97.339512 188.560976 
C 97.339512 193.137217 99.157672 197.526643 102.393563 200.762534 
C 105.629454 203.998425 110.018881 205.816585 114.595122 205.816585 
z
" clip-path="url(#pd14cb6fff2)" style="fill: #2c3e50"/>
   </g>
   <g id="patch_54">
    <path d="M 137.852683 143.546341 
L 131.850732 188.560976 
L 97.339512 188.560976 
L 91.337561 143.546341 
z
" clip-path="url(#pd14cb6fff2)" style="fill: #2c3e50"/>
   </g>
   <g id="patch_55">
    <path d="M 114.595122 202.81561 
C 118.375495 202.81561 122.001543 201.313652 124.67467 198.640524 
C 127.347798 195.967397 128.849756 192.341349 128.849756 188.560976 
C 128.849756 184.780602 127.347798 181.154555 124.67467 178.481427 
C 122.001543 175.8083 118.375495 174.306341 114.595122 174.306341 
C 110.814749 174.306341 107.188701 175.8083 104.515573 178.481427 
C 101.842446 181.154555 100.340488 184.780602 100.340488 188.560976 
C 100.340488 192.341349 101.842446 195.967397 104.515573 198.640524 
C 107.188701 201.313652 110.814749 202.81561 114.595122 202.81561 
z
" clip-path="url(#pd14cb6fff2)" style="fill: #3c3f42"/>
   </g>
   <g id="patch_56">
    <path d="M 137.102439 235.263659 
C 139.539785 235.263659 141.877631 234.295291 143.601095 232.571827 
C 145.324559 230.848363 146.292927 228.510517 146.292927 226.073171 
C 146.292927 223.635825 145.324559 221.297978 143.601095 219.574514 
C 141.877631 217.851051 139.539785 216.882683 137.102439 216.882683 
C 134.665093 216.882683 132.327247 217.851051 130.603783 219.574514 
C 128.880319 221.297978 127.911951 223.635825 127.911951 226.073171 
C 127.911951 228.510517 128.880319 230.848363 130.603783 232.571827 
C 132.327247 234.295291 134.665093 235.263659 137.102439 235.263659 
z
" clip-path="url(#pd14cb6fff2)" style="fill: #3c3f42"/>
   </g>
   <g id="patch_57">
    <path d="M 126.81837 181.227027 
L 144.983217 221.344704 
L 129.221661 230.801638 
L 102.371874 195.894924 
z
" clip-path="url(#pd14cb6fff2)" style="fill: #3c3f42"/>
   </g>
   <g id="patch_58">
    <path d="M 137.102439 235.263659 
C 139.539785 235.263659 141.877631 234.295291 143.601095 232.571827 
C 145.324559 230.848363 146.292927 228.510517 146.292927 226.073171 
C 146.292927 223.635825 145.324559 221.297978 143.601095 219.574514 
C 141.877631 217.851051 139.539785 216.882683 137.102439 216.882683 
C 134.665093 216.882683 132.327247 217.851051 130.603783 219.574514 
C 128.880319 221.297978 127.911951 223.635825 127.911951 226.073171 
C 127.911951 228.510517 128.880319 230.848363 130.603783 232.571827 
C 132.327247 234.295291 134.665093 235.263659 137.102439 235.263659 
z
" clip-path="url(#pd14cb6fff2)" style="fill: #3c3f42"/>
   </g>
   <g id="patch_59">
    <path d="M 129.6 267.899268 
C 131.241478 267.899268 132.815946 267.247102 133.976646 266.086402 
C 135.137346 264.925702 135.789512 263.351234 135.789512 261.709756 
C 135.789512 260.068278 135.137346 258.49381 133.976646 257.33311 
C 132.815946 256.17241 131.241478 255.520244 129.6 255.520244 
C 127.958522 255.520244 126.384054 256.17241 125.223354 257.33311 
C 124.062654 258.49381 123.410488 260.068278 123.410488 261.709756 
C 123.410488 263.351234 124.062654 264.925702 125.223354 266.086402 
C 126.384054 267.247102 127.958522 267.899268 129.6 267.899268 
z
" clip-path="url(#pd14cb6fff2)" style="fill: #3c3f42"/>
   </g>
   <g id="patch_60">
    <path d="M 146.095789 227.966508 
L 135.656746 262.98486 
L 123.543254 260.434652 
L 128.109089 224.179834 
z
" clip-path="url(#pd14cb6fff2)" style="fill: #3c3f42"/>
   </g>
   <g id="patch_61">
    <path d="M 129.6 266.970841 
C 130.995256 266.970841 132.333554 266.4165 133.320149 265.429905 
C 134.306744 264.44331 134.861085 263.105012 134.861085 261.709756 
C 134.861085 260.3145 134.306744 258.976202 133.320149 257.989607 
C 132.333554 257.003012 130.995256 256.448671 129.6 256.448671 
C 128.204744 256.448671 126.866446 257.003012 125.879851 257.989607 
C 124.893256 258.976202 124.338915 260.3145 124.338915 261.709756 
C 124.338915 263.105012 124.893256 264.44331 125.879851 265.429905 
C 126.866446 266.4165 128.204744 266.970841 129.6 266.970841 
z
" clip-path="url(#pd14cb6fff2)" style="fill: #1b1b1b"/>
   </g>
   <g id="patch_62">
    <path d="M 144.604878 265.113988 
C 145.507691 265.113988 146.373648 264.755296 147.012033 264.116911 
C 147.650418 263.478526 148.00911 262.612569 148.00911 261.709756 
C 148.00911 260.806943 147.650418 259.940986 147.012033 259.302601 
C 146.373648 258.664216 145.507691 258.305524 144.604878 258.305524 
C 143.702065 258.305524 142.836108 258.664216 142.197723 259.302601 
C 141.559338 259.940986 141.200646 260.806943 141.200646 261.709756 
C 141.200646 262.612569 141.559338 263.478526 142.197723 264.116911 
C 142.836108 264.755296 143.702065 265.113988 144.604878 265.113988 
z
" clip-path="url(#pd14cb6fff2)" style="fill: #1b1b1b"/>
   </g>
   <g id="patch_63">
    <path d="M 129.6 256.448671 
L 144.604878 258.305524 
L 144.604878 265.113988 
L 129.6 266.970841 
z
" clip-path="url(#pd14cb6fff2)" style="fill: #1b1b1b"/>
   </g>
   <g id="line2d_15">
    <path d="M 122.097561 121.039024 
L 126.223902 143.546341 
L 125.522601 147.523619 
L 123.503285 151.021177 
L 120.409512 153.617161 
L 116.614438 154.998455 
L 112.575805 154.998455 
L 108.780732 153.617161 
L 105.686959 151.021177 
L 103.667643 147.523619 
L 102.966341 143.546341 
L 107.092683 121.039024 
L 107.545135 118.473039 
L 108.84792 116.21655 
L 110.843902 114.541722 
L 113.292337 113.650564 
L 115.897907 113.650564 
L 118.346341 114.541722 
L 120.342324 116.21655 
L 121.645109 118.473039 
L 122.097561 121.039024 
L 122.097561 121.039024 
" clip-path="url(#pd14cb6fff2)" style="fill: none; stroke: #1d2a36; stroke-width: 1.7; stroke-linecap: round"/>
   </g>
   <g id="line2d_16">
    <path d="M 137.852683 143.546341 
L 131.850732 188.560976 
L 130.810091 194.462742 
L 127.813686 199.652668 
L 123.222927 203.504772 
L 117.591527 205.554434 
L 111.598717 205.554434 
L 105.967317 203.504772 
L 101.376558 199.652668 
L 98.380153 194.462742 
L 97.339512 188.560976 
L 91.337561 143.546341 
L 92.740164 135.591787 
L 96.778797 128.596669 
L 102.966341 123.404703 
L 110.556489 120.642115 
L 118.633755 120.642115 
L 126.223902 123.404703 
L 132.411447 128.596669 
L 136.45008 135.591787 
L 137.852683 143.546341 
L 137.852683 143.546341 
" clip-path="url(#pd14cb6fff2)" style="fill: none; stroke: #1d2a36; stroke-width: 1.7; stroke-linecap: round"/>
   </g>
   <g id="patch_64">
    <path d="M 114.595122 152.92439 
C 117.08221 152.92439 119.467767 151.93626 121.226404 150.177623 
C 122.98504 148.418987 123.973171 146.033429 123.973171 143.546341 
C 123.973171 141.059254 122.98504 138.673696 121.226404 136.91506 
C 119.467767 135.156423 117.08221 134.168293 114.595122 134.168293 
C 112.108034 134.168293 109.722477 135.156423 107.96384 136.91506 
C 106.205204 138.673696 105.217073 141.059254 105.217073 143.546341 
C 105.217073 146.033429 106.205204 148.418987 107.96384 150.177623 
C 109.722477 151.93626 112.108034 152.92439 114.595122 152.92439 
z
" clip-path="url(#pd14cb6fff2)" style="fill: #2c3e50"/>
   </g>
   <g id="patch_65">
    <path d="M 114.595122 172.993415 
C 116.435567 172.993415 118.20088 172.262198 119.502271 170.960807 
C 120.803662 169.659416 121.534878 167.894103 121.534878 166.053659 
C 121.534878 164.213214 120.803662 162.447901 119.502271 161.14651 
C 118.20088 159.845119 116.435567 159.113902 114.595122 159.113902 
C 112.754677 159.113902 110.989364 159.845119 109.687973 161.14651 
C 108.386582 162.447901 107.655366 164.213214 107.655366 166.053659 
C 107.655366 167.894103 108.386582 169.659416 109.687973 170.960807 
C 110.989364 172.262198 112.754677 172.993415 114.595122 172.993415 
z
" clip-path="url(#pd14cb6fff2)" style="fill: #2c3e50"/>
   </g>
   <g id="patch_66">
    <path d="M 123.973171 143.546341 
L 121.534878 166.053659 
L 107.655366 166.053659 
L 105.217073 143.546341 
z
" clip-path="url(#pd14cb6fff2)" style="fill: #2c3e50"/>
   </g>
   <g id="patch_67">
    <path d="M 114.595122 172.993415 
C 116.435567 172.993415 118.20088 172.262198 119.502271 170.960807 
C 120.803662 169.659416 121.534878 167.894103 121.534878 166.053659 
C 121.534878 164.213214 120.803662 162.447901 119.502271 161.14651 
C 118.20088 159.845119 116.435567 159.113902 114.595122 159.113902 
C 112.754677 159.113902 110.989364 159.845119 109.687973 161.14651 
C 108.386582 162.447901 107.655366 164.213214 107.655366 166.053659 
C 107.655366 167.894103 108.386582 169.659416 109.687973 170.960807 
C 110.989364 172.262198 112.754677 172.993415 114.595122 172.993415 
z
" clip-path="url(#pd14cb6fff2)" style="fill: #2c3e50"/>
   </g>
   <g id="patch_68">
    <path d="M 114.595122 200.002195 
C 116.137116 200.002195 117.616162 199.389554 118.706517 198.2992 
C 119.796871 197.208845 120.409512 195.729799 120.409512 194.187805 
C 120.409512 192.645811 119.796871 191.166765 118.706517 190.07641 
C 117.616162 188.986055 116.137116 188.373415 114.595122 188.373415 
C 113.053128 188.373415 111.574082 188.986055 110.483727 190.07641 
C 109.393373 191.166765 108.780732 192.645811 108.780732 194.187805 
C 108.780732 195.729799 109.393373 197.208845 110.483727 198.2992 
C 111.574082 199.389554 113.053128 200.002195 114.595122 200.002195 
z
" clip-path="url(#pd14cb6fff2)" style="fill: #2c3e50"/>
   </g>
   <g id="patch_69">
    <path d="M 121.534878 166.053659 
L 120.409512 194.187805 
L 108.780732 194.187805 
L 107.655366 166.053659 
z
" clip-path="url(#pd14cb6fff2)" style="fill: #2c3e50"/>
   </g>
   <g id="patch_70">
    <path d="M 129.6 266.166205 
C 130.781864 266.166205 131.915481 265.696645 132.751185 264.860941 
C 133.586889 264.025237 134.056449 262.89162 134.056449 261.709756 
C 134.056449 260.527892 133.586889 259.394275 132.751185 258.558571 
C 131.915481 257.722867 130.781864 257.253307 129.6 257.253307 
C 128.418136 257.253307 127.284519 257.722867 126.448815 258.558571 
C 125.613111 259.394275 125.143551 260.527892 125.143551 261.709756 
C 125.143551 262.89162 125.613111 264.025237 126.448815 264.860941 
C 127.284519 265.696645 128.418136 266.166205 129.6 266.166205 
z
" clip-path="url(#pd14cb6fff2)" style="fill: #1b1b1b; stroke: #121212; stroke-width: 1.3; stroke-linejoin: miter"/>
   </g>
   <g id="patch_71">
    <path d="M 114.595122 200.377317 
C 116.2366 200.377317 117.811068 199.725151 118.971768 198.564451 
C 120.132468 197.403751 120.784634 195.829283 120.784634 194.187805 
C 120.784634 192.546327 120.132468 190.971859 118.971768 189.811159 
C 117.811068 188.650459 116.2366 187.998293 114.595122 187.998293 
C 112.953644 187.998293 111.379176 188.650459 110.218476 189.811159 
C 109.057776 190.971859 108.40561 192.546327 108.40561 194.187805 
C 108.40561 195.829283 109.057776 197.403751 110.218476 198.564451 
C 111.379176 199.725151 112.953644 200.377317 114.595122 200.377317 
z
" clip-path="url(#pd14cb6fff2)" style="fill: #f2e0c9; stroke: #a49888; stroke-width: 1.6; stroke-linejoin: miter"/>
   </g>
   <g id="line2d_17">
    <path d="M 126.81837 181.227027 
L 144.983217 221.344704 
L 146.125179 224.32525 
L 146.178865 227.516622 
L 145.137801 230.533891 
L 143.127553 233.013133 
L 140.390587 234.655312 
L 137.257022 235.262358 
L 134.104813 234.761053 
L 131.314161 233.211861 
L 129.221661 230.801638 
L 102.371874 195.894924 
L 100.600668 191.272036 
L 100.517399 186.322154 
L 102.132112 181.642307 
L 105.250048 177.796953 
L 109.495137 175.249899 
L 114.35536 174.308358 
L 119.244502 175.085893 
L 123.57286 177.488721 
L 126.81837 181.227027 
L 126.81837 181.227027 
" clip-path="url(#pd14cb6fff2)" style="fill: none; stroke: #282a2c; stroke-width: 1.7; stroke-linecap: round"/>
   </g>
   <g id="line2d_18">
    <path d="M 146.095789 227.966508 
L 135.656746 262.98486 
L 134.855368 264.979491 
L 133.420115 266.579744 
L 131.5241 267.592604 
L 129.39601 267.895906 
L 127.292524 267.453067 
L 125.467354 266.3175 
L 124.140642 264.626171 
L 123.472409 262.583079 
L 123.543254 260.434652 
L 128.109089 224.179834 
L 129.299014 221.218109 
L 131.430147 218.841977 
L 134.245442 217.338033 
L 137.405333 216.887676 
L 140.528691 217.545225 
L 143.238792 219.23137 
L 145.208758 221.742737 
L 146.200983 224.776419 
L 146.095789 227.966508 
L 146.095789 227.966508 
" clip-path="url(#pd14cb6fff2)" style="fill: none; stroke: #282a2c; stroke-width: 1.7; stroke-linecap: round"/>
   </g>
   <g id="line2d_19">
    <path d="M 129.6 256.448671 
L 144.604878 258.305524 
L 145.769194 258.510825 
L 146.793076 259.101963 
L 147.553029 260.00764 
L 147.957392 261.118617 
L 147.957392 262.300895 
L 147.553029 263.411872 
L 146.793076 264.317549 
L 145.769194 264.908688 
L 144.604878 265.113988 
L 129.6 266.970841 
L 127.800603 266.653559 
L 126.21824 265.739981 
L 125.043766 264.340299 
L 124.418842 262.623334 
L 124.418842 260.796178 
L 125.043766 259.079213 
L 126.21824 257.679531 
L 127.800603 256.765953 
L 129.6 256.448671 
L 129.6 256.448671 
" clip-path="url(#pd14cb6fff2)" style="fill: none; stroke: #121212; stroke-width: 1.5; stroke-linecap: round"/>
   </g>
   <g id="line2d_20">
    <path d="M 123.973171 143.546341 
L 121.534878 166.053659 
L 121.11636 168.427195 
L 119.911284 170.514448 
L 118.065 172.063664 
L 115.800198 172.887984 
L 113.390046 172.887984 
L 111.125244 172.063664 
L 109.27896 170.514448 
L 108.073884 168.427195 
L 107.655366 166.053659 
L 105.217073 143.546341 
L 105.782639 140.33886 
L 107.41112 137.518248 
L 109.906098 135.424713 
L 112.966641 134.310766 
L 116.223603 134.310766 
L 119.284146 135.424713 
L 121.779124 137.518248 
L 123.407605 140.33886 
L 123.973171 143.546341 
L 123.973171 143.546341 
" clip-path="url(#pd14cb6fff2)" style="fill: none; stroke: #1d2a36; stroke-width: 1.7; stroke-linecap: round"/>
   </g>
   <g id="line2d_21">
    <path d="M 121.534878 166.053659 
L 120.409512 194.187805 
L 120.058862 196.176443 
L 119.049203 197.925223 
L 117.502317 199.223215 
L 115.60478 199.913861 
L 113.585464 199.913861 
L 111.687927 199.223215 
L 110.141041 197.925223 
L 109.131382 196.176443 
L 108.780732 194.187805 
L 107.655366 166.053659 
L 108.073884 163.680122 
L 109.27896 161.592869 
L 111.125244 160.043653 
L 113.390046 159.219333 
L 115.800198 159.219333 
L 118.065 160.043653 
L 119.911284 161.592869 
L 121.11636 163.680122 
L 121.534878 166.053659 
L 121.534878 166.053659 
" clip-path="url(#pd14cb6fff2)" style="fill: none; stroke: #1d2a36; stroke-width: 1.7; stroke-linecap: round"/>
   </g>
   <g id="patch_72">
    <path d="M 114.595122 136.043902 
C 118.574462 136.043902 122.391355 134.462894 125.205173 131.649075 
C 128.018991 128.835257 129.6 125.018365 129.6 121.039024 
C 129.6 117.059684 128.018991 113.242792 125.205173 110.428973 
C 122.391355 107.615155 118.574462 106.034146 114.595122 106.034146 
C 110.615782 106.034146 106.798889 107.615155 103.985071 110.428973 
C 101.171253 113.242792 99.590244 117.059684 99.590244 121.039024 
C 99.590244 125.018365 101.171253 128.835257 103.985071 131.649075 
C 106.798889 134.462894 110.615782 136.043902 114.595122 136.043902 
z
" clip-path="url(#pd14cb6fff2)" style="fill: #f2e0c9; stroke: #a49888; stroke-width: 1.8; stroke-linejoin: miter"/>
   </g>
   <g id="patch_73">
    <path d="M 118.12517 156.790546 
Q 116.470675 171.680996 115.087806 184.126815 
" clip-path="url(#pd14cb6fff2)" style="fill: none; stroke-dasharray: 2.2,0; stroke-dashoffset: 0; stroke: #c0392b; stroke-width: 2.2; stroke-linecap: round"/>
    <path d="M 118.489097 178.870274 
L 115.087806 184.126815 
L 112.923349 178.251858 
z
" clip-path="url(#pd14cb6fff2)" style="fill: #c0392b; stroke-dasharray: 2.2,0; stroke-dashoffset: 0; stroke: #c0392b; stroke-width: 2.2; stroke-linecap: round"/>
   </g>
  </g>
 </g>
 <defs>
  <clipPath id="pd14cb6fff2">
   <rect x="5.809756" y="1" width="247.580488" height="307.6"/>
  </clipPath>
 </defs>
</svg>
