<?xml version="1.0" encoding="utf-8" standalone="no"?>
<!DOCTYPE svg PUBLIC "-//W3C//DTD SVG 1.1//EN"
  "http://www.w3.org/Graphics/SVG/1.1/DTD/svg11.dtd">
<svg xmlns:xlink="http://www.w3.org/1999/xlink" width="259.2pt" height="309.6pt" viewBox="0 0 259.2 309.6" xmlns="http://www.w3.org/2000/svg" version="1.1">
 <metadata>
  <rdf:RDF xmlns:dc="http://purl.org/dc/elements/1.1/" xmlns:cc="http://creativecommons.org/ns#" xmlns:rdf="http://www.w3.org/1999/02/22-rdf-syntax-ns#">
   <cc:Work>
    <dc:type rdf:resource="http://purl.org/dc/dcmitype/StillImage"/>
    <dc:date>2026-07-10T23:04:56.997010</dc:date>
    <dc:format>image/svg+xml</dc:format>
    <dc:creator>
     <cc:Agent>
      <dc:title>Matplotlib v3.10.8, https://matplotlib.org/</dc:title>
     </cc:Agent>
    </dc:creator>
   </cc:Work>
  </rdf:RDF>
 </metadata>
 <defs>
  <style type="text/css">*{stroke-linejoin: round; stroke-linecap: butt}</style>
 </defs>
 <g id="figure_1">
  <g id="patch_1">
   <path d="M 0 309.6 
L 259.2 309.6 
L 259.2 0 
L 0 0 
L 0 309.6 
z
" style="fill: none"/>
  </g>
  <g id="axes_1">
   <g id="line2d_1">
    <path d="M 17.063415 299.221951 
L 242.136585 299.221951 
" clip-path="url(#p4b6ab1ceed)" style="fill: none; stroke: #c3c3c3; stroke-width: 3; stroke-linecap: round"/>
   </g>
   <g id="patch_2">
    <path d="M 144.604878 289.093659 
C 147.340674 289.093659 149.964788 288.777457 151.899288 288.214693 
C 153.833788 287.651929 154.920732 286.888551 154.920732 286.092683 
C 154.920732 285.296815 153.833788 284.533436 151.899288 283.970673 
C 149.964788 283.407909 147.340674 283.091707 144.604878 283.091707 
C 141.869082 283.091707 139.244968 283.407909 137.310468 283.970673 
C 135.375968 284.533436 134.289024 285.296815 134.289024 286.092683 
C 134.289024 286.888551 135.375968 287.651929 137.310468 288.214693 
C 139.244968 288.777457 141.869082 289.093659 144.604878 289.093659 
z
" clip-path="url(#p4b6ab1ceed)" style="fill: #d8d8d8; stroke: #d8d8d8; stroke-linejoin: miter"/>
   </g>
   <g id="patch_3">
    <path d="M 129.6 64.770732 
C 131.58967 64.770732 133.498116 63.980227 134.905026 62.573318 
C 136.311935 61.166409 137.102439 59.257963 137.102439 57.268293 
C 137.102439 55.278623 136.311935 53.370176 134.905026 51.963267 
C 133.498116 50.556358 131.58967 49.765854 129.6 49.765854 
C 127.61033 49.765854 125.701884 50.556358 124.294974 51.963267 
C 122.888065 53.370176 122.097561 55.278623 122.097561 57.268293 
C 122.097561 59.257963 122.888065 61.166409 124.294974 62.573318 
C 125.701884 63.980227 127.61033 64.770732 129.6 64.770732 
z
" clip-path="url(#p4b6ab1ceed)" style="fill: #9aa0a6; fill-opacity: 0.3"/>
   </g>
   <g id="patch_4">
    <path d="M 129.6 91.40439 
C 132.683989 91.40439 135.64208 90.179109 137.82279 87.998399 
C 140.003499 85.81769 141.22878 82.859598 141.22878 79.77561 
C 141.22878 76.691621 140.003499 73.733529 137.82279 71.55282 
C 135.64208 69.372111 132.683989 68.146829 129.6 68.146829 
C 126.516011 68.146829 123.55792 69.372111 121.37721 71.55282 
C 119.196501 73.733529 117.97122 76.691621 117.97122 79.77561 
C 117.97122 82.859598 119.196501 85.81769 121.37721 87.998399 
C 123.55792 90.179109 126.516011 91.40439 129.6 91.40439 
z
" clip-path="url(#p4b6ab1ceed)" style="fill: #9aa0a6; fill-opacity: 0.3"/>
   </g>
   <g id="patch_5">
    <path d="M 137.102439 57.268293 
L 141.22878 79.77561 
L 117.97122 79.77561 
L 122.097561 57.268293 
z
" clip-path="url(#p4b6ab1ceed)" style="fill: #9aa0a6; fill-opacity: 0.3"/>
   </g>
   <g id="patch_6">
    <path d="M 129.6 103.033171 
C 135.767977 103.033171 141.684161 100.582607 146.045579 96.221189 
C 150.406998 91.85977 152.857561 85.943587 152.857561 79.77561 
C 152.857561 73.607632 150.406998 67.691449 146.045579 63.330031 
C 141.684161 58.968612 135.767977 56.518049 129.6 56.518049 
C 123.432023 56.518049 117.515839 58.968612 113.154421 63.330031 
C 108.793002 67.691449 106.342439 73.607632 106.342439 79.77561 
C 106.342439 85.943587 108.793002 91.85977 113.154421 96.221189 
C 117.515839 100.582607 123.432023 103.033171 129.6 103.033171 
z
" clip-path="url(#p4b6ab1ceed)" style="fill: #9aa0a6; fill-opacity: 0.3"/>
   </g>
   <g id="patch_7">
    <path d="M 129.6 164.553171 
C 134.176241 164.553171 138.565667 162.735011 141.801559 159.49912 
C 145.03745 156.263228 146.85561 151.873802 146.85561 147.297561 
C 146.85561 142.72132 145.03745 138.331893 141.801559 135.096002 
C 138.565667 131.860111 134.176241 130.041951 129.6 130.041951 
C 125.023759 130.041951 120.634333 131.860111 117.398441 135.096002 
C 114.16255 138.331893 112.34439 142.72132 112.34439 147.297561 
C 112.34439 151.873802 114.16255 156.263228 117.398441 159.49912 
C 120.634333 162.735011 125.023759 164.553171 129.6 164.553171 
z
" clip-path="url(#p4b6ab1ceed)" style="fill: #9aa0a6; fill-opacity: 0.3"/>
   </g>
   <g id="patch_8">
    <path d="M 152.857561 79.77561 
L 146.85561 147.297561 
L 112.34439 147.297561 
L 106.342439 79.77561 
z
" clip-path="url(#p4b6ab1ceed)" style="fill: #9aa0a6; fill-opacity: 0.3"/>
   </g>
   <g id="patch_9">
    <path d="M 129.6 161.552195 
C 133.380373 161.552195 137.006421 160.050237 139.679548 157.377109 
C 142.352676 154.703982 143.854634 151.077934 143.854634 147.297561 
C 143.854634 143.517188 142.352676 139.89114 139.679548 137.218013 
C 137.006421 134.544885 133.380373 133.042927 129.6 133.042927 
C 125.819627 133.042927 122.193579 134.544885 119.520452 137.218013 
C 116.847324 139.89114 115.345366 143.517188 115.345366 147.297561 
C 115.345366 151.077934 116.847324 154.703982 119.520452 157.377109 
C 122.193579 160.050237 125.819627 161.552195 129.6 161.552195 
z
" clip-path="url(#p4b6ab1ceed)" style="fill: #9aa0a6; fill-opacity: 0.3"/>
   </g>
   <g id="patch_10">
    <path d="M 129.6 227.76122 
C 132.037346 227.76122 134.375192 226.792852 136.098656 225.069388 
C 137.82212 223.345924 138.790488 221.008078 138.790488 218.570732 
C 138.790488 216.133386 137.82212 213.795539 136.098656 212.072075 
C 134.375192 210.348612 132.037346 209.380244 129.6 209.380244 
C 127.162654 209.380244 124.824808 210.348612 123.101344 212.072075 
C 121.37788 213.795539 120.409512 216.133386 120.409512 218.570732 
C 120.409512 221.008078 121.37788 223.345924 123.101344 225.069388 
C 124.824808 226.792852 127.162654 227.76122 129.6 227.76122 
z
" clip-path="url(#p4b6ab1ceed)" style="fill: #9aa0a6; fill-opacity: 0.3"/>
   </g>
   <g id="patch_11">
    <path d="M 143.854634 147.297561 
L 138.790488 218.570732 
L 120.409512 218.570732 
L 115.345366 147.297561 
z
" clip-path="url(#p4b6ab1ceed)" style="fill: #9aa0a6; fill-opacity: 0.3"/>
   </g>
   <g id="patch_12">
    <path d="M 129.6 227.76122 
C 132.037346 227.76122 134.375192 226.792852 136.098656 225.069388 
C 137.82212 223.345924 138.790488 221.008078 138.790488 218.570732 
C 138.790488 216.133386 137.82212 213.795539 136.098656 212.072075 
C 134.375192 210.348612 132.037346 209.380244 129.6 209.380244 
C 127.162654 209.380244 124.824808 210.348612 123.101344 212.072075 
C 121.37788 213.795539 120.409512 216.133386 120.409512 218.570732 
C 120.409512 221.008078 121.37788 223.345924 123.101344 225.069388 
C 124.824808 226.792852 127.162654 227.76122 129.6 227.76122 
z
" clip-path="url(#p4b6ab1ceed)" style="fill: #9aa0a6; fill-opacity: 0.3"/>
   </g>
   <g id="patch_13">
    <path d="M 129.6 290.406585 
C 131.241478 290.406585 132.815946 289.754419 133.976646 288.593719 
C 135.137346 287.433019 135.789512 285.858551 135.789512 284.217073 
C 135.789512 282.575595 135.137346 281.001127 133.976646 279.840427 
C 132.815946 278.679727 131.241478 278.027561 129.6 278.027561 
C 127.958522 278.027561 126.384054 278.679727 125.223354 279.840427 
C 124.062654 281.001127 123.410488 282.575595 123.410488 284.217073 
C 123.410488 285.858551 124.062654 287.433019 125.223354 288.593719 
C 126.384054 289.754419 127.958522 290.406585 129.6 290.406585 
z
" clip-path="url(#p4b6ab1ceed)" style="fill: #9aa0a6; fill-opacity: 0.3"/>
   </g>
   <g id="patch_14">
    <path d="M 138.790488 218.570732 
L 135.789512 284.217073 
L 123.410488 284.217073 
L 120.409512 218.570732 
z
" clip-path="url(#p4b6ab1ceed)" style="fill: #9aa0a6; fill-opacity: 0.3"/>
   </g>
   <g id="patch_15">
    <path d="M 129.6 289.478159 
C 130.995256 289.478159 132.333554 288.923817 133.320149 287.937222 
C 134.306744 286.950627 134.861085 285.612329 134.861085 284.217073 
C 134.861085 282.821817 134.306744 281.483519 133.320149 280.496924 
C 132.333554 279.510329 130.995256 278.955988 129.6 278.955988 
C 128.204744 278.955988 126.866446 279.510329 125.879851 280.496924 
C 124.893256 281.483519 124.338915 282.821817 124.338915 284.217073 
C 124.338915 285.612329 124.893256 286.950627 125.879851 287.937222 
C 126.866446 288.923817 128.204744 289.478159 129.6 289.478159 
z
" clip-path="url(#p4b6ab1ceed)" style="fill: #9aa0a6; fill-opacity: 0.3"/>
   </g>
   <g id="patch_16">
    <path d="M 144.604878 287.621305 
C 145.507691 287.621305 146.373648 287.262614 147.012033 286.624228 
C 147.650418 285.985843 148.00911 285.119886 148.00911 284.217073 
C 148.00911 283.31426 147.650418 282.448303 147.012033 281.809918 
C 146.373648 281.171533 145.507691 280.812841 144.604878 280.812841 
C 143.702065 280.812841 142.836108 281.171533 142.197723 281.809918 
C 141.559338 282.448303 141.200646 283.31426 141.200646 284.217073 
C 141.200646 285.119886 141.559338 285.985843 142.197723 286.624228 
C 142.836108 287.262614 143.702065 287.621305 144.604878 287.621305 
z
" clip-path="url(#p4b6ab1ceed)" style="fill: #9aa0a6; fill-opacity: 0.3"/>
   </g>
   <g id="patch_17">
    <path d="M 129.6 278.955988 
L 144.604878 280.812841 
L 144.604878 287.621305 
L 129.6 289.478159 
z
" clip-path="url(#p4b6ab1ceed)" style="fill: #9aa0a6; fill-opacity: 0.3"/>
   </g>
   <g id="line2d_2">
    <path d="M 137.102439 57.268293 
L 141.22878 79.77561 
L 140.527479 83.752887 
L 138.508163 87.250446 
L 135.41439 89.846429 
L 131.619317 91.227723 
L 127.580683 91.227723 
L 123.78561 89.846429 
L 120.691837 87.250446 
L 118.672521 83.752887 
L 117.97122 79.77561 
L 122.097561 57.268293 
L 122.550013 54.702307 
L 123.852798 52.445818 
L 125.84878 50.77099 
L 128.297215 49.879833 
L 130.902785 49.879833 
L 133.35122 50.77099 
L 135.347202 52.445818 
L 136.649987 54.702307 
L 137.102439 57.268293 
L 137.102439 57.268293 
" clip-path="url(#p4b6ab1ceed)" style="fill: none; stroke: #7d8288; stroke-opacity: 0.85; stroke-width: 1.7; stroke-linecap: round"/>
   </g>
   <g id="line2d_3">
    <path d="M 152.857561 79.77561 
L 146.85561 147.297561 
L 145.814969 153.199327 
L 142.818564 158.389253 
L 138.227805 162.241357 
L 132.596405 164.291019 
L 126.603595 164.291019 
L 120.972195 162.241357 
L 116.381436 158.389253 
L 113.385031 153.199327 
L 112.34439 147.297561 
L 106.342439 79.77561 
L 107.745042 71.821055 
L 111.783675 64.825938 
L 117.97122 59.633971 
L 125.561367 56.871383 
L 133.638633 56.871383 
L 141.22878 59.633971 
L 147.416325 64.825938 
L 151.454958 71.821055 
L 152.857561 79.77561 
L 152.857561 79.77561 
" clip-path="url(#p4b6ab1ceed)" style="fill: none; stroke: #7d8288; stroke-opacity: 0.85; stroke-width: 1.7; stroke-linecap: round"/>
   </g>
   <g id="patch_18">
    <path d="M 129.6 89.153659 
C 132.087088 89.153659 134.472645 88.165528 136.231282 86.406892 
C 137.989918 84.648255 138.978049 82.262697 138.978049 79.77561 
C 138.978049 77.288522 137.989918 74.902964 136.231282 73.144328 
C 134.472645 71.385691 132.087088 70.397561 129.6 70.397561 
C 127.112912 70.397561 124.727355 71.385691 122.968718 73.144328 
C 121.210082 74.902964 120.221951 77.288522 120.221951 79.77561 
C 120.221951 82.262697 121.210082 84.648255 122.968718 86.406892 
C 124.727355 88.165528 127.112912 89.153659 129.6 89.153659 
z
" clip-path="url(#p4b6ab1ceed)" style="fill: #9aa0a6; fill-opacity: 0.3"/>
   </g>
   <g id="patch_19">
    <path d="M 129.6 118.600732 
C 131.440445 118.600732 133.205758 117.869515 134.507149 116.568124 
C 135.80854 115.266733 136.539756 113.50142 136.539756 111.660976 
C 136.539756 109.820531 135.80854 108.055218 134.507149 106.753827 
C 133.205758 105.452436 131.440445 104.72122 129.6 104.72122 
C 127.759555 104.72122 125.994242 105.452436 124.692851 106.753827 
C 123.39146 108.055218 122.660244 109.820531 122.660244 111.660976 
C 122.660244 113.50142 123.39146 115.266733 124.692851 116.568124 
C 125.994242 117.869515 127.759555 118.600732 129.6 118.600732 
z
" clip-path="url(#p4b6ab1ceed)" style="fill: #9aa0a6; fill-opacity: 0.3"/>
   </g>
   <g id="patch_20">
    <path d="M 138.978049 79.77561 
L 136.539756 111.660976 
L 122.660244 111.660976 
L 120.221951 79.77561 
z
" clip-path="url(#p4b6ab1ceed)" style="fill: #9aa0a6; fill-opacity: 0.3"/>
   </g>
   <g id="patch_21">
    <path d="M 129.6 118.600732 
C 131.440445 118.600732 133.205758 117.869515 134.507149 116.568124 
C 135.80854 115.266733 136.539756 113.50142 136.539756 111.660976 
C 136.539756 109.820531 135.80854 108.055218 134.507149 106.753827 
C 133.205758 105.452436 131.440445 104.72122 129.6 104.72122 
C 127.759555 104.72122 125.994242 105.452436 124.692851 106.753827 
C 123.39146 108.055218 122.660244 109.820531 122.660244 111.660976 
C 122.660244 113.50142 123.39146 115.266733 124.692851 116.568124 
C 125.994242 117.869515 127.759555 118.600732 129.6 118.600732 
z
" clip-path="url(#p4b6ab1ceed)" style="fill: #9aa0a6; fill-opacity: 0.3"/>
   </g>
   <g id="patch_22">
    <path d="M 129.6 147.485122 
C 131.141994 147.485122 132.62104 146.872481 133.711395 145.782126 
C 134.801749 144.691772 135.41439 143.212726 135.41439 141.670732 
C 135.41439 140.128737 134.801749 138.649692 133.711395 137.559337 
C 132.62104 136.468982 131.141994 135.856341 129.6 135.856341 
C 128.058006 135.856341 126.57896 136.468982 125.488605 137.559337 
C 124.398251 138.649692 123.78561 140.128737 123.78561 141.670732 
C 123.78561 143.212726 124.398251 144.691772 125.488605 145.782126 
C 126.57896 146.872481 128.058006 147.485122 129.6 147.485122 
z
" clip-path="url(#p4b6ab1ceed)" style="fill: #9aa0a6; fill-opacity: 0.3"/>
   </g>
   <g id="patch_23">
    <path d="M 136.539756 111.660976 
L 135.41439 141.670732 
L 123.78561 141.670732 
L 122.660244 111.660976 
z
" clip-path="url(#p4b6ab1ceed)" style="fill: #9aa0a6; fill-opacity: 0.3"/>
   </g>
   <g id="patch_24">
    <path d="M 129.6 288.673522 
C 130.781864 288.673522 131.915481 288.203962 132.751185 287.368258 
C 133.586889 286.532554 134.056449 285.398937 134.056449 284.217073 
C 134.056449 283.035209 133.586889 281.901592 132.751185 281.065888 
C 131.915481 280.230184 130.781864 279.760624 129.6 279.760624 
C 128.418136 279.760624 127.284519 280.230184 126.448815 281.065888 
C 125.613111 281.901592 125.143551 283.035209 125.143551 284.217073 
C 125.143551 285.398937 125.613111 286.532554 126.448815 287.368258 
C 127.284519 288.203962 128.418136 288.673522 129.6 288.673522 
z
" clip-path="url(#p4b6ab1ceed)" style="fill: #9aa0a6; fill-opacity: 0.3; stroke: #7d8288; stroke-opacity: 0.85; stroke-width: 1.3; stroke-linejoin: miter"/>
   </g>
   <g id="patch_25">
    <path d="M 129.6 147.860244 
C 131.241478 147.860244 132.815946 147.208078 133.976646 146.047378 
C 135.137346 144.886678 135.789512 143.31221 135.789512 141.670732 
C 135.789512 140.029254 135.137346 138.454786 133.976646 137.294086 
C 132.815946 136.133386 131.241478 135.48122 129.6 135.48122 
C 127.958522 135.48122 126.384054 136.133386 125.223354 137.294086 
C 124.062654 138.454786 123.410488 140.029254 123.410488 141.670732 
C 123.410488 143.31221 124.062654 144.886678 125.223354 146.047378 
C 126.384054 147.208078 127.958522 147.860244 129.6 147.860244 
z
" clip-path="url(#p4b6ab1ceed)" style="fill: #9aa0a6; fill-opacity: 0.3; stroke: #7d8288; stroke-opacity: 0.85; stroke-width: 1.6; stroke-linejoin: miter"/>
   </g>
   <g id="line2d_4">
    <path d="M 143.854634 147.297561 
L 138.790488 218.570732 
L 138.236234 221.714064 
L 136.640322 224.478263 
L 134.195244 226.529928 
L 131.195911 227.621595 
L 128.004089 227.621595 
L 125.004756 226.529928 
L 122.559678 224.478263 
L 120.963766 221.714064 
L 120.409512 218.570732 
L 115.345366 147.297561 
L 116.205025 142.422189 
L 118.680317 138.134859 
L 122.472683 134.952686 
L 127.124709 133.259487 
L 132.075291 133.259487 
L 136.727317 134.952686 
L 140.519683 138.134859 
L 142.994975 142.422189 
L 143.854634 147.297561 
L 143.854634 147.297561 
" clip-path="url(#p4b6ab1ceed)" style="fill: none; stroke: #7d8288; stroke-opacity: 0.85; stroke-width: 1.7; stroke-linecap: round"/>
   </g>
   <g id="line2d_5">
    <path d="M 138.790488 218.570732 
L 135.789512 284.217073 
L 135.416239 286.334011 
L 134.341441 288.195615 
L 132.694756 289.577348 
L 130.674798 290.312553 
L 128.525202 290.312553 
L 126.505244 289.577348 
L 124.858559 288.195615 
L 123.783761 286.334011 
L 123.410488 284.217073 
L 120.409512 218.570732 
L 120.963766 215.4274 
L 122.559678 212.6632 
L 125.004756 210.611536 
L 128.004089 209.519868 
L 131.195911 209.519868 
L 134.195244 210.611536 
L 136.640322 212.6632 
L 138.236234 215.4274 
L 138.790488 218.570732 
L 138.790488 218.570732 
" clip-path="url(#p4b6ab1ceed)" style="fill: none; stroke: #7d8288; stroke-opacity: 0.85; stroke-width: 1.7; stroke-linecap: round"/>
   </g>
   <g id="line2d_6">
    <path d="M 129.6 278.955988 
L 144.604878 280.812841 
L 145.769194 281.018142 
L 146.793076 281.60928 
L 147.553029 282.514957 
L 147.957392 283.625935 
L 147.957392 284.808212 
L 147.553029 285.919189 
L 146.793076 286.824866 
L 145.769194 287.416005 
L 144.604878 287.621305 
L 129.6 289.478159 
L 127.800603 289.160876 
L 126.21824 288.247298 
L 125.043766 286.847616 
L 124.418842 285.130651 
L 124.418842 283.303495 
L 125.043766 281.58653 
L 126.21824 280.186848 
L 127.800603 279.27327 
L 129.6 278.955988 
L 129.6 278.955988 
" clip-path="url(#p4b6ab1ceed)" style="fill: none; stroke: #7d8288; stroke-opacity: 0.85; stroke-width: 1.5; stroke-linecap: round"/>
   </g>
   <g id="line2d_7">
    <path d="M 138.978049 79.77561 
L 136.539756 111.660976 
L 136.121238 114.034512 
L 134.916162 116.121765 
L 133.069878 117.670981 
L 130.805076 118.495301 
L 128.394924 118.495301 
L 126.130122 117.670981 
L 124.283838 116.121765 
L 123.078762 114.034512 
L 122.660244 111.660976 
L 120.221951 79.77561 
L 120.787517 76.568128 
L 122.415998 73.747516 
L 124.910976 71.653981 
L 127.971519 70.540035 
L 131.228481 70.540035 
L 134.289024 71.653981 
L 136.784002 73.747516 
L 138.412483 76.568128 
L 138.978049 79.77561 
L 138.978049 79.77561 
" clip-path="url(#p4b6ab1ceed)" style="fill: none; stroke: #7d8288; stroke-opacity: 0.85; stroke-width: 1.7; stroke-linecap: round"/>
   </g>
   <g id="line2d_8">
    <path d="M 136.539756 111.660976 
L 135.41439 141.670732 
L 135.06374 143.65937 
L 134.054081 145.40815 
L 132.507195 146.706141 
L 130.609658 147.396788 
L 128.590342 147.396788 
L 126.692805 146.706141 
L 125.145919 145.40815 
L 124.13626 143.65937 
L 123.78561 141.670732 
L 122.660244 111.660976 
L 123.078762 109.287439 
L 124.283838 107.200186 
L 126.130122 105.650971 
L 128.394924 104.82665 
L 130.805076 104.82665 
L 133.069878 105.650971 
L 134.916162 107.200186 
L 136.121238 109.287439 
L 136.539756 111.660976 
L 136.539756 111.660976 
" clip-path="url(#p4b6ab1ceed)" style="fill: none; stroke: #7d8288; stroke-opacity: 0.85; stroke-width: 1.7; stroke-linecap: round"/>
   </g>
   <g id="patch_26">
    <path d="M 129.6 72.273171 
C 133.57934 72.273171 137.396233 70.692162 140.210051 67.878344 
C 143.023869 65.064525 144.604878 61.247633 144.604878 57.268293 
C 144.604878 53.288953 143.023869 49.47206 140.210051 46.658242 
C 137.396233 43.844423 133.57934 42.263415 129.6 42.263415 
C 125.62066 42.263415 121.803767 43.844423 118.989949 46.658242 
C 116.176131 49.47206 114.595122 53.288953 114.595122 57.268293 
C 114.595122 61.247633 116.176131 65.064525 118.989949 67.878344 
C 121.803767 70.692162 125.62066 72.273171 129.6 72.273171 
z
" clip-path="url(#p4b6ab1ceed)" style="fill: #9aa0a6; fill-opacity: 0.3; stroke: #7d8288; stroke-opacity: 0.85; stroke-width: 1.8; stroke-linejoin: miter"/>
   </g>
   <g id="patch_27">
    <path d="M 129.6 49.765854 
C 131.58967 49.765854 133.498116 48.975349 134.905026 47.56844 
C 136.311935 46.161531 137.102439 44.253085 137.102439 42.263415 
C 137.102439 40.273745 136.311935 38.365298 134.905026 36.958389 
C 133.498116 35.55148 131.58967 34.760976 129.6 34.760976 
C 127.61033 34.760976 125.701884 35.55148 124.294974 36.958389 
C 122.888065 38.365298 122.097561 40.273745 122.097561 42.263415 
C 122.097561 44.253085 122.888065 46.161531 124.294974 47.56844 
C 125.701884 48.975349 127.61033 49.765854 129.6 49.765854 
z
" clip-path="url(#p4b6ab1ceed)" style="fill: #2c3e50"/>
   </g>
   <g id="patch_28">
    <path d="M 129.6 76.399512 
C 132.683989 76.399512 135.64208 75.174231 137.82279 72.993521 
C 140.003499 70.812812 141.22878 67.85472 141.22878 64.770732 
C 141.22878 61.686743 140.003499 58.728651 137.82279 56.547942 
C 135.64208 54.367233 132.683989 53.141951 129.6 53.141951 
C 126.516011 53.141951 123.55792 54.367233 121.37721 56.547942 
C 119.196501 58.728651 117.97122 61.686743 117.97122 64.770732 
C 117.97122 67.85472 119.196501 70.812812 121.37721 72.993521 
C 123.55792 75.174231 126.516011 76.399512 129.6 76.399512 
z
" clip-path="url(#p4b6ab1ceed)" style="fill: #2c3e50"/>
   </g>
   <g id="patch_29">
    <path d="M 137.102439 42.263415 
L 141.22878 64.770732 
L 117.97122 64.770732 
L 122.097561 42.263415 
z
" clip-path="url(#p4b6ab1ceed)" style="fill: #2c3e50"/>
   </g>
   <g id="patch_30">
    <path d="M 129.6 88.028293 
C 135.767977 88.028293 141.684161 85.577729 146.045579 81.216311 
C 150.406998 76.854892 152.857561 70.938709 152.857561 64.770732 
C 152.857561 58.602754 150.406998 52.686571 146.045579 48.325153 
C 141.684161 43.963734 135.767977 41.513171 129.6 41.513171 
C 123.432023 41.513171 117.515839 43.963734 113.154421 48.325153 
C 108.793002 52.686571 106.342439 58.602754 106.342439 64.770732 
C 106.342439 70.938709 108.793002 76.854892 113.154421 81.216311 
C 117.515839 85.577729 123.432023 88.028293 129.6 88.028293 
z
" clip-path="url(#p4b6ab1ceed)" style="fill: #2c3e50"/>
   </g>
   <g id="patch_31">
    <path d="M 129.6 149.548293 
C 134.176241 149.548293 138.565667 147.730133 141.801559 144.494242 
C 145.03745 141.25835 146.85561 136.868924 146.85561 132.292683 
C 146.85561 127.716442 145.03745 123.327015 141.801559 120.091124 
C 138.565667 116.855233 134.176241 115.037073 129.6 115.037073 
C 125.023759 115.037073 120.634333 116.855233 117.398441 120.091124 
C 114.16255 123.327015 112.34439 127.716442 112.34439 132.292683 
C 112.34439 136.868924 114.16255 141.25835 117.398441 144.494242 
C 120.634333 147.730133 125.023759 149.548293 129.6 149.548293 
z
" clip-path="url(#p4b6ab1ceed)" style="fill: #2c3e50"/>
   </g>
   <g id="patch_32">
    <path d="M 152.857561 64.770732 
L 146.85561 132.292683 
L 112.34439 132.292683 
L 106.342439 64.770732 
z
" clip-path="url(#p4b6ab1ceed)" style="fill: #2c3e50"/>
   </g>
   <g id="patch_33">
    <path d="M 129.6 146.547317 
C 133.380373 146.547317 137.006421 145.045359 139.679548 142.372231 
C 142.352676 139.699104 143.854634 136.073056 143.854634 132.292683 
C 143.854634 128.51231 142.352676 124.886262 139.679548 122.213134 
C 137.006421 119.540007 133.380373 118.038049 129.6 118.038049 
C 125.819627 118.038049 122.193579 119.540007 119.520452 122.213134 
C 116.847324 124.886262 115.345366 128.51231 115.345366 132.292683 
C 115.345366 136.073056 116.847324 139.699104 119.520452 142.372231 
C 122.193579 145.045359 125.819627 146.547317 129.6 146.547317 
z
" clip-path="url(#p4b6ab1ceed)" style="fill: #3c3f42"/>
   </g>
   <g id="patch_34">
    <path d="M 129.6 212.756341 
C 132.037346 212.756341 134.375192 211.787974 136.098656 210.06451 
C 137.82212 208.341046 138.790488 206.0032 138.790488 203.565854 
C 138.790488 201.128508 137.82212 198.790661 136.098656 197.067197 
C 134.375192 195.343734 132.037346 194.375366 129.6 194.375366 
C 127.162654 194.375366 124.824808 195.343734 123.101344 197.067197 
C 121.37788 198.790661 120.409512 201.128508 120.409512 203.565854 
C 120.409512 206.0032 121.37788 208.341046 123.101344 210.06451 
C 124.824808 211.787974 127.162654 212.756341 129.6 212.756341 
z
" clip-path="url(#p4b6ab1ceed)" style="fill: #3c3f42"/>
   </g>
   <g id="patch_35">
    <path d="M 143.854634 132.292683 
L 138.790488 203.565854 
L 120.409512 203.565854 
L 115.345366 132.292683 
z
" clip-path="url(#p4b6ab1ceed)" style="fill: #3c3f42"/>
   </g>
   <g id="patch_36">
    <path d="M 129.6 212.756341 
C 132.037346 212.756341 134.375192 211.787974 136.098656 210.06451 
C 137.82212 208.341046 138.790488 206.0032 138.790488 203.565854 
C 138.790488 201.128508 137.82212 198.790661 136.098656 197.067197 
C 134.375192 195.343734 132.037346 194.375366 129.6 194.375366 
C 127.162654 194.375366 124.824808 195.343734 123.101344 197.067197 
C 121.37788 198.790661 120.409512 201.128508 120.409512 203.565854 
C 120.409512 206.0032 121.37788 208.341046 123.101344 210.06451 
C 124.824808 211.787974 127.162654 212.756341 129.6 212.756341 
z
" clip-path="url(#p4b6ab1ceed)" style="fill: #3c3f42"/>
   </g>
   <g id="patch_37">
    <path d="M 129.6 275.401707 
C 131.241478 275.401707 132.815946 274.749541 133.976646 273.588841 
C 135.137346 272.428141 135.789512 270.853673 135.789512 269.212195 
C 135.789512 267.570717 135.137346 265.996249 133.976646 264.835549 
C 132.815946 263.674849 131.241478 263.022683 129.6 263.022683 
C 127.958522 263.022683 126.384054 263.674849 125.223354 264.835549 
C 124.062654 265.996249 123.410488 267.570717 123.410488 269.212195 
C 123.410488 270.853673 124.062654 272.428141 125.223354 273.588841 
C 126.384054 274.749541 127.958522 275.401707 129.6 275.401707 
z
" clip-path="url(#p4b6ab1ceed)" style="fill: #3c3f42"/>
   </g>
   <g id="patch_38">
    <path d="M 138.790488 203.565854 
L 135.789512 269.212195 
L 123.410488 269.212195 
L 120.409512 203.565854 
z
" clip-path="url(#p4b6ab1ceed)" style="fill: #3c3f42"/>
   </g>
   <g id="patch_39">
    <path d="M 129.6 274.47328 
C 130.995256 274.47328 132.333554 273.918939 133.320149 272.932344 
C 134.306744 271.945749 134.861085 270.607451 134.861085 269.212195 
C 134.861085 267.816939 134.306744 266.478641 133.320149 265.492046 
C 132.333554 264.505451 130.995256 263.95111 129.6 263.95111 
C 128.204744 263.95111 126.866446 264.505451 125.879851 265.492046 
C 124.893256 266.478641 124.338915 267.816939 124.338915 269.212195 
C 124.338915 270.607451 124.893256 271.945749 125.879851 272.932344 
C 126.866446 273.918939 128.204744 274.47328 129.6 274.47328 
z
" clip-path="url(#p4b6ab1ceed)" style="fill: #1b1b1b"/>
   </g>
   <g id="patch_40">
    <path d="M 144.604878 287.621305 
C 145.507691 287.621305 146.373648 287.262614 147.012033 286.624228 
C 147.650418 285.985843 148.00911 285.119886 148.00911 284.217073 
C 148.00911 283.31426 147.650418 282.448303 147.012033 281.809918 
C 146.373648 281.171533 145.507691 280.812841 144.604878 280.812841 
C 143.702065 280.812841 142.836108 281.171533 142.197723 281.809918 
C 141.559338 282.448303 141.200646 283.31426 141.200646 284.217073 
C 141.200646 285.119886 141.559338 285.985843 142.197723 286.624228 
C 142.836108 287.262614 143.702065 287.621305 144.604878 287.621305 
z
" clip-path="url(#p4b6ab1ceed)" style="fill: #1b1b1b"/>
   </g>
   <g id="patch_41">
    <path d="M 133.320149 265.492046 
L 147.012033 281.809918 
L 142.197723 286.624228 
L 125.879851 272.932344 
z
" clip-path="url(#p4b6ab1ceed)" style="fill: #1b1b1b"/>
   </g>
   <g id="line2d_9">
    <path d="M 137.102439 42.263415 
L 141.22878 64.770732 
L 140.527479 68.748009 
L 138.508163 72.245568 
L 135.41439 74.841551 
L 131.619317 76.222845 
L 127.580683 76.222845 
L 123.78561 74.841551 
L 120.691837 72.245568 
L 118.672521 68.748009 
L 117.97122 64.770732 
L 122.097561 42.263415 
L 122.550013 39.697429 
L 123.852798 37.44094 
L 125.84878 35.766112 
L 128.297215 34.874955 
L 130.902785 34.874955 
L 133.35122 35.766112 
L 135.347202 37.44094 
L 136.649987 39.697429 
L 137.102439 42.263415 
L 137.102439 42.263415 
" clip-path="url(#p4b6ab1ceed)" style="fill: none; stroke: #1d2a36; stroke-width: 1.7; stroke-linecap: round"/>
   </g>
   <g id="line2d_10">
    <path d="M 152.857561 64.770732 
L 146.85561 132.292683 
L 145.814969 138.194449 
L 142.818564 143.384375 
L 138.227805 147.236479 
L 132.596405 149.286141 
L 126.603595 149.286141 
L 120.972195 147.236479 
L 116.381436 143.384375 
L 113.385031 138.194449 
L 112.34439 132.292683 
L 106.342439 64.770732 
L 107.745042 56.816177 
L 111.783675 49.82106 
L 117.97122 44.629093 
L 125.561367 41.866505 
L 133.638633 41.866505 
L 141.22878 44.629093 
L 147.416325 49.82106 
L 151.454958 56.816177 
L 152.857561 64.770732 
L 152.857561 64.770732 
" clip-path="url(#p4b6ab1ceed)" style="fill: none; stroke: #1d2a36; stroke-width: 1.7; stroke-linecap: round"/>
   </g>
   <g id="patch_42">
    <path d="M 129.6 74.14878 
C 132.087088 74.14878 134.472645 73.16065 136.231282 71.402014 
C 137.989918 69.643377 138.978049 67.257819 138.978049 64.770732 
C 138.978049 62.283644 137.989918 59.898086 136.231282 58.13945 
C 134.472645 56.380813 132.087088 55.392683 129.6 55.392683 
C 127.112912 55.392683 124.727355 56.380813 122.968718 58.13945 
C 121.210082 59.898086 120.221951 62.283644 120.221951 64.770732 
C 120.221951 67.257819 121.210082 69.643377 122.968718 71.402014 
C 124.727355 73.16065 127.112912 74.14878 129.6 74.14878 
z
" clip-path="url(#p4b6ab1ceed)" style="fill: #2c3e50"/>
   </g>
   <g id="patch_43">
    <path d="M 129.6 103.595854 
C 131.440445 103.595854 133.205758 102.864637 134.507149 101.563246 
C 135.80854 100.261855 136.539756 98.496542 136.539756 96.656098 
C 136.539756 94.815653 135.80854 93.05034 134.507149 91.748949 
C 133.205758 90.447558 131.440445 89.716341 129.6 89.716341 
C 127.759555 89.716341 125.994242 90.447558 124.692851 91.748949 
C 123.39146 93.05034 122.660244 94.815653 122.660244 96.656098 
C 122.660244 98.496542 123.39146 100.261855 124.692851 101.563246 
C 125.994242 102.864637 127.759555 103.595854 129.6 103.595854 
z
" clip-path="url(#p4b6ab1ceed)" style="fill: #2c3e50"/>
   </g>
   <g id="patch_44">
    <path d="M 138.978049 64.770732 
L 136.539756 96.656098 
L 122.660244 96.656098 
L 120.221951 64.770732 
z
" clip-path="url(#p4b6ab1ceed)" style="fill: #2c3e50"/>
   </g>
   <g id="patch_45">
    <path d="M 129.6 103.595854 
C 131.440445 103.595854 133.205758 102.864637 134.507149 101.563246 
C 135.80854 100.261855 136.539756 98.496542 136.539756 96.656098 
C 136.539756 94.815653 135.80854 93.05034 134.507149 91.748949 
C 133.205758 90.447558 131.440445 89.716341 129.6 89.716341 
C 127.759555 89.716341 125.994242 90.447558 124.692851 91.748949 
C 123.39146 93.05034 122.660244 94.815653 122.660244 96.656098 
C 122.660244 98.496542 123.39146 100.261855 124.692851 101.563246 
C 125.994242 102.864637 127.759555 103.595854 129.6 103.595854 
z
" clip-path="url(#p4b6ab1ceed)" style="fill: #2c3e50"/>
   </g>
   <g id="patch_46">
    <path d="M 129.6 132.480244 
C 131.141994 132.480244 132.62104 131.867603 133.711395 130.777248 
C 134.801749 129.686894 135.41439 128.207848 135.41439 126.665854 
C 135.41439 125.123859 134.801749 123.644814 133.711395 122.554459 
C 132.62104 121.464104 131.141994 120.851463 129.6 120.851463 
C 128.058006 120.851463 126.57896 121.464104 125.488605 122.554459 
C 124.398251 123.644814 123.78561 125.123859 123.78561 126.665854 
C 123.78561 128.207848 124.398251 129.686894 125.488605 130.777248 
C 126.57896 131.867603 128.058006 132.480244 129.6 132.480244 
z
" clip-path="url(#p4b6ab1ceed)" style="fill: #2c3e50"/>
   </g>
   <g id="patch_47">
    <path d="M 136.539756 96.656098 
L 135.41439 126.665854 
L 123.78561 126.665854 
L 122.660244 96.656098 
z
" clip-path="url(#p4b6ab1ceed)" style="fill: #2c3e50"/>
   </g>
   <g id="patch_48">
    <path d="M 129.6 273.668644 
C 130.781864 273.668644 131.915481 273.199084 132.751185 272.36338 
C 133.586889 271.527676 134.056449 270.394059 134.056449 269.212195 
C 134.056449 268.030331 133.586889 266.896714 132.751185 266.06101 
C 131.915481 265.225306 130.781864 264.755746 129.6 264.755746 
C 128.418136 264.755746 127.284519 265.225306 126.448815 266.06101 
C 125.613111 266.896714 125.143551 268.030331 125.143551 269.212195 
C 125.143551 270.394059 125.613111 271.527676 126.448815 272.36338 
C 127.284519 273.199084 128.418136 273.668644 129.6 273.668644 
z
" clip-path="url(#p4b6ab1ceed)" style="fill: #1b1b1b; stroke: #121212; stroke-width: 1.3; stroke-linejoin: miter"/>
   </g>
   <g id="patch_49">
    <path d="M 129.6 132.855366 
C 131.241478 132.855366 132.815946 132.2032 133.976646 131.0425 
C 135.137346 129.8818 135.789512 128.307331 135.789512 126.665854 
C 135.789512 125.024376 135.137346 123.449908 133.976646 122.289208 
C 132.815946 121.128508 131.241478 120.476341 129.6 120.476341 
C 127.958522 120.476341 126.384054 121.128508 125.223354 122.289208 
C 124.062654 123.449908 123.410488 125.024376 123.410488 126.665854 
C 123.410488 128.307331 124.062654 129.8818 125.223354 131.0425 
C 126.384054 132.2032 127.958522 132.855366 129.6 132.855366 
z
" clip-path="url(#p4b6ab1ceed)" style="fill: #f2e0c9; stroke: #a49888; stroke-width: 1.6; stroke-linejoin: miter"/>
   </g>
   <g id="line2d_11">
    <path d="M 143.854634 132.292683 
L 138.790488 203.565854 
L 138.236234 206.709186 
L 136.640322 209.473385 
L 134.195244 211.52505 
L 131.195911 212.616717 
L 128.004089 212.616717 
L 125.004756 211.52505 
L 122.559678 209.473385 
L 120.963766 206.709186 
L 120.409512 203.565854 
L 115.345366 132.292683 
L 116.205025 127.417311 
L 118.680317 123.129981 
L 122.472683 119.947808 
L 127.124709 118.254609 
L 132.075291 118.254609 
L 136.727317 119.947808 
L 140.519683 123.129981 
L 142.994975 127.417311 
L 143.854634 132.292683 
L 143.854634 132.292683 
" clip-path="url(#p4b6ab1ceed)" style="fill: none; stroke: #282a2c; stroke-width: 1.7; stroke-linecap: round"/>
   </g>
   <g id="line2d_12">
    <path d="M 138.790488 203.565854 
L 135.789512 269.212195 
L 135.416239 271.329133 
L 134.341441 273.190737 
L 132.694756 274.57247 
L 130.674798 275.307675 
L 128.525202 275.307675 
L 126.505244 274.57247 
L 124.858559 273.190737 
L 123.783761 271.329133 
L 123.410488 269.212195 
L 120.409512 203.565854 
L 120.963766 200.422522 
L 122.559678 197.658322 
L 125.004756 195.606658 
L 128.004089 194.51499 
L 131.195911 194.51499 
L 134.195244 195.606658 
L 136.640322 197.658322 
L 138.236234 200.422522 
L 138.790488 203.565854 
L 138.790488 203.565854 
" clip-path="url(#p4b6ab1ceed)" style="fill: none; stroke: #282a2c; stroke-width: 1.7; stroke-linecap: round"/>
   </g>
   <g id="line2d_13">
    <path d="M 133.320149 265.492046 
L 147.012033 281.809918 
L 147.69016 282.778383 
L 147.996156 283.920375 
L 147.893113 285.098153 
L 147.393461 286.16966 
L 146.557465 287.005657 
L 145.485958 287.505308 
L 144.30818 287.608351 
L 143.166188 287.302355 
L 142.197723 286.624228 
L 125.879851 272.932344 
L 124.831837 271.435626 
L 124.358935 269.670729 
L 124.518182 267.850526 
L 125.290371 266.194561 
L 126.582365 264.902566 
L 128.238331 264.130377 
L 130.058534 263.97113 
L 131.823431 264.444032 
L 133.320149 265.492046 
L 133.320149 265.492046 
" clip-path="url(#p4b6ab1ceed)" style="fill: none; stroke: #121212; stroke-width: 1.5; stroke-linecap: round"/>
   </g>
   <g id="line2d_14">
    <path d="M 138.978049 64.770732 
L 136.539756 96.656098 
L 136.121238 99.029634 
L 134.916162 101.116887 
L 133.069878 102.666103 
L 130.805076 103.490423 
L 128.394924 103.490423 
L 126.130122 102.666103 
L 124.283838 101.116887 
L 123.078762 99.029634 
L 122.660244 96.656098 
L 120.221951 64.770732 
L 120.787517 61.56325 
L 122.415998 58.742638 
L 124.910976 56.649103 
L 127.971519 55.535157 
L 131.228481 55.535157 
L 134.289024 56.649103 
L 136.784002 58.742638 
L 138.412483 61.56325 
L 138.978049 64.770732 
L 138.978049 64.770732 
" clip-path="url(#p4b6ab1ceed)" style="fill: none; stroke: #1d2a36; stroke-width: 1.7; stroke-linecap: round"/>
   </g>
   <g id="line2d_15">
    <path d="M 136.539756 96.656098 
L 135.41439 126.665854 
L 135.06374 128.654492 
L 134.054081 130.403272 
L 132.507195 131.701263 
L 130.609658 132.39191 
L 128.590342 132.39191 
L 126.692805 131.701263 
L 125.145919 130.403272 
L 124.13626 128.654492 
L 123.78561 126.665854 
L 122.660244 96.656098 
L 123.078762 94.282561 
L 124.283838 92.195308 
L 126.130122 90.646092 
L 128.394924 89.821772 
L 130.805076 89.821772 
L 133.069878 90.646092 
L 134.916162 92.195308 
L 136.121238 94.282561 
L 136.539756 96.656098 
L 136.539756 96.656098 
" clip-path="url(#p4b6ab1ceed)" style="fill: none; stroke: #1d2a36; stroke-width: 1.7; stroke-linecap: round"/>
   </g>
   <g id="patch_50">
    <path d="M 129.6 57.268293 
C 133.57934 57.268293 137.396233 55.687284 140.210051 52.873466 
C 143.023869 50.059647 144.604878 46.242755 144.604878 42.263415 
C 144.604878 38.284074 143.023869 34.467182 140.210051 31.653364 
C 137.396233 28.839545 133.57934 27.258537 129.6 27.258537 
C 125.62066 27.258537 121.803767 28.839545 118.989949 31.653364 
C 116.176131 34.467182 114.595122 38.284074 114.595122 42.263415 
C 114.595122 46.242755 116.176131 50.059647 118.989949 52.873466 
C 121.803767 55.687284 125.62066 57.268293 129.6 57.268293 
z
" clip-path="url(#p4b6ab1ceed)" style="fill: #f2e0c9; stroke: #a49888; stroke-width: 1.8; stroke-linejoin: miter"/>
   </g>
   <g id="patch_51">
    <path d="M 107.092683 242.831854 
Q 107.092683 233.577111 107.092683 226.782043 
" clip-path="url(#p4b6ab1ceed)" style="fill: none; stroke-dasharray: 2.2,0; stroke-dashoffset: 0; stroke: #c0392b; stroke-width: 2.2; stroke-linecap: round"/>
    <path d="M 104.292683 232.382043 
L 107.092683 226.782043 
L 109.892683 232.382043 
z
" clip-path="url(#p4b6ab1ceed)" style="fill: #c0392b; stroke-dasharray: 2.2,0; stroke-dashoffset: 0; stroke: #c0392b; stroke-width: 2.2; stroke-linecap: round"/>
   </g>
  </g>
 </g>
 <defs>
  <clipPath id="p4b6ab1ceed">
   <rect x="5.809756" y="1" width="247.580488" height="307.6"/>
  </clipPath>
 </defs>
</svg>
