<?xml version="1.0" encoding="utf-8" standalone="no"?>
<!DOCTYPE svg PUBLIC "-//W3C//DTD SVG 1.1//EN"
  "http://www.w3.org/Graphics/SVG/1.1/DTD/svg11.dtd">
<svg xmlns:xlink="http://www.w3.org/1999/xlink" width="259.2pt" height="309.6pt" viewBox="0 0 259.2 309.6" xmlns="http://www.w3.org/2000/svg" version="1.1">
 <metadata>
  <rdf:RDF xmlns:dc="http://purl.org/dc/elements/1.1/" xmlns:cc="http://creativecommons.org/ns#" xmlns:rdf="http://www.w3.org/1999/02/22-rdf-syntax-ns#">
   <cc:Work>
    <dc:type rdf:resource="http://purl.org/dc/dcmitype/StillImage"/>
    <dc:date>2026-07-10T23:04:58.608584</dc:date>
    <dc:format>image/svg+xml</dc:format>
    <dc:creator>
     <cc:Agent>
      <dc:title>Matplotlib v3.10.8, https://matplotlib.org/</dc:title>
     </cc:Agent>
    </dc:creator>
   </cc:Work>
  </rdf:RDF>
 </metadata>
 <defs>
  <style type="text/css">*{stroke-linejoin: round; stroke-linecap: butt}</style>
 </defs>
 <g id="figure_1">
  <g id="patch_1">
   <path d="M 0 309.6 
L 259.2 309.6 
L 259.2 0 
L 0 0 
L 0 309.6 
z
" style="fill: none"/>
  </g>
  <g id="axes_1">
   <g id="line2d_1">
    <path d="M 17.063415 299.221951 
L 242.136585 299.221951 
" clip-path="url(#p12a1e6945b)" style="fill: none; stroke: #c3c3c3; stroke-width: 3; stroke-linecap: round"/>
   </g>
   <g id="patch_2">
    <path d="M 58.326829 286.092683 
L 185.868293 286.092683 
L 185.868293 277.84 
L 58.326829 277.84 
z
" clip-path="url(#p12a1e6945b)" style="fill: #9aa5b1; stroke: #9aa5b1; stroke-linejoin: miter"/>
   </g>
   <g id="patch_3">
    <path d="M 88.336585 298.471707 
C 93.808178 298.471707 99.056405 296.29782 102.925406 292.42882 
C 106.794406 288.55982 108.968293 283.311593 108.968293 277.84 
C 108.968293 272.368407 106.794406 267.12018 102.925406 263.25118 
C 99.056405 259.38218 93.808178 257.208293 88.336585 257.208293 
C 82.864993 257.208293 77.616766 259.38218 73.747765 263.25118 
C 69.878765 267.12018 67.704878 272.368407 67.704878 277.84 
C 67.704878 283.311593 69.878765 288.55982 73.747765 292.42882 
C 77.616766 296.29782 82.864993 298.471707 88.336585 298.471707 
L 88.336585 298.471707 
z
" clip-path="url(#p12a1e6945b)" style="fill: none; stroke: #9aa5b1; stroke-width: 3.5; stroke-linejoin: miter"/>
   </g>
   <g id="patch_4">
    <path d="M 163.360976 298.471707 
C 168.832568 298.471707 174.080795 296.29782 177.949796 292.42882 
C 181.818796 288.55982 183.992683 283.311593 183.992683 277.84 
C 183.992683 272.368407 181.818796 267.12018 177.949796 263.25118 
C 174.080795 259.38218 168.832568 257.208293 163.360976 257.208293 
C 157.889383 257.208293 152.641156 259.38218 148.772155 263.25118 
C 144.903155 267.12018 142.729268 272.368407 142.729268 277.84 
C 142.729268 283.311593 144.903155 288.55982 148.772155 292.42882 
C 152.641156 296.29782 157.889383 298.471707 163.360976 298.471707 
L 163.360976 298.471707 
z
" clip-path="url(#p12a1e6945b)" style="fill: none; stroke: #9aa5b1; stroke-width: 3.5; stroke-linejoin: miter"/>
   </g>
   <g id="patch_5">
    <path d="M 120.221951 107.909756 
C 122.211621 107.909756 124.120068 107.119252 125.526977 105.712343 
C 126.933886 104.305433 127.72439 102.396987 127.72439 100.407317 
C 127.72439 98.417647 126.933886 96.509201 125.526977 95.102292 
C 124.120068 93.695382 122.211621 92.904878 120.221951 92.904878 
C 118.232281 92.904878 116.323835 93.695382 114.916926 95.102292 
C 113.510016 96.509201 112.719512 98.417647 112.719512 100.407317 
C 112.719512 102.396987 113.510016 104.305433 114.916926 105.712343 
C 116.323835 107.119252 118.232281 107.909756 120.221951 107.909756 
z
" clip-path="url(#p12a1e6945b)" style="fill: #2c3e50"/>
   </g>
   <g id="patch_6">
    <path d="M 120.221951 134.543415 
C 123.30594 134.543415 126.264031 133.318133 128.444741 131.137424 
C 130.62545 128.956714 131.850732 125.998623 131.850732 122.914634 
C 131.850732 119.830646 130.62545 116.872554 128.444741 114.691845 
C 126.264031 112.511135 123.30594 111.285854 120.221951 111.285854 
C 117.137963 111.285854 114.179871 112.511135 111.999162 114.691845 
C 109.818452 116.872554 108.593171 119.830646 108.593171 122.914634 
C 108.593171 125.998623 109.818452 128.956714 111.999162 131.137424 
C 114.179871 133.318133 117.137963 134.543415 120.221951 134.543415 
z
" clip-path="url(#p12a1e6945b)" style="fill: #2c3e50"/>
   </g>
   <g id="patch_7">
    <path d="M 127.72439 100.407317 
L 131.850732 122.914634 
L 108.593171 122.914634 
L 112.719512 100.407317 
z
" clip-path="url(#p12a1e6945b)" style="fill: #2c3e50"/>
   </g>
   <g id="patch_8">
    <path d="M 120.221951 146.172195 
C 126.389928 146.172195 132.306112 143.721632 136.66753 139.360213 
C 141.028949 134.998795 143.479512 129.082611 143.479512 122.914634 
C 143.479512 116.746657 141.028949 110.830474 136.66753 106.469055 
C 132.306112 102.107637 126.389928 99.657073 120.221951 99.657073 
C 114.053974 99.657073 108.137791 102.107637 103.776372 106.469055 
C 99.414954 110.830474 96.96439 116.746657 96.96439 122.914634 
C 96.96439 129.082611 99.414954 134.998795 103.776372 139.360213 
C 108.137791 143.721632 114.053974 146.172195 120.221951 146.172195 
z
" clip-path="url(#p12a1e6945b)" style="fill: #2c3e50"/>
   </g>
   <g id="patch_9">
    <path d="M 116.470732 188.936098 
C 121.046973 188.936098 125.436399 187.117938 128.67229 183.882046 
C 131.908182 180.646155 133.726341 176.256729 133.726341 171.680488 
C 133.726341 167.104247 131.908182 162.71482 128.67229 159.478929 
C 125.436399 156.243038 121.046973 154.424878 116.470732 154.424878 
C 111.894491 154.424878 107.505064 156.243038 104.269173 159.478929 
C 101.033282 162.71482 99.215122 167.104247 99.215122 171.680488 
C 99.215122 176.256729 101.033282 180.646155 104.269173 183.882046 
C 107.505064 187.117938 111.894491 188.936098 116.470732 188.936098 
z
" clip-path="url(#p12a1e6945b)" style="fill: #2c3e50"/>
   </g>
   <g id="patch_10">
    <path d="M 143.411007 124.698408 
L 133.675515 173.003933 
L 99.265949 170.357043 
L 97.032896 121.130861 
z
" clip-path="url(#p12a1e6945b)" style="fill: #2c3e50"/>
   </g>
   <g id="patch_11">
    <path d="M 116.470732 185.935122 
C 120.251105 185.935122 123.877153 184.433164 126.55028 181.760036 
C 129.223408 179.086909 130.725366 175.460861 130.725366 171.680488 
C 130.725366 167.900115 129.223408 164.274067 126.55028 161.600939 
C 123.877153 158.927812 120.251105 157.425854 116.470732 157.425854 
C 112.690359 157.425854 109.064311 158.927812 106.391183 161.600939 
C 103.718056 164.274067 102.216098 167.900115 102.216098 171.680488 
C 102.216098 175.460861 103.718056 179.086909 106.391183 181.760036 
C 109.064311 184.433164 112.690359 185.935122 116.470732 185.935122 
z
" clip-path="url(#p12a1e6945b)" style="fill: #3c3f42"/>
   </g>
   <g id="patch_12">
    <path d="M 142.729268 227.76122 
C 145.166614 227.76122 147.504461 226.792852 149.227925 225.069388 
C 150.951388 223.345924 151.919756 221.008078 151.919756 218.570732 
C 151.919756 216.133386 150.951388 213.795539 149.227925 212.072075 
C 147.504461 210.348612 145.166614 209.380244 142.729268 209.380244 
C 140.291922 209.380244 137.954076 210.348612 136.230612 212.072075 
C 134.507148 213.795539 133.53878 216.133386 133.53878 218.570732 
C 133.53878 221.008078 134.507148 223.345924 136.230612 225.069388 
C 137.954076 226.792852 140.291922 227.76122 142.729268 227.76122 
z
" clip-path="url(#p12a1e6945b)" style="fill: #3c3f42"/>
   </g>
   <g id="patch_13">
    <path d="M 128.907986 164.715626 
L 150.748024 214.080228 
L 134.710512 223.061235 
L 104.033478 178.64535 
z
" clip-path="url(#p12a1e6945b)" style="fill: #3c3f42"/>
   </g>
   <g id="patch_14">
    <path d="M 142.729268 227.76122 
C 145.166614 227.76122 147.504461 226.792852 149.227925 225.069388 
C 150.951388 223.345924 151.919756 221.008078 151.919756 218.570732 
C 151.919756 216.133386 150.951388 213.795539 149.227925 212.072075 
C 147.504461 210.348612 145.166614 209.380244 142.729268 209.380244 
C 140.291922 209.380244 137.954076 210.348612 136.230612 212.072075 
C 134.507148 213.795539 133.53878 216.133386 133.53878 218.570732 
C 133.53878 221.008078 134.507148 223.345924 136.230612 225.069388 
C 137.954076 226.792852 140.291922 227.76122 142.729268 227.76122 
z
" clip-path="url(#p12a1e6945b)" style="fill: #3c3f42"/>
   </g>
   <g id="patch_15">
    <path d="M 123.973171 269.774878 
C 125.614649 269.774878 127.189117 269.122712 128.349817 267.962012 
C 129.510517 266.801312 130.162683 265.226844 130.162683 263.585366 
C 130.162683 261.943888 129.510517 260.36942 128.349817 259.20872 
C 127.189117 258.04802 125.614649 257.395854 123.973171 257.395854 
C 122.331693 257.395854 120.757225 258.04802 119.596525 259.20872 
C 118.435825 260.36942 117.783659 261.943888 117.783659 263.585366 
C 117.783659 265.226844 118.435825 266.801312 119.596525 267.962012 
C 120.757225 269.122712 122.331693 269.774878 123.973171 269.774878 
z
" clip-path="url(#p12a1e6945b)" style="fill: #3c3f42"/>
   </g>
   <g id="patch_16">
    <path d="M 151.212795 222.105535 
L 129.686567 265.965947 
L 118.259775 261.204784 
L 134.245741 215.035929 
z
" clip-path="url(#p12a1e6945b)" style="fill: #3c3f42"/>
   </g>
   <g id="patch_17">
    <path d="M 123.973171 268.846451 
C 125.368427 268.846451 126.706725 268.29211 127.69332 267.305515 
C 128.679915 266.31892 129.234256 264.980622 129.234256 263.585366 
C 129.234256 262.19011 128.679915 260.851812 127.69332 259.865217 
C 126.706725 258.878622 125.368427 258.32428 123.973171 258.32428 
C 122.577915 258.32428 121.239617 258.878622 120.253022 259.865217 
C 119.266427 260.851812 118.712085 262.19011 118.712085 263.585366 
C 118.712085 264.980622 119.266427 266.31892 120.253022 267.305515 
C 121.239617 268.29211 122.577915 268.846451 123.973171 268.846451 
z
" clip-path="url(#p12a1e6945b)" style="fill: #1b1b1b"/>
   </g>
   <g id="patch_18">
    <path d="M 138.978049 266.989598 
C 139.880862 266.989598 140.746819 266.630906 141.385204 265.992521 
C 142.023589 265.354136 142.38228 264.488179 142.38228 263.585366 
C 142.38228 262.682553 142.023589 261.816596 141.385204 261.178211 
C 140.746819 260.539825 139.880862 260.181134 138.978049 260.181134 
C 138.075236 260.181134 137.209279 260.539825 136.570893 261.178211 
C 135.932508 261.816596 135.573817 262.682553 135.573817 263.585366 
C 135.573817 264.488179 135.932508 265.354136 136.570893 265.992521 
C 137.209279 266.630906 138.075236 266.989598 138.978049 266.989598 
z
" clip-path="url(#p12a1e6945b)" style="fill: #1b1b1b"/>
   </g>
   <g id="patch_19">
    <path d="M 123.973171 258.32428 
L 138.978049 260.181134 
L 138.978049 266.989598 
L 123.973171 268.846451 
z
" clip-path="url(#p12a1e6945b)" style="fill: #1b1b1b"/>
   </g>
   <g id="line2d_2">
    <path d="M 127.72439 100.407317 
L 131.850732 122.914634 
L 131.14943 126.891911 
L 129.130114 130.38947 
L 126.036341 132.985453 
L 122.241268 134.366747 
L 118.202635 134.366747 
L 114.407561 132.985453 
L 111.313789 130.38947 
L 109.294472 126.891911 
L 108.593171 122.914634 
L 112.719512 100.407317 
L 113.171965 97.841332 
L 114.474749 95.584842 
L 116.470732 93.910014 
L 118.919166 93.018857 
L 121.524736 93.018857 
L 123.973171 93.910014 
L 125.969153 95.584842 
L 127.271938 97.841332 
L 127.72439 100.407317 
L 127.72439 100.407317 
" clip-path="url(#p12a1e6945b)" style="fill: none; stroke: #1d2a36; stroke-width: 1.7; stroke-linecap: round"/>
   </g>
   <g id="line2d_3">
    <path d="M 143.411007 124.698408 
L 133.675515 173.003933 
L 132.185295 178.808502 
L 128.799666 183.753327 
L 123.926986 187.241989 
L 118.154972 188.853705 
L 112.179814 188.394078 
L 106.722203 185.918545 
L 102.440409 181.725692 
L 99.850879 176.321239 
L 99.265949 170.357043 
L 97.032896 121.130861 
L 99.041453 113.307311 
L 103.604692 106.642547 
L 110.172217 101.940436 
L 117.951888 99.768123 
L 126.005362 100.387622 
L 133.361272 103.72421 
L 139.132386 109.375446 
L 142.622622 116.659709 
L 143.411007 124.698408 
L 143.411007 124.698408 
" clip-path="url(#p12a1e6945b)" style="fill: none; stroke: #1d2a36; stroke-width: 1.7; stroke-linecap: round"/>
   </g>
   <g id="patch_20">
    <path d="M 120.221951 132.292683 
C 122.709039 132.292683 125.094597 131.304553 126.853233 129.545916 
C 128.61187 127.78728 129.6 125.401722 129.6 122.914634 
C 129.6 120.427547 128.61187 118.041989 126.853233 116.283352 
C 125.094597 114.524716 122.709039 113.536585 120.221951 113.536585 
C 117.734864 113.536585 115.349306 114.524716 113.590669 116.283352 
C 111.832033 118.041989 110.843902 120.427547 110.843902 122.914634 
C 110.843902 125.401722 111.832033 127.78728 113.590669 129.545916 
C 115.349306 131.304553 117.734864 132.292683 120.221951 132.292683 
z
" clip-path="url(#p12a1e6945b)" style="fill: #2c3e50"/>
   </g>
   <g id="patch_21">
    <path d="M 135.226829 156.112927 
C 137.067274 156.112927 138.832587 155.38171 140.133978 154.080319 
C 141.435369 152.778928 142.166585 151.013616 142.166585 149.173171 
C 142.166585 147.332726 141.435369 145.567413 140.133978 144.266022 
C 138.832587 142.964631 137.067274 142.233415 135.226829 142.233415 
C 133.386384 142.233415 131.621072 142.964631 130.319681 144.266022 
C 129.01829 145.567413 128.287073 147.332726 128.287073 149.173171 
C 128.287073 151.013616 129.01829 152.778928 130.319681 154.080319 
C 131.621072 155.38171 133.386384 156.112927 135.226829 156.112927 
z
" clip-path="url(#p12a1e6945b)" style="fill: #2c3e50"/>
   </g>
   <g id="patch_22">
    <path d="M 128.364378 118.261819 
L 141.252225 145.730088 
L 129.201434 152.616254 
L 112.079525 127.567449 
z
" clip-path="url(#p12a1e6945b)" style="fill: #2c3e50"/>
   </g>
   <g id="patch_23">
    <path d="M 135.226829 156.112927 
C 137.067274 156.112927 138.832587 155.38171 140.133978 154.080319 
C 141.435369 152.778928 142.166585 151.013616 142.166585 149.173171 
C 142.166585 147.332726 141.435369 145.567413 140.133978 144.266022 
C 138.832587 142.964631 137.067274 142.233415 135.226829 142.233415 
C 133.386384 142.233415 131.621072 142.964631 130.319681 144.266022 
C 129.01829 145.567413 128.287073 147.332726 128.287073 149.173171 
C 128.287073 151.013616 129.01829 152.778928 130.319681 154.080319 
C 131.621072 155.38171 133.386384 156.112927 135.226829 156.112927 
z
" clip-path="url(#p12a1e6945b)" style="fill: #2c3e50"/>
   </g>
   <g id="patch_24">
    <path d="M 114.595122 171.868049 
C 116.137116 171.868049 117.616162 171.255408 118.706517 170.165053 
C 119.796871 169.074699 120.409512 167.595653 120.409512 166.053659 
C 120.409512 164.511664 119.796871 163.032618 118.706517 161.942264 
C 117.616162 160.851909 116.137116 160.239268 114.595122 160.239268 
C 113.053128 160.239268 111.574082 160.851909 110.483727 161.942264 
C 109.393373 163.032618 108.780732 164.511664 108.780732 166.053659 
C 108.780732 167.595653 109.393373 169.074699 110.483727 170.165053 
C 111.574082 171.255408 113.053128 171.868049 114.595122 171.868049 
z
" clip-path="url(#p12a1e6945b)" style="fill: #2c3e50"/>
   </g>
   <g id="patch_25">
    <path d="M 139.621345 154.544246 
L 118.277014 170.553748 
L 110.91323 161.553569 
L 130.832313 143.802096 
z
" clip-path="url(#p12a1e6945b)" style="fill: #2c3e50"/>
   </g>
   <g id="patch_26">
    <path d="M 123.973171 268.041815 
C 125.155035 268.041815 126.288652 267.572255 127.124356 266.736551 
C 127.96006 265.900847 128.42962 264.76723 128.42962 263.585366 
C 128.42962 262.403502 127.96006 261.269885 127.124356 260.434181 
C 126.288652 259.598477 125.155035 259.128917 123.973171 259.128917 
C 122.791307 259.128917 121.65769 259.598477 120.821986 260.434181 
C 119.986282 261.269885 119.516722 262.403502 119.516722 263.585366 
C 119.516722 264.76723 119.986282 265.900847 120.821986 266.736551 
C 121.65769 267.572255 122.791307 268.041815 123.973171 268.041815 
z
" clip-path="url(#p12a1e6945b)" style="fill: #1b1b1b; stroke: #121212; stroke-width: 1.3; stroke-linejoin: miter"/>
   </g>
   <g id="patch_27">
    <path d="M 114.595122 172.243171 
C 116.2366 172.243171 117.811068 171.591005 118.971768 170.430305 
C 120.132468 169.269604 120.784634 167.695136 120.784634 166.053659 
C 120.784634 164.412181 120.132468 162.837713 118.971768 161.677012 
C 117.811068 160.516312 116.2366 159.864146 114.595122 159.864146 
C 112.953644 159.864146 111.379176 160.516312 110.218476 161.677012 
C 109.057776 162.837713 108.40561 164.412181 108.40561 166.053659 
C 108.40561 167.695136 109.057776 169.269604 110.218476 170.430305 
C 111.379176 171.591005 112.953644 172.243171 114.595122 172.243171 
z
" clip-path="url(#p12a1e6945b)" style="fill: #f2e0c9; stroke: #a49888; stroke-width: 1.6; stroke-linejoin: miter"/>
   </g>
   <g id="line2d_4">
    <path d="M 128.907986 164.715626 
L 150.748024 214.080228 
L 151.800277 217.093615 
L 151.758432 220.285164 
L 150.627536 223.269926 
L 148.543993 225.687897 
L 145.759108 227.247432 
L 142.60878 227.76043 
L 139.472985 227.165014 
L 136.729945 225.533001 
L 134.710512 223.061235 
L 104.033478 178.64535 
L 102.401413 173.971526 
L 102.466315 169.021369 
L 104.220357 164.391941 
L 107.451975 160.641619 
L 111.771388 158.222748 
L 116.657611 157.427079 
L 121.521294 158.350581 
L 125.775804 160.881867 
L 128.907986 164.715626 
L 128.907986 164.715626 
" clip-path="url(#p12a1e6945b)" style="fill: none; stroke: #282a2c; stroke-width: 1.7; stroke-linecap: round"/>
   </g>
   <g id="line2d_5">
    <path d="M 151.212795 222.105535 
L 129.686567 265.965947 
L 128.5278 267.776477 
L 126.819678 269.081497 
L 124.768225 269.723603 
L 122.620876 269.625346 
L 120.636635 268.798579 
L 119.054829 267.343021 
L 118.066247 265.434235 
L 117.790128 263.302447 
L 118.259775 261.204784 
L 134.245741 215.035929 
L 135.966334 212.347566 
L 138.502637 210.409809 
L 141.548734 209.45638 
L 144.737221 209.602276 
L 147.683519 210.8299 
L 150.032261 212.991183 
L 151.500155 215.825442 
L 151.91015 218.990823 
L 151.212795 222.105535 
L 151.212795 222.105535 
" clip-path="url(#p12a1e6945b)" style="fill: none; stroke: #282a2c; stroke-width: 1.7; stroke-linecap: round"/>
   </g>
   <g id="line2d_6">
    <path d="M 123.973171 258.32428 
L 138.978049 260.181134 
L 140.142365 260.386434 
L 141.166247 260.977573 
L 141.9262 261.88325 
L 142.330563 262.994227 
L 142.330563 264.176504 
L 141.9262 265.287482 
L 141.166247 266.193159 
L 140.142365 266.784297 
L 138.978049 266.989598 
L 123.973171 268.846451 
L 122.173774 268.529169 
L 120.59141 267.615591 
L 119.416937 266.215909 
L 118.792013 264.498944 
L 118.792013 262.671788 
L 119.416937 260.954823 
L 120.59141 259.555141 
L 122.173774 258.641563 
L 123.973171 258.32428 
L 123.973171 258.32428 
" clip-path="url(#p12a1e6945b)" style="fill: none; stroke: #121212; stroke-width: 1.5; stroke-linecap: round"/>
   </g>
   <g id="line2d_7">
    <path d="M 128.364378 118.261819 
L 141.252225 145.730088 
L 142.066453 147.998538 
L 142.055721 150.408666 
L 141.221325 152.669775 
L 139.663903 154.509142 
L 137.571305 155.704912 
L 135.195929 156.112858 
L 132.82428 155.683775 
L 130.742413 154.469417 
L 129.201434 152.616254 
L 112.079525 127.567449 
L 110.979217 124.501976 
L 110.993719 121.245046 
L 112.121282 118.189493 
L 114.225905 115.703862 
L 117.05374 114.087956 
L 120.263708 113.536678 
L 123.46864 114.11652 
L 126.281973 115.757544 
L 128.364378 118.261819 
L 128.364378 118.261819 
" clip-path="url(#p12a1e6945b)" style="fill: none; stroke: #1d2a36; stroke-width: 1.7; stroke-linecap: round"/>
   </g>
   <g id="line2d_8">
    <path d="M 139.621345 154.544246 
L 118.277014 170.553748 
L 116.515847 171.541641 
L 114.523013 171.867602 
L 112.538876 171.492315 
L 110.802752 170.461046 
L 109.524045 168.898182 
L 108.856984 166.992225 
L 108.882027 164.973064 
L 109.596154 163.084238 
L 110.91323 161.553569 
L 130.832313 143.802096 
L 132.934351 142.622998 
L 135.312895 142.233948 
L 137.681059 142.681871 
L 139.753206 143.91274 
L 141.279405 145.778095 
L 142.075574 148.052946 
L 142.045684 150.462912 
L 141.193339 152.717317 
L 139.621345 154.544246 
L 139.621345 154.544246 
" clip-path="url(#p12a1e6945b)" style="fill: none; stroke: #1d2a36; stroke-width: 1.7; stroke-linecap: round"/>
   </g>
   <g id="patch_28">
    <path d="M 120.221951 115.412195 
C 124.201291 115.412195 128.018184 113.831187 130.832002 111.017368 
C 133.645821 108.20355 135.226829 104.386657 135.226829 100.407317 
C 135.226829 96.427977 133.645821 92.611084 130.832002 89.797266 
C 128.018184 86.983448 124.201291 85.402439 120.221951 85.402439 
C 116.242611 85.402439 112.425719 86.983448 109.6119 89.797266 
C 106.798082 92.611084 105.217073 96.427977 105.217073 100.407317 
C 105.217073 104.386657 106.798082 108.20355 109.6119 111.017368 
C 112.425719 113.831187 116.242611 115.412195 120.221951 115.412195 
z
" clip-path="url(#p12a1e6945b)" style="fill: #f2e0c9; stroke: #a49888; stroke-width: 1.8; stroke-linejoin: miter"/>
   </g>
   <g id="patch_29">
    <path d="M 127.849011 207.394205 
Q 142.027395 208.341541 148.009881 218.455239 
" clip-path="url(#p12a1e6945b)" style="fill: none; stroke-dasharray: 2.2,0; stroke-dashoffset: 0; stroke: #c0392b; stroke-width: 2.2; stroke-linecap: round"/>
    <path d="M 147.56875 212.209809 
L 148.009881 218.455239 
L 142.748858 215.060886 
z
" clip-path="url(#p12a1e6945b)" style="fill: #c0392b; stroke-dasharray: 2.2,0; stroke-dashoffset: 0; stroke: #c0392b; stroke-width: 2.2; stroke-linecap: round"/>
   </g>
  </g>
 </g>
 <defs>
  <clipPath id="p12a1e6945b">
   <rect x="5.809756" y="1" width="247.580488" height="307.6"/>
  </clipPath>
 </defs>
</svg>
