<?xml version="1.0" encoding="utf-8" standalone="no"?>
<!DOCTYPE svg PUBLIC "-//W3C//DTD SVG 1.1//EN"
  "http://www.w3.org/Graphics/SVG/1.1/DTD/svg11.dtd">
<svg xmlns:xlink="http://www.w3.org/1999/xlink" width="259.2pt" height="309.6pt" viewBox="0 0 259.2 309.6" xmlns="http://www.w3.org/2000/svg" version="1.1">
 <metadata>
  <rdf:RDF xmlns:dc="http://purl.org/dc/elements/1.1/" xmlns:cc="http://creativecommons.org/ns#" xmlns:rdf="http://www.w3.org/1999/02/22-rdf-syntax-ns#">
   <cc:Work>
    <dc:type rdf:resource="http://purl.org/dc/dcmitype/StillImage"/>
    <dc:date>2026-07-10T23:04:55.853419</dc:date>
    <dc:format>image/svg+xml</dc:format>
    <dc:creator>
     <cc:Agent>
      <dc:title>Matplotlib v3.10.8, https://matplotlib.org/</dc:title>
     </cc:Agent>
    </dc:creator>
   </cc:Work>
  </rdf:RDF>
 </metadata>
 <defs>
  <style type="text/css">*{stroke-linejoin: round; stroke-linecap: butt}</style>
 </defs>
 <g id="figure_1">
  <g id="patch_1">
   <path d="M 0 309.6 
L 259.2 309.6 
L 259.2 0 
L 0 0 
L 0 309.6 
z
" style="fill: none"/>
  </g>
  <g id="axes_1">
   <g id="line2d_1">
    <path d="M 17.063415 299.221951 
L 242.136585 299.221951 
" clip-path="url(#pa00285fa19)" style="fill: none; stroke: #c3c3c3; stroke-width: 3; stroke-linecap: round"/>
   </g>
   <g id="patch_2">
    <path d="M 153.982927 207.302068 
C 157.46087 207.302068 160.796834 205.920267 163.256111 203.460989 
C 165.715389 201.001712 167.09719 197.665748 167.09719 194.187805 
C 167.09719 190.709862 165.715389 187.373898 163.256111 184.91462 
C 160.796834 182.455343 157.46087 181.073541 153.982927 181.073541 
C 150.504984 181.073541 147.16902 182.455343 144.709742 184.91462 
C 142.250465 187.373898 140.868663 190.709862 140.868663 194.187805 
C 140.868663 197.665748 142.250465 201.001712 144.709742 203.460989 
C 147.16902 205.920267 150.504984 207.302068 153.982927 207.302068 
z
" clip-path="url(#pa00285fa19)" style="fill: #9aa0a6; fill-opacity: 0.285"/>
   </g>
   <g id="patch_3">
    <path d="M 135.226829 253.284517 
C 137.469187 253.284517 139.620006 252.393619 141.205593 250.808032 
C 142.79118 249.222445 143.682078 247.071626 143.682078 244.829268 
C 143.682078 242.58691 142.79118 240.436091 141.205593 238.850505 
C 139.620006 237.264918 137.469187 236.37402 135.226829 236.37402 
C 132.984471 236.37402 130.833652 237.264918 129.248066 238.850505 
C 127.662479 240.436091 126.77158 242.58691 126.77158 244.829268 
C 126.77158 247.071626 127.662479 249.222445 129.248066 250.808032 
C 130.833652 252.393619 132.984471 253.284517 135.226829 253.284517 
z
" clip-path="url(#pa00285fa19)" style="fill: #9aa0a6; fill-opacity: 0.285"/>
   </g>
   <g id="patch_4">
    <path d="M 166.280811 198.742577 
L 143.155728 247.765898 
L 127.29793 241.892639 
L 141.685043 189.633033 
z
" clip-path="url(#pa00285fa19)" style="fill: #9aa0a6; fill-opacity: 0.285"/>
   </g>
   <g id="patch_5">
    <path d="M 135.226829 253.284517 
C 137.469187 253.284517 139.620006 252.393619 141.205593 250.808032 
C 142.79118 249.222445 143.682078 247.071626 143.682078 244.829268 
C 143.682078 242.58691 142.79118 240.436091 141.205593 238.850505 
C 139.620006 237.264918 137.469187 236.37402 135.226829 236.37402 
C 132.984471 236.37402 130.833652 237.264918 129.248066 238.850505 
C 127.662479 240.436091 126.77158 242.58691 126.77158 244.829268 
C 126.77158 247.071626 127.662479 249.222445 129.248066 250.808032 
C 130.833652 252.393619 132.984471 253.284517 135.226829 253.284517 
z
" clip-path="url(#pa00285fa19)" style="fill: #9aa0a6; fill-opacity: 0.285"/>
   </g>
   <g id="patch_6">
    <path d="M 120.221951 288.035815 
C 121.732111 288.035815 123.180621 287.435822 124.248466 286.367978 
C 125.31631 285.300134 125.916302 283.851623 125.916302 282.341463 
C 125.916302 280.831304 125.31631 279.382793 124.248466 278.314949 
C 123.180621 277.247105 121.732111 276.647112 120.221951 276.647112 
C 118.711792 276.647112 117.263281 277.247105 116.195437 278.314949 
C 115.127593 279.382793 114.5276 280.831304 114.5276 282.341463 
C 114.5276 283.851623 115.127593 285.300134 116.195437 286.367978 
C 117.263281 287.435822 118.711792 288.035815 120.221951 288.035815 
z
" clip-path="url(#pa00285fa19)" style="fill: #9aa0a6; fill-opacity: 0.285"/>
   </g>
   <g id="patch_7">
    <path d="M 143.077331 247.969469 
L 125.509024 284.456292 
L 114.934879 280.226634 
L 127.376328 241.689068 
z
" clip-path="url(#pa00285fa19)" style="fill: #9aa0a6; fill-opacity: 0.285"/>
   </g>
   <g id="patch_8">
    <path d="M 120.221951 287.181662 
C 121.505587 287.181662 122.736821 286.671668 123.644488 285.764001 
C 124.552156 284.856333 125.06215 283.625099 125.06215 282.341463 
C 125.06215 281.057828 124.552156 279.826594 123.644488 278.918926 
C 122.736821 278.011259 121.505587 277.501265 120.221951 277.501265 
C 118.938316 277.501265 117.707081 278.011259 116.799414 278.918926 
C 115.891747 279.826594 115.381753 281.057828 115.381753 282.341463 
C 115.381753 283.625099 115.891747 284.856333 116.799414 285.764001 
C 117.707081 286.671668 118.938316 287.181662 120.221951 287.181662 
z
" clip-path="url(#pa00285fa19)" style="fill: #9aa0a6; fill-opacity: 0.285"/>
   </g>
   <g id="patch_9">
    <path d="M 112.719512 289.224576 
C 113.5501 289.224576 114.346781 288.89458 114.934095 288.307266 
C 115.521409 287.719952 115.851405 286.923271 115.851405 286.092683 
C 115.851405 285.262095 115.521409 284.465414 114.934095 283.8781 
C 114.346781 283.290786 113.5501 282.96079 112.719512 282.96079 
C 111.888924 282.96079 111.092244 283.290786 110.504929 283.8781 
C 109.917615 284.465414 109.587619 285.262095 109.587619 286.092683 
C 109.587619 286.923271 109.917615 287.719952 110.504929 288.307266 
C 111.092244 288.89458 111.888924 289.224576 112.719512 289.224576 
z
" clip-path="url(#pa00285fa19)" style="fill: #9aa0a6; fill-opacity: 0.285"/>
   </g>
   <g id="patch_10">
    <path d="M 122.386554 286.670669 
L 114.120137 288.893933 
L 111.318887 283.291433 
L 118.057349 278.012258 
z
" clip-path="url(#pa00285fa19)" style="fill: #9aa0a6; fill-opacity: 0.285"/>
   </g>
   <g id="patch_11">
    <path d="M 120.221951 286.441396 
C 121.309266 286.441396 122.352194 286.009402 123.121042 285.240554 
C 123.889889 284.471706 124.321884 283.428778 124.321884 282.341463 
C 124.321884 281.254149 123.889889 280.211221 123.121042 279.442373 
C 122.352194 278.673525 121.309266 278.241531 120.221951 278.241531 
C 119.134636 278.241531 118.091709 278.673525 117.322861 279.442373 
C 116.554013 280.211221 116.122018 281.254149 116.122018 282.341463 
C 116.122018 283.428778 116.554013 284.471706 117.322861 285.240554 
C 118.091709 286.009402 119.134636 286.441396 120.221951 286.441396 
z
" clip-path="url(#pa00285fa19)" style="fill: #9aa0a6; fill-opacity: 0.285; stroke: #7d8288; stroke-opacity: 0.85; stroke-width: 1.3; stroke-linejoin: miter"/>
   </g>
   <g id="line2d_2">
    <path d="M 166.280811 198.742577 
L 143.155728 247.765898 
L 141.673171 250.30064 
L 139.413089 252.175455 
L 136.648083 253.164211 
L 133.711653 253.14765 
L 130.957975 252.127769 
L 128.719184 250.227582 
L 127.265311 247.676278 
L 126.771715 244.781583 
L 127.29793 241.892639 
L 141.685043 189.633033 
L 143.984519 185.701595 
L 147.489952 182.79372 
L 151.778533 181.260139 
L 156.332996 181.285825 
L 160.604007 182.867681 
L 164.076417 185.814911 
L 166.331404 189.772035 
L 167.096982 194.261766 
L 166.280811 198.742577 
L 166.280811 198.742577 
" clip-path="url(#pa00285fa19)" style="fill: none; stroke: #7d8288; stroke-opacity: 0.85; stroke-width: 1.7; stroke-linecap: round"/>
   </g>
   <g id="line2d_3">
    <path d="M 143.077331 247.969469 
L 125.509024 284.456292 
L 124.46686 286.137038 
L 122.912698 287.359981 
L 121.033992 287.977617 
L 119.057342 287.915449 
L 117.221161 287.180977 
L 115.746919 285.862788 
L 114.812433 284.119875 
L 114.530414 282.16246 
L 114.934879 280.226634 
L 127.376328 241.689068 
L 128.923783 239.193415 
L 131.231478 237.37753 
L 134.021072 236.460434 
L 136.956098 236.552744 
L 139.682548 237.643324 
L 141.871573 239.600635 
L 143.259144 242.188596 
L 143.677899 245.095062 
L 143.077331 247.969469 
L 143.077331 247.969469 
" clip-path="url(#pa00285fa19)" style="fill: none; stroke: #7d8288; stroke-opacity: 0.85; stroke-width: 1.7; stroke-linecap: round"/>
   </g>
   <g id="line2d_4">
    <path d="M 122.386554 286.670669 
L 114.120137 288.893933 
L 113.077585 289.204039 
L 111.991844 289.13887 
L 110.993871 288.706285 
L 110.204035 287.958462 
L 109.717603 286.985597 
L 109.593246 285.905035 
L 109.845962 284.847105 
L 110.445271 283.939411 
L 111.318887 283.291433 
L 118.057349 278.012258 
L 119.668566 277.533004 
L 121.346529 277.63372 
L 122.888852 278.30226 
L 124.109507 279.457987 
L 124.861265 280.961505 
L 125.053454 282.631465 
L 124.662892 284.266447 
L 123.736688 285.669248 
L 122.386554 286.670669 
L 122.386554 286.670669 
" clip-path="url(#pa00285fa19)" style="fill: none; stroke: #7d8288; stroke-opacity: 0.85; stroke-width: 1.5; stroke-linecap: round"/>
   </g>
   <g id="patch_12">
    <path d="M 65.829268 197.939024 
C 67.818938 197.939024 69.727385 197.14852 71.134294 195.741611 
C 72.541203 194.334702 73.331707 192.426255 73.331707 190.436585 
C 73.331707 188.446915 72.541203 186.538469 71.134294 185.13156 
C 69.727385 183.724651 67.818938 182.934146 65.829268 182.934146 
C 63.839598 182.934146 61.931152 183.724651 60.524243 185.13156 
C 59.117334 186.538469 58.326829 188.446915 58.326829 190.436585 
C 58.326829 192.426255 59.117334 194.334702 60.524243 195.741611 
C 61.931152 197.14852 63.839598 197.939024 65.829268 197.939024 
z
" clip-path="url(#pa00285fa19)" style="fill: #9aa0a6; fill-opacity: 0.3"/>
   </g>
   <g id="patch_13">
    <path d="M 82.709756 217.070244 
C 85.793745 217.070244 88.751836 215.844962 90.932546 213.664253 
C 93.113255 211.483544 94.338537 208.525452 94.338537 205.441463 
C 94.338537 202.357475 93.113255 199.399383 90.932546 197.218674 
C 88.751836 195.037965 85.793745 193.812683 82.709756 193.812683 
C 79.625767 193.812683 76.667676 195.037965 74.486967 197.218674 
C 72.306257 199.399383 71.080976 202.357475 71.080976 205.441463 
C 71.080976 208.525452 72.306257 211.483544 74.486967 213.664253 
C 76.667676 215.844962 79.625767 217.070244 82.709756 217.070244 
z
" clip-path="url(#pa00285fa19)" style="fill: #9aa0a6; fill-opacity: 0.3"/>
   </g>
   <g id="patch_14">
    <path d="M 70.813617 184.829193 
L 90.435497 196.750005 
L 74.984015 214.132922 
L 60.844919 196.043978 
z
" clip-path="url(#pa00285fa19)" style="fill: #9aa0a6; fill-opacity: 0.3"/>
   </g>
   <g id="patch_15">
    <path d="M 82.709756 228.699024 
C 88.877733 228.699024 94.793917 226.248461 99.155335 221.887042 
C 103.516754 217.525624 105.967317 211.609441 105.967317 205.441463 
C 105.967317 199.273486 103.516754 193.357303 99.155335 188.995884 
C 94.793917 184.634466 88.877733 182.183902 82.709756 182.183902 
C 76.541779 182.183902 70.625596 184.634466 66.264177 188.995884 
C 61.902758 193.357303 59.452195 199.273486 59.452195 205.441463 
C 59.452195 211.609441 61.902758 217.525624 66.264177 221.887042 
C 70.625596 226.248461 76.541779 228.699024 82.709756 228.699024 
z
" clip-path="url(#pa00285fa19)" style="fill: #9aa0a6; fill-opacity: 0.3"/>
   </g>
   <g id="patch_16">
    <path d="M 153.982927 211.443415 
C 158.559168 211.443415 162.948594 209.625255 166.184486 206.389364 
C 169.420377 203.153472 171.238537 198.764046 171.238537 194.187805 
C 171.238537 189.611564 169.420377 185.222137 166.184486 181.986246 
C 162.948594 178.750355 158.559168 176.932195 153.982927 176.932195 
C 149.406686 176.932195 145.017259 178.750355 141.781368 181.986246 
C 138.545477 185.222137 136.727317 189.611564 136.727317 194.187805 
C 136.727317 198.764046 138.545477 203.153472 141.781368 206.389364 
C 145.017259 209.625255 149.406686 211.443415 153.982927 211.443415 
z
" clip-path="url(#pa00285fa19)" style="fill: #9aa0a6; fill-opacity: 0.3"/>
   </g>
   <g id="patch_17">
    <path d="M 79.082447 182.468506 
L 151.291698 177.143353 
L 156.674156 211.232257 
L 86.337065 228.414421 
z
" clip-path="url(#pa00285fa19)" style="fill: #9aa0a6; fill-opacity: 0.3"/>
   </g>
   <g id="patch_18">
    <path d="M 153.982927 208.442439 
C 157.7633 208.442439 161.389348 206.940481 164.062475 204.267353 
C 166.735603 201.594226 168.237561 197.968178 168.237561 194.187805 
C 168.237561 190.407432 166.735603 186.781384 164.062475 184.108256 
C 161.389348 181.435129 157.7633 179.933171 153.982927 179.933171 
C 150.202554 179.933171 146.576506 181.435129 143.903378 184.108256 
C 141.230251 186.781384 139.728293 190.407432 139.728293 194.187805 
C 139.728293 197.968178 141.230251 201.594226 143.903378 204.267353 
C 146.576506 206.940481 150.202554 208.442439 153.982927 208.442439 
z
" clip-path="url(#pa00285fa19)" style="fill: #9aa0a6; fill-opacity: 0.3"/>
   </g>
   <g id="patch_19">
    <path d="M 153.982927 259.646585 
C 156.420273 259.646585 158.758119 258.678218 160.481583 256.954754 
C 162.205047 255.23129 163.173415 252.893443 163.173415 250.456098 
C 163.173415 248.018752 162.205047 245.680905 160.481583 243.957441 
C 158.758119 242.233978 156.420273 241.26561 153.982927 241.26561 
C 151.545581 241.26561 149.207734 242.233978 147.484271 243.957441 
C 145.760807 245.680905 144.792439 248.018752 144.792439 250.456098 
C 144.792439 252.893443 145.760807 255.23129 147.484271 256.954754 
C 149.207734 258.678218 151.545581 259.646585 153.982927 259.646585 
z
" clip-path="url(#pa00285fa19)" style="fill: #9aa0a6; fill-opacity: 0.3"/>
   </g>
   <g id="patch_20">
    <path d="M 168.237561 194.187805 
L 163.173415 250.456098 
L 144.792439 250.456098 
L 139.728293 194.187805 
z
" clip-path="url(#pa00285fa19)" style="fill: #9aa0a6; fill-opacity: 0.3"/>
   </g>
   <g id="patch_21">
    <path d="M 153.982927 259.646585 
C 156.420273 259.646585 158.758119 258.678218 160.481583 256.954754 
C 162.205047 255.23129 163.173415 252.893443 163.173415 250.456098 
C 163.173415 248.018752 162.205047 245.680905 160.481583 243.957441 
C 158.758119 242.233978 156.420273 241.26561 153.982927 241.26561 
C 151.545581 241.26561 149.207734 242.233978 147.484271 243.957441 
C 145.760807 245.680905 144.792439 248.018752 144.792439 250.456098 
C 144.792439 252.893443 145.760807 255.23129 147.484271 256.954754 
C 149.207734 258.678218 151.545581 259.646585 153.982927 259.646585 
z
" clip-path="url(#pa00285fa19)" style="fill: #9aa0a6; fill-opacity: 0.3"/>
   </g>
   <g id="patch_22">
    <path d="M 153.982927 290.406585 
C 155.624405 290.406585 157.198873 289.754419 158.359573 288.593719 
C 159.520273 287.433019 160.172439 285.858551 160.172439 284.217073 
C 160.172439 282.575595 159.520273 281.001127 158.359573 279.840427 
C 157.198873 278.679727 155.624405 278.027561 153.982927 278.027561 
C 152.341449 278.027561 150.766981 278.679727 149.606281 279.840427 
C 148.445581 281.001127 147.793415 282.575595 147.793415 284.217073 
C 147.793415 285.858551 148.445581 287.433019 149.606281 288.593719 
C 150.766981 289.754419 152.341449 290.406585 153.982927 290.406585 
z
" clip-path="url(#pa00285fa19)" style="fill: #9aa0a6; fill-opacity: 0.3"/>
   </g>
   <g id="patch_23">
    <path d="M 163.173415 250.456098 
L 160.172439 284.217073 
L 147.793415 284.217073 
L 144.792439 250.456098 
z
" clip-path="url(#pa00285fa19)" style="fill: #9aa0a6; fill-opacity: 0.3"/>
   </g>
   <g id="patch_24">
    <path d="M 153.982927 289.478159 
C 155.378183 289.478159 156.716481 288.923817 157.703076 287.937222 
C 158.689671 286.950627 159.244012 285.612329 159.244012 284.217073 
C 159.244012 282.821817 158.689671 281.483519 157.703076 280.496924 
C 156.716481 279.510329 155.378183 278.955988 153.982927 278.955988 
C 152.587671 278.955988 151.249373 279.510329 150.262778 280.496924 
C 149.276183 281.483519 148.721841 282.821817 148.721841 284.217073 
C 148.721841 285.612329 149.276183 286.950627 150.262778 287.937222 
C 151.249373 288.923817 152.587671 289.478159 153.982927 289.478159 
z
" clip-path="url(#pa00285fa19)" style="fill: #9aa0a6; fill-opacity: 0.3"/>
   </g>
   <g id="patch_25">
    <path d="M 153.982927 293.248134 
C 154.88574 293.248134 155.751697 292.889443 156.390082 292.251058 
C 157.028467 291.612673 157.387159 290.746715 157.387159 289.843902 
C 157.387159 288.94109 157.028467 288.075132 156.390082 287.436747 
C 155.751697 286.798362 154.88574 286.439671 153.982927 286.439671 
C 153.080114 286.439671 152.214157 286.798362 151.575772 287.436747 
C 150.937386 288.075132 150.578695 288.94109 150.578695 289.843902 
C 150.578695 290.746715 150.937386 291.612673 151.575772 292.251058 
C 152.214157 292.889443 153.080114 293.248134 153.982927 293.248134 
z
" clip-path="url(#pa00285fa19)" style="fill: #9aa0a6; fill-opacity: 0.3"/>
   </g>
   <g id="patch_26">
    <path d="M 159.244012 284.217073 
L 157.387159 289.843902 
L 150.578695 289.843902 
L 148.721841 284.217073 
z
" clip-path="url(#pa00285fa19)" style="fill: #9aa0a6; fill-opacity: 0.3"/>
   </g>
   <g id="line2d_5">
    <path d="M 70.813617 184.829193 
L 90.435497 196.750005 
L 92.942232 199.916523 
L 94.214779 203.74943 
L 94.099651 207.786422 
L 92.610733 211.540577 
L 89.927611 214.559089 
L 86.37391 216.477881 
L 82.378257 217.065518 
L 78.422588 216.251122 
L 74.984015 214.132922 
L 60.844919 196.043978 
L 59.227671 194.001063 
L 58.406673 191.52822 
L 58.480949 188.923709 
L 59.441541 186.501673 
L 61.172588 184.554246 
L 63.465298 183.316316 
L 66.043139 182.937195 
L 68.595183 183.462612 
L 70.813617 184.829193 
L 70.813617 184.829193 
" clip-path="url(#pa00285fa19)" style="fill: none; stroke: #7d8288; stroke-opacity: 0.85; stroke-width: 1.7; stroke-linecap: round"/>
   </g>
   <g id="line2d_6">
    <path d="M 79.082447 182.468506 
L 151.291698 177.143353 
L 157.283545 177.250804 
L 162.877288 179.401108 
L 167.398241 183.334906 
L 170.301108 188.577723 
L 171.235763 194.497199 
L 170.08947 200.379358 
L 167.000491 205.514724 
L 162.341401 209.283896 
L 156.674156 211.232257 
L 86.337065 228.414421 
L 78.261097 228.269595 
L 70.721704 225.371359 
L 64.628246 220.069284 
L 60.715685 213.002878 
L 59.455934 205.024453 
L 61.000937 197.096327 
L 65.164344 190.174746 
L 71.443986 185.094558 
L 79.082447 182.468506 
L 79.082447 182.468506 
" clip-path="url(#pa00285fa19)" style="fill: none; stroke: #7d8288; stroke-opacity: 0.85; stroke-width: 1.7; stroke-linecap: round"/>
   </g>
   <g id="patch_27">
    <path d="M 82.709756 214.819512 
C 85.196844 214.819512 87.582401 213.831382 89.341038 212.072745 
C 91.099674 210.314109 92.087805 207.928551 92.087805 205.441463 
C 92.087805 202.954376 91.099674 200.568818 89.341038 198.810182 
C 87.582401 197.051545 85.196844 196.063415 82.709756 196.063415 
C 80.222668 196.063415 77.837111 197.051545 76.078474 198.810182 
C 74.319838 200.568818 73.331707 202.954376 73.331707 205.441463 
C 73.331707 207.928551 74.319838 210.314109 76.078474 212.072745 
C 77.837111 213.831382 80.222668 214.819512 82.709756 214.819512 
z
" clip-path="url(#pa00285fa19)" style="fill: #9aa0a6; fill-opacity: 0.3"/>
   </g>
   <g id="patch_28">
    <path d="M 82.709756 257.395854 
C 84.550201 257.395854 86.315514 256.664637 87.616905 255.363246 
C 88.918296 254.061855 89.649512 252.296542 89.649512 250.456098 
C 89.649512 248.615653 88.918296 246.85034 87.616905 245.548949 
C 86.315514 244.247558 84.550201 243.516341 82.709756 243.516341 
C 80.869311 243.516341 79.103999 244.247558 77.802608 245.548949 
C 76.501216 246.85034 75.77 248.615653 75.77 250.456098 
C 75.77 252.296542 76.501216 254.061855 77.802608 255.363246 
C 79.103999 256.664637 80.869311 257.395854 82.709756 257.395854 
z
" clip-path="url(#pa00285fa19)" style="fill: #9aa0a6; fill-opacity: 0.3"/>
   </g>
   <g id="patch_29">
    <path d="M 92.087805 205.441463 
L 89.649512 250.456098 
L 75.77 250.456098 
L 73.331707 205.441463 
z
" clip-path="url(#pa00285fa19)" style="fill: #9aa0a6; fill-opacity: 0.3"/>
   </g>
   <g id="patch_30">
    <path d="M 82.709756 257.395854 
C 84.550201 257.395854 86.315514 256.664637 87.616905 255.363246 
C 88.918296 254.061855 89.649512 252.296542 89.649512 250.456098 
C 89.649512 248.615653 88.918296 246.85034 87.616905 245.548949 
C 86.315514 244.247558 84.550201 243.516341 82.709756 243.516341 
C 80.869311 243.516341 79.103999 244.247558 77.802608 245.548949 
C 76.501216 246.85034 75.77 248.615653 75.77 250.456098 
C 75.77 252.296542 76.501216 254.061855 77.802608 255.363246 
C 79.103999 256.664637 80.869311 257.395854 82.709756 257.395854 
z
" clip-path="url(#pa00285fa19)" style="fill: #9aa0a6; fill-opacity: 0.3"/>
   </g>
   <g id="patch_31">
    <path d="M 82.709756 290.031463 
C 84.25175 290.031463 85.730796 289.418823 86.821151 288.328468 
C 87.911506 287.238113 88.524146 285.759067 88.524146 284.217073 
C 88.524146 282.675079 87.911506 281.196033 86.821151 280.105678 
C 85.730796 279.015324 84.25175 278.402683 82.709756 278.402683 
C 81.167762 278.402683 79.688716 279.015324 78.598361 280.105678 
C 77.508007 281.196033 76.895366 282.675079 76.895366 284.217073 
C 76.895366 285.759067 77.508007 287.238113 78.598361 288.328468 
C 79.688716 289.418823 81.167762 290.031463 82.709756 290.031463 
z
" clip-path="url(#pa00285fa19)" style="fill: #9aa0a6; fill-opacity: 0.3"/>
   </g>
   <g id="patch_32">
    <path d="M 89.649512 250.456098 
L 88.524146 284.217073 
L 76.895366 284.217073 
L 75.77 250.456098 
z
" clip-path="url(#pa00285fa19)" style="fill: #9aa0a6; fill-opacity: 0.3"/>
   </g>
   <g id="patch_33">
    <path d="M 153.982927 288.673522 
C 155.164791 288.673522 156.298408 288.203962 157.134112 287.368258 
C 157.969816 286.532554 158.439376 285.398937 158.439376 284.217073 
C 158.439376 283.035209 157.969816 281.901592 157.134112 281.065888 
C 156.298408 280.230184 155.164791 279.760624 153.982927 279.760624 
C 152.801063 279.760624 151.667446 280.230184 150.831742 281.065888 
C 149.996038 281.901592 149.526478 283.035209 149.526478 284.217073 
C 149.526478 285.398937 149.996038 286.532554 150.831742 287.368258 
C 151.667446 288.203962 152.801063 288.673522 153.982927 288.673522 
z
" clip-path="url(#pa00285fa19)" style="fill: #9aa0a6; fill-opacity: 0.3; stroke: #7d8288; stroke-opacity: 0.85; stroke-width: 1.3; stroke-linejoin: miter"/>
   </g>
   <g id="patch_34">
    <path d="M 82.709756 290.406585 
C 84.351234 290.406585 85.925702 289.754419 87.086402 288.593719 
C 88.247102 287.433019 88.899268 285.858551 88.899268 284.217073 
C 88.899268 282.575595 88.247102 281.001127 87.086402 279.840427 
C 85.925702 278.679727 84.351234 278.027561 82.709756 278.027561 
C 81.068278 278.027561 79.49381 278.679727 78.33311 279.840427 
C 77.17241 281.001127 76.520244 282.575595 76.520244 284.217073 
C 76.520244 285.858551 77.17241 287.433019 78.33311 288.593719 
C 79.49381 289.754419 81.068278 290.406585 82.709756 290.406585 
z
" clip-path="url(#pa00285fa19)" style="fill: #9aa0a6; fill-opacity: 0.3; stroke: #7d8288; stroke-opacity: 0.85; stroke-width: 1.6; stroke-linejoin: miter"/>
   </g>
   <g id="line2d_7">
    <path d="M 168.237561 194.187805 
L 163.173415 250.456098 
L 162.61916 253.59943 
L 161.023249 256.363629 
L 158.578171 258.415293 
L 155.578838 259.506961 
L 152.387015 259.506961 
L 149.387683 258.415293 
L 146.942605 256.363629 
L 145.346693 253.59943 
L 144.792439 250.456098 
L 139.728293 194.187805 
L 140.587952 189.312433 
L 143.063244 185.025103 
L 146.85561 181.84293 
L 151.507636 180.149731 
L 156.458218 180.149731 
L 161.110244 181.84293 
L 164.90261 185.025103 
L 167.377901 189.312433 
L 168.237561 194.187805 
L 168.237561 194.187805 
" clip-path="url(#pa00285fa19)" style="fill: none; stroke: #7d8288; stroke-opacity: 0.85; stroke-width: 1.7; stroke-linecap: round"/>
   </g>
   <g id="line2d_8">
    <path d="M 163.173415 250.456098 
L 160.172439 284.217073 
L 159.799166 286.334011 
L 158.724368 288.195615 
L 157.077683 289.577348 
L 155.057724 290.312553 
L 152.908129 290.312553 
L 150.888171 289.577348 
L 149.241485 288.195615 
L 148.166688 286.334011 
L 147.793415 284.217073 
L 144.792439 250.456098 
L 145.346693 247.312766 
L 146.942605 244.548566 
L 149.387683 242.496902 
L 152.387015 241.405234 
L 155.578838 241.405234 
L 158.578171 242.496902 
L 161.023249 244.548566 
L 162.61916 247.312766 
L 163.173415 250.456098 
L 163.173415 250.456098 
" clip-path="url(#pa00285fa19)" style="fill: none; stroke: #7d8288; stroke-opacity: 0.85; stroke-width: 1.7; stroke-linecap: round"/>
   </g>
   <g id="line2d_9">
    <path d="M 159.244012 284.217073 
L 157.387159 289.843902 
L 157.181858 291.008218 
L 156.59072 292.0321 
L 155.685043 292.792054 
L 154.574065 293.196416 
L 153.391788 293.196416 
L 152.280811 292.792054 
L 151.375134 292.0321 
L 150.783995 291.008218 
L 150.578695 289.843902 
L 148.721841 284.217073 
L 149.039124 282.417676 
L 149.952702 280.835313 
L 151.352384 279.66084 
L 153.069349 279.035916 
L 154.896505 279.035916 
L 156.61347 279.66084 
L 158.013152 280.835313 
L 158.92673 282.417676 
L 159.244012 284.217073 
L 159.244012 284.217073 
" clip-path="url(#pa00285fa19)" style="fill: none; stroke: #7d8288; stroke-opacity: 0.85; stroke-width: 1.5; stroke-linecap: round"/>
   </g>
   <g id="line2d_10">
    <path d="M 92.087805 205.441463 
L 89.649512 250.456098 
L 89.230994 252.829634 
L 88.025918 254.916887 
L 86.179634 256.466103 
L 83.914832 257.290423 
L 81.50468 257.290423 
L 79.239878 256.466103 
L 77.393595 254.916887 
L 76.188519 252.829634 
L 75.77 250.456098 
L 73.331707 205.441463 
L 73.897273 202.233982 
L 75.525754 199.41337 
L 78.020732 197.319835 
L 81.081275 196.205888 
L 84.338237 196.205888 
L 87.39878 197.319835 
L 89.893758 199.41337 
L 91.522239 202.233982 
L 92.087805 205.441463 
L 92.087805 205.441463 
" clip-path="url(#pa00285fa19)" style="fill: none; stroke: #7d8288; stroke-opacity: 0.85; stroke-width: 1.7; stroke-linecap: round"/>
   </g>
   <g id="line2d_11">
    <path d="M 89.649512 250.456098 
L 88.524146 284.217073 
L 88.173496 286.205712 
L 87.163837 287.954491 
L 85.616951 289.252483 
L 83.719414 289.94313 
L 81.700098 289.94313 
L 79.802561 289.252483 
L 78.255675 287.954491 
L 77.246016 286.205712 
L 76.895366 284.217073 
L 75.77 250.456098 
L 76.188519 248.082561 
L 77.393595 245.995308 
L 79.239878 244.446092 
L 81.50468 243.621772 
L 83.914832 243.621772 
L 86.179634 244.446092 
L 88.025918 245.995308 
L 89.230994 248.082561 
L 89.649512 250.456098 
L 89.649512 250.456098 
" clip-path="url(#pa00285fa19)" style="fill: none; stroke: #7d8288; stroke-opacity: 0.85; stroke-width: 1.7; stroke-linecap: round"/>
   </g>
   <g id="patch_35">
    <path d="M 65.829268 205.441463 
C 69.808608 205.441463 73.625501 203.860455 76.439319 201.046636 
C 79.253138 198.232818 80.834146 194.415926 80.834146 190.436585 
C 80.834146 186.457245 79.253138 182.640353 76.439319 179.826534 
C 73.625501 177.012716 69.808608 175.431707 65.829268 175.431707 
C 61.849928 175.431707 58.033036 177.012716 55.219217 179.826534 
C 52.405399 182.640353 50.82439 186.457245 50.82439 190.436585 
C 50.82439 194.415926 52.405399 198.232818 55.219217 201.046636 
C 58.033036 203.860455 61.849928 205.441463 65.829268 205.441463 
z
" clip-path="url(#pa00285fa19)" style="fill: #9aa0a6; fill-opacity: 0.3; stroke: #7d8288; stroke-opacity: 0.85; stroke-width: 1.8; stroke-linejoin: miter"/>
   </g>
   <g id="patch_36">
    <path d="M 157.734146 224.182556 
C 161.21209 224.182556 164.548054 222.800755 167.007331 220.341477 
C 169.466608 217.8822 170.84841 214.546236 170.84841 211.068293 
C 170.84841 207.590349 169.466608 204.254385 167.007331 201.795108 
C 164.548054 199.335831 161.21209 197.954029 157.734146 197.954029 
C 154.256203 197.954029 150.920239 199.335831 148.460962 201.795108 
C 146.001684 204.254385 144.619883 207.590349 144.619883 211.068293 
C 144.619883 214.546236 146.001684 217.8822 148.460962 220.341477 
C 150.920239 222.800755 154.256203 224.182556 157.734146 224.182556 
z
" clip-path="url(#pa00285fa19)" style="fill: #3c3f42; fill-opacity: 0.95"/>
   </g>
   <g id="patch_37">
    <path d="M 138.978049 255.160127 
C 141.220407 255.160127 143.371226 254.269228 144.956813 252.683642 
C 146.542399 251.098055 147.433298 248.947236 147.433298 246.704878 
C 147.433298 244.46252 146.542399 242.311701 144.956813 240.726114 
C 143.371226 239.140528 141.220407 238.249629 138.978049 238.249629 
C 136.735691 238.249629 134.584872 239.140528 132.999285 240.726114 
C 131.413698 242.311701 130.5228 244.46252 130.5228 246.704878 
C 130.5228 248.947236 131.413698 251.098055 132.999285 252.683642 
C 134.584872 254.269228 136.735691 255.160127 138.978049 255.160127 
z
" clip-path="url(#pa00285fa19)" style="fill: #3c3f42; fill-opacity: 0.95"/>
   </g>
   <g id="patch_38">
    <path d="M 169.339197 217.176214 
L 146.460253 250.64288 
L 131.495845 242.766876 
L 146.129096 204.960371 
z
" clip-path="url(#pa00285fa19)" style="fill: #3c3f42; fill-opacity: 0.95"/>
   </g>
   <g id="patch_39">
    <path d="M 138.978049 255.160127 
C 141.220407 255.160127 143.371226 254.269228 144.956813 252.683642 
C 146.542399 251.098055 147.433298 248.947236 147.433298 246.704878 
C 147.433298 244.46252 146.542399 242.311701 144.956813 240.726114 
C 143.371226 239.140528 141.220407 238.249629 138.978049 238.249629 
C 136.735691 238.249629 134.584872 239.140528 132.999285 240.726114 
C 131.413698 242.311701 130.5228 244.46252 130.5228 246.704878 
C 130.5228 248.947236 131.413698 251.098055 132.999285 252.683642 
C 134.584872 254.269228 136.735691 255.160127 138.978049 255.160127 
z
" clip-path="url(#pa00285fa19)" style="fill: #3c3f42; fill-opacity: 0.95"/>
   </g>
   <g id="patch_40">
    <path d="M 123.973171 288.035815 
C 125.48333 288.035815 126.931841 287.435822 127.999685 286.367978 
C 129.067529 285.300134 129.667522 283.851623 129.667522 282.341463 
C 129.667522 280.831304 129.067529 279.382793 127.999685 278.314949 
C 126.931841 277.247105 125.48333 276.647112 123.973171 276.647112 
C 122.463011 276.647112 121.0145 277.247105 119.946656 278.314949 
C 118.878812 279.382793 118.27882 280.831304 118.27882 282.341463 
C 118.27882 283.851623 118.878812 285.300134 119.946656 286.367978 
C 121.0145 287.435822 122.463011 288.035815 123.973171 288.035815 
z
" clip-path="url(#pa00285fa19)" style="fill: #3c3f42; fill-opacity: 0.95"/>
   </g>
   <g id="patch_41">
    <path d="M 146.770705 249.985997 
L 129.221286 284.551196 
L 118.725055 280.131731 
L 131.185392 243.42376 
z
" clip-path="url(#pa00285fa19)" style="fill: #3c3f42; fill-opacity: 0.95"/>
   </g>
   <g id="patch_42">
    <path d="M 123.973171 287.181662 
C 125.256806 287.181662 126.48804 286.671668 127.395708 285.764001 
C 128.303375 284.856333 128.813369 283.625099 128.813369 282.341463 
C 128.813369 281.057828 128.303375 279.826594 127.395708 278.918926 
C 126.48804 278.011259 125.256806 277.501265 123.973171 277.501265 
C 122.689535 277.501265 121.458301 278.011259 120.550634 278.918926 
C 119.642966 279.826594 119.132972 281.057828 119.132972 282.341463 
C 119.132972 283.625099 119.642966 284.856333 120.550634 285.764001 
C 121.458301 286.671668 122.689535 287.181662 123.973171 287.181662 
z
" clip-path="url(#pa00285fa19)" style="fill: #1b1b1b; fill-opacity: 0.95"/>
   </g>
   <g id="patch_43">
    <path d="M 116.470732 289.224576 
C 117.301319 289.224576 118.098 288.89458 118.685315 288.307266 
C 119.272629 287.719952 119.602625 286.923271 119.602625 286.092683 
C 119.602625 285.262095 119.272629 284.465414 118.685315 283.8781 
C 118.098 283.290786 117.301319 282.96079 116.470732 282.96079 
C 115.640144 282.96079 114.843463 283.290786 114.256149 283.8781 
C 113.668835 284.465414 113.338839 285.262095 113.338839 286.092683 
C 113.338839 286.923271 113.668835 287.719952 114.256149 288.307266 
C 114.843463 288.89458 115.640144 289.224576 116.470732 289.224576 
z
" clip-path="url(#pa00285fa19)" style="fill: #1b1b1b; fill-opacity: 0.95"/>
   </g>
   <g id="patch_44">
    <path d="M 126.137773 286.670669 
L 117.871357 288.893933 
L 115.070107 283.291433 
L 121.808568 278.012258 
z
" clip-path="url(#pa00285fa19)" style="fill: #1b1b1b; fill-opacity: 0.95"/>
   </g>
   <g id="patch_45">
    <path d="M 123.973171 286.441396 
C 125.060486 286.441396 126.103413 286.009402 126.872261 285.240554 
C 127.641109 284.471706 128.073104 283.428778 128.073104 282.341463 
C 128.073104 281.254149 127.641109 280.211221 126.872261 279.442373 
C 126.103413 278.673525 125.060486 278.241531 123.973171 278.241531 
C 122.885856 278.241531 121.842928 278.673525 121.07408 279.442373 
C 120.305233 280.211221 119.873238 281.254149 119.873238 282.341463 
C 119.873238 283.428778 120.305233 284.471706 121.07408 285.240554 
C 121.842928 286.009402 122.885856 286.441396 123.973171 286.441396 
z
" clip-path="url(#pa00285fa19)" style="fill: #1b1b1b; fill-opacity: 0.95; stroke: #121212; stroke-width: 1.3; stroke-linejoin: miter"/>
   </g>
   <g id="line2d_12">
    <path d="M 169.339197 217.176214 
L 146.460253 250.64288 
L 144.662144 252.964454 
L 142.17845 254.53103 
L 139.308741 255.153658 
L 136.399145 254.757237 
L 133.800603 253.389583 
L 131.826537 251.215656 
L 130.715049 248.497661 
L 130.600201 245.563431 
L 131.495845 242.766876 
L 146.129096 204.960371 
L 148.917998 201.359563 
L 152.770258 198.929771 
L 157.221236 197.964063 
L 161.734079 198.578919 
L 165.764471 200.700178 
L 168.826287 204.071985 
L 170.550227 208.287649 
L 170.728359 212.8387 
L 169.339197 217.176214 
L 169.339197 217.176214 
" clip-path="url(#pa00285fa19)" style="fill: none; stroke: #282a2c; stroke-width: 1.7; stroke-linecap: round"/>
   </g>
   <g id="line2d_13">
    <path d="M 146.770705 249.985997 
L 129.221286 284.551196 
L 128.149013 286.212894 
L 126.573072 287.407641 
L 124.683544 287.991331 
L 122.708334 287.893564 
L 120.885683 287.126132 
L 119.435428 285.781598 
L 118.532492 284.022133 
L 118.285782 282.059955 
L 118.725055 280.131731 
L 131.185392 243.42376 
L 132.777556 240.95639 
L 135.11759 239.182373 
L 137.923253 238.31568 
L 140.856139 238.460849 
L 143.5625 239.60037 
L 145.715909 241.596799 
L 147.056632 244.209338 
L 147.422959 247.122875 
L 146.770705 249.985997 
L 146.770705 249.985997 
" clip-path="url(#pa00285fa19)" style="fill: none; stroke: #282a2c; stroke-width: 1.7; stroke-linecap: round"/>
   </g>
   <g id="line2d_14">
    <path d="M 126.137773 286.670669 
L 117.871357 288.893933 
L 116.828805 289.204039 
L 115.743064 289.13887 
L 114.74509 288.706285 
L 113.955255 287.958462 
L 113.468823 286.985597 
L 113.344465 285.905035 
L 113.597181 284.847105 
L 114.19649 283.939411 
L 115.070107 283.291433 
L 121.808568 278.012258 
L 123.419785 277.533004 
L 125.097748 277.63372 
L 126.640071 278.30226 
L 127.860726 279.457987 
L 128.612485 280.961505 
L 128.804674 282.631465 
L 128.414112 284.266447 
L 127.487907 285.669248 
L 126.137773 286.670669 
L 126.137773 286.670669 
" clip-path="url(#pa00285fa19)" style="fill: none; stroke: #121212; stroke-width: 1.5; stroke-linecap: round"/>
   </g>
   <g id="patch_46">
    <path d="M 75.207317 231.7 
C 77.196987 231.7 79.105433 230.909496 80.512343 229.502586 
C 81.919252 228.095677 82.709756 226.187231 82.709756 224.197561 
C 82.709756 222.207891 81.919252 220.299445 80.512343 218.892535 
C 79.105433 217.485626 77.196987 216.695122 75.207317 216.695122 
C 73.217647 216.695122 71.309201 217.485626 69.902292 218.892535 
C 68.495382 220.299445 67.704878 222.207891 67.704878 224.197561 
C 67.704878 226.187231 68.495382 228.095677 69.902292 229.502586 
C 71.309201 230.909496 73.217647 231.7 75.207317 231.7 
z
" clip-path="url(#pa00285fa19)" style="fill: #2c3e50"/>
   </g>
   <g id="patch_47">
    <path d="M 86.460976 220.821463 
C 89.544964 220.821463 92.503056 219.596182 94.683765 217.415472 
C 96.864474 215.234763 98.089756 212.276672 98.089756 209.192683 
C 98.089756 206.108694 96.864474 203.150603 94.683765 200.969893 
C 92.503056 198.789184 89.544964 197.563902 86.460976 197.563902 
C 83.376987 197.563902 80.418895 198.789184 78.238186 200.969893 
C 76.057477 203.150603 74.832195 206.108694 74.832195 209.192683 
C 74.832195 212.276672 76.057477 215.234763 78.238186 217.415472 
C 80.418895 219.596182 83.376987 220.821463 86.460976 220.821463 
z
" clip-path="url(#pa00285fa19)" style="fill: #2c3e50"/>
   </g>
   <g id="patch_48">
    <path d="M 69.205366 219.696098 
L 77.157951 202.215415 
L 95.764 216.169951 
L 81.209268 228.699024 
z
" clip-path="url(#pa00285fa19)" style="fill: #2c3e50"/>
   </g>
   <g id="patch_49">
    <path d="M 86.460976 232.450244 
C 92.628953 232.450244 98.545136 229.999681 102.906555 225.638262 
C 107.267973 221.276843 109.718537 215.36066 109.718537 209.192683 
C 109.718537 203.024706 107.267973 197.108522 102.906555 192.747104 
C 98.545136 188.385685 92.628953 185.935122 86.460976 185.935122 
C 80.292998 185.935122 74.376815 188.385685 70.015397 192.747104 
C 65.653978 197.108522 63.203415 203.024706 63.203415 209.192683 
C 63.203415 215.36066 65.653978 221.276843 70.015397 225.638262 
C 74.376815 229.999681 80.292998 232.450244 86.460976 232.450244 
z
" clip-path="url(#pa00285fa19)" style="fill: #2c3e50"/>
   </g>
   <g id="patch_50">
    <path d="M 157.734146 228.323902 
C 162.310388 228.323902 166.699814 226.505743 169.935705 223.269851 
C 173.171596 220.03396 174.989756 215.644534 174.989756 211.068293 
C 174.989756 206.492051 173.171596 202.102625 169.935705 198.866734 
C 166.699814 195.630843 162.310388 193.812683 157.734146 193.812683 
C 153.157905 193.812683 148.768479 195.630843 145.532588 198.866734 
C 142.296696 202.102625 140.478537 206.492051 140.478537 211.068293 
C 140.478537 215.644534 142.296696 220.03396 145.532588 223.269851 
C 148.768479 226.505743 153.157905 228.323902 157.734146 228.323902 
z
" clip-path="url(#pa00285fa19)" style="fill: #2c3e50"/>
   </g>
   <g id="patch_51">
    <path d="M 87.072805 185.943171 
L 158.188084 193.818655 
L 157.280209 228.317931 
L 85.849146 232.442195 
z
" clip-path="url(#pa00285fa19)" style="fill: #2c3e50"/>
   </g>
   <g id="patch_52">
    <path d="M 157.734146 225.322927 
C 161.51452 225.322927 165.140567 223.820969 167.813695 221.147841 
C 170.486822 218.474714 171.98878 214.848666 171.98878 211.068293 
C 171.98878 207.28792 170.486822 203.661872 167.813695 200.988744 
C 165.140567 198.315617 161.51452 196.813659 157.734146 196.813659 
C 153.953773 196.813659 150.327725 198.315617 147.654598 200.988744 
C 144.98147 203.661872 143.479512 207.28792 143.479512 211.068293 
C 143.479512 214.848666 144.98147 218.474714 147.654598 221.147841 
C 150.327725 223.820969 153.953773 225.322927 157.734146 225.322927 
z
" clip-path="url(#pa00285fa19)" style="fill: #3c3f42"/>
   </g>
   <g id="patch_53">
    <path d="M 157.734146 261.522195 
C 160.171492 261.522195 162.509339 260.553827 164.232803 258.830364 
C 165.956266 257.1069 166.924634 254.769053 166.924634 252.331707 
C 166.924634 249.894361 165.956266 247.556515 164.232803 245.833051 
C 162.509339 244.109587 160.171492 243.14122 157.734146 243.14122 
C 155.2968 243.14122 152.958954 244.109587 151.23549 245.833051 
C 149.512026 247.556515 148.543659 249.894361 148.543659 252.331707 
C 148.543659 254.769053 149.512026 257.1069 151.23549 258.830364 
C 152.958954 260.553827 155.2968 261.522195 157.734146 261.522195 
z
" clip-path="url(#pa00285fa19)" style="fill: #3c3f42"/>
   </g>
   <g id="patch_54">
    <path d="M 171.98878 211.068293 
L 166.924634 252.331707 
L 148.543659 252.331707 
L 143.479512 211.068293 
z
" clip-path="url(#pa00285fa19)" style="fill: #3c3f42"/>
   </g>
   <g id="patch_55">
    <path d="M 157.734146 261.522195 
C 160.171492 261.522195 162.509339 260.553827 164.232803 258.830364 
C 165.956266 257.1069 166.924634 254.769053 166.924634 252.331707 
C 166.924634 249.894361 165.956266 247.556515 164.232803 245.833051 
C 162.509339 244.109587 160.171492 243.14122 157.734146 243.14122 
C 155.2968 243.14122 152.958954 244.109587 151.23549 245.833051 
C 149.512026 247.556515 148.543659 249.894361 148.543659 252.331707 
C 148.543659 254.769053 149.512026 257.1069 151.23549 258.830364 
C 152.958954 260.553827 155.2968 261.522195 157.734146 261.522195 
z
" clip-path="url(#pa00285fa19)" style="fill: #3c3f42"/>
   </g>
   <g id="patch_56">
    <path d="M 157.734146 290.406585 
C 159.375624 290.406585 160.950092 289.754419 162.110792 288.593719 
C 163.271492 287.433019 163.923659 285.858551 163.923659 284.217073 
C 163.923659 282.575595 163.271492 281.001127 162.110792 279.840427 
C 160.950092 278.679727 159.375624 278.027561 157.734146 278.027561 
C 156.092669 278.027561 154.5182 278.679727 153.3575 279.840427 
C 152.1968 281.001127 151.544634 282.575595 151.544634 284.217073 
C 151.544634 285.858551 152.1968 287.433019 153.3575 288.593719 
C 154.5182 289.754419 156.092669 290.406585 157.734146 290.406585 
z
" clip-path="url(#pa00285fa19)" style="fill: #3c3f42"/>
   </g>
   <g id="patch_57">
    <path d="M 166.924634 252.331707 
L 163.923659 284.217073 
L 151.544634 284.217073 
L 148.543659 252.331707 
z
" clip-path="url(#pa00285fa19)" style="fill: #3c3f42"/>
   </g>
   <g id="patch_58">
    <path d="M 157.734146 289.478159 
C 159.129402 289.478159 160.4677 288.923817 161.454295 287.937222 
C 162.440891 286.950627 162.995232 285.612329 162.995232 284.217073 
C 162.995232 282.821817 162.440891 281.483519 161.454295 280.496924 
C 160.4677 279.510329 159.129402 278.955988 157.734146 278.955988 
C 156.33889 278.955988 155.000592 279.510329 154.013997 280.496924 
C 153.027402 281.483519 152.473061 282.821817 152.473061 284.217073 
C 152.473061 285.612329 153.027402 286.950627 154.013997 287.937222 
C 155.000592 288.923817 156.33889 289.478159 157.734146 289.478159 
z
" clip-path="url(#pa00285fa19)" style="fill: #1b1b1b"/>
   </g>
   <g id="patch_59">
    <path d="M 157.734146 293.248134 
C 158.636959 293.248134 159.502917 292.889443 160.141302 292.251058 
C 160.779687 291.612673 161.138378 290.746715 161.138378 289.843902 
C 161.138378 288.94109 160.779687 288.075132 160.141302 287.436747 
C 159.502917 286.798362 158.636959 286.439671 157.734146 286.439671 
C 156.831334 286.439671 155.965376 286.798362 155.326991 287.436747 
C 154.688606 288.075132 154.329915 288.94109 154.329915 289.843902 
C 154.329915 290.746715 154.688606 291.612673 155.326991 292.251058 
C 155.965376 292.889443 156.831334 293.248134 157.734146 293.248134 
z
" clip-path="url(#pa00285fa19)" style="fill: #1b1b1b"/>
   </g>
   <g id="patch_60">
    <path d="M 162.995232 284.217073 
L 161.138378 289.843902 
L 154.329915 289.843902 
L 152.473061 284.217073 
z
" clip-path="url(#pa00285fa19)" style="fill: #1b1b1b"/>
   </g>
   <g id="line2d_15">
    <path d="M 69.205366 219.696098 
L 77.157951 202.215415 
L 80.105359 199.454374 
L 83.819347 197.867917 
L 87.851955 197.647393 
L 91.71679 198.819402 
L 94.947697 201.242582 
L 97.154979 204.624662 
L 98.072407 208.557712 
L 97.589325 212.567349 
L 95.764 216.169951 
L 81.209268 228.699024 
L 79.307715 230.480341 
L 76.911594 231.503862 
L 74.309911 231.646135 
L 71.816469 230.89 
L 69.732013 229.326658 
L 68.30796 227.144671 
L 67.716071 224.60722 
L 68.027737 222.020357 
L 69.205366 219.696098 
L 69.205366 219.696098 
" clip-path="url(#pa00285fa19)" style="fill: none; stroke: #1d2a36; stroke-width: 1.7; stroke-linecap: round"/>
   </g>
   <g id="line2d_16">
    <path d="M 87.072805 185.943171 
L 158.188084 193.818655 
L 164.060432 195.014191 
L 169.169736 198.146089 
L 172.89974 202.836595 
L 174.800549 208.519966 
L 174.642898 214.510702 
L 172.445802 220.086233 
L 168.474263 224.574068 
L 163.207308 227.432906 
L 157.280209 228.317931 
L 85.849146 232.442195 
L 77.934243 230.83082 
L 71.047789 226.609566 
L 66.020393 220.287579 
L 63.458433 212.627384 
L 63.670919 204.552913 
L 66.632222 197.038067 
L 71.985166 190.989247 
L 79.084106 187.13603 
L 87.072805 185.943171 
L 87.072805 185.943171 
" clip-path="url(#pa00285fa19)" style="fill: none; stroke: #1d2a36; stroke-width: 1.7; stroke-linecap: round"/>
   </g>
   <g id="patch_61">
    <path d="M 86.460976 218.570732 
C 88.948063 218.570732 91.333621 217.582601 93.092257 215.823965 
C 94.850894 214.065328 95.839024 211.679771 95.839024 209.192683 
C 95.839024 206.705595 94.850894 204.320038 93.092257 202.561401 
C 91.333621 200.802765 88.948063 199.814634 86.460976 199.814634 
C 83.973888 199.814634 81.58833 200.802765 79.829694 202.561401 
C 78.071057 204.320038 77.082927 206.705595 77.082927 209.192683 
C 77.082927 211.679771 78.071057 214.065328 79.829694 215.823965 
C 81.58833 217.582601 83.973888 218.570732 86.460976 218.570732 
z
" clip-path="url(#pa00285fa19)" style="fill: #2c3e50"/>
   </g>
   <g id="patch_62">
    <path d="M 86.460976 259.271463 
C 88.30142 259.271463 90.066733 258.540247 91.368124 257.238856 
C 92.669515 255.937465 93.400732 254.172152 93.400732 252.331707 
C 93.400732 250.491262 92.669515 248.72595 91.368124 247.424559 
C 90.066733 246.123168 88.30142 245.391951 86.460976 245.391951 
C 84.620531 245.391951 82.855218 246.123168 81.553827 247.424559 
C 80.252436 248.72595 79.52122 250.491262 79.52122 252.331707 
C 79.52122 254.172152 80.252436 255.937465 81.553827 257.238856 
C 82.855218 258.540247 84.620531 259.271463 86.460976 259.271463 
z
" clip-path="url(#pa00285fa19)" style="fill: #2c3e50"/>
   </g>
   <g id="patch_63">
    <path d="M 95.839024 209.192683 
L 93.400732 252.331707 
L 79.52122 252.331707 
L 77.082927 209.192683 
z
" clip-path="url(#pa00285fa19)" style="fill: #2c3e50"/>
   </g>
   <g id="patch_64">
    <path d="M 86.460976 259.271463 
C 88.30142 259.271463 90.066733 258.540247 91.368124 257.238856 
C 92.669515 255.937465 93.400732 254.172152 93.400732 252.331707 
C 93.400732 250.491262 92.669515 248.72595 91.368124 247.424559 
C 90.066733 246.123168 88.30142 245.391951 86.460976 245.391951 
C 84.620531 245.391951 82.855218 246.123168 81.553827 247.424559 
C 80.252436 248.72595 79.52122 250.491262 79.52122 252.331707 
C 79.52122 254.172152 80.252436 255.937465 81.553827 257.238856 
C 82.855218 258.540247 84.620531 259.271463 86.460976 259.271463 
z
" clip-path="url(#pa00285fa19)" style="fill: #2c3e50"/>
   </g>
   <g id="patch_65">
    <path d="M 86.460976 290.031463 
C 88.00297 290.031463 89.482016 289.418823 90.57237 288.328468 
C 91.662725 287.238113 92.275366 285.759067 92.275366 284.217073 
C 92.275366 282.675079 91.662725 281.196033 90.57237 280.105678 
C 89.482016 279.015324 88.00297 278.402683 86.460976 278.402683 
C 84.918981 278.402683 83.439935 279.015324 82.349581 280.105678 
C 81.259226 281.196033 80.646585 282.675079 80.646585 284.217073 
C 80.646585 285.759067 81.259226 287.238113 82.349581 288.328468 
C 83.439935 289.418823 84.918981 290.031463 86.460976 290.031463 
z
" clip-path="url(#pa00285fa19)" style="fill: #2c3e50"/>
   </g>
   <g id="patch_66">
    <path d="M 93.400732 252.331707 
L 92.275366 284.217073 
L 80.646585 284.217073 
L 79.52122 252.331707 
z
" clip-path="url(#pa00285fa19)" style="fill: #2c3e50"/>
   </g>
   <g id="patch_67">
    <path d="M 157.734146 288.673522 
C 158.91601 288.673522 160.049627 288.203962 160.885331 287.368258 
C 161.721036 286.532554 162.190595 285.398937 162.190595 284.217073 
C 162.190595 283.035209 161.721036 281.901592 160.885331 281.065888 
C 160.049627 280.230184 158.91601 279.760624 157.734146 279.760624 
C 156.552282 279.760624 155.418665 280.230184 154.582961 281.065888 
C 153.747257 281.901592 153.277698 283.035209 153.277698 284.217073 
C 153.277698 285.398937 153.747257 286.532554 154.582961 287.368258 
C 155.418665 288.203962 156.552282 288.673522 157.734146 288.673522 
z
" clip-path="url(#pa00285fa19)" style="fill: #1b1b1b; stroke: #121212; stroke-width: 1.3; stroke-linejoin: miter"/>
   </g>
   <g id="patch_68">
    <path d="M 86.460976 290.406585 
C 88.102453 290.406585 89.676922 289.754419 90.837622 288.593719 
C 91.998322 287.433019 92.650488 285.858551 92.650488 284.217073 
C 92.650488 282.575595 91.998322 281.001127 90.837622 279.840427 
C 89.676922 278.679727 88.102453 278.027561 86.460976 278.027561 
C 84.819498 278.027561 83.24503 278.679727 82.08433 279.840427 
C 80.923629 281.001127 80.271463 282.575595 80.271463 284.217073 
C 80.271463 285.858551 80.923629 287.433019 82.08433 288.593719 
C 83.24503 289.754419 84.819498 290.406585 86.460976 290.406585 
z
" clip-path="url(#pa00285fa19)" style="fill: #f2e0c9; stroke: #a49888; stroke-width: 1.6; stroke-linejoin: miter"/>
   </g>
   <g id="line2d_17">
    <path d="M 171.98878 211.068293 
L 166.924634 252.331707 
L 166.37038 255.475039 
L 164.774468 258.239239 
L 162.32939 260.290903 
L 159.330058 261.382571 
L 156.138235 261.382571 
L 153.138902 260.290903 
L 150.693824 258.239239 
L 149.097913 255.475039 
L 148.543659 252.331707 
L 143.479512 211.068293 
L 144.339172 206.192921 
L 146.814463 201.90559 
L 150.606829 198.723417 
L 155.258855 197.030218 
L 160.209438 197.030218 
L 164.861463 198.723417 
L 168.65383 201.90559 
L 171.129121 206.192921 
L 171.98878 211.068293 
L 171.98878 211.068293 
" clip-path="url(#pa00285fa19)" style="fill: none; stroke: #282a2c; stroke-width: 1.7; stroke-linecap: round"/>
   </g>
   <g id="line2d_18">
    <path d="M 166.924634 252.331707 
L 163.923659 284.217073 
L 163.550385 286.334011 
L 162.475588 288.195615 
L 160.828902 289.577348 
L 158.808944 290.312553 
L 156.659349 290.312553 
L 154.63939 289.577348 
L 152.992705 288.195615 
L 151.917907 286.334011 
L 151.544634 284.217073 
L 148.543659 252.331707 
L 149.097913 249.188375 
L 150.693824 246.424176 
L 153.138902 244.372511 
L 156.138235 243.280844 
L 159.330058 243.280844 
L 162.32939 244.372511 
L 164.774468 246.424176 
L 166.37038 249.188375 
L 166.924634 252.331707 
L 166.924634 252.331707 
" clip-path="url(#pa00285fa19)" style="fill: none; stroke: #282a2c; stroke-width: 1.7; stroke-linecap: round"/>
   </g>
   <g id="line2d_19">
    <path d="M 162.995232 284.217073 
L 161.138378 289.843902 
L 160.933078 291.008218 
L 160.341939 292.0321 
L 159.436262 292.792054 
L 158.325285 293.196416 
L 157.143008 293.196416 
L 156.03203 292.792054 
L 155.126354 292.0321 
L 154.535215 291.008218 
L 154.329915 289.843902 
L 152.473061 284.217073 
L 152.790343 282.417676 
L 153.703921 280.835313 
L 155.103604 279.66084 
L 156.820568 279.035916 
L 158.647724 279.035916 
L 160.364689 279.66084 
L 161.764372 280.835313 
L 162.677949 282.417676 
L 162.995232 284.217073 
L 162.995232 284.217073 
" clip-path="url(#pa00285fa19)" style="fill: none; stroke: #121212; stroke-width: 1.5; stroke-linecap: round"/>
   </g>
   <g id="line2d_20">
    <path d="M 95.839024 209.192683 
L 93.400732 252.331707 
L 92.982213 254.705244 
L 91.777137 256.792497 
L 89.930854 258.341712 
L 87.666052 259.166033 
L 85.2559 259.166033 
L 82.991098 258.341712 
L 81.144814 256.792497 
L 79.939738 254.705244 
L 79.52122 252.331707 
L 77.082927 209.192683 
L 77.648492 205.985201 
L 79.276973 203.164589 
L 81.771951 201.071054 
L 84.832495 199.957108 
L 88.089457 199.957108 
L 91.15 201.071054 
L 93.644978 203.164589 
L 95.273459 205.985201 
L 95.839024 209.192683 
L 95.839024 209.192683 
" clip-path="url(#pa00285fa19)" style="fill: none; stroke: #1d2a36; stroke-width: 1.7; stroke-linecap: round"/>
   </g>
   <g id="line2d_21">
    <path d="M 93.400732 252.331707 
L 92.275366 284.217073 
L 91.924715 286.205712 
L 90.915057 287.954491 
L 89.368171 289.252483 
L 87.470634 289.94313 
L 85.451317 289.94313 
L 83.55378 289.252483 
L 82.006894 287.954491 
L 80.997236 286.205712 
L 80.646585 284.217073 
L 79.52122 252.331707 
L 79.939738 249.958171 
L 81.144814 247.870918 
L 82.991098 246.321702 
L 85.2559 245.497382 
L 87.666052 245.497382 
L 89.930854 246.321702 
L 91.777137 247.870918 
L 92.982213 249.958171 
L 93.400732 252.331707 
L 93.400732 252.331707 
" clip-path="url(#pa00285fa19)" style="fill: none; stroke: #1d2a36; stroke-width: 1.7; stroke-linecap: round"/>
   </g>
   <g id="patch_69">
    <path d="M 75.207317 239.202439 
C 79.186657 239.202439 83.00355 237.62143 85.817368 234.807612 
C 88.631187 231.993794 90.212195 228.176901 90.212195 224.197561 
C 90.212195 220.218221 88.631187 216.401328 85.817368 213.58751 
C 83.00355 210.773692 79.186657 209.192683 75.207317 209.192683 
C 71.227977 209.192683 67.411084 210.773692 64.597266 213.58751 
C 61.783448 216.401328 60.202439 220.218221 60.202439 224.197561 
C 60.202439 228.176901 61.783448 231.993794 64.597266 234.807612 
C 67.411084 237.62143 71.227977 239.202439 75.207317 239.202439 
z
" clip-path="url(#pa00285fa19)" style="fill: #f2e0c9; stroke: #a49888; stroke-width: 1.8; stroke-linejoin: miter"/>
   </g>
   <g id="patch_70">
    <path d="M 68.828168 188.539539 
Q 63.627252 202.504914 72.119549 211.598235 
" clip-path="url(#pa00285fa19)" style="fill: none; stroke-dasharray: 2.2,0; stroke-dashoffset: 0; stroke: #c0392b; stroke-width: 2.2; stroke-linecap: round"/>
    <path d="M 70.343688 205.594377 
L 72.119549 211.598235 
L 66.250945 209.416609 
z
" clip-path="url(#pa00285fa19)" style="fill: #c0392b; stroke-dasharray: 2.2,0; stroke-dashoffset: 0; stroke: #c0392b; stroke-width: 2.2; stroke-linecap: round"/>
   </g>
  </g>
 </g>
 <defs>
  <clipPath id="pa00285fa19">
   <rect x="5.809756" y="1" width="247.580488" height="307.6"/>
  </clipPath>
 </defs>
</svg>
