<?xml version="1.0" encoding="utf-8" standalone="no"?>
<!DOCTYPE svg PUBLIC "-//W3C//DTD SVG 1.1//EN"
  "http://www.w3.org/Graphics/SVG/1.1/DTD/svg11.dtd">
<svg xmlns:xlink="http://www.w3.org/1999/xlink" width="259.2pt" height="309.6pt" viewBox="0 0 259.2 309.6" xmlns="http://www.w3.org/2000/svg" version="1.1">
 <metadata>
  <rdf:RDF xmlns:dc="http://purl.org/dc/elements/1.1/" xmlns:cc="http://creativecommons.org/ns#" xmlns:rdf="http://www.w3.org/1999/02/22-rdf-syntax-ns#">
   <cc:Work>
    <dc:type rdf:resource="http://purl.org/dc/dcmitype/StillImage"/>
    <dc:date>2026-07-10T23:04:57.738732</dc:date>
    <dc:format>image/svg+xml</dc:format>
    <dc:creator>
     <cc:Agent>
      <dc:title>Matplotlib v3.10.8, https://matplotlib.org/</dc:title>
     </cc:Agent>
    </dc:creator>
   </cc:Work>
  </rdf:RDF>
 </metadata>
 <defs>
  <style type="text/css">*{stroke-linejoin: round; stroke-linecap: butt}</style>
 </defs>
 <g id="figure_1">
  <g id="patch_1">
   <path d="M 0 309.6 
L 259.2 309.6 
L 259.2 0 
L 0 0 
L 0 309.6 
z
" style="fill: none"/>
  </g>
  <g id="axes_1">
   <g id="line2d_1">
    <path d="M 17.063415 293.595122 
L 242.136585 293.595122 
" clip-path="url(#p2fe4ef700f)" style="fill: none; stroke: #c3c3c3; stroke-width: 3; stroke-linecap: round"/>
   </g>
   <g id="patch_2">
    <path d="M 62.078049 248.580488 
L 197.121951 248.580488 
L 197.121951 231.7 
L 62.078049 231.7 
z
" clip-path="url(#p2fe4ef700f)" style="fill: #9aa5b1; stroke: #9aa5b1"/>
   </g>
   <g id="patch_3">
    <path d="M 66.579512 269.212195 
L 72.581463 269.212195 
L 72.581463 248.580488 
L 66.579512 248.580488 
z
" clip-path="url(#p2fe4ef700f)" style="fill: #9aa5b1; stroke: #9aa5b1; stroke-linejoin: miter"/>
   </g>
   <g id="patch_4">
    <path d="M 186.618537 269.212195 
L 192.620488 269.212195 
L 192.620488 248.580488 
L 186.618537 248.580488 
z
" clip-path="url(#p2fe4ef700f)" style="fill: #9aa5b1; stroke: #9aa5b1; stroke-linejoin: miter"/>
   </g>
   <g id="patch_5">
    <path d="M 95.839024 234.700976 
C 98.127145 234.700976 100.321858 233.791896 101.939804 232.17395 
C 103.557749 230.556004 104.466829 228.361291 104.466829 226.073171 
C 104.466829 223.78505 103.557749 221.590337 101.939804 219.972391 
C 100.321858 218.354446 98.127145 217.445366 95.839024 217.445366 
C 93.550904 217.445366 91.356191 218.354446 89.738245 219.972391 
C 88.120299 221.590337 87.21122 223.78505 87.21122 226.073171 
C 87.21122 228.361291 88.120299 230.556004 89.738245 232.17395 
C 91.356191 233.791896 93.550904 234.700976 95.839024 234.700976 
z
" clip-path="url(#p2fe4ef700f)" style="fill: #9aa0a6; fill-opacity: 0.285"/>
   </g>
   <g id="patch_6">
    <path d="M 122.097561 202.44799 
C 123.79077 202.44799 125.414858 201.775271 126.612138 200.577991 
C 127.809417 199.380712 128.482137 197.756624 128.482137 196.063415 
C 128.482137 194.370205 127.809417 192.746118 126.612138 191.548838 
C 125.414858 190.351558 123.79077 189.678839 122.097561 189.678839 
C 120.404352 189.678839 118.780264 190.351558 117.582984 191.548838 
C 116.385705 192.746118 115.712985 194.370205 115.712985 196.063415 
C 115.712985 197.756624 116.385705 199.380712 117.582984 200.577991 
C 118.780264 201.775271 120.404352 202.44799 122.097561 202.44799 
z
" clip-path="url(#p2fe4ef700f)" style="fill: #9aa0a6; fill-opacity: 0.285"/>
   </g>
   <g id="patch_7">
    <path d="M 89.34594 220.391721 
L 117.292678 191.859142 
L 126.902444 200.267687 
L 102.332109 231.75462 
z
" clip-path="url(#p2fe4ef700f)" style="fill: #9aa0a6; fill-opacity: 0.285"/>
   </g>
   <g id="patch_8">
    <path d="M 122.097561 202.44799 
C 123.79077 202.44799 125.414858 201.775271 126.612138 200.577991 
C 127.809417 199.380712 128.482137 197.756624 128.482137 196.063415 
C 128.482137 194.370205 127.809417 192.746118 126.612138 191.548838 
C 125.414858 190.351558 123.79077 189.678839 122.097561 189.678839 
C 120.404352 189.678839 118.780264 190.351558 117.582984 191.548838 
C 116.385705 192.746118 115.712985 194.370205 115.712985 196.063415 
C 115.712985 197.756624 116.385705 199.380712 117.582984 200.577991 
C 118.780264 201.775271 120.404352 202.44799 122.097561 202.44799 
z
" clip-path="url(#p2fe4ef700f)" style="fill: #9aa0a6; fill-opacity: 0.285"/>
   </g>
   <g id="patch_9">
    <path d="M 137.102439 222.044361 
C 138.521074 222.044361 139.881796 221.480731 140.884922 220.477605 
C 141.888048 219.474479 142.451678 218.113757 142.451678 216.695122 
C 142.451678 215.276487 141.888048 213.915765 140.884922 212.912639 
C 139.881796 211.909512 138.521074 211.345883 137.102439 211.345883 
C 135.683804 211.345883 134.323082 211.909512 133.319956 212.912639 
C 132.31683 213.915765 131.7532 215.276487 131.7532 216.695122 
C 131.7532 218.113757 132.31683 219.474479 133.319956 220.477605 
C 134.323082 221.480731 135.683804 222.044361 137.102439 222.044361 
z
" clip-path="url(#p2fe4ef700f)" style="fill: #9aa0a6; fill-opacity: 0.285"/>
   </g>
   <g id="patch_10">
    <path d="M 127.260998 192.308188 
L 141.428562 213.548851 
L 132.776316 219.841393 
L 116.934124 199.818641 
z
" clip-path="url(#p2fe4ef700f)" style="fill: #9aa0a6; fill-opacity: 0.285"/>
   </g>
   <g id="patch_11">
    <path d="M 137.102439 222.575159 
C 138.661843 222.575159 140.157588 221.955601 141.260253 220.852936 
C 142.362918 219.750271 142.982476 218.254526 142.982476 216.695122 
C 142.982476 215.135718 142.362918 213.639973 141.260253 212.537308 
C 140.157588 211.434643 138.661843 210.815085 137.102439 210.815085 
C 135.543035 210.815085 134.04729 211.434643 132.944625 212.537308 
C 131.84196 213.639973 131.222402 215.135718 131.222402 216.695122 
C 131.222402 218.254526 131.84196 219.750271 132.944625 220.852936 
C 134.04729 221.955601 135.543035 222.575159 137.102439 222.575159 
z
" clip-path="url(#p2fe4ef700f)" style="fill: #9aa0a6; fill-opacity: 0.285; stroke: #7d8288; stroke-opacity: 0.85; stroke-width: 1.3; stroke-linejoin: miter"/>
   </g>
   <g id="line2d_2">
    <path d="M 89.34594 220.391721 
L 117.292678 191.859142 
L 119.020394 190.469324 
L 121.119261 189.754236 
L 123.336126 189.800128 
L 125.403602 190.601465 
L 127.07232 192.061593 
L 128.141009 194.0044 
L 128.480769 196.195555 
L 128.05062 198.370772 
L 126.902444 200.267687 
L 102.332109 231.75462 
L 99.997358 233.632753 
L 97.161051 234.599088 
L 94.165287 234.537072 
L 91.371401 233.454184 
L 89.116377 231.481038 
L 87.672203 228.855623 
L 87.213068 225.894603 
L 87.79435 222.955121 
L 89.34594 220.391721 
L 89.34594 220.391721 
" clip-path="url(#p2fe4ef700f)" style="fill: none; stroke: #7d8288; stroke-opacity: 0.85; stroke-width: 1.7; stroke-linecap: round"/>
   </g>
   <g id="line2d_3">
    <path d="M 127.260998 192.308188 
L 141.428562 213.548851 
L 142.243753 215.218215 
L 142.438825 217.065717 
L 141.990251 218.868519 
L 140.952134 220.409177 
L 139.449688 221.501865 
L 137.664128 222.01479 
L 135.810821 221.886083 
L 134.113302 221.131271 
L 132.776316 219.841393 
L 116.934124 199.818641 
L 115.961154 197.826174 
L 115.728326 195.621092 
L 116.263721 193.469361 
L 117.502763 191.63051 
L 119.296006 190.326334 
L 121.427158 189.714134 
L 123.63917 189.867751 
L 125.665241 190.768656 
L 127.260998 192.308188 
L 127.260998 192.308188 
" clip-path="url(#p2fe4ef700f)" style="fill: none; stroke: #7d8288; stroke-opacity: 0.85; stroke-width: 1.7; stroke-linecap: round"/>
   </g>
   <g id="patch_12">
    <path d="M 80.834146 231.7 
C 82.823816 231.7 84.732263 230.909496 86.139172 229.502586 
C 87.546081 228.095677 88.336585 226.187231 88.336585 224.197561 
C 88.336585 222.207891 87.546081 220.299445 86.139172 218.892535 
C 84.732263 217.485626 82.823816 216.695122 80.834146 216.695122 
C 78.844476 216.695122 76.93603 217.485626 75.529121 218.892535 
C 74.122212 220.299445 73.331707 222.207891 73.331707 224.197561 
C 73.331707 226.187231 74.122212 228.095677 75.529121 229.502586 
C 76.93603 230.909496 78.844476 231.7 80.834146 231.7 
z
" clip-path="url(#p2fe4ef700f)" style="fill: #9aa0a6; fill-opacity: 0.3"/>
   </g>
   <g id="patch_13">
    <path d="M 95.839024 237.701951 
C 98.923013 237.701951 101.881105 236.47667 104.061814 234.29596 
C 106.242523 232.115251 107.467805 229.157159 107.467805 226.073171 
C 107.467805 222.989182 106.242523 220.03109 104.061814 217.850381 
C 101.881105 215.669672 98.923013 214.44439 95.839024 214.44439 
C 92.755036 214.44439 89.796944 215.669672 87.616235 217.850381 
C 85.435526 220.03109 84.210244 222.989182 84.210244 226.073171 
C 84.210244 229.157159 85.435526 232.115251 87.616235 234.29596 
C 89.796944 236.47667 92.755036 237.701951 95.839024 237.701951 
z
" clip-path="url(#p2fe4ef700f)" style="fill: #9aa0a6; fill-opacity: 0.3"/>
   </g>
   <g id="patch_14">
    <path d="M 81.764709 216.753057 
L 97.281397 214.534189 
L 94.396652 237.612152 
L 79.903583 231.642065 
z
" clip-path="url(#p2fe4ef700f)" style="fill: #9aa0a6; fill-opacity: 0.3"/>
   </g>
   <g id="patch_15">
    <path d="M 95.839024 249.330732 
C 102.007002 249.330732 107.923185 246.880168 112.284603 242.51875 
C 116.646022 238.157331 119.096585 232.241148 119.096585 226.073171 
C 119.096585 219.905193 116.646022 213.98901 112.284603 209.627592 
C 107.923185 205.266173 102.007002 202.81561 95.839024 202.81561 
C 89.671047 202.81561 83.754864 205.266173 79.393445 209.627592 
C 75.032027 213.98901 72.581463 219.905193 72.581463 226.073171 
C 72.581463 232.241148 75.032027 238.157331 79.393445 242.51875 
C 83.754864 246.880168 89.671047 249.330732 95.839024 249.330732 
z
" clip-path="url(#p2fe4ef700f)" style="fill: #9aa0a6; fill-opacity: 0.3"/>
   </g>
   <g id="patch_16">
    <path d="M 161.485366 247.08 
C 166.061607 247.08 170.451033 245.26184 173.686925 242.025949 
C 176.922816 238.790058 178.740976 234.400631 178.740976 229.82439 
C 178.740976 225.248149 176.922816 220.858723 173.686925 217.622832 
C 170.451033 214.38694 166.061607 212.56878 161.485366 212.56878 
C 156.909125 212.56878 152.519698 214.38694 149.283807 217.622832 
C 146.047916 220.858723 144.229756 225.248149 144.229756 229.82439 
C 144.229756 234.400631 146.047916 238.790058 149.283807 242.025949 
C 152.519698 245.26184 156.909125 247.08 161.485366 247.08 
z
" clip-path="url(#p2fe4ef700f)" style="fill: #9aa0a6; fill-opacity: 0.3"/>
   </g>
   <g id="patch_17">
    <path d="M 97.165863 202.853489 
L 162.469795 212.596884 
L 160.500937 247.051896 
L 94.512185 249.292853 
z
" clip-path="url(#p2fe4ef700f)" style="fill: #9aa0a6; fill-opacity: 0.3"/>
   </g>
   <g id="patch_18">
    <path d="M 161.485366 244.079024 
C 165.265739 244.079024 168.891787 242.577066 171.564914 239.903939 
C 174.238042 237.230811 175.74 233.604763 175.74 229.82439 
C 175.74 226.044017 174.238042 222.417969 171.564914 219.744842 
C 168.891787 217.071714 165.265739 215.569756 161.485366 215.569756 
C 157.704993 215.569756 154.078945 217.071714 151.405817 219.744842 
C 148.73269 222.417969 147.230732 226.044017 147.230732 229.82439 
C 147.230732 233.604763 148.73269 237.230811 151.405817 239.903939 
C 154.078945 242.577066 157.704993 244.079024 161.485366 244.079024 
z
" clip-path="url(#p2fe4ef700f)" style="fill: #9aa0a6; fill-opacity: 0.3"/>
   </g>
   <g id="patch_19">
    <path d="M 176.490244 263.397805 
C 178.92759 263.397805 181.265436 262.429437 182.9889 260.705973 
C 184.712364 258.98251 185.680732 256.644663 185.680732 254.207317 
C 185.680732 251.769971 184.712364 249.432125 182.9889 247.708661 
C 181.265436 245.985197 178.92759 245.016829 176.490244 245.016829 
C 174.052898 245.016829 171.715051 245.985197 169.991588 247.708661 
C 168.268124 249.432125 167.299756 251.769971 167.299756 254.207317 
C 167.299756 256.644663 168.268124 258.98251 169.991588 260.705973 
C 171.715051 262.429437 174.052898 263.397805 176.490244 263.397805 
z
" clip-path="url(#p2fe4ef700f)" style="fill: #9aa0a6; fill-opacity: 0.3"/>
   </g>
   <g id="patch_20">
    <path d="M 173.625444 222.353573 
L 184.317399 249.390606 
L 168.663089 259.024028 
L 149.345288 237.295207 
z
" clip-path="url(#p2fe4ef700f)" style="fill: #9aa0a6; fill-opacity: 0.3"/>
   </g>
   <g id="patch_21">
    <path d="M 176.490244 263.397805 
C 178.92759 263.397805 181.265436 262.429437 182.9889 260.705973 
C 184.712364 258.98251 185.680732 256.644663 185.680732 254.207317 
C 185.680732 251.769971 184.712364 249.432125 182.9889 247.708661 
C 181.265436 245.985197 178.92759 245.016829 176.490244 245.016829 
C 174.052898 245.016829 171.715051 245.985197 169.991588 247.708661 
C 168.268124 249.432125 167.299756 251.769971 167.299756 254.207317 
C 167.299756 256.644663 168.268124 258.98251 169.991588 260.705973 
C 171.715051 262.429437 174.052898 263.397805 176.490244 263.397805 
z
" clip-path="url(#p2fe4ef700f)" style="fill: #9aa0a6; fill-opacity: 0.3"/>
   </g>
   <g id="patch_22">
    <path d="M 168.987805 237.889512 
C 170.629283 237.889512 172.203751 237.237346 173.364451 236.076646 
C 174.525151 234.915946 175.177317 233.341478 175.177317 231.7 
C 175.177317 230.058522 174.525151 228.484054 173.364451 227.323354 
C 172.203751 226.162654 170.629283 225.510488 168.987805 225.510488 
C 167.346327 225.510488 165.771859 226.162654 164.611159 227.323354 
C 163.450459 228.484054 162.798293 230.058522 162.798293 231.7 
C 162.798293 233.341478 163.450459 234.915946 164.611159 236.076646 
C 165.771859 237.237346 167.346327 237.889512 168.987805 237.889512 
z
" clip-path="url(#p2fe4ef700f)" style="fill: #9aa0a6; fill-opacity: 0.3"/>
   </g>
   <g id="patch_23">
    <path d="M 167.771382 257.113605 
L 163.115918 233.657296 
L 174.859692 229.742704 
L 185.209106 251.30103 
z
" clip-path="url(#p2fe4ef700f)" style="fill: #9aa0a6; fill-opacity: 0.3"/>
   </g>
   <g id="patch_24">
    <path d="M 168.987805 236.961085 
C 170.383061 236.961085 171.721359 236.406744 172.707954 235.420149 
C 173.694549 234.433554 174.24889 233.095256 174.24889 231.7 
C 174.24889 230.304744 173.694549 228.966446 172.707954 227.979851 
C 171.721359 226.993256 170.383061 226.438915 168.987805 226.438915 
C 167.592549 226.438915 166.254251 226.993256 165.267656 227.979851 
C 164.281061 228.966446 163.72672 230.304744 163.72672 231.7 
C 163.72672 233.095256 164.281061 234.433554 165.267656 235.420149 
C 166.254251 236.406744 167.592549 236.961085 168.987805 236.961085 
z
" clip-path="url(#p2fe4ef700f)" style="fill: #9aa0a6; fill-opacity: 0.3"/>
   </g>
   <g id="patch_25">
    <path d="M 182.117073 235.104232 
C 183.019886 235.104232 183.885843 234.74554 184.524228 234.107155 
C 185.162614 233.46877 185.521305 232.602813 185.521305 231.7 
C 185.521305 230.797187 185.162614 229.93123 184.524228 229.292845 
C 183.885843 228.65446 183.019886 228.295768 182.117073 228.295768 
C 181.21426 228.295768 180.348303 228.65446 179.709918 229.292845 
C 179.071533 229.93123 178.712841 230.797187 178.712841 231.7 
C 178.712841 232.602813 179.071533 233.46877 179.709918 234.107155 
C 180.348303 234.74554 181.21426 235.104232 182.117073 235.104232 
z
" clip-path="url(#p2fe4ef700f)" style="fill: #9aa0a6; fill-opacity: 0.3"/>
   </g>
   <g id="patch_26">
    <path d="M 168.987805 226.438915 
L 182.117073 228.295768 
L 182.117073 235.104232 
L 168.987805 236.961085 
z
" clip-path="url(#p2fe4ef700f)" style="fill: #9aa0a6; fill-opacity: 0.3"/>
   </g>
   <g id="line2d_4">
    <path d="M 81.764709 216.753057 
L 97.281397 214.534189 
L 101.140976 215.723395 
L 104.36106 218.160937 
L 106.553262 221.552811 
L 107.453168 225.489907 
L 106.952238 229.497354 
L 105.110889 233.091793 
L 102.151217 235.839683 
L 98.430202 237.409587 
L 94.396652 237.612152 
L 79.903583 231.642065 
L 77.413533 230.874835 
L 75.336059 229.302228 
L 73.921735 227.113922 
L 73.34115 224.57386 
L 73.664331 221.988411 
L 74.852298 219.669418 
L 76.761764 217.896585 
L 79.162419 216.883744 
L 81.764709 216.753057 
L 81.764709 216.753057 
" clip-path="url(#p2fe4ef700f)" style="fill: none; stroke: #7d8288; stroke-opacity: 0.85; stroke-width: 1.7; stroke-linecap: round"/>
   </g>
   <g id="line2d_5">
    <path d="M 97.165863 202.853489 
L 162.469795 212.596884 
L 168.302581 213.972524 
L 173.31311 217.260134 
L 176.897038 222.063178 
L 178.622092 227.802338 
L 178.280203 233.785389 
L 175.912609 239.290684 
L 171.804877 243.654204 
L 166.452459 246.349645 
L 160.500937 247.051896 
L 94.512185 249.292853 
L 86.650605 247.438729 
L 79.897283 243.007604 
L 75.06677 236.533936 
L 72.741698 228.798545 
L 73.202505 220.734434 
L 76.393609 213.314253 
L 81.930118 207.432987 
L 89.144246 203.800001 
L 97.165863 202.853489 
L 97.165863 202.853489 
" clip-path="url(#p2fe4ef700f)" style="fill: none; stroke: #7d8288; stroke-opacity: 0.85; stroke-width: 1.7; stroke-linecap: round"/>
   </g>
   <g id="patch_27">
    <path d="M 95.839024 235.45122 
C 98.326112 235.45122 100.71167 234.463089 102.470306 232.704453 
C 104.228943 230.945816 105.217073 228.560258 105.217073 226.073171 
C 105.217073 223.586083 104.228943 221.200525 102.470306 219.441889 
C 100.71167 217.683252 98.326112 216.695122 95.839024 216.695122 
C 93.351937 216.695122 90.966379 217.683252 89.207743 219.441889 
C 87.449106 221.200525 86.460976 223.586083 86.460976 226.073171 
C 86.460976 228.560258 87.449106 230.945816 89.207743 232.704453 
C 90.966379 234.463089 93.351937 235.45122 95.839024 235.45122 
z
" clip-path="url(#p2fe4ef700f)" style="fill: #9aa0a6; fill-opacity: 0.3"/>
   </g>
   <g id="patch_28">
    <path d="M 107.092683 203.003171 
C 108.933128 203.003171 110.698441 202.271954 111.999832 200.970563 
C 113.301223 199.669172 114.032439 197.903859 114.032439 196.063415 
C 114.032439 194.22297 113.301223 192.457657 111.999832 191.156266 
C 110.698441 189.854875 108.933128 189.123659 107.092683 189.123659 
C 105.252238 189.123659 103.486925 189.854875 102.185534 191.156266 
C 100.884143 192.457657 100.152927 194.22297 100.152927 196.063415 
C 100.152927 197.903859 100.884143 199.669172 102.185534 200.970563 
C 103.486925 202.271954 105.252238 203.003171 107.092683 203.003171 
z
" clip-path="url(#p2fe4ef700f)" style="fill: #9aa0a6; fill-opacity: 0.3"/>
   </g>
   <g id="patch_29">
    <path d="M 87.058084 222.780318 
L 100.594787 193.626704 
L 113.590579 198.500126 
L 104.619965 229.366023 
z
" clip-path="url(#p2fe4ef700f)" style="fill: #9aa0a6; fill-opacity: 0.3"/>
   </g>
   <g id="patch_30">
    <path d="M 107.092683 203.003171 
C 108.933128 203.003171 110.698441 202.271954 111.999832 200.970563 
C 113.301223 199.669172 114.032439 197.903859 114.032439 196.063415 
C 114.032439 194.22297 113.301223 192.457657 111.999832 191.156266 
C 110.698441 189.854875 108.933128 189.123659 107.092683 189.123659 
C 105.252238 189.123659 103.486925 189.854875 102.185534 191.156266 
C 100.884143 192.457657 100.152927 194.22297 100.152927 196.063415 
C 100.152927 197.903859 100.884143 199.669172 102.185534 200.970563 
C 103.486925 202.271954 105.252238 203.003171 107.092683 203.003171 
z
" clip-path="url(#p2fe4ef700f)" style="fill: #9aa0a6; fill-opacity: 0.3"/>
   </g>
   <g id="patch_31">
    <path d="M 92.087805 222.509512 
C 93.629799 222.509512 95.108845 221.896871 96.1992 220.806517 
C 97.289554 219.716162 97.902195 218.237116 97.902195 216.695122 
C 97.902195 215.153128 97.289554 213.674082 96.1992 212.583727 
C 95.108845 211.493373 93.629799 210.880732 92.087805 210.880732 
C 90.545811 210.880732 89.066765 211.493373 87.97641 212.583727 
C 86.886055 213.674082 86.273415 215.153128 86.273415 216.695122 
C 86.273415 218.237116 86.886055 219.716162 87.97641 220.806517 
C 89.066765 221.896871 90.545811 222.509512 92.087805 222.509512 
z
" clip-path="url(#p2fe4ef700f)" style="fill: #9aa0a6; fill-opacity: 0.3"/>
   </g>
   <g id="patch_32">
    <path d="M 112.705114 200.145183 
L 96.790112 220.114982 
L 87.385498 213.275262 
L 101.480252 191.981647 
z
" clip-path="url(#p2fe4ef700f)" style="fill: #9aa0a6; fill-opacity: 0.3"/>
   </g>
   <g id="patch_33">
    <path d="M 168.987805 236.156449 
C 170.169669 236.156449 171.303286 235.686889 172.13899 234.851185 
C 172.974694 234.015481 173.444254 232.881864 173.444254 231.7 
C 173.444254 230.518136 172.974694 229.384519 172.13899 228.548815 
C 171.303286 227.713111 170.169669 227.243551 168.987805 227.243551 
C 167.805941 227.243551 166.672324 227.713111 165.83662 228.548815 
C 165.000916 229.384519 164.531356 230.518136 164.531356 231.7 
C 164.531356 232.881864 165.000916 234.015481 165.83662 234.851185 
C 166.672324 235.686889 167.805941 236.156449 168.987805 236.156449 
z
" clip-path="url(#p2fe4ef700f)" style="fill: #9aa0a6; fill-opacity: 0.3; stroke: #7d8288; stroke-opacity: 0.85; stroke-width: 1.3; stroke-linejoin: miter"/>
   </g>
   <g id="patch_34">
    <path d="M 92.087805 222.884634 
C 93.729283 222.884634 95.303751 222.232468 96.464451 221.071768 
C 97.625151 219.911068 98.277317 218.3366 98.277317 216.695122 
C 98.277317 215.053644 97.625151 213.479176 96.464451 212.318476 
C 95.303751 211.157776 93.729283 210.50561 92.087805 210.50561 
C 90.446327 210.50561 88.871859 211.157776 87.711159 212.318476 
C 86.550459 213.479176 85.898293 215.053644 85.898293 216.695122 
C 85.898293 218.3366 86.550459 219.911068 87.711159 221.071768 
C 88.871859 222.232468 90.446327 222.884634 92.087805 222.884634 
z
" clip-path="url(#p2fe4ef700f)" style="fill: #9aa0a6; fill-opacity: 0.3; stroke: #7d8288; stroke-opacity: 0.85; stroke-width: 1.6; stroke-linejoin: miter"/>
   </g>
   <g id="line2d_6">
    <path d="M 173.625444 222.353573 
L 184.317399 249.390606 
L 185.492776 252.358134 
L 185.582315 255.548701 
L 184.575216 258.577477 
L 182.59295 261.079147 
L 179.874607 262.751973 
L 176.74806 263.394188 
L 173.590417 262.92833 
L 170.782536 261.41059 
L 168.663089 259.024028 
L 149.345288 237.295207 
L 147.522254 232.692511 
L 147.383378 227.743877 
L 148.94541 223.046183 
L 152.019945 219.166041 
L 156.23615 216.571454 
L 161.085487 215.575366 
L 165.983056 216.297921 
L 170.338137 218.651967 
L 173.625444 222.353573 
L 173.625444 222.353573 
" clip-path="url(#p2fe4ef700f)" style="fill: none; stroke: #7d8288; stroke-opacity: 0.85; stroke-width: 1.7; stroke-linecap: round"/>
   </g>
   <g id="line2d_7">
    <path d="M 167.771382 257.113605 
L 163.115918 233.657296 
L 162.800602 231.530953 
L 163.231553 229.424999 
L 164.356794 227.593445 
L 166.040603 226.257201 
L 168.079887 225.577439 
L 170.228681 225.636149 
L 172.227806 226.426248 
L 173.836139 227.85244 
L 174.859692 229.742704 
L 185.209106 251.30103 
L 185.677303 254.458327 
L 185.037405 257.585348 
L 183.366594 260.30493 
L 180.866393 262.289049 
L 177.838364 263.298392 
L 174.647732 263.211217 
L 171.679333 262.038039 
L 169.291202 259.92036 
L 167.771382 257.113605 
L 167.771382 257.113605 
" clip-path="url(#p2fe4ef700f)" style="fill: none; stroke: #7d8288; stroke-opacity: 0.85; stroke-width: 1.7; stroke-linecap: round"/>
   </g>
   <g id="line2d_8">
    <path d="M 168.987805 226.438915 
L 182.117073 228.295768 
L 183.281389 228.501069 
L 184.305271 229.092207 
L 185.065224 229.997884 
L 185.469587 231.108861 
L 185.469587 232.291139 
L 185.065224 233.402116 
L 184.305271 234.307793 
L 183.281389 234.898931 
L 182.117073 235.104232 
L 168.987805 236.961085 
L 167.188408 236.643803 
L 165.606044 235.730225 
L 164.431571 234.330543 
L 163.806647 232.613578 
L 163.806647 230.786422 
L 164.431571 229.069457 
L 165.606044 227.669775 
L 167.188408 226.756197 
L 168.987805 226.438915 
L 168.987805 226.438915 
" clip-path="url(#p2fe4ef700f)" style="fill: none; stroke: #7d8288; stroke-opacity: 0.85; stroke-width: 1.5; stroke-linecap: round"/>
   </g>
   <g id="line2d_9">
    <path d="M 87.058084 222.780318 
L 100.594787 193.626704 
L 101.820062 191.551244 
L 103.681293 190.020019 
L 105.953989 189.217716 
L 108.364027 189.241106 
L 110.620723 190.087367 
L 112.451885 191.654427 
L 113.636648 193.753276 
L 114.032112 196.130763 
L 113.590579 198.500126 
L 104.619965 229.366023 
L 102.964188 232.170699 
L 100.44901 234.239922 
L 97.377801 235.324115 
L 94.120992 235.292507 
L 91.071403 234.148911 
L 88.59686 232.031262 
L 86.995829 229.194979 
L 86.461417 225.98216 
L 87.058084 222.780318 
L 87.058084 222.780318 
" clip-path="url(#p2fe4ef700f)" style="fill: none; stroke: #7d8288; stroke-opacity: 0.85; stroke-width: 1.7; stroke-linecap: round"/>
   </g>
   <g id="line2d_10">
    <path d="M 112.705114 200.145183 
L 96.790112 220.114982 
L 95.336867 221.517023 
L 93.491738 222.337471 
L 91.477273 222.477369 
L 89.536448 221.919843 
L 87.903353 220.732138 
L 86.774966 219.05751 
L 86.287385 217.097942 
L 86.499421 215.089789 
L 87.385498 213.275262 
L 101.480252 191.981647 
L 103.21477 190.308243 
L 105.417021 189.328998 
L 107.821382 189.162023 
L 110.137851 189.827457 
L 112.087028 191.24504 
L 113.433813 193.243791 
L 114.015765 195.582629 
L 113.76269 197.979458 
L 112.705114 200.145183 
L 112.705114 200.145183 
" clip-path="url(#p2fe4ef700f)" style="fill: none; stroke: #7d8288; stroke-opacity: 0.85; stroke-width: 1.7; stroke-linecap: round"/>
   </g>
   <g id="patch_35">
    <path d="M 80.834146 239.202439 
C 84.813487 239.202439 88.630379 237.62143 91.444197 234.807612 
C 94.258016 231.993794 95.839024 228.176901 95.839024 224.197561 
C 95.839024 220.218221 94.258016 216.401328 91.444197 213.58751 
C 88.630379 210.773692 84.813487 209.192683 80.834146 209.192683 
C 76.854806 209.192683 73.037914 210.773692 70.224095 213.58751 
C 67.410277 216.401328 65.829268 220.218221 65.829268 224.197561 
C 65.829268 228.176901 67.410277 231.993794 70.224095 234.807612 
C 73.037914 237.62143 76.854806 239.202439 80.834146 239.202439 
z
" clip-path="url(#p2fe4ef700f)" style="fill: #9aa0a6; fill-opacity: 0.3; stroke: #7d8288; stroke-opacity: 0.85; stroke-width: 1.8; stroke-linejoin: miter"/>
   </g>
   <g id="patch_36">
    <path d="M 95.839024 234.700976 
C 98.127145 234.700976 100.321858 233.791896 101.939804 232.17395 
C 103.557749 230.556004 104.466829 228.361291 104.466829 226.073171 
C 104.466829 223.78505 103.557749 221.590337 101.939804 219.972391 
C 100.321858 218.354446 98.127145 217.445366 95.839024 217.445366 
C 93.550904 217.445366 91.356191 218.354446 89.738245 219.972391 
C 88.120299 221.590337 87.21122 223.78505 87.21122 226.073171 
C 87.21122 228.361291 88.120299 230.556004 89.738245 232.17395 
C 91.356191 233.791896 93.550904 234.700976 95.839024 234.700976 
z
" clip-path="url(#p2fe4ef700f)" style="fill: #2c3e50; fill-opacity: 0.95"/>
   </g>
   <g id="patch_37">
    <path d="M 123.973171 200.57238 
C 125.66638 200.57238 127.290468 199.899661 128.487747 198.702382 
C 129.685027 197.505102 130.357746 195.881014 130.357746 194.187805 
C 130.357746 192.494596 129.685027 190.870508 128.487747 189.673228 
C 127.290468 188.475948 125.66638 187.803229 123.973171 187.803229 
C 122.279961 187.803229 120.655874 188.475948 119.458594 189.673228 
C 118.261314 190.870508 117.588595 192.494596 117.588595 194.187805 
C 117.588595 195.881014 118.261314 197.505102 119.458594 198.702382 
C 120.655874 199.899661 122.279961 200.57238 123.973171 200.57238 
z
" clip-path="url(#p2fe4ef700f)" style="fill: #2c3e50; fill-opacity: 0.95"/>
   </g>
   <g id="patch_38">
    <path d="M 89.36957 220.364828 
L 119.185774 189.963632 
L 128.760567 198.411978 
L 102.308479 231.781513 
z
" clip-path="url(#p2fe4ef700f)" style="fill: #2c3e50; fill-opacity: 0.95"/>
   </g>
   <g id="patch_39">
    <path d="M 123.973171 200.57238 
C 125.66638 200.57238 127.290468 199.899661 128.487747 198.702382 
C 129.685027 197.505102 130.357746 195.881014 130.357746 194.187805 
C 130.357746 192.494596 129.685027 190.870508 128.487747 189.673228 
C 127.290468 188.475948 125.66638 187.803229 123.973171 187.803229 
C 122.279961 187.803229 120.655874 188.475948 119.458594 189.673228 
C 118.261314 190.870508 117.588595 192.494596 117.588595 194.187805 
C 117.588595 195.881014 118.261314 197.505102 119.458594 198.702382 
C 120.655874 199.899661 122.279961 200.57238 123.973171 200.57238 
z
" clip-path="url(#p2fe4ef700f)" style="fill: #2c3e50; fill-opacity: 0.95"/>
   </g>
   <g id="patch_40">
    <path d="M 116.470732 171.402898 
C 117.889366 171.402898 119.250089 170.839268 120.253215 169.836142 
C 121.256341 168.833015 121.819971 167.472293 121.819971 166.053659 
C 121.819971 164.635024 121.256341 163.274302 120.253215 162.271175 
C 119.250089 161.268049 117.889366 160.70442 116.470732 160.70442 
C 115.052097 160.70442 113.691375 161.268049 112.688249 162.271175 
C 111.685122 163.274302 111.121493 164.635024 111.121493 166.053659 
C 111.121493 167.472293 111.685122 168.833015 112.688249 169.836142 
C 113.691375 170.839268 115.052097 171.402898 116.470732 171.402898 
z
" clip-path="url(#p2fe4ef700f)" style="fill: #2c3e50; fill-opacity: 0.95"/>
   </g>
   <g id="patch_41">
    <path d="M 117.804171 195.832872 
L 111.30211 167.431958 
L 121.639353 164.675359 
L 130.142171 192.542738 
z
" clip-path="url(#p2fe4ef700f)" style="fill: #2c3e50; fill-opacity: 0.95"/>
   </g>
   <g id="patch_42">
    <path d="M 116.470732 171.933695 
C 118.030136 171.933695 119.52588 171.314137 120.628545 170.211472 
C 121.731211 169.108807 122.350768 167.613062 122.350768 166.053659 
C 122.350768 164.494255 121.731211 162.99851 120.628545 161.895845 
C 119.52588 160.79318 118.030136 160.173622 116.470732 160.173622 
C 114.911328 160.173622 113.415583 160.79318 112.312918 161.895845 
C 111.210253 162.99851 110.590695 164.494255 110.590695 166.053659 
C 110.590695 167.613062 111.210253 169.108807 112.312918 170.211472 
C 113.415583 171.314137 114.911328 171.933695 116.470732 171.933695 
z
" clip-path="url(#p2fe4ef700f)" style="fill: #f2e0c9; fill-opacity: 0.95; stroke: #a49888; stroke-width: 1.3; stroke-linejoin: miter"/>
   </g>
   <g id="line2d_11">
    <path d="M 89.36957 220.364828 
L 119.185774 189.963632 
L 120.919242 188.580994 
L 123.021059 187.874621 
L 125.237714 187.929711 
L 127.301847 188.73962 
L 128.964492 190.20666 
L 130.02511 192.153885 
L 130.355776 194.34643 
L 129.916604 196.519843 
L 128.760567 198.411978 
L 102.308479 231.781513 
L 99.965955 233.649942 
L 97.125662 234.6045 
L 94.130182 234.530054 
L 91.340814 233.435583 
L 89.093996 231.453097 
L 87.660728 228.821712 
L 87.213883 225.858812 
L 87.807357 222.921767 
L 89.36957 220.364828 
L 89.36957 220.364828 
" clip-path="url(#p2fe4ef700f)" style="fill: none; stroke: #1d2a36; stroke-width: 1.7; stroke-linecap: round"/>
   </g>
   <g id="line2d_12">
    <path d="M 117.804171 195.832872 
L 111.30211 167.431958 
L 111.14241 165.581063 
L 111.625384 163.787171 
L 112.692779 162.26665 
L 114.21585 161.202899 
L 116.010894 160.724221 
L 117.8614 160.888351 
L 119.544172 161.675494 
L 120.856241 162.990708 
L 121.639353 164.675359 
L 130.142171 192.542738 
L 130.33278 194.75187 
L 129.756327 196.892967 
L 128.48234 198.707782 
L 126.664481 199.977421 
L 124.52201 200.548747 
L 122.31334 200.352849 
L 120.304871 199.413356 
L 118.738853 197.843584 
L 117.804171 195.832872 
L 117.804171 195.832872 
" clip-path="url(#p2fe4ef700f)" style="fill: none; stroke: #1d2a36; stroke-width: 1.7; stroke-linecap: round"/>
   </g>
   <g id="patch_43">
    <path d="M 80.834146 231.7 
C 82.823816 231.7 84.732263 230.909496 86.139172 229.502586 
C 87.546081 228.095677 88.336585 226.187231 88.336585 224.197561 
C 88.336585 222.207891 87.546081 220.299445 86.139172 218.892535 
C 84.732263 217.485626 82.823816 216.695122 80.834146 216.695122 
C 78.844476 216.695122 76.93603 217.485626 75.529121 218.892535 
C 74.122212 220.299445 73.331707 222.207891 73.331707 224.197561 
C 73.331707 226.187231 74.122212 228.095677 75.529121 229.502586 
C 76.93603 230.909496 78.844476 231.7 80.834146 231.7 
z
" clip-path="url(#p2fe4ef700f)" style="fill: #2c3e50"/>
   </g>
   <g id="patch_44">
    <path d="M 95.839024 237.701951 
C 98.923013 237.701951 101.881105 236.47667 104.061814 234.29596 
C 106.242523 232.115251 107.467805 229.157159 107.467805 226.073171 
C 107.467805 222.989182 106.242523 220.03109 104.061814 217.850381 
C 101.881105 215.669672 98.923013 214.44439 95.839024 214.44439 
C 92.755036 214.44439 89.796944 215.669672 87.616235 217.850381 
C 85.435526 220.03109 84.210244 222.989182 84.210244 226.073171 
C 84.210244 229.157159 85.435526 232.115251 87.616235 234.29596 
C 89.796944 236.47667 92.755036 237.701951 95.839024 237.701951 
z
" clip-path="url(#p2fe4ef700f)" style="fill: #2c3e50"/>
   </g>
   <g id="patch_45">
    <path d="M 81.764709 216.753057 
L 97.281397 214.534189 
L 94.396652 237.612152 
L 79.903583 231.642065 
z
" clip-path="url(#p2fe4ef700f)" style="fill: #2c3e50"/>
   </g>
   <g id="patch_46">
    <path d="M 95.839024 249.330732 
C 102.007002 249.330732 107.923185 246.880168 112.284603 242.51875 
C 116.646022 238.157331 119.096585 232.241148 119.096585 226.073171 
C 119.096585 219.905193 116.646022 213.98901 112.284603 209.627592 
C 107.923185 205.266173 102.007002 202.81561 95.839024 202.81561 
C 89.671047 202.81561 83.754864 205.266173 79.393445 209.627592 
C 75.032027 213.98901 72.581463 219.905193 72.581463 226.073171 
C 72.581463 232.241148 75.032027 238.157331 79.393445 242.51875 
C 83.754864 246.880168 89.671047 249.330732 95.839024 249.330732 
z
" clip-path="url(#p2fe4ef700f)" style="fill: #2c3e50"/>
   </g>
   <g id="patch_47">
    <path d="M 161.485366 247.08 
C 166.061607 247.08 170.451033 245.26184 173.686925 242.025949 
C 176.922816 238.790058 178.740976 234.400631 178.740976 229.82439 
C 178.740976 225.248149 176.922816 220.858723 173.686925 217.622832 
C 170.451033 214.38694 166.061607 212.56878 161.485366 212.56878 
C 156.909125 212.56878 152.519698 214.38694 149.283807 217.622832 
C 146.047916 220.858723 144.229756 225.248149 144.229756 229.82439 
C 144.229756 234.400631 146.047916 238.790058 149.283807 242.025949 
C 152.519698 245.26184 156.909125 247.08 161.485366 247.08 
z
" clip-path="url(#p2fe4ef700f)" style="fill: #2c3e50"/>
   </g>
   <g id="patch_48">
    <path d="M 97.165863 202.853489 
L 162.469795 212.596884 
L 160.500937 247.051896 
L 94.512185 249.292853 
z
" clip-path="url(#p2fe4ef700f)" style="fill: #2c3e50"/>
   </g>
   <g id="patch_49">
    <path d="M 161.485366 244.079024 
C 165.265739 244.079024 168.891787 242.577066 171.564914 239.903939 
C 174.238042 237.230811 175.74 233.604763 175.74 229.82439 
C 175.74 226.044017 174.238042 222.417969 171.564914 219.744842 
C 168.891787 217.071714 165.265739 215.569756 161.485366 215.569756 
C 157.704993 215.569756 154.078945 217.071714 151.405817 219.744842 
C 148.73269 222.417969 147.230732 226.044017 147.230732 229.82439 
C 147.230732 233.604763 148.73269 237.230811 151.405817 239.903939 
C 154.078945 242.577066 157.704993 244.079024 161.485366 244.079024 
z
" clip-path="url(#p2fe4ef700f)" style="fill: #3c3f42"/>
   </g>
   <g id="patch_50">
    <path d="M 176.490244 263.397805 
C 178.92759 263.397805 181.265436 262.429437 182.9889 260.705973 
C 184.712364 258.98251 185.680732 256.644663 185.680732 254.207317 
C 185.680732 251.769971 184.712364 249.432125 182.9889 247.708661 
C 181.265436 245.985197 178.92759 245.016829 176.490244 245.016829 
C 174.052898 245.016829 171.715051 245.985197 169.991588 247.708661 
C 168.268124 249.432125 167.299756 251.769971 167.299756 254.207317 
C 167.299756 256.644663 168.268124 258.98251 169.991588 260.705973 
C 171.715051 262.429437 174.052898 263.397805 176.490244 263.397805 
z
" clip-path="url(#p2fe4ef700f)" style="fill: #3c3f42"/>
   </g>
   <g id="patch_51">
    <path d="M 173.625444 222.353573 
L 184.317399 249.390606 
L 168.663089 259.024028 
L 149.345288 237.295207 
z
" clip-path="url(#p2fe4ef700f)" style="fill: #3c3f42"/>
   </g>
   <g id="patch_52">
    <path d="M 176.490244 263.397805 
C 178.92759 263.397805 181.265436 262.429437 182.9889 260.705973 
C 184.712364 258.98251 185.680732 256.644663 185.680732 254.207317 
C 185.680732 251.769971 184.712364 249.432125 182.9889 247.708661 
C 181.265436 245.985197 178.92759 245.016829 176.490244 245.016829 
C 174.052898 245.016829 171.715051 245.985197 169.991588 247.708661 
C 168.268124 249.432125 167.299756 251.769971 167.299756 254.207317 
C 167.299756 256.644663 168.268124 258.98251 169.991588 260.705973 
C 171.715051 262.429437 174.052898 263.397805 176.490244 263.397805 
z
" clip-path="url(#p2fe4ef700f)" style="fill: #3c3f42"/>
   </g>
   <g id="patch_53">
    <path d="M 168.987805 237.889512 
C 170.629283 237.889512 172.203751 237.237346 173.364451 236.076646 
C 174.525151 234.915946 175.177317 233.341478 175.177317 231.7 
C 175.177317 230.058522 174.525151 228.484054 173.364451 227.323354 
C 172.203751 226.162654 170.629283 225.510488 168.987805 225.510488 
C 167.346327 225.510488 165.771859 226.162654 164.611159 227.323354 
C 163.450459 228.484054 162.798293 230.058522 162.798293 231.7 
C 162.798293 233.341478 163.450459 234.915946 164.611159 236.076646 
C 165.771859 237.237346 167.346327 237.889512 168.987805 237.889512 
z
" clip-path="url(#p2fe4ef700f)" style="fill: #3c3f42"/>
   </g>
   <g id="patch_54">
    <path d="M 167.771382 257.113605 
L 163.115918 233.657296 
L 174.859692 229.742704 
L 185.209106 251.30103 
z
" clip-path="url(#p2fe4ef700f)" style="fill: #3c3f42"/>
   </g>
   <g id="patch_55">
    <path d="M 168.987805 236.961085 
C 170.383061 236.961085 171.721359 236.406744 172.707954 235.420149 
C 173.694549 234.433554 174.24889 233.095256 174.24889 231.7 
C 174.24889 230.304744 173.694549 228.966446 172.707954 227.979851 
C 171.721359 226.993256 170.383061 226.438915 168.987805 226.438915 
C 167.592549 226.438915 166.254251 226.993256 165.267656 227.979851 
C 164.281061 228.966446 163.72672 230.304744 163.72672 231.7 
C 163.72672 233.095256 164.281061 234.433554 165.267656 235.420149 
C 166.254251 236.406744 167.592549 236.961085 168.987805 236.961085 
z
" clip-path="url(#p2fe4ef700f)" style="fill: #1b1b1b"/>
   </g>
   <g id="patch_56">
    <path d="M 182.117073 235.104232 
C 183.019886 235.104232 183.885843 234.74554 184.524228 234.107155 
C 185.162614 233.46877 185.521305 232.602813 185.521305 231.7 
C 185.521305 230.797187 185.162614 229.93123 184.524228 229.292845 
C 183.885843 228.65446 183.019886 228.295768 182.117073 228.295768 
C 181.21426 228.295768 180.348303 228.65446 179.709918 229.292845 
C 179.071533 229.93123 178.712841 230.797187 178.712841 231.7 
C 178.712841 232.602813 179.071533 233.46877 179.709918 234.107155 
C 180.348303 234.74554 181.21426 235.104232 182.117073 235.104232 
z
" clip-path="url(#p2fe4ef700f)" style="fill: #1b1b1b"/>
   </g>
   <g id="patch_57">
    <path d="M 168.987805 226.438915 
L 182.117073 228.295768 
L 182.117073 235.104232 
L 168.987805 236.961085 
z
" clip-path="url(#p2fe4ef700f)" style="fill: #1b1b1b"/>
   </g>
   <g id="line2d_13">
    <path d="M 81.764709 216.753057 
L 97.281397 214.534189 
L 101.140976 215.723395 
L 104.36106 218.160937 
L 106.553262 221.552811 
L 107.453168 225.489907 
L 106.952238 229.497354 
L 105.110889 233.091793 
L 102.151217 235.839683 
L 98.430202 237.409587 
L 94.396652 237.612152 
L 79.903583 231.642065 
L 77.413533 230.874835 
L 75.336059 229.302228 
L 73.921735 227.113922 
L 73.34115 224.57386 
L 73.664331 221.988411 
L 74.852298 219.669418 
L 76.761764 217.896585 
L 79.162419 216.883744 
L 81.764709 216.753057 
L 81.764709 216.753057 
" clip-path="url(#p2fe4ef700f)" style="fill: none; stroke: #1d2a36; stroke-width: 1.7; stroke-linecap: round"/>
   </g>
   <g id="line2d_14">
    <path d="M 97.165863 202.853489 
L 162.469795 212.596884 
L 168.302581 213.972524 
L 173.31311 217.260134 
L 176.897038 222.063178 
L 178.622092 227.802338 
L 178.280203 233.785389 
L 175.912609 239.290684 
L 171.804877 243.654204 
L 166.452459 246.349645 
L 160.500937 247.051896 
L 94.512185 249.292853 
L 86.650605 247.438729 
L 79.897283 243.007604 
L 75.06677 236.533936 
L 72.741698 228.798545 
L 73.202505 220.734434 
L 76.393609 213.314253 
L 81.930118 207.432987 
L 89.144246 203.800001 
L 97.165863 202.853489 
L 97.165863 202.853489 
" clip-path="url(#p2fe4ef700f)" style="fill: none; stroke: #1d2a36; stroke-width: 1.7; stroke-linecap: round"/>
   </g>
   <g id="patch_58">
    <path d="M 95.839024 235.45122 
C 98.326112 235.45122 100.71167 234.463089 102.470306 232.704453 
C 104.228943 230.945816 105.217073 228.560258 105.217073 226.073171 
C 105.217073 223.586083 104.228943 221.200525 102.470306 219.441889 
C 100.71167 217.683252 98.326112 216.695122 95.839024 216.695122 
C 93.351937 216.695122 90.966379 217.683252 89.207743 219.441889 
C 87.449106 221.200525 86.460976 223.586083 86.460976 226.073171 
C 86.460976 228.560258 87.449106 230.945816 89.207743 232.704453 
C 90.966379 234.463089 93.351937 235.45122 95.839024 235.45122 
z
" clip-path="url(#p2fe4ef700f)" style="fill: #2c3e50"/>
   </g>
   <g id="patch_59">
    <path d="M 105.217073 201.127561 
C 107.057518 201.127561 108.822831 200.396344 110.124222 199.094953 
C 111.425613 197.793562 112.156829 196.02825 112.156829 194.187805 
C 112.156829 192.34736 111.425613 190.582047 110.124222 189.280656 
C 108.822831 187.979265 107.057518 187.248049 105.217073 187.248049 
C 103.376628 187.248049 101.611316 187.979265 100.309925 189.280656 
C 99.008534 190.582047 98.277317 192.34736 98.277317 194.187805 
C 98.277317 196.02825 99.008534 197.793562 100.309925 199.094953 
C 101.611316 200.396344 103.376628 201.127561 105.217073 201.127561 
z
" clip-path="url(#p2fe4ef700f)" style="fill: #2c3e50"/>
   </g>
   <g id="patch_60">
    <path d="M 86.842048 223.427001 
L 98.559311 192.229639 
L 111.874836 196.14597 
L 104.836001 228.71934 
z
" clip-path="url(#p2fe4ef700f)" style="fill: #2c3e50"/>
   </g>
   <g id="patch_61">
    <path d="M 105.217073 201.127561 
C 107.057518 201.127561 108.822831 200.396344 110.124222 199.094953 
C 111.425613 197.793562 112.156829 196.02825 112.156829 194.187805 
C 112.156829 192.34736 111.425613 190.582047 110.124222 189.280656 
C 108.822831 187.979265 107.057518 187.248049 105.217073 187.248049 
C 103.376628 187.248049 101.611316 187.979265 100.309925 189.280656 
C 99.008534 190.582047 98.277317 192.34736 98.277317 194.187805 
C 98.277317 196.02825 99.008534 197.793562 100.309925 199.094953 
C 101.611316 200.396344 103.376628 201.127561 105.217073 201.127561 
z
" clip-path="url(#p2fe4ef700f)" style="fill: #2c3e50"/>
   </g>
   <g id="patch_62">
    <path d="M 112.719512 171.868049 
C 114.261507 171.868049 115.740552 171.255408 116.830907 170.165053 
C 117.921262 169.074699 118.533902 167.595653 118.533902 166.053659 
C 118.533902 164.511664 117.921262 163.032618 116.830907 161.942264 
C 115.740552 160.851909 114.261507 160.239268 112.719512 160.239268 
C 111.177518 160.239268 109.698472 160.851909 108.608117 161.942264 
C 107.517763 163.032618 106.905122 164.511664 106.905122 166.053659 
C 106.905122 167.595653 107.517763 169.074699 108.608117 170.165053 
C 109.698472 171.255408 111.177518 171.868049 112.719512 171.868049 
z
" clip-path="url(#p2fe4ef700f)" style="fill: #2c3e50"/>
   </g>
   <g id="patch_63">
    <path d="M 98.511638 192.399689 
L 107.101445 164.555507 
L 118.337579 167.55181 
L 111.922508 195.975921 
z
" clip-path="url(#p2fe4ef700f)" style="fill: #2c3e50"/>
   </g>
   <g id="patch_64">
    <path d="M 168.987805 236.156449 
C 170.169669 236.156449 171.303286 235.686889 172.13899 234.851185 
C 172.974694 234.015481 173.444254 232.881864 173.444254 231.7 
C 173.444254 230.518136 172.974694 229.384519 172.13899 228.548815 
C 171.303286 227.713111 170.169669 227.243551 168.987805 227.243551 
C 167.805941 227.243551 166.672324 227.713111 165.83662 228.548815 
C 165.000916 229.384519 164.531356 230.518136 164.531356 231.7 
C 164.531356 232.881864 165.000916 234.015481 165.83662 234.851185 
C 166.672324 235.686889 167.805941 236.156449 168.987805 236.156449 
z
" clip-path="url(#p2fe4ef700f)" style="fill: #1b1b1b; stroke: #121212; stroke-width: 1.3; stroke-linejoin: miter"/>
   </g>
   <g id="patch_65">
    <path d="M 112.719512 172.243171 
C 114.36099 172.243171 115.935458 171.591005 117.096158 170.430305 
C 118.256858 169.269604 118.909024 167.695136 118.909024 166.053659 
C 118.909024 164.412181 118.256858 162.837713 117.096158 161.677012 
C 115.935458 160.516312 114.36099 159.864146 112.719512 159.864146 
C 111.078034 159.864146 109.503566 160.516312 108.342866 161.677012 
C 107.182166 162.837713 106.53 164.412181 106.53 166.053659 
C 106.53 167.695136 107.182166 169.269604 108.342866 170.430305 
C 109.503566 171.591005 111.078034 172.243171 112.719512 172.243171 
z
" clip-path="url(#p2fe4ef700f)" style="fill: #f2e0c9; stroke: #a49888; stroke-width: 1.6; stroke-linejoin: miter"/>
   </g>
   <g id="line2d_15">
    <path d="M 173.625444 222.353573 
L 184.317399 249.390606 
L 185.492776 252.358134 
L 185.582315 255.548701 
L 184.575216 258.577477 
L 182.59295 261.079147 
L 179.874607 262.751973 
L 176.74806 263.394188 
L 173.590417 262.92833 
L 170.782536 261.41059 
L 168.663089 259.024028 
L 149.345288 237.295207 
L 147.522254 232.692511 
L 147.383378 227.743877 
L 148.94541 223.046183 
L 152.019945 219.166041 
L 156.23615 216.571454 
L 161.085487 215.575366 
L 165.983056 216.297921 
L 170.338137 218.651967 
L 173.625444 222.353573 
L 173.625444 222.353573 
" clip-path="url(#p2fe4ef700f)" style="fill: none; stroke: #282a2c; stroke-width: 1.7; stroke-linecap: round"/>
   </g>
   <g id="line2d_16">
    <path d="M 167.771382 257.113605 
L 163.115918 233.657296 
L 162.800602 231.530953 
L 163.231553 229.424999 
L 164.356794 227.593445 
L 166.040603 226.257201 
L 168.079887 225.577439 
L 170.228681 225.636149 
L 172.227806 226.426248 
L 173.836139 227.85244 
L 174.859692 229.742704 
L 185.209106 251.30103 
L 185.677303 254.458327 
L 185.037405 257.585348 
L 183.366594 260.30493 
L 180.866393 262.289049 
L 177.838364 263.298392 
L 174.647732 263.211217 
L 171.679333 262.038039 
L 169.291202 259.92036 
L 167.771382 257.113605 
L 167.771382 257.113605 
" clip-path="url(#p2fe4ef700f)" style="fill: none; stroke: #282a2c; stroke-width: 1.7; stroke-linecap: round"/>
   </g>
   <g id="line2d_17">
    <path d="M 168.987805 226.438915 
L 182.117073 228.295768 
L 183.281389 228.501069 
L 184.305271 229.092207 
L 185.065224 229.997884 
L 185.469587 231.108861 
L 185.469587 232.291139 
L 185.065224 233.402116 
L 184.305271 234.307793 
L 183.281389 234.898931 
L 182.117073 235.104232 
L 168.987805 236.961085 
L 167.188408 236.643803 
L 165.606044 235.730225 
L 164.431571 234.330543 
L 163.806647 232.613578 
L 163.806647 230.786422 
L 164.431571 229.069457 
L 165.606044 227.669775 
L 167.188408 226.756197 
L 168.987805 226.438915 
L 168.987805 226.438915 
" clip-path="url(#p2fe4ef700f)" style="fill: none; stroke: #121212; stroke-width: 1.5; stroke-linecap: round"/>
   </g>
   <g id="line2d_18">
    <path d="M 86.842048 223.427001 
L 98.559311 192.229639 
L 99.630555 190.070642 
L 101.375616 188.408236 
L 103.584013 187.442931 
L 105.989381 187.291157 
L 108.301598 187.971221 
L 110.241776 189.401096 
L 111.5759 191.408319 
L 112.143056 193.75079 
L 111.874836 196.14597 
L 104.836001 228.71934 
L 103.388374 231.636904 
L 101.030183 233.883399 
L 98.045863 235.187866 
L 94.795365 235.392965 
L 91.670748 234.47396 
L 89.048886 232.541696 
L 87.246016 229.829232 
L 86.479589 226.663732 
L 86.842048 223.427001 
L 86.842048 223.427001 
" clip-path="url(#p2fe4ef700f)" style="fill: none; stroke: #1d2a36; stroke-width: 1.7; stroke-linecap: round"/>
   </g>
   <g id="line2d_19">
    <path d="M 98.511638 192.399689 
L 107.101445 164.555507 
L 107.952654 162.724365 
L 109.378816 161.294784 
L 111.207916 160.439194 
L 113.219336 160.260791 
L 115.17047 160.781094 
L 116.825983 161.937345 
L 117.986194 163.590085 
L 118.511166 165.539968 
L 118.337579 167.55181 
L 111.922508 195.975921 
L 110.906549 198.161478 
L 109.204355 199.867752 
L 107.021237 200.88894 
L 104.620509 201.101872 
L 102.291736 200.480866 
L 100.315802 199.100824 
L 98.931033 197.128199 
L 98.304454 194.800919 
L 98.511638 192.399689 
L 98.511638 192.399689 
" clip-path="url(#p2fe4ef700f)" style="fill: none; stroke: #1d2a36; stroke-width: 1.7; stroke-linecap: round"/>
   </g>
   <g id="patch_66">
    <path d="M 80.834146 239.202439 
C 84.813487 239.202439 88.630379 237.62143 91.444197 234.807612 
C 94.258016 231.993794 95.839024 228.176901 95.839024 224.197561 
C 95.839024 220.218221 94.258016 216.401328 91.444197 213.58751 
C 88.630379 210.773692 84.813487 209.192683 80.834146 209.192683 
C 76.854806 209.192683 73.037914 210.773692 70.224095 213.58751 
C 67.410277 216.401328 65.829268 220.218221 65.829268 224.197561 
C 65.829268 228.176901 67.410277 231.993794 70.224095 234.807612 
C 73.037914 237.62143 76.854806 239.202439 80.834146 239.202439 
z
" clip-path="url(#p2fe4ef700f)" style="fill: #f2e0c9; stroke: #a49888; stroke-width: 1.8; stroke-linejoin: miter"/>
   </g>
   <g id="patch_67">
    <path d="M 93.720908 215.538611 
Q 114.997534 199.958769 113.104071 176.121985 
" clip-path="url(#p2fe4ef700f)" style="fill: none; stroke-dasharray: 2.2,0; stroke-dashoffset: 0; stroke: #c0392b; stroke-width: 2.2; stroke-linecap: round"/>
    <path d="M 110.756299 181.926119 
L 113.104071 176.121985 
L 116.338715 181.482682 
z
" clip-path="url(#p2fe4ef700f)" style="fill: #c0392b; stroke-dasharray: 2.2,0; stroke-dashoffset: 0; stroke: #c0392b; stroke-width: 2.2; stroke-linecap: round"/>
   </g>
  </g>
 </g>
 <defs>
  <clipPath id="p2fe4ef700f">
   <rect x="5.809756" y="1" width="247.580488" height="307.6"/>
  </clipPath>
 </defs>
</svg>
