<?xml version="1.0" encoding="utf-8" standalone="no"?>
<!DOCTYPE svg PUBLIC "-//W3C//DTD SVG 1.1//EN"
  "http://www.w3.org/Graphics/SVG/1.1/DTD/svg11.dtd">
<svg xmlns:xlink="http://www.w3.org/1999/xlink" width="259.2pt" height="309.6pt" viewBox="0 0 259.2 309.6" xmlns="http://www.w3.org/2000/svg" version="1.1">
 <metadata>
  <rdf:RDF xmlns:dc="http://purl.org/dc/elements/1.1/" xmlns:cc="http://creativecommons.org/ns#" xmlns:rdf="http://www.w3.org/1999/02/22-rdf-syntax-ns#">
   <cc:Work>
    <dc:type rdf:resource="http://purl.org/dc/dcmitype/StillImage"/>
    <dc:date>2026-07-10T23:04:55.553495</dc:date>
    <dc:format>image/svg+xml</dc:format>
    <dc:creator>
     <cc:Agent>
      <dc:title>Matplotlib v3.10.8, https://matplotlib.org/</dc:title>
     </cc:Agent>
    </dc:creator>
   </cc:Work>
  </rdf:RDF>
 </metadata>
 <defs>
  <style type="text/css">*{stroke-linejoin: round; stroke-linecap: butt}</style>
 </defs>
 <g id="figure_1">
  <g id="patch_1">
   <path d="M 0 309.6 
L 259.2 309.6 
L 259.2 0 
L 0 0 
L 0 309.6 
z
" style="fill: none"/>
  </g>
  <g id="axes_1">
   <g id="line2d_1">
    <path d="M 17.063415 286.092683 
L 242.136585 286.092683 
" clip-path="url(#pa2e7ae4a51)" style="fill: none; stroke: #c3c3c3; stroke-width: 3; stroke-linecap: round"/>
   </g>
   <g id="patch_2">
    <path d="M 137.102439 280.450849 
C 140.580382 280.450849 143.916346 279.069047 146.375624 276.60977 
C 148.834901 274.150493 150.216702 270.814529 150.216702 267.336585 
C 150.216702 263.858642 148.834901 260.522678 146.375624 258.063401 
C 143.916346 255.604123 140.580382 254.222322 137.102439 254.222322 
C 133.624496 254.222322 130.288532 255.604123 127.829254 258.063401 
C 125.369977 260.522678 123.988176 263.858642 123.988176 267.336585 
C 123.988176 270.814529 125.369977 274.150493 127.829254 276.60977 
C 130.288532 279.069047 133.624496 280.450849 137.102439 280.450849 
z
" clip-path="url(#pa2e7ae4a51)" style="fill: #9aa0a6; fill-opacity: 0.285"/>
   </g>
   <g id="patch_3">
    <path d="M 125.84878 227.02598 
C 128.091139 227.02598 130.241958 226.135082 131.827544 224.549495 
C 133.413131 222.963909 134.304029 220.81309 134.304029 218.570732 
C 134.304029 216.328374 133.413131 214.177555 131.827544 212.591968 
C 130.241958 211.006381 128.091139 210.115483 125.84878 210.115483 
C 123.606422 210.115483 121.455603 211.006381 119.870017 212.591968 
C 118.28443 214.177555 117.393532 216.328374 117.393532 218.570732 
C 117.393532 220.81309 118.28443 222.963909 119.870017 224.549495 
C 121.455603 226.135082 123.606422 227.02598 125.84878 227.02598 
z
" clip-path="url(#pa2e7ae4a51)" style="fill: #9aa0a6; fill-opacity: 0.285"/>
   </g>
   <g id="patch_4">
    <path d="M 124.324016 270.285452 
L 117.610061 220.471975 
L 134.0875 216.669489 
L 149.880862 264.387719 
z
" clip-path="url(#pa2e7ae4a51)" style="fill: #9aa0a6; fill-opacity: 0.285"/>
   </g>
   <g id="patch_5">
    <path d="M 125.84878 227.02598 
C 128.091139 227.02598 130.241958 226.135082 131.827544 224.549495 
C 133.413131 222.963909 134.304029 220.81309 134.304029 218.570732 
C 134.304029 216.328374 133.413131 214.177555 131.827544 212.591968 
C 130.241958 211.006381 128.091139 210.115483 125.84878 210.115483 
C 123.606422 210.115483 121.455603 211.006381 119.870017 212.591968 
C 118.28443 214.177555 117.393532 216.328374 117.393532 218.570732 
C 117.393532 220.81309 118.28443 222.963909 119.870017 224.549495 
C 121.455603 226.135082 123.606422 227.02598 125.84878 227.02598 
z
" clip-path="url(#pa2e7ae4a51)" style="fill: #9aa0a6; fill-opacity: 0.285"/>
   </g>
   <g id="patch_6">
    <path d="M 84.585366 229.891912 
C 86.095525 229.891912 87.544036 229.291919 88.61188 228.224075 
C 89.679724 227.156231 90.279717 225.707721 90.279717 224.197561 
C 90.279717 222.687401 89.679724 221.238891 88.61188 220.171047 
C 87.544036 219.103203 86.095525 218.50321 84.585366 218.50321 
C 83.075206 218.50321 81.626696 219.103203 80.558851 220.171047 
C 79.491007 221.238891 78.891015 222.687401 78.891015 224.197561 
C 78.891015 225.707721 79.491007 227.156231 80.558851 228.224075 
C 81.626696 229.291919 83.075206 229.891912 84.585366 229.891912 
z
" clip-path="url(#pa2e7ae4a51)" style="fill: #9aa0a6; fill-opacity: 0.285"/>
   </g>
   <g id="patch_7">
    <path d="M 126.991196 226.948447 
L 85.354748 229.839696 
L 83.815984 218.555426 
L 124.706365 210.193016 
z
" clip-path="url(#pa2e7ae4a51)" style="fill: #9aa0a6; fill-opacity: 0.285"/>
   </g>
   <g id="patch_8">
    <path d="M 84.585366 229.03776 
C 85.869002 229.03776 87.100236 228.527766 88.007903 227.620098 
C 88.915571 226.712431 89.425564 225.481197 89.425564 224.197561 
C 89.425564 222.913925 88.915571 221.682691 88.007903 220.775024 
C 87.100236 219.867356 85.869002 219.357362 84.585366 219.357362 
C 83.30173 219.357362 82.070496 219.867356 81.162829 220.775024 
C 80.255161 221.682691 79.745167 222.913925 79.745167 224.197561 
C 79.745167 225.481197 80.255161 226.712431 81.162829 227.620098 
C 82.070496 228.527766 83.30173 229.03776 84.585366 229.03776 
z
" clip-path="url(#pa2e7ae4a51)" style="fill: #9aa0a6; fill-opacity: 0.285"/>
   </g>
   <g id="patch_9">
    <path d="M 71.456098 229.205064 
C 72.286685 229.205064 73.083366 228.875068 73.67068 228.287754 
C 74.257995 227.700439 74.587991 226.903759 74.587991 226.073171 
C 74.587991 225.242583 74.257995 224.445902 73.67068 223.858588 
C 73.083366 223.271274 72.286685 222.941278 71.456098 222.941278 
C 70.62551 222.941278 69.828829 223.271274 69.241515 223.858588 
C 68.6542 224.445902 68.324204 225.242583 68.324204 226.073171 
C 68.324204 226.903759 68.6542 227.700439 69.241515 228.287754 
C 69.828829 228.875068 70.62551 229.205064 71.456098 229.205064 
z
" clip-path="url(#pa2e7ae4a51)" style="fill: #9aa0a6; fill-opacity: 0.285"/>
   </g>
   <g id="patch_10">
    <path d="M 85.269873 228.989113 
L 71.899014 229.173587 
L 71.013181 222.972755 
L 83.900858 219.406009 
z
" clip-path="url(#pa2e7ae4a51)" style="fill: #9aa0a6; fill-opacity: 0.285"/>
   </g>
   <g id="patch_11">
    <path d="M 73.331707 275.96439 
C 75.619828 275.96439 77.814541 275.05531 79.432487 273.437365 
C 81.050432 271.819419 81.959512 269.624706 81.959512 267.336585 
C 81.959512 265.048465 81.050432 262.853752 79.432487 261.235806 
C 77.814541 259.61786 75.619828 258.70878 73.331707 258.70878 
C 71.043587 258.70878 68.848874 259.61786 67.230928 261.235806 
C 65.612982 262.853752 64.703902 265.048465 64.703902 267.336585 
C 64.703902 269.624706 65.612982 271.819419 67.230928 273.437365 
C 68.848874 275.05531 71.043587 275.96439 73.331707 275.96439 
z
" clip-path="url(#pa2e7ae4a51)" style="fill: #9aa0a6; fill-opacity: 0.285"/>
   </g>
   <g id="patch_12">
    <path d="M 60.202439 230.582137 
C 61.895648 230.582137 63.519736 229.909417 64.717016 228.712138 
C 65.914295 227.514858 66.587015 225.89077 66.587015 224.197561 
C 66.587015 222.504352 65.914295 220.880264 64.717016 219.682984 
C 63.519736 218.485705 61.895648 217.812985 60.202439 217.812985 
C 58.50923 217.812985 56.885142 218.485705 55.687862 219.682984 
C 54.490583 220.880264 53.817863 222.504352 53.817863 224.197561 
C 53.817863 225.89077 54.490583 227.514858 55.687862 228.712138 
C 56.885142 229.909417 58.50923 230.582137 60.202439 230.582137 
z
" clip-path="url(#pa2e7ae4a51)" style="fill: #9aa0a6; fill-opacity: 0.285"/>
   </g>
   <g id="patch_13">
    <path d="M 65.077712 269.848671 
L 54.094482 226.056504 
L 66.310396 222.338618 
L 81.585703 264.8245 
z
" clip-path="url(#pa2e7ae4a51)" style="fill: #9aa0a6; fill-opacity: 0.285"/>
   </g>
   <g id="patch_14">
    <path d="M 60.202439 230.582137 
C 61.895648 230.582137 63.519736 229.909417 64.717016 228.712138 
C 65.914295 227.514858 66.587015 225.89077 66.587015 224.197561 
C 66.587015 222.504352 65.914295 220.880264 64.717016 219.682984 
C 63.519736 218.485705 61.895648 217.812985 60.202439 217.812985 
C 58.50923 217.812985 56.885142 218.485705 55.687862 219.682984 
C 54.490583 220.880264 53.817863 222.504352 53.817863 224.197561 
C 53.817863 225.89077 54.490583 227.514858 55.687862 228.712138 
C 56.885142 229.909417 58.50923 230.582137 60.202439 230.582137 
z
" clip-path="url(#pa2e7ae4a51)" style="fill: #9aa0a6; fill-opacity: 0.285"/>
   </g>
   <g id="patch_15">
    <path d="M 56.45122 188.283385 
C 57.869854 188.283385 59.230576 187.719756 60.233703 186.71663 
C 61.236829 185.713503 61.800459 184.352781 61.800459 182.934146 
C 61.800459 181.515512 61.236829 180.154789 60.233703 179.151663 
C 59.230576 178.148537 57.869854 177.584907 56.45122 177.584907 
C 55.032585 177.584907 53.671863 178.148537 52.668736 179.151663 
C 51.66561 180.154789 51.10198 181.515512 51.10198 182.934146 
C 51.10198 184.352781 51.66561 185.713503 52.668736 186.71663 
C 53.671863 187.719756 55.032585 188.283385 56.45122 188.283385 
z
" clip-path="url(#pa2e7ae4a51)" style="fill: #9aa0a6; fill-opacity: 0.285"/>
   </g>
   <g id="patch_16">
    <path d="M 53.844084 224.775593 
L 51.123949 183.418444 
L 61.77849 182.449849 
L 66.560795 223.619529 
z
" clip-path="url(#pa2e7ae4a51)" style="fill: #9aa0a6; fill-opacity: 0.285"/>
   </g>
   <g id="patch_17">
    <path d="M 84.585366 228.297494 
C 85.672681 228.297494 86.715608 227.865499 87.484456 227.096651 
C 88.253304 226.327804 88.685299 225.284876 88.685299 224.197561 
C 88.685299 223.110246 88.253304 222.067318 87.484456 221.298471 
C 86.715608 220.529623 85.672681 220.097628 84.585366 220.097628 
C 83.498051 220.097628 82.455123 220.529623 81.686276 221.298471 
C 80.917428 222.067318 80.485433 223.110246 80.485433 224.197561 
C 80.485433 225.284876 80.917428 226.327804 81.686276 227.096651 
C 82.455123 227.865499 83.498051 228.297494 84.585366 228.297494 
z
" clip-path="url(#pa2e7ae4a51)" style="fill: #9aa0a6; fill-opacity: 0.285; stroke: #7d8288; stroke-opacity: 0.85; stroke-width: 1.3; stroke-linejoin: miter"/>
   </g>
   <g id="patch_18">
    <path d="M 56.45122 188.814183 
C 58.010623 188.814183 59.506368 188.194625 60.609033 187.09196 
C 61.711698 185.989295 62.331256 184.49355 62.331256 182.934146 
C 62.331256 181.374742 61.711698 179.878998 60.609033 178.776333 
C 59.506368 177.673668 58.010623 177.05411 56.45122 177.05411 
C 54.891816 177.05411 53.396071 177.673668 52.293406 178.776333 
C 51.190741 179.878998 50.571183 181.374742 50.571183 182.934146 
C 50.571183 184.49355 51.190741 185.989295 52.293406 187.09196 
C 53.396071 188.194625 54.891816 188.814183 56.45122 188.814183 
z
" clip-path="url(#pa2e7ae4a51)" style="fill: #9aa0a6; fill-opacity: 0.285; stroke: #7d8288; stroke-opacity: 0.85; stroke-width: 1.3; stroke-linejoin: miter"/>
   </g>
   <g id="line2d_2">
    <path d="M 124.324016 270.285452 
L 117.610061 220.471975 
L 117.456653 217.539508 
L 118.315459 214.731421 
L 120.082896 212.386412 
L 122.545783 210.787324 
L 125.40706 210.127029 
L 128.321616 210.485169 
L 130.937911 211.818548 
L 132.940381 213.966339 
L 134.0875 216.669489 
L 149.880862 264.387719 
L 150.1188 268.936035 
L 148.786774 273.291434 
L 146.045444 276.928591 
L 142.225456 279.40881 
L 137.787556 280.432941 
L 133.267021 279.877458 
L 129.209094 277.80936 
L 126.103221 274.478092 
L 124.324016 270.285452 
L 124.324016 270.285452 
" clip-path="url(#pa2e7ae4a51)" style="fill: none; stroke: #7d8288; stroke-opacity: 0.85; stroke-width: 1.7; stroke-linecap: round"/>
   </g>
   <g id="line2d_3">
    <path d="M 126.991196 226.948447 
L 85.354748 229.839696 
L 83.378625 229.762578 
L 81.548052 229.014236 
L 80.083825 227.684933 
L 79.162549 225.935001 
L 78.895346 223.975508 
L 79.314443 222.042798 
L 80.369291 220.369984 
L 81.932659 219.158833 
L 83.815984 218.555426 
L 124.706365 210.193016 
L 127.640608 210.307525 
L 130.358731 211.418699 
L 132.532887 213.392513 
L 133.900841 215.990897 
L 134.297598 218.900447 
L 133.675303 221.770228 
L 132.109013 224.254103 
L 129.787648 226.05248 
L 126.991196 226.948447 
L 126.991196 226.948447 
" clip-path="url(#pa2e7ae4a51)" style="fill: none; stroke: #7d8288; stroke-opacity: 0.85; stroke-width: 1.7; stroke-linecap: round"/>
   </g>
   <g id="line2d_4">
    <path d="M 85.269873 228.989113 
L 71.899014 229.173587 
L 70.811898 229.138095 
L 69.802482 228.732929 
L 68.992517 228.006956 
L 68.479695 227.04774 
L 68.325872 225.970977 
L 68.5496 224.90654 
L 69.123895 223.982816 
L 69.979487 223.311219 
L 71.013181 222.972755 
L 83.900858 219.406009 
L 85.580947 219.46086 
L 87.140953 220.087026 
L 88.392718 221.208984 
L 89.18526 222.691408 
L 89.422987 224.355497 
L 89.077225 226.000536 
L 88.189679 227.42811 
L 86.8674 228.466032 
L 85.269873 228.989113 
L 85.269873 228.989113 
" clip-path="url(#pa2e7ae4a51)" style="fill: none; stroke: #7d8288; stroke-opacity: 0.85; stroke-width: 1.5; stroke-linecap: round"/>
   </g>
   <g id="line2d_5">
    <path d="M 65.077712 269.848671 
L 54.094482 226.056504 
L 53.827041 223.855352 
L 54.328567 221.695475 
L 55.538568 219.837387 
L 57.311102 218.5052 
L 59.432373 217.859596 
L 61.646525 217.978444 
L 63.6865 218.847409 
L 65.306245 220.361681 
L 66.310396 222.338618 
L 81.585703 264.8245 
L 81.94711 267.79903 
L 81.269372 270.717782 
L 79.634235 273.228712 
L 77.23892 275.028965 
L 74.372337 275.901403 
L 71.380239 275.740798 
L 68.623517 274.566521 
L 66.434672 272.520206 
L 65.077712 269.848671 
L 65.077712 269.848671 
" clip-path="url(#pa2e7ae4a51)" style="fill: none; stroke: #7d8288; stroke-opacity: 0.85; stroke-width: 1.7; stroke-linecap: round"/>
   </g>
   <g id="line2d_6">
    <path d="M 53.844084 224.775593 
L 51.123949 183.418444 
L 51.279583 181.567203 
L 52.058993 179.880836 
L 53.36817 178.562743 
L 55.049209 177.771906 
L 56.899351 177.603711 
L 58.695441 178.078446 
L 60.220845 179.138849 
L 61.291577 180.657022 
L 61.77849 182.449849 
L 66.560795 223.619529 
L 66.375037 225.829074 
L 65.444774 227.841835 
L 63.882207 229.415042 
L 61.875807 230.358944 
L 59.667573 230.559693 
L 57.523852 229.993075 
L 55.703208 228.727432 
L 54.425238 226.915419 
L 53.844084 224.775593 
L 53.844084 224.775593 
" clip-path="url(#pa2e7ae4a51)" style="fill: none; stroke: #7d8288; stroke-opacity: 0.85; stroke-width: 1.7; stroke-linecap: round"/>
   </g>
   <g id="patch_19">
    <path d="M 54.57561 274.839024 
C 56.56528 274.839024 58.473726 274.04852 59.880635 272.641611 
C 61.287544 271.234702 62.078049 269.326255 62.078049 267.336585 
C 62.078049 265.346915 61.287544 263.438469 59.880635 262.03156 
C 58.473726 260.624651 56.56528 259.834146 54.57561 259.834146 
C 52.58594 259.834146 50.677493 260.624651 49.270584 262.03156 
C 47.863675 263.438469 47.073171 265.346915 47.073171 267.336585 
C 47.073171 269.326255 47.863675 271.234702 49.270584 272.641611 
C 50.677493 274.04852 52.58594 274.839024 54.57561 274.839024 
z
" clip-path="url(#pa2e7ae4a51)" style="fill: #9aa0a6; fill-opacity: 0.3"/>
   </g>
   <g id="patch_20">
    <path d="M 73.331707 278.965366 
C 76.415696 278.965366 79.373788 277.740084 81.554497 275.559375 
C 83.735206 273.378666 84.960488 270.420574 84.960488 267.336585 
C 84.960488 264.252597 83.735206 261.294505 81.554497 259.113796 
C 79.373788 256.933087 76.415696 255.707805 73.331707 255.707805 
C 70.247719 255.707805 67.289627 256.933087 65.108918 259.113796 
C 62.928209 261.294505 61.702927 264.252597 61.702927 267.336585 
C 61.702927 270.420574 62.928209 273.378666 65.108918 275.559375 
C 67.289627 277.740084 70.247719 278.965366 73.331707 278.965366 
z
" clip-path="url(#pa2e7ae4a51)" style="fill: #9aa0a6; fill-opacity: 0.3"/>
   </g>
   <g id="patch_21">
    <path d="M 54.57561 259.834146 
L 73.331707 255.707805 
L 73.331707 278.965366 
L 54.57561 274.839024 
z
" clip-path="url(#pa2e7ae4a51)" style="fill: #9aa0a6; fill-opacity: 0.3"/>
   </g>
   <g id="patch_22">
    <path d="M 73.331707 290.594146 
C 79.499685 290.594146 85.415868 288.143583 89.777286 283.782164 
C 94.138705 279.420746 96.589268 273.504563 96.589268 267.336585 
C 96.589268 261.168608 94.138705 255.252425 89.777286 250.891006 
C 85.415868 246.529588 79.499685 244.079024 73.331707 244.079024 
C 67.16373 244.079024 61.247547 246.529588 56.886128 250.891006 
C 52.52471 255.252425 50.074146 261.168608 50.074146 267.336585 
C 50.074146 273.504563 52.52471 279.420746 56.886128 283.782164 
C 61.247547 288.143583 67.16373 290.594146 73.331707 290.594146 
z
" clip-path="url(#pa2e7ae4a51)" style="fill: #9aa0a6; fill-opacity: 0.3"/>
   </g>
   <g id="patch_23">
    <path d="M 137.102439 284.592195 
C 141.67868 284.592195 146.068107 282.774035 149.303998 279.538144 
C 152.539889 276.302253 154.358049 271.912827 154.358049 267.336585 
C 154.358049 262.760344 152.539889 258.370918 149.303998 255.135027 
C 146.068107 251.899136 141.67868 250.080976 137.102439 250.080976 
C 132.526198 250.080976 128.136772 251.899136 124.90088 255.135027 
C 121.664989 258.370918 119.846829 262.760344 119.846829 267.336585 
C 119.846829 271.912827 121.664989 276.302253 124.90088 279.538144 
C 128.136772 282.774035 132.526198 284.592195 137.102439 284.592195 
z
" clip-path="url(#pa2e7ae4a51)" style="fill: #9aa0a6; fill-opacity: 0.3"/>
   </g>
   <g id="patch_24">
    <path d="M 73.331707 244.079024 
L 137.102439 250.080976 
L 137.102439 284.592195 
L 73.331707 290.594146 
z
" clip-path="url(#pa2e7ae4a51)" style="fill: #9aa0a6; fill-opacity: 0.3"/>
   </g>
   <g id="patch_25">
    <path d="M 137.102439 281.59122 
C 140.882812 281.59122 144.50886 280.089261 147.181987 277.416134 
C 149.855115 274.743006 151.357073 271.116959 151.357073 267.336585 
C 151.357073 263.556212 149.855115 259.930164 147.181987 257.257037 
C 144.50886 254.583909 140.882812 253.081951 137.102439 253.081951 
C 133.322066 253.081951 129.696018 254.583909 127.022891 257.257037 
C 124.349763 259.930164 122.847805 263.556212 122.847805 267.336585 
C 122.847805 271.116959 124.349763 274.743006 127.022891 277.416134 
C 129.696018 280.089261 133.322066 281.59122 137.102439 281.59122 
z
" clip-path="url(#pa2e7ae4a51)" style="fill: #9aa0a6; fill-opacity: 0.3"/>
   </g>
   <g id="patch_26">
    <path d="M 137.102439 225.88561 
C 139.539785 225.88561 141.877631 224.917242 143.601095 223.193778 
C 145.324559 221.470314 146.292927 219.132468 146.292927 216.695122 
C 146.292927 214.257776 145.324559 211.919929 143.601095 210.196466 
C 141.877631 208.473002 139.539785 207.504634 137.102439 207.504634 
C 134.665093 207.504634 132.327247 208.473002 130.603783 210.196466 
C 128.880319 211.919929 127.911951 214.257776 127.911951 216.695122 
C 127.911951 219.132468 128.880319 221.470314 130.603783 223.193778 
C 132.327247 224.917242 134.665093 225.88561 137.102439 225.88561 
z
" clip-path="url(#pa2e7ae4a51)" style="fill: #9aa0a6; fill-opacity: 0.3"/>
   </g>
   <g id="patch_27">
    <path d="M 122.847805 267.336585 
L 127.911951 216.695122 
L 146.292927 216.695122 
L 151.357073 267.336585 
z
" clip-path="url(#pa2e7ae4a51)" style="fill: #9aa0a6; fill-opacity: 0.3"/>
   </g>
   <g id="patch_28">
    <path d="M 137.102439 225.88561 
C 139.539785 225.88561 141.877631 224.917242 143.601095 223.193778 
C 145.324559 221.470314 146.292927 219.132468 146.292927 216.695122 
C 146.292927 214.257776 145.324559 211.919929 143.601095 210.196466 
C 141.877631 208.473002 139.539785 207.504634 137.102439 207.504634 
C 134.665093 207.504634 132.327247 208.473002 130.603783 210.196466 
C 128.880319 211.919929 127.911951 214.257776 127.911951 216.695122 
C 127.911951 219.132468 128.880319 221.470314 130.603783 223.193778 
C 132.327247 224.917242 134.665093 225.88561 137.102439 225.88561 
z
" clip-path="url(#pa2e7ae4a51)" style="fill: #9aa0a6; fill-opacity: 0.3"/>
   </g>
   <g id="patch_29">
    <path d="M 180.241463 226.635854 
C 181.882941 226.635854 183.457409 225.983688 184.618109 224.822988 
C 185.77881 223.662287 186.430976 222.087819 186.430976 220.446341 
C 186.430976 218.804864 185.77881 217.230396 184.618109 216.069695 
C 183.457409 214.908995 181.882941 214.256829 180.241463 214.256829 
C 178.599986 214.256829 177.025517 214.908995 175.864817 216.069695 
C 174.704117 217.230396 174.051951 218.804864 174.051951 220.446341 
C 174.051951 222.087819 174.704117 223.662287 175.864817 224.822988 
C 177.025517 225.983688 178.599986 226.635854 180.241463 226.635854 
z
" clip-path="url(#pa2e7ae4a51)" style="fill: #9aa0a6; fill-opacity: 0.3"/>
   </g>
   <g id="patch_30">
    <path d="M 137.898607 207.539185 
L 180.777658 214.280098 
L 179.705268 226.612585 
L 136.306271 225.851059 
z
" clip-path="url(#pa2e7ae4a51)" style="fill: #9aa0a6; fill-opacity: 0.3"/>
   </g>
   <g id="patch_31">
    <path d="M 180.241463 225.707427 
C 181.63672 225.707427 182.975017 225.153086 183.961613 224.166491 
C 184.948208 223.179896 185.502549 221.841598 185.502549 220.446341 
C 185.502549 219.051085 184.948208 217.712787 183.961613 216.726192 
C 182.975017 215.739597 181.63672 215.185256 180.241463 215.185256 
C 178.846207 215.185256 177.507909 215.739597 176.521314 216.726192 
C 175.534719 217.712787 174.980378 219.051085 174.980378 220.446341 
C 174.980378 221.841598 175.534719 223.179896 176.521314 224.166491 
C 177.507909 225.153086 178.846207 225.707427 180.241463 225.707427 
z
" clip-path="url(#pa2e7ae4a51)" style="fill: #9aa0a6; fill-opacity: 0.3"/>
   </g>
   <g id="patch_32">
    <path d="M 193.370732 225.726183 
C 194.273545 225.726183 195.139502 225.367492 195.777887 224.729107 
C 196.416272 224.090721 196.774963 223.224764 196.774963 222.321951 
C 196.774963 221.419138 196.416272 220.553181 195.777887 219.914796 
C 195.139502 219.276411 194.273545 218.91772 193.370732 218.91772 
C 192.467919 218.91772 191.601961 219.276411 190.963576 219.914796 
C 190.325191 220.553181 189.9665 221.419138 189.9665 222.321951 
C 189.9665 223.224764 190.325191 224.090721 190.963576 224.729107 
C 191.601961 225.367492 192.467919 225.726183 193.370732 225.726183 
z
" clip-path="url(#pa2e7ae4a51)" style="fill: #9aa0a6; fill-opacity: 0.3"/>
   </g>
   <g id="patch_33">
    <path d="M 180.985493 215.238133 
L 193.852163 218.951934 
L 192.889301 225.691969 
L 179.497434 225.65455 
z
" clip-path="url(#pa2e7ae4a51)" style="fill: #9aa0a6; fill-opacity: 0.3"/>
   </g>
   <g id="line2d_7">
    <path d="M 54.57561 259.834146 
L 73.331707 255.707805 
L 77.308984 256.409106 
L 80.806543 258.428423 
L 83.402527 261.522195 
L 84.78382 265.317269 
L 84.78382 269.355902 
L 83.402527 273.150976 
L 80.806543 276.244748 
L 77.308984 278.264065 
L 73.331707 278.965366 
L 54.57561 274.839024 
L 52.009624 274.386572 
L 49.753135 273.083787 
L 48.078307 271.087805 
L 47.18715 268.63937 
L 47.18715 266.033801 
L 48.078307 263.585366 
L 49.753135 261.589384 
L 52.009624 260.286599 
L 54.57561 259.834146 
L 54.57561 259.834146 
" clip-path="url(#pa2e7ae4a51)" style="fill: none; stroke: #7d8288; stroke-opacity: 0.85; stroke-width: 1.7; stroke-linecap: round"/>
   </g>
   <g id="line2d_8">
    <path d="M 73.331707 244.079024 
L 137.102439 250.080976 
L 143.004205 251.121616 
L 148.194131 254.118021 
L 152.046235 258.70878 
L 154.095897 264.34018 
L 154.095897 270.332991 
L 152.046235 275.96439 
L 148.194131 280.555149 
L 143.004205 283.551555 
L 137.102439 284.592195 
L 73.331707 290.594146 
L 65.377153 289.191544 
L 58.382035 285.152911 
L 53.190069 278.965366 
L 50.427481 271.375218 
L 50.427481 263.297952 
L 53.190069 255.707805 
L 58.382035 249.52026 
L 65.377153 245.481627 
L 73.331707 244.079024 
L 73.331707 244.079024 
" clip-path="url(#pa2e7ae4a51)" style="fill: none; stroke: #7d8288; stroke-opacity: 0.85; stroke-width: 1.7; stroke-linecap: round"/>
   </g>
   <g id="patch_34">
    <path d="M 73.331707 276.714634 
C 75.818795 276.714634 78.204353 275.726504 79.962989 273.967867 
C 81.721626 272.209231 82.709756 269.823673 82.709756 267.336585 
C 82.709756 264.849498 81.721626 262.46394 79.962989 260.705303 
C 78.204353 258.946667 75.818795 257.958537 73.331707 257.958537 
C 70.84462 257.958537 68.459062 258.946667 66.700425 260.705303 
C 64.941789 262.46394 63.953659 264.849498 63.953659 267.336585 
C 63.953659 269.823673 64.941789 272.209231 66.700425 273.967867 
C 68.459062 275.726504 70.84462 276.714634 73.331707 276.714634 
z
" clip-path="url(#pa2e7ae4a51)" style="fill: #9aa0a6; fill-opacity: 0.3"/>
   </g>
   <g id="patch_35">
    <path d="M 86.460976 229.261707 
C 88.30142 229.261707 90.066733 228.530491 91.368124 227.2291 
C 92.669515 225.927709 93.400732 224.162396 93.400732 222.321951 
C 93.400732 220.481506 92.669515 218.716194 91.368124 217.414803 
C 90.066733 216.113412 88.30142 215.382195 86.460976 215.382195 
C 84.620531 215.382195 82.855218 216.113412 81.553827 217.414803 
C 80.252436 218.716194 79.52122 220.481506 79.52122 222.321951 
C 79.52122 224.162396 80.252436 225.927709 81.553827 227.2291 
C 82.855218 228.530491 84.620531 229.261707 86.460976 229.261707 
z
" clip-path="url(#pa2e7ae4a51)" style="fill: #9aa0a6; fill-opacity: 0.3"/>
   </g>
   <g id="patch_36">
    <path d="M 64.32878 264.710732 
L 79.79881 220.37882 
L 93.123141 224.265083 
L 82.334634 269.962439 
z
" clip-path="url(#pa2e7ae4a51)" style="fill: #9aa0a6; fill-opacity: 0.3"/>
   </g>
   <g id="patch_37">
    <path d="M 86.460976 229.261707 
C 88.30142 229.261707 90.066733 228.530491 91.368124 227.2291 
C 92.669515 225.927709 93.400732 224.162396 93.400732 222.321951 
C 93.400732 220.481506 92.669515 218.716194 91.368124 217.414803 
C 90.066733 216.113412 88.30142 215.382195 86.460976 215.382195 
C 84.620531 215.382195 82.855218 216.113412 81.553827 217.414803 
C 80.252436 218.716194 79.52122 220.481506 79.52122 222.321951 
C 79.52122 224.162396 80.252436 225.927709 81.553827 227.2291 
C 82.855218 228.530491 84.620531 229.261707 86.460976 229.261707 
z
" clip-path="url(#pa2e7ae4a51)" style="fill: #9aa0a6; fill-opacity: 0.3"/>
   </g>
   <g id="patch_38">
    <path d="M 90.212195 186.872927 
C 91.754189 186.872927 93.233235 186.260286 94.32359 185.169931 
C 95.413945 184.079577 96.026585 182.600531 96.026585 181.058537 
C 96.026585 179.516542 95.413945 178.037496 94.32359 176.947142 
C 93.233235 175.856787 91.754189 175.244146 90.212195 175.244146 
C 88.670201 175.244146 87.191155 175.856787 86.1008 176.947142 
C 85.010446 178.037496 84.397805 179.516542 84.397805 181.058537 
C 84.397805 182.600531 85.010446 184.079577 86.1008 185.169931 
C 87.191155 186.260286 88.670201 186.872927 90.212195 186.872927 
z
" clip-path="url(#pa2e7ae4a51)" style="fill: #9aa0a6; fill-opacity: 0.3"/>
   </g>
   <g id="patch_39">
    <path d="M 79.54972 221.693655 
L 84.421683 180.532126 
L 96.002707 181.584947 
L 93.372232 222.950247 
z
" clip-path="url(#pa2e7ae4a51)" style="fill: #9aa0a6; fill-opacity: 0.3"/>
   </g>
   <g id="patch_40">
    <path d="M 180.241463 224.90279 
C 181.423327 224.90279 182.556944 224.433231 183.392649 223.597527 
C 184.228353 222.761823 184.697912 221.628205 184.697912 220.446341 
C 184.697912 219.264477 184.228353 218.13086 183.392649 217.295156 
C 182.556944 216.459452 181.423327 215.989893 180.241463 215.989893 
C 179.059599 215.989893 177.925982 216.459452 177.090278 217.295156 
C 176.254574 218.13086 175.785015 219.264477 175.785015 220.446341 
C 175.785015 221.628205 176.254574 222.761823 177.090278 223.597527 
C 177.925982 224.433231 179.059599 224.90279 180.241463 224.90279 
z
" clip-path="url(#pa2e7ae4a51)" style="fill: #9aa0a6; fill-opacity: 0.3; stroke: #7d8288; stroke-opacity: 0.85; stroke-width: 1.3; stroke-linejoin: miter"/>
   </g>
   <g id="patch_41">
    <path d="M 90.212195 187.248049 
C 91.853673 187.248049 93.428141 186.595883 94.588841 185.435183 
C 95.749541 184.274483 96.401707 182.700014 96.401707 181.058537 
C 96.401707 179.417059 95.749541 177.842591 94.588841 176.681891 
C 93.428141 175.52119 91.853673 174.869024 90.212195 174.869024 
C 88.570717 174.869024 86.996249 175.52119 85.835549 176.681891 
C 84.674849 177.842591 84.022683 179.417059 84.022683 181.058537 
C 84.022683 182.700014 84.674849 184.274483 85.835549 185.435183 
C 86.996249 186.595883 88.570717 187.248049 90.212195 187.248049 
z
" clip-path="url(#pa2e7ae4a51)" style="fill: #9aa0a6; fill-opacity: 0.3; stroke: #7d8288; stroke-opacity: 0.85; stroke-width: 1.6; stroke-linejoin: miter"/>
   </g>
   <g id="line2d_9">
    <path d="M 122.847805 267.336585 
L 127.911951 216.695122 
L 128.466205 213.55179 
L 130.062117 210.78759 
L 132.507195 208.735926 
L 135.506528 207.644258 
L 138.69835 207.644258 
L 141.697683 208.735926 
L 144.142761 210.78759 
L 145.738673 213.55179 
L 146.292927 216.695122 
L 151.357073 267.336585 
L 150.497414 272.211957 
L 148.022122 276.499288 
L 144.229756 279.681461 
L 139.57773 281.37466 
L 134.627148 281.37466 
L 129.975122 279.681461 
L 126.182756 276.499288 
L 123.707465 272.211957 
L 122.847805 267.336585 
L 122.847805 267.336585 
" clip-path="url(#pa2e7ae4a51)" style="fill: none; stroke: #7d8288; stroke-opacity: 0.85; stroke-width: 1.7; stroke-linecap: round"/>
   </g>
   <g id="line2d_10">
    <path d="M 137.898607 207.539185 
L 180.777658 214.280098 
L 182.854301 214.835358 
L 184.615797 216.067385 
L 185.849684 217.827578 
L 186.407137 219.903634 
L 186.220918 222.045147 
L 185.313489 223.993822 
L 183.794299 225.514617 
L 181.846584 226.424104 
L 179.705268 226.612585 
L 136.306271 225.851059 
L 133.222771 225.026583 
L 130.607216 223.197209 
L 128.775081 220.583588 
L 127.947348 217.500961 
L 128.223855 214.321137 
L 129.571249 211.427651 
L 131.827017 209.1695 
L 134.719078 207.81905 
L 137.898607 207.539185 
L 137.898607 207.539185 
" clip-path="url(#pa2e7ae4a51)" style="fill: none; stroke: #7d8288; stroke-opacity: 0.85; stroke-width: 1.7; stroke-linecap: round"/>
   </g>
   <g id="line2d_11">
    <path d="M 180.985493 215.238133 
L 193.852163 218.951934 
L 194.975743 219.31983 
L 195.905735 220.049826 
L 196.529968 221.053874 
L 196.773151 222.210871 
L 196.605951 223.381266 
L 196.048537 224.423891 
L 195.16814 225.212992 
L 194.070948 225.653391 
L 192.889301 225.691969 
L 179.497434 225.65455 
L 177.760992 225.085984 
L 176.323731 223.957808 
L 175.359007 222.406097 
L 174.98318 220.618011 
L 175.241578 218.809219 
L 176.103037 217.197888 
L 177.463651 215.978369 
L 179.15931 215.297753 
L 180.985493 215.238133 
L 180.985493 215.238133 
" clip-path="url(#pa2e7ae4a51)" style="fill: none; stroke: #7d8288; stroke-opacity: 0.85; stroke-width: 1.5; stroke-linecap: round"/>
   </g>
   <g id="line2d_12">
    <path d="M 64.32878 264.710732 
L 79.79881 220.37882 
L 80.865178 218.21741 
L 82.606481 216.551068 
L 84.812694 215.58078 
L 87.217714 215.423577 
L 89.53146 216.09842 
L 91.47486 217.523912 
L 92.813512 219.528119 
L 93.385954 221.869303 
L 93.123141 224.265083 
L 82.334634 269.962439 
L 80.893596 272.883263 
L 78.540483 275.135076 
L 75.559115 276.446276 
L 72.309088 276.658712 
L 69.182404 275.746763 
L 66.556188 273.820422 
L 64.747199 271.112035 
L 63.973629 267.948272 
L 64.32878 264.710732 
L 64.32878 264.710732 
" clip-path="url(#pa2e7ae4a51)" style="fill: none; stroke: #7d8288; stroke-opacity: 0.85; stroke-width: 1.7; stroke-linecap: round"/>
   </g>
   <g id="line2d_13">
    <path d="M 79.54972 221.693655 
L 84.421683 180.532126 
L 84.950937 178.583401 
L 86.114776 176.933214 
L 87.772824 175.780601 
L 89.725096 175.264586 
L 91.73612 175.447406 
L 93.563336 176.307011 
L 94.986354 177.739721 
L 95.833539 179.572729 
L 96.002707 181.584947 
L 93.372232 222.950247 
L 92.740542 225.276145 
L 91.351444 227.245724 
L 89.372483 228.621422 
L 87.042352 229.237312 
L 84.642098 229.019107 
L 82.461227 227.993126 
L 80.762786 226.283118 
L 79.75163 224.095335 
L 79.54972 221.693655 
L 79.54972 221.693655 
" clip-path="url(#pa2e7ae4a51)" style="fill: none; stroke: #7d8288; stroke-opacity: 0.85; stroke-width: 1.7; stroke-linecap: round"/>
   </g>
   <g id="patch_42">
    <path d="M 54.57561 282.341463 
C 58.55495 282.341463 62.371842 280.760455 65.185661 277.946636 
C 67.999479 275.132818 69.580488 271.315926 69.580488 267.336585 
C 69.580488 263.357245 67.999479 259.540353 65.185661 256.726534 
C 62.371842 253.912716 58.55495 252.331707 54.57561 252.331707 
C 50.59627 252.331707 46.779377 253.912716 43.965559 256.726534 
C 41.15174 259.540353 39.570732 263.357245 39.570732 267.336585 
C 39.570732 271.315926 41.15174 275.132818 43.965559 277.946636 
C 46.779377 280.760455 50.59627 282.341463 54.57561 282.341463 
z
" clip-path="url(#pa2e7ae4a51)" style="fill: #9aa0a6; fill-opacity: 0.3; stroke: #7d8288; stroke-opacity: 0.85; stroke-width: 1.8; stroke-linejoin: miter"/>
   </g>
   <g id="patch_43">
    <path d="M 137.102439 280.450849 
C 140.580382 280.450849 143.916346 279.069047 146.375624 276.60977 
C 148.834901 274.150493 150.216702 270.814529 150.216702 267.336585 
C 150.216702 263.858642 148.834901 260.522678 146.375624 258.063401 
C 143.916346 255.604123 140.580382 254.222322 137.102439 254.222322 
C 133.624496 254.222322 130.288532 255.604123 127.829254 258.063401 
C 125.369977 260.522678 123.988176 263.858642 123.988176 267.336585 
C 123.988176 270.814529 125.369977 274.150493 127.829254 276.60977 
C 130.288532 279.069047 133.624496 280.450849 137.102439 280.450849 
z
" clip-path="url(#pa2e7ae4a51)" style="fill: #3c3f42; fill-opacity: 0.95"/>
   </g>
   <g id="patch_44">
    <path d="M 125.84878 227.02598 
C 128.091139 227.02598 130.241958 226.135082 131.827544 224.549495 
C 133.413131 222.963909 134.304029 220.81309 134.304029 218.570732 
C 134.304029 216.328374 133.413131 214.177555 131.827544 212.591968 
C 130.241958 211.006381 128.091139 210.115483 125.84878 210.115483 
C 123.606422 210.115483 121.455603 211.006381 119.870017 212.591968 
C 118.28443 214.177555 117.393532 216.328374 117.393532 218.570732 
C 117.393532 220.81309 118.28443 222.963909 119.870017 224.549495 
C 121.455603 226.135082 123.606422 227.02598 125.84878 227.02598 
z
" clip-path="url(#pa2e7ae4a51)" style="fill: #3c3f42; fill-opacity: 0.95"/>
   </g>
   <g id="patch_45">
    <path d="M 124.324016 270.285452 
L 117.610061 220.471975 
L 134.0875 216.669489 
L 149.880862 264.387719 
z
" clip-path="url(#pa2e7ae4a51)" style="fill: #3c3f42; fill-opacity: 0.95"/>
   </g>
   <g id="patch_46">
    <path d="M 125.84878 227.02598 
C 128.091139 227.02598 130.241958 226.135082 131.827544 224.549495 
C 133.413131 222.963909 134.304029 220.81309 134.304029 218.570732 
C 134.304029 216.328374 133.413131 214.177555 131.827544 212.591968 
C 130.241958 211.006381 128.091139 210.115483 125.84878 210.115483 
C 123.606422 210.115483 121.455603 211.006381 119.870017 212.591968 
C 118.28443 214.177555 117.393532 216.328374 117.393532 218.570732 
C 117.393532 220.81309 118.28443 222.963909 119.870017 224.549495 
C 121.455603 226.135082 123.606422 227.02598 125.84878 227.02598 
z
" clip-path="url(#pa2e7ae4a51)" style="fill: #3c3f42; fill-opacity: 0.95"/>
   </g>
   <g id="patch_47">
    <path d="M 84.585366 229.891912 
C 86.095525 229.891912 87.544036 229.291919 88.61188 228.224075 
C 89.679724 227.156231 90.279717 225.707721 90.279717 224.197561 
C 90.279717 222.687401 89.679724 221.238891 88.61188 220.171047 
C 87.544036 219.103203 86.095525 218.50321 84.585366 218.50321 
C 83.075206 218.50321 81.626696 219.103203 80.558851 220.171047 
C 79.491007 221.238891 78.891015 222.687401 78.891015 224.197561 
C 78.891015 225.707721 79.491007 227.156231 80.558851 228.224075 
C 81.626696 229.291919 83.075206 229.891912 84.585366 229.891912 
z
" clip-path="url(#pa2e7ae4a51)" style="fill: #3c3f42; fill-opacity: 0.95"/>
   </g>
   <g id="patch_48">
    <path d="M 126.991196 226.948447 
L 85.354748 229.839696 
L 83.815984 218.555426 
L 124.706365 210.193016 
z
" clip-path="url(#pa2e7ae4a51)" style="fill: #3c3f42; fill-opacity: 0.95"/>
   </g>
   <g id="patch_49">
    <path d="M 84.585366 229.03776 
C 85.869002 229.03776 87.100236 228.527766 88.007903 227.620098 
C 88.915571 226.712431 89.425564 225.481197 89.425564 224.197561 
C 89.425564 222.913925 88.915571 221.682691 88.007903 220.775024 
C 87.100236 219.867356 85.869002 219.357362 84.585366 219.357362 
C 83.30173 219.357362 82.070496 219.867356 81.162829 220.775024 
C 80.255161 221.682691 79.745167 222.913925 79.745167 224.197561 
C 79.745167 225.481197 80.255161 226.712431 81.162829 227.620098 
C 82.070496 228.527766 83.30173 229.03776 84.585366 229.03776 
z
" clip-path="url(#pa2e7ae4a51)" style="fill: #1b1b1b; fill-opacity: 0.95"/>
   </g>
   <g id="patch_50">
    <path d="M 71.456098 229.205064 
C 72.286685 229.205064 73.083366 228.875068 73.67068 228.287754 
C 74.257995 227.700439 74.587991 226.903759 74.587991 226.073171 
C 74.587991 225.242583 74.257995 224.445902 73.67068 223.858588 
C 73.083366 223.271274 72.286685 222.941278 71.456098 222.941278 
C 70.62551 222.941278 69.828829 223.271274 69.241515 223.858588 
C 68.6542 224.445902 68.324204 225.242583 68.324204 226.073171 
C 68.324204 226.903759 68.6542 227.700439 69.241515 228.287754 
C 69.828829 228.875068 70.62551 229.205064 71.456098 229.205064 
z
" clip-path="url(#pa2e7ae4a51)" style="fill: #1b1b1b; fill-opacity: 0.95"/>
   </g>
   <g id="patch_51">
    <path d="M 85.269873 228.989113 
L 71.899014 229.173587 
L 71.013181 222.972755 
L 83.900858 219.406009 
z
" clip-path="url(#pa2e7ae4a51)" style="fill: #1b1b1b; fill-opacity: 0.95"/>
   </g>
   <g id="patch_52">
    <path d="M 73.331707 275.96439 
C 75.619828 275.96439 77.814541 275.05531 79.432487 273.437365 
C 81.050432 271.819419 81.959512 269.624706 81.959512 267.336585 
C 81.959512 265.048465 81.050432 262.853752 79.432487 261.235806 
C 77.814541 259.61786 75.619828 258.70878 73.331707 258.70878 
C 71.043587 258.70878 68.848874 259.61786 67.230928 261.235806 
C 65.612982 262.853752 64.703902 265.048465 64.703902 267.336585 
C 64.703902 269.624706 65.612982 271.819419 67.230928 273.437365 
C 68.848874 275.05531 71.043587 275.96439 73.331707 275.96439 
z
" clip-path="url(#pa2e7ae4a51)" style="fill: #2c3e50; fill-opacity: 0.95"/>
   </g>
   <g id="patch_53">
    <path d="M 54.57561 245.587015 
C 56.268819 245.587015 57.892907 244.914295 59.090186 243.717016 
C 60.287466 242.519736 60.960185 240.895648 60.960185 239.202439 
C 60.960185 237.50923 60.287466 235.885142 59.090186 234.687862 
C 57.892907 233.490583 56.268819 232.817863 54.57561 232.817863 
C 52.882401 232.817863 51.258313 233.490583 50.061033 234.687862 
C 48.863753 235.885142 48.191034 237.50923 48.191034 239.202439 
C 48.191034 240.895648 48.863753 242.519736 50.061033 243.717016 
C 51.258313 244.914295 52.882401 245.587015 54.57561 245.587015 
z
" clip-path="url(#pa2e7ae4a51)" style="fill: #2c3e50; fill-opacity: 0.95"/>
   </g>
   <g id="patch_54">
    <path d="M 66.15294 272.12243 
L 49.263322 242.743964 
L 59.887898 235.660914 
L 80.510475 262.55074 
z
" clip-path="url(#pa2e7ae4a51)" style="fill: #2c3e50; fill-opacity: 0.95"/>
   </g>
   <g id="patch_55">
    <path d="M 54.57561 245.587015 
C 56.268819 245.587015 57.892907 244.914295 59.090186 243.717016 
C 60.287466 242.519736 60.960185 240.895648 60.960185 239.202439 
C 60.960185 237.50923 60.287466 235.885142 59.090186 234.687862 
C 57.892907 233.490583 56.268819 232.817863 54.57561 232.817863 
C 52.882401 232.817863 51.258313 233.490583 50.061033 234.687862 
C 48.863753 235.885142 48.191034 237.50923 48.191034 239.202439 
C 48.191034 240.895648 48.863753 242.519736 50.061033 243.717016 
C 51.258313 244.914295 52.882401 245.587015 54.57561 245.587015 
z
" clip-path="url(#pa2e7ae4a51)" style="fill: #2c3e50; fill-opacity: 0.95"/>
   </g>
   <g id="patch_56">
    <path d="M 32.068293 267.058995 
C 33.486927 267.058995 34.84765 266.495366 35.850776 265.492239 
C 36.853902 264.489113 37.417532 263.128391 37.417532 261.709756 
C 37.417532 260.291121 36.853902 258.930399 35.850776 257.927273 
C 34.84765 256.924147 33.486927 256.360517 32.068293 256.360517 
C 30.649658 256.360517 29.288936 256.924147 28.285809 257.927273 
C 27.282683 258.930399 26.719054 260.291121 26.719054 261.709756 
C 26.719054 263.128391 27.282683 264.489113 28.285809 265.492239 
C 29.288936 266.495366 30.649658 267.058995 32.068293 267.058995 
z
" clip-path="url(#pa2e7ae4a51)" style="fill: #2c3e50; fill-opacity: 0.95"/>
   </g>
   <g id="patch_57">
    <path d="M 59.090186 243.717016 
L 35.850776 265.492239 
L 28.285809 257.927273 
L 50.061033 234.687862 
z
" clip-path="url(#pa2e7ae4a51)" style="fill: #2c3e50; fill-opacity: 0.95"/>
   </g>
   <g id="patch_58">
    <path d="M 84.585366 228.297494 
C 85.672681 228.297494 86.715608 227.865499 87.484456 227.096651 
C 88.253304 226.327804 88.685299 225.284876 88.685299 224.197561 
C 88.685299 223.110246 88.253304 222.067318 87.484456 221.298471 
C 86.715608 220.529623 85.672681 220.097628 84.585366 220.097628 
C 83.498051 220.097628 82.455123 220.529623 81.686276 221.298471 
C 80.917428 222.067318 80.485433 223.110246 80.485433 224.197561 
C 80.485433 225.284876 80.917428 226.327804 81.686276 227.096651 
C 82.455123 227.865499 83.498051 228.297494 84.585366 228.297494 
z
" clip-path="url(#pa2e7ae4a51)" style="fill: #1b1b1b; fill-opacity: 0.95; stroke: #121212; stroke-width: 1.3; stroke-linejoin: miter"/>
   </g>
   <g id="patch_59">
    <path d="M 32.068293 267.589793 
C 33.627697 267.589793 35.123441 266.970235 36.226106 265.86757 
C 37.328772 264.764905 37.948329 263.26916 37.948329 261.709756 
C 37.948329 260.150352 37.328772 258.654607 36.226106 257.551942 
C 35.123441 256.449277 33.627697 255.82972 32.068293 255.82972 
C 30.508889 255.82972 29.013144 256.449277 27.910479 257.551942 
C 26.807814 258.654607 26.188256 260.150352 26.188256 261.709756 
C 26.188256 263.26916 26.807814 264.764905 27.910479 265.86757 
C 29.013144 266.970235 30.508889 267.589793 32.068293 267.589793 
z
" clip-path="url(#pa2e7ae4a51)" style="fill: #f2e0c9; fill-opacity: 0.95; stroke: #a49888; stroke-width: 1.3; stroke-linejoin: miter"/>
   </g>
   <g id="line2d_14">
    <path d="M 124.324016 270.285452 
L 117.610061 220.471975 
L 117.456653 217.539508 
L 118.315459 214.731421 
L 120.082896 212.386412 
L 122.545783 210.787324 
L 125.40706 210.127029 
L 128.321616 210.485169 
L 130.937911 211.818548 
L 132.940381 213.966339 
L 134.0875 216.669489 
L 149.880862 264.387719 
L 150.1188 268.936035 
L 148.786774 273.291434 
L 146.045444 276.928591 
L 142.225456 279.40881 
L 137.787556 280.432941 
L 133.267021 279.877458 
L 129.209094 277.80936 
L 126.103221 274.478092 
L 124.324016 270.285452 
L 124.324016 270.285452 
" clip-path="url(#pa2e7ae4a51)" style="fill: none; stroke: #282a2c; stroke-width: 1.7; stroke-linecap: round"/>
   </g>
   <g id="line2d_15">
    <path d="M 126.991196 226.948447 
L 85.354748 229.839696 
L 83.378625 229.762578 
L 81.548052 229.014236 
L 80.083825 227.684933 
L 79.162549 225.935001 
L 78.895346 223.975508 
L 79.314443 222.042798 
L 80.369291 220.369984 
L 81.932659 219.158833 
L 83.815984 218.555426 
L 124.706365 210.193016 
L 127.640608 210.307525 
L 130.358731 211.418699 
L 132.532887 213.392513 
L 133.900841 215.990897 
L 134.297598 218.900447 
L 133.675303 221.770228 
L 132.109013 224.254103 
L 129.787648 226.05248 
L 126.991196 226.948447 
L 126.991196 226.948447 
" clip-path="url(#pa2e7ae4a51)" style="fill: none; stroke: #282a2c; stroke-width: 1.7; stroke-linecap: round"/>
   </g>
   <g id="line2d_16">
    <path d="M 85.269873 228.989113 
L 71.899014 229.173587 
L 70.811898 229.138095 
L 69.802482 228.732929 
L 68.992517 228.006956 
L 68.479695 227.04774 
L 68.325872 225.970977 
L 68.5496 224.90654 
L 69.123895 223.982816 
L 69.979487 223.311219 
L 71.013181 222.972755 
L 83.900858 219.406009 
L 85.580947 219.46086 
L 87.140953 220.087026 
L 88.392718 221.208984 
L 89.18526 222.691408 
L 89.422987 224.355497 
L 89.077225 226.000536 
L 88.189679 227.42811 
L 86.8674 228.466032 
L 85.269873 228.989113 
L 85.269873 228.989113 
" clip-path="url(#pa2e7ae4a51)" style="fill: none; stroke: #121212; stroke-width: 1.5; stroke-linecap: round"/>
   </g>
   <g id="line2d_17">
    <path d="M 66.15294 272.12243 
L 49.263322 242.743964 
L 48.372419 240.713475 
L 48.229712 238.500732 
L 48.852415 236.372625 
L 50.165419 234.585836 
L 52.010357 233.355877 
L 54.164703 232.8311 
L 56.36861 233.0748 
L 58.356255 234.057584 
L 59.887898 235.660914 
L 80.510475 262.55074 
L 81.714398 265.294645 
L 81.907244 268.284838 
L 81.065755 271.160658 
L 79.291425 273.575238 
L 76.798265 275.237345 
L 73.886987 275.946503 
L 70.908734 275.617178 
L 68.222728 274.289092 
L 66.15294 272.12243 
L 66.15294 272.12243 
" clip-path="url(#pa2e7ae4a51)" style="fill: none; stroke: #1d2a36; stroke-width: 1.7; stroke-linecap: round"/>
   </g>
   <g id="line2d_18">
    <path d="M 59.090186 243.717016 
L 35.850776 265.492239 
L 34.328979 266.557813 
L 32.53451 267.03864 
L 30.683808 266.876724 
L 29.000095 266.091596 
L 27.686453 264.777954 
L 26.901325 263.094241 
L 26.739409 261.243539 
L 27.220236 259.44907 
L 28.285809 257.927273 
L 50.061033 234.687862 
L 51.877372 233.416048 
L 54.019157 232.842159 
L 56.22806 233.035413 
L 58.237652 233.972501 
L 59.805548 235.540397 
L 60.742636 237.549989 
L 60.93589 239.758891 
L 60.362 241.900677 
L 59.090186 243.717016 
L 59.090186 243.717016 
" clip-path="url(#pa2e7ae4a51)" style="fill: none; stroke: #1d2a36; stroke-width: 1.7; stroke-linecap: round"/>
   </g>
   <g id="patch_60">
    <path d="M 54.57561 274.839024 
C 56.56528 274.839024 58.473726 274.04852 59.880635 272.641611 
C 61.287544 271.234702 62.078049 269.326255 62.078049 267.336585 
C 62.078049 265.346915 61.287544 263.438469 59.880635 262.03156 
C 58.473726 260.624651 56.56528 259.834146 54.57561 259.834146 
C 52.58594 259.834146 50.677493 260.624651 49.270584 262.03156 
C 47.863675 263.438469 47.073171 265.346915 47.073171 267.336585 
C 47.073171 269.326255 47.863675 271.234702 49.270584 272.641611 
C 50.677493 274.04852 52.58594 274.839024 54.57561 274.839024 
z
" clip-path="url(#pa2e7ae4a51)" style="fill: #2c3e50"/>
   </g>
   <g id="patch_61">
    <path d="M 73.331707 278.965366 
C 76.415696 278.965366 79.373788 277.740084 81.554497 275.559375 
C 83.735206 273.378666 84.960488 270.420574 84.960488 267.336585 
C 84.960488 264.252597 83.735206 261.294505 81.554497 259.113796 
C 79.373788 256.933087 76.415696 255.707805 73.331707 255.707805 
C 70.247719 255.707805 67.289627 256.933087 65.108918 259.113796 
C 62.928209 261.294505 61.702927 264.252597 61.702927 267.336585 
C 61.702927 270.420574 62.928209 273.378666 65.108918 275.559375 
C 67.289627 277.740084 70.247719 278.965366 73.331707 278.965366 
z
" clip-path="url(#pa2e7ae4a51)" style="fill: #2c3e50"/>
   </g>
   <g id="patch_62">
    <path d="M 54.57561 259.834146 
L 73.331707 255.707805 
L 73.331707 278.965366 
L 54.57561 274.839024 
z
" clip-path="url(#pa2e7ae4a51)" style="fill: #2c3e50"/>
   </g>
   <g id="patch_63">
    <path d="M 73.331707 290.594146 
C 79.499685 290.594146 85.415868 288.143583 89.777286 283.782164 
C 94.138705 279.420746 96.589268 273.504563 96.589268 267.336585 
C 96.589268 261.168608 94.138705 255.252425 89.777286 250.891006 
C 85.415868 246.529588 79.499685 244.079024 73.331707 244.079024 
C 67.16373 244.079024 61.247547 246.529588 56.886128 250.891006 
C 52.52471 255.252425 50.074146 261.168608 50.074146 267.336585 
C 50.074146 273.504563 52.52471 279.420746 56.886128 283.782164 
C 61.247547 288.143583 67.16373 290.594146 73.331707 290.594146 
z
" clip-path="url(#pa2e7ae4a51)" style="fill: #2c3e50"/>
   </g>
   <g id="patch_64">
    <path d="M 137.102439 284.592195 
C 141.67868 284.592195 146.068107 282.774035 149.303998 279.538144 
C 152.539889 276.302253 154.358049 271.912827 154.358049 267.336585 
C 154.358049 262.760344 152.539889 258.370918 149.303998 255.135027 
C 146.068107 251.899136 141.67868 250.080976 137.102439 250.080976 
C 132.526198 250.080976 128.136772 251.899136 124.90088 255.135027 
C 121.664989 258.370918 119.846829 262.760344 119.846829 267.336585 
C 119.846829 271.912827 121.664989 276.302253 124.90088 279.538144 
C 128.136772 282.774035 132.526198 284.592195 137.102439 284.592195 
z
" clip-path="url(#pa2e7ae4a51)" style="fill: #2c3e50"/>
   </g>
   <g id="patch_65">
    <path d="M 73.331707 244.079024 
L 137.102439 250.080976 
L 137.102439 284.592195 
L 73.331707 290.594146 
z
" clip-path="url(#pa2e7ae4a51)" style="fill: #2c3e50"/>
   </g>
   <g id="patch_66">
    <path d="M 137.102439 281.59122 
C 140.882812 281.59122 144.50886 280.089261 147.181987 277.416134 
C 149.855115 274.743006 151.357073 271.116959 151.357073 267.336585 
C 151.357073 263.556212 149.855115 259.930164 147.181987 257.257037 
C 144.50886 254.583909 140.882812 253.081951 137.102439 253.081951 
C 133.322066 253.081951 129.696018 254.583909 127.022891 257.257037 
C 124.349763 259.930164 122.847805 263.556212 122.847805 267.336585 
C 122.847805 271.116959 124.349763 274.743006 127.022891 277.416134 
C 129.696018 280.089261 133.322066 281.59122 137.102439 281.59122 
z
" clip-path="url(#pa2e7ae4a51)" style="fill: #3c3f42"/>
   </g>
   <g id="patch_67">
    <path d="M 178.365854 285.905122 
C 180.8032 285.905122 183.141046 284.936754 184.86451 283.21329 
C 186.587974 281.489827 187.556341 279.15198 187.556341 276.714634 
C 187.556341 274.277288 186.587974 271.939442 184.86451 270.215978 
C 183.141046 268.492514 180.8032 267.524146 178.365854 267.524146 
C 175.928508 267.524146 173.590661 268.492514 171.867197 270.215978 
C 170.143734 271.939442 169.175366 274.277288 169.175366 276.714634 
C 169.175366 279.15198 170.143734 281.489827 171.867197 283.21329 
C 173.590661 284.936754 175.928508 285.905122 178.365854 285.905122 
z
" clip-path="url(#pa2e7ae4a51)" style="fill: #3c3f42"/>
   </g>
   <g id="patch_68">
    <path d="M 140.261567 253.436423 
L 180.40266 267.752688 
L 176.329048 285.676581 
L 133.943311 281.236747 
z
" clip-path="url(#pa2e7ae4a51)" style="fill: #3c3f42"/>
   </g>
   <g id="patch_69">
    <path d="M 178.365854 285.905122 
C 180.8032 285.905122 183.141046 284.936754 184.86451 283.21329 
C 186.587974 281.489827 187.556341 279.15198 187.556341 276.714634 
C 187.556341 274.277288 186.587974 271.939442 184.86451 270.215978 
C 183.141046 268.492514 180.8032 267.524146 178.365854 267.524146 
C 175.928508 267.524146 173.590661 268.492514 171.867197 270.215978 
C 170.143734 271.939442 169.175366 274.277288 169.175366 276.714634 
C 169.175366 279.15198 170.143734 281.489827 171.867197 283.21329 
C 173.590661 284.936754 175.928508 285.905122 178.365854 285.905122 
z
" clip-path="url(#pa2e7ae4a51)" style="fill: #3c3f42"/>
   </g>
   <g id="patch_70">
    <path d="M 225.256098 286.655366 
C 226.897575 286.655366 228.472044 286.0032 229.632744 284.8425 
C 230.793444 283.6818 231.44561 282.107331 231.44561 280.465854 
C 231.44561 278.824376 230.793444 277.249908 229.632744 276.089208 
C 228.472044 274.928508 226.897575 274.276341 225.256098 274.276341 
C 223.61462 274.276341 222.040152 274.928508 220.879452 276.089208 
C 219.718751 277.249908 219.066585 278.824376 219.066585 280.465854 
C 219.066585 282.107331 219.718751 283.6818 220.879452 284.8425 
C 222.040152 286.0032 223.61462 286.655366 225.256098 286.655366 
z
" clip-path="url(#pa2e7ae4a51)" style="fill: #3c3f42"/>
   </g>
   <g id="patch_71">
    <path d="M 179.098751 267.553415 
L 225.749682 274.296053 
L 224.762514 286.635654 
L 177.632956 285.875853 
z
" clip-path="url(#pa2e7ae4a51)" style="fill: #3c3f42"/>
   </g>
   <g id="patch_72">
    <path d="M 225.256098 285.726939 
C 226.651354 285.726939 227.989652 285.172598 228.976247 284.186003 
C 229.962842 283.199408 230.517183 281.86111 230.517183 280.465854 
C 230.517183 279.070598 229.962842 277.7323 228.976247 276.745705 
C 227.989652 275.759109 226.651354 275.204768 225.256098 275.204768 
C 223.860841 275.204768 222.522544 275.759109 221.535948 276.745705 
C 220.549353 277.7323 219.995012 279.070598 219.995012 280.465854 
C 219.995012 281.86111 220.549353 283.199408 221.535948 284.186003 
C 222.522544 285.172598 223.860841 285.726939 225.256098 285.726939 
z
" clip-path="url(#pa2e7ae4a51)" style="fill: #1b1b1b"/>
   </g>
   <g id="patch_73">
    <path d="M 238.385366 285.745695 
C 239.288179 285.745695 240.154136 285.387004 240.792521 284.748619 
C 241.430906 284.110234 241.789598 283.244276 241.789598 282.341463 
C 241.789598 281.438651 241.430906 280.572693 240.792521 279.934308 
C 240.154136 279.295923 239.288179 278.937232 238.385366 278.937232 
C 237.482553 278.937232 236.616596 279.295923 235.978211 279.934308 
C 235.339825 280.572693 234.981134 281.438651 234.981134 282.341463 
C 234.981134 283.244276 235.339825 284.110234 235.978211 284.748619 
C 236.616596 285.387004 237.482553 285.745695 238.385366 285.745695 
z
" clip-path="url(#pa2e7ae4a51)" style="fill: #1b1b1b"/>
   </g>
   <g id="patch_74">
    <path d="M 226.000127 275.257645 
L 238.866797 278.971446 
L 237.903935 285.711481 
L 224.512068 285.674062 
z
" clip-path="url(#pa2e7ae4a51)" style="fill: #1b1b1b"/>
   </g>
   <g id="line2d_19">
    <path d="M 54.57561 259.834146 
L 73.331707 255.707805 
L 77.308984 256.409106 
L 80.806543 258.428423 
L 83.402527 261.522195 
L 84.78382 265.317269 
L 84.78382 269.355902 
L 83.402527 273.150976 
L 80.806543 276.244748 
L 77.308984 278.264065 
L 73.331707 278.965366 
L 54.57561 274.839024 
L 52.009624 274.386572 
L 49.753135 273.083787 
L 48.078307 271.087805 
L 47.18715 268.63937 
L 47.18715 266.033801 
L 48.078307 263.585366 
L 49.753135 261.589384 
L 52.009624 260.286599 
L 54.57561 259.834146 
L 54.57561 259.834146 
" clip-path="url(#pa2e7ae4a51)" style="fill: none; stroke: #1d2a36; stroke-width: 1.7; stroke-linecap: round"/>
   </g>
   <g id="line2d_20">
    <path d="M 73.331707 244.079024 
L 137.102439 250.080976 
L 143.004205 251.121616 
L 148.194131 254.118021 
L 152.046235 258.70878 
L 154.095897 264.34018 
L 154.095897 270.332991 
L 152.046235 275.96439 
L 148.194131 280.555149 
L 143.004205 283.551555 
L 137.102439 284.592195 
L 73.331707 290.594146 
L 65.377153 289.191544 
L 58.382035 285.152911 
L 53.190069 278.965366 
L 50.427481 271.375218 
L 50.427481 263.297952 
L 53.190069 255.707805 
L 58.382035 249.52026 
L 65.377153 245.481627 
L 73.331707 244.079024 
L 73.331707 244.079024 
" clip-path="url(#pa2e7ae4a51)" style="fill: none; stroke: #1d2a36; stroke-width: 1.7; stroke-linecap: round"/>
   </g>
   <g id="patch_75">
    <path d="M 73.331707 276.714634 
C 75.818795 276.714634 78.204353 275.726504 79.962989 273.967867 
C 81.721626 272.209231 82.709756 269.823673 82.709756 267.336585 
C 82.709756 264.849498 81.721626 262.46394 79.962989 260.705303 
C 78.204353 258.946667 75.818795 257.958537 73.331707 257.958537 
C 70.84462 257.958537 68.459062 258.946667 66.700425 260.705303 
C 64.941789 262.46394 63.953659 264.849498 63.953659 267.336585 
C 63.953659 269.823673 64.941789 272.209231 66.700425 273.967867 
C 68.459062 275.726504 70.84462 276.714634 73.331707 276.714634 
z
" clip-path="url(#pa2e7ae4a51)" style="fill: #2c3e50"/>
   </g>
   <g id="patch_76">
    <path d="M 86.460976 229.261707 
C 88.30142 229.261707 90.066733 228.530491 91.368124 227.2291 
C 92.669515 225.927709 93.400732 224.162396 93.400732 222.321951 
C 93.400732 220.481506 92.669515 218.716194 91.368124 217.414803 
C 90.066733 216.113412 88.30142 215.382195 86.460976 215.382195 
C 84.620531 215.382195 82.855218 216.113412 81.553827 217.414803 
C 80.252436 218.716194 79.52122 220.481506 79.52122 222.321951 
C 79.52122 224.162396 80.252436 225.927709 81.553827 227.2291 
C 82.855218 228.530491 84.620531 229.261707 86.460976 229.261707 
z
" clip-path="url(#pa2e7ae4a51)" style="fill: #2c3e50"/>
   </g>
   <g id="patch_77">
    <path d="M 64.32878 264.710732 
L 79.79881 220.37882 
L 93.123141 224.265083 
L 82.334634 269.962439 
z
" clip-path="url(#pa2e7ae4a51)" style="fill: #2c3e50"/>
   </g>
   <g id="patch_78">
    <path d="M 86.460976 229.261707 
C 88.30142 229.261707 90.066733 228.530491 91.368124 227.2291 
C 92.669515 225.927709 93.400732 224.162396 93.400732 222.321951 
C 93.400732 220.481506 92.669515 218.716194 91.368124 217.414803 
C 90.066733 216.113412 88.30142 215.382195 86.460976 215.382195 
C 84.620531 215.382195 82.855218 216.113412 81.553827 217.414803 
C 80.252436 218.716194 79.52122 220.481506 79.52122 222.321951 
C 79.52122 224.162396 80.252436 225.927709 81.553827 227.2291 
C 82.855218 228.530491 84.620531 229.261707 86.460976 229.261707 
z
" clip-path="url(#pa2e7ae4a51)" style="fill: #2c3e50"/>
   </g>
   <g id="patch_79">
    <path d="M 90.212195 186.872927 
C 91.754189 186.872927 93.233235 186.260286 94.32359 185.169931 
C 95.413945 184.079577 96.026585 182.600531 96.026585 181.058537 
C 96.026585 179.516542 95.413945 178.037496 94.32359 176.947142 
C 93.233235 175.856787 91.754189 175.244146 90.212195 175.244146 
C 88.670201 175.244146 87.191155 175.856787 86.1008 176.947142 
C 85.010446 178.037496 84.397805 179.516542 84.397805 181.058537 
C 84.397805 182.600531 85.010446 184.079577 86.1008 185.169931 
C 87.191155 186.260286 88.670201 186.872927 90.212195 186.872927 
z
" clip-path="url(#pa2e7ae4a51)" style="fill: #2c3e50"/>
   </g>
   <g id="patch_80">
    <path d="M 79.54972 221.693655 
L 84.421683 180.532126 
L 96.002707 181.584947 
L 93.372232 222.950247 
z
" clip-path="url(#pa2e7ae4a51)" style="fill: #2c3e50"/>
   </g>
   <g id="patch_81">
    <path d="M 225.256098 284.922302 
C 226.437962 284.922302 227.571579 284.452743 228.407283 283.617039 
C 229.242987 282.781335 229.712546 281.647718 229.712546 280.465854 
C 229.712546 279.28399 229.242987 278.150373 228.407283 277.314669 
C 227.571579 276.478964 226.437962 276.009405 225.256098 276.009405 
C 224.074234 276.009405 222.940616 276.478964 222.104912 277.314669 
C 221.269208 278.150373 220.799649 279.28399 220.799649 280.465854 
C 220.799649 281.647718 221.269208 282.781335 222.104912 283.617039 
C 222.940616 284.452743 224.074234 284.922302 225.256098 284.922302 
z
" clip-path="url(#pa2e7ae4a51)" style="fill: #1b1b1b; stroke: #121212; stroke-width: 1.3; stroke-linejoin: miter"/>
   </g>
   <g id="patch_82">
    <path d="M 90.212195 187.248049 
C 91.853673 187.248049 93.428141 186.595883 94.588841 185.435183 
C 95.749541 184.274483 96.401707 182.700014 96.401707 181.058537 
C 96.401707 179.417059 95.749541 177.842591 94.588841 176.681891 
C 93.428141 175.52119 91.853673 174.869024 90.212195 174.869024 
C 88.570717 174.869024 86.996249 175.52119 85.835549 176.681891 
C 84.674849 177.842591 84.022683 179.417059 84.022683 181.058537 
C 84.022683 182.700014 84.674849 184.274483 85.835549 185.435183 
C 86.996249 186.595883 88.570717 187.248049 90.212195 187.248049 
z
" clip-path="url(#pa2e7ae4a51)" style="fill: #f2e0c9; stroke: #a49888; stroke-width: 1.6; stroke-linejoin: miter"/>
   </g>
   <g id="line2d_21">
    <path d="M 140.261567 253.436423 
L 180.40266 267.752688 
L 183.344992 268.989788 
L 185.686766 271.158618 
L 187.14553 273.997587 
L 187.545336 277.164271 
L 186.837961 280.276722 
L 185.108724 282.959533 
L 182.566198 284.889117 
L 179.517048 285.832738 
L 176.329048 285.676581 
L 133.943311 281.236747 
L 129.379695 279.31798 
L 125.747555 275.954079 
L 123.484982 271.550782 
L 122.864875 266.63919 
L 123.962028 261.811714 
L 126.644109 257.650619 
L 130.587619 254.657795 
L 135.316913 253.19422 
L 140.261567 253.436423 
L 140.261567 253.436423 
" clip-path="url(#pa2e7ae4a51)" style="fill: none; stroke: #282a2c; stroke-width: 1.7; stroke-linecap: round"/>
   </g>
   <g id="line2d_22">
    <path d="M 179.098751 267.553415 
L 225.749682 274.296053 
L 227.830111 274.836954 
L 229.600076 276.056782 
L 230.846093 277.80841 
L 231.417875 279.880564 
L 231.246455 282.023314 
L 230.352509 283.97821 
L 228.843861 285.509465 
L 226.902476 286.432385 
L 224.762514 286.635654 
L 177.632956 285.875853 
L 174.543834 285.072698 
L 171.915704 283.261437 
L 170.065557 280.660536 
L 169.216548 277.5837 
L 169.471081 274.402042 
L 170.798454 271.499317 
L 173.038568 269.225636 
L 175.921231 267.855239 
L 179.098751 267.553415 
L 179.098751 267.553415 
" clip-path="url(#pa2e7ae4a51)" style="fill: none; stroke: #282a2c; stroke-width: 1.7; stroke-linecap: round"/>
   </g>
   <g id="line2d_23">
    <path d="M 226.000127 275.257645 
L 238.866797 278.971446 
L 239.990377 279.339342 
L 240.920369 280.069338 
L 241.544602 281.073386 
L 241.787785 282.230383 
L 241.620586 283.400778 
L 241.063171 284.443404 
L 240.182774 285.232504 
L 239.085582 285.672903 
L 237.903935 285.711481 
L 224.512068 285.674062 
L 222.775626 285.105496 
L 221.338366 283.97732 
L 220.373642 282.425609 
L 219.997814 280.637523 
L 220.256213 278.828731 
L 221.117671 277.217401 
L 222.478285 275.997881 
L 224.173945 275.317265 
L 226.000127 275.257645 
L 226.000127 275.257645 
" clip-path="url(#pa2e7ae4a51)" style="fill: none; stroke: #121212; stroke-width: 1.5; stroke-linecap: round"/>
   </g>
   <g id="line2d_24">
    <path d="M 64.32878 264.710732 
L 79.79881 220.37882 
L 80.865178 218.21741 
L 82.606481 216.551068 
L 84.812694 215.58078 
L 87.217714 215.423577 
L 89.53146 216.09842 
L 91.47486 217.523912 
L 92.813512 219.528119 
L 93.385954 221.869303 
L 93.123141 224.265083 
L 82.334634 269.962439 
L 80.893596 272.883263 
L 78.540483 275.135076 
L 75.559115 276.446276 
L 72.309088 276.658712 
L 69.182404 275.746763 
L 66.556188 273.820422 
L 64.747199 271.112035 
L 63.973629 267.948272 
L 64.32878 264.710732 
L 64.32878 264.710732 
" clip-path="url(#pa2e7ae4a51)" style="fill: none; stroke: #1d2a36; stroke-width: 1.7; stroke-linecap: round"/>
   </g>
   <g id="line2d_25">
    <path d="M 79.54972 221.693655 
L 84.421683 180.532126 
L 84.950937 178.583401 
L 86.114776 176.933214 
L 87.772824 175.780601 
L 89.725096 175.264586 
L 91.73612 175.447406 
L 93.563336 176.307011 
L 94.986354 177.739721 
L 95.833539 179.572729 
L 96.002707 181.584947 
L 93.372232 222.950247 
L 92.740542 225.276145 
L 91.351444 227.245724 
L 89.372483 228.621422 
L 87.042352 229.237312 
L 84.642098 229.019107 
L 82.461227 227.993126 
L 80.762786 226.283118 
L 79.75163 224.095335 
L 79.54972 221.693655 
L 79.54972 221.693655 
" clip-path="url(#pa2e7ae4a51)" style="fill: none; stroke: #1d2a36; stroke-width: 1.7; stroke-linecap: round"/>
   </g>
   <g id="patch_83">
    <path d="M 54.57561 282.341463 
C 58.55495 282.341463 62.371842 280.760455 65.185661 277.946636 
C 67.999479 275.132818 69.580488 271.315926 69.580488 267.336585 
C 69.580488 263.357245 67.999479 259.540353 65.185661 256.726534 
C 62.371842 253.912716 58.55495 252.331707 54.57561 252.331707 
C 50.59627 252.331707 46.779377 253.912716 43.965559 256.726534 
C 41.15174 259.540353 39.570732 263.357245 39.570732 267.336585 
C 39.570732 271.315926 41.15174 275.132818 43.965559 277.946636 
C 46.779377 280.760455 50.59627 282.341463 54.57561 282.341463 
z
" clip-path="url(#pa2e7ae4a51)" style="fill: #f2e0c9; stroke: #a49888; stroke-width: 1.8; stroke-linejoin: miter"/>
   </g>
   <g id="patch_84">
    <path d="M 169.045278 215.339468 
Q 207.143242 226.057937 211.612522 262.905356 
" clip-path="url(#pa2e7ae4a51)" style="fill: none; stroke-dasharray: 2.2,0; stroke-dashoffset: 0; stroke: #c0392b; stroke-width: 2.2; stroke-linecap: round"/>
    <path d="M 213.717859 257.008954 
L 211.612522 262.905356 
L 208.158603 257.683245 
z
" clip-path="url(#pa2e7ae4a51)" style="fill: #c0392b; stroke-dasharray: 2.2,0; stroke-dashoffset: 0; stroke: #c0392b; stroke-width: 2.2; stroke-linecap: round"/>
   </g>
  </g>
 </g>
 <defs>
  <clipPath id="pa2e7ae4a51">
   <rect x="5.809756" y="1" width="247.580488" height="307.6"/>
  </clipPath>
 </defs>
</svg>
