<?xml version="1.0" encoding="utf-8" standalone="no"?>
<!DOCTYPE svg PUBLIC "-//W3C//DTD SVG 1.1//EN"
  "http://www.w3.org/Graphics/SVG/1.1/DTD/svg11.dtd">
<svg xmlns:xlink="http://www.w3.org/1999/xlink" width="259.2pt" height="309.6pt" viewBox="0 0 259.2 309.6" xmlns="http://www.w3.org/2000/svg" version="1.1">
 <metadata>
  <rdf:RDF xmlns:dc="http://purl.org/dc/elements/1.1/" xmlns:cc="http://creativecommons.org/ns#" xmlns:rdf="http://www.w3.org/1999/02/22-rdf-syntax-ns#">
   <cc:Work>
    <dc:type rdf:resource="http://purl.org/dc/dcmitype/StillImage"/>
    <dc:date>2026-07-10T23:04:56.253171</dc:date>
    <dc:format>image/svg+xml</dc:format>
    <dc:creator>
     <cc:Agent>
      <dc:title>Matplotlib v3.10.8, https://matplotlib.org/</dc:title>
     </cc:Agent>
    </dc:creator>
   </cc:Work>
  </rdf:RDF>
 </metadata>
 <defs>
  <style type="text/css">*{stroke-linejoin: round; stroke-linecap: butt}</style>
 </defs>
 <g id="figure_1">
  <g id="patch_1">
   <path d="M 0 309.6 
L 259.2 309.6 
L 259.2 0 
L 0 0 
L 0 309.6 
z
" style="fill: none"/>
  </g>
  <g id="axes_1">
   <g id="line2d_1">
    <path d="M 17.063415 299.221951 
L 242.136585 299.221951 
" clip-path="url(#p19788fd99f)" style="fill: none; stroke: #c3c3c3; stroke-width: 3; stroke-linecap: round"/>
   </g>
   <g id="patch_2">
    <path d="M 161.485366 299.221951 
L 169.738049 299.221951 
L 169.738049 25.382927 
L 161.485366 25.382927 
z
" clip-path="url(#p19788fd99f)" style="fill: #9aa5b1; stroke: #9aa5b1; stroke-linejoin: miter"/>
   </g>
   <g id="patch_3">
    <path d="M 131.47561 162.287434 
C 134.953553 162.287434 138.289517 160.905633 140.748794 158.446355 
C 143.208072 155.987078 144.589873 152.651114 144.589873 149.173171 
C 144.589873 145.695227 143.208072 142.359263 140.748794 139.899986 
C 138.289517 137.440709 134.953553 136.058907 131.47561 136.058907 
C 127.997666 136.058907 124.661702 137.440709 122.202425 139.899986 
C 119.743148 142.359263 118.361346 145.695227 118.361346 149.173171 
C 118.361346 152.651114 119.743148 155.987078 122.202425 158.446355 
C 124.661702 160.905633 127.997666 162.287434 131.47561 162.287434 
z
" clip-path="url(#p19788fd99f)" style="fill: #3c3f42; fill-opacity: 0.95"/>
   </g>
   <g id="patch_4">
    <path d="M 110.843902 227.02598 
C 113.086261 227.02598 115.23708 226.135082 116.822666 224.549495 
C 118.408253 222.963909 119.299151 220.81309 119.299151 218.570732 
C 119.299151 216.328374 118.408253 214.177555 116.822666 212.591968 
C 115.23708 211.006381 113.086261 210.115483 110.843902 210.115483 
C 108.601544 210.115483 106.450725 211.006381 104.865139 212.591968 
C 103.279552 214.177555 102.388654 216.328374 102.388654 218.570732 
C 102.388654 220.81309 103.279552 222.963909 104.865139 224.549495 
C 106.450725 226.135082 108.601544 227.02598 110.843902 227.02598 
z
" clip-path="url(#p19788fd99f)" style="fill: #3c3f42; fill-opacity: 0.95"/>
   </g>
   <g id="patch_5">
    <path d="M 144.046108 152.910346 
L 118.948566 220.980226 
L 102.739239 216.161237 
L 118.905111 145.435996 
z
" clip-path="url(#p19788fd99f)" style="fill: #3c3f42; fill-opacity: 0.95"/>
   </g>
   <g id="patch_6">
    <path d="M 110.843902 227.02598 
C 113.086261 227.02598 115.23708 226.135082 116.822666 224.549495 
C 118.408253 222.963909 119.299151 220.81309 119.299151 218.570732 
C 119.299151 216.328374 118.408253 214.177555 116.822666 212.591968 
C 115.23708 211.006381 113.086261 210.115483 110.843902 210.115483 
C 108.601544 210.115483 106.450725 211.006381 104.865139 212.591968 
C 103.279552 214.177555 102.388654 216.328374 102.388654 218.570732 
C 102.388654 220.81309 103.279552 222.963909 104.865139 224.549495 
C 106.450725 226.135082 108.601544 227.02598 110.843902 227.02598 
z
" clip-path="url(#p19788fd99f)" style="fill: #3c3f42; fill-opacity: 0.95"/>
   </g>
   <g id="patch_7">
    <path d="M 99.590244 289.911424 
C 101.100403 289.911424 102.548914 289.311432 103.616758 288.243588 
C 104.684602 287.175743 105.284595 285.727233 105.284595 284.217073 
C 105.284595 282.706914 104.684602 281.258403 103.616758 280.190559 
C 102.548914 279.122715 101.100403 278.522722 99.590244 278.522722 
C 98.080084 278.522722 96.631574 279.122715 95.56373 280.190559 
C 94.495885 281.258403 93.895893 282.706914 93.895893 284.217073 
C 93.895893 285.727233 94.495885 287.175743 95.56373 288.243588 
C 96.631574 289.311432 98.080084 289.911424 99.590244 289.911424 
z
" clip-path="url(#p19788fd99f)" style="fill: #3c3f42; fill-opacity: 0.95"/>
   </g>
   <g id="patch_8">
    <path d="M 119.177584 219.999363 
L 105.202723 285.179212 
L 93.977765 283.254934 
L 102.510221 217.142101 
z
" clip-path="url(#p19788fd99f)" style="fill: #3c3f42; fill-opacity: 0.95"/>
   </g>
   <g id="patch_9">
    <path d="M 99.590244 289.057272 
C 100.87388 289.057272 102.105114 288.547278 103.012781 287.63961 
C 103.920449 286.731943 104.430442 285.500709 104.430442 284.217073 
C 104.430442 282.933438 103.920449 281.702203 103.012781 280.794536 
C 102.105114 279.886868 100.87388 279.376875 99.590244 279.376875 
C 98.306608 279.376875 97.075374 279.886868 96.167707 280.794536 
C 95.260039 281.702203 94.750045 282.933438 94.750045 284.217073 
C 94.750045 285.500709 95.260039 286.731943 96.167707 287.63961 
C 97.075374 288.547278 98.306608 289.057272 99.590244 289.057272 
z
" clip-path="url(#p19788fd99f)" style="fill: #1b1b1b; fill-opacity: 0.95"/>
   </g>
   <g id="patch_10">
    <path d="M 86.460976 289.224576 
C 87.291563 289.224576 88.088244 288.89458 88.675559 288.307266 
C 89.262873 287.719952 89.592869 286.923271 89.592869 286.092683 
C 89.592869 285.262095 89.262873 284.465414 88.675559 283.8781 
C 88.088244 283.290786 87.291563 282.96079 86.460976 282.96079 
C 85.630388 282.96079 84.833707 283.290786 84.246393 283.8781 
C 83.659078 284.465414 83.329082 285.262095 83.329082 286.092683 
C 83.329082 286.923271 83.659078 287.719952 84.246393 288.307266 
C 84.833707 288.89458 85.630388 289.224576 86.460976 289.224576 
z
" clip-path="url(#p19788fd99f)" style="fill: #1b1b1b; fill-opacity: 0.95"/>
   </g>
   <g id="patch_11">
    <path d="M 100.274751 289.008625 
L 86.903892 289.193099 
L 86.018059 282.992267 
L 98.905736 279.425521 
z
" clip-path="url(#p19788fd99f)" style="fill: #1b1b1b; fill-opacity: 0.95"/>
   </g>
   <g id="patch_12">
    <path d="M 99.590244 288.317006 
C 100.677559 288.317006 101.720486 287.885011 102.489334 287.116164 
C 103.258182 286.347316 103.690177 285.304388 103.690177 284.217073 
C 103.690177 283.129758 103.258182 282.086831 102.489334 281.317983 
C 101.720486 280.549135 100.677559 280.11714 99.590244 280.11714 
C 98.502929 280.11714 97.460001 280.549135 96.691154 281.317983 
C 95.922306 282.086831 95.490311 283.129758 95.490311 284.217073 
C 95.490311 285.304388 95.922306 286.347316 96.691154 287.116164 
C 97.460001 287.885011 98.502929 288.317006 99.590244 288.317006 
z
" clip-path="url(#p19788fd99f)" style="fill: #1b1b1b; fill-opacity: 0.95; stroke: #121212; stroke-width: 1.3; stroke-linejoin: miter"/>
   </g>
   <g id="line2d_2">
    <path d="M 144.046108 152.910346 
L 118.948566 220.980226 
L 117.635699 223.606874 
L 115.503642 225.626089 
L 112.809551 226.794323 
L 109.878374 226.970671 
L 107.063654 226.133863 
L 104.704887 224.384829 
L 103.086577 221.934529 
L 102.403914 219.078506 
L 102.739239 216.161237 
L 118.905111 145.435996 
L 120.941394 141.362011 
L 124.248259 138.230168 
L 128.426849 136.418212 
L 132.973165 136.144693 
L 137.338853 137.4426 
L 140.997348 140.155387 
L 143.50738 143.955852 
L 144.566203 148.385603 
L 144.046108 152.910346 
L 144.046108 152.910346 
" clip-path="url(#p19788fd99f)" style="fill: none; stroke: #282a2c; stroke-width: 1.7; stroke-linecap: round"/>
   </g>
   <g id="line2d_3">
    <path d="M 119.177584 219.999363 
L 105.202723 285.179212 
L 104.535178 287.040769 
L 103.271201 288.561747 
L 101.563246 289.558692 
L 99.617318 289.91136 
L 97.668125 289.577213 
L 95.950767 288.596553 
L 94.672384 287.087664 
L 93.987168 285.232539 
L 93.977765 283.254934 
L 102.510221 217.142101 
L 103.501424 214.377971 
L 105.378239 212.11955 
L 107.914293 210.639236 
L 110.803701 210.115578 
L 113.697958 210.611737 
L 116.247974 212.067867 
L 118.146179 214.308339 
L 119.163622 217.062919 
L 119.177584 219.999363 
L 119.177584 219.999363 
" clip-path="url(#p19788fd99f)" style="fill: none; stroke: #282a2c; stroke-width: 1.7; stroke-linecap: round"/>
   </g>
   <g id="line2d_4">
    <path d="M 100.274751 289.008625 
L 86.903892 289.193099 
L 85.816776 289.157607 
L 84.80736 288.752441 
L 83.997395 288.026468 
L 83.484573 287.067252 
L 83.33075 285.990489 
L 83.554478 284.926052 
L 84.128773 284.002328 
L 84.984365 283.330731 
L 86.018059 282.992267 
L 98.905736 279.425521 
L 100.585825 279.480372 
L 102.145831 280.106538 
L 103.397596 281.228496 
L 104.190138 282.710921 
L 104.427865 284.375009 
L 104.082103 286.020048 
L 103.194557 287.447622 
L 101.872278 288.485544 
L 100.274751 289.008625 
L 100.274751 289.008625 
" clip-path="url(#p19788fd99f)" style="fill: none; stroke: #121212; stroke-width: 1.5; stroke-linecap: round"/>
   </g>
   <g id="patch_13">
    <path d="M 123.973171 74.14878 
C 125.962841 74.14878 127.871287 73.358276 129.278196 71.951367 
C 130.685105 70.544458 131.47561 68.636012 131.47561 66.646341 
C 131.47561 64.656671 130.685105 62.748225 129.278196 61.341316 
C 127.871287 59.934407 125.962841 59.143902 123.973171 59.143902 
C 121.983501 59.143902 120.075054 59.934407 118.668145 61.341316 
C 117.261236 62.748225 116.470732 64.656671 116.470732 66.646341 
C 116.470732 68.636012 117.261236 70.544458 118.668145 71.951367 
C 120.075054 73.358276 121.983501 74.14878 123.973171 74.14878 
z
" clip-path="url(#p19788fd99f)" style="fill: #2c3e50"/>
   </g>
   <g id="patch_14">
    <path d="M 135.226829 97.03122 
C 138.310818 97.03122 141.26891 95.805938 143.449619 93.625229 
C 145.630328 91.444519 146.85561 88.486428 146.85561 85.402439 
C 146.85561 82.31845 145.630328 79.360359 143.449619 77.179649 
C 141.26891 74.99894 138.310818 73.773659 135.226829 73.773659 
C 132.142841 73.773659 129.184749 74.99894 127.00404 77.179649 
C 124.82333 79.360359 123.598049 82.31845 123.598049 85.402439 
C 123.598049 88.486428 124.82333 91.444519 127.00404 93.625229 
C 129.184749 95.805938 132.142841 97.03122 135.226829 97.03122 
z
" clip-path="url(#p19788fd99f)" style="fill: #2c3e50"/>
   </g>
   <g id="patch_15">
    <path d="M 130.406459 62.786368 
L 145.198426 79.419481 
L 125.255232 91.385397 
L 117.539882 70.506314 
z
" clip-path="url(#p19788fd99f)" style="fill: #2c3e50"/>
   </g>
   <g id="patch_16">
    <path d="M 135.226829 108.66 
C 141.394807 108.66 147.31099 106.209437 151.672408 101.848018 
C 156.033827 97.4866 158.48439 91.570416 158.48439 85.402439 
C 158.48439 79.234462 156.033827 73.318278 151.672408 68.95686 
C 147.31099 64.595441 141.394807 62.144878 135.226829 62.144878 
C 129.058852 62.144878 123.142669 64.595441 118.78125 68.95686 
C 114.419832 73.318278 111.969268 79.234462 111.969268 85.402439 
C 111.969268 91.570416 114.419832 97.4866 118.78125 101.848018 
C 123.142669 106.209437 129.058852 108.66 135.226829 108.66 
z
" clip-path="url(#p19788fd99f)" style="fill: #2c3e50"/>
   </g>
   <g id="patch_17">
    <path d="M 131.47561 166.42878 
C 136.051851 166.42878 140.441277 164.610621 143.677168 161.374729 
C 146.91306 158.138838 148.73122 153.749412 148.73122 149.173171 
C 148.73122 144.59693 146.91306 140.207503 143.677168 136.971612 
C 140.441277 133.735721 136.051851 131.917561 131.47561 131.917561 
C 126.899369 131.917561 122.509942 133.735721 119.274051 136.971612 
C 116.03816 140.207503 114.22 144.59693 114.22 149.173171 
C 114.22 153.749412 116.03816 158.138838 119.274051 161.374729 
C 122.509942 164.610621 126.899369 166.42878 131.47561 166.42878 
z
" clip-path="url(#p19788fd99f)" style="fill: #2c3e50"/>
   </g>
   <g id="patch_18">
    <path d="M 158.444256 86.76817 
L 148.701443 150.186455 
L 114.249777 148.159886 
L 112.009402 84.036708 
z
" clip-path="url(#p19788fd99f)" style="fill: #2c3e50"/>
   </g>
   <g id="patch_19">
    <path d="M 131.47561 163.427805 
C 135.255983 163.427805 138.882031 161.925847 141.555158 159.252719 
C 144.228286 156.579592 145.730244 152.953544 145.730244 149.173171 
C 145.730244 145.392798 144.228286 141.76675 141.555158 139.093622 
C 138.882031 136.420495 135.255983 134.918537 131.47561 134.918537 
C 127.695237 134.918537 124.069189 136.420495 121.396061 139.093622 
C 118.722934 141.76675 117.220976 145.392798 117.220976 149.173171 
C 117.220976 152.953544 118.722934 156.579592 121.396061 159.252719 
C 124.069189 161.925847 127.695237 163.427805 131.47561 163.427805 
z
" clip-path="url(#p19788fd99f)" style="fill: #3c3f42"/>
   </g>
   <g id="patch_20">
    <path d="M 150.231707 229.636829 
C 152.669053 229.636829 155.0069 228.668461 156.730364 226.944998 
C 158.453827 225.221534 159.422195 222.883687 159.422195 220.446341 
C 159.422195 218.008996 158.453827 215.671149 156.730364 213.947685 
C 155.0069 212.224221 152.669053 211.255854 150.231707 211.255854 
C 147.794361 211.255854 145.456515 212.224221 143.733051 213.947685 
C 142.009587 215.671149 141.04122 218.008996 141.04122 220.446341 
C 141.04122 222.883687 142.009587 225.221534 143.733051 226.944998 
C 145.456515 228.668461 147.794361 229.636829 150.231707 229.636829 
z
" clip-path="url(#p19788fd99f)" style="fill: #3c3f42"/>
   </g>
   <g id="patch_21">
    <path d="M 145.260903 145.545462 
L 159.119594 218.107424 
L 141.343821 222.785259 
L 117.690316 152.80088 
z
" clip-path="url(#p19788fd99f)" style="fill: #3c3f42"/>
   </g>
   <g id="patch_22">
    <path d="M 150.231707 229.636829 
C 152.669053 229.636829 155.0069 228.668461 156.730364 226.944998 
C 158.453827 225.221534 159.422195 222.883687 159.422195 220.446341 
C 159.422195 218.008996 158.453827 215.671149 156.730364 213.947685 
C 155.0069 212.224221 152.669053 211.255854 150.231707 211.255854 
C 147.794361 211.255854 145.456515 212.224221 143.733051 213.947685 
C 142.009587 215.671149 141.04122 218.008996 141.04122 220.446341 
C 141.04122 222.883687 142.009587 225.221534 143.733051 226.944998 
C 145.456515 228.668461 147.794361 229.636829 150.231707 229.636829 
z
" clip-path="url(#p19788fd99f)" style="fill: #3c3f42"/>
   </g>
   <g id="patch_23">
    <path d="M 163.360976 290.406585 
C 165.002453 290.406585 166.576922 289.754419 167.737622 288.593719 
C 168.898322 287.433019 169.550488 285.858551 169.550488 284.217073 
C 169.550488 282.575595 168.898322 281.001127 167.737622 279.840427 
C 166.576922 278.679727 165.002453 278.027561 163.360976 278.027561 
C 161.719498 278.027561 160.14503 278.679727 158.98433 279.840427 
C 157.823629 281.001127 157.171463 282.575595 157.171463 284.217073 
C 157.171463 285.858551 157.823629 287.433019 158.98433 288.593719 
C 160.14503 289.754419 161.719498 290.406585 163.360976 290.406585 
z
" clip-path="url(#p19788fd99f)" style="fill: #3c3f42"/>
   </g>
   <g id="patch_24">
    <path d="M 159.233395 218.593053 
L 169.423337 282.96894 
L 157.298614 285.465206 
L 141.230019 222.29963 
z
" clip-path="url(#p19788fd99f)" style="fill: #3c3f42"/>
   </g>
   <g id="patch_25">
    <path d="M 163.360976 289.478159 
C 164.756232 289.478159 166.09453 288.923817 167.081125 287.937222 
C 168.06772 286.950627 168.622061 285.612329 168.622061 284.217073 
C 168.622061 282.821817 168.06772 281.483519 167.081125 280.496924 
C 166.09453 279.510329 164.756232 278.955988 163.360976 278.955988 
C 161.965719 278.955988 160.627422 279.510329 159.640826 280.496924 
C 158.654231 281.483519 158.09989 282.821817 158.09989 284.217073 
C 158.09989 285.612329 158.654231 286.950627 159.640826 287.937222 
C 160.627422 288.923817 161.965719 289.478159 163.360976 289.478159 
z
" clip-path="url(#p19788fd99f)" style="fill: #1b1b1b"/>
   </g>
   <g id="patch_26">
    <path d="M 178.365854 287.621305 
C 179.268666 287.621305 180.134624 287.262614 180.773009 286.624228 
C 181.411394 285.985843 181.770085 285.119886 181.770085 284.217073 
C 181.770085 283.31426 181.411394 282.448303 180.773009 281.809918 
C 180.134624 281.171533 179.268666 280.812841 178.365854 280.812841 
C 177.463041 280.812841 176.597083 281.171533 175.958698 281.809918 
C 175.320313 282.448303 174.961622 283.31426 174.961622 284.217073 
C 174.961622 285.119886 175.320313 285.985843 175.958698 286.624228 
C 176.597083 287.262614 177.463041 287.621305 178.365854 287.621305 
z
" clip-path="url(#p19788fd99f)" style="fill: #1b1b1b"/>
   </g>
   <g id="patch_27">
    <path d="M 163.360976 278.955988 
L 178.365854 280.812841 
L 178.365854 287.621305 
L 163.360976 289.478159 
z
" clip-path="url(#p19788fd99f)" style="fill: #1b1b1b"/>
   </g>
   <g id="line2d_5">
    <path d="M 130.406459 62.786368 
L 145.198426 79.419481 
L 146.643358 83.190784 
L 146.711287 87.228846 
L 145.394022 91.046616 
L 142.850443 94.183615 
L 139.387343 96.261475 
L 135.422425 97.029574 
L 131.433914 96.39527 
L 127.902885 94.435068 
L 125.255232 91.385397 
L 117.539882 70.506314 
L 116.607669 68.073215 
L 116.563843 65.468014 
L 117.413692 63.004937 
L 119.054711 60.981066 
L 121.288968 59.640512 
L 123.84698 59.144964 
L 126.420213 59.554193 
L 128.698296 60.818839 
L 130.406459 62.786368 
L 130.406459 62.786368 
" clip-path="url(#p19788fd99f)" style="fill: none; stroke: #1d2a36; stroke-width: 1.7; stroke-linecap: round"/>
   </g>
   <g id="line2d_6">
    <path d="M 158.444256 86.76817 
L 148.701443 150.186455 
L 147.316034 156.016928 
L 144.020037 161.021944 
L 139.210996 164.597822 
L 133.468954 166.31326 
L 127.486485 165.96135 
L 121.985163 163.584538 
L 117.62853 159.469502 
L 114.942058 154.112577 
L 114.249777 148.159886 
L 112.009402 84.036708 
L 113.876692 76.178244 
L 118.319123 69.432354 
L 124.800873 64.612692 
L 132.540148 62.30058 
L 140.603476 62.774894 
L 148.018301 65.978423 
L 153.890285 71.524775 
L 157.511182 78.744979 
L 158.444256 86.76817 
L 158.444256 86.76817 
" clip-path="url(#p19788fd99f)" style="fill: none; stroke: #1d2a36; stroke-width: 1.7; stroke-linecap: round"/>
   </g>
   <g id="patch_28">
    <path d="M 135.226829 94.780488 
C 137.713917 94.780488 140.099475 93.792357 141.858111 92.033721 
C 143.616748 90.275084 144.604878 87.889527 144.604878 85.402439 
C 144.604878 82.915351 143.616748 80.529794 141.858111 78.771157 
C 140.099475 77.012521 137.713917 76.02439 135.226829 76.02439 
C 132.739742 76.02439 130.354184 77.012521 128.595547 78.771157 
C 126.836911 80.529794 125.84878 82.915351 125.84878 85.402439 
C 125.84878 87.889527 126.836911 90.275084 128.595547 92.033721 
C 130.354184 93.792357 132.739742 94.780488 135.226829 94.780488 
z
" clip-path="url(#p19788fd99f)" style="fill: #2c3e50"/>
   </g>
   <g id="patch_29">
    <path d="M 161.485366 92.342195 
C 163.325811 92.342195 165.091123 91.610979 166.392514 90.309588 
C 167.693905 89.008197 168.425122 87.242884 168.425122 85.402439 
C 168.425122 83.561994 167.693905 81.796681 166.392514 80.49529 
C 165.091123 79.193899 163.325811 78.462683 161.485366 78.462683 
C 159.644921 78.462683 157.879608 79.193899 156.578217 80.49529 
C 155.276826 81.796681 154.54561 83.561994 154.54561 85.402439 
C 154.54561 87.242884 155.276826 89.008197 156.578217 90.309588 
C 157.879608 91.610979 159.644921 92.342195 161.485366 92.342195 
z
" clip-path="url(#p19788fd99f)" style="fill: #2c3e50"/>
   </g>
   <g id="patch_30">
    <path d="M 135.226829 76.02439 
L 161.485366 78.462683 
L 161.485366 92.342195 
L 135.226829 94.780488 
z
" clip-path="url(#p19788fd99f)" style="fill: #2c3e50"/>
   </g>
   <g id="patch_31">
    <path d="M 161.485366 92.342195 
C 163.325811 92.342195 165.091123 91.610979 166.392514 90.309588 
C 167.693905 89.008197 168.425122 87.242884 168.425122 85.402439 
C 168.425122 83.561994 167.693905 81.796681 166.392514 80.49529 
C 165.091123 79.193899 163.325811 78.462683 161.485366 78.462683 
C 159.644921 78.462683 157.879608 79.193899 156.578217 80.49529 
C 155.276826 81.796681 154.54561 83.561994 154.54561 85.402439 
C 154.54561 87.242884 155.276826 89.008197 156.578217 90.309588 
C 157.879608 91.610979 159.644921 92.342195 161.485366 92.342195 
z
" clip-path="url(#p19788fd99f)" style="fill: #2c3e50"/>
   </g>
   <g id="patch_32">
    <path d="M 161.485366 57.455854 
C 163.02736 57.455854 164.506406 56.843213 165.596761 55.752858 
C 166.687115 54.662504 167.299756 53.183458 167.299756 51.641463 
C 167.299756 50.099469 166.687115 48.620423 165.596761 47.530069 
C 164.506406 46.439714 163.02736 45.827073 161.485366 45.827073 
C 159.943372 45.827073 158.464326 46.439714 157.373971 47.530069 
C 156.283616 48.620423 155.670976 50.099469 155.670976 51.641463 
C 155.670976 53.183458 156.283616 54.662504 157.373971 55.752858 
C 158.464326 56.843213 159.943372 57.455854 161.485366 57.455854 
z
" clip-path="url(#p19788fd99f)" style="fill: #2c3e50"/>
   </g>
   <g id="patch_33">
    <path d="M 154.54561 85.402439 
L 155.670976 51.641463 
L 167.299756 51.641463 
L 168.425122 85.402439 
z
" clip-path="url(#p19788fd99f)" style="fill: #2c3e50"/>
   </g>
   <g id="patch_34">
    <path d="M 163.360976 288.673522 
C 164.54284 288.673522 165.676457 288.203962 166.512161 287.368258 
C 167.347865 286.532554 167.817424 285.398937 167.817424 284.217073 
C 167.817424 283.035209 167.347865 281.901592 166.512161 281.065888 
C 165.676457 280.230184 164.54284 279.760624 163.360976 279.760624 
C 162.179112 279.760624 161.045495 280.230184 160.20979 281.065888 
C 159.374086 281.901592 158.904527 283.035209 158.904527 284.217073 
C 158.904527 285.398937 159.374086 286.532554 160.20979 287.368258 
C 161.045495 288.203962 162.179112 288.673522 163.360976 288.673522 
z
" clip-path="url(#p19788fd99f)" style="fill: #1b1b1b; stroke: #121212; stroke-width: 1.3; stroke-linejoin: miter"/>
   </g>
   <g id="patch_35">
    <path d="M 161.485366 57.830976 
C 163.126844 57.830976 164.701312 57.17881 165.862012 56.018109 
C 167.022712 54.857409 167.674878 53.282941 167.674878 51.641463 
C 167.674878 49.999986 167.022712 48.425517 165.862012 47.264817 
C 164.701312 46.104117 163.126844 45.451951 161.485366 45.451951 
C 159.843888 45.451951 158.26942 46.104117 157.10872 47.264817 
C 155.94802 48.425517 155.295854 49.999986 155.295854 51.641463 
C 155.295854 53.282941 155.94802 54.857409 157.10872 56.018109 
C 158.26942 57.17881 159.843888 57.830976 161.485366 57.830976 
z
" clip-path="url(#p19788fd99f)" style="fill: #f2e0c9; stroke: #a49888; stroke-width: 1.6; stroke-linejoin: miter"/>
   </g>
   <g id="line2d_7">
    <path d="M 145.260903 145.545462 
L 159.119594 218.107424 
L 159.383546 221.288314 
L 158.543651 224.36765 
L 156.701213 226.974018 
L 154.078457 228.793052 
L 150.991726 229.60535 
L 147.813326 229.312936 
L 144.926618 227.95108 
L 142.679783 225.684041 
L 141.343821 222.785259 
L 117.690316 152.80088 
L 117.280921 147.867254 
L 118.583616 143.091141 
L 121.441275 139.048611 
L 125.509223 136.227252 
L 130.296805 134.967362 
L 135.226569 135.420902 
L 139.703911 137.533169 
L 143.188799 141.049391 
L 145.260903 145.545462 
L 145.260903 145.545462 
" clip-path="url(#p19788fd99f)" style="fill: none; stroke: #282a2c; stroke-width: 1.7; stroke-linecap: round"/>
   </g>
   <g id="line2d_8">
    <path d="M 159.233395 218.593053 
L 169.423337 282.96894 
L 169.484619 285.117661 
L 168.807298 287.157758 
L 167.473071 288.843165 
L 165.642865 289.970598 
L 163.537429 290.40407 
L 161.41071 290.091299 
L 159.519222 289.070009 
L 158.091106 287.463384 
L 157.298614 285.465206 
L 141.230019 222.29963 
L 141.139025 219.109105 
L 142.144743 216.079869 
L 144.125868 213.577295 
L 146.843448 211.90323 
L 149.969701 211.259589 
L 153.127556 211.724007 
L 155.936129 213.240466 
L 158.056665 215.626061 
L 159.233395 218.593053 
L 159.233395 218.593053 
" clip-path="url(#p19788fd99f)" style="fill: none; stroke: #282a2c; stroke-width: 1.7; stroke-linecap: round"/>
   </g>
   <g id="line2d_9">
    <path d="M 163.360976 278.955988 
L 178.365854 280.812841 
L 179.530169 281.018142 
L 180.554052 281.60928 
L 181.314005 282.514957 
L 181.718367 283.625935 
L 181.718367 284.808212 
L 181.314005 285.919189 
L 180.554052 286.824866 
L 179.530169 287.416005 
L 178.365854 287.621305 
L 163.360976 289.478159 
L 161.561578 289.160876 
L 159.979215 288.247298 
L 158.804742 286.847616 
L 158.179818 285.130651 
L 158.179818 283.303495 
L 158.804742 281.58653 
L 159.979215 280.186848 
L 161.561578 279.27327 
L 163.360976 278.955988 
L 163.360976 278.955988 
" clip-path="url(#p19788fd99f)" style="fill: none; stroke: #121212; stroke-width: 1.5; stroke-linecap: round"/>
   </g>
   <g id="line2d_10">
    <path d="M 135.226829 76.02439 
L 161.485366 78.462683 
L 163.858902 78.881201 
L 165.946155 80.086277 
L 167.495371 81.932561 
L 168.319691 84.197363 
L 168.319691 86.607515 
L 167.495371 88.872317 
L 165.946155 90.718601 
L 163.858902 91.923677 
L 161.485366 92.342195 
L 135.226829 94.780488 
L 132.019348 94.214922 
L 129.198736 92.586441 
L 127.105201 90.091463 
L 125.991254 87.03092 
L 125.991254 83.773958 
L 127.105201 80.713415 
L 129.198736 78.218437 
L 132.019348 76.589956 
L 135.226829 76.02439 
L 135.226829 76.02439 
" clip-path="url(#p19788fd99f)" style="fill: none; stroke: #1d2a36; stroke-width: 1.7; stroke-linecap: round"/>
   </g>
   <g id="line2d_11">
    <path d="M 154.54561 85.402439 
L 155.670976 51.641463 
L 156.021626 49.652825 
L 157.031285 47.904045 
L 158.578171 46.606054 
L 160.475708 45.915407 
L 162.495024 45.915407 
L 164.392561 46.606054 
L 165.939447 47.904045 
L 166.949105 49.652825 
L 167.299756 51.641463 
L 168.425122 85.402439 
L 168.006603 87.775975 
L 166.801527 89.863228 
L 164.955244 91.412444 
L 162.690442 92.236765 
L 160.28029 92.236765 
L 158.015488 91.412444 
L 156.169204 89.863228 
L 154.964128 87.775975 
L 154.54561 85.402439 
L 154.54561 85.402439 
" clip-path="url(#p19788fd99f)" style="fill: none; stroke: #1d2a36; stroke-width: 1.7; stroke-linecap: round"/>
   </g>
   <g id="patch_36">
    <path d="M 123.973171 81.65122 
C 127.952511 81.65122 131.769403 80.070211 134.583222 77.256392 
C 137.39704 74.442574 138.978049 70.625682 138.978049 66.646341 
C 138.978049 62.667001 137.39704 58.850109 134.583222 56.03629 
C 131.769403 53.222472 127.952511 51.641463 123.973171 51.641463 
C 119.993831 51.641463 116.176938 53.222472 113.36312 56.03629 
C 110.549301 58.850109 108.968293 62.667001 108.968293 66.646341 
C 108.968293 70.625682 110.549301 74.442574 113.36312 77.256392 
C 116.176938 80.070211 119.993831 81.65122 123.973171 81.65122 
z
" clip-path="url(#p19788fd99f)" style="fill: #f2e0c9; stroke: #a49888; stroke-width: 1.8; stroke-linejoin: miter"/>
   </g>
   <g id="patch_37">
    <path d="M 129.869178 147.981093 
Q 123.026873 143.259635 117.174519 143.383414 
" clip-path="url(#p19788fd99f)" style="fill: none; stroke-dasharray: 2.2,0; stroke-dashoffset: 0; stroke: #c0392b; stroke-width: 2.2; stroke-linecap: round"/>
    <path d="M 122.832475 146.064372 
L 117.174519 143.383414 
L 122.714059 140.465625 
z
" clip-path="url(#p19788fd99f)" style="fill: #c0392b; stroke-dasharray: 2.2,0; stroke-dashoffset: 0; stroke: #c0392b; stroke-width: 2.2; stroke-linecap: round"/>
   </g>
  </g>
 </g>
 <defs>
  <clipPath id="p19788fd99f">
   <rect x="5.809756" y="1" width="247.580488" height="307.6"/>
  </clipPath>
 </defs>
</svg>
