<?xml version="1.0" encoding="utf-8" standalone="no"?>
<!DOCTYPE svg PUBLIC "-//W3C//DTD SVG 1.1//EN"
  "http://www.w3.org/Graphics/SVG/1.1/DTD/svg11.dtd">
<svg xmlns:xlink="http://www.w3.org/1999/xlink" width="259.2pt" height="309.6pt" viewBox="0 0 259.2 309.6" xmlns="http://www.w3.org/2000/svg" version="1.1">
 <metadata>
  <rdf:RDF xmlns:dc="http://purl.org/dc/elements/1.1/" xmlns:cc="http://creativecommons.org/ns#" xmlns:rdf="http://www.w3.org/1999/02/22-rdf-syntax-ns#">
   <cc:Work>
    <dc:type rdf:resource="http://purl.org/dc/dcmitype/StillImage"/>
    <dc:date>2026-07-10T23:04:58.280214</dc:date>
    <dc:format>image/svg+xml</dc:format>
    <dc:creator>
     <cc:Agent>
      <dc:title>Matplotlib v3.10.8, https://matplotlib.org/</dc:title>
     </cc:Agent>
    </dc:creator>
   </cc:Work>
  </rdf:RDF>
 </metadata>
 <defs>
  <style type="text/css">*{stroke-linejoin: round; stroke-linecap: butt}</style>
 </defs>
 <g id="figure_1">
  <g id="patch_1">
   <path d="M 0 309.6 
L 259.2 309.6 
L 259.2 0 
L 0 0 
L 0 309.6 
z
" style="fill: none"/>
  </g>
  <g id="axes_1">
   <g id="line2d_1">
    <path d="M 17.063415 299.221951 
L 242.136585 299.221951 
" clip-path="url(#p18d246f848)" style="fill: none; stroke: #c3c3c3; stroke-width: 3; stroke-linecap: round"/>
   </g>
   <g id="patch_2">
    <path d="M 129.6 107.159512 
C 131.888121 107.159512 134.082834 106.250432 135.700779 104.632487 
C 137.318725 103.014541 138.227805 100.819828 138.227805 98.531707 
C 138.227805 96.243587 137.318725 94.048874 135.700779 92.430928 
C 134.082834 90.812982 131.888121 89.903902 129.6 89.903902 
C 127.311879 89.903902 125.117166 90.812982 123.499221 92.430928 
C 121.881275 94.048874 120.972195 96.243587 120.972195 98.531707 
C 120.972195 100.819828 121.881275 103.014541 123.499221 104.632487 
C 125.117166 106.250432 127.311879 107.159512 129.6 107.159512 
z
" clip-path="url(#p18d246f848)" style="fill: #9aa0a6; fill-opacity: 0.285"/>
   </g>
   <g id="patch_3">
    <path d="M 108.968293 104.916283 
C 110.661502 104.916283 112.28559 104.243564 113.482869 103.046284 
C 114.680149 101.849004 115.352868 100.224917 115.352868 98.531707 
C 115.352868 96.838498 114.680149 95.21441 113.482869 94.017131 
C 112.28559 92.819851 110.661502 92.147132 108.968293 92.147132 
C 107.275083 92.147132 105.650996 92.819851 104.453716 94.017131 
C 103.256436 95.21441 102.583717 96.838498 102.583717 98.531707 
C 102.583717 100.224917 103.256436 101.849004 104.453716 103.046284 
C 105.650996 104.243564 107.275083 104.916283 108.968293 104.916283 
z
" clip-path="url(#p18d246f848)" style="fill: #9aa0a6; fill-opacity: 0.285"/>
   </g>
   <g id="patch_4">
    <path d="M 129.6 107.159512 
L 108.968293 104.916283 
L 108.968293 92.147132 
L 129.6 89.903902 
z
" clip-path="url(#p18d246f848)" style="fill: #9aa0a6; fill-opacity: 0.285"/>
   </g>
   <g id="patch_5">
    <path d="M 108.968293 104.916283 
C 110.661502 104.916283 112.28559 104.243564 113.482869 103.046284 
C 114.680149 101.849004 115.352868 100.224917 115.352868 98.531707 
C 115.352868 96.838498 114.680149 95.21441 113.482869 94.017131 
C 112.28559 92.819851 110.661502 92.147132 108.968293 92.147132 
C 107.275083 92.147132 105.650996 92.819851 104.453716 94.017131 
C 103.256436 95.21441 102.583717 96.838498 102.583717 98.531707 
C 102.583717 100.224917 103.256436 101.849004 104.453716 103.046284 
C 105.650996 104.243564 107.275083 104.916283 108.968293 104.916283 
z
" clip-path="url(#p18d246f848)" style="fill: #9aa0a6; fill-opacity: 0.285"/>
   </g>
   <g id="patch_6">
    <path d="M 80.834146 102.005337 
C 82.252781 102.005337 83.613503 101.441707 84.61663 100.438581 
C 85.619756 99.435454 86.183385 98.074732 86.183385 96.656098 
C 86.183385 95.237463 85.619756 93.876741 84.61663 92.873614 
C 83.613503 91.870488 82.252781 91.306859 80.834146 91.306859 
C 79.415512 91.306859 78.054789 91.870488 77.051663 92.873614 
C 76.048537 93.876741 75.484907 95.237463 75.484907 96.656098 
C 75.484907 98.074732 76.048537 99.435454 77.051663 100.438581 
C 78.054789 101.441707 79.415512 102.005337 80.834146 102.005337 
z
" clip-path="url(#p18d246f848)" style="fill: #9aa0a6; fill-opacity: 0.285"/>
   </g>
   <g id="patch_7">
    <path d="M 108.543597 104.902142 
L 80.47832 101.993489 
L 81.189972 91.318706 
L 109.392988 92.161273 
z
" clip-path="url(#p18d246f848)" style="fill: #9aa0a6; fill-opacity: 0.285"/>
   </g>
   <g id="patch_8">
    <path d="M 80.834146 102.536134 
C 82.39355 102.536134 83.889295 101.916576 84.99196 100.813911 
C 86.094625 99.711246 86.714183 98.215501 86.714183 96.656098 
C 86.714183 95.096694 86.094625 93.600949 84.99196 92.498284 
C 83.889295 91.395619 82.39355 90.776061 80.834146 90.776061 
C 79.274742 90.776061 77.778998 91.395619 76.676333 92.498284 
C 75.573668 93.600949 74.95411 95.096694 74.95411 96.656098 
C 74.95411 98.215501 75.573668 99.711246 76.676333 100.813911 
C 77.778998 101.916576 79.274742 102.536134 80.834146 102.536134 
z
" clip-path="url(#p18d246f848)" style="fill: #9aa0a6; fill-opacity: 0.285; stroke: #7d8288; stroke-opacity: 0.85; stroke-width: 1.3; stroke-linejoin: miter"/>
   </g>
   <g id="line2d_2">
    <path d="M 129.6 107.159512 
L 108.968293 104.916283 
L 106.784639 104.531246 
L 104.864367 103.422576 
L 103.439088 101.723995 
L 102.680713 99.640377 
L 102.680713 97.423037 
L 103.439088 95.33942 
L 104.864367 93.640839 
L 106.784639 92.532169 
L 108.968293 92.147132 
L 129.6 89.903902 
L 132.550883 90.424223 
L 135.145846 91.922425 
L 137.071898 94.217805 
L 138.096729 97.033505 
L 138.096729 100.02991 
L 137.071898 102.84561 
L 135.145846 105.140989 
L 132.550883 106.639192 
L 129.6 107.159512 
L 129.6 107.159512 
" clip-path="url(#p18d246f848)" style="fill: none; stroke: #7d8288; stroke-opacity: 0.85; stroke-width: 1.7; stroke-linecap: round"/>
   </g>
   <g id="line2d_3">
    <path d="M 108.543597 104.902142 
L 80.47832 101.993489 
L 78.674284 101.549905 
L 77.130759 100.516056 
L 76.033917 99.016639 
L 75.516053 97.232506 
L 75.639631 95.378849 
L 76.389743 93.679247 
L 77.675916 92.338698 
L 79.343018 91.518891 
L 81.189972 91.318706 
L 109.392988 92.161273 
L 111.546193 92.690711 
L 113.388465 93.92466 
L 114.697599 95.714287 
L 115.315694 97.843736 
L 115.168199 100.056165 
L 114.272903 102.084722 
L 112.737793 103.684733 
L 110.748026 104.663212 
L 108.543597 104.902142 
L 108.543597 104.902142 
" clip-path="url(#p18d246f848)" style="fill: none; stroke: #7d8288; stroke-opacity: 0.85; stroke-width: 1.7; stroke-linecap: round"/>
   </g>
   <g id="patch_9">
    <path d="M 129.6 87.278049 
C 131.58967 87.278049 133.498116 86.487544 134.905026 85.080635 
C 136.311935 83.673726 137.102439 81.76528 137.102439 79.77561 
C 137.102439 77.78594 136.311935 75.877493 134.905026 74.470584 
C 133.498116 73.063675 131.58967 72.273171 129.6 72.273171 
C 127.61033 72.273171 125.701884 73.063675 124.294974 74.470584 
C 122.888065 75.877493 122.097561 77.78594 122.097561 79.77561 
C 122.097561 81.76528 122.888065 83.673726 124.294974 85.080635 
C 125.701884 86.487544 127.61033 87.278049 129.6 87.278049 
z
" clip-path="url(#p18d246f848)" style="fill: #9aa0a6; fill-opacity: 0.3"/>
   </g>
   <g id="patch_10">
    <path d="M 129.6 110.160488 
C 132.683989 110.160488 135.64208 108.935206 137.82279 106.754497 
C 140.003499 104.573788 141.22878 101.615696 141.22878 98.531707 
C 141.22878 95.447719 140.003499 92.489627 137.82279 90.308918 
C 135.64208 88.128209 132.683989 86.902927 129.6 86.902927 
C 126.516011 86.902927 123.55792 88.128209 121.37721 90.308918 
C 119.196501 92.489627 117.97122 95.447719 117.97122 98.531707 
C 117.97122 101.615696 119.196501 104.573788 121.37721 106.754497 
C 123.55792 108.935206 126.516011 110.160488 129.6 110.160488 
z
" clip-path="url(#p18d246f848)" style="fill: #9aa0a6; fill-opacity: 0.3"/>
   </g>
   <g id="patch_11">
    <path d="M 137.102439 79.77561 
L 141.22878 98.531707 
L 117.97122 98.531707 
L 122.097561 79.77561 
z
" clip-path="url(#p18d246f848)" style="fill: #9aa0a6; fill-opacity: 0.3"/>
   </g>
   <g id="patch_12">
    <path d="M 129.6 121.789268 
C 135.767977 121.789268 141.684161 119.338705 146.045579 114.977286 
C 150.406998 110.615868 152.857561 104.699685 152.857561 98.531707 
C 152.857561 92.36373 150.406998 86.447547 146.045579 82.086128 
C 141.684161 77.72471 135.767977 75.274146 129.6 75.274146 
C 123.432023 75.274146 117.515839 77.72471 113.154421 82.086128 
C 108.793002 86.447547 106.342439 92.36373 106.342439 98.531707 
C 106.342439 104.699685 108.793002 110.615868 113.154421 114.977286 
C 117.515839 119.338705 123.432023 121.789268 129.6 121.789268 
z
" clip-path="url(#p18d246f848)" style="fill: #9aa0a6; fill-opacity: 0.3"/>
   </g>
   <g id="patch_13">
    <path d="M 129.6 175.806829 
C 134.176241 175.806829 138.565667 173.988669 141.801559 170.752778 
C 145.03745 167.516887 146.85561 163.127461 146.85561 158.55122 
C 146.85561 153.974978 145.03745 149.585552 141.801559 146.349661 
C 138.565667 143.11377 134.176241 141.29561 129.6 141.29561 
C 125.023759 141.29561 120.634333 143.11377 117.398441 146.349661 
C 114.16255 149.585552 112.34439 153.974978 112.34439 158.55122 
C 112.34439 163.127461 114.16255 167.516887 117.398441 170.752778 
C 120.634333 173.988669 125.023759 175.806829 129.6 175.806829 
z
" clip-path="url(#p18d246f848)" style="fill: #9aa0a6; fill-opacity: 0.3"/>
   </g>
   <g id="patch_14">
    <path d="M 152.857561 98.531707 
L 146.85561 158.55122 
L 112.34439 158.55122 
L 106.342439 98.531707 
z
" clip-path="url(#p18d246f848)" style="fill: #9aa0a6; fill-opacity: 0.3"/>
   </g>
   <g id="patch_15">
    <path d="M 129.6 172.805854 
C 133.380373 172.805854 137.006421 171.303895 139.679548 168.630768 
C 142.352676 165.95764 143.854634 162.331593 143.854634 158.55122 
C 143.854634 154.770846 142.352676 151.144799 139.679548 148.471671 
C 137.006421 145.798544 133.380373 144.296585 129.6 144.296585 
C 125.819627 144.296585 122.193579 145.798544 119.520452 148.471671 
C 116.847324 151.144799 115.345366 154.770846 115.345366 158.55122 
C 115.345366 162.331593 116.847324 165.95764 119.520452 168.630768 
C 122.193579 171.303895 125.819627 172.805854 129.6 172.805854 
z
" clip-path="url(#p18d246f848)" style="fill: #9aa0a6; fill-opacity: 0.3"/>
   </g>
   <g id="patch_16">
    <path d="M 129.6 233.388049 
C 132.037346 233.388049 134.375192 232.419681 136.098656 230.696217 
C 137.82212 228.972753 138.790488 226.634907 138.790488 224.197561 
C 138.790488 221.760215 137.82212 219.422369 136.098656 217.698905 
C 134.375192 215.975441 132.037346 215.007073 129.6 215.007073 
C 127.162654 215.007073 124.824808 215.975441 123.101344 217.698905 
C 121.37788 219.422369 120.409512 221.760215 120.409512 224.197561 
C 120.409512 226.634907 121.37788 228.972753 123.101344 230.696217 
C 124.824808 232.419681 127.162654 233.388049 129.6 233.388049 
z
" clip-path="url(#p18d246f848)" style="fill: #9aa0a6; fill-opacity: 0.3"/>
   </g>
   <g id="patch_17">
    <path d="M 143.854634 158.55122 
L 138.790488 224.197561 
L 120.409512 224.197561 
L 115.345366 158.55122 
z
" clip-path="url(#p18d246f848)" style="fill: #9aa0a6; fill-opacity: 0.3"/>
   </g>
   <g id="patch_18">
    <path d="M 129.6 233.388049 
C 132.037346 233.388049 134.375192 232.419681 136.098656 230.696217 
C 137.82212 228.972753 138.790488 226.634907 138.790488 224.197561 
C 138.790488 221.760215 137.82212 219.422369 136.098656 217.698905 
C 134.375192 215.975441 132.037346 215.007073 129.6 215.007073 
C 127.162654 215.007073 124.824808 215.975441 123.101344 217.698905 
C 121.37788 219.422369 120.409512 221.760215 120.409512 224.197561 
C 120.409512 226.634907 121.37788 228.972753 123.101344 230.696217 
C 124.824808 232.419681 127.162654 233.388049 129.6 233.388049 
z
" clip-path="url(#p18d246f848)" style="fill: #9aa0a6; fill-opacity: 0.3"/>
   </g>
   <g id="patch_19">
    <path d="M 129.6 290.406585 
C 131.241478 290.406585 132.815946 289.754419 133.976646 288.593719 
C 135.137346 287.433019 135.789512 285.858551 135.789512 284.217073 
C 135.789512 282.575595 135.137346 281.001127 133.976646 279.840427 
C 132.815946 278.679727 131.241478 278.027561 129.6 278.027561 
C 127.958522 278.027561 126.384054 278.679727 125.223354 279.840427 
C 124.062654 281.001127 123.410488 282.575595 123.410488 284.217073 
C 123.410488 285.858551 124.062654 287.433019 125.223354 288.593719 
C 126.384054 289.754419 127.958522 290.406585 129.6 290.406585 
z
" clip-path="url(#p18d246f848)" style="fill: #9aa0a6; fill-opacity: 0.3"/>
   </g>
   <g id="patch_20">
    <path d="M 138.790488 224.197561 
L 135.789512 284.217073 
L 123.410488 284.217073 
L 120.409512 224.197561 
z
" clip-path="url(#p18d246f848)" style="fill: #9aa0a6; fill-opacity: 0.3"/>
   </g>
   <g id="patch_21">
    <path d="M 129.6 289.478159 
C 130.995256 289.478159 132.333554 288.923817 133.320149 287.937222 
C 134.306744 286.950627 134.861085 285.612329 134.861085 284.217073 
C 134.861085 282.821817 134.306744 281.483519 133.320149 280.496924 
C 132.333554 279.510329 130.995256 278.955988 129.6 278.955988 
C 128.204744 278.955988 126.866446 279.510329 125.879851 280.496924 
C 124.893256 281.483519 124.338915 282.821817 124.338915 284.217073 
C 124.338915 285.612329 124.893256 286.950627 125.879851 287.937222 
C 126.866446 288.923817 128.204744 289.478159 129.6 289.478159 
z
" clip-path="url(#p18d246f848)" style="fill: #9aa0a6; fill-opacity: 0.3"/>
   </g>
   <g id="patch_22">
    <path d="M 144.604878 287.621305 
C 145.507691 287.621305 146.373648 287.262614 147.012033 286.624228 
C 147.650418 285.985843 148.00911 285.119886 148.00911 284.217073 
C 148.00911 283.31426 147.650418 282.448303 147.012033 281.809918 
C 146.373648 281.171533 145.507691 280.812841 144.604878 280.812841 
C 143.702065 280.812841 142.836108 281.171533 142.197723 281.809918 
C 141.559338 282.448303 141.200646 283.31426 141.200646 284.217073 
C 141.200646 285.119886 141.559338 285.985843 142.197723 286.624228 
C 142.836108 287.262614 143.702065 287.621305 144.604878 287.621305 
z
" clip-path="url(#p18d246f848)" style="fill: #9aa0a6; fill-opacity: 0.3"/>
   </g>
   <g id="patch_23">
    <path d="M 129.6 278.955988 
L 144.604878 280.812841 
L 144.604878 287.621305 
L 129.6 289.478159 
z
" clip-path="url(#p18d246f848)" style="fill: #9aa0a6; fill-opacity: 0.3"/>
   </g>
   <g id="line2d_4">
    <path d="M 137.102439 79.77561 
L 141.22878 98.531707 
L 140.527479 102.508984 
L 138.508163 106.006543 
L 135.41439 108.602527 
L 131.619317 109.98382 
L 127.580683 109.98382 
L 123.78561 108.602527 
L 120.691837 106.006543 
L 118.672521 102.508984 
L 117.97122 98.531707 
L 122.097561 79.77561 
L 122.550013 77.209624 
L 123.852798 74.953135 
L 125.84878 73.278307 
L 128.297215 72.38715 
L 130.902785 72.38715 
L 133.35122 73.278307 
L 135.347202 74.953135 
L 136.649987 77.209624 
L 137.102439 79.77561 
L 137.102439 79.77561 
" clip-path="url(#p18d246f848)" style="fill: none; stroke: #7d8288; stroke-opacity: 0.85; stroke-width: 1.7; stroke-linecap: round"/>
   </g>
   <g id="line2d_5">
    <path d="M 152.857561 98.531707 
L 146.85561 158.55122 
L 145.814969 164.452986 
L 142.818564 169.642912 
L 138.227805 173.495016 
L 132.596405 175.544678 
L 126.603595 175.544678 
L 120.972195 173.495016 
L 116.381436 169.642912 
L 113.385031 164.452986 
L 112.34439 158.55122 
L 106.342439 98.531707 
L 107.745042 90.577153 
L 111.783675 83.582035 
L 117.97122 78.390069 
L 125.561367 75.627481 
L 133.638633 75.627481 
L 141.22878 78.390069 
L 147.416325 83.582035 
L 151.454958 90.577153 
L 152.857561 98.531707 
L 152.857561 98.531707 
" clip-path="url(#p18d246f848)" style="fill: none; stroke: #7d8288; stroke-opacity: 0.85; stroke-width: 1.7; stroke-linecap: round"/>
   </g>
   <g id="patch_24">
    <path d="M 129.6 107.909756 
C 132.087088 107.909756 134.472645 106.921626 136.231282 105.162989 
C 137.989918 103.404353 138.978049 101.018795 138.978049 98.531707 
C 138.978049 96.04462 137.989918 93.659062 136.231282 91.900425 
C 134.472645 90.141789 132.087088 89.153659 129.6 89.153659 
C 127.112912 89.153659 124.727355 90.141789 122.968718 91.900425 
C 121.210082 93.659062 120.221951 96.04462 120.221951 98.531707 
C 120.221951 101.018795 121.210082 103.404353 122.968718 105.162989 
C 124.727355 106.921626 127.112912 107.909756 129.6 107.909756 
z
" clip-path="url(#p18d246f848)" style="fill: #9aa0a6; fill-opacity: 0.3"/>
   </g>
   <g id="patch_25">
    <path d="M 150.231707 105.471463 
C 152.072152 105.471463 153.837465 104.740247 155.138856 103.438856 
C 156.440247 102.137465 157.171463 100.372152 157.171463 98.531707 
C 157.171463 96.691262 156.440247 94.92595 155.138856 93.624559 
C 153.837465 92.323168 152.072152 91.591951 150.231707 91.591951 
C 148.391262 91.591951 146.62595 92.323168 145.324559 93.624559 
C 144.023168 94.92595 143.291951 96.691262 143.291951 98.531707 
C 143.291951 100.372152 144.023168 102.137465 145.324559 103.438856 
C 146.62595 104.740247 148.391262 105.471463 150.231707 105.471463 
z
" clip-path="url(#p18d246f848)" style="fill: #9aa0a6; fill-opacity: 0.3"/>
   </g>
   <g id="patch_26">
    <path d="M 129.6 89.153659 
L 150.231707 91.591951 
L 150.231707 105.471463 
L 129.6 107.909756 
z
" clip-path="url(#p18d246f848)" style="fill: #9aa0a6; fill-opacity: 0.3"/>
   </g>
   <g id="patch_27">
    <path d="M 150.231707 105.471463 
C 152.072152 105.471463 153.837465 104.740247 155.138856 103.438856 
C 156.440247 102.137465 157.171463 100.372152 157.171463 98.531707 
C 157.171463 96.691262 156.440247 94.92595 155.138856 93.624559 
C 153.837465 92.323168 152.072152 91.591951 150.231707 91.591951 
C 148.391262 91.591951 146.62595 92.323168 145.324559 93.624559 
C 144.023168 94.92595 143.291951 96.691262 143.291951 98.531707 
C 143.291951 100.372152 144.023168 102.137465 145.324559 103.438856 
C 146.62595 104.740247 148.391262 105.471463 150.231707 105.471463 
z
" clip-path="url(#p18d246f848)" style="fill: #9aa0a6; fill-opacity: 0.3"/>
   </g>
   <g id="patch_28">
    <path d="M 178.365854 102.470488 
C 179.907848 102.470488 181.386894 101.857847 182.477248 100.767492 
C 183.567603 99.677138 184.180244 98.198092 184.180244 96.656098 
C 184.180244 95.114103 183.567603 93.635057 182.477248 92.544703 
C 181.386894 91.454348 179.907848 90.841707 178.365854 90.841707 
C 176.823859 90.841707 175.344814 91.454348 174.254459 92.544703 
C 173.164104 93.635057 172.551463 95.114103 172.551463 96.656098 
C 172.551463 98.198092 173.164104 99.677138 174.254459 100.767492 
C 175.344814 101.857847 176.823859 102.470488 178.365854 102.470488 
z
" clip-path="url(#p18d246f848)" style="fill: #9aa0a6; fill-opacity: 0.3"/>
   </g>
   <g id="patch_29">
    <path d="M 149.770082 91.607322 
L 177.979086 90.854585 
L 178.752621 102.45761 
L 150.693333 105.456093 
z
" clip-path="url(#p18d246f848)" style="fill: #9aa0a6; fill-opacity: 0.3"/>
   </g>
   <g id="patch_30">
    <path d="M 129.6 288.673522 
C 130.781864 288.673522 131.915481 288.203962 132.751185 287.368258 
C 133.586889 286.532554 134.056449 285.398937 134.056449 284.217073 
C 134.056449 283.035209 133.586889 281.901592 132.751185 281.065888 
C 131.915481 280.230184 130.781864 279.760624 129.6 279.760624 
C 128.418136 279.760624 127.284519 280.230184 126.448815 281.065888 
C 125.613111 281.901592 125.143551 283.035209 125.143551 284.217073 
C 125.143551 285.398937 125.613111 286.532554 126.448815 287.368258 
C 127.284519 288.203962 128.418136 288.673522 129.6 288.673522 
z
" clip-path="url(#p18d246f848)" style="fill: #9aa0a6; fill-opacity: 0.3; stroke: #7d8288; stroke-opacity: 0.85; stroke-width: 1.3; stroke-linejoin: miter"/>
   </g>
   <g id="patch_31">
    <path d="M 178.365854 102.84561 
C 180.007331 102.84561 181.5818 102.193444 182.7425 101.032744 
C 183.9032 99.872044 184.555366 98.297575 184.555366 96.656098 
C 184.555366 95.01462 183.9032 93.440152 182.7425 92.279452 
C 181.5818 91.118751 180.007331 90.466585 178.365854 90.466585 
C 176.724376 90.466585 175.149908 91.118751 173.989208 92.279452 
C 172.828508 93.440152 172.176341 95.01462 172.176341 96.656098 
C 172.176341 98.297575 172.828508 99.872044 173.989208 101.032744 
C 175.149908 102.193444 176.724376 102.84561 178.365854 102.84561 
z
" clip-path="url(#p18d246f848)" style="fill: #9aa0a6; fill-opacity: 0.3; stroke: #7d8288; stroke-opacity: 0.85; stroke-width: 1.6; stroke-linejoin: miter"/>
   </g>
   <g id="line2d_6">
    <path d="M 143.854634 158.55122 
L 138.790488 224.197561 
L 138.236234 227.340893 
L 136.640322 230.105093 
L 134.195244 232.156757 
L 131.195911 233.248425 
L 128.004089 233.248425 
L 125.004756 232.156757 
L 122.559678 230.105093 
L 120.963766 227.340893 
L 120.409512 224.197561 
L 115.345366 158.55122 
L 116.205025 153.675847 
L 118.680317 149.388517 
L 122.472683 146.206344 
L 127.124709 144.513145 
L 132.075291 144.513145 
L 136.727317 146.206344 
L 140.519683 149.388517 
L 142.994975 153.675847 
L 143.854634 158.55122 
L 143.854634 158.55122 
" clip-path="url(#p18d246f848)" style="fill: none; stroke: #7d8288; stroke-opacity: 0.85; stroke-width: 1.7; stroke-linecap: round"/>
   </g>
   <g id="line2d_7">
    <path d="M 138.790488 224.197561 
L 135.789512 284.217073 
L 135.416239 286.334011 
L 134.341441 288.195615 
L 132.694756 289.577348 
L 130.674798 290.312553 
L 128.525202 290.312553 
L 126.505244 289.577348 
L 124.858559 288.195615 
L 123.783761 286.334011 
L 123.410488 284.217073 
L 120.409512 224.197561 
L 120.963766 221.054229 
L 122.559678 218.290029 
L 125.004756 216.238365 
L 128.004089 215.146697 
L 131.195911 215.146697 
L 134.195244 216.238365 
L 136.640322 218.290029 
L 138.236234 221.054229 
L 138.790488 224.197561 
L 138.790488 224.197561 
" clip-path="url(#p18d246f848)" style="fill: none; stroke: #7d8288; stroke-opacity: 0.85; stroke-width: 1.7; stroke-linecap: round"/>
   </g>
   <g id="line2d_8">
    <path d="M 129.6 278.955988 
L 144.604878 280.812841 
L 145.769194 281.018142 
L 146.793076 281.60928 
L 147.553029 282.514957 
L 147.957392 283.625935 
L 147.957392 284.808212 
L 147.553029 285.919189 
L 146.793076 286.824866 
L 145.769194 287.416005 
L 144.604878 287.621305 
L 129.6 289.478159 
L 127.800603 289.160876 
L 126.21824 288.247298 
L 125.043766 286.847616 
L 124.418842 285.130651 
L 124.418842 283.303495 
L 125.043766 281.58653 
L 126.21824 280.186848 
L 127.800603 279.27327 
L 129.6 278.955988 
L 129.6 278.955988 
" clip-path="url(#p18d246f848)" style="fill: none; stroke: #7d8288; stroke-opacity: 0.85; stroke-width: 1.5; stroke-linecap: round"/>
   </g>
   <g id="line2d_9">
    <path d="M 129.6 89.153659 
L 150.231707 91.591951 
L 152.605244 92.01047 
L 154.692497 93.215546 
L 156.241712 95.061829 
L 157.066033 97.326631 
L 157.066033 99.736783 
L 156.241712 102.001585 
L 154.692497 103.847869 
L 152.605244 105.052945 
L 150.231707 105.471463 
L 129.6 107.909756 
L 126.392518 107.344191 
L 123.571906 105.715709 
L 121.478372 103.220732 
L 120.364425 100.160188 
L 120.364425 96.903226 
L 121.478372 93.842683 
L 123.571906 91.347705 
L 126.392518 89.719224 
L 129.6 89.153659 
L 129.6 89.153659 
" clip-path="url(#p18d246f848)" style="fill: none; stroke: #7d8288; stroke-opacity: 0.85; stroke-width: 1.7; stroke-linecap: round"/>
   </g>
   <g id="line2d_10">
    <path d="M 149.770082 91.607322 
L 177.979086 90.854585 
L 179.986645 91.072177 
L 181.798713 91.963272 
L 183.196727 93.420391 
L 184.012066 95.267784 
L 184.146389 97.282628 
L 183.583494 99.221903 
L 182.391275 100.851704 
L 180.71353 101.975454 
L 178.752621 102.45761 
L 150.693333 105.456093 
L 148.297214 105.196387 
L 146.134424 104.132822 
L 144.465826 102.39368 
L 143.492679 100.188727 
L 143.332358 97.783913 
L 144.004201 95.469294 
L 145.427172 93.524047 
L 147.429642 92.182799 
L 149.770082 91.607322 
L 149.770082 91.607322 
" clip-path="url(#p18d246f848)" style="fill: none; stroke: #7d8288; stroke-opacity: 0.85; stroke-width: 1.7; stroke-linecap: round"/>
   </g>
   <g id="patch_32">
    <path d="M 129.6 94.780488 
C 133.57934 94.780488 137.396233 93.199479 140.210051 90.385661 
C 143.023869 87.571842 144.604878 83.75495 144.604878 79.77561 
C 144.604878 75.79627 143.023869 71.979377 140.210051 69.165559 
C 137.396233 66.35174 133.57934 64.770732 129.6 64.770732 
C 125.62066 64.770732 121.803767 66.35174 118.989949 69.165559 
C 116.176131 71.979377 114.595122 75.79627 114.595122 79.77561 
C 114.595122 83.75495 116.176131 87.571842 118.989949 90.385661 
C 121.803767 93.199479 125.62066 94.780488 129.6 94.780488 
z
" clip-path="url(#p18d246f848)" style="fill: #9aa0a6; fill-opacity: 0.3; stroke: #7d8288; stroke-opacity: 0.85; stroke-width: 1.8; stroke-linejoin: miter"/>
   </g>
   <g id="patch_33">
    <path d="M 129.6 107.159512 
C 131.888121 107.159512 134.082834 106.250432 135.700779 104.632487 
C 137.318725 103.014541 138.227805 100.819828 138.227805 98.531707 
C 138.227805 96.243587 137.318725 94.048874 135.700779 92.430928 
C 134.082834 90.812982 131.888121 89.903902 129.6 89.903902 
C 127.311879 89.903902 125.117166 90.812982 123.499221 92.430928 
C 121.881275 94.048874 120.972195 96.243587 120.972195 98.531707 
C 120.972195 100.819828 121.881275 103.014541 123.499221 104.632487 
C 125.117166 106.250432 127.311879 107.159512 129.6 107.159512 
z
" clip-path="url(#p18d246f848)" style="fill: #2c3e50; fill-opacity: 0.95"/>
   </g>
   <g id="patch_34">
    <path d="M 101.465854 91.787015 
C 103.159063 91.787015 104.783151 91.114295 105.98043 89.917016 
C 107.17771 88.719736 107.850429 87.095648 107.850429 85.402439 
C 107.850429 83.70923 107.17771 82.085142 105.98043 80.887862 
C 104.783151 79.690583 103.159063 79.017863 101.465854 79.017863 
C 99.772644 79.017863 98.148557 79.690583 96.951277 80.887862 
C 95.753997 82.085142 95.081278 83.70923 95.081278 85.402439 
C 95.081278 87.095648 95.753997 88.719736 96.951277 89.917016 
C 98.148557 91.114295 99.772644 91.787015 101.465854 91.787015 
z
" clip-path="url(#p18d246f848)" style="fill: #2c3e50; fill-opacity: 0.95"/>
   </g>
   <g id="patch_35">
    <path d="M 125.951427 106.350079 
L 98.765909 91.188034 
L 104.165798 79.616844 
L 133.248573 90.713336 
z
" clip-path="url(#p18d246f848)" style="fill: #2c3e50; fill-opacity: 0.95"/>
   </g>
   <g id="patch_36">
    <path d="M 101.465854 91.787015 
C 103.159063 91.787015 104.783151 91.114295 105.98043 89.917016 
C 107.17771 88.719736 107.850429 87.095648 107.850429 85.402439 
C 107.850429 83.70923 107.17771 82.085142 105.98043 80.887862 
C 104.783151 79.690583 103.159063 79.017863 101.465854 79.017863 
C 99.772644 79.017863 98.148557 79.690583 96.951277 80.887862 
C 95.753997 82.085142 95.081278 83.70923 95.081278 85.402439 
C 95.081278 87.095648 95.753997 88.719736 96.951277 89.917016 
C 98.148557 91.114295 99.772644 91.787015 101.465854 91.787015 
z
" clip-path="url(#p18d246f848)" style="fill: #2c3e50; fill-opacity: 0.95"/>
   </g>
   <g id="patch_37">
    <path d="M 114.595122 83.249239 
C 116.013757 83.249239 117.374479 82.685609 118.377605 81.682483 
C 119.380731 80.679357 119.944361 79.318635 119.944361 77.9 
C 119.944361 76.481365 119.380731 75.120643 118.377605 74.117517 
C 117.374479 73.114391 116.013757 72.550761 114.595122 72.550761 
C 113.176487 72.550761 111.815765 73.114391 110.812639 74.117517 
C 109.809512 75.120643 109.245883 76.481365 109.245883 77.9 
C 109.245883 79.318635 109.809512 80.679357 110.812639 81.682483 
C 111.815765 82.685609 113.176487 83.249239 114.595122 83.249239 
z
" clip-path="url(#p18d246f848)" style="fill: #2c3e50; fill-opacity: 0.95"/>
   </g>
   <g id="patch_38">
    <path d="M 98.298217 79.859075 
L 111.941156 73.25556 
L 117.249088 82.54444 
L 104.63349 90.945803 
z
" clip-path="url(#p18d246f848)" style="fill: #2c3e50; fill-opacity: 0.95"/>
   </g>
   <g id="patch_39">
    <path d="M 114.595122 83.780037 
C 116.154526 83.780037 117.650271 83.160479 118.752936 82.057814 
C 119.855601 80.955149 120.475159 79.459404 120.475159 77.9 
C 120.475159 76.340596 119.855601 74.844851 118.752936 73.742186 
C 117.650271 72.639521 116.154526 72.019963 114.595122 72.019963 
C 113.035718 72.019963 111.539973 72.639521 110.437308 73.742186 
C 109.334643 74.844851 108.715085 76.340596 108.715085 77.9 
C 108.715085 79.459404 109.334643 80.955149 110.437308 82.057814 
C 111.539973 83.160479 113.035718 83.780037 114.595122 83.780037 
z
" clip-path="url(#p18d246f848)" style="fill: #f2e0c9; fill-opacity: 0.95; stroke: #a49888; stroke-width: 1.3; stroke-linejoin: miter"/>
   </g>
   <g id="line2d_11">
    <path d="M 125.951427 106.350079 
L 98.765909 91.188034 
L 96.949946 89.915684 
L 95.678668 88.098971 
L 95.105409 85.957016 
L 95.299315 83.748171 
L 96.236995 81.738855 
L 97.805354 80.171421 
L 99.815222 79.234926 
L 102.024181 79.042323 
L 104.165798 79.616844 
L 133.248573 90.713336 
L 135.702578 92.432727 
L 137.420521 94.887745 
L 138.195195 97.782279 
L 137.933161 100.767205 
L 136.666025 103.482497 
L 134.546622 105.60065 
L 131.830583 106.866185 
L 128.845503 107.126459 
L 125.951427 106.350079 
L 125.951427 106.350079 
" clip-path="url(#p18d246f848)" style="fill: none; stroke: #1d2a36; stroke-width: 1.7; stroke-linecap: round"/>
   </g>
   <g id="line2d_12">
    <path d="M 98.298217 79.859075 
L 111.941156 73.25556 
L 113.689702 72.627944 
L 115.547455 72.636216 
L 117.290342 73.279378 
L 118.708146 74.479855 
L 119.629859 76.092852 
L 119.944308 77.923818 
L 119.613566 79.751911 
L 118.677526 81.356636 
L 117.249088 82.54444 
L 104.63349 90.945803 
L 102.546516 91.694893 
L 100.329198 91.68502 
L 98.248978 90.917375 
L 96.55676 89.484547 
L 95.456652 87.559357 
L 95.081341 85.374011 
L 95.476098 83.192093 
L 96.593307 81.276776 
L 98.298217 79.859075 
L 98.298217 79.859075 
" clip-path="url(#p18d246f848)" style="fill: none; stroke: #1d2a36; stroke-width: 1.7; stroke-linecap: round"/>
   </g>
   <g id="patch_40">
    <path d="M 129.6 87.278049 
C 131.58967 87.278049 133.498116 86.487544 134.905026 85.080635 
C 136.311935 83.673726 137.102439 81.76528 137.102439 79.77561 
C 137.102439 77.78594 136.311935 75.877493 134.905026 74.470584 
C 133.498116 73.063675 131.58967 72.273171 129.6 72.273171 
C 127.61033 72.273171 125.701884 73.063675 124.294974 74.470584 
C 122.888065 75.877493 122.097561 77.78594 122.097561 79.77561 
C 122.097561 81.76528 122.888065 83.673726 124.294974 85.080635 
C 125.701884 86.487544 127.61033 87.278049 129.6 87.278049 
z
" clip-path="url(#p18d246f848)" style="fill: #2c3e50"/>
   </g>
   <g id="patch_41">
    <path d="M 129.6 110.160488 
C 132.683989 110.160488 135.64208 108.935206 137.82279 106.754497 
C 140.003499 104.573788 141.22878 101.615696 141.22878 98.531707 
C 141.22878 95.447719 140.003499 92.489627 137.82279 90.308918 
C 135.64208 88.128209 132.683989 86.902927 129.6 86.902927 
C 126.516011 86.902927 123.55792 88.128209 121.37721 90.308918 
C 119.196501 92.489627 117.97122 95.447719 117.97122 98.531707 
C 117.97122 101.615696 119.196501 104.573788 121.37721 106.754497 
C 123.55792 108.935206 126.516011 110.160488 129.6 110.160488 
z
" clip-path="url(#p18d246f848)" style="fill: #2c3e50"/>
   </g>
   <g id="patch_42">
    <path d="M 137.102439 79.77561 
L 141.22878 98.531707 
L 117.97122 98.531707 
L 122.097561 79.77561 
z
" clip-path="url(#p18d246f848)" style="fill: #2c3e50"/>
   </g>
   <g id="patch_43">
    <path d="M 129.6 121.789268 
C 135.767977 121.789268 141.684161 119.338705 146.045579 114.977286 
C 150.406998 110.615868 152.857561 104.699685 152.857561 98.531707 
C 152.857561 92.36373 150.406998 86.447547 146.045579 82.086128 
C 141.684161 77.72471 135.767977 75.274146 129.6 75.274146 
C 123.432023 75.274146 117.515839 77.72471 113.154421 82.086128 
C 108.793002 86.447547 106.342439 92.36373 106.342439 98.531707 
C 106.342439 104.699685 108.793002 110.615868 113.154421 114.977286 
C 117.515839 119.338705 123.432023 121.789268 129.6 121.789268 
z
" clip-path="url(#p18d246f848)" style="fill: #2c3e50"/>
   </g>
   <g id="patch_44">
    <path d="M 129.6 175.806829 
C 134.176241 175.806829 138.565667 173.988669 141.801559 170.752778 
C 145.03745 167.516887 146.85561 163.127461 146.85561 158.55122 
C 146.85561 153.974978 145.03745 149.585552 141.801559 146.349661 
C 138.565667 143.11377 134.176241 141.29561 129.6 141.29561 
C 125.023759 141.29561 120.634333 143.11377 117.398441 146.349661 
C 114.16255 149.585552 112.34439 153.974978 112.34439 158.55122 
C 112.34439 163.127461 114.16255 167.516887 117.398441 170.752778 
C 120.634333 173.988669 125.023759 175.806829 129.6 175.806829 
z
" clip-path="url(#p18d246f848)" style="fill: #2c3e50"/>
   </g>
   <g id="patch_45">
    <path d="M 152.857561 98.531707 
L 146.85561 158.55122 
L 112.34439 158.55122 
L 106.342439 98.531707 
z
" clip-path="url(#p18d246f848)" style="fill: #2c3e50"/>
   </g>
   <g id="patch_46">
    <path d="M 129.6 172.805854 
C 133.380373 172.805854 137.006421 171.303895 139.679548 168.630768 
C 142.352676 165.95764 143.854634 162.331593 143.854634 158.55122 
C 143.854634 154.770846 142.352676 151.144799 139.679548 148.471671 
C 137.006421 145.798544 133.380373 144.296585 129.6 144.296585 
C 125.819627 144.296585 122.193579 145.798544 119.520452 148.471671 
C 116.847324 151.144799 115.345366 154.770846 115.345366 158.55122 
C 115.345366 162.331593 116.847324 165.95764 119.520452 168.630768 
C 122.193579 171.303895 125.819627 172.805854 129.6 172.805854 
z
" clip-path="url(#p18d246f848)" style="fill: #3c3f42"/>
   </g>
   <g id="patch_47">
    <path d="M 129.6 233.388049 
C 132.037346 233.388049 134.375192 232.419681 136.098656 230.696217 
C 137.82212 228.972753 138.790488 226.634907 138.790488 224.197561 
C 138.790488 221.760215 137.82212 219.422369 136.098656 217.698905 
C 134.375192 215.975441 132.037346 215.007073 129.6 215.007073 
C 127.162654 215.007073 124.824808 215.975441 123.101344 217.698905 
C 121.37788 219.422369 120.409512 221.760215 120.409512 224.197561 
C 120.409512 226.634907 121.37788 228.972753 123.101344 230.696217 
C 124.824808 232.419681 127.162654 233.388049 129.6 233.388049 
z
" clip-path="url(#p18d246f848)" style="fill: #3c3f42"/>
   </g>
   <g id="patch_48">
    <path d="M 143.854634 158.55122 
L 138.790488 224.197561 
L 120.409512 224.197561 
L 115.345366 158.55122 
z
" clip-path="url(#p18d246f848)" style="fill: #3c3f42"/>
   </g>
   <g id="patch_49">
    <path d="M 129.6 233.388049 
C 132.037346 233.388049 134.375192 232.419681 136.098656 230.696217 
C 137.82212 228.972753 138.790488 226.634907 138.790488 224.197561 
C 138.790488 221.760215 137.82212 219.422369 136.098656 217.698905 
C 134.375192 215.975441 132.037346 215.007073 129.6 215.007073 
C 127.162654 215.007073 124.824808 215.975441 123.101344 217.698905 
C 121.37788 219.422369 120.409512 221.760215 120.409512 224.197561 
C 120.409512 226.634907 121.37788 228.972753 123.101344 230.696217 
C 124.824808 232.419681 127.162654 233.388049 129.6 233.388049 
z
" clip-path="url(#p18d246f848)" style="fill: #3c3f42"/>
   </g>
   <g id="patch_50">
    <path d="M 129.6 290.406585 
C 131.241478 290.406585 132.815946 289.754419 133.976646 288.593719 
C 135.137346 287.433019 135.789512 285.858551 135.789512 284.217073 
C 135.789512 282.575595 135.137346 281.001127 133.976646 279.840427 
C 132.815946 278.679727 131.241478 278.027561 129.6 278.027561 
C 127.958522 278.027561 126.384054 278.679727 125.223354 279.840427 
C 124.062654 281.001127 123.410488 282.575595 123.410488 284.217073 
C 123.410488 285.858551 124.062654 287.433019 125.223354 288.593719 
C 126.384054 289.754419 127.958522 290.406585 129.6 290.406585 
z
" clip-path="url(#p18d246f848)" style="fill: #3c3f42"/>
   </g>
   <g id="patch_51">
    <path d="M 138.790488 224.197561 
L 135.789512 284.217073 
L 123.410488 284.217073 
L 120.409512 224.197561 
z
" clip-path="url(#p18d246f848)" style="fill: #3c3f42"/>
   </g>
   <g id="patch_52">
    <path d="M 129.6 289.478159 
C 130.995256 289.478159 132.333554 288.923817 133.320149 287.937222 
C 134.306744 286.950627 134.861085 285.612329 134.861085 284.217073 
C 134.861085 282.821817 134.306744 281.483519 133.320149 280.496924 
C 132.333554 279.510329 130.995256 278.955988 129.6 278.955988 
C 128.204744 278.955988 126.866446 279.510329 125.879851 280.496924 
C 124.893256 281.483519 124.338915 282.821817 124.338915 284.217073 
C 124.338915 285.612329 124.893256 286.950627 125.879851 287.937222 
C 126.866446 288.923817 128.204744 289.478159 129.6 289.478159 
z
" clip-path="url(#p18d246f848)" style="fill: #1b1b1b"/>
   </g>
   <g id="patch_53">
    <path d="M 144.604878 287.621305 
C 145.507691 287.621305 146.373648 287.262614 147.012033 286.624228 
C 147.650418 285.985843 148.00911 285.119886 148.00911 284.217073 
C 148.00911 283.31426 147.650418 282.448303 147.012033 281.809918 
C 146.373648 281.171533 145.507691 280.812841 144.604878 280.812841 
C 143.702065 280.812841 142.836108 281.171533 142.197723 281.809918 
C 141.559338 282.448303 141.200646 283.31426 141.200646 284.217073 
C 141.200646 285.119886 141.559338 285.985843 142.197723 286.624228 
C 142.836108 287.262614 143.702065 287.621305 144.604878 287.621305 
z
" clip-path="url(#p18d246f848)" style="fill: #1b1b1b"/>
   </g>
   <g id="patch_54">
    <path d="M 129.6 278.955988 
L 144.604878 280.812841 
L 144.604878 287.621305 
L 129.6 289.478159 
z
" clip-path="url(#p18d246f848)" style="fill: #1b1b1b"/>
   </g>
   <g id="line2d_13">
    <path d="M 137.102439 79.77561 
L 141.22878 98.531707 
L 140.527479 102.508984 
L 138.508163 106.006543 
L 135.41439 108.602527 
L 131.619317 109.98382 
L 127.580683 109.98382 
L 123.78561 108.602527 
L 120.691837 106.006543 
L 118.672521 102.508984 
L 117.97122 98.531707 
L 122.097561 79.77561 
L 122.550013 77.209624 
L 123.852798 74.953135 
L 125.84878 73.278307 
L 128.297215 72.38715 
L 130.902785 72.38715 
L 133.35122 73.278307 
L 135.347202 74.953135 
L 136.649987 77.209624 
L 137.102439 79.77561 
L 137.102439 79.77561 
" clip-path="url(#p18d246f848)" style="fill: none; stroke: #1d2a36; stroke-width: 1.7; stroke-linecap: round"/>
   </g>
   <g id="line2d_14">
    <path d="M 152.857561 98.531707 
L 146.85561 158.55122 
L 145.814969 164.452986 
L 142.818564 169.642912 
L 138.227805 173.495016 
L 132.596405 175.544678 
L 126.603595 175.544678 
L 120.972195 173.495016 
L 116.381436 169.642912 
L 113.385031 164.452986 
L 112.34439 158.55122 
L 106.342439 98.531707 
L 107.745042 90.577153 
L 111.783675 83.582035 
L 117.97122 78.390069 
L 125.561367 75.627481 
L 133.638633 75.627481 
L 141.22878 78.390069 
L 147.416325 83.582035 
L 151.454958 90.577153 
L 152.857561 98.531707 
L 152.857561 98.531707 
" clip-path="url(#p18d246f848)" style="fill: none; stroke: #1d2a36; stroke-width: 1.7; stroke-linecap: round"/>
   </g>
   <g id="patch_55">
    <path d="M 129.6 107.909756 
C 132.087088 107.909756 134.472645 106.921626 136.231282 105.162989 
C 137.989918 103.404353 138.978049 101.018795 138.978049 98.531707 
C 138.978049 96.04462 137.989918 93.659062 136.231282 91.900425 
C 134.472645 90.141789 132.087088 89.153659 129.6 89.153659 
C 127.112912 89.153659 124.727355 90.141789 122.968718 91.900425 
C 121.210082 93.659062 120.221951 96.04462 120.221951 98.531707 
C 120.221951 101.018795 121.210082 103.404353 122.968718 105.162989 
C 124.727355 106.921626 127.112912 107.909756 129.6 107.909756 
z
" clip-path="url(#p18d246f848)" style="fill: #2c3e50"/>
   </g>
   <g id="patch_56">
    <path d="M 157.734146 92.342195 
C 159.574591 92.342195 161.339904 91.610979 162.641295 90.309588 
C 163.942686 89.008197 164.673902 87.242884 164.673902 85.402439 
C 164.673902 83.561994 163.942686 81.796681 162.641295 80.49529 
C 161.339904 79.193899 159.574591 78.462683 157.734146 78.462683 
C 155.893702 78.462683 154.128389 79.193899 152.826998 80.49529 
C 151.525607 81.796681 150.79439 83.561994 150.79439 85.402439 
C 150.79439 87.242884 151.525607 89.008197 152.826998 90.309588 
C 154.128389 91.610979 155.893702 92.342195 157.734146 92.342195 
z
" clip-path="url(#p18d246f848)" style="fill: #2c3e50"/>
   </g>
   <g id="patch_57">
    <path d="M 125.634159 90.033478 
L 154.799424 79.113749 
L 160.668868 91.691129 
L 133.565841 107.029937 
z
" clip-path="url(#p18d246f848)" style="fill: #2c3e50"/>
   </g>
   <g id="patch_58">
    <path d="M 157.734146 92.342195 
C 159.574591 92.342195 161.339904 91.610979 162.641295 90.309588 
C 163.942686 89.008197 164.673902 87.242884 164.673902 85.402439 
C 164.673902 83.561994 163.942686 81.796681 162.641295 80.49529 
C 161.339904 79.193899 159.574591 78.462683 157.734146 78.462683 
C 155.893702 78.462683 154.128389 79.193899 152.826998 80.49529 
C 151.525607 81.796681 150.79439 83.561994 150.79439 85.402439 
C 150.79439 87.242884 151.525607 89.008197 152.826998 90.309588 
C 154.128389 91.610979 155.893702 92.342195 157.734146 92.342195 
z
" clip-path="url(#p18d246f848)" style="fill: #2c3e50"/>
   </g>
   <g id="patch_59">
    <path d="M 144.604878 83.71439 
C 146.146872 83.71439 147.625918 83.101749 148.716273 82.011395 
C 149.806627 80.92104 150.419268 79.441994 150.419268 77.9 
C 150.419268 76.358006 149.806627 74.87896 148.716273 73.788605 
C 147.625918 72.698251 146.146872 72.08561 144.604878 72.08561 
C 143.062884 72.08561 141.583838 72.698251 140.493483 73.788605 
C 139.403129 74.87896 138.790488 76.358006 138.790488 77.9 
C 138.790488 79.441994 139.403129 80.92104 140.493483 82.011395 
C 141.583838 83.101749 143.062884 83.71439 144.604878 83.71439 
z
" clip-path="url(#p18d246f848)" style="fill: #2c3e50"/>
   </g>
   <g id="patch_60">
    <path d="M 154.291063 91.427835 
L 141.720133 82.948304 
L 147.489623 72.851696 
L 161.17723 79.377043 
z
" clip-path="url(#p18d246f848)" style="fill: #2c3e50"/>
   </g>
   <g id="patch_61">
    <path d="M 129.6 288.673522 
C 130.781864 288.673522 131.915481 288.203962 132.751185 287.368258 
C 133.586889 286.532554 134.056449 285.398937 134.056449 284.217073 
C 134.056449 283.035209 133.586889 281.901592 132.751185 281.065888 
C 131.915481 280.230184 130.781864 279.760624 129.6 279.760624 
C 128.418136 279.760624 127.284519 280.230184 126.448815 281.065888 
C 125.613111 281.901592 125.143551 283.035209 125.143551 284.217073 
C 125.143551 285.398937 125.613111 286.532554 126.448815 287.368258 
C 127.284519 288.203962 128.418136 288.673522 129.6 288.673522 
z
" clip-path="url(#p18d246f848)" style="fill: #1b1b1b; stroke: #121212; stroke-width: 1.3; stroke-linejoin: miter"/>
   </g>
   <g id="patch_62">
    <path d="M 144.604878 84.089512 
C 146.246356 84.089512 147.820824 83.437346 148.981524 82.276646 
C 150.142224 81.115946 150.79439 79.541478 150.79439 77.9 
C 150.79439 76.258522 150.142224 74.684054 148.981524 73.523354 
C 147.820824 72.362654 146.246356 71.710488 144.604878 71.710488 
C 142.9634 71.710488 141.388932 72.362654 140.228232 73.523354 
C 139.067532 74.684054 138.415366 76.258522 138.415366 77.9 
C 138.415366 79.541478 139.067532 81.115946 140.228232 82.276646 
C 141.388932 83.437346 142.9634 84.089512 144.604878 84.089512 
z
" clip-path="url(#p18d246f848)" style="fill: #f2e0c9; stroke: #a49888; stroke-width: 1.6; stroke-linejoin: miter"/>
   </g>
   <g id="line2d_15">
    <path d="M 143.854634 158.55122 
L 138.790488 224.197561 
L 138.236234 227.340893 
L 136.640322 230.105093 
L 134.195244 232.156757 
L 131.195911 233.248425 
L 128.004089 233.248425 
L 125.004756 232.156757 
L 122.559678 230.105093 
L 120.963766 227.340893 
L 120.409512 224.197561 
L 115.345366 158.55122 
L 116.205025 153.675847 
L 118.680317 149.388517 
L 122.472683 146.206344 
L 127.124709 144.513145 
L 132.075291 144.513145 
L 136.727317 146.206344 
L 140.519683 149.388517 
L 142.994975 153.675847 
L 143.854634 158.55122 
L 143.854634 158.55122 
" clip-path="url(#p18d246f848)" style="fill: none; stroke: #282a2c; stroke-width: 1.7; stroke-linecap: round"/>
   </g>
   <g id="line2d_16">
    <path d="M 138.790488 224.197561 
L 135.789512 284.217073 
L 135.416239 286.334011 
L 134.341441 288.195615 
L 132.694756 289.577348 
L 130.674798 290.312553 
L 128.525202 290.312553 
L 126.505244 289.577348 
L 124.858559 288.195615 
L 123.783761 286.334011 
L 123.410488 284.217073 
L 120.409512 224.197561 
L 120.963766 221.054229 
L 122.559678 218.290029 
L 125.004756 216.238365 
L 128.004089 215.146697 
L 131.195911 215.146697 
L 134.195244 216.238365 
L 136.640322 218.290029 
L 138.236234 221.054229 
L 138.790488 224.197561 
L 138.790488 224.197561 
" clip-path="url(#p18d246f848)" style="fill: none; stroke: #282a2c; stroke-width: 1.7; stroke-linecap: round"/>
   </g>
   <g id="line2d_17">
    <path d="M 129.6 278.955988 
L 144.604878 280.812841 
L 145.769194 281.018142 
L 146.793076 281.60928 
L 147.553029 282.514957 
L 147.957392 283.625935 
L 147.957392 284.808212 
L 147.553029 285.919189 
L 146.793076 286.824866 
L 145.769194 287.416005 
L 144.604878 287.621305 
L 129.6 289.478159 
L 127.800603 289.160876 
L 126.21824 288.247298 
L 125.043766 286.847616 
L 124.418842 285.130651 
L 124.418842 283.303495 
L 125.043766 281.58653 
L 126.21824 280.186848 
L 127.800603 279.27327 
L 129.6 278.955988 
L 129.6 278.955988 
" clip-path="url(#p18d246f848)" style="fill: none; stroke: #121212; stroke-width: 1.5; stroke-linecap: round"/>
   </g>
   <g id="line2d_18">
    <path d="M 125.634159 90.033478 
L 154.799424 79.113749 
L 157.127268 78.489269 
L 159.528311 78.69862 
L 161.712951 79.71655 
L 163.417688 81.420283 
L 164.436906 83.604322 
L 164.647673 86.00524 
L 164.024566 88.333452 
L 162.642742 90.308141 
L 160.668868 91.691129 
L 133.565841 107.029937 
L 130.420105 107.873828 
L 127.175453 107.590922 
L 124.223237 106.215341 
L 121.919538 103.913 
L 120.542217 100.961596 
L 120.257397 97.717111 
L 121.099433 94.570879 
L 122.966763 91.902381 
L 125.634159 90.033478 
L 125.634159 90.033478 
" clip-path="url(#p18d246f848)" style="fill: none; stroke: #1d2a36; stroke-width: 1.7; stroke-linecap: round"/>
   </g>
   <g id="line2d_19">
    <path d="M 154.291063 91.427835 
L 141.720133 82.948304 
L 140.167482 81.657213 
L 139.150047 79.912947 
L 138.790545 77.925889 
L 139.132338 75.935709 
L 140.134199 74.182451 
L 141.675291 72.877585 
L 143.569734 72.178496 
L 145.58903 72.169505 
L 147.489623 72.851696 
L 161.17723 79.377043 
L 163.030393 80.918023 
L 164.244751 82.999889 
L 164.673834 85.371539 
L 164.265888 87.746915 
L 163.070118 89.839513 
L 161.23075 91.396934 
L 158.969641 92.231331 
L 156.559513 92.242063 
L 154.291063 91.427835 
L 154.291063 91.427835 
" clip-path="url(#p18d246f848)" style="fill: none; stroke: #1d2a36; stroke-width: 1.7; stroke-linecap: round"/>
   </g>
   <g id="patch_63">
    <path d="M 129.6 94.780488 
C 133.57934 94.780488 137.396233 93.199479 140.210051 90.385661 
C 143.023869 87.571842 144.604878 83.75495 144.604878 79.77561 
C 144.604878 75.79627 143.023869 71.979377 140.210051 69.165559 
C 137.396233 66.35174 133.57934 64.770732 129.6 64.770732 
C 125.62066 64.770732 121.803767 66.35174 118.989949 69.165559 
C 116.176131 71.979377 114.595122 75.79627 114.595122 79.77561 
C 114.595122 83.75495 116.176131 87.571842 118.989949 90.385661 
C 121.803767 93.199479 125.62066 94.780488 129.6 94.780488 
z
" clip-path="url(#p18d246f848)" style="fill: #f2e0c9; stroke: #a49888; stroke-width: 1.8; stroke-linejoin: miter"/>
   </g>
   <g id="line2d_20">
    <path d="M 144.673956 75.275055 
L 147.634634 80.606493 
L 150.871623 75.438152 
L 153.832301 80.76959 
L 157.06929 75.601248 
L 160.029968 80.932686 
L 163.266957 75.764345 
L 166.227635 81.095783 
L 169.464624 75.927441 
L 172.425302 81.258879 
L 175.662291 76.090538 
L 178.622969 81.421976 
L 181.859958 76.253634 
L 184.820636 81.585072 
L 188.057625 76.416731 
L 191.018303 81.748169 
L 194.255292 76.579827 
L 197.21597 81.911265 
L 200.452959 76.742924 
L 203.413637 82.074362 
L 206.650626 76.90602 
L 209.611304 82.237458 
L 212.848293 77.069117 
L 215.808971 82.400555 
" clip-path="url(#p18d246f848)" style="fill: none; stroke: #c0392b; stroke-width: 3.2; stroke-linecap: round"/>
   </g>
   <g id="line2d_21">
    <path d="M 114.643741 75.274596 
L 118.950109 80.606952 
L 123.450952 75.437693 
L 127.75732 80.770048 
L 132.258163 75.600789 
L 136.564531 80.933145 
L 141.065374 75.763886 
L 145.371742 81.096241 
L 149.872585 75.926982 
L 154.178953 81.259338 
L 158.679796 76.090079 
L 162.986164 81.422434 
L 167.487007 76.253175 
L 171.793375 81.585531 
L 176.294218 76.416272 
L 180.600586 81.748627 
L 185.101429 76.579368 
L 189.407797 81.911724 
L 193.90864 76.742465 
L 198.215008 82.07482 
L 202.715851 76.905561 
L 207.022219 82.237917 
L 211.523062 77.068658 
L 215.82943 82.401013 
" clip-path="url(#p18d246f848)" style="fill: none; stroke: #c0392b; stroke-width: 3.2; stroke-linecap: round"/>
   </g>
   <g id="patch_64">
    <path d="M 211.376585 84.277073 
L 220.379512 84.277073 
L 220.379512 75.274146 
L 211.376585 75.274146 
z
" clip-path="url(#p18d246f848)" style="fill: #7a7a7a; stroke: #7a7a7a; stroke-linejoin: miter"/>
   </g>
   <g id="patch_65">
    <path d="M 176.386244 96.370274 
Q 158.080479 93.408382 147.51082 81.284991 
" clip-path="url(#p18d246f848)" style="fill: none; stroke-dasharray: 2.2,0; stroke-dashoffset: 0; stroke: #c0392b; stroke-width: 2.2; stroke-linecap: round"/>
    <path d="M 149.08037 87.346057 
L 147.51082 81.284991 
L 153.301402 83.665991 
z
" clip-path="url(#p18d246f848)" style="fill: #c0392b; stroke-dasharray: 2.2,0; stroke-dashoffset: 0; stroke: #c0392b; stroke-width: 2.2; stroke-linecap: round"/>
   </g>
  </g>
 </g>
 <defs>
  <clipPath id="p18d246f848">
   <rect x="5.809756" y="1" width="247.580488" height="307.6"/>
  </clipPath>
 </defs>
</svg>
