<?xml version="1.0" encoding="utf-8" standalone="no"?>
<!DOCTYPE svg PUBLIC "-//W3C//DTD SVG 1.1//EN"
  "http://www.w3.org/Graphics/SVG/1.1/DTD/svg11.dtd">
<svg xmlns:xlink="http://www.w3.org/1999/xlink" width="259.2pt" height="309.6pt" viewBox="0 0 259.2 309.6" xmlns="http://www.w3.org/2000/svg" version="1.1">
 <metadata>
  <rdf:RDF xmlns:dc="http://purl.org/dc/elements/1.1/" xmlns:cc="http://creativecommons.org/ns#" xmlns:rdf="http://www.w3.org/1999/02/22-rdf-syntax-ns#">
   <cc:Work>
    <dc:type rdf:resource="http://purl.org/dc/dcmitype/StillImage"/>
    <dc:date>2026-07-10T23:04:58.536800</dc:date>
    <dc:format>image/svg+xml</dc:format>
    <dc:creator>
     <cc:Agent>
      <dc:title>Matplotlib v3.10.8, https://matplotlib.org/</dc:title>
     </cc:Agent>
    </dc:creator>
   </cc:Work>
  </rdf:RDF>
 </metadata>
 <defs>
  <style type="text/css">*{stroke-linejoin: round; stroke-linecap: butt}</style>
 </defs>
 <g id="figure_1">
  <g id="patch_1">
   <path d="M 0 309.6 
L 259.2 309.6 
L 259.2 0 
L 0 0 
L 0 309.6 
z
" style="fill: none"/>
  </g>
  <g id="axes_1">
   <g id="line2d_1">
    <path d="M 17.063415 299.221951 
L 242.136585 299.221951 
" clip-path="url(#p8856aae9c3)" style="fill: none; stroke: #c3c3c3; stroke-width: 3; stroke-linecap: round"/>
   </g>
   <g id="patch_2">
    <path d="M 129.6 162.287434 
C 133.077943 162.287434 136.413907 160.905633 138.873185 158.446355 
C 141.332462 155.987078 142.714263 152.651114 142.714263 149.173171 
C 142.714263 145.695227 141.332462 142.359263 138.873185 139.899986 
C 136.413907 137.440709 133.077943 136.058907 129.6 136.058907 
C 126.122057 136.058907 122.786093 137.440709 120.326815 139.899986 
C 117.867538 142.359263 116.485737 145.695227 116.485737 149.173171 
C 116.485737 152.651114 117.867538 155.987078 120.326815 158.446355 
C 122.786093 160.905633 126.122057 162.287434 129.6 162.287434 
z
" clip-path="url(#p8856aae9c3)" style="fill: #3c3f42; fill-opacity: 0.95"/>
   </g>
   <g id="patch_3">
    <path d="M 108.968293 225.150371 
C 111.210651 225.150371 113.36147 224.259472 114.947056 222.673886 
C 116.532643 221.088299 117.423541 218.93748 117.423541 216.695122 
C 117.423541 214.452764 116.532643 212.301945 114.947056 210.716358 
C 113.36147 209.130772 111.210651 208.239873 108.968293 208.239873 
C 106.725934 208.239873 104.575116 209.130772 102.989529 210.716358 
C 101.403942 212.301945 100.513044 214.452764 100.513044 216.695122 
C 100.513044 218.93748 101.403942 221.088299 102.989529 222.673886 
C 104.575116 224.259472 106.725934 225.150371 108.968293 225.150371 
z
" clip-path="url(#p8856aae9c3)" style="fill: #3c3f42; fill-opacity: 0.95"/>
   </g>
   <g id="patch_4">
    <path d="M 142.141846 153.005402 
L 117.054483 219.165902 
L 100.882102 214.224342 
L 117.058154 145.34094 
z
" clip-path="url(#p8856aae9c3)" style="fill: #3c3f42; fill-opacity: 0.95"/>
   </g>
   <g id="patch_5">
    <path d="M 108.968293 225.150371 
C 111.210651 225.150371 113.36147 224.259472 114.947056 222.673886 
C 116.532643 221.088299 117.423541 218.93748 117.423541 216.695122 
C 117.423541 214.452764 116.532643 212.301945 114.947056 210.716358 
C 113.36147 209.130772 111.210651 208.239873 108.968293 208.239873 
C 106.725934 208.239873 104.575116 209.130772 102.989529 210.716358 
C 101.403942 212.301945 100.513044 214.452764 100.513044 216.695122 
C 100.513044 218.93748 101.403942 221.088299 102.989529 222.673886 
C 104.575116 224.259472 106.725934 225.150371 108.968293 225.150371 
z
" clip-path="url(#p8856aae9c3)" style="fill: #3c3f42; fill-opacity: 0.95"/>
   </g>
   <g id="patch_6">
    <path d="M 97.714634 288.035815 
C 99.224794 288.035815 100.673304 287.435822 101.741149 286.367978 
C 102.808993 285.300134 103.408985 283.851623 103.408985 282.341463 
C 103.408985 280.831304 102.808993 279.382793 101.741149 278.314949 
C 100.673304 277.247105 99.224794 276.647112 97.714634 276.647112 
C 96.204475 276.647112 94.755964 277.247105 93.68812 278.314949 
C 92.620276 279.382793 92.020283 280.831304 92.020283 282.341463 
C 92.020283 283.851623 92.620276 285.300134 93.68812 286.367978 
C 94.755964 287.435822 96.204475 288.035815 97.714634 288.035815 
z
" clip-path="url(#p8856aae9c3)" style="fill: #3c3f42; fill-opacity: 0.95"/>
   </g>
   <g id="patch_7">
    <path d="M 117.301974 218.123753 
L 103.327113 283.303603 
L 92.102155 281.379324 
L 100.634611 215.266491 
z
" clip-path="url(#p8856aae9c3)" style="fill: #3c3f42; fill-opacity: 0.95"/>
   </g>
   <g id="patch_8">
    <path d="M 97.714634 287.181662 
C 98.99827 287.181662 100.229504 286.671668 101.137171 285.764001 
C 102.044839 284.856333 102.554833 283.625099 102.554833 282.341463 
C 102.554833 281.057828 102.044839 279.826594 101.137171 278.918926 
C 100.229504 278.011259 98.99827 277.501265 97.714634 277.501265 
C 96.430998 277.501265 95.199764 278.011259 94.292097 278.918926 
C 93.384429 279.826594 92.874436 281.057828 92.874436 282.341463 
C 92.874436 283.625099 93.384429 284.856333 94.292097 285.764001 
C 95.199764 286.671668 96.430998 287.181662 97.714634 287.181662 
z
" clip-path="url(#p8856aae9c3)" style="fill: #1b1b1b; fill-opacity: 0.95"/>
   </g>
   <g id="patch_9">
    <path d="M 86.460976 276.095308 
C 87.291563 276.095308 88.088244 275.765312 88.675559 275.177998 
C 89.262873 274.590683 89.592869 273.794002 89.592869 272.963415 
C 89.592869 272.132827 89.262873 271.336146 88.675559 270.748832 
C 88.088244 270.161517 87.291563 269.831521 86.460976 269.831521 
C 85.630388 269.831521 84.833707 270.161517 84.246393 270.748832 
C 83.659078 271.336146 83.329082 272.132827 83.329082 272.963415 
C 83.329082 273.794002 83.659078 274.590683 84.246393 275.177998 
C 84.833707 275.765312 85.630388 276.095308 86.460976 276.095308 
z
" clip-path="url(#p8856aae9c3)" style="fill: #1b1b1b; fill-opacity: 0.95"/>
   </g>
   <g id="patch_10">
    <path d="M 94.616015 286.059807 
L 84.455986 275.369402 
L 88.465965 270.557428 
L 100.813254 278.62312 
z
" clip-path="url(#p8856aae9c3)" style="fill: #1b1b1b; fill-opacity: 0.95"/>
   </g>
   <g id="patch_11">
    <path d="M 129.6 90.279024 
C 131.888121 90.279024 134.082834 89.369944 135.700779 87.751999 
C 137.318725 86.134053 138.227805 83.93934 138.227805 81.65122 
C 138.227805 79.363099 137.318725 77.168386 135.700779 75.55044 
C 134.082834 73.932495 131.888121 73.023415 129.6 73.023415 
C 127.311879 73.023415 125.117166 73.932495 123.499221 75.55044 
C 121.881275 77.168386 120.972195 79.363099 120.972195 81.65122 
C 120.972195 83.93934 121.881275 86.134053 123.499221 87.751999 
C 125.117166 89.369944 127.311879 90.279024 129.6 90.279024 
z
" clip-path="url(#p8856aae9c3)" style="fill: #2c3e50; fill-opacity: 0.95"/>
   </g>
   <g id="patch_12">
    <path d="M 112.719512 140.552868 
C 114.412721 140.552868 116.036809 139.880149 117.234089 138.682869 
C 118.431369 137.48559 119.104088 135.861502 119.104088 134.168293 
C 119.104088 132.475083 118.431369 130.850996 117.234089 129.653716 
C 116.036809 128.456436 114.412721 127.783717 112.719512 127.783717 
C 111.026303 127.783717 109.402215 128.456436 108.204935 129.653716 
C 107.007656 130.850996 106.334937 132.475083 106.334937 134.168293 
C 106.334937 135.861502 107.007656 137.48559 108.204935 138.682869 
C 109.402215 139.880149 111.026303 140.552868 112.719512 140.552868 
z
" clip-path="url(#p8856aae9c3)" style="fill: #2c3e50; fill-opacity: 0.95"/>
   </g>
   <g id="patch_13">
    <path d="M 137.813917 84.291407 
L 118.797811 136.122031 
L 106.641214 132.214554 
L 121.386083 79.011032 
z
" clip-path="url(#p8856aae9c3)" style="fill: #2c3e50; fill-opacity: 0.95"/>
   </g>
   <g id="patch_14">
    <path d="M 112.719512 140.552868 
C 114.412721 140.552868 116.036809 139.880149 117.234089 138.682869 
C 118.431369 137.48559 119.104088 135.861502 119.104088 134.168293 
C 119.104088 132.475083 118.431369 130.850996 117.234089 129.653716 
C 116.036809 128.456436 114.412721 127.783717 112.719512 127.783717 
C 111.026303 127.783717 109.402215 128.456436 108.204935 129.653716 
C 107.007656 130.850996 106.334937 132.475083 106.334937 134.168293 
C 106.334937 135.861502 107.007656 137.48559 108.204935 138.682869 
C 109.402215 139.880149 111.026303 140.552868 112.719512 140.552868 
z
" clip-path="url(#p8856aae9c3)" style="fill: #2c3e50; fill-opacity: 0.95"/>
   </g>
   <g id="patch_15">
    <path d="M 110.843902 163.900459 
C 112.262537 163.900459 113.623259 163.336829 114.626386 162.333703 
C 115.629512 161.330576 116.193141 159.969854 116.193141 158.55122 
C 116.193141 157.132585 115.629512 155.771863 114.626386 154.768736 
C 113.623259 153.76561 112.262537 153.20198 110.843902 153.20198 
C 109.425268 153.20198 108.064546 153.76561 107.061419 154.768736 
C 106.058293 155.771863 105.494663 157.132585 105.494663 158.55122 
C 105.494663 159.969854 106.058293 161.330576 107.061419 162.333703 
C 108.064546 163.336829 109.425268 163.900459 110.843902 163.900459 
z
" clip-path="url(#p8856aae9c3)" style="fill: #2c3e50; fill-opacity: 0.95"/>
   </g>
   <g id="patch_16">
    <path d="M 119.085282 134.657967 
L 116.177385 158.961487 
L 105.51042 158.140952 
L 106.353742 133.678618 
z
" clip-path="url(#p8856aae9c3)" style="fill: #2c3e50; fill-opacity: 0.95"/>
   </g>
   <g id="patch_17">
    <path d="M 97.714634 286.441396 
C 98.801949 286.441396 99.844877 286.009402 100.613724 285.240554 
C 101.382572 284.471706 101.814567 283.428778 101.814567 282.341463 
C 101.814567 281.254149 101.382572 280.211221 100.613724 279.442373 
C 99.844877 278.673525 98.801949 278.241531 97.714634 278.241531 
C 96.627319 278.241531 95.584392 278.673525 94.815544 279.442373 
C 94.046696 280.211221 93.614701 281.254149 93.614701 282.341463 
C 93.614701 283.428778 94.046696 284.471706 94.815544 285.240554 
C 95.584392 286.009402 96.627319 286.441396 97.714634 286.441396 
z
" clip-path="url(#p8856aae9c3)" style="fill: #1b1b1b; fill-opacity: 0.95; stroke: #121212; stroke-width: 1.3; stroke-linejoin: miter"/>
   </g>
   <g id="patch_18">
    <path d="M 110.843902 164.431256 
C 112.403306 164.431256 113.899051 163.811698 115.001716 162.709033 
C 116.104381 161.606368 116.723939 160.110623 116.723939 158.55122 
C 116.723939 156.991816 116.104381 155.496071 115.001716 154.393406 
C 113.899051 153.290741 112.403306 152.671183 110.843902 152.671183 
C 109.284499 152.671183 107.788754 153.290741 106.686089 154.393406 
C 105.583424 155.496071 104.963866 156.991816 104.963866 158.55122 
C 104.963866 160.110623 105.583424 161.606368 106.686089 162.709033 
C 107.788754 163.811698 109.284499 164.431256 110.843902 164.431256 
z
" clip-path="url(#p8856aae9c3)" style="fill: #f2e0c9; fill-opacity: 0.95; stroke: #a49888; stroke-width: 1.3; stroke-linejoin: miter"/>
   </g>
   <g id="line2d_2">
    <path d="M 142.141846 153.005402 
L 117.054483 219.165902 
L 115.72177 221.782536 
L 113.574487 223.785553 
L 110.871629 224.933359 
L 107.939201 225.087512 
L 105.130897 224.229418 
L 102.785439 222.462578 
L 101.185724 220.000097 
L 100.524703 217.138988 
L 100.882102 214.224342 
L 117.058154 145.34094 
L 119.12522 141.282488 
L 122.455699 138.175768 
L 126.647886 136.395498 
L 131.196142 136.156403 
L 135.551879 137.487323 
L 139.189732 140.227729 
L 141.670922 144.047086 
L 142.696181 148.484726 
L 142.141846 153.005402 
L 142.141846 153.005402 
" clip-path="url(#p8856aae9c3)" style="fill: none; stroke: #282a2c; stroke-width: 1.7; stroke-linecap: round"/>
   </g>
   <g id="line2d_3">
    <path d="M 117.301974 218.123753 
L 103.327113 283.303603 
L 102.659568 285.16516 
L 101.395591 286.686137 
L 99.687637 287.683083 
L 97.741709 288.03575 
L 95.792515 287.701603 
L 94.075157 286.720943 
L 92.796774 285.212054 
L 92.111558 283.356929 
L 92.102155 281.379324 
L 100.634611 215.266491 
L 101.625814 212.502361 
L 103.502629 210.24394 
L 106.038683 208.763627 
L 108.928091 208.239969 
L 111.822348 208.736127 
L 114.372364 210.192258 
L 116.270569 212.43273 
L 117.288012 215.187309 
L 117.301974 218.123753 
L 117.301974 218.123753 
" clip-path="url(#p8856aae9c3)" style="fill: none; stroke: #282a2c; stroke-width: 1.7; stroke-linecap: round"/>
   </g>
   <g id="line2d_4">
    <path d="M 94.616015 286.059807 
L 84.455986 275.369402 
L 83.754006 274.538556 
L 83.378526 273.517725 
L 83.374835 272.430037 
L 83.743378 271.406681 
L 84.439704 270.571091 
L 85.379824 270.02405 
L 86.450348 269.831539 
L 87.522153 270.01678 
L 88.465965 270.557428 
L 100.813254 278.62312 
L 101.898132 279.907154 
L 102.47842 281.484801 
L 102.484124 283.165775 
L 101.914557 284.747324 
L 100.838418 286.038692 
L 99.385504 286.884118 
L 97.731059 287.181634 
L 96.074633 286.895354 
L 94.616015 286.059807 
L 94.616015 286.059807 
" clip-path="url(#p8856aae9c3)" style="fill: none; stroke: #121212; stroke-width: 1.5; stroke-linecap: round"/>
   </g>
   <g id="line2d_5">
    <path d="M 137.813917 84.291407 
L 118.797811 136.122031 
L 117.763026 138.083107 
L 116.11992 139.571998 
L 114.066674 140.409123 
L 111.850941 140.493511 
L 109.73997 139.814985 
L 107.988376 138.455384 
L 106.807426 136.578697 
L 106.339562 134.411279 
L 106.641214 132.214554 
L 121.386083 79.011032 
L 122.78444 76.36093 
L 125.004855 74.348915 
L 127.779511 73.217665 
L 130.773745 73.103627 
L 133.626409 74.020554 
L 135.993428 75.857853 
L 137.589305 78.393917 
L 138.221554 81.322859 
L 137.813917 84.291407 
L 137.813917 84.291407 
" clip-path="url(#p8856aae9c3)" style="fill: none; stroke: #1d2a36; stroke-width: 1.7; stroke-linecap: round"/>
   </g>
   <g id="line2d_6">
    <path d="M 119.085282 134.657967 
L 116.177385 158.961487 
L 115.715417 160.760904 
L 114.665872 162.2938 
L 113.155341 163.375285 
L 111.366017 163.874917 
L 109.513718 163.732432 
L 107.821859 162.965017 
L 106.494502 161.665233 
L 105.691748 159.989852 
L 105.51042 158.140952 
L 106.353742 133.678618 
L 106.905124 131.530928 
L 108.157806 129.701342 
L 109.960698 128.410537 
L 112.096343 127.814202 
L 114.307152 127.984264 
L 116.326468 128.900212 
L 117.910732 130.451567 
L 118.868858 132.451215 
L 119.085282 134.657967 
L 119.085282 134.657967 
" clip-path="url(#p8856aae9c3)" style="fill: none; stroke: #1d2a36; stroke-width: 1.7; stroke-linecap: round"/>
   </g>
   <g id="patch_19">
    <path d="M 129.6 66.646341 
C 131.58967 66.646341 133.498116 65.855837 134.905026 64.448928 
C 136.311935 63.042019 137.102439 61.133573 137.102439 59.143902 
C 137.102439 57.154232 136.311935 55.245786 134.905026 53.838877 
C 133.498116 52.431968 131.58967 51.641463 129.6 51.641463 
C 127.61033 51.641463 125.701884 52.431968 124.294974 53.838877 
C 122.888065 55.245786 122.097561 57.154232 122.097561 59.143902 
C 122.097561 61.133573 122.888065 63.042019 124.294974 64.448928 
C 125.701884 65.855837 127.61033 66.646341 129.6 66.646341 
z
" clip-path="url(#p8856aae9c3)" style="fill: #2c3e50"/>
   </g>
   <g id="patch_20">
    <path d="M 129.6 93.28 
C 132.683989 93.28 135.64208 92.054718 137.82279 89.874009 
C 140.003499 87.6933 141.22878 84.735208 141.22878 81.65122 
C 141.22878 78.567231 140.003499 75.609139 137.82279 73.42843 
C 135.64208 71.247721 132.683989 70.022439 129.6 70.022439 
C 126.516011 70.022439 123.55792 71.247721 121.37721 73.42843 
C 119.196501 75.609139 117.97122 78.567231 117.97122 81.65122 
C 117.97122 84.735208 119.196501 87.6933 121.37721 89.874009 
C 123.55792 92.054718 126.516011 93.28 129.6 93.28 
z
" clip-path="url(#p8856aae9c3)" style="fill: #2c3e50"/>
   </g>
   <g id="patch_21">
    <path d="M 137.102439 59.143902 
L 141.22878 81.65122 
L 117.97122 81.65122 
L 122.097561 59.143902 
z
" clip-path="url(#p8856aae9c3)" style="fill: #2c3e50"/>
   </g>
   <g id="patch_22">
    <path d="M 129.6 104.90878 
C 135.767977 104.90878 141.684161 102.458217 146.045579 98.096799 
C 150.406998 93.73538 152.857561 87.819197 152.857561 81.65122 
C 152.857561 75.483242 150.406998 69.567059 146.045579 65.20564 
C 141.684161 60.844222 135.767977 58.393659 129.6 58.393659 
C 123.432023 58.393659 117.515839 60.844222 113.154421 65.20564 
C 108.793002 69.567059 106.342439 75.483242 106.342439 81.65122 
C 106.342439 87.819197 108.793002 93.73538 113.154421 98.096799 
C 117.515839 102.458217 123.432023 104.90878 129.6 104.90878 
z
" clip-path="url(#p8856aae9c3)" style="fill: #2c3e50"/>
   </g>
   <g id="patch_23">
    <path d="M 129.6 166.42878 
C 134.176241 166.42878 138.565667 164.610621 141.801559 161.374729 
C 145.03745 158.138838 146.85561 153.749412 146.85561 149.173171 
C 146.85561 144.59693 145.03745 140.207503 141.801559 136.971612 
C 138.565667 133.735721 134.176241 131.917561 129.6 131.917561 
C 125.023759 131.917561 120.634333 133.735721 117.398441 136.971612 
C 114.16255 140.207503 112.34439 144.59693 112.34439 149.173171 
C 112.34439 153.749412 114.16255 158.138838 117.398441 161.374729 
C 120.634333 164.610621 125.023759 166.42878 129.6 166.42878 
z
" clip-path="url(#p8856aae9c3)" style="fill: #2c3e50"/>
   </g>
   <g id="patch_24">
    <path d="M 152.857561 81.65122 
L 146.85561 149.173171 
L 112.34439 149.173171 
L 106.342439 81.65122 
z
" clip-path="url(#p8856aae9c3)" style="fill: #2c3e50"/>
   </g>
   <g id="patch_25">
    <path d="M 129.6 163.427805 
C 133.380373 163.427805 137.006421 161.925847 139.679548 159.252719 
C 142.352676 156.579592 143.854634 152.953544 143.854634 149.173171 
C 143.854634 145.392798 142.352676 141.76675 139.679548 139.093622 
C 137.006421 136.420495 133.380373 134.918537 129.6 134.918537 
C 125.819627 134.918537 122.193579 136.420495 119.520452 139.093622 
C 116.847324 141.76675 115.345366 145.392798 115.345366 149.173171 
C 115.345366 152.953544 116.847324 156.579592 119.520452 159.252719 
C 122.193579 161.925847 125.819627 163.427805 129.6 163.427805 
z
" clip-path="url(#p8856aae9c3)" style="fill: #3c3f42"/>
   </g>
   <g id="patch_26">
    <path d="M 150.231707 225.88561 
C 152.669053 225.88561 155.0069 224.917242 156.730364 223.193778 
C 158.453827 221.470314 159.422195 219.132468 159.422195 216.695122 
C 159.422195 214.257776 158.453827 211.919929 156.730364 210.196466 
C 155.0069 208.473002 152.669053 207.504634 150.231707 207.504634 
C 147.794361 207.504634 145.456515 208.473002 143.733051 210.196466 
C 142.009587 211.919929 141.04122 214.257776 141.04122 216.695122 
C 141.04122 219.132468 142.009587 221.470314 143.733051 223.193778 
C 145.456515 224.917242 147.794361 225.88561 150.231707 225.88561 
z
" clip-path="url(#p8856aae9c3)" style="fill: #3c3f42"/>
   </g>
   <g id="patch_27">
    <path d="M 143.232442 145.007702 
L 159.021045 214.009491 
L 141.44237 219.380753 
L 115.967558 153.338639 
z
" clip-path="url(#p8856aae9c3)" style="fill: #3c3f42"/>
   </g>
   <g id="patch_28">
    <path d="M 150.231707 225.88561 
C 152.669053 225.88561 155.0069 224.917242 156.730364 223.193778 
C 158.453827 221.470314 159.422195 219.132468 159.422195 216.695122 
C 159.422195 214.257776 158.453827 211.919929 156.730364 210.196466 
C 155.0069 208.473002 152.669053 207.504634 150.231707 207.504634 
C 147.794361 207.504634 145.456515 208.473002 143.733051 210.196466 
C 142.009587 211.919929 141.04122 214.257776 141.04122 216.695122 
C 141.04122 219.132468 142.009587 221.470314 143.733051 223.193778 
C 145.456515 224.917242 147.794361 225.88561 150.231707 225.88561 
z
" clip-path="url(#p8856aae9c3)" style="fill: #3c3f42"/>
   </g>
   <g id="patch_29">
    <path d="M 161.485366 288.530976 
C 163.126844 288.530976 164.701312 287.87881 165.862012 286.718109 
C 167.022712 285.557409 167.674878 283.982941 167.674878 282.341463 
C 167.674878 280.699986 167.022712 279.125517 165.862012 277.964817 
C 164.701312 276.804117 163.126844 276.151951 161.485366 276.151951 
C 159.843888 276.151951 158.26942 276.804117 157.10872 277.964817 
C 155.94802 279.125517 155.295854 280.699986 155.295854 282.341463 
C 155.295854 283.982941 155.94802 285.557409 157.10872 286.718109 
C 158.26942 287.87881 159.843888 288.530976 161.485366 288.530976 
z
" clip-path="url(#p8856aae9c3)" style="fill: #3c3f42"/>
   </g>
   <g id="patch_30">
    <path d="M 159.290057 215.142262 
L 167.585887 281.29566 
L 155.384845 283.387267 
L 141.173358 218.247982 
z
" clip-path="url(#p8856aae9c3)" style="fill: #3c3f42"/>
   </g>
   <g id="patch_31">
    <path d="M 161.485366 287.602549 
C 162.880622 287.602549 164.21892 287.048208 165.205515 286.061613 
C 166.19211 285.075017 166.746451 283.73672 166.746451 282.341463 
C 166.746451 280.946207 166.19211 279.607909 165.205515 278.621314 
C 164.21892 277.634719 162.880622 277.080378 161.485366 277.080378 
C 160.09011 277.080378 158.751812 277.634719 157.765217 278.621314 
C 156.778622 279.607909 156.22428 280.946207 156.22428 282.341463 
C 156.22428 283.73672 156.778622 285.075017 157.765217 286.061613 
C 158.751812 287.048208 160.09011 287.602549 161.485366 287.602549 
z
" clip-path="url(#p8856aae9c3)" style="fill: #1b1b1b"/>
   </g>
   <g id="patch_32">
    <path d="M 172.739024 276.367646 
C 173.641837 276.367646 174.507795 276.008955 175.14618 275.37057 
C 175.784565 274.732185 176.143256 273.866227 176.143256 272.963415 
C 176.143256 272.060602 175.784565 271.194644 175.14618 270.556259 
C 174.507795 269.917874 173.641837 269.559183 172.739024 269.559183 
C 171.836212 269.559183 170.970254 269.917874 170.331869 270.556259 
C 169.693484 271.194644 169.334793 272.060602 169.334793 272.963415 
C 169.334793 273.866227 169.693484 274.732185 170.331869 275.37057 
C 170.970254 276.008955 171.836212 276.367646 172.739024 276.367646 
z
" clip-path="url(#p8856aae9c3)" style="fill: #1b1b1b"/>
   </g>
   <g id="patch_33">
    <path d="M 158.117301 278.299786 
L 170.559688 270.348211 
L 174.91836 275.578618 
L 164.853431 286.383141 
z
" clip-path="url(#p8856aae9c3)" style="fill: #1b1b1b"/>
   </g>
   <g id="line2d_7">
    <path d="M 137.102439 59.143902 
L 141.22878 81.65122 
L 140.527479 85.628497 
L 138.508163 89.126056 
L 135.41439 91.722039 
L 131.619317 93.103333 
L 127.580683 93.103333 
L 123.78561 91.722039 
L 120.691837 89.126056 
L 118.672521 85.628497 
L 117.97122 81.65122 
L 122.097561 59.143902 
L 122.550013 56.577917 
L 123.852798 54.321428 
L 125.84878 52.6466 
L 128.297215 51.755442 
L 130.902785 51.755442 
L 133.35122 52.6466 
L 135.347202 54.321428 
L 136.649987 56.577917 
L 137.102439 59.143902 
L 137.102439 59.143902 
" clip-path="url(#p8856aae9c3)" style="fill: none; stroke: #1d2a36; stroke-width: 1.7; stroke-linecap: round"/>
   </g>
   <g id="line2d_8">
    <path d="M 152.857561 81.65122 
L 146.85561 149.173171 
L 145.814969 155.074937 
L 142.818564 160.264863 
L 138.227805 164.116967 
L 132.596405 166.166629 
L 126.603595 166.166629 
L 120.972195 164.116967 
L 116.381436 160.264863 
L 113.385031 155.074937 
L 112.34439 149.173171 
L 106.342439 81.65122 
L 107.745042 73.696665 
L 111.783675 66.701547 
L 117.97122 61.509581 
L 125.561367 58.746993 
L 133.638633 58.746993 
L 141.22878 61.509581 
L 147.416325 66.701547 
L 151.454958 73.696665 
L 152.857561 81.65122 
L 152.857561 81.65122 
" clip-path="url(#p8856aae9c3)" style="fill: none; stroke: #1d2a36; stroke-width: 1.7; stroke-linecap: round"/>
   </g>
   <g id="patch_34">
    <path d="M 129.6 91.029268 
C 132.087088 91.029268 134.472645 90.041138 136.231282 88.282501 
C 137.989918 86.523865 138.978049 84.138307 138.978049 81.65122 
C 138.978049 79.164132 137.989918 76.778574 136.231282 75.019938 
C 134.472645 73.261301 132.087088 72.273171 129.6 72.273171 
C 127.112912 72.273171 124.727355 73.261301 122.968718 75.019938 
C 121.210082 76.778574 120.221951 79.164132 120.221951 81.65122 
C 120.221951 84.138307 121.210082 86.523865 122.968718 88.282501 
C 124.727355 90.041138 127.112912 91.029268 129.6 91.029268 
z
" clip-path="url(#p8856aae9c3)" style="fill: #2c3e50"/>
   </g>
   <g id="patch_35">
    <path d="M 146.480488 141.108049 
C 148.320933 141.108049 150.086245 140.376832 151.387636 139.075441 
C 152.689027 137.77405 153.420244 136.008738 153.420244 134.168293 
C 153.420244 132.327848 152.689027 130.562535 151.387636 129.261144 
C 150.086245 127.959753 148.320933 127.228537 146.480488 127.228537 
C 144.640043 127.228537 142.87473 127.959753 141.573339 129.261144 
C 140.271948 130.562535 139.540732 132.327848 139.540732 134.168293 
C 139.540732 136.008738 140.271948 137.77405 141.573339 139.075441 
C 142.87473 140.376832 144.640043 141.108049 146.480488 141.108049 
z
" clip-path="url(#p8856aae9c3)" style="fill: #2c3e50"/>
   </g>
   <g id="patch_36">
    <path d="M 138.52817 78.78145 
L 153.087334 132.044664 
L 139.873642 136.291922 
L 120.67183 84.520989 
z
" clip-path="url(#p8856aae9c3)" style="fill: #2c3e50"/>
   </g>
   <g id="patch_37">
    <path d="M 146.480488 141.108049 
C 148.320933 141.108049 150.086245 140.376832 151.387636 139.075441 
C 152.689027 137.77405 153.420244 136.008738 153.420244 134.168293 
C 153.420244 132.327848 152.689027 130.562535 151.387636 129.261144 
C 150.086245 127.959753 148.320933 127.228537 146.480488 127.228537 
C 144.640043 127.228537 142.87473 127.959753 141.573339 129.261144 
C 140.271948 130.562535 139.540732 132.327848 139.540732 134.168293 
C 139.540732 136.008738 140.271948 137.77405 141.573339 139.075441 
C 142.87473 140.376832 144.640043 141.108049 146.480488 141.108049 
z
" clip-path="url(#p8856aae9c3)" style="fill: #2c3e50"/>
   </g>
   <g id="patch_38">
    <path d="M 148.356098 164.36561 
C 149.898092 164.36561 151.377138 163.752969 152.467492 162.662614 
C 153.557847 161.57226 154.170488 160.093214 154.170488 158.55122 
C 154.170488 157.009225 153.557847 155.530179 152.467492 154.439825 
C 151.377138 153.34947 149.898092 152.736829 148.356098 152.736829 
C 146.814103 152.736829 145.335057 153.34947 144.244703 154.439825 
C 143.154348 155.530179 142.541707 157.009225 142.541707 158.55122 
C 142.541707 160.093214 143.154348 161.57226 144.244703 162.662614 
C 145.335057 163.752969 146.814103 164.36561 148.356098 164.36561 
z
" clip-path="url(#p8856aae9c3)" style="fill: #2c3e50"/>
   </g>
   <g id="patch_39">
    <path d="M 153.399803 133.636038 
L 154.153361 158.105276 
L 142.558834 158.997163 
L 139.561173 134.700548 
z
" clip-path="url(#p8856aae9c3)" style="fill: #2c3e50"/>
   </g>
   <g id="patch_40">
    <path d="M 161.485366 286.797912 
C 162.66723 286.797912 163.800847 286.328353 164.636551 285.492649 
C 165.472255 284.656944 165.941815 283.523327 165.941815 282.341463 
C 165.941815 281.159599 165.472255 280.025982 164.636551 279.190278 
C 163.800847 278.354574 162.66723 277.885015 161.485366 277.885015 
C 160.303502 277.885015 159.169885 278.354574 158.334181 279.190278 
C 157.498477 280.025982 157.028917 281.159599 157.028917 282.341463 
C 157.028917 283.523327 157.498477 284.656944 158.334181 285.492649 
C 159.169885 286.328353 160.303502 286.797912 161.485366 286.797912 
z
" clip-path="url(#p8856aae9c3)" style="fill: #1b1b1b; stroke: #121212; stroke-width: 1.3; stroke-linejoin: miter"/>
   </g>
   <g id="patch_41">
    <path d="M 148.356098 164.740732 
C 149.997575 164.740732 151.572044 164.088566 152.732744 162.927866 
C 153.893444 161.767165 154.54561 160.192697 154.54561 158.55122 
C 154.54561 156.909742 153.893444 155.335274 152.732744 154.174573 
C 151.572044 153.013873 149.997575 152.361707 148.356098 152.361707 
C 146.71462 152.361707 145.140152 153.013873 143.979452 154.174573 
C 142.818751 155.335274 142.166585 156.909742 142.166585 158.55122 
C 142.166585 160.192697 142.818751 161.767165 143.979452 162.927866 
C 145.140152 164.088566 146.71462 164.740732 148.356098 164.740732 
z
" clip-path="url(#p8856aae9c3)" style="fill: #f2e0c9; stroke: #a49888; stroke-width: 1.6; stroke-linejoin: miter"/>
   </g>
   <g id="line2d_9">
    <path d="M 143.232442 145.007702 
L 159.021045 214.009491 
L 159.409523 217.177585 
L 158.691021 220.287487 
L 156.952201 222.964096 
L 154.40279 224.884575 
L 151.350285 225.817285 
L 148.162863 225.649727 
L 145.224974 224.402112 
L 142.890972 222.22492 
L 141.44237 219.380753 
L 115.967558 153.338639 
L 115.365021 148.424861 
L 116.479432 143.60134 
L 119.176378 139.449864 
L 123.130566 136.471162 
L 127.865063 135.02451 
L 132.80882 135.284396 
L 137.365545 137.219472 
L 140.985631 140.596341 
L 143.232442 145.007702 
L 143.232442 145.007702 
" clip-path="url(#p8856aae9c3)" style="fill: none; stroke: #282a2c; stroke-width: 1.7; stroke-linecap: round"/>
   </g>
   <g id="line2d_10">
    <path d="M 159.290057 215.142262 
L 167.585887 281.29566 
L 167.575666 283.445231 
L 166.830866 285.461671 
L 165.441319 287.101768 
L 163.574626 288.167702 
L 161.455937 288.530906 
L 159.340798 288.147571 
L 157.484325 287.063935 
L 156.110437 285.410698 
L 155.384845 283.387267 
L 141.173358 218.247982 
L 141.188534 215.056195 
L 142.29445 212.062087 
L 144.357717 209.626791 
L 147.129473 208.044041 
L 150.275405 207.504738 
L 153.416066 208.073931 
L 156.172646 209.682968 
L 158.212662 212.137773 
L 159.290057 215.142262 
L 159.290057 215.142262 
" clip-path="url(#p8856aae9c3)" style="fill: none; stroke: #282a2c; stroke-width: 1.7; stroke-linecap: round"/>
   </g>
   <g id="line2d_11">
    <path d="M 158.117301 278.299786 
L 170.559688 270.348211 
L 171.585571 269.760551 
L 172.750576 269.559203 
L 173.914189 269.768453 
L 174.936059 270.363062 
L 175.692935 271.271313 
L 176.093525 272.383656 
L 176.089513 273.565926 
L 175.681383 274.675525 
L 174.91836 275.578618 
L 164.853431 286.383141 
L 163.267976 287.291344 
L 161.467513 287.602518 
L 159.669203 287.279132 
L 158.089949 286.36019 
L 156.920232 284.95653 
L 156.301138 283.237454 
L 156.307338 281.410309 
L 156.938085 279.695475 
L 158.117301 278.299786 
L 158.117301 278.299786 
" clip-path="url(#p8856aae9c3)" style="fill: none; stroke: #121212; stroke-width: 1.5; stroke-linecap: round"/>
   </g>
   <g id="line2d_12">
    <path d="M 138.52817 78.78145 
L 153.087334 132.044664 
L 153.415216 134.432409 
L 152.906668 136.788297 
L 151.623028 138.828175 
L 149.719121 140.306002 
L 147.424587 141.04353 
L 145.016182 140.951804 
L 142.784393 140.041886 
L 140.998407 138.423526 
L 139.873642 136.291922 
L 120.67183 84.520989 
L 120.228745 81.294306 
L 120.915973 78.110673 
L 122.650622 75.354082 
L 125.223469 73.357018 
L 128.32419 72.360358 
L 131.578792 72.484313 
L 134.594723 73.713932 
L 137.008217 75.900905 
L 138.52817 78.78145 
L 138.52817 78.78145 
" clip-path="url(#p8856aae9c3)" style="fill: none; stroke: #1d2a36; stroke-width: 1.7; stroke-linecap: round"/>
   </g>
   <g id="line2d_13">
    <path d="M 153.399803 133.636038 
L 154.153361 158.105276 
L 153.956265 160.114951 
L 153.083706 161.936016 
L 151.640928 163.348826 
L 149.80195 164.182973 
L 147.788582 164.337847 
L 145.843664 163.794769 
L 144.201783 162.619241 
L 143.060973 160.95305 
L 142.558834 158.997163 
L 139.561173 134.700548 
L 139.796417 132.301904 
L 140.837858 130.128374 
L 142.559884 128.442118 
L 144.754793 127.446523 
L 147.157845 127.261673 
L 149.479199 127.909863 
L 151.438864 129.312912 
L 152.800475 131.301592 
L 153.399803 133.636038 
L 153.399803 133.636038 
" clip-path="url(#p8856aae9c3)" style="fill: none; stroke: #1d2a36; stroke-width: 1.7; stroke-linecap: round"/>
   </g>
   <g id="patch_42">
    <path d="M 129.6 74.14878 
C 133.57934 74.14878 137.396233 72.567772 140.210051 69.753953 
C 143.023869 66.940135 144.604878 63.123243 144.604878 59.143902 
C 144.604878 55.164562 143.023869 51.34767 140.210051 48.533851 
C 137.396233 45.720033 133.57934 44.139024 129.6 44.139024 
C 125.62066 44.139024 121.803767 45.720033 118.989949 48.533851 
C 116.176131 51.34767 114.595122 55.164562 114.595122 59.143902 
C 114.595122 63.123243 116.176131 66.940135 118.989949 69.753953 
C 121.803767 72.567772 125.62066 74.14878 129.6 74.14878 
z
" clip-path="url(#p8856aae9c3)" style="fill: #f2e0c9; stroke: #a49888; stroke-width: 1.8; stroke-linejoin: miter"/>
   </g>
   <g id="patch_43">
    <path d="M 148.356098 173.856195 
C 151.738537 173.856195 154.982895 172.512338 157.374641 170.120592 
C 159.766387 167.728846 161.110244 164.484488 161.110244 161.102049 
C 161.110244 157.71961 159.766387 154.475251 157.374641 152.083505 
C 154.982895 149.69176 151.738537 148.347902 148.356098 148.347902 
C 144.973658 148.347902 141.7293 149.69176 139.337554 152.083505 
C 136.945809 154.475251 135.601951 157.71961 135.601951 161.102049 
C 135.601951 164.484488 136.945809 167.728846 139.337554 170.120592 
C 141.7293 172.512338 144.973658 173.856195 148.356098 173.856195 
z
" clip-path="url(#p8856aae9c3)" style="fill: #5b6b73; stroke: #5b6b73; stroke-linejoin: miter"/>
   </g>
   <g id="patch_44">
    <path d="M 144.274771 152.811854 
L 152.437424 152.811854 
L 152.437424 146.43478 
L 144.274771 146.43478 
L 144.274771 152.811854 
z
" clip-path="url(#p8856aae9c3)" style="fill: none; stroke: #5b6b73; stroke-width: 3.2; stroke-linejoin: miter"/>
   </g>
   <g id="patch_45">
    <path d="M 110.843902 173.856195 
C 114.226342 173.856195 117.4707 172.512338 119.862446 170.120592 
C 122.254191 167.728846 123.598049 164.484488 123.598049 161.102049 
C 123.598049 157.71961 122.254191 154.475251 119.862446 152.083505 
C 117.4707 149.69176 114.226342 148.347902 110.843902 148.347902 
C 107.461463 148.347902 104.217105 149.69176 101.825359 152.083505 
C 99.433613 154.475251 98.089756 157.71961 98.089756 161.102049 
C 98.089756 164.484488 99.433613 167.728846 101.825359 170.120592 
C 104.217105 172.512338 107.461463 173.856195 110.843902 173.856195 
z
" clip-path="url(#p8856aae9c3)" style="fill: #5b6b73; stroke: #5b6b73; stroke-linejoin: miter"/>
   </g>
   <g id="patch_46">
    <path d="M 106.762576 152.811854 
L 114.925229 152.811854 
L 114.925229 146.43478 
L 106.762576 146.43478 
L 106.762576 152.811854 
z
" clip-path="url(#p8856aae9c3)" style="fill: none; stroke: #5b6b73; stroke-width: 3.2; stroke-linejoin: miter"/>
   </g>
   <g id="patch_47">
    <path d="M 191.62059 173.556098 
Q 198.997953 173.556098 203.915641 173.556098 
" clip-path="url(#p8856aae9c3)" style="fill: none; stroke-dasharray: 2.2,0; stroke-dashoffset: 0; stroke: #c0392b; stroke-width: 2.2; stroke-linecap: round"/>
    <path d="M 198.315641 170.756098 
L 203.915641 173.556098 
L 198.315641 176.356098 
z
" clip-path="url(#p8856aae9c3)" style="fill: #c0392b; stroke-dasharray: 2.2,0; stroke-dashoffset: 0; stroke: #c0392b; stroke-width: 2.2; stroke-linecap: round"/>
   </g>
  </g>
 </g>
 <defs>
  <clipPath id="p8856aae9c3">
   <rect x="5.809756" y="1" width="247.580488" height="307.6"/>
  </clipPath>
 </defs>
</svg>
