<?xml version="1.0" encoding="utf-8" standalone="no"?>
<!DOCTYPE svg PUBLIC "-//W3C//DTD SVG 1.1//EN"
  "http://www.w3.org/Graphics/SVG/1.1/DTD/svg11.dtd">
<svg xmlns:xlink="http://www.w3.org/1999/xlink" width="259.2pt" height="309.6pt" viewBox="0 0 259.2 309.6" xmlns="http://www.w3.org/2000/svg" version="1.1">
 <metadata>
  <rdf:RDF xmlns:dc="http://purl.org/dc/elements/1.1/" xmlns:cc="http://creativecommons.org/ns#" xmlns:rdf="http://www.w3.org/1999/02/22-rdf-syntax-ns#">
   <cc:Work>
    <dc:type rdf:resource="http://purl.org/dc/dcmitype/StillImage"/>
    <dc:date>2026-07-10T23:04:57.115159</dc:date>
    <dc:format>image/svg+xml</dc:format>
    <dc:creator>
     <cc:Agent>
      <dc:title>Matplotlib v3.10.8, https://matplotlib.org/</dc:title>
     </cc:Agent>
    </dc:creator>
   </cc:Work>
  </rdf:RDF>
 </metadata>
 <defs>
  <style type="text/css">*{stroke-linejoin: round; stroke-linecap: butt}</style>
 </defs>
 <g id="figure_1">
  <g id="patch_1">
   <path d="M 0 309.6 
L 259.2 309.6 
L 259.2 0 
L 0 0 
L 0 309.6 
z
" style="fill: none"/>
  </g>
  <g id="axes_1">
   <g id="line2d_1">
    <path d="M 17.063415 293.595122 
L 242.136585 293.595122 
" clip-path="url(#p9ae2ebc56a)" style="fill: none; stroke: #c3c3c3; stroke-width: 3; stroke-linecap: round"/>
   </g>
   <g id="patch_2">
    <path d="M 62.078049 248.580488 
L 197.121951 248.580488 
L 197.121951 231.7 
L 62.078049 231.7 
z
" clip-path="url(#p9ae2ebc56a)" style="fill: #9aa5b1; stroke: #9aa5b1"/>
   </g>
   <g id="patch_3">
    <path d="M 66.579512 269.212195 
L 72.581463 269.212195 
L 72.581463 248.580488 
L 66.579512 248.580488 
z
" clip-path="url(#p9ae2ebc56a)" style="fill: #9aa5b1; stroke: #9aa5b1; stroke-linejoin: miter"/>
   </g>
   <g id="patch_4">
    <path d="M 186.618537 269.212195 
L 192.620488 269.212195 
L 192.620488 248.580488 
L 186.618537 248.580488 
z
" clip-path="url(#p9ae2ebc56a)" style="fill: #9aa5b1; stroke: #9aa5b1; stroke-linejoin: miter"/>
   </g>
   <g id="patch_5">
    <path d="M 77.082927 231.7 
C 79.072597 231.7 80.981043 230.909496 82.387952 229.502586 
C 83.794862 228.095677 84.585366 226.187231 84.585366 224.197561 
C 84.585366 222.207891 83.794862 220.299445 82.387952 218.892535 
C 80.981043 217.485626 79.072597 216.695122 77.082927 216.695122 
C 75.093257 216.695122 73.184811 217.485626 71.777901 218.892535 
C 70.370992 220.299445 69.580488 222.207891 69.580488 224.197561 
C 69.580488 226.187231 70.370992 228.095677 71.777901 229.502586 
C 73.184811 230.909496 75.093257 231.7 77.082927 231.7 
z
" clip-path="url(#p9ae2ebc56a)" style="fill: #9aa0a6; fill-opacity: 0.3"/>
   </g>
   <g id="patch_6">
    <path d="M 95.839024 239.577561 
C 98.923013 239.577561 101.881105 238.352279 104.061814 236.17157 
C 106.242523 233.990861 107.467805 231.032769 107.467805 227.94878 
C 107.467805 224.864792 106.242523 221.9067 104.061814 219.725991 
C 101.881105 217.545282 98.923013 216.32 95.839024 216.32 
C 92.755036 216.32 89.796944 217.545282 87.616235 219.725991 
C 85.435526 221.9067 84.210244 224.864792 84.210244 227.94878 
C 84.210244 231.032769 85.435526 233.990861 87.616235 236.17157 
C 89.796944 238.352279 92.755036 239.577561 95.839024 239.577561 
z
" clip-path="url(#p9ae2ebc56a)" style="fill: #9aa0a6; fill-opacity: 0.3"/>
   </g>
   <g id="patch_7">
    <path d="M 78.554276 216.840814 
L 98.119616 216.545823 
L 93.558433 239.351738 
L 75.611577 231.554308 
z
" clip-path="url(#p9ae2ebc56a)" style="fill: #9aa0a6; fill-opacity: 0.3"/>
   </g>
   <g id="patch_8">
    <path d="M 95.839024 251.206341 
C 102.007002 251.206341 107.923185 248.755778 112.284603 244.39436 
C 116.646022 240.032941 119.096585 234.116758 119.096585 227.94878 
C 119.096585 221.780803 116.646022 215.86462 112.284603 211.503201 
C 107.923185 207.141783 102.007002 204.69122 95.839024 204.69122 
C 89.671047 204.69122 83.754864 207.141783 79.393445 211.503201 
C 75.032027 215.86462 72.581463 221.780803 72.581463 227.94878 
C 72.581463 234.116758 75.032027 240.032941 79.393445 244.39436 
C 83.754864 248.755778 89.671047 251.206341 95.839024 251.206341 
z
" clip-path="url(#p9ae2ebc56a)" style="fill: #9aa0a6; fill-opacity: 0.3"/>
   </g>
   <g id="patch_9">
    <path d="M 155.858537 248.95561 
C 160.434778 248.95561 164.824204 247.13745 168.060095 243.901559 
C 171.295986 240.665667 173.114146 236.276241 173.114146 231.7 
C 173.114146 227.123759 171.295986 222.734333 168.060095 219.498441 
C 164.824204 216.26255 160.434778 214.44439 155.858537 214.44439 
C 151.282295 214.44439 146.892869 216.26255 143.656978 219.498441 
C 140.421087 222.734333 138.602927 227.123759 138.602927 231.7 
C 138.602927 236.276241 140.421087 240.665667 143.656978 243.901559 
C 146.892869 247.13745 151.282295 248.95561 155.858537 248.95561 
z
" clip-path="url(#p9ae2ebc56a)" style="fill: #9aa0a6; fill-opacity: 0.3"/>
   </g>
   <g id="patch_10">
    <path d="M 97.289791 204.736512 
L 156.934912 214.477994 
L 154.782161 248.922006 
L 94.388258 251.161049 
z
" clip-path="url(#p9ae2ebc56a)" style="fill: #9aa0a6; fill-opacity: 0.3"/>
   </g>
   <g id="patch_11">
    <path d="M 155.858537 245.954634 
C 159.63891 245.954634 163.264958 244.452676 165.938085 241.779548 
C 168.611213 239.106421 170.113171 235.480373 170.113171 231.7 
C 170.113171 227.919627 168.611213 224.293579 165.938085 221.620452 
C 163.264958 218.947324 159.63891 217.445366 155.858537 217.445366 
C 152.078163 217.445366 148.452116 218.947324 145.778988 221.620452 
C 143.105861 224.293579 141.603902 227.919627 141.603902 231.7 
C 141.603902 235.480373 143.105861 239.106421 145.778988 241.779548 
C 148.452116 244.452676 152.078163 245.954634 155.858537 245.954634 
z
" clip-path="url(#p9ae2ebc56a)" style="fill: #9aa0a6; fill-opacity: 0.3"/>
   </g>
   <g id="patch_12">
    <path d="M 178.365854 265.273415 
C 180.8032 265.273415 183.141046 264.305047 184.86451 262.581583 
C 186.587974 260.858119 187.556341 258.520273 187.556341 256.082927 
C 187.556341 253.645581 186.587974 251.307734 184.86451 249.584271 
C 183.141046 247.860807 180.8032 246.892439 178.365854 246.892439 
C 175.928508 246.892439 173.590661 247.860807 171.867197 249.584271 
C 170.143734 251.307734 169.175366 253.645581 169.175366 256.082927 
C 169.175366 258.520273 170.143734 260.858119 171.867197 262.581583 
C 173.590661 264.305047 175.928508 265.273415 178.365854 265.273415 
z
" clip-path="url(#p9ae2ebc56a)" style="fill: #9aa0a6; fill-opacity: 0.3"/>
   </g>
   <g id="patch_13">
    <path d="M 166.332891 222.031365 
L 185.119056 249.849202 
L 171.612652 262.316652 
L 145.384182 241.368635 
z
" clip-path="url(#p9ae2ebc56a)" style="fill: #9aa0a6; fill-opacity: 0.3"/>
   </g>
   <g id="patch_14">
    <path d="M 178.365854 265.273415 
C 180.8032 265.273415 183.141046 264.305047 184.86451 262.581583 
C 186.587974 260.858119 187.556341 258.520273 187.556341 256.082927 
C 187.556341 253.645581 186.587974 251.307734 184.86451 249.584271 
C 183.141046 247.860807 180.8032 246.892439 178.365854 246.892439 
C 175.928508 246.892439 173.590661 247.860807 171.867197 249.584271 
C 170.143734 251.307734 169.175366 253.645581 169.175366 256.082927 
C 169.175366 258.520273 170.143734 260.858119 171.867197 262.581583 
C 173.590661 264.305047 175.928508 265.273415 178.365854 265.273415 
z
" clip-path="url(#p9ae2ebc56a)" style="fill: #9aa0a6; fill-opacity: 0.3"/>
   </g>
   <g id="patch_15">
    <path d="M 170.863415 292.282195 
C 172.504892 292.282195 174.079361 291.630029 175.240061 290.469329 
C 176.400761 289.308629 177.052927 287.734161 177.052927 286.092683 
C 177.052927 284.451205 176.400761 282.876737 175.240061 281.716037 
C 174.079361 280.555337 172.504892 279.903171 170.863415 279.903171 
C 169.221937 279.903171 167.647469 280.555337 166.486769 281.716037 
C 165.326068 282.876737 164.673902 284.451205 164.673902 286.092683 
C 164.673902 287.734161 165.326068 289.308629 166.486769 290.469329 
C 167.647469 291.630029 169.221937 292.282195 170.863415 292.282195 
z
" clip-path="url(#p9ae2ebc56a)" style="fill: #9aa0a6; fill-opacity: 0.3"/>
   </g>
   <g id="patch_16">
    <path d="M 187.281936 258.311948 
L 176.868123 287.59386 
L 164.858706 284.591506 
L 169.449771 253.853906 
z
" clip-path="url(#p9ae2ebc56a)" style="fill: #9aa0a6; fill-opacity: 0.3"/>
   </g>
   <g id="patch_17">
    <path d="M 170.863415 291.353768 
C 172.258671 291.353768 173.596969 290.799427 174.583564 289.812832 
C 175.570159 288.826237 176.1245 287.487939 176.1245 286.092683 
C 176.1245 284.697427 175.570159 283.359129 174.583564 282.372534 
C 173.596969 281.385939 172.258671 280.831598 170.863415 280.831598 
C 169.468158 280.831598 168.129861 281.385939 167.143265 282.372534 
C 166.15667 283.359129 165.602329 284.697427 165.602329 286.092683 
C 165.602329 287.487939 166.15667 288.826237 167.143265 289.812832 
C 168.129861 290.799427 169.468158 291.353768 170.863415 291.353768 
z
" clip-path="url(#p9ae2ebc56a)" style="fill: #9aa0a6; fill-opacity: 0.3"/>
   </g>
   <g id="patch_18">
    <path d="M 185.868293 289.496915 
C 186.771105 289.496915 187.637063 289.138223 188.275448 288.499838 
C 188.913833 287.861453 189.272524 286.995496 189.272524 286.092683 
C 189.272524 285.18987 188.913833 284.323913 188.275448 283.685528 
C 187.637063 283.047143 186.771105 282.688451 185.868293 282.688451 
C 184.96548 282.688451 184.099522 283.047143 183.461137 283.685528 
C 182.822752 284.323913 182.464061 285.18987 182.464061 286.092683 
C 182.464061 286.995496 182.822752 287.861453 183.461137 288.499838 
C 184.099522 289.138223 184.96548 289.496915 185.868293 289.496915 
z
" clip-path="url(#p9ae2ebc56a)" style="fill: #9aa0a6; fill-opacity: 0.3"/>
   </g>
   <g id="patch_19">
    <path d="M 170.863415 280.831598 
L 185.868293 282.688451 
L 185.868293 289.496915 
L 170.863415 291.353768 
z
" clip-path="url(#p9ae2ebc56a)" style="fill: #9aa0a6; fill-opacity: 0.3"/>
   </g>
   <g id="line2d_2">
    <path d="M 78.554276 216.840814 
L 98.119616 216.545823 
L 101.882121 218.013514 
L 104.915739 220.679544 
L 106.854571 224.222352 
L 107.464766 228.214622 
L 106.672725 232.174827 
L 104.573979 235.625309 
L 101.42167 238.149889 
L 97.596011 239.444064 
L 93.558433 239.351738 
L 75.611577 231.554308 
L 73.184155 230.60741 
L 71.226982 228.887391 
L 69.976123 226.601708 
L 69.582448 224.02605 
L 70.093443 221.471079 
L 71.447472 219.244962 
L 73.48122 217.616201 
L 75.949387 216.781249 
L 78.554276 216.840814 
L 78.554276 216.840814 
" clip-path="url(#p9ae2ebc56a)" style="fill: none; stroke: #7d8288; stroke-opacity: 0.85; stroke-width: 1.7; stroke-linecap: round"/>
   </g>
   <g id="line2d_3">
    <path d="M 97.289791 204.736512 
L 156.934912 214.477994 
L 162.760271 215.88475 
L 167.75318 219.199059 
L 171.311419 224.021166 
L 173.005812 229.769453 
L 172.631991 235.750593 
L 170.235043 241.243171 
L 166.104077 245.584703 
L 160.737347 248.251534 
L 154.782161 248.922006 
L 94.388258 251.161049 
L 86.536686 249.264987 
L 79.807114 244.797875 
L 75.011227 238.298514 
L 72.727479 230.550822 
L 73.231325 222.489286 
L 76.461993 215.086245 
L 82.029818 209.234616 
L 89.263236 205.640191 
L 97.289791 204.736512 
L 97.289791 204.736512 
" clip-path="url(#p9ae2ebc56a)" style="fill: none; stroke: #7d8288; stroke-opacity: 0.85; stroke-width: 1.7; stroke-linecap: round"/>
   </g>
   <g id="patch_20">
    <path d="M 95.839024 237.326829 
C 98.326112 237.326829 100.71167 236.338699 102.470306 234.580062 
C 104.228943 232.821426 105.217073 230.435868 105.217073 227.94878 
C 105.217073 225.461693 104.228943 223.076135 102.470306 221.317499 
C 100.71167 219.558862 98.326112 218.570732 95.839024 218.570732 
C 93.351937 218.570732 90.966379 219.558862 89.207743 221.317499 
C 87.449106 223.076135 86.460976 225.461693 86.460976 227.94878 
C 86.460976 230.435868 87.449106 232.821426 89.207743 234.580062 
C 90.966379 236.338699 93.351937 237.326829 95.839024 237.326829 
z
" clip-path="url(#p9ae2ebc56a)" style="fill: #9aa0a6; fill-opacity: 0.3"/>
   </g>
   <g id="patch_21">
    <path d="M 110.843902 214.256829 
C 112.684347 214.256829 114.44966 213.525613 115.751051 212.224222 
C 117.052442 210.922831 117.783659 209.157518 117.783659 207.317073 
C 117.783659 205.476628 117.052442 203.711316 115.751051 202.409925 
C 114.44966 201.108534 112.684347 200.377317 110.843902 200.377317 
C 109.003458 200.377317 107.238145 201.108534 105.936754 202.409925 
C 104.635363 203.711316 103.904146 205.476628 103.904146 207.317073 
C 103.904146 209.157518 104.635363 210.922831 105.936754 212.224222 
C 107.238145 213.525613 109.003458 214.256829 110.843902 214.256829 
z
" clip-path="url(#p9ae2ebc56a)" style="fill: #9aa0a6; fill-opacity: 0.3"/>
   </g>
   <g id="patch_22">
    <path d="M 88.254658 222.432878 
L 105.231471 203.235305 
L 116.456334 211.398841 
L 103.423391 233.464683 
z
" clip-path="url(#p9ae2ebc56a)" style="fill: #9aa0a6; fill-opacity: 0.3"/>
   </g>
   <g id="patch_23">
    <path d="M 110.843902 214.256829 
C 112.684347 214.256829 114.44966 213.525613 115.751051 212.224222 
C 117.052442 210.922831 117.783659 209.157518 117.783659 207.317073 
C 117.783659 205.476628 117.052442 203.711316 115.751051 202.409925 
C 114.44966 201.108534 112.684347 200.377317 110.843902 200.377317 
C 109.003458 200.377317 107.238145 201.108534 105.936754 202.409925 
C 104.635363 203.711316 103.904146 205.476628 103.904146 207.317073 
C 103.904146 209.157518 104.635363 210.922831 105.936754 212.224222 
C 107.238145 213.525613 109.003458 214.256829 110.843902 214.256829 
z
" clip-path="url(#p9ae2ebc56a)" style="fill: #9aa0a6; fill-opacity: 0.3"/>
   </g>
   <g id="patch_24">
    <path d="M 114.595122 186.872927 
C 116.137116 186.872927 117.616162 186.260286 118.706517 185.169931 
C 119.796871 184.079577 120.409512 182.600531 120.409512 181.058537 
C 120.409512 179.516542 119.796871 178.037496 118.706517 176.947142 
C 117.616162 175.856787 116.137116 175.244146 114.595122 175.244146 
C 113.053128 175.244146 111.574082 175.856787 110.483727 176.947142 
C 109.393373 178.037496 108.780732 179.516542 108.780732 181.058537 
C 108.780732 182.600531 109.393373 184.079577 110.483727 185.169931 
C 111.574082 186.260286 113.053128 186.872927 114.595122 186.872927 
z
" clip-path="url(#p9ae2ebc56a)" style="fill: #9aa0a6; fill-opacity: 0.3"/>
   </g>
   <g id="patch_25">
    <path d="M 103.973894 206.335643 
L 108.839169 180.236258 
L 120.351075 181.880816 
L 117.71391 208.298503 
z
" clip-path="url(#p9ae2ebc56a)" style="fill: #9aa0a6; fill-opacity: 0.3"/>
   </g>
   <g id="patch_26">
    <path d="M 170.863415 290.549132 
C 172.045279 290.549132 173.178896 290.079572 174.0146 289.243868 
C 174.850304 288.408164 175.319863 287.274547 175.319863 286.092683 
C 175.319863 284.910819 174.850304 283.777202 174.0146 282.941498 
C 173.178896 282.105794 172.045279 281.636234 170.863415 281.636234 
C 169.681551 281.636234 168.547934 282.105794 167.712229 282.941498 
C 166.876525 283.777202 166.406966 284.910819 166.406966 286.092683 
C 166.406966 287.274547 166.876525 288.408164 167.712229 289.243868 
C 168.547934 290.079572 169.681551 290.549132 170.863415 290.549132 
z
" clip-path="url(#p9ae2ebc56a)" style="fill: #9aa0a6; fill-opacity: 0.3; stroke: #7d8288; stroke-opacity: 0.85; stroke-width: 1.3; stroke-linejoin: miter"/>
   </g>
   <g id="patch_27">
    <path d="M 114.595122 187.248049 
C 116.2366 187.248049 117.811068 186.595883 118.971768 185.435183 
C 120.132468 184.274483 120.784634 182.700014 120.784634 181.058537 
C 120.784634 179.417059 120.132468 177.842591 118.971768 176.681891 
C 117.811068 175.52119 116.2366 174.869024 114.595122 174.869024 
C 112.953644 174.869024 111.379176 175.52119 110.218476 176.681891 
C 109.057776 177.842591 108.40561 179.417059 108.40561 181.058537 
C 108.40561 182.700014 109.057776 184.274483 110.218476 185.435183 
C 111.379176 186.595883 112.953644 187.248049 114.595122 187.248049 
z
" clip-path="url(#p9ae2ebc56a)" style="fill: #9aa0a6; fill-opacity: 0.3; stroke: #7d8288; stroke-opacity: 0.85; stroke-width: 1.6; stroke-linejoin: miter"/>
   </g>
   <g id="line2d_4">
    <path d="M 166.332891 222.031365 
L 185.119056 249.849202 
L 186.843847 252.534873 
L 187.546068 255.648491 
L 187.141019 258.814509 
L 185.677556 261.651058 
L 183.332193 263.816008 
L 180.387817 265.048234 
L 177.199562 265.199112 
L 174.151979 264.250443 
L 171.612652 262.316652 
L 145.384182 241.368635 
L 142.708995 237.203105 
L 141.619837 232.373819 
L 142.248076 227.46326 
L 144.517938 223.063716 
L 148.155643 219.705834 
L 152.72243 217.794626 
L 157.667479 217.560611 
L 162.394342 219.032015 
L 166.332891 222.031365 
L 166.332891 222.031365 
" clip-path="url(#p9ae2ebc56a)" style="fill: none; stroke: #7d8288; stroke-opacity: 0.85; stroke-width: 1.7; stroke-linecap: round"/>
   </g>
   <g id="line2d_5">
    <path d="M 187.281936 258.311948 
L 176.868123 287.59386 
L 175.992562 289.557059 
L 174.49835 291.102404 
L 172.565711 292.043502 
L 170.42775 292.266843 
L 168.342337 291.74549 
L 166.561003 290.542325 
L 165.298603 288.802467 
L 164.707401 286.735769 
L 164.858706 284.591506 
L 169.449771 253.853906 
L 170.749846 250.938853 
L 172.968525 248.64425 
L 175.838201 247.246862 
L 179.012749 246.915234 
L 182.109272 247.689365 
L 184.754284 249.475883 
L 186.628756 252.059308 
L 187.506601 255.128041 
L 187.281936 258.311948 
L 187.281936 258.311948 
" clip-path="url(#p9ae2ebc56a)" style="fill: none; stroke: #7d8288; stroke-opacity: 0.85; stroke-width: 1.7; stroke-linecap: round"/>
   </g>
   <g id="line2d_6">
    <path d="M 170.863415 280.831598 
L 185.868293 282.688451 
L 187.032608 282.893752 
L 188.056491 283.48489 
L 188.816444 284.390567 
L 189.220806 285.501544 
L 189.220806 286.683822 
L 188.816444 287.794799 
L 188.056491 288.700476 
L 187.032608 289.291614 
L 185.868293 289.496915 
L 170.863415 291.353768 
L 169.064017 291.036486 
L 167.481654 290.122908 
L 166.307181 288.723226 
L 165.682257 287.006261 
L 165.682257 285.179105 
L 166.307181 283.46214 
L 167.481654 282.062458 
L 169.064017 281.14888 
L 170.863415 280.831598 
L 170.863415 280.831598 
" clip-path="url(#p9ae2ebc56a)" style="fill: none; stroke: #7d8288; stroke-opacity: 0.85; stroke-width: 1.5; stroke-linecap: round"/>
   </g>
   <g id="line2d_7">
    <path d="M 88.254658 222.432878 
L 105.231471 203.235305 
L 106.965989 201.561901 
L 109.168241 200.582656 
L 111.572602 200.415681 
L 113.889071 201.081116 
L 115.838248 202.498699 
L 117.185033 204.497449 
L 117.766984 206.836288 
L 117.51391 209.233116 
L 116.456334 211.398841 
L 103.423391 233.464683 
L 101.079448 235.72604 
L 98.103432 237.049344 
L 94.854296 237.274986 
L 91.723932 236.37575 
L 89.089909 234.460097 
L 87.269929 231.759083 
L 86.483509 228.598491 
L 86.825501 225.359533 
L 88.254658 222.432878 
L 88.254658 222.432878 
" clip-path="url(#p9ae2ebc56a)" style="fill: none; stroke: #7d8288; stroke-opacity: 0.85; stroke-width: 1.7; stroke-linecap: round"/>
   </g>
   <g id="line2d_8">
    <path d="M 103.973894 206.335643 
L 108.839169 180.236258 
L 109.467532 178.317195 
L 110.714357 176.728779 
L 112.42926 175.662596 
L 114.405398 175.247243 
L 116.404419 175.532817 
L 118.185213 176.484875 
L 119.532988 177.988584 
L 120.285184 179.862574 
L 120.351075 181.880816 
L 117.71391 208.298503 
L 116.96393 210.588997 
L 115.475783 212.484848 
L 113.428963 213.75739 
L 111.070347 214.253134 
L 108.684418 213.912287 
L 106.558955 212.77596 
L 104.95032 210.98121 
L 104.052538 208.744512 
L 103.973894 206.335643 
L 103.973894 206.335643 
" clip-path="url(#p9ae2ebc56a)" style="fill: none; stroke: #7d8288; stroke-opacity: 0.85; stroke-width: 1.7; stroke-linecap: round"/>
   </g>
   <g id="patch_28">
    <path d="M 77.082927 239.202439 
C 81.062267 239.202439 84.879159 237.62143 87.692978 234.807612 
C 90.506796 231.993794 92.087805 228.176901 92.087805 224.197561 
C 92.087805 220.218221 90.506796 216.401328 87.692978 213.58751 
C 84.879159 210.773692 81.062267 209.192683 77.082927 209.192683 
C 73.103587 209.192683 69.286694 210.773692 66.472876 213.58751 
C 63.659057 216.401328 62.078049 220.218221 62.078049 224.197561 
C 62.078049 228.176901 63.659057 231.993794 66.472876 234.807612 
C 69.286694 237.62143 73.103587 239.202439 77.082927 239.202439 
z
" clip-path="url(#p9ae2ebc56a)" style="fill: #9aa0a6; fill-opacity: 0.3; stroke: #7d8288; stroke-opacity: 0.85; stroke-width: 1.8; stroke-linejoin: miter"/>
   </g>
   <g id="patch_29">
    <path d="M 77.082927 231.7 
C 79.072597 231.7 80.981043 230.909496 82.387952 229.502586 
C 83.794862 228.095677 84.585366 226.187231 84.585366 224.197561 
C 84.585366 222.207891 83.794862 220.299445 82.387952 218.892535 
C 80.981043 217.485626 79.072597 216.695122 77.082927 216.695122 
C 75.093257 216.695122 73.184811 217.485626 71.777901 218.892535 
C 70.370992 220.299445 69.580488 222.207891 69.580488 224.197561 
C 69.580488 226.187231 70.370992 228.095677 71.777901 229.502586 
C 73.184811 230.909496 75.093257 231.7 77.082927 231.7 
z
" clip-path="url(#p9ae2ebc56a)" style="fill: #2c3e50"/>
   </g>
   <g id="patch_30">
    <path d="M 95.839024 239.577561 
C 98.923013 239.577561 101.881105 238.352279 104.061814 236.17157 
C 106.242523 233.990861 107.467805 231.032769 107.467805 227.94878 
C 107.467805 224.864792 106.242523 221.9067 104.061814 219.725991 
C 101.881105 217.545282 98.923013 216.32 95.839024 216.32 
C 92.755036 216.32 89.796944 217.545282 87.616235 219.725991 
C 85.435526 221.9067 84.210244 224.864792 84.210244 227.94878 
C 84.210244 231.032769 85.435526 233.990861 87.616235 236.17157 
C 89.796944 238.352279 92.755036 239.577561 95.839024 239.577561 
z
" clip-path="url(#p9ae2ebc56a)" style="fill: #2c3e50"/>
   </g>
   <g id="patch_31">
    <path d="M 78.554276 216.840814 
L 98.119616 216.545823 
L 93.558433 239.351738 
L 75.611577 231.554308 
z
" clip-path="url(#p9ae2ebc56a)" style="fill: #2c3e50"/>
   </g>
   <g id="patch_32">
    <path d="M 95.839024 251.206341 
C 102.007002 251.206341 107.923185 248.755778 112.284603 244.39436 
C 116.646022 240.032941 119.096585 234.116758 119.096585 227.94878 
C 119.096585 221.780803 116.646022 215.86462 112.284603 211.503201 
C 107.923185 207.141783 102.007002 204.69122 95.839024 204.69122 
C 89.671047 204.69122 83.754864 207.141783 79.393445 211.503201 
C 75.032027 215.86462 72.581463 221.780803 72.581463 227.94878 
C 72.581463 234.116758 75.032027 240.032941 79.393445 244.39436 
C 83.754864 248.755778 89.671047 251.206341 95.839024 251.206341 
z
" clip-path="url(#p9ae2ebc56a)" style="fill: #2c3e50"/>
   </g>
   <g id="patch_33">
    <path d="M 155.858537 248.95561 
C 160.434778 248.95561 164.824204 247.13745 168.060095 243.901559 
C 171.295986 240.665667 173.114146 236.276241 173.114146 231.7 
C 173.114146 227.123759 171.295986 222.734333 168.060095 219.498441 
C 164.824204 216.26255 160.434778 214.44439 155.858537 214.44439 
C 151.282295 214.44439 146.892869 216.26255 143.656978 219.498441 
C 140.421087 222.734333 138.602927 227.123759 138.602927 231.7 
C 138.602927 236.276241 140.421087 240.665667 143.656978 243.901559 
C 146.892869 247.13745 151.282295 248.95561 155.858537 248.95561 
z
" clip-path="url(#p9ae2ebc56a)" style="fill: #2c3e50"/>
   </g>
   <g id="patch_34">
    <path d="M 97.289791 204.736512 
L 156.934912 214.477994 
L 154.782161 248.922006 
L 94.388258 251.161049 
z
" clip-path="url(#p9ae2ebc56a)" style="fill: #2c3e50"/>
   </g>
   <g id="patch_35">
    <path d="M 155.858537 245.954634 
C 159.63891 245.954634 163.264958 244.452676 165.938085 241.779548 
C 168.611213 239.106421 170.113171 235.480373 170.113171 231.7 
C 170.113171 227.919627 168.611213 224.293579 165.938085 221.620452 
C 163.264958 218.947324 159.63891 217.445366 155.858537 217.445366 
C 152.078163 217.445366 148.452116 218.947324 145.778988 221.620452 
C 143.105861 224.293579 141.603902 227.919627 141.603902 231.7 
C 141.603902 235.480373 143.105861 239.106421 145.778988 241.779548 
C 148.452116 244.452676 152.078163 245.954634 155.858537 245.954634 
z
" clip-path="url(#p9ae2ebc56a)" style="fill: #3c3f42"/>
   </g>
   <g id="patch_36">
    <path d="M 178.365854 265.273415 
C 180.8032 265.273415 183.141046 264.305047 184.86451 262.581583 
C 186.587974 260.858119 187.556341 258.520273 187.556341 256.082927 
C 187.556341 253.645581 186.587974 251.307734 184.86451 249.584271 
C 183.141046 247.860807 180.8032 246.892439 178.365854 246.892439 
C 175.928508 246.892439 173.590661 247.860807 171.867197 249.584271 
C 170.143734 251.307734 169.175366 253.645581 169.175366 256.082927 
C 169.175366 258.520273 170.143734 260.858119 171.867197 262.581583 
C 173.590661 264.305047 175.928508 265.273415 178.365854 265.273415 
z
" clip-path="url(#p9ae2ebc56a)" style="fill: #3c3f42"/>
   </g>
   <g id="patch_37">
    <path d="M 166.332891 222.031365 
L 185.119056 249.849202 
L 171.612652 262.316652 
L 145.384182 241.368635 
z
" clip-path="url(#p9ae2ebc56a)" style="fill: #3c3f42"/>
   </g>
   <g id="patch_38">
    <path d="M 178.365854 265.273415 
C 180.8032 265.273415 183.141046 264.305047 184.86451 262.581583 
C 186.587974 260.858119 187.556341 258.520273 187.556341 256.082927 
C 187.556341 253.645581 186.587974 251.307734 184.86451 249.584271 
C 183.141046 247.860807 180.8032 246.892439 178.365854 246.892439 
C 175.928508 246.892439 173.590661 247.860807 171.867197 249.584271 
C 170.143734 251.307734 169.175366 253.645581 169.175366 256.082927 
C 169.175366 258.520273 170.143734 260.858119 171.867197 262.581583 
C 173.590661 264.305047 175.928508 265.273415 178.365854 265.273415 
z
" clip-path="url(#p9ae2ebc56a)" style="fill: #3c3f42"/>
   </g>
   <g id="patch_39">
    <path d="M 170.863415 292.282195 
C 172.504892 292.282195 174.079361 291.630029 175.240061 290.469329 
C 176.400761 289.308629 177.052927 287.734161 177.052927 286.092683 
C 177.052927 284.451205 176.400761 282.876737 175.240061 281.716037 
C 174.079361 280.555337 172.504892 279.903171 170.863415 279.903171 
C 169.221937 279.903171 167.647469 280.555337 166.486769 281.716037 
C 165.326068 282.876737 164.673902 284.451205 164.673902 286.092683 
C 164.673902 287.734161 165.326068 289.308629 166.486769 290.469329 
C 167.647469 291.630029 169.221937 292.282195 170.863415 292.282195 
z
" clip-path="url(#p9ae2ebc56a)" style="fill: #3c3f42"/>
   </g>
   <g id="patch_40">
    <path d="M 187.281936 258.311948 
L 176.868123 287.59386 
L 164.858706 284.591506 
L 169.449771 253.853906 
z
" clip-path="url(#p9ae2ebc56a)" style="fill: #3c3f42"/>
   </g>
   <g id="patch_41">
    <path d="M 170.863415 291.353768 
C 172.258671 291.353768 173.596969 290.799427 174.583564 289.812832 
C 175.570159 288.826237 176.1245 287.487939 176.1245 286.092683 
C 176.1245 284.697427 175.570159 283.359129 174.583564 282.372534 
C 173.596969 281.385939 172.258671 280.831598 170.863415 280.831598 
C 169.468158 280.831598 168.129861 281.385939 167.143265 282.372534 
C 166.15667 283.359129 165.602329 284.697427 165.602329 286.092683 
C 165.602329 287.487939 166.15667 288.826237 167.143265 289.812832 
C 168.129861 290.799427 169.468158 291.353768 170.863415 291.353768 
z
" clip-path="url(#p9ae2ebc56a)" style="fill: #1b1b1b"/>
   </g>
   <g id="patch_42">
    <path d="M 185.868293 289.496915 
C 186.771105 289.496915 187.637063 289.138223 188.275448 288.499838 
C 188.913833 287.861453 189.272524 286.995496 189.272524 286.092683 
C 189.272524 285.18987 188.913833 284.323913 188.275448 283.685528 
C 187.637063 283.047143 186.771105 282.688451 185.868293 282.688451 
C 184.96548 282.688451 184.099522 283.047143 183.461137 283.685528 
C 182.822752 284.323913 182.464061 285.18987 182.464061 286.092683 
C 182.464061 286.995496 182.822752 287.861453 183.461137 288.499838 
C 184.099522 289.138223 184.96548 289.496915 185.868293 289.496915 
z
" clip-path="url(#p9ae2ebc56a)" style="fill: #1b1b1b"/>
   </g>
   <g id="patch_43">
    <path d="M 170.863415 280.831598 
L 185.868293 282.688451 
L 185.868293 289.496915 
L 170.863415 291.353768 
z
" clip-path="url(#p9ae2ebc56a)" style="fill: #1b1b1b"/>
   </g>
   <g id="line2d_9">
    <path d="M 78.554276 216.840814 
L 98.119616 216.545823 
L 101.882121 218.013514 
L 104.915739 220.679544 
L 106.854571 224.222352 
L 107.464766 228.214622 
L 106.672725 232.174827 
L 104.573979 235.625309 
L 101.42167 238.149889 
L 97.596011 239.444064 
L 93.558433 239.351738 
L 75.611577 231.554308 
L 73.184155 230.60741 
L 71.226982 228.887391 
L 69.976123 226.601708 
L 69.582448 224.02605 
L 70.093443 221.471079 
L 71.447472 219.244962 
L 73.48122 217.616201 
L 75.949387 216.781249 
L 78.554276 216.840814 
L 78.554276 216.840814 
" clip-path="url(#p9ae2ebc56a)" style="fill: none; stroke: #1d2a36; stroke-width: 1.7; stroke-linecap: round"/>
   </g>
   <g id="line2d_10">
    <path d="M 97.289791 204.736512 
L 156.934912 214.477994 
L 162.760271 215.88475 
L 167.75318 219.199059 
L 171.311419 224.021166 
L 173.005812 229.769453 
L 172.631991 235.750593 
L 170.235043 241.243171 
L 166.104077 245.584703 
L 160.737347 248.251534 
L 154.782161 248.922006 
L 94.388258 251.161049 
L 86.536686 249.264987 
L 79.807114 244.797875 
L 75.011227 238.298514 
L 72.727479 230.550822 
L 73.231325 222.489286 
L 76.461993 215.086245 
L 82.029818 209.234616 
L 89.263236 205.640191 
L 97.289791 204.736512 
L 97.289791 204.736512 
" clip-path="url(#p9ae2ebc56a)" style="fill: none; stroke: #1d2a36; stroke-width: 1.7; stroke-linecap: round"/>
   </g>
   <g id="patch_44">
    <path d="M 95.839024 237.326829 
C 98.326112 237.326829 100.71167 236.338699 102.470306 234.580062 
C 104.228943 232.821426 105.217073 230.435868 105.217073 227.94878 
C 105.217073 225.461693 104.228943 223.076135 102.470306 221.317499 
C 100.71167 219.558862 98.326112 218.570732 95.839024 218.570732 
C 93.351937 218.570732 90.966379 219.558862 89.207743 221.317499 
C 87.449106 223.076135 86.460976 225.461693 86.460976 227.94878 
C 86.460976 230.435868 87.449106 232.821426 89.207743 234.580062 
C 90.966379 236.338699 93.351937 237.326829 95.839024 237.326829 
z
" clip-path="url(#p9ae2ebc56a)" style="fill: #2c3e50"/>
   </g>
   <g id="patch_45">
    <path d="M 107.092683 208.63 
C 108.933128 208.63 110.698441 207.898784 111.999832 206.597392 
C 113.301223 205.296001 114.032439 203.530689 114.032439 201.690244 
C 114.032439 199.849799 113.301223 198.084486 111.999832 196.783095 
C 110.698441 195.481704 108.933128 194.750488 107.092683 194.750488 
C 105.252238 194.750488 103.486925 195.481704 102.185534 196.783095 
C 100.884143 198.084486 100.152927 199.849799 100.152927 201.690244 
C 100.152927 203.530689 100.884143 205.296001 102.185534 206.597392 
C 103.486925 207.898784 105.252238 208.63 107.092683 208.63 
z
" clip-path="url(#p9ae2ebc56a)" style="fill: #2c3e50"/>
   </g>
   <g id="patch_46">
    <path d="M 87.219237 224.254586 
L 100.714041 198.95654 
L 113.471325 204.423948 
L 104.458811 231.642975 
z
" clip-path="url(#p9ae2ebc56a)" style="fill: #2c3e50"/>
   </g>
   <g id="patch_47">
    <path d="M 107.092683 208.63 
C 108.933128 208.63 110.698441 207.898784 111.999832 206.597392 
C 113.301223 205.296001 114.032439 203.530689 114.032439 201.690244 
C 114.032439 199.849799 113.301223 198.084486 111.999832 196.783095 
C 110.698441 195.481704 108.933128 194.750488 107.092683 194.750488 
C 105.252238 194.750488 103.486925 195.481704 102.185534 196.783095 
C 100.884143 198.084486 100.152927 199.849799 100.152927 201.690244 
C 100.152927 203.530689 100.884143 205.296001 102.185534 206.597392 
C 103.486925 207.898784 105.252238 208.63 107.092683 208.63 
z
" clip-path="url(#p9ae2ebc56a)" style="fill: #2c3e50"/>
   </g>
   <g id="patch_48">
    <path d="M 112.719512 175.619268 
C 114.261507 175.619268 115.740552 175.006627 116.830907 173.916273 
C 117.921262 172.825918 118.533902 171.346872 118.533902 169.804878 
C 118.533902 168.262884 117.921262 166.783838 116.830907 165.693483 
C 115.740552 164.603129 114.261507 163.990488 112.719512 163.990488 
C 111.177518 163.990488 109.698472 164.603129 108.608117 165.693483 
C 107.517763 166.783838 106.905122 168.262884 106.905122 169.804878 
C 106.905122 171.346872 107.517763 172.825918 108.608117 173.916273 
C 109.698472 175.006627 111.177518 175.619268 112.719512 175.619268 
z
" clip-path="url(#p9ae2ebc56a)" style="fill: #2c3e50"/>
   </g>
   <g id="patch_49">
    <path d="M 100.258525 200.484216 
L 106.993596 168.794422 
L 118.445428 170.815334 
L 113.926841 202.896272 
z
" clip-path="url(#p9ae2ebc56a)" style="fill: #2c3e50"/>
   </g>
   <g id="patch_50">
    <path d="M 170.863415 290.549132 
C 172.045279 290.549132 173.178896 290.079572 174.0146 289.243868 
C 174.850304 288.408164 175.319863 287.274547 175.319863 286.092683 
C 175.319863 284.910819 174.850304 283.777202 174.0146 282.941498 
C 173.178896 282.105794 172.045279 281.636234 170.863415 281.636234 
C 169.681551 281.636234 168.547934 282.105794 167.712229 282.941498 
C 166.876525 283.777202 166.406966 284.910819 166.406966 286.092683 
C 166.406966 287.274547 166.876525 288.408164 167.712229 289.243868 
C 168.547934 290.079572 169.681551 290.549132 170.863415 290.549132 
z
" clip-path="url(#p9ae2ebc56a)" style="fill: #1b1b1b; stroke: #121212; stroke-width: 1.3; stroke-linejoin: miter"/>
   </g>
   <g id="patch_51">
    <path d="M 112.719512 175.99439 
C 114.36099 175.99439 115.935458 175.342224 117.096158 174.181524 
C 118.256858 173.020824 118.909024 171.446356 118.909024 169.804878 
C 118.909024 168.1634 118.256858 166.588932 117.096158 165.428232 
C 115.935458 164.267532 114.36099 163.615366 112.719512 163.615366 
C 111.078034 163.615366 109.503566 164.267532 108.342866 165.428232 
C 107.182166 166.588932 106.53 168.1634 106.53 169.804878 
C 106.53 171.446356 107.182166 173.020824 108.342866 174.181524 
C 109.503566 175.342224 111.078034 175.99439 112.719512 175.99439 
z
" clip-path="url(#p9ae2ebc56a)" style="fill: #f2e0c9; stroke: #a49888; stroke-width: 1.6; stroke-linejoin: miter"/>
   </g>
   <g id="line2d_11">
    <path d="M 166.332891 222.031365 
L 185.119056 249.849202 
L 186.843847 252.534873 
L 187.546068 255.648491 
L 187.141019 258.814509 
L 185.677556 261.651058 
L 183.332193 263.816008 
L 180.387817 265.048234 
L 177.199562 265.199112 
L 174.151979 264.250443 
L 171.612652 262.316652 
L 145.384182 241.368635 
L 142.708995 237.203105 
L 141.619837 232.373819 
L 142.248076 227.46326 
L 144.517938 223.063716 
L 148.155643 219.705834 
L 152.72243 217.794626 
L 157.667479 217.560611 
L 162.394342 219.032015 
L 166.332891 222.031365 
L 166.332891 222.031365 
" clip-path="url(#p9ae2ebc56a)" style="fill: none; stroke: #282a2c; stroke-width: 1.7; stroke-linecap: round"/>
   </g>
   <g id="line2d_12">
    <path d="M 187.281936 258.311948 
L 176.868123 287.59386 
L 175.992562 289.557059 
L 174.49835 291.102404 
L 172.565711 292.043502 
L 170.42775 292.266843 
L 168.342337 291.74549 
L 166.561003 290.542325 
L 165.298603 288.802467 
L 164.707401 286.735769 
L 164.858706 284.591506 
L 169.449771 253.853906 
L 170.749846 250.938853 
L 172.968525 248.64425 
L 175.838201 247.246862 
L 179.012749 246.915234 
L 182.109272 247.689365 
L 184.754284 249.475883 
L 186.628756 252.059308 
L 187.506601 255.128041 
L 187.281936 258.311948 
L 187.281936 258.311948 
" clip-path="url(#p9ae2ebc56a)" style="fill: none; stroke: #282a2c; stroke-width: 1.7; stroke-linecap: round"/>
   </g>
   <g id="line2d_13">
    <path d="M 170.863415 280.831598 
L 185.868293 282.688451 
L 187.032608 282.893752 
L 188.056491 283.48489 
L 188.816444 284.390567 
L 189.220806 285.501544 
L 189.220806 286.683822 
L 188.816444 287.794799 
L 188.056491 288.700476 
L 187.032608 289.291614 
L 185.868293 289.496915 
L 170.863415 291.353768 
L 169.064017 291.036486 
L 167.481654 290.122908 
L 166.307181 288.723226 
L 165.682257 287.006261 
L 165.682257 285.179105 
L 166.307181 283.46214 
L 167.481654 282.062458 
L 169.064017 281.14888 
L 170.863415 280.831598 
L 170.863415 280.831598 
" clip-path="url(#p9ae2ebc56a)" style="fill: none; stroke: #121212; stroke-width: 1.5; stroke-linecap: round"/>
   </g>
   <g id="line2d_14">
    <path d="M 87.219237 224.254586 
L 100.714041 198.95654 
L 102.033702 196.939778 
L 103.96355 195.495993 
L 106.270819 194.799326 
L 108.677216 194.933805 
L 110.892495 195.88321 
L 112.649461 197.53303 
L 113.736197 199.68427 
L 114.021628 202.077461 
L 113.471325 204.423948 
L 104.458811 231.642975 
L 102.675486 234.368328 
L 100.067582 236.31939 
L 96.949652 237.260832 
L 93.697763 237.079104 
L 90.704143 235.796123 
L 88.329865 233.566638 
L 86.861302 230.659556 
L 86.475585 227.425514 
L 87.219237 224.254586 
L 87.219237 224.254586 
" clip-path="url(#p9ae2ebc56a)" style="fill: none; stroke: #1d2a36; stroke-width: 1.7; stroke-linecap: round"/>
   </g>
   <g id="line2d_15">
    <path d="M 100.258525 200.484216 
L 106.993596 168.794422 
L 107.684507 166.896982 
L 108.982715 165.350276 
L 110.731635 164.340862 
L 112.720322 163.990488 
L 114.708912 164.341415 
L 116.457551 165.351317 
L 117.755327 166.898384 
L 118.445709 168.796017 
L 118.445428 170.815334 
L 113.926841 202.896272 
L 113.102205 205.160959 
L 111.552732 207.007027 
L 109.465311 208.211812 
L 107.091716 208.63 
L 104.718238 208.211151 
L 102.631153 207.005784 
L 101.082195 205.159285 
L 100.25819 202.894368 
L 100.258525 200.484216 
L 100.258525 200.484216 
" clip-path="url(#p9ae2ebc56a)" style="fill: none; stroke: #1d2a36; stroke-width: 1.7; stroke-linecap: round"/>
   </g>
   <g id="patch_52">
    <path d="M 77.082927 239.202439 
C 81.062267 239.202439 84.879159 237.62143 87.692978 234.807612 
C 90.506796 231.993794 92.087805 228.176901 92.087805 224.197561 
C 92.087805 220.218221 90.506796 216.401328 87.692978 213.58751 
C 84.879159 210.773692 81.062267 209.192683 77.082927 209.192683 
C 73.103587 209.192683 69.286694 210.773692 66.472876 213.58751 
C 63.659057 216.401328 62.078049 220.218221 62.078049 224.197561 
C 62.078049 228.176901 63.659057 231.993794 66.472876 234.807612 
C 69.286694 237.62143 73.103587 239.202439 77.082927 239.202439 
z
" clip-path="url(#p9ae2ebc56a)" style="fill: #f2e0c9; stroke: #a49888; stroke-width: 1.8; stroke-linejoin: miter"/>
   </g>
   <g id="line2d_16">
    <path d="M 95.839024 169.804878 
L 129.6 169.804878 
" clip-path="url(#p9ae2ebc56a)" style="fill: none; stroke: #5b6b73; stroke-width: 5; stroke-linecap: round"/>
   </g>
   <g id="patch_53">
    <path d="M 95.839024 174.531415 
C 97.092517 174.531415 98.294838 174.033397 99.18119 173.147044 
C 100.067543 172.260691 100.565561 171.05837 100.565561 169.804878 
C 100.565561 168.551386 100.067543 167.349065 99.18119 166.462712 
C 98.294838 165.576359 97.092517 165.078341 95.839024 165.078341 
C 94.585532 165.078341 93.383211 165.576359 92.496858 166.462712 
C 91.610506 167.349065 91.112488 168.551386 91.112488 169.804878 
C 91.112488 171.05837 91.610506 172.260691 92.496858 173.147044 
C 93.383211 174.033397 94.585532 174.531415 95.839024 174.531415 
z
" clip-path="url(#p9ae2ebc56a)" style="fill: #5b6b73; stroke: #5b6b73; stroke-linejoin: miter"/>
   </g>
   <g id="patch_54">
    <path d="M 129.6 174.531415 
C 130.853492 174.531415 132.055813 174.033397 132.942166 173.147044 
C 133.828519 172.260691 134.326537 171.05837 134.326537 169.804878 
C 134.326537 168.551386 133.828519 167.349065 132.942166 166.462712 
C 132.055813 165.576359 130.853492 165.078341 129.6 165.078341 
C 128.346508 165.078341 127.144187 165.576359 126.257834 166.462712 
C 125.371481 167.349065 124.873463 168.551386 124.873463 169.804878 
C 124.873463 171.05837 125.371481 172.260691 126.257834 173.147044 
C 127.144187 174.033397 128.346508 174.531415 129.6 174.531415 
z
" clip-path="url(#p9ae2ebc56a)" style="fill: #5b6b73; stroke: #5b6b73; stroke-linejoin: miter"/>
   </g>
   <g id="line2d_17">
    <path d="M 97.714634 181.058537 
L 131.47561 181.058537 
" clip-path="url(#p9ae2ebc56a)" style="fill: none; stroke: #5b6b73; stroke-width: 5; stroke-linecap: round"/>
   </g>
   <g id="patch_55">
    <path d="M 97.714634 185.785073 
C 98.968126 185.785073 100.170447 185.287055 101.0568 184.400703 
C 101.943153 183.51435 102.441171 182.312029 102.441171 181.058537 
C 102.441171 179.805044 101.943153 178.602723 101.0568 177.716371 
C 100.170447 176.830018 98.968126 176.332 97.714634 176.332 
C 96.461142 176.332 95.258821 176.830018 94.372468 177.716371 
C 93.486115 178.602723 92.988098 179.805044 92.988098 181.058537 
C 92.988098 182.312029 93.486115 183.51435 94.372468 184.400703 
C 95.258821 185.287055 96.461142 185.785073 97.714634 185.785073 
z
" clip-path="url(#p9ae2ebc56a)" style="fill: #5b6b73; stroke: #5b6b73; stroke-linejoin: miter"/>
   </g>
   <g id="patch_56">
    <path d="M 131.47561 185.785073 
C 132.729102 185.785073 133.931423 185.287055 134.817776 184.400703 
C 135.704129 183.51435 136.202146 182.312029 136.202146 181.058537 
C 136.202146 179.805044 135.704129 178.602723 134.817776 177.716371 
C 133.931423 176.830018 132.729102 176.332 131.47561 176.332 
C 130.222118 176.332 129.019796 176.830018 128.133444 177.716371 
C 127.247091 178.602723 126.749073 179.805044 126.749073 181.058537 
C 126.749073 182.312029 127.247091 183.51435 128.133444 184.400703 
C 129.019796 185.287055 130.222118 185.785073 131.47561 185.785073 
z
" clip-path="url(#p9ae2ebc56a)" style="fill: #5b6b73; stroke: #5b6b73; stroke-linejoin: miter"/>
   </g>
   <g id="patch_57">
    <path d="M 113.948307 179.164269 
Q 112.854304 175.566226 112.808556 174.266043 
" clip-path="url(#p9ae2ebc56a)" style="fill: none; stroke-dasharray: 2.2,0; stroke-dashoffset: 0; stroke: #c0392b; stroke-width: 2.2; stroke-linecap: round"/>
    <path d="M 110.207206 179.961038 
L 112.808556 174.266043 
L 115.803743 179.76412 
z
" clip-path="url(#p9ae2ebc56a)" style="fill: #c0392b; stroke-dasharray: 2.2,0; stroke-dashoffset: 0; stroke: #c0392b; stroke-width: 2.2; stroke-linecap: round"/>
   </g>
  </g>
 </g>
 <defs>
  <clipPath id="p9ae2ebc56a">
   <rect x="5.809756" y="1" width="247.580488" height="307.6"/>
  </clipPath>
 </defs>
</svg>
