<?xml version="1.0" encoding="utf-8" standalone="no"?>
<!DOCTYPE svg PUBLIC "-//W3C//DTD SVG 1.1//EN"
  "http://www.w3.org/Graphics/SVG/1.1/DTD/svg11.dtd">
<svg xmlns:xlink="http://www.w3.org/1999/xlink" width="259.2pt" height="309.6pt" viewBox="0 0 259.2 309.6" xmlns="http://www.w3.org/2000/svg" version="1.1">
 <metadata>
  <rdf:RDF xmlns:dc="http://purl.org/dc/elements/1.1/" xmlns:cc="http://creativecommons.org/ns#" xmlns:rdf="http://www.w3.org/1999/02/22-rdf-syntax-ns#">
   <cc:Work>
    <dc:type rdf:resource="http://purl.org/dc/dcmitype/StillImage"/>
    <dc:date>2026-07-10T23:04:56.890412</dc:date>
    <dc:format>image/svg+xml</dc:format>
    <dc:creator>
     <cc:Agent>
      <dc:title>Matplotlib v3.10.8, https://matplotlib.org/</dc:title>
     </cc:Agent>
    </dc:creator>
   </cc:Work>
  </rdf:RDF>
 </metadata>
 <defs>
  <style type="text/css">*{stroke-linejoin: round; stroke-linecap: butt}</style>
 </defs>
 <g id="figure_1">
  <g id="patch_1">
   <path d="M 0 309.6 
L 259.2 309.6 
L 259.2 0 
L 0 0 
L 0 309.6 
z
" style="fill: none"/>
  </g>
  <g id="axes_1">
   <g id="line2d_1">
    <path d="M 17.063415 289.843902 
L 242.136585 289.843902 
" clip-path="url(#pc3e1573229)" style="fill: none; stroke: #c3c3c3; stroke-width: 3; stroke-linecap: round"/>
   </g>
   <g id="patch_2">
    <path d="M 58.326829 274.839024 
C 60.316499 274.839024 62.224946 274.04852 63.631855 272.641611 
C 65.038764 271.234702 65.829268 269.326255 65.829268 267.336585 
C 65.829268 265.346915 65.038764 263.438469 63.631855 262.03156 
C 62.224946 260.624651 60.316499 259.834146 58.326829 259.834146 
C 56.337159 259.834146 54.428713 260.624651 53.021804 262.03156 
C 51.614895 263.438469 50.82439 265.346915 50.82439 267.336585 
C 50.82439 269.326255 51.614895 271.234702 53.021804 272.641611 
C 54.428713 274.04852 56.337159 274.839024 58.326829 274.839024 
z
" clip-path="url(#pc3e1573229)" style="fill: #9aa0a6; fill-opacity: 0.3"/>
   </g>
   <g id="patch_3">
    <path d="M 75.207317 278.965366 
C 78.291306 278.965366 81.249397 277.740084 83.430107 275.559375 
C 85.610816 273.378666 86.836098 270.420574 86.836098 267.336585 
C 86.836098 264.252597 85.610816 261.294505 83.430107 259.113796 
C 81.249397 256.933087 78.291306 255.707805 75.207317 255.707805 
C 72.123328 255.707805 69.165237 256.933087 66.984528 259.113796 
C 64.803818 261.294505 63.578537 264.252597 63.578537 267.336585 
C 63.578537 270.420574 64.803818 273.378666 66.984528 275.559375 
C 69.165237 277.740084 72.123328 278.965366 75.207317 278.965366 
z
" clip-path="url(#pc3e1573229)" style="fill: #9aa0a6; fill-opacity: 0.3"/>
   </g>
   <g id="patch_4">
    <path d="M 58.326829 259.834146 
L 75.207317 255.707805 
L 75.207317 278.965366 
L 58.326829 274.839024 
z
" clip-path="url(#pc3e1573229)" style="fill: #9aa0a6; fill-opacity: 0.3"/>
   </g>
   <g id="patch_5">
    <path d="M 75.207317 290.594146 
C 81.375294 290.594146 87.291478 288.143583 91.652896 283.782164 
C 96.014315 279.420746 98.464878 273.504563 98.464878 267.336585 
C 98.464878 261.168608 96.014315 255.252425 91.652896 250.891006 
C 87.291478 246.529588 81.375294 244.079024 75.207317 244.079024 
C 69.03934 244.079024 63.123157 246.529588 58.761738 250.891006 
C 54.400319 255.252425 51.949756 261.168608 51.949756 267.336585 
C 51.949756 273.504563 54.400319 279.420746 58.761738 283.782164 
C 63.123157 288.143583 69.03934 290.594146 75.207317 290.594146 
z
" clip-path="url(#pc3e1573229)" style="fill: #9aa0a6; fill-opacity: 0.3"/>
   </g>
   <g id="patch_6">
    <path d="M 129.6 284.592195 
C 134.176241 284.592195 138.565667 282.774035 141.801559 279.538144 
C 145.03745 276.302253 146.85561 271.912827 146.85561 267.336585 
C 146.85561 262.760344 145.03745 258.370918 141.801559 255.135027 
C 138.565667 251.899136 134.176241 250.080976 129.6 250.080976 
C 125.023759 250.080976 120.634333 251.899136 117.398441 255.135027 
C 114.16255 258.370918 112.34439 262.760344 112.34439 267.336585 
C 112.34439 271.912827 114.16255 276.302253 117.398441 279.538144 
C 120.634333 282.774035 125.023759 284.592195 129.6 284.592195 
z
" clip-path="url(#pc3e1573229)" style="fill: #9aa0a6; fill-opacity: 0.3"/>
   </g>
   <g id="patch_7">
    <path d="M 75.207317 244.079024 
L 129.6 250.080976 
L 129.6 284.592195 
L 75.207317 290.594146 
z
" clip-path="url(#pc3e1573229)" style="fill: #9aa0a6; fill-opacity: 0.3"/>
   </g>
   <g id="patch_8">
    <path d="M 129.6 281.59122 
C 133.380373 281.59122 137.006421 280.089261 139.679548 277.416134 
C 142.352676 274.743006 143.854634 271.116959 143.854634 267.336585 
C 143.854634 263.556212 142.352676 259.930164 139.679548 257.257037 
C 137.006421 254.583909 133.380373 253.081951 129.6 253.081951 
C 125.819627 253.081951 122.193579 254.583909 119.520452 257.257037 
C 116.847324 259.930164 115.345366 263.556212 115.345366 267.336585 
C 115.345366 271.116959 116.847324 274.743006 119.520452 277.416134 
C 122.193579 280.089261 125.819627 281.59122 129.6 281.59122 
z
" clip-path="url(#pc3e1573229)" style="fill: #9aa0a6; fill-opacity: 0.3"/>
   </g>
   <g id="patch_9">
    <path d="M 148.356098 242.766098 
C 150.793443 242.766098 153.13129 241.79773 154.854754 240.074266 
C 156.578218 238.350802 157.546585 236.012956 157.546585 233.57561 
C 157.546585 231.138264 156.578218 228.800417 154.854754 227.076954 
C 153.13129 225.35349 150.793443 224.385122 148.356098 224.385122 
C 145.918752 224.385122 143.580905 225.35349 141.857441 227.076954 
C 140.133978 228.800417 139.16561 231.138264 139.16561 233.57561 
C 139.16561 236.012956 140.133978 238.350802 141.857441 240.074266 
C 143.580905 241.79773 145.918752 242.766098 148.356098 242.766098 
z
" clip-path="url(#pc3e1573229)" style="fill: #9aa0a6; fill-opacity: 0.3"/>
   </g>
   <g id="patch_10">
    <path d="M 117.139208 260.413923 
L 140.322166 229.112314 
L 156.390029 238.038905 
L 142.060792 274.259248 
z
" clip-path="url(#pc3e1573229)" style="fill: #9aa0a6; fill-opacity: 0.3"/>
   </g>
   <g id="patch_11">
    <path d="M 148.356098 242.766098 
C 150.793443 242.766098 153.13129 241.79773 154.854754 240.074266 
C 156.578218 238.350802 157.546585 236.012956 157.546585 233.57561 
C 157.546585 231.138264 156.578218 228.800417 154.854754 227.076954 
C 153.13129 225.35349 150.793443 224.385122 148.356098 224.385122 
C 145.918752 224.385122 143.580905 225.35349 141.857441 227.076954 
C 140.133978 228.800417 139.16561 231.138264 139.16561 233.57561 
C 139.16561 236.012956 140.133978 238.350802 141.857441 240.074266 
C 143.580905 241.79773 145.918752 242.766098 148.356098 242.766098 
z
" clip-path="url(#pc3e1573229)" style="fill: #9aa0a6; fill-opacity: 0.3"/>
   </g>
   <g id="patch_12">
    <path d="M 148.356098 290.406585 
C 149.997575 290.406585 151.572044 289.754419 152.732744 288.593719 
C 153.893444 287.433019 154.54561 285.858551 154.54561 284.217073 
C 154.54561 282.575595 153.893444 281.001127 152.732744 279.840427 
C 151.572044 278.679727 149.997575 278.027561 148.356098 278.027561 
C 146.71462 278.027561 145.140152 278.679727 143.979452 279.840427 
C 142.818751 281.001127 142.166585 282.575595 142.166585 284.217073 
C 142.166585 285.858551 142.818751 287.433019 143.979452 288.593719 
C 145.140152 289.754419 146.71462 290.406585 148.356098 290.406585 
z
" clip-path="url(#pc3e1573229)" style="fill: #9aa0a6; fill-opacity: 0.3"/>
   </g>
   <g id="patch_13">
    <path d="M 157.546585 233.57561 
L 154.54561 284.217073 
L 142.166585 284.217073 
L 139.16561 233.57561 
z
" clip-path="url(#pc3e1573229)" style="fill: #9aa0a6; fill-opacity: 0.3"/>
   </g>
   <g id="patch_14">
    <path d="M 148.356098 289.478159 
C 149.751354 289.478159 151.089652 288.923817 152.076247 287.937222 
C 153.062842 286.950627 153.617183 285.612329 153.617183 284.217073 
C 153.617183 282.821817 153.062842 281.483519 152.076247 280.496924 
C 151.089652 279.510329 149.751354 278.955988 148.356098 278.955988 
C 146.960841 278.955988 145.622544 279.510329 144.635948 280.496924 
C 143.649353 281.483519 143.095012 282.821817 143.095012 284.217073 
C 143.095012 285.612329 143.649353 286.950627 144.635948 287.937222 
C 145.622544 288.923817 146.960841 289.478159 148.356098 289.478159 
z
" clip-path="url(#pc3e1573229)" style="fill: #9aa0a6; fill-opacity: 0.3"/>
   </g>
   <g id="patch_15">
    <path d="M 163.360976 287.621305 
C 164.263788 287.621305 165.129746 287.262614 165.768131 286.624228 
C 166.406516 285.985843 166.765207 285.119886 166.765207 284.217073 
C 166.765207 283.31426 166.406516 282.448303 165.768131 281.809918 
C 165.129746 281.171533 164.263788 280.812841 163.360976 280.812841 
C 162.458163 280.812841 161.592205 281.171533 160.95382 281.809918 
C 160.315435 282.448303 159.956744 283.31426 159.956744 284.217073 
C 159.956744 285.119886 160.315435 285.985843 160.95382 286.624228 
C 161.592205 287.262614 162.458163 287.621305 163.360976 287.621305 
z
" clip-path="url(#pc3e1573229)" style="fill: #9aa0a6; fill-opacity: 0.3"/>
   </g>
   <g id="patch_16">
    <path d="M 148.356098 278.955988 
L 163.360976 280.812841 
L 163.360976 287.621305 
L 148.356098 289.478159 
z
" clip-path="url(#pc3e1573229)" style="fill: #9aa0a6; fill-opacity: 0.3"/>
   </g>
   <g id="line2d_2">
    <path d="M 58.326829 259.834146 
L 75.207317 255.707805 
L 79.184594 256.409106 
L 82.682153 258.428423 
L 85.278136 261.522195 
L 86.65943 265.317269 
L 86.65943 269.355902 
L 85.278136 273.150976 
L 82.682153 276.244748 
L 79.184594 278.264065 
L 75.207317 278.965366 
L 58.326829 274.839024 
L 55.760844 274.386572 
L 53.504354 273.083787 
L 51.829526 271.087805 
L 50.938369 268.63937 
L 50.938369 266.033801 
L 51.829526 263.585366 
L 53.504354 261.589384 
L 55.760844 260.286599 
L 58.326829 259.834146 
L 58.326829 259.834146 
" clip-path="url(#pc3e1573229)" style="fill: none; stroke: #7d8288; stroke-opacity: 0.85; stroke-width: 1.7; stroke-linecap: round"/>
   </g>
   <g id="line2d_3">
    <path d="M 75.207317 244.079024 
L 129.6 250.080976 
L 135.501766 251.121616 
L 140.691692 254.118021 
L 144.543796 258.70878 
L 146.593458 264.34018 
L 146.593458 270.332991 
L 144.543796 275.96439 
L 140.691692 280.555149 
L 135.501766 283.551555 
L 129.6 284.592195 
L 75.207317 290.594146 
L 67.252763 289.191544 
L 60.257645 285.152911 
L 55.065678 278.965366 
L 52.303091 271.375218 
L 52.303091 263.297952 
L 55.065678 255.707805 
L 60.257645 249.52026 
L 67.252763 245.481627 
L 75.207317 244.079024 
L 75.207317 244.079024 
" clip-path="url(#pc3e1573229)" style="fill: none; stroke: #7d8288; stroke-opacity: 0.85; stroke-width: 1.7; stroke-linecap: round"/>
   </g>
   <g id="patch_17">
    <path d="M 75.207317 276.714634 
C 77.694405 276.714634 80.079962 275.726504 81.838599 273.967867 
C 83.597235 272.209231 84.585366 269.823673 84.585366 267.336585 
C 84.585366 264.849498 83.597235 262.46394 81.838599 260.705303 
C 80.079962 258.946667 77.694405 257.958537 75.207317 257.958537 
C 72.720229 257.958537 70.334672 258.946667 68.576035 260.705303 
C 66.817399 262.46394 65.829268 264.849498 65.829268 267.336585 
C 65.829268 269.823673 66.817399 272.209231 68.576035 273.967867 
C 70.334672 275.726504 72.720229 276.714634 75.207317 276.714634 
z
" clip-path="url(#pc3e1573229)" style="fill: #9aa0a6; fill-opacity: 0.3"/>
   </g>
   <g id="patch_18">
    <path d="M 73.331707 248.017805 
C 75.172152 248.017805 76.937465 247.286588 78.238856 245.985197 
C 79.540247 244.683806 80.271463 242.918494 80.271463 241.078049 
C 80.271463 239.237604 79.540247 237.472291 78.238856 236.1709 
C 76.937465 234.869509 75.172152 234.138293 73.331707 234.138293 
C 71.491262 234.138293 69.72595 234.869509 68.424559 236.1709 
C 67.123168 237.472291 66.391951 239.237604 66.391951 241.078049 
C 66.391951 242.918494 67.123168 244.683806 68.424559 245.985197 
C 69.72595 247.286588 71.491262 248.017805 73.331707 248.017805 
z
" clip-path="url(#pc3e1573229)" style="fill: #9aa0a6; fill-opacity: 0.3"/>
   </g>
   <g id="patch_19">
    <path d="M 65.853101 268.004744 
L 66.409587 241.572486 
L 80.253827 240.583612 
L 84.561533 266.668427 
z
" clip-path="url(#pc3e1573229)" style="fill: #9aa0a6; fill-opacity: 0.3"/>
   </g>
   <g id="patch_20">
    <path d="M 73.331707 248.017805 
C 75.172152 248.017805 76.937465 247.286588 78.238856 245.985197 
C 79.540247 244.683806 80.271463 242.918494 80.271463 241.078049 
C 80.271463 239.237604 79.540247 237.472291 78.238856 236.1709 
C 76.937465 234.869509 75.172152 234.138293 73.331707 234.138293 
C 71.491262 234.138293 69.72595 234.869509 68.424559 236.1709 
C 67.123168 237.472291 66.391951 239.237604 66.391951 241.078049 
C 66.391951 242.918494 67.123168 244.683806 68.424559 245.985197 
C 69.72595 247.286588 71.491262 248.017805 73.331707 248.017805 
z
" clip-path="url(#pc3e1573229)" style="fill: #9aa0a6; fill-opacity: 0.3"/>
   </g>
   <g id="patch_21">
    <path d="M 86.460976 252.519268 
C 88.00297 252.519268 89.482016 251.906627 90.57237 250.816273 
C 91.662725 249.725918 92.275366 248.246872 92.275366 246.704878 
C 92.275366 245.162884 91.662725 243.683838 90.57237 242.593483 
C 89.482016 241.503129 88.00297 240.890488 86.460976 240.890488 
C 84.918981 240.890488 83.439935 241.503129 82.349581 242.593483 
C 81.259226 243.683838 80.646585 245.162884 80.646585 246.704878 
C 80.646585 248.246872 81.259226 249.725918 82.349581 250.816273 
C 83.439935 251.906627 84.918981 252.519268 86.460976 252.519268 
z
" clip-path="url(#pc3e1573229)" style="fill: #9aa0a6; fill-opacity: 0.3"/>
   </g>
   <g id="patch_22">
    <path d="M 76.065411 234.699406 
L 88.751376 241.36061 
L 84.170575 252.049146 
L 70.598003 247.456691 
z
" clip-path="url(#pc3e1573229)" style="fill: #9aa0a6; fill-opacity: 0.3"/>
   </g>
   <g id="patch_23">
    <path d="M 148.356098 288.673522 
C 149.537962 288.673522 150.671579 288.203962 151.507283 287.368258 
C 152.342987 286.532554 152.812546 285.398937 152.812546 284.217073 
C 152.812546 283.035209 152.342987 281.901592 151.507283 281.065888 
C 150.671579 280.230184 149.537962 279.760624 148.356098 279.760624 
C 147.174234 279.760624 146.040616 280.230184 145.204912 281.065888 
C 144.369208 281.901592 143.899649 283.035209 143.899649 284.217073 
C 143.899649 285.398937 144.369208 286.532554 145.204912 287.368258 
C 146.040616 288.203962 147.174234 288.673522 148.356098 288.673522 
z
" clip-path="url(#pc3e1573229)" style="fill: #9aa0a6; fill-opacity: 0.3; stroke: #7d8288; stroke-opacity: 0.85; stroke-width: 1.3; stroke-linejoin: miter"/>
   </g>
   <g id="patch_24">
    <path d="M 86.460976 252.89439 
C 88.102453 252.89439 89.676922 252.242224 90.837622 251.081524 
C 91.998322 249.920824 92.650488 248.346356 92.650488 246.704878 
C 92.650488 245.0634 91.998322 243.488932 90.837622 242.328232 
C 89.676922 241.167532 88.102453 240.515366 86.460976 240.515366 
C 84.819498 240.515366 83.24503 241.167532 82.08433 242.328232 
C 80.923629 243.488932 80.271463 245.0634 80.271463 246.704878 
C 80.271463 248.346356 80.923629 249.920824 82.08433 251.081524 
C 83.24503 252.242224 84.819498 252.89439 86.460976 252.89439 
z
" clip-path="url(#pc3e1573229)" style="fill: #9aa0a6; fill-opacity: 0.3; stroke: #7d8288; stroke-opacity: 0.85; stroke-width: 1.6; stroke-linejoin: miter"/>
   </g>
   <g id="line2d_4">
    <path d="M 117.139208 260.413923 
L 140.322166 229.112314 
L 142.333208 226.633717 
L 145.0707 224.992415 
L 148.204459 224.386373 
L 151.356508 224.888688 
L 154.146663 226.438775 
L 156.238391 228.849668 
L 157.379397 231.830581 
L 157.432061 235.021969 
L 156.390029 238.038905 
L 142.060792 274.259248 
L 138.941624 278.103602 
L 134.695719 280.649295 
L 129.835195 281.589279 
L 124.946302 280.810178 
L 120.618715 278.405962 
L 117.374402 274.666617 
L 115.604678 270.043161 
L 115.522996 265.093253 
L 117.139208 260.413923 
L 117.139208 260.413923 
" clip-path="url(#pc3e1573229)" style="fill: none; stroke: #7d8288; stroke-opacity: 0.85; stroke-width: 1.7; stroke-linecap: round"/>
   </g>
   <g id="line2d_5">
    <path d="M 157.546585 233.57561 
L 154.54561 284.217073 
L 154.172336 286.334011 
L 153.097539 288.195615 
L 151.450854 289.577348 
L 149.430895 290.312553 
L 147.2813 290.312553 
L 145.261341 289.577348 
L 143.614656 288.195615 
L 142.539859 286.334011 
L 142.166585 284.217073 
L 139.16561 233.57561 
L 139.719864 230.432278 
L 141.315775 227.668078 
L 143.760854 225.616414 
L 146.760186 224.524746 
L 149.952009 224.524746 
L 152.951341 225.616414 
L 155.39642 227.668078 
L 156.992331 230.432278 
L 157.546585 233.57561 
L 157.546585 233.57561 
" clip-path="url(#pc3e1573229)" style="fill: none; stroke: #7d8288; stroke-opacity: 0.85; stroke-width: 1.7; stroke-linecap: round"/>
   </g>
   <g id="line2d_6">
    <path d="M 148.356098 278.955988 
L 163.360976 280.812841 
L 164.525291 281.018142 
L 165.549174 281.60928 
L 166.309127 282.514957 
L 166.713489 283.625935 
L 166.713489 284.808212 
L 166.309127 285.919189 
L 165.549174 286.824866 
L 164.525291 287.416005 
L 163.360976 287.621305 
L 148.356098 289.478159 
L 146.5567 289.160876 
L 144.974337 288.247298 
L 143.799864 286.847616 
L 143.17494 285.130651 
L 143.17494 283.303495 
L 143.799864 281.58653 
L 144.974337 280.186848 
L 146.5567 279.27327 
L 148.356098 278.955988 
L 148.356098 278.955988 
" clip-path="url(#pc3e1573229)" style="fill: none; stroke: #7d8288; stroke-opacity: 0.85; stroke-width: 1.5; stroke-linecap: round"/>
   </g>
   <g id="line2d_7">
    <path d="M 65.853101 268.004744 
L 66.409587 241.572486 
L 66.657935 239.175163 
L 67.711238 237.007357 
L 69.442452 235.330536 
L 71.642768 234.346949 
L 74.046795 234.175233 
L 76.364572 234.836098 
L 78.316541 236.249835 
L 79.667265 238.245925 
L 80.253827 240.583612 
L 84.561533 266.668427 
L 84.225929 269.908052 
L 82.802546 272.837521 
L 80.463067 275.103495 
L 77.489667 276.432666 
L 74.240982 276.664715 
L 71.108851 275.771654 
L 68.471056 273.861199 
L 66.645753 271.163779 
L 65.853101 268.004744 
L 65.853101 268.004744 
" clip-path="url(#pc3e1573229)" style="fill: none; stroke: #7d8288; stroke-opacity: 0.85; stroke-width: 1.7; stroke-linecap: round"/>
   </g>
   <g id="line2d_8">
    <path d="M 76.065411 234.699406 
L 88.751376 241.36061 
L 90.441095 242.466272 
L 91.650753 244.083172 
L 92.234448 246.016289 
L 92.121776 248.03246 
L 91.326328 249.888505 
L 89.944047 251.360557 
L 88.141656 252.271066 
L 86.13655 252.51021 
L 84.170575 252.049146 
L 70.598003 247.456691 
L 68.581242 246.13703 
L 67.137456 244.207181 
L 66.440789 241.899913 
L 66.575268 239.493516 
L 67.524674 237.278236 
L 69.174493 235.521271 
L 71.325734 234.434534 
L 73.718924 234.149104 
L 76.065411 234.699406 
L 76.065411 234.699406 
" clip-path="url(#pc3e1573229)" style="fill: none; stroke: #7d8288; stroke-opacity: 0.85; stroke-width: 1.7; stroke-linecap: round"/>
   </g>
   <g id="patch_25">
    <path d="M 58.326829 282.341463 
C 62.306169 282.341463 66.123062 280.760455 68.93688 277.946636 
C 71.750699 275.132818 73.331707 271.315926 73.331707 267.336585 
C 73.331707 263.357245 71.750699 259.540353 68.93688 256.726534 
C 66.123062 253.912716 62.306169 252.331707 58.326829 252.331707 
C 54.347489 252.331707 50.530597 253.912716 47.716778 256.726534 
C 44.90296 259.540353 43.321951 263.357245 43.321951 267.336585 
C 43.321951 271.315926 44.90296 275.132818 47.716778 277.946636 
C 50.530597 280.760455 54.347489 282.341463 58.326829 282.341463 
z
" clip-path="url(#pc3e1573229)" style="fill: #9aa0a6; fill-opacity: 0.3; stroke: #7d8288; stroke-opacity: 0.85; stroke-width: 1.8; stroke-linejoin: miter"/>
   </g>
   <g id="patch_26">
    <path d="M 58.326829 274.839024 
C 60.316499 274.839024 62.224946 274.04852 63.631855 272.641611 
C 65.038764 271.234702 65.829268 269.326255 65.829268 267.336585 
C 65.829268 265.346915 65.038764 263.438469 63.631855 262.03156 
C 62.224946 260.624651 60.316499 259.834146 58.326829 259.834146 
C 56.337159 259.834146 54.428713 260.624651 53.021804 262.03156 
C 51.614895 263.438469 50.82439 265.346915 50.82439 267.336585 
C 50.82439 269.326255 51.614895 271.234702 53.021804 272.641611 
C 54.428713 274.04852 56.337159 274.839024 58.326829 274.839024 
z
" clip-path="url(#pc3e1573229)" style="fill: #2c3e50"/>
   </g>
   <g id="patch_27">
    <path d="M 75.207317 277.089756 
C 78.291306 277.089756 81.249397 275.864474 83.430107 273.683765 
C 85.610816 271.503056 86.836098 268.544964 86.836098 265.460976 
C 86.836098 262.376987 85.610816 259.418895 83.430107 257.238186 
C 81.249397 255.057477 78.291306 253.832195 75.207317 253.832195 
C 72.123328 253.832195 69.165237 255.057477 66.984528 257.238186 
C 64.803818 259.418895 63.578537 262.376987 63.578537 265.460976 
C 63.578537 268.544964 64.803818 271.503056 66.984528 273.683765 
C 69.165237 275.864474 72.123328 277.089756 75.207317 277.089756 
z
" clip-path="url(#pc3e1573229)" style="fill: #2c3e50"/>
   </g>
   <g id="patch_28">
    <path d="M 57.498323 259.880033 
L 73.923133 253.90332 
L 76.491501 277.018631 
L 59.155335 274.793137 
z
" clip-path="url(#pc3e1573229)" style="fill: #2c3e50"/>
   </g>
   <g id="patch_29">
    <path d="M 75.207317 288.718537 
C 81.375294 288.718537 87.291478 286.267973 91.652896 281.906555 
C 96.014315 277.545136 98.464878 271.628953 98.464878 265.460976 
C 98.464878 259.292998 96.014315 253.376815 91.652896 249.015397 
C 87.291478 244.653978 81.375294 242.203415 75.207317 242.203415 
C 69.03934 242.203415 63.123157 244.653978 58.761738 249.015397 
C 54.400319 253.376815 51.949756 259.292998 51.949756 265.460976 
C 51.949756 271.628953 54.400319 277.545136 58.761738 281.906555 
C 63.123157 286.267973 69.03934 288.718537 75.207317 288.718537 
z
" clip-path="url(#pc3e1573229)" style="fill: #2c3e50"/>
   </g>
   <g id="patch_30">
    <path d="M 135.226829 252.706829 
C 139.80307 252.706829 144.192497 250.888669 147.428388 247.652778 
C 150.664279 244.416887 152.482439 240.027461 152.482439 235.45122 
C 152.482439 230.874978 150.664279 226.485552 147.428388 223.249661 
C 144.192497 220.01377 139.80307 218.19561 135.226829 218.19561 
C 130.650588 218.19561 126.261162 220.01377 123.025271 223.249661 
C 119.789379 226.485552 117.97122 230.874978 117.97122 235.45122 
C 117.97122 240.027461 119.789379 244.416887 123.025271 247.652778 
C 126.261162 250.888669 130.650588 252.706829 135.226829 252.706829 
z
" clip-path="url(#pc3e1573229)" style="fill: #2c3e50"/>
   </g>
   <g id="patch_31">
    <path d="M 64.80622 244.658781 
L 127.509886 220.017333 
L 142.943773 250.885106 
L 85.608415 286.263171 
z
" clip-path="url(#pc3e1573229)" style="fill: #2c3e50"/>
   </g>
   <g id="patch_32">
    <path d="M 135.226829 249.705854 
C 139.007202 249.705854 142.63325 248.203895 145.306378 245.530768 
C 147.979505 242.85764 149.481463 239.231593 149.481463 235.45122 
C 149.481463 231.670846 147.979505 228.044799 145.306378 225.371671 
C 142.63325 222.698544 139.007202 221.196585 135.226829 221.196585 
C 131.446456 221.196585 127.820408 222.698544 125.147281 225.371671 
C 122.474153 228.044799 120.972195 231.670846 120.972195 235.45122 
C 120.972195 239.231593 122.474153 242.85764 125.147281 245.530768 
C 127.820408 248.203895 131.446456 249.705854 135.226829 249.705854 
z
" clip-path="url(#pc3e1573229)" style="fill: #3c3f42"/>
   </g>
   <g id="patch_33">
    <path d="M 152.107317 242.766098 
C 154.544663 242.766098 156.88251 241.79773 158.605973 240.074266 
C 160.329437 238.350802 161.297805 236.012956 161.297805 233.57561 
C 161.297805 231.138264 160.329437 228.800417 158.605973 227.076954 
C 156.88251 225.35349 154.544663 224.385122 152.107317 224.385122 
C 149.669971 224.385122 147.332125 225.35349 145.608661 227.076954 
C 143.885197 228.800417 142.916829 231.138264 142.916829 233.57561 
C 142.916829 236.012956 143.885197 238.350802 145.608661 240.074266 
C 147.332125 241.79773 149.669971 242.766098 152.107317 242.766098 
z
" clip-path="url(#pc3e1573229)" style="fill: #3c3f42"/>
   </g>
   <g id="patch_34">
    <path d="M 133.652668 221.28377 
L 151.092397 224.441333 
L 153.122237 242.709886 
L 136.80099 249.618669 
z
" clip-path="url(#pc3e1573229)" style="fill: #3c3f42"/>
   </g>
   <g id="patch_35">
    <path d="M 152.107317 242.766098 
C 154.544663 242.766098 156.88251 241.79773 158.605973 240.074266 
C 160.329437 238.350802 161.297805 236.012956 161.297805 233.57561 
C 161.297805 231.138264 160.329437 228.800417 158.605973 227.076954 
C 156.88251 225.35349 154.544663 224.385122 152.107317 224.385122 
C 149.669971 224.385122 147.332125 225.35349 145.608661 227.076954 
C 143.885197 228.800417 142.916829 231.138264 142.916829 233.57561 
C 142.916829 236.012956 143.885197 238.350802 145.608661 240.074266 
C 147.332125 241.79773 149.669971 242.766098 152.107317 242.766098 
z
" clip-path="url(#pc3e1573229)" style="fill: #3c3f42"/>
   </g>
   <g id="patch_36">
    <path d="M 148.356098 290.406585 
C 149.997575 290.406585 151.572044 289.754419 152.732744 288.593719 
C 153.893444 287.433019 154.54561 285.858551 154.54561 284.217073 
C 154.54561 282.575595 153.893444 281.001127 152.732744 279.840427 
C 151.572044 278.679727 149.997575 278.027561 148.356098 278.027561 
C 146.71462 278.027561 145.140152 278.679727 143.979452 279.840427 
C 142.818751 281.001127 142.166585 282.575595 142.166585 284.217073 
C 142.166585 285.858551 142.818751 287.433019 143.979452 288.593719 
C 145.140152 289.754419 146.71462 290.406585 148.356098 290.406585 
z
" clip-path="url(#pc3e1573229)" style="fill: #3c3f42"/>
   </g>
   <g id="patch_37">
    <path d="M 161.272694 234.254527 
L 154.528698 284.674303 
L 142.183497 283.759843 
L 142.94194 232.896693 
z
" clip-path="url(#pc3e1573229)" style="fill: #3c3f42"/>
   </g>
   <g id="patch_38">
    <path d="M 148.356098 289.478159 
C 149.751354 289.478159 151.089652 288.923817 152.076247 287.937222 
C 153.062842 286.950627 153.617183 285.612329 153.617183 284.217073 
C 153.617183 282.821817 153.062842 281.483519 152.076247 280.496924 
C 151.089652 279.510329 149.751354 278.955988 148.356098 278.955988 
C 146.960841 278.955988 145.622544 279.510329 144.635948 280.496924 
C 143.649353 281.483519 143.095012 282.821817 143.095012 284.217073 
C 143.095012 285.612329 143.649353 286.950627 144.635948 287.937222 
C 145.622544 288.923817 146.960841 289.478159 148.356098 289.478159 
z
" clip-path="url(#pc3e1573229)" style="fill: #1b1b1b"/>
   </g>
   <g id="patch_39">
    <path d="M 163.360976 287.621305 
C 164.263788 287.621305 165.129746 287.262614 165.768131 286.624228 
C 166.406516 285.985843 166.765207 285.119886 166.765207 284.217073 
C 166.765207 283.31426 166.406516 282.448303 165.768131 281.809918 
C 165.129746 281.171533 164.263788 280.812841 163.360976 280.812841 
C 162.458163 280.812841 161.592205 281.171533 160.95382 281.809918 
C 160.315435 282.448303 159.956744 283.31426 159.956744 284.217073 
C 159.956744 285.119886 160.315435 285.985843 160.95382 286.624228 
C 161.592205 287.262614 162.458163 287.621305 163.360976 287.621305 
z
" clip-path="url(#pc3e1573229)" style="fill: #1b1b1b"/>
   </g>
   <g id="patch_40">
    <path d="M 148.356098 278.955988 
L 163.360976 280.812841 
L 163.360976 287.621305 
L 148.356098 289.478159 
z
" clip-path="url(#pc3e1573229)" style="fill: #1b1b1b"/>
   </g>
   <g id="line2d_9">
    <path d="M 57.498323 259.880033 
L 73.923133 253.90332 
L 77.95353 254.161115 
L 81.652693 255.78184 
L 84.574449 258.570012 
L 86.36639 262.189335 
L 86.812382 266.203267 
L 85.858633 270.127668 
L 83.620177 273.489196 
L 80.367006 275.882403 
L 76.491501 277.018631 
L 59.155335 274.793137 
L 56.555079 274.626818 
L 54.168522 273.581189 
L 52.283519 271.782368 
L 51.127427 269.447321 
L 50.83969 266.857688 
L 51.455013 264.325816 
L 52.899178 262.157088 
L 54.997997 260.613084 
L 57.498323 259.880033 
L 57.498323 259.880033 
" clip-path="url(#pc3e1573229)" style="fill: none; stroke: #1d2a36; stroke-width: 1.7; stroke-linecap: round"/>
   </g>
   <g id="line2d_10">
    <path d="M 64.80622 244.658781 
L 127.509886 220.017333 
L 133.253975 218.30876 
L 139.236019 218.667821 
L 144.734495 221.051207 
L 149.086207 225.171448 
L 151.766274 230.53158 
L 152.451439 236.485094 
L 151.059062 242.313907 
L 147.757084 247.314979 
L 142.943773 250.885106 
L 85.608415 286.263171 
L 77.866382 288.56603 
L 69.803627 288.082078 
L 62.392637 284.869688 
L 56.527286 279.31632 
L 52.915023 272.091794 
L 51.991539 264.067493 
L 53.868221 256.211266 
L 58.318713 249.470691 
L 64.80622 244.658781 
L 64.80622 244.658781 
" clip-path="url(#pc3e1573229)" style="fill: none; stroke: #1d2a36; stroke-width: 1.7; stroke-linecap: round"/>
   </g>
   <g id="patch_41">
    <path d="M 75.207317 274.839024 
C 77.694405 274.839024 80.079962 273.850894 81.838599 272.092257 
C 83.597235 270.333621 84.585366 267.948063 84.585366 265.460976 
C 84.585366 262.973888 83.597235 260.58833 81.838599 258.829694 
C 80.079962 257.071057 77.694405 256.082927 75.207317 256.082927 
C 72.720229 256.082927 70.334672 257.071057 68.576035 258.829694 
C 66.817399 260.58833 65.829268 262.973888 65.829268 265.460976 
C 65.829268 267.948063 66.817399 270.333621 68.576035 272.092257 
C 70.334672 273.850894 72.720229 274.839024 75.207317 274.839024 
z
" clip-path="url(#pc3e1573229)" style="fill: #2c3e50"/>
   </g>
   <g id="patch_42">
    <path d="M 73.331707 246.142195 
C 75.172152 246.142195 76.937465 245.410979 78.238856 244.109588 
C 79.540247 242.808197 80.271463 241.042884 80.271463 239.202439 
C 80.271463 237.361994 79.540247 235.596681 78.238856 234.29529 
C 76.937465 232.993899 75.172152 232.262683 73.331707 232.262683 
C 71.491262 232.262683 69.72595 232.993899 68.424559 234.29529 
C 67.123168 235.596681 66.391951 237.361994 66.391951 239.202439 
C 66.391951 241.042884 67.123168 242.808197 68.424559 244.109588 
C 69.72595 245.410979 71.491262 246.142195 73.331707 246.142195 
z
" clip-path="url(#pc3e1573229)" style="fill: #2c3e50"/>
   </g>
   <g id="patch_43">
    <path d="M 65.853101 266.129134 
L 66.409587 239.696876 
L 80.253827 238.708002 
L 84.561533 264.792817 
z
" clip-path="url(#pc3e1573229)" style="fill: #2c3e50"/>
   </g>
   <g id="patch_44">
    <path d="M 73.331707 246.142195 
C 75.172152 246.142195 76.937465 245.410979 78.238856 244.109588 
C 79.540247 242.808197 80.271463 241.042884 80.271463 239.202439 
C 80.271463 237.361994 79.540247 235.596681 78.238856 234.29529 
C 76.937465 232.993899 75.172152 232.262683 73.331707 232.262683 
C 71.491262 232.262683 69.72595 232.993899 68.424559 234.29529 
C 67.123168 235.596681 66.391951 237.361994 66.391951 239.202439 
C 66.391951 241.042884 67.123168 242.808197 68.424559 244.109588 
C 69.72595 245.410979 71.491262 246.142195 73.331707 246.142195 
z
" clip-path="url(#pc3e1573229)" style="fill: #2c3e50"/>
   </g>
   <g id="patch_45">
    <path d="M 86.460976 250.643659 
C 88.00297 250.643659 89.482016 250.031018 90.57237 248.940663 
C 91.662725 247.850308 92.275366 246.371263 92.275366 244.829268 
C 92.275366 243.287274 91.662725 241.808228 90.57237 240.717874 
C 89.482016 239.627519 88.00297 239.014878 86.460976 239.014878 
C 84.918981 239.014878 83.439935 239.627519 82.349581 240.717874 
C 81.259226 241.808228 80.646585 243.287274 80.646585 244.829268 
C 80.646585 246.371263 81.259226 247.850308 82.349581 248.940663 
C 83.439935 250.031018 84.918981 250.643659 86.460976 250.643659 
z
" clip-path="url(#pc3e1573229)" style="fill: #2c3e50"/>
   </g>
   <g id="patch_46">
    <path d="M 76.065411 232.823797 
L 88.751376 239.485 
L 84.170575 250.173536 
L 70.598003 245.581081 
z
" clip-path="url(#pc3e1573229)" style="fill: #2c3e50"/>
   </g>
   <g id="patch_47">
    <path d="M 148.356098 288.673522 
C 149.537962 288.673522 150.671579 288.203962 151.507283 287.368258 
C 152.342987 286.532554 152.812546 285.398937 152.812546 284.217073 
C 152.812546 283.035209 152.342987 281.901592 151.507283 281.065888 
C 150.671579 280.230184 149.537962 279.760624 148.356098 279.760624 
C 147.174234 279.760624 146.040616 280.230184 145.204912 281.065888 
C 144.369208 281.901592 143.899649 283.035209 143.899649 284.217073 
C 143.899649 285.398937 144.369208 286.532554 145.204912 287.368258 
C 146.040616 288.203962 147.174234 288.673522 148.356098 288.673522 
z
" clip-path="url(#pc3e1573229)" style="fill: #1b1b1b; stroke: #121212; stroke-width: 1.3; stroke-linejoin: miter"/>
   </g>
   <g id="patch_48">
    <path d="M 86.460976 251.01878 
C 88.102453 251.01878 89.676922 250.366614 90.837622 249.205914 
C 91.998322 248.045214 92.650488 246.470746 92.650488 244.829268 
C 92.650488 243.18779 91.998322 241.613322 90.837622 240.452622 
C 89.676922 239.291922 88.102453 238.639756 86.460976 238.639756 
C 84.819498 238.639756 83.24503 239.291922 82.08433 240.452622 
C 80.923629 241.613322 80.271463 243.18779 80.271463 244.829268 
C 80.271463 246.470746 80.923629 248.045214 82.08433 249.205914 
C 83.24503 250.366614 84.819498 251.01878 86.460976 251.01878 
z
" clip-path="url(#pc3e1573229)" style="fill: #f2e0c9; stroke: #a49888; stroke-width: 1.6; stroke-linejoin: miter"/>
   </g>
   <g id="line2d_11">
    <path d="M 133.652668 221.28377 
L 151.092397 224.441333 
L 154.277711 224.645075 
L 157.201243 225.92597 
L 159.510373 228.129525 
L 160.926584 230.989959 
L 161.279062 234.16226 
L 160.525292 237.263802 
L 158.75619 239.920494 
L 156.185136 241.811899 
L 153.122237 242.709886 
L 136.80099 249.618669 
L 131.860504 249.302662 
L 127.326046 247.315966 
L 123.744539 243.898207 
L 121.547966 239.461617 
L 121.001265 234.541314 
L 122.170378 229.730758 
L 124.914291 225.610175 
L 128.902049 222.676567 
L 133.652668 221.28377 
L 133.652668 221.28377 
" clip-path="url(#pc3e1573229)" style="fill: none; stroke: #282a2c; stroke-width: 1.7; stroke-linecap: round"/>
   </g>
   <g id="line2d_12">
    <path d="M 161.272694 234.254527 
L 154.528698 284.674303 
L 154.000063 286.757882 
L 152.790683 288.535003 
L 151.046425 289.791317 
L 148.977675 290.375296 
L 146.833953 290.216501 
L 144.873825 289.334088 
L 143.333709 287.834486 
L 142.399368 285.898572 
L 142.183497 283.759843 
L 142.94194 232.896693 
L 143.726883 229.802893 
L 145.52263 227.164138 
L 148.112588 225.298702 
L 151.184369 224.431583 
L 154.367471 224.667368 
L 157.277965 225.977619 
L 159.564803 228.204299 
L 160.952158 231.078839 
L 161.272694 234.254527 
L 161.272694 234.254527 
" clip-path="url(#pc3e1573229)" style="fill: none; stroke: #282a2c; stroke-width: 1.7; stroke-linecap: round"/>
   </g>
   <g id="line2d_13">
    <path d="M 148.356098 278.955988 
L 163.360976 280.812841 
L 164.525291 281.018142 
L 165.549174 281.60928 
L 166.309127 282.514957 
L 166.713489 283.625935 
L 166.713489 284.808212 
L 166.309127 285.919189 
L 165.549174 286.824866 
L 164.525291 287.416005 
L 163.360976 287.621305 
L 148.356098 289.478159 
L 146.5567 289.160876 
L 144.974337 288.247298 
L 143.799864 286.847616 
L 143.17494 285.130651 
L 143.17494 283.303495 
L 143.799864 281.58653 
L 144.974337 280.186848 
L 146.5567 279.27327 
L 148.356098 278.955988 
L 148.356098 278.955988 
" clip-path="url(#pc3e1573229)" style="fill: none; stroke: #121212; stroke-width: 1.5; stroke-linecap: round"/>
   </g>
   <g id="line2d_14">
    <path d="M 65.853101 266.129134 
L 66.409587 239.696876 
L 66.657935 237.299553 
L 67.711238 235.131747 
L 69.442452 233.454926 
L 71.642768 232.47134 
L 74.046795 232.299623 
L 76.364572 232.960489 
L 78.316541 234.374225 
L 79.667265 236.370316 
L 80.253827 238.708002 
L 84.561533 264.792817 
L 84.225929 268.032443 
L 82.802546 270.961911 
L 80.463067 273.227885 
L 77.489667 274.557056 
L 74.240982 274.789105 
L 71.108851 273.896044 
L 68.471056 271.985589 
L 66.645753 269.288169 
L 65.853101 266.129134 
L 65.853101 266.129134 
" clip-path="url(#pc3e1573229)" style="fill: none; stroke: #1d2a36; stroke-width: 1.7; stroke-linecap: round"/>
   </g>
   <g id="line2d_15">
    <path d="M 76.065411 232.823797 
L 88.751376 239.485 
L 90.441095 240.590662 
L 91.650753 242.207563 
L 92.234448 244.140679 
L 92.121776 246.15685 
L 91.326328 248.012895 
L 89.944047 249.484947 
L 88.141656 250.395456 
L 86.13655 250.634601 
L 84.170575 250.173536 
L 70.598003 245.581081 
L 68.581242 244.26142 
L 67.137456 242.331572 
L 66.440789 240.024303 
L 66.575268 237.617906 
L 67.524674 235.402627 
L 69.174493 233.645661 
L 71.325734 232.558925 
L 73.718924 232.273494 
L 76.065411 232.823797 
L 76.065411 232.823797 
" clip-path="url(#pc3e1573229)" style="fill: none; stroke: #1d2a36; stroke-width: 1.7; stroke-linecap: round"/>
   </g>
   <g id="patch_49">
    <path d="M 58.326829 282.341463 
C 62.306169 282.341463 66.123062 280.760455 68.93688 277.946636 
C 71.750699 275.132818 73.331707 271.315926 73.331707 267.336585 
C 73.331707 263.357245 71.750699 259.540353 68.93688 256.726534 
C 66.123062 253.912716 62.306169 252.331707 58.326829 252.331707 
C 54.347489 252.331707 50.530597 253.912716 47.716778 256.726534 
C 44.90296 259.540353 43.321951 263.357245 43.321951 267.336585 
C 43.321951 271.315926 44.90296 275.132818 47.716778 277.946636 
C 50.530597 280.760455 54.347489 282.341463 58.326829 282.341463 
z
" clip-path="url(#pc3e1573229)" style="fill: #f2e0c9; stroke: #a49888; stroke-width: 1.8; stroke-linejoin: miter"/>
   </g>
   <g id="patch_50">
    <path d="M 120.221951 233.57561 
L 144.604878 233.57561 
L 144.604878 222.321951 
L 120.221951 222.321951 
z
" clip-path="url(#pc3e1573229)" style="fill: #5b6b73; stroke: #5b6b73; stroke-linejoin: miter"/>
   </g>
   <g id="patch_51">
    <path d="M 129.097375 259.776351 
Q 125.747378 245.457634 132.665133 235.354203 
" clip-path="url(#pc3e1573229)" style="fill: none; stroke-dasharray: 2.2,0; stroke-dashoffset: 0; stroke: #c0392b; stroke-width: 2.2; stroke-linecap: round"/>
    <path d="M 127.191042 238.393008 
L 132.665133 235.354203 
L 131.811723 241.556758 
z
" clip-path="url(#pc3e1573229)" style="fill: #c0392b; stroke-dasharray: 2.2,0; stroke-dashoffset: 0; stroke: #c0392b; stroke-width: 2.2; stroke-linecap: round"/>
   </g>
  </g>
 </g>
 <defs>
  <clipPath id="pc3e1573229">
   <rect x="5.809756" y="1" width="247.580488" height="307.6"/>
  </clipPath>
 </defs>
</svg>
