<?xml version="1.0" encoding="utf-8" standalone="no"?>
<!DOCTYPE svg PUBLIC "-//W3C//DTD SVG 1.1//EN"
  "http://www.w3.org/Graphics/SVG/1.1/DTD/svg11.dtd">
<svg xmlns:xlink="http://www.w3.org/1999/xlink" width="259.2pt" height="309.6pt" viewBox="0 0 259.2 309.6" xmlns="http://www.w3.org/2000/svg" version="1.1">
 <metadata>
  <rdf:RDF xmlns:dc="http://purl.org/dc/elements/1.1/" xmlns:cc="http://creativecommons.org/ns#" xmlns:rdf="http://www.w3.org/1999/02/22-rdf-syntax-ns#">
   <cc:Work>
    <dc:type rdf:resource="http://purl.org/dc/dcmitype/StillImage"/>
    <dc:date>2026-07-10T23:04:56.533508</dc:date>
    <dc:format>image/svg+xml</dc:format>
    <dc:creator>
     <cc:Agent>
      <dc:title>Matplotlib v3.10.8, https://matplotlib.org/</dc:title>
     </cc:Agent>
    </dc:creator>
   </cc:Work>
  </rdf:RDF>
 </metadata>
 <defs>
  <style type="text/css">*{stroke-linejoin: round; stroke-linecap: butt}</style>
 </defs>
 <g id="figure_1">
  <g id="patch_1">
   <path d="M 0 309.6 
L 259.2 309.6 
L 259.2 0 
L 0 0 
L 0 309.6 
z
" style="fill: none"/>
  </g>
  <g id="axes_1">
   <g id="line2d_1">
    <path d="M 17.063415 299.221951 
L 242.136585 299.221951 
" clip-path="url(#pb130709a63)" style="fill: none; stroke: #c3c3c3; stroke-width: 3; stroke-linecap: round"/>
   </g>
   <g id="patch_2">
    <path d="M 129.6 68.521951 
C 131.58967 68.521951 133.498116 67.731447 134.905026 66.324538 
C 136.311935 64.917628 137.102439 63.009182 137.102439 61.019512 
C 137.102439 59.029842 136.311935 57.121396 134.905026 55.714487 
C 133.498116 54.307577 131.58967 53.517073 129.6 53.517073 
C 127.61033 53.517073 125.701884 54.307577 124.294974 55.714487 
C 122.888065 57.121396 122.097561 59.029842 122.097561 61.019512 
C 122.097561 63.009182 122.888065 64.917628 124.294974 66.324538 
C 125.701884 67.731447 127.61033 68.521951 129.6 68.521951 
z
" clip-path="url(#pb130709a63)" style="fill: #9aa0a6; fill-opacity: 0.3"/>
   </g>
   <g id="patch_3">
    <path d="M 129.6 91.40439 
C 132.683989 91.40439 135.64208 90.179109 137.82279 87.998399 
C 140.003499 85.81769 141.22878 82.859598 141.22878 79.77561 
C 141.22878 76.691621 140.003499 73.733529 137.82279 71.55282 
C 135.64208 69.372111 132.683989 68.146829 129.6 68.146829 
C 126.516011 68.146829 123.55792 69.372111 121.37721 71.55282 
C 119.196501 73.733529 117.97122 76.691621 117.97122 79.77561 
C 117.97122 82.859598 119.196501 85.81769 121.37721 87.998399 
C 123.55792 90.179109 126.516011 91.40439 129.6 91.40439 
z
" clip-path="url(#pb130709a63)" style="fill: #9aa0a6; fill-opacity: 0.3"/>
   </g>
   <g id="patch_4">
    <path d="M 137.102439 61.019512 
L 141.22878 79.77561 
L 117.97122 79.77561 
L 122.097561 61.019512 
z
" clip-path="url(#pb130709a63)" style="fill: #9aa0a6; fill-opacity: 0.3"/>
   </g>
   <g id="patch_5">
    <path d="M 129.6 103.033171 
C 135.767977 103.033171 141.684161 100.582607 146.045579 96.221189 
C 150.406998 91.85977 152.857561 85.943587 152.857561 79.77561 
C 152.857561 73.607632 150.406998 67.691449 146.045579 63.330031 
C 141.684161 58.968612 135.767977 56.518049 129.6 56.518049 
C 123.432023 56.518049 117.515839 58.968612 113.154421 63.330031 
C 108.793002 67.691449 106.342439 73.607632 106.342439 79.77561 
C 106.342439 85.943587 108.793002 91.85977 113.154421 96.221189 
C 117.515839 100.582607 123.432023 103.033171 129.6 103.033171 
z
" clip-path="url(#pb130709a63)" style="fill: #9aa0a6; fill-opacity: 0.3"/>
   </g>
   <g id="patch_6">
    <path d="M 129.6 164.553171 
C 134.176241 164.553171 138.565667 162.735011 141.801559 159.49912 
C 145.03745 156.263228 146.85561 151.873802 146.85561 147.297561 
C 146.85561 142.72132 145.03745 138.331893 141.801559 135.096002 
C 138.565667 131.860111 134.176241 130.041951 129.6 130.041951 
C 125.023759 130.041951 120.634333 131.860111 117.398441 135.096002 
C 114.16255 138.331893 112.34439 142.72132 112.34439 147.297561 
C 112.34439 151.873802 114.16255 156.263228 117.398441 159.49912 
C 120.634333 162.735011 125.023759 164.553171 129.6 164.553171 
z
" clip-path="url(#pb130709a63)" style="fill: #9aa0a6; fill-opacity: 0.3"/>
   </g>
   <g id="patch_7">
    <path d="M 152.857561 79.77561 
L 146.85561 147.297561 
L 112.34439 147.297561 
L 106.342439 79.77561 
z
" clip-path="url(#pb130709a63)" style="fill: #9aa0a6; fill-opacity: 0.3"/>
   </g>
   <g id="patch_8">
    <path d="M 129.6 161.552195 
C 133.380373 161.552195 137.006421 160.050237 139.679548 157.377109 
C 142.352676 154.703982 143.854634 151.077934 143.854634 147.297561 
C 143.854634 143.517188 142.352676 139.89114 139.679548 137.218013 
C 137.006421 134.544885 133.380373 133.042927 129.6 133.042927 
C 125.819627 133.042927 122.193579 134.544885 119.520452 137.218013 
C 116.847324 139.89114 115.345366 143.517188 115.345366 147.297561 
C 115.345366 151.077934 116.847324 154.703982 119.520452 157.377109 
C 122.193579 160.050237 125.819627 161.552195 129.6 161.552195 
z
" clip-path="url(#pb130709a63)" style="fill: #9aa0a6; fill-opacity: 0.3"/>
   </g>
   <g id="patch_9">
    <path d="M 129.6 227.76122 
C 132.037346 227.76122 134.375192 226.792852 136.098656 225.069388 
C 137.82212 223.345924 138.790488 221.008078 138.790488 218.570732 
C 138.790488 216.133386 137.82212 213.795539 136.098656 212.072075 
C 134.375192 210.348612 132.037346 209.380244 129.6 209.380244 
C 127.162654 209.380244 124.824808 210.348612 123.101344 212.072075 
C 121.37788 213.795539 120.409512 216.133386 120.409512 218.570732 
C 120.409512 221.008078 121.37788 223.345924 123.101344 225.069388 
C 124.824808 226.792852 127.162654 227.76122 129.6 227.76122 
z
" clip-path="url(#pb130709a63)" style="fill: #9aa0a6; fill-opacity: 0.3"/>
   </g>
   <g id="patch_10">
    <path d="M 143.854634 147.297561 
L 138.790488 218.570732 
L 120.409512 218.570732 
L 115.345366 147.297561 
z
" clip-path="url(#pb130709a63)" style="fill: #9aa0a6; fill-opacity: 0.3"/>
   </g>
   <g id="patch_11">
    <path d="M 129.6 227.76122 
C 132.037346 227.76122 134.375192 226.792852 136.098656 225.069388 
C 137.82212 223.345924 138.790488 221.008078 138.790488 218.570732 
C 138.790488 216.133386 137.82212 213.795539 136.098656 212.072075 
C 134.375192 210.348612 132.037346 209.380244 129.6 209.380244 
C 127.162654 209.380244 124.824808 210.348612 123.101344 212.072075 
C 121.37788 213.795539 120.409512 216.133386 120.409512 218.570732 
C 120.409512 221.008078 121.37788 223.345924 123.101344 225.069388 
C 124.824808 226.792852 127.162654 227.76122 129.6 227.76122 
z
" clip-path="url(#pb130709a63)" style="fill: #9aa0a6; fill-opacity: 0.3"/>
   </g>
   <g id="patch_12">
    <path d="M 129.6 290.406585 
C 131.241478 290.406585 132.815946 289.754419 133.976646 288.593719 
C 135.137346 287.433019 135.789512 285.858551 135.789512 284.217073 
C 135.789512 282.575595 135.137346 281.001127 133.976646 279.840427 
C 132.815946 278.679727 131.241478 278.027561 129.6 278.027561 
C 127.958522 278.027561 126.384054 278.679727 125.223354 279.840427 
C 124.062654 281.001127 123.410488 282.575595 123.410488 284.217073 
C 123.410488 285.858551 124.062654 287.433019 125.223354 288.593719 
C 126.384054 289.754419 127.958522 290.406585 129.6 290.406585 
z
" clip-path="url(#pb130709a63)" style="fill: #9aa0a6; fill-opacity: 0.3"/>
   </g>
   <g id="patch_13">
    <path d="M 138.790488 218.570732 
L 135.789512 284.217073 
L 123.410488 284.217073 
L 120.409512 218.570732 
z
" clip-path="url(#pb130709a63)" style="fill: #9aa0a6; fill-opacity: 0.3"/>
   </g>
   <g id="patch_14">
    <path d="M 129.6 289.478159 
C 130.995256 289.478159 132.333554 288.923817 133.320149 287.937222 
C 134.306744 286.950627 134.861085 285.612329 134.861085 284.217073 
C 134.861085 282.821817 134.306744 281.483519 133.320149 280.496924 
C 132.333554 279.510329 130.995256 278.955988 129.6 278.955988 
C 128.204744 278.955988 126.866446 279.510329 125.879851 280.496924 
C 124.893256 281.483519 124.338915 282.821817 124.338915 284.217073 
C 124.338915 285.612329 124.893256 286.950627 125.879851 287.937222 
C 126.866446 288.923817 128.204744 289.478159 129.6 289.478159 
z
" clip-path="url(#pb130709a63)" style="fill: #9aa0a6; fill-opacity: 0.3"/>
   </g>
   <g id="patch_15">
    <path d="M 144.604878 287.621305 
C 145.507691 287.621305 146.373648 287.262614 147.012033 286.624228 
C 147.650418 285.985843 148.00911 285.119886 148.00911 284.217073 
C 148.00911 283.31426 147.650418 282.448303 147.012033 281.809918 
C 146.373648 281.171533 145.507691 280.812841 144.604878 280.812841 
C 143.702065 280.812841 142.836108 281.171533 142.197723 281.809918 
C 141.559338 282.448303 141.200646 283.31426 141.200646 284.217073 
C 141.200646 285.119886 141.559338 285.985843 142.197723 286.624228 
C 142.836108 287.262614 143.702065 287.621305 144.604878 287.621305 
z
" clip-path="url(#pb130709a63)" style="fill: #9aa0a6; fill-opacity: 0.3"/>
   </g>
   <g id="patch_16">
    <path d="M 129.6 278.955988 
L 144.604878 280.812841 
L 144.604878 287.621305 
L 129.6 289.478159 
z
" clip-path="url(#pb130709a63)" style="fill: #9aa0a6; fill-opacity: 0.3"/>
   </g>
   <g id="line2d_2">
    <path d="M 137.102439 61.019512 
L 141.22878 79.77561 
L 140.527479 83.752887 
L 138.508163 87.250446 
L 135.41439 89.846429 
L 131.619317 91.227723 
L 127.580683 91.227723 
L 123.78561 89.846429 
L 120.691837 87.250446 
L 118.672521 83.752887 
L 117.97122 79.77561 
L 122.097561 61.019512 
L 122.550013 58.453527 
L 123.852798 56.197037 
L 125.84878 54.522209 
L 128.297215 53.631052 
L 130.902785 53.631052 
L 133.35122 54.522209 
L 135.347202 56.197037 
L 136.649987 58.453527 
L 137.102439 61.019512 
L 137.102439 61.019512 
" clip-path="url(#pb130709a63)" style="fill: none; stroke: #7d8288; stroke-opacity: 0.85; stroke-width: 1.7; stroke-linecap: round"/>
   </g>
   <g id="line2d_3">
    <path d="M 152.857561 79.77561 
L 146.85561 147.297561 
L 145.814969 153.199327 
L 142.818564 158.389253 
L 138.227805 162.241357 
L 132.596405 164.291019 
L 126.603595 164.291019 
L 120.972195 162.241357 
L 116.381436 158.389253 
L 113.385031 153.199327 
L 112.34439 147.297561 
L 106.342439 79.77561 
L 107.745042 71.821055 
L 111.783675 64.825938 
L 117.97122 59.633971 
L 125.561367 56.871383 
L 133.638633 56.871383 
L 141.22878 59.633971 
L 147.416325 64.825938 
L 151.454958 71.821055 
L 152.857561 79.77561 
L 152.857561 79.77561 
" clip-path="url(#pb130709a63)" style="fill: none; stroke: #7d8288; stroke-opacity: 0.85; stroke-width: 1.7; stroke-linecap: round"/>
   </g>
   <g id="patch_17">
    <path d="M 129.6 89.153659 
C 132.087088 89.153659 134.472645 88.165528 136.231282 86.406892 
C 137.989918 84.648255 138.978049 82.262697 138.978049 79.77561 
C 138.978049 77.288522 137.989918 74.902964 136.231282 73.144328 
C 134.472645 71.385691 132.087088 70.397561 129.6 70.397561 
C 127.112912 70.397561 124.727355 71.385691 122.968718 73.144328 
C 121.210082 74.902964 120.221951 77.288522 120.221951 79.77561 
C 120.221951 82.262697 121.210082 84.648255 122.968718 86.406892 
C 124.727355 88.165528 127.112912 89.153659 129.6 89.153659 
z
" clip-path="url(#pb130709a63)" style="fill: #9aa0a6; fill-opacity: 0.3"/>
   </g>
   <g id="patch_18">
    <path d="M 129.6 124.227561 
C 131.440445 124.227561 133.205758 123.496344 134.507149 122.194953 
C 135.80854 120.893562 136.539756 119.12825 136.539756 117.287805 
C 136.539756 115.44736 135.80854 113.682047 134.507149 112.380656 
C 133.205758 111.079265 131.440445 110.348049 129.6 110.348049 
C 127.759555 110.348049 125.994242 111.079265 124.692851 112.380656 
C 123.39146 113.682047 122.660244 115.44736 122.660244 117.287805 
C 122.660244 119.12825 123.39146 120.893562 124.692851 122.194953 
C 125.994242 123.496344 127.759555 124.227561 129.6 124.227561 
z
" clip-path="url(#pb130709a63)" style="fill: #9aa0a6; fill-opacity: 0.3"/>
   </g>
   <g id="patch_19">
    <path d="M 138.978049 79.77561 
L 136.539756 117.287805 
L 122.660244 117.287805 
L 120.221951 79.77561 
z
" clip-path="url(#pb130709a63)" style="fill: #9aa0a6; fill-opacity: 0.3"/>
   </g>
   <g id="patch_20">
    <path d="M 129.6 124.227561 
C 131.440445 124.227561 133.205758 123.496344 134.507149 122.194953 
C 135.80854 120.893562 136.539756 119.12825 136.539756 117.287805 
C 136.539756 115.44736 135.80854 113.682047 134.507149 112.380656 
C 133.205758 111.079265 131.440445 110.348049 129.6 110.348049 
C 127.759555 110.348049 125.994242 111.079265 124.692851 112.380656 
C 123.39146 113.682047 122.660244 115.44736 122.660244 117.287805 
C 122.660244 119.12825 123.39146 120.893562 124.692851 122.194953 
C 125.994242 123.496344 127.759555 124.227561 129.6 124.227561 
z
" clip-path="url(#pb130709a63)" style="fill: #9aa0a6; fill-opacity: 0.3"/>
   </g>
   <g id="patch_21">
    <path d="M 129.6 158.73878 
C 131.141994 158.73878 132.62104 158.12614 133.711395 157.035785 
C 134.801749 155.94543 135.41439 154.466385 135.41439 152.92439 
C 135.41439 151.382396 134.801749 149.90335 133.711395 148.812995 
C 132.62104 147.722641 131.141994 147.11 129.6 147.11 
C 128.058006 147.11 126.57896 147.722641 125.488605 148.812995 
C 124.398251 149.90335 123.78561 151.382396 123.78561 152.92439 
C 123.78561 154.466385 124.398251 155.94543 125.488605 157.035785 
C 126.57896 158.12614 128.058006 158.73878 129.6 158.73878 
z
" clip-path="url(#pb130709a63)" style="fill: #9aa0a6; fill-opacity: 0.3"/>
   </g>
   <g id="patch_22">
    <path d="M 136.539756 117.287805 
L 135.41439 152.92439 
L 123.78561 152.92439 
L 122.660244 117.287805 
z
" clip-path="url(#pb130709a63)" style="fill: #9aa0a6; fill-opacity: 0.3"/>
   </g>
   <g id="patch_23">
    <path d="M 129.6 288.673522 
C 130.781864 288.673522 131.915481 288.203962 132.751185 287.368258 
C 133.586889 286.532554 134.056449 285.398937 134.056449 284.217073 
C 134.056449 283.035209 133.586889 281.901592 132.751185 281.065888 
C 131.915481 280.230184 130.781864 279.760624 129.6 279.760624 
C 128.418136 279.760624 127.284519 280.230184 126.448815 281.065888 
C 125.613111 281.901592 125.143551 283.035209 125.143551 284.217073 
C 125.143551 285.398937 125.613111 286.532554 126.448815 287.368258 
C 127.284519 288.203962 128.418136 288.673522 129.6 288.673522 
z
" clip-path="url(#pb130709a63)" style="fill: #9aa0a6; fill-opacity: 0.3; stroke: #7d8288; stroke-opacity: 0.85; stroke-width: 1.3; stroke-linejoin: miter"/>
   </g>
   <g id="patch_24">
    <path d="M 129.6 159.113902 
C 131.241478 159.113902 132.815946 158.461736 133.976646 157.301036 
C 135.137346 156.140336 135.789512 154.565868 135.789512 152.92439 
C 135.789512 151.282912 135.137346 149.708444 133.976646 148.547744 
C 132.815946 147.387044 131.241478 146.734878 129.6 146.734878 
C 127.958522 146.734878 126.384054 147.387044 125.223354 148.547744 
C 124.062654 149.708444 123.410488 151.282912 123.410488 152.92439 
C 123.410488 154.565868 124.062654 156.140336 125.223354 157.301036 
C 126.384054 158.461736 127.958522 159.113902 129.6 159.113902 
z
" clip-path="url(#pb130709a63)" style="fill: #9aa0a6; fill-opacity: 0.3; stroke: #7d8288; stroke-opacity: 0.85; stroke-width: 1.6; stroke-linejoin: miter"/>
   </g>
   <g id="line2d_4">
    <path d="M 143.854634 147.297561 
L 138.790488 218.570732 
L 138.236234 221.714064 
L 136.640322 224.478263 
L 134.195244 226.529928 
L 131.195911 227.621595 
L 128.004089 227.621595 
L 125.004756 226.529928 
L 122.559678 224.478263 
L 120.963766 221.714064 
L 120.409512 218.570732 
L 115.345366 147.297561 
L 116.205025 142.422189 
L 118.680317 138.134859 
L 122.472683 134.952686 
L 127.124709 133.259487 
L 132.075291 133.259487 
L 136.727317 134.952686 
L 140.519683 138.134859 
L 142.994975 142.422189 
L 143.854634 147.297561 
L 143.854634 147.297561 
" clip-path="url(#pb130709a63)" style="fill: none; stroke: #7d8288; stroke-opacity: 0.85; stroke-width: 1.7; stroke-linecap: round"/>
   </g>
   <g id="line2d_5">
    <path d="M 138.790488 218.570732 
L 135.789512 284.217073 
L 135.416239 286.334011 
L 134.341441 288.195615 
L 132.694756 289.577348 
L 130.674798 290.312553 
L 128.525202 290.312553 
L 126.505244 289.577348 
L 124.858559 288.195615 
L 123.783761 286.334011 
L 123.410488 284.217073 
L 120.409512 218.570732 
L 120.963766 215.4274 
L 122.559678 212.6632 
L 125.004756 210.611536 
L 128.004089 209.519868 
L 131.195911 209.519868 
L 134.195244 210.611536 
L 136.640322 212.6632 
L 138.236234 215.4274 
L 138.790488 218.570732 
L 138.790488 218.570732 
" clip-path="url(#pb130709a63)" style="fill: none; stroke: #7d8288; stroke-opacity: 0.85; stroke-width: 1.7; stroke-linecap: round"/>
   </g>
   <g id="line2d_6">
    <path d="M 129.6 278.955988 
L 144.604878 280.812841 
L 145.769194 281.018142 
L 146.793076 281.60928 
L 147.553029 282.514957 
L 147.957392 283.625935 
L 147.957392 284.808212 
L 147.553029 285.919189 
L 146.793076 286.824866 
L 145.769194 287.416005 
L 144.604878 287.621305 
L 129.6 289.478159 
L 127.800603 289.160876 
L 126.21824 288.247298 
L 125.043766 286.847616 
L 124.418842 285.130651 
L 124.418842 283.303495 
L 125.043766 281.58653 
L 126.21824 280.186848 
L 127.800603 279.27327 
L 129.6 278.955988 
L 129.6 278.955988 
" clip-path="url(#pb130709a63)" style="fill: none; stroke: #7d8288; stroke-opacity: 0.85; stroke-width: 1.5; stroke-linecap: round"/>
   </g>
   <g id="line2d_7">
    <path d="M 138.978049 79.77561 
L 136.539756 117.287805 
L 136.121238 119.661341 
L 134.916162 121.748594 
L 133.069878 123.29781 
L 130.805076 124.12213 
L 128.394924 124.12213 
L 126.130122 123.29781 
L 124.283838 121.748594 
L 123.078762 119.661341 
L 122.660244 117.287805 
L 120.221951 79.77561 
L 120.787517 76.568128 
L 122.415998 73.747516 
L 124.910976 71.653981 
L 127.971519 70.540035 
L 131.228481 70.540035 
L 134.289024 71.653981 
L 136.784002 73.747516 
L 138.412483 76.568128 
L 138.978049 79.77561 
L 138.978049 79.77561 
" clip-path="url(#pb130709a63)" style="fill: none; stroke: #7d8288; stroke-opacity: 0.85; stroke-width: 1.7; stroke-linecap: round"/>
   </g>
   <g id="line2d_8">
    <path d="M 136.539756 117.287805 
L 135.41439 152.92439 
L 135.06374 154.913029 
L 134.054081 156.661808 
L 132.507195 157.9598 
L 130.609658 158.650447 
L 128.590342 158.650447 
L 126.692805 157.9598 
L 125.145919 156.661808 
L 124.13626 154.913029 
L 123.78561 152.92439 
L 122.660244 117.287805 
L 123.078762 114.914269 
L 124.283838 112.827016 
L 126.130122 111.2778 
L 128.394924 110.453479 
L 130.805076 110.453479 
L 133.069878 111.2778 
L 134.916162 112.827016 
L 136.121238 114.914269 
L 136.539756 117.287805 
L 136.539756 117.287805 
" clip-path="url(#pb130709a63)" style="fill: none; stroke: #7d8288; stroke-opacity: 0.85; stroke-width: 1.7; stroke-linecap: round"/>
   </g>
   <g id="patch_25">
    <path d="M 129.6 76.02439 
C 133.57934 76.02439 137.396233 74.443382 140.210051 71.629563 
C 143.023869 68.815745 144.604878 64.998852 144.604878 61.019512 
C 144.604878 57.040172 143.023869 53.22328 140.210051 50.409461 
C 137.396233 47.595643 133.57934 46.014634 129.6 46.014634 
C 125.62066 46.014634 121.803767 47.595643 118.989949 50.409461 
C 116.176131 53.22328 114.595122 57.040172 114.595122 61.019512 
C 114.595122 64.998852 116.176131 68.815745 118.989949 71.629563 
C 121.803767 74.443382 125.62066 76.02439 129.6 76.02439 
z
" clip-path="url(#pb130709a63)" style="fill: #9aa0a6; fill-opacity: 0.3; stroke: #7d8288; stroke-opacity: 0.85; stroke-width: 1.8; stroke-linejoin: miter"/>
   </g>
   <g id="patch_26">
    <path d="M 129.6 214.804507 
C 133.077943 214.804507 136.413907 213.422706 138.873185 210.963428 
C 141.332462 208.504151 142.714263 205.168187 142.714263 201.690244 
C 142.714263 198.212301 141.332462 194.876337 138.873185 192.417059 
C 136.413907 189.957782 133.077943 188.57598 129.6 188.57598 
C 126.122057 188.57598 122.786093 189.957782 120.326815 192.417059 
C 117.867538 194.876337 116.485737 198.212301 116.485737 201.690244 
C 116.485737 205.168187 117.867538 208.504151 120.326815 210.963428 
C 122.786093 213.422706 126.122057 214.804507 129.6 214.804507 
z
" clip-path="url(#pb130709a63)" style="fill: #3c3f42; fill-opacity: 0.95"/>
   </g>
   <g id="patch_27">
    <path d="M 72.581463 249.533298 
C 74.823822 249.533298 76.97464 248.642399 78.560227 247.056813 
C 80.145814 245.471226 81.036712 243.320407 81.036712 241.078049 
C 81.036712 238.835691 80.145814 236.684872 78.560227 235.099285 
C 76.97464 233.513698 74.823822 232.6228 72.581463 232.6228 
C 70.339105 232.6228 68.188286 233.513698 66.6027 235.099285 
C 65.017113 236.684872 64.126215 238.835691 64.126215 241.078049 
C 64.126215 243.320407 65.017113 245.471226 66.6027 247.056813 
C 68.188286 248.642399 70.339105 249.533298 72.581463 249.533298 
z
" clip-path="url(#pb130709a63)" style="fill: #3c3f42; fill-opacity: 0.95"/>
   </g>
   <g id="patch_28">
    <path d="M 137.053692 212.48035 
L 77.387133 248.034828 
L 67.775794 234.12127 
L 122.146308 190.900138 
z
" clip-path="url(#pb130709a63)" style="fill: #3c3f42; fill-opacity: 0.95"/>
   </g>
   <g id="patch_29">
    <path d="M 72.581463 249.533298 
C 74.823822 249.533298 76.97464 248.642399 78.560227 247.056813 
C 80.145814 245.471226 81.036712 243.320407 81.036712 241.078049 
C 81.036712 238.835691 80.145814 236.684872 78.560227 235.099285 
C 76.97464 233.513698 74.823822 232.6228 72.581463 232.6228 
C 70.339105 232.6228 68.188286 233.513698 66.6027 235.099285 
C 65.017113 236.684872 64.126215 238.835691 64.126215 241.078049 
C 64.126215 243.320407 65.017113 245.471226 66.6027 247.056813 
C 68.188286 248.642399 70.339105 249.533298 72.581463 249.533298 
z
" clip-path="url(#pb130709a63)" style="fill: #3c3f42; fill-opacity: 0.95"/>
   </g>
   <g id="patch_30">
    <path d="M 122.097561 289.911424 
C 123.607721 289.911424 125.056231 289.311432 126.124075 288.243588 
C 127.191919 287.175743 127.791912 285.727233 127.791912 284.217073 
C 127.791912 282.706914 127.191919 281.258403 126.124075 280.190559 
C 125.056231 279.122715 123.607721 278.522722 122.097561 278.522722 
C 120.587401 278.522722 119.138891 279.122715 118.071047 280.190559 
C 117.003203 281.258403 116.40321 282.706914 116.40321 284.217073 
C 116.40321 285.727233 117.003203 287.175743 118.071047 288.243588 
C 119.138891 289.311432 120.587401 289.911424 122.097561 289.911424 
z
" clip-path="url(#pb130709a63)" style="fill: #3c3f42; fill-opacity: 0.95"/>
   </g>
   <g id="patch_31">
    <path d="M 78.135594 234.702873 
L 125.838098 279.923587 
L 118.357024 288.510559 
L 67.027333 247.453225 
z
" clip-path="url(#pb130709a63)" style="fill: #3c3f42; fill-opacity: 0.95"/>
   </g>
   <g id="patch_32">
    <path d="M 122.097561 289.057272 
C 123.381197 289.057272 124.612431 288.547278 125.520098 287.63961 
C 126.427766 286.731943 126.93776 285.500709 126.93776 284.217073 
C 126.93776 282.933438 126.427766 281.702203 125.520098 280.794536 
C 124.612431 279.886868 123.381197 279.376875 122.097561 279.376875 
C 120.813925 279.376875 119.582691 279.886868 118.675024 280.794536 
C 117.767356 281.702203 117.257362 282.933438 117.257362 284.217073 
C 117.257362 285.500709 117.767356 286.731943 118.675024 287.63961 
C 119.582691 288.547278 120.813925 289.057272 122.097561 289.057272 
z
" clip-path="url(#pb130709a63)" style="fill: #1b1b1b; fill-opacity: 0.95"/>
   </g>
   <g id="patch_33">
    <path d="M 107.092683 287.348966 
C 107.923271 287.348966 108.719952 287.01897 109.307266 286.431656 
C 109.89458 285.844342 110.224576 285.047661 110.224576 284.217073 
C 110.224576 283.386485 109.89458 282.589805 109.307266 282.00249 
C 108.719952 281.415176 107.923271 281.08518 107.092683 281.08518 
C 106.262095 281.08518 105.465414 281.415176 104.8781 282.00249 
C 104.290786 282.589805 103.96079 283.386485 103.96079 284.217073 
C 103.96079 285.047661 104.290786 285.844342 104.8781 286.431656 
C 105.465414 287.01897 106.262095 287.348966 107.092683 287.348966 
z
" clip-path="url(#pb130709a63)" style="fill: #1b1b1b; fill-opacity: 0.95"/>
   </g>
   <g id="patch_34">
    <path d="M 122.097561 289.057272 
L 107.092683 287.348966 
L 107.092683 281.08518 
L 122.097561 279.376875 
z
" clip-path="url(#pb130709a63)" style="fill: #1b1b1b; fill-opacity: 0.95"/>
   </g>
   <g id="patch_35">
    <path d="M 122.097561 288.317006 
C 123.184876 288.317006 124.227804 287.885011 124.996651 287.116164 
C 125.765499 286.347316 126.197494 285.304388 126.197494 284.217073 
C 126.197494 283.129758 125.765499 282.086831 124.996651 281.317983 
C 124.227804 280.549135 123.184876 280.11714 122.097561 280.11714 
C 121.010246 280.11714 119.967318 280.549135 119.198471 281.317983 
C 118.429623 282.086831 117.997628 283.129758 117.997628 284.217073 
C 117.997628 285.304388 118.429623 286.347316 119.198471 287.116164 
C 119.967318 287.885011 121.010246 288.317006 122.097561 288.317006 
z
" clip-path="url(#pb130709a63)" style="fill: #1b1b1b; fill-opacity: 0.95; stroke: #121212; stroke-width: 1.3; stroke-linejoin: miter"/>
   </g>
   <g id="line2d_9">
    <path d="M 137.053692 212.48035 
L 77.387133 248.034828 
L 74.717957 249.258918 
L 71.791089 249.496275 
L 68.959551 248.71827 
L 66.564869 247.018741 
L 64.895878 244.602677 
L 64.153881 241.761491 
L 64.428376 238.837872 
L 65.686253 236.184451 
L 67.775794 234.12127 
L 122.146308 190.900138 
L 126.286255 189.001548 
L 130.825887 188.633403 
L 135.21766 189.840105 
L 138.93186 192.476108 
L 141.5205 196.223473 
L 142.671352 200.630211 
L 142.245605 205.164804 
L 140.294613 209.280314 
L 137.053692 212.48035 
L 137.053692 212.48035 
" clip-path="url(#pb130709a63)" style="fill: none; stroke: #282a2c; stroke-width: 1.7; stroke-linecap: round"/>
   </g>
   <g id="line2d_10">
    <path d="M 78.135594 234.702873 
L 125.838098 279.923587 
L 127.080974 281.461855 
L 127.722778 283.332443 
L 127.686097 285.30973 
L 126.975356 287.155227 
L 125.676282 288.646339 
L 123.94556 289.603216 
L 121.991943 289.910445 
L 120.051065 289.530969 
L 118.357024 288.510559 
L 67.027333 247.453225 
L 65.181849 245.16913 
L 64.228869 242.391591 
L 64.283334 239.455619 
L 65.338676 236.715336 
L 67.267605 234.50126 
L 69.837464 233.080443 
L 72.73829 232.624255 
L 75.6202 233.187719 
L 78.135594 234.702873 
L 78.135594 234.702873 
" clip-path="url(#pb130709a63)" style="fill: none; stroke: #282a2c; stroke-width: 1.7; stroke-linecap: round"/>
   </g>
   <g id="line2d_11">
    <path d="M 122.097561 289.057272 
L 107.092683 287.348966 
L 106.021512 287.16009 
L 105.079541 286.616243 
L 104.380384 285.78302 
L 104.00837 284.760921 
L 104.00837 283.673226 
L 104.380384 282.651127 
L 105.079541 281.817904 
L 106.021512 281.274056 
L 107.092683 281.08518 
L 122.097561 279.376875 
L 123.753006 279.668774 
L 125.208781 280.509266 
L 126.289296 281.796974 
L 126.864226 283.376582 
L 126.864226 285.057565 
L 126.289296 286.637172 
L 125.208781 287.92488 
L 123.753006 288.765372 
L 122.097561 289.057272 
L 122.097561 289.057272 
" clip-path="url(#pb130709a63)" style="fill: none; stroke: #121212; stroke-width: 1.5; stroke-linecap: round"/>
   </g>
   <g id="patch_36">
    <path d="M 129.6 134.168293 
C 131.58967 134.168293 133.498116 133.377788 134.905026 131.970879 
C 136.311935 130.56397 137.102439 128.655524 137.102439 126.665854 
C 137.102439 124.676184 136.311935 122.767737 134.905026 121.360828 
C 133.498116 119.953919 131.58967 119.163415 129.6 119.163415 
C 127.61033 119.163415 125.701884 119.953919 124.294974 121.360828 
C 122.888065 122.767737 122.097561 124.676184 122.097561 126.665854 
C 122.097561 128.655524 122.888065 130.56397 124.294974 131.970879 
C 125.701884 133.377788 127.61033 134.168293 129.6 134.168293 
z
" clip-path="url(#pb130709a63)" style="fill: #2c3e50"/>
   </g>
   <g id="patch_37">
    <path d="M 129.6 157.050732 
C 132.683989 157.050732 135.64208 155.82545 137.82279 153.644741 
C 140.003499 151.464031 141.22878 148.50594 141.22878 145.421951 
C 141.22878 142.337963 140.003499 139.379871 137.82279 137.199162 
C 135.64208 135.018452 132.683989 133.793171 129.6 133.793171 
C 126.516011 133.793171 123.55792 135.018452 121.37721 137.199162 
C 119.196501 139.379871 117.97122 142.337963 117.97122 145.421951 
C 117.97122 148.50594 119.196501 151.464031 121.37721 153.644741 
C 123.55792 155.82545 126.516011 157.050732 129.6 157.050732 
z
" clip-path="url(#pb130709a63)" style="fill: #2c3e50"/>
   </g>
   <g id="patch_38">
    <path d="M 137.102439 126.665854 
L 141.22878 145.421951 
L 117.97122 145.421951 
L 122.097561 126.665854 
z
" clip-path="url(#pb130709a63)" style="fill: #2c3e50"/>
   </g>
   <g id="patch_39">
    <path d="M 129.6 168.679512 
C 135.767977 168.679512 141.684161 166.228949 146.045579 161.86753 
C 150.406998 157.506112 152.857561 151.589928 152.857561 145.421951 
C 152.857561 139.253974 150.406998 133.337791 146.045579 128.976372 
C 141.684161 124.614954 135.767977 122.16439 129.6 122.16439 
C 123.432023 122.16439 117.515839 124.614954 113.154421 128.976372 
C 108.793002 133.337791 106.342439 139.253974 106.342439 145.421951 
C 106.342439 151.589928 108.793002 157.506112 113.154421 161.86753 
C 117.515839 166.228949 123.432023 168.679512 129.6 168.679512 
z
" clip-path="url(#pb130709a63)" style="fill: #2c3e50"/>
   </g>
   <g id="patch_40">
    <path d="M 129.6 218.945854 
C 134.176241 218.945854 138.565667 217.127694 141.801559 213.891803 
C 145.03745 210.655911 146.85561 206.266485 146.85561 201.690244 
C 146.85561 197.114003 145.03745 192.724576 141.801559 189.488685 
C 138.565667 186.252794 134.176241 184.434634 129.6 184.434634 
C 125.023759 184.434634 120.634333 186.252794 117.398441 189.488685 
C 114.16255 192.724576 112.34439 197.114003 112.34439 201.690244 
C 112.34439 206.266485 114.16255 210.655911 117.398441 213.891803 
C 120.634333 217.127694 125.023759 218.945854 129.6 218.945854 
z
" clip-path="url(#pb130709a63)" style="fill: #2c3e50"/>
   </g>
   <g id="patch_41">
    <path d="M 152.857561 145.421951 
L 146.85561 201.690244 
L 112.34439 201.690244 
L 106.342439 145.421951 
z
" clip-path="url(#pb130709a63)" style="fill: #2c3e50"/>
   </g>
   <g id="patch_42">
    <path d="M 129.6 215.944878 
C 133.380373 215.944878 137.006421 214.44292 139.679548 211.769792 
C 142.352676 209.096665 143.854634 205.470617 143.854634 201.690244 
C 143.854634 197.909871 142.352676 194.283823 139.679548 191.610695 
C 137.006421 188.937568 133.380373 187.43561 129.6 187.43561 
C 125.819627 187.43561 122.193579 188.937568 119.520452 191.610695 
C 116.847324 194.283823 115.345366 197.909871 115.345366 201.690244 
C 115.345366 205.470617 116.847324 209.096665 119.520452 211.769792 
C 122.193579 214.44292 125.819627 215.944878 129.6 215.944878 
z
" clip-path="url(#pb130709a63)" style="fill: #3c3f42"/>
   </g>
   <g id="patch_43">
    <path d="M 186.618537 250.268537 
C 189.055882 250.268537 191.393729 249.300169 193.117193 247.576705 
C 194.840657 245.853241 195.809024 243.515395 195.809024 241.078049 
C 195.809024 238.640703 194.840657 236.302856 193.117193 234.579393 
C 191.393729 232.855929 189.055882 231.887561 186.618537 231.887561 
C 184.181191 231.887561 181.843344 232.855929 180.11988 234.579393 
C 178.396417 236.302856 177.428049 238.640703 177.428049 241.078049 
C 177.428049 243.515395 178.396417 245.853241 180.11988 247.576705 
C 181.843344 249.300169 184.181191 250.268537 186.618537 250.268537 
z
" clip-path="url(#pb130709a63)" style="fill: #3c3f42"/>
   </g>
   <g id="patch_44">
    <path d="M 137.701839 189.961868 
L 191.84209 233.516333 
L 181.394983 248.639765 
L 121.498161 213.41862 
z
" clip-path="url(#pb130709a63)" style="fill: #3c3f42"/>
   </g>
   <g id="patch_45">
    <path d="M 186.618537 250.268537 
C 189.055882 250.268537 191.393729 249.300169 193.117193 247.576705 
C 194.840657 245.853241 195.809024 243.515395 195.809024 241.078049 
C 195.809024 238.640703 194.840657 236.302856 193.117193 234.579393 
C 191.393729 232.855929 189.055882 231.887561 186.618537 231.887561 
C 184.181191 231.887561 181.843344 232.855929 180.11988 234.579393 
C 178.396417 236.302856 177.428049 238.640703 177.428049 241.078049 
C 177.428049 243.515395 178.396417 245.853241 180.11988 247.576705 
C 181.843344 249.300169 184.181191 250.268537 186.618537 250.268537 
z
" clip-path="url(#pb130709a63)" style="fill: #3c3f42"/>
   </g>
   <g id="patch_46">
    <path d="M 137.102439 290.406585 
C 138.743917 290.406585 140.318385 289.754419 141.479085 288.593719 
C 142.639785 287.433019 143.291951 285.858551 143.291951 284.217073 
C 143.291951 282.575595 142.639785 281.001127 141.479085 279.840427 
C 140.318385 278.679727 138.743917 278.027561 137.102439 278.027561 
C 135.460961 278.027561 133.886493 278.679727 132.725793 279.840427 
C 131.565093 281.001127 130.912927 282.575595 130.912927 284.217073 
C 130.912927 285.858551 131.565093 287.433019 132.725793 288.593719 
C 133.886493 289.754419 135.460961 290.406585 137.102439 290.406585 
z
" clip-path="url(#pb130709a63)" style="fill: #3c3f42"/>
   </g>
   <g id="patch_47">
    <path d="M 192.655635 248.007588 
L 141.16824 288.883906 
L 133.036638 279.550241 
L 180.581438 234.14851 
z
" clip-path="url(#pb130709a63)" style="fill: #3c3f42"/>
   </g>
   <g id="patch_48">
    <path d="M 137.102439 289.478159 
C 138.497695 289.478159 139.835993 288.923817 140.822588 287.937222 
C 141.809183 286.950627 142.363524 285.612329 142.363524 284.217073 
C 142.363524 282.821817 141.809183 281.483519 140.822588 280.496924 
C 139.835993 279.510329 138.497695 278.955988 137.102439 278.955988 
C 135.707183 278.955988 134.368885 279.510329 133.38229 280.496924 
C 132.395695 281.483519 131.841354 282.821817 131.841354 284.217073 
C 131.841354 285.612329 132.395695 286.950627 133.38229 287.937222 
C 134.368885 288.923817 135.707183 289.478159 137.102439 289.478159 
z
" clip-path="url(#pb130709a63)" style="fill: #1b1b1b"/>
   </g>
   <g id="patch_49">
    <path d="M 152.107317 287.621305 
C 153.01013 287.621305 153.876087 287.262614 154.514472 286.624228 
C 155.152857 285.985843 155.511549 285.119886 155.511549 284.217073 
C 155.511549 283.31426 155.152857 282.448303 154.514472 281.809918 
C 153.876087 281.171533 153.01013 280.812841 152.107317 280.812841 
C 151.204504 280.812841 150.338547 281.171533 149.700162 281.809918 
C 149.061777 282.448303 148.703085 283.31426 148.703085 284.217073 
C 148.703085 285.119886 149.061777 285.985843 149.700162 286.624228 
C 150.338547 287.262614 151.204504 287.621305 152.107317 287.621305 
z
" clip-path="url(#pb130709a63)" style="fill: #1b1b1b"/>
   </g>
   <g id="patch_50">
    <path d="M 137.102439 278.955988 
L 152.107317 280.812841 
L 152.107317 287.621305 
L 137.102439 289.478159 
z
" clip-path="url(#pb130709a63)" style="fill: #1b1b1b"/>
   </g>
   <g id="line2d_12">
    <path d="M 137.102439 126.665854 
L 141.22878 145.421951 
L 140.527479 149.399228 
L 138.508163 152.896787 
L 135.41439 155.492771 
L 131.619317 156.874064 
L 127.580683 156.874064 
L 123.78561 155.492771 
L 120.691837 152.896787 
L 118.672521 149.399228 
L 117.97122 145.421951 
L 122.097561 126.665854 
L 122.550013 124.099868 
L 123.852798 121.843379 
L 125.84878 120.168551 
L 128.297215 119.277394 
L 130.902785 119.277394 
L 133.35122 120.168551 
L 135.347202 121.843379 
L 136.649987 124.099868 
L 137.102439 126.665854 
L 137.102439 126.665854 
" clip-path="url(#pb130709a63)" style="fill: none; stroke: #1d2a36; stroke-width: 1.7; stroke-linecap: round"/>
   </g>
   <g id="line2d_13">
    <path d="M 152.857561 145.421951 
L 146.85561 201.690244 
L 145.814969 207.59201 
L 142.818564 212.781936 
L 138.227805 216.63404 
L 132.596405 218.683702 
L 126.603595 218.683702 
L 120.972195 216.63404 
L 116.381436 212.781936 
L 113.385031 207.59201 
L 112.34439 201.690244 
L 106.342439 145.421951 
L 107.745042 137.467397 
L 111.783675 130.472279 
L 117.97122 125.280313 
L 125.561367 122.517725 
L 133.638633 122.517725 
L 141.22878 125.280313 
L 147.416325 130.472279 
L 151.454958 137.467397 
L 152.857561 145.421951 
L 152.857561 145.421951 
" clip-path="url(#pb130709a63)" style="fill: none; stroke: #1d2a36; stroke-width: 1.7; stroke-linecap: round"/>
   </g>
   <g id="patch_51">
    <path d="M 129.6 154.8 
C 132.087088 154.8 134.472645 153.81187 136.231282 152.053233 
C 137.989918 150.294597 138.978049 147.909039 138.978049 145.421951 
C 138.978049 142.934864 137.989918 140.549306 136.231282 138.790669 
C 134.472645 137.032033 132.087088 136.043902 129.6 136.043902 
C 127.112912 136.043902 124.727355 137.032033 122.968718 138.790669 
C 121.210082 140.549306 120.221951 142.934864 120.221951 145.421951 
C 120.221951 147.909039 121.210082 150.294597 122.968718 152.053233 
C 124.727355 153.81187 127.112912 154.8 129.6 154.8 
z
" clip-path="url(#pb130709a63)" style="fill: #2c3e50"/>
   </g>
   <g id="patch_52">
    <path d="M 129.6 182.371463 
C 131.440445 182.371463 133.205758 181.640247 134.507149 180.338856 
C 135.80854 179.037465 136.539756 177.272152 136.539756 175.431707 
C 136.539756 173.591262 135.80854 171.82595 134.507149 170.524559 
C 133.205758 169.223168 131.440445 168.491951 129.6 168.491951 
C 127.759555 168.491951 125.994242 169.223168 124.692851 170.524559 
C 123.39146 171.82595 122.660244 173.591262 122.660244 175.431707 
C 122.660244 177.272152 123.39146 179.037465 124.692851 180.338856 
C 125.994242 181.640247 127.759555 182.371463 129.6 182.371463 
z
" clip-path="url(#pb130709a63)" style="fill: #2c3e50"/>
   </g>
   <g id="patch_53">
    <path d="M 138.978049 145.421951 
L 136.539756 175.431707 
L 122.660244 175.431707 
L 120.221951 145.421951 
z
" clip-path="url(#pb130709a63)" style="fill: #2c3e50"/>
   </g>
   <g id="patch_54">
    <path d="M 129.6 182.371463 
C 131.440445 182.371463 133.205758 181.640247 134.507149 180.338856 
C 135.80854 179.037465 136.539756 177.272152 136.539756 175.431707 
C 136.539756 173.591262 135.80854 171.82595 134.507149 170.524559 
C 133.205758 169.223168 131.440445 168.491951 129.6 168.491951 
C 127.759555 168.491951 125.994242 169.223168 124.692851 170.524559 
C 123.39146 171.82595 122.660244 173.591262 122.660244 175.431707 
C 122.660244 177.272152 123.39146 179.037465 124.692851 180.338856 
C 125.994242 181.640247 127.759555 182.371463 129.6 182.371463 
z
" clip-path="url(#pb130709a63)" style="fill: #2c3e50"/>
   </g>
   <g id="patch_55">
    <path d="M 129.6 211.255854 
C 131.141994 211.255854 132.62104 210.643213 133.711395 209.552858 
C 134.801749 208.462504 135.41439 206.983458 135.41439 205.441463 
C 135.41439 203.899469 134.801749 202.420423 133.711395 201.330069 
C 132.62104 200.239714 131.141994 199.627073 129.6 199.627073 
C 128.058006 199.627073 126.57896 200.239714 125.488605 201.330069 
C 124.398251 202.420423 123.78561 203.899469 123.78561 205.441463 
C 123.78561 206.983458 124.398251 208.462504 125.488605 209.552858 
C 126.57896 210.643213 128.058006 211.255854 129.6 211.255854 
z
" clip-path="url(#pb130709a63)" style="fill: #2c3e50"/>
   </g>
   <g id="patch_56">
    <path d="M 136.539756 175.431707 
L 135.41439 205.441463 
L 123.78561 205.441463 
L 122.660244 175.431707 
z
" clip-path="url(#pb130709a63)" style="fill: #2c3e50"/>
   </g>
   <g id="patch_57">
    <path d="M 137.102439 288.673522 
C 138.284303 288.673522 139.41792 288.203962 140.253624 287.368258 
C 141.089328 286.532554 141.558888 285.398937 141.558888 284.217073 
C 141.558888 283.035209 141.089328 281.901592 140.253624 281.065888 
C 139.41792 280.230184 138.284303 279.760624 137.102439 279.760624 
C 135.920575 279.760624 134.786958 280.230184 133.951254 281.065888 
C 133.11555 281.901592 132.64599 283.035209 132.64599 284.217073 
C 132.64599 285.398937 133.11555 286.532554 133.951254 287.368258 
C 134.786958 288.203962 135.920575 288.673522 137.102439 288.673522 
z
" clip-path="url(#pb130709a63)" style="fill: #1b1b1b; stroke: #121212; stroke-width: 1.3; stroke-linejoin: miter"/>
   </g>
   <g id="patch_58">
    <path d="M 129.6 211.630976 
C 131.241478 211.630976 132.815946 210.97881 133.976646 209.818109 
C 135.137346 208.657409 135.789512 207.082941 135.789512 205.441463 
C 135.789512 203.799986 135.137346 202.225517 133.976646 201.064817 
C 132.815946 199.904117 131.241478 199.251951 129.6 199.251951 
C 127.958522 199.251951 126.384054 199.904117 125.223354 201.064817 
C 124.062654 202.225517 123.410488 203.799986 123.410488 205.441463 
C 123.410488 207.082941 124.062654 208.657409 125.223354 209.818109 
C 126.384054 210.97881 127.958522 211.630976 129.6 211.630976 
z
" clip-path="url(#pb130709a63)" style="fill: #f2e0c9; stroke: #a49888; stroke-width: 1.6; stroke-linejoin: miter"/>
   </g>
   <g id="line2d_14">
    <path d="M 137.701839 189.961868 
L 191.84209 233.516333 
L 194.113331 235.758921 
L 195.480588 238.643074 
L 195.778952 241.820921 
L 194.972434 244.909167 
L 193.158313 247.535323 
L 190.555398 249.382637 
L 187.47764 250.228295 
L 184.296261 249.970298 
L 181.394983 248.639765 
L 121.498161 213.41862 
L 117.975421 209.94032 
L 115.854777 205.46694 
L 115.392009 200.538034 
L 116.642935 195.748101 
L 119.456674 191.674879 
L 123.493848 188.809658 
L 128.267514 187.498025 
L 133.201897 187.898183 
L 137.701839 189.961868 
L 137.701839 189.961868 
" clip-path="url(#pb130709a63)" style="fill: none; stroke: #282a2c; stroke-width: 1.7; stroke-linecap: round"/>
   </g>
   <g id="line2d_15">
    <path d="M 192.655635 248.007588 
L 141.16824 288.883906 
L 139.326891 289.993047 
L 137.217241 290.405521 
L 135.093744 290.071576 
L 133.212525 289.031492 
L 131.800487 287.410718 
L 131.027943 285.404744 
L 130.988073 283.255519 
L 131.685685 281.222271 
L 133.036638 279.550241 
L 180.581438 234.14851 
L 183.315562 232.501603 
L 186.448073 231.889142 
L 189.601144 232.384999 
L 192.394469 233.929366 
L 194.491131 236.335969 
L 195.638243 239.314538 
L 195.697444 242.505812 
L 194.661595 245.524876 
L 192.655635 248.007588 
L 192.655635 248.007588 
" clip-path="url(#pb130709a63)" style="fill: none; stroke: #282a2c; stroke-width: 1.7; stroke-linecap: round"/>
   </g>
   <g id="line2d_16">
    <path d="M 137.102439 278.955988 
L 152.107317 280.812841 
L 153.271633 281.018142 
L 154.295515 281.60928 
L 155.055468 282.514957 
L 155.459831 283.625935 
L 155.459831 284.808212 
L 155.055468 285.919189 
L 154.295515 286.824866 
L 153.271633 287.416005 
L 152.107317 287.621305 
L 137.102439 289.478159 
L 135.303042 289.160876 
L 133.720679 288.247298 
L 132.546205 286.847616 
L 131.921281 285.130651 
L 131.921281 283.303495 
L 132.546205 281.58653 
L 133.720679 280.186848 
L 135.303042 279.27327 
L 137.102439 278.955988 
L 137.102439 278.955988 
" clip-path="url(#pb130709a63)" style="fill: none; stroke: #121212; stroke-width: 1.5; stroke-linecap: round"/>
   </g>
   <g id="line2d_17">
    <path d="M 138.978049 145.421951 
L 136.539756 175.431707 
L 136.121238 177.805244 
L 134.916162 179.892497 
L 133.069878 181.441712 
L 130.805076 182.266033 
L 128.394924 182.266033 
L 126.130122 181.441712 
L 124.283838 179.892497 
L 123.078762 177.805244 
L 122.660244 175.431707 
L 120.221951 145.421951 
L 120.787517 142.21447 
L 122.415998 139.393858 
L 124.910976 137.300323 
L 127.971519 136.186376 
L 131.228481 136.186376 
L 134.289024 137.300323 
L 136.784002 139.393858 
L 138.412483 142.21447 
L 138.978049 145.421951 
L 138.978049 145.421951 
" clip-path="url(#pb130709a63)" style="fill: none; stroke: #1d2a36; stroke-width: 1.7; stroke-linecap: round"/>
   </g>
   <g id="line2d_18">
    <path d="M 136.539756 175.431707 
L 135.41439 205.441463 
L 135.06374 207.430102 
L 134.054081 209.178881 
L 132.507195 210.476873 
L 130.609658 211.16752 
L 128.590342 211.16752 
L 126.692805 210.476873 
L 125.145919 209.178881 
L 124.13626 207.430102 
L 123.78561 205.441463 
L 122.660244 175.431707 
L 123.078762 173.058171 
L 124.283838 170.970918 
L 126.130122 169.421702 
L 128.394924 168.597382 
L 130.805076 168.597382 
L 133.069878 169.421702 
L 134.916162 170.970918 
L 136.121238 173.058171 
L 136.539756 175.431707 
L 136.539756 175.431707 
" clip-path="url(#pb130709a63)" style="fill: none; stroke: #1d2a36; stroke-width: 1.7; stroke-linecap: round"/>
   </g>
   <g id="patch_59">
    <path d="M 129.6 141.670732 
C 133.57934 141.670732 137.396233 140.089723 140.210051 137.275905 
C 143.023869 134.462086 144.604878 130.645194 144.604878 126.665854 
C 144.604878 122.686513 143.023869 118.869621 140.210051 116.055803 
C 137.396233 113.241984 133.57934 111.660976 129.6 111.660976 
C 125.62066 111.660976 121.803767 113.241984 118.989949 116.055803 
C 116.176131 118.869621 114.595122 122.686513 114.595122 126.665854 
C 114.595122 130.645194 116.176131 134.462086 118.989949 137.275905 
C 121.803767 140.089723 125.62066 141.670732 129.6 141.670732 
z
" clip-path="url(#pb130709a63)" style="fill: #f2e0c9; stroke: #a49888; stroke-width: 1.8; stroke-linejoin: miter"/>
   </g>
   <g id="patch_60">
    <path d="M 129.6 220.746439 
C 132.982439 220.746439 136.226798 219.402582 138.618543 217.010836 
C 141.010289 214.61909 142.354146 211.374732 142.354146 207.992293 
C 142.354146 204.609854 141.010289 201.365495 138.618543 198.973749 
C 136.226798 196.582004 132.982439 195.238146 129.6 195.238146 
C 126.217561 195.238146 122.973202 196.582004 120.581457 198.973749 
C 118.189711 201.365495 116.845854 204.609854 116.845854 207.992293 
C 116.845854 211.374732 118.189711 214.61909 120.581457 217.010836 
C 122.973202 219.402582 126.217561 220.746439 129.6 220.746439 
z
" clip-path="url(#pb130709a63)" style="fill: #5b6b73; stroke: #5b6b73; stroke-linejoin: miter"/>
   </g>
   <g id="patch_61">
    <path d="M 125.518673 199.702098 
L 133.681327 199.702098 
L 133.681327 193.325024 
L 125.518673 193.325024 
L 125.518673 199.702098 
z
" clip-path="url(#pb130709a63)" style="fill: none; stroke: #5b6b73; stroke-width: 3.2; stroke-linejoin: miter"/>
   </g>
   <g id="patch_62">
    <path d="M 129.6 168.229366 
C 132.982439 168.229366 136.226798 166.885509 138.618543 164.493763 
C 141.010289 162.102017 142.354146 158.857659 142.354146 155.47522 
C 142.354146 152.09278 141.010289 148.848422 138.618543 146.456676 
C 136.226798 144.06493 132.982439 142.721073 129.6 142.721073 
C 126.217561 142.721073 122.973202 144.06493 120.581457 146.456676 
C 118.189711 148.848422 116.845854 152.09278 116.845854 155.47522 
C 116.845854 158.857659 118.189711 162.102017 120.581457 164.493763 
C 122.973202 166.885509 126.217561 168.229366 129.6 168.229366 
z
" clip-path="url(#pb130709a63)" style="fill: #5b6b73; stroke: #5b6b73; stroke-linejoin: miter"/>
   </g>
   <g id="patch_63">
    <path d="M 125.518673 147.185024 
L 133.681327 147.185024 
L 133.681327 140.807951 
L 125.518673 140.807951 
L 125.518673 147.185024 
z
" clip-path="url(#pb130709a63)" style="fill: none; stroke: #5b6b73; stroke-width: 3.2; stroke-linejoin: miter"/>
   </g>
   <g id="patch_64">
    <path d="M 112.719512 149.29944 
Q 112.719512 174.495567 112.719512 197.232019 
" clip-path="url(#pb130709a63)" style="fill: none; stroke-dasharray: 2.2,0; stroke-dashoffset: 0; stroke: #c0392b; stroke-width: 2.2; stroke-linecap: round"/>
    <path d="M 115.519512 191.632019 
L 112.719512 197.232019 
L 109.919512 191.632019 
z
" clip-path="url(#pb130709a63)" style="fill: #c0392b; stroke-dasharray: 2.2,0; stroke-dashoffset: 0; stroke: #c0392b; stroke-width: 2.2; stroke-linecap: round"/>
   </g>
  </g>
 </g>
 <defs>
  <clipPath id="pb130709a63">
   <rect x="5.809756" y="1" width="247.580488" height="307.6"/>
  </clipPath>
 </defs>
</svg>
