<?xml version="1.0" encoding="utf-8" standalone="no"?>
<!DOCTYPE svg PUBLIC "-//W3C//DTD SVG 1.1//EN"
  "http://www.w3.org/Graphics/SVG/1.1/DTD/svg11.dtd">
<svg xmlns:xlink="http://www.w3.org/1999/xlink" width="259.2pt" height="309.6pt" viewBox="0 0 259.2 309.6" xmlns="http://www.w3.org/2000/svg" version="1.1">
 <metadata>
  <rdf:RDF xmlns:dc="http://purl.org/dc/elements/1.1/" xmlns:cc="http://creativecommons.org/ns#" xmlns:rdf="http://www.w3.org/1999/02/22-rdf-syntax-ns#">
   <cc:Work>
    <dc:type rdf:resource="http://purl.org/dc/dcmitype/StillImage"/>
    <dc:date>2026-07-10T23:04:57.235095</dc:date>
    <dc:format>image/svg+xml</dc:format>
    <dc:creator>
     <cc:Agent>
      <dc:title>Matplotlib v3.10.8, https://matplotlib.org/</dc:title>
     </cc:Agent>
    </dc:creator>
   </cc:Work>
  </rdf:RDF>
 </metadata>
 <defs>
  <style type="text/css">*{stroke-linejoin: round; stroke-linecap: butt}</style>
 </defs>
 <g id="figure_1">
  <g id="patch_1">
   <path d="M 0 309.6 
L 259.2 309.6 
L 259.2 0 
L 0 0 
L 0 309.6 
z
" style="fill: none"/>
  </g>
  <g id="axes_1">
   <g id="line2d_1">
    <path d="M 17.063415 293.595122 
L 242.136585 293.595122 
" clip-path="url(#p8944d98b79)" style="fill: none; stroke: #c3c3c3; stroke-width: 3; stroke-linecap: round"/>
   </g>
   <g id="patch_2">
    <path d="M 67.704878 263.585366 
L 135.306899 216.249921 
L 146.560557 221.87675 
L 78.958537 269.212195 
z
" clip-path="url(#p8944d98b79)" style="fill: #9aa5b1; stroke: #9aa5b1; stroke-linejoin: miter"/>
   </g>
   <g id="patch_3">
    <path d="M 67.704878 286.092683 
L 74.457073 286.092683 
L 74.457073 263.585366 
L 67.704878 263.585366 
z
" clip-path="url(#p8944d98b79)" style="fill: #9aa5b1; stroke: #9aa5b1; stroke-linejoin: miter"/>
   </g>
   <g id="patch_4">
    <path d="M 78.958537 205.441463 
C 80.948207 205.441463 82.856653 204.650959 84.263562 203.24405 
C 85.670471 201.837141 86.460976 199.928694 86.460976 197.939024 
C 86.460976 195.949354 85.670471 194.040908 84.263562 192.633999 
C 82.856653 191.22709 80.948207 190.436585 78.958537 190.436585 
C 76.968866 190.436585 75.06042 191.22709 73.653511 192.633999 
C 72.246602 194.040908 71.456098 195.949354 71.456098 197.939024 
C 71.456098 199.928694 72.246602 201.837141 73.653511 203.24405 
C 75.06042 204.650959 76.968866 205.441463 78.958537 205.441463 
z
" clip-path="url(#p8944d98b79)" style="fill: #9aa0a6; fill-opacity: 0.3"/>
   </g>
   <g id="patch_5">
    <path d="M 92.087805 218.945854 
C 95.171794 218.945854 98.129885 217.720572 100.310594 215.539863 
C 102.491304 213.359153 103.716585 210.401062 103.716585 207.317073 
C 103.716585 204.233085 102.491304 201.274993 100.310594 199.094284 
C 98.129885 196.913574 95.171794 195.688293 92.087805 195.688293 
C 89.003816 195.688293 86.045725 196.913574 83.865015 199.094284 
C 81.684306 201.274993 80.459024 204.233085 80.459024 207.317073 
C 80.459024 210.401062 81.684306 213.359153 83.865015 215.539863 
C 86.045725 217.720572 89.003816 218.945854 92.087805 218.945854 
z
" clip-path="url(#p8944d98b79)" style="fill: #9aa0a6; fill-opacity: 0.3"/>
   </g>
   <g id="patch_6">
    <path d="M 83.319241 191.834039 
L 98.846896 197.854345 
L 85.328714 216.779801 
L 74.597832 204.04401 
z
" clip-path="url(#p8944d98b79)" style="fill: #9aa0a6; fill-opacity: 0.3"/>
   </g>
   <g id="patch_7">
    <path d="M 92.087805 230.574634 
C 98.255782 230.574634 104.171965 228.124071 108.533384 223.762652 
C 112.894803 219.401234 115.345366 213.48505 115.345366 207.317073 
C 115.345366 201.149096 112.894803 195.232913 108.533384 190.871494 
C 104.171965 186.510076 98.255782 184.059512 92.087805 184.059512 
C 85.919828 184.059512 80.003644 186.510076 75.642226 190.871494 
C 71.280807 195.232913 68.830244 201.149096 68.830244 207.317073 
C 68.830244 213.48505 71.280807 219.401234 75.642226 223.762652 
C 80.003644 228.124071 85.919828 230.574634 92.087805 230.574634 
z
" clip-path="url(#p8944d98b79)" style="fill: #9aa0a6; fill-opacity: 0.3"/>
   </g>
   <g id="patch_8">
    <path d="M 148.356098 256.458049 
C 152.932339 256.458049 157.321765 254.639889 160.557656 251.403998 
C 163.793547 248.168107 165.611707 243.77868 165.611707 239.202439 
C 165.611707 234.626198 163.793547 230.236772 160.557656 227.00088 
C 157.321765 223.764989 152.932339 221.946829 148.356098 221.946829 
C 143.779856 221.946829 139.39043 223.764989 136.154539 227.00088 
C 132.918648 230.236772 131.100488 234.626198 131.100488 239.202439 
C 131.100488 243.77868 132.918648 248.168107 136.154539 251.403998 
C 139.39043 254.639889 143.779856 256.458049 148.356098 256.458049 
z
" clip-path="url(#p8944d98b79)" style="fill: #9aa0a6; fill-opacity: 0.3"/>
   </g>
   <g id="patch_9">
    <path d="M 103.554075 187.082479 
L 156.86333 224.189676 
L 139.848865 254.215202 
L 80.621535 227.551667 
z
" clip-path="url(#p8944d98b79)" style="fill: #9aa0a6; fill-opacity: 0.3"/>
   </g>
   <g id="patch_10">
    <path d="M 148.356098 253.457073 
C 152.136471 253.457073 155.762519 251.955115 158.435646 249.281987 
C 161.108774 246.60886 162.610732 242.982812 162.610732 239.202439 
C 162.610732 235.422066 161.108774 231.796018 158.435646 229.122891 
C 155.762519 226.449763 152.136471 224.947805 148.356098 224.947805 
C 144.575724 224.947805 140.949677 226.449763 138.276549 229.122891 
C 135.603422 231.796018 134.101463 235.422066 134.101463 239.202439 
C 134.101463 242.982812 135.603422 246.60886 138.276549 249.281987 
C 140.949677 251.955115 144.575724 253.457073 148.356098 253.457073 
z
" clip-path="url(#p8944d98b79)" style="fill: #9aa0a6; fill-opacity: 0.3"/>
   </g>
   <g id="patch_11">
    <path d="M 163.360976 274.651463 
C 165.798321 274.651463 168.136168 273.683096 169.859632 271.959632 
C 171.583096 270.236168 172.551463 267.898321 172.551463 265.460976 
C 172.551463 263.02363 171.583096 260.685783 169.859632 258.962319 
C 168.136168 257.238856 165.798321 256.270488 163.360976 256.270488 
C 160.92363 256.270488 158.585783 257.238856 156.862319 258.962319 
C 155.138856 260.685783 154.170488 263.02363 154.170488 265.460976 
C 154.170488 267.898321 155.138856 270.236168 156.862319 271.959632 
C 158.585783 273.683096 160.92363 274.651463 163.360976 274.651463 
z
" clip-path="url(#p8944d98b79)" style="fill: #9aa0a6; fill-opacity: 0.3"/>
   </g>
   <g id="patch_12">
    <path d="M 160.732586 232.13016 
L 171.340554 260.901217 
L 155.381398 270.020734 
L 135.979609 246.274718 
z
" clip-path="url(#p8944d98b79)" style="fill: #9aa0a6; fill-opacity: 0.3"/>
   </g>
   <g id="patch_13">
    <path d="M 163.360976 274.651463 
C 165.798321 274.651463 168.136168 273.683096 169.859632 271.959632 
C 171.583096 270.236168 172.551463 267.898321 172.551463 265.460976 
C 172.551463 263.02363 171.583096 260.685783 169.859632 258.962319 
C 168.136168 257.238856 165.798321 256.270488 163.360976 256.270488 
C 160.92363 256.270488 158.585783 257.238856 156.862319 258.962319 
C 155.138856 260.685783 154.170488 263.02363 154.170488 265.460976 
C 154.170488 267.898321 155.138856 270.236168 156.862319 271.959632 
C 158.585783 273.683096 160.92363 274.651463 163.360976 274.651463 
z
" clip-path="url(#p8944d98b79)" style="fill: #9aa0a6; fill-opacity: 0.3"/>
   </g>
   <g id="patch_14">
    <path d="M 155.858537 251.01878 
C 157.500014 251.01878 159.074483 250.366614 160.235183 249.205914 
C 161.395883 248.045214 162.048049 246.470746 162.048049 244.829268 
C 162.048049 243.18779 161.395883 241.613322 160.235183 240.452622 
C 159.074483 239.291922 157.500014 238.639756 155.858537 238.639756 
C 154.217059 238.639756 152.642591 239.291922 151.481891 240.452622 
C 150.32119 241.613322 149.669024 243.18779 149.669024 244.829268 
C 149.669024 246.470746 150.32119 248.045214 151.481891 249.205914 
C 152.642591 250.366614 154.217059 251.01878 155.858537 251.01878 
z
" clip-path="url(#p8944d98b79)" style="fill: #9aa0a6; fill-opacity: 0.3"/>
   </g>
   <g id="patch_15">
    <path d="M 154.723816 268.601761 
L 150.041674 246.944491 
L 161.675399 242.714045 
L 171.998136 262.32019 
z
" clip-path="url(#p8944d98b79)" style="fill: #9aa0a6; fill-opacity: 0.3"/>
   </g>
   <g id="patch_16">
    <path d="M 155.858537 250.090354 
C 157.253793 250.090354 158.592091 249.536013 159.578686 248.549417 
C 160.565281 247.562822 161.119622 246.224524 161.119622 244.829268 
C 161.119622 243.434012 160.565281 242.095714 159.578686 241.109119 
C 158.592091 240.122524 157.253793 239.568183 155.858537 239.568183 
C 154.46328 239.568183 153.124983 240.122524 152.138387 241.109119 
C 151.151792 242.095714 150.597451 243.434012 150.597451 244.829268 
C 150.597451 246.224524 151.151792 247.562822 152.138387 248.549417 
C 153.124983 249.536013 154.46328 250.090354 155.858537 250.090354 
z
" clip-path="url(#p8944d98b79)" style="fill: #9aa0a6; fill-opacity: 0.3"/>
   </g>
   <g id="patch_17">
    <path d="M 168.987805 248.2335 
C 169.890618 248.2335 170.756575 247.874809 171.39496 247.236424 
C 172.033345 246.598039 172.392037 245.732081 172.392037 244.829268 
C 172.392037 243.926455 172.033345 243.060498 171.39496 242.422113 
C 170.756575 241.783728 169.890618 241.425037 168.987805 241.425037 
C 168.084992 241.425037 167.219035 241.783728 166.58065 242.422113 
C 165.942264 243.060498 165.583573 243.926455 165.583573 244.829268 
C 165.583573 245.732081 165.942264 246.598039 166.58065 247.236424 
C 167.219035 247.874809 168.084992 248.2335 168.987805 248.2335 
z
" clip-path="url(#p8944d98b79)" style="fill: #9aa0a6; fill-opacity: 0.3"/>
   </g>
   <g id="patch_18">
    <path d="M 155.858537 239.568183 
L 168.987805 241.425037 
L 168.987805 248.2335 
L 155.858537 250.090354 
z
" clip-path="url(#p8944d98b79)" style="fill: #9aa0a6; fill-opacity: 0.3"/>
   </g>
   <g id="line2d_2">
    <path d="M 83.319241 191.834039 
L 98.846896 197.854345 
L 101.675717 200.736763 
L 103.348094 204.412863 
L 103.662313 208.439254 
L 102.580477 212.330293 
L 100.233069 215.616664 
L 96.903222 217.901982 
L 92.992565 218.910603 
L 88.97278 218.520874 
L 85.328714 216.779801 
L 74.597832 204.04401 
L 72.772787 202.184386 
L 71.693834 199.812708 
L 71.491112 197.215037 
L 72.189071 194.704689 
L 73.703528 192.58445 
L 75.851816 191.110051 
L 78.374821 190.459327 
L 80.96823 190.710766 
L 83.319241 191.834039 
L 83.319241 191.834039 
" clip-path="url(#p8944d98b79)" style="fill: none; stroke: #7d8288; stroke-opacity: 0.85; stroke-width: 1.7; stroke-linecap: round"/>
   </g>
   <g id="line2d_3">
    <path d="M 103.554075 187.082479 
L 156.86333 224.189676 
L 161.484949 228.004701 
L 164.523034 233.170339 
L 165.611148 239.063537 
L 164.618049 244.973489 
L 161.663518 250.187367 
L 157.103916 254.0763 
L 151.489198 256.171227 
L 145.496581 256.219467 
L 139.848865 254.215202 
L 80.621535 227.551667 
L 74.392397 222.409677 
L 70.297586 215.447295 
L 68.830997 207.504289 
L 70.169523 199.538702 
L 74.151717 192.511301 
L 80.297267 187.269695 
L 87.864931 184.446099 
L 95.941935 184.381079 
L 103.554075 187.082479 
L 103.554075 187.082479 
" clip-path="url(#p8944d98b79)" style="fill: none; stroke: #7d8288; stroke-opacity: 0.85; stroke-width: 1.7; stroke-linecap: round"/>
   </g>
   <g id="patch_19">
    <path d="M 92.087805 216.695122 
C 94.574892 216.695122 96.96045 215.706992 98.719087 213.948355 
C 100.477723 212.189719 101.465854 209.804161 101.465854 207.317073 
C 101.465854 204.829986 100.477723 202.444428 98.719087 200.685791 
C 96.96045 198.927155 94.574892 197.939024 92.087805 197.939024 
C 89.600717 197.939024 87.21516 198.927155 85.456523 200.685791 
C 83.697886 202.444428 82.709756 204.829986 82.709756 207.317073 
C 82.709756 209.804161 83.697886 212.189719 85.456523 213.948355 
C 87.21516 215.706992 89.600717 216.695122 92.087805 216.695122 
z
" clip-path="url(#p8944d98b79)" style="fill: #9aa0a6; fill-opacity: 0.3"/>
   </g>
   <g id="patch_20">
    <path d="M 108.968293 193.625122 
C 110.808738 193.625122 112.57405 192.893905 113.875441 191.592514 
C 115.176832 190.291123 115.908049 188.525811 115.908049 186.685366 
C 115.908049 184.844921 115.176832 183.079608 113.875441 181.778217 
C 112.57405 180.476826 110.808738 179.74561 108.968293 179.74561 
C 107.127848 179.74561 105.362535 180.476826 104.061144 181.778217 
C 102.759753 183.079608 102.028537 184.844921 102.028537 186.685366 
C 102.028537 188.525811 102.759753 190.291123 104.061144 191.592514 
C 105.362535 192.893905 107.127848 193.625122 108.968293 193.625122 
z
" clip-path="url(#p8944d98b79)" style="fill: #9aa0a6; fill-opacity: 0.3"/>
   </g>
   <g id="patch_21">
    <path d="M 84.829596 201.378538 
L 103.597218 182.29085 
L 114.339368 191.079882 
L 99.346014 213.255608 
z
" clip-path="url(#p8944d98b79)" style="fill: #9aa0a6; fill-opacity: 0.3"/>
   </g>
   <g id="patch_22">
    <path d="M 108.968293 193.625122 
C 110.808738 193.625122 112.57405 192.893905 113.875441 191.592514 
C 115.176832 190.291123 115.908049 188.525811 115.908049 186.685366 
C 115.908049 184.844921 115.176832 183.079608 113.875441 181.778217 
C 112.57405 180.476826 110.808738 179.74561 108.968293 179.74561 
C 107.127848 179.74561 105.362535 180.476826 104.061144 181.778217 
C 102.759753 183.079608 102.028537 184.844921 102.028537 186.685366 
C 102.028537 188.525811 102.759753 190.291123 104.061144 191.592514 
C 105.362535 192.893905 107.127848 193.625122 108.968293 193.625122 
z
" clip-path="url(#p8944d98b79)" style="fill: #9aa0a6; fill-opacity: 0.3"/>
   </g>
   <g id="patch_23">
    <path d="M 105.217073 166.24122 
C 106.759067 166.24122 108.238113 165.628579 109.328468 164.538224 
C 110.418823 163.447869 111.031463 161.968824 111.031463 160.426829 
C 111.031463 158.884835 110.418823 157.405789 109.328468 156.315434 
C 108.238113 155.22508 106.759067 154.612439 105.217073 154.612439 
C 103.675079 154.612439 102.196033 155.22508 101.105678 156.315434 
C 100.015324 157.405789 99.402683 158.884835 99.402683 160.426829 
C 99.402683 161.968824 100.015324 163.447869 101.105678 164.538224 
C 102.196033 165.628579 103.675079 166.24122 105.217073 166.24122 
z
" clip-path="url(#p8944d98b79)" style="fill: #9aa0a6; fill-opacity: 0.3"/>
   </g>
   <g id="patch_24">
    <path d="M 102.098285 187.666796 
L 99.46112 161.249108 
L 110.973026 159.60455 
L 115.838301 185.703936 
z
" clip-path="url(#p8944d98b79)" style="fill: #9aa0a6; fill-opacity: 0.3"/>
   </g>
   <g id="patch_25">
    <path d="M 155.858537 249.285717 
C 157.040401 249.285717 158.174018 248.816158 159.009722 247.980453 
C 159.845426 247.144749 160.314985 246.011132 160.314985 244.829268 
C 160.314985 243.647404 159.845426 242.513787 159.009722 241.678083 
C 158.174018 240.842379 157.040401 240.37282 155.858537 240.37282 
C 154.676673 240.37282 153.543056 240.842379 152.707351 241.678083 
C 151.871647 242.513787 151.402088 243.647404 151.402088 244.829268 
C 151.402088 246.011132 151.871647 247.144749 152.707351 247.980453 
C 153.543056 248.816158 154.676673 249.285717 155.858537 249.285717 
z
" clip-path="url(#p8944d98b79)" style="fill: #9aa0a6; fill-opacity: 0.3; stroke: #7d8288; stroke-opacity: 0.85; stroke-width: 1.3; stroke-linejoin: miter"/>
   </g>
   <g id="patch_26">
    <path d="M 105.217073 166.616341 
C 106.858551 166.616341 108.433019 165.964175 109.593719 164.803475 
C 110.754419 163.642775 111.406585 162.068307 111.406585 160.426829 
C 111.406585 158.785351 110.754419 157.210883 109.593719 156.050183 
C 108.433019 154.889483 106.858551 154.237317 105.217073 154.237317 
C 103.575595 154.237317 102.001127 154.889483 100.840427 156.050183 
C 99.679727 157.210883 99.027561 158.785351 99.027561 160.426829 
C 99.027561 162.068307 99.679727 163.642775 100.840427 164.803475 
C 102.001127 165.964175 103.575595 166.616341 105.217073 166.616341 
z
" clip-path="url(#p8944d98b79)" style="fill: #9aa0a6; fill-opacity: 0.3; stroke: #7d8288; stroke-opacity: 0.85; stroke-width: 1.6; stroke-linejoin: miter"/>
   </g>
   <g id="line2d_4">
    <path d="M 160.732586 232.13016 
L 171.340554 260.901217 
L 172.418856 263.90538 
L 172.404644 267.097172 
L 171.299632 270.091613 
L 169.237101 272.527532 
L 166.465822 274.11112 
L 163.320054 274.651372 
L 160.179221 274.083127 
L 157.422154 272.474924 
L 155.381398 270.020734 
L 135.979609 246.274718 
L 134.307141 241.615199 
L 134.329184 236.664666 
L 136.04308 232.020225 
L 139.242108 228.242066 
L 143.540417 225.785889 
L 148.419568 224.947946 
L 153.291064 225.829306 
L 157.56733 228.323662 
L 160.732586 232.13016 
L 160.732586 232.13016 
" clip-path="url(#p8944d98b79)" style="fill: none; stroke: #7d8288; stroke-opacity: 0.85; stroke-width: 1.7; stroke-linecap: round"/>
   </g>
   <g id="line2d_5">
    <path d="M 154.723816 268.601761 
L 150.041674 246.944491 
L 149.669025 244.827443 
L 150.042922 242.710616 
L 151.118268 240.849329 
L 152.765361 239.468081 
L 154.785536 238.733472 
L 156.935131 238.734106 
L 158.954873 239.469906 
L 160.601151 240.852125 
L 161.675399 242.714045 
L 171.998136 262.32019 
L 172.551463 265.463685 
L 171.996282 268.606854 
L 170.399556 271.370583 
L 167.953873 273.421526 
L 164.954218 274.512309 
L 161.762396 274.511368 
L 158.763385 273.418816 
L 156.318912 271.366431 
L 154.723816 268.601761 
L 154.723816 268.601761 
" clip-path="url(#p8944d98b79)" style="fill: none; stroke: #7d8288; stroke-opacity: 0.85; stroke-width: 1.7; stroke-linecap: round"/>
   </g>
   <g id="line2d_6">
    <path d="M 155.858537 239.568183 
L 168.987805 241.425037 
L 170.152121 241.630337 
L 171.176003 242.221476 
L 171.935956 243.127152 
L 172.340319 244.23813 
L 172.340319 245.420407 
L 171.935956 246.531384 
L 171.176003 247.437061 
L 170.152121 248.0282 
L 168.987805 248.2335 
L 155.858537 250.090354 
L 154.059139 249.773071 
L 152.476776 248.859494 
L 151.302303 247.459811 
L 150.677379 245.742846 
L 150.677379 243.91569 
L 151.302303 242.198726 
L 152.476776 240.799043 
L 154.059139 239.885465 
L 155.858537 239.568183 
L 155.858537 239.568183 
" clip-path="url(#p8944d98b79)" style="fill: none; stroke: #7d8288; stroke-opacity: 0.85; stroke-width: 1.5; stroke-linecap: round"/>
   </g>
   <g id="line2d_7">
    <path d="M 84.829596 201.378538 
L 103.597218 182.29085 
L 105.424146 180.718856 
L 107.678551 179.866511 
L 110.088518 179.836621 
L 112.363369 180.63279 
L 114.228723 182.158989 
L 115.459592 184.231136 
L 115.907515 186.5993 
L 115.518465 188.977844 
L 114.339368 191.079882 
L 99.346014 213.255608 
L 96.877192 215.379924 
L 93.830699 216.531742 
L 90.573987 216.572134 
L 87.499864 215.49623 
L 84.979115 213.433798 
L 83.315778 210.633599 
L 82.710477 207.433379 
L 83.236221 204.21913 
L 84.829596 201.378538 
L 84.829596 201.378538 
" clip-path="url(#p8944d98b79)" style="fill: none; stroke: #7d8288; stroke-opacity: 0.85; stroke-width: 1.7; stroke-linecap: round"/>
   </g>
   <g id="line2d_8">
    <path d="M 102.098285 187.666796 
L 99.46112 161.249108 
L 99.527011 159.230867 
L 100.279207 157.356876 
L 101.626982 155.853168 
L 103.407776 154.90111 
L 105.406797 154.615535 
L 107.382935 155.030889 
L 109.097838 156.097072 
L 110.344663 157.685488 
L 110.973026 159.60455 
L 115.838301 185.703936 
L 115.759657 188.112805 
L 114.861875 190.349503 
L 113.25324 192.144252 
L 111.127777 193.28058 
L 108.741848 193.621427 
L 106.383232 193.125682 
L 104.336412 191.853141 
L 102.848266 189.957289 
L 102.098285 187.666796 
L 102.098285 187.666796 
" clip-path="url(#p8944d98b79)" style="fill: none; stroke: #7d8288; stroke-opacity: 0.85; stroke-width: 1.7; stroke-linecap: round"/>
   </g>
   <g id="patch_27">
    <path d="M 78.958537 212.943902 
C 82.937877 212.943902 86.754769 211.362894 89.568588 208.549075 
C 92.382406 205.735257 93.963415 201.918365 93.963415 197.939024 
C 93.963415 193.959684 92.382406 190.142792 89.568588 187.328973 
C 86.754769 184.515155 82.937877 182.934146 78.958537 182.934146 
C 74.979196 182.934146 71.162304 184.515155 68.348486 187.328973 
C 65.534667 190.142792 63.953659 193.959684 63.953659 197.939024 
C 63.953659 201.918365 65.534667 205.735257 68.348486 208.549075 
C 71.162304 211.362894 74.979196 212.943902 78.958537 212.943902 
z
" clip-path="url(#p8944d98b79)" style="fill: #9aa0a6; fill-opacity: 0.3; stroke: #7d8288; stroke-opacity: 0.85; stroke-width: 1.8; stroke-linejoin: miter"/>
   </g>
   <g id="patch_28">
    <path d="M 78.958537 205.441463 
C 80.948207 205.441463 82.856653 204.650959 84.263562 203.24405 
C 85.670471 201.837141 86.460976 199.928694 86.460976 197.939024 
C 86.460976 195.949354 85.670471 194.040908 84.263562 192.633999 
C 82.856653 191.22709 80.948207 190.436585 78.958537 190.436585 
C 76.968866 190.436585 75.06042 191.22709 73.653511 192.633999 
C 72.246602 194.040908 71.456098 195.949354 71.456098 197.939024 
C 71.456098 199.928694 72.246602 201.837141 73.653511 203.24405 
C 75.06042 204.650959 76.968866 205.441463 78.958537 205.441463 
z
" clip-path="url(#p8944d98b79)" style="fill: #2c3e50"/>
   </g>
   <g id="patch_29">
    <path d="M 92.087805 218.945854 
C 95.171794 218.945854 98.129885 217.720572 100.310594 215.539863 
C 102.491304 213.359153 103.716585 210.401062 103.716585 207.317073 
C 103.716585 204.233085 102.491304 201.274993 100.310594 199.094284 
C 98.129885 196.913574 95.171794 195.688293 92.087805 195.688293 
C 89.003816 195.688293 86.045725 196.913574 83.865015 199.094284 
C 81.684306 201.274993 80.459024 204.233085 80.459024 207.317073 
C 80.459024 210.401062 81.684306 213.359153 83.865015 215.539863 
C 86.045725 217.720572 89.003816 218.945854 92.087805 218.945854 
z
" clip-path="url(#p8944d98b79)" style="fill: #2c3e50"/>
   </g>
   <g id="patch_30">
    <path d="M 83.319241 191.834039 
L 98.846896 197.854345 
L 85.328714 216.779801 
L 74.597832 204.04401 
z
" clip-path="url(#p8944d98b79)" style="fill: #2c3e50"/>
   </g>
   <g id="patch_31">
    <path d="M 92.087805 230.574634 
C 98.255782 230.574634 104.171965 228.124071 108.533384 223.762652 
C 112.894803 219.401234 115.345366 213.48505 115.345366 207.317073 
C 115.345366 201.149096 112.894803 195.232913 108.533384 190.871494 
C 104.171965 186.510076 98.255782 184.059512 92.087805 184.059512 
C 85.919828 184.059512 80.003644 186.510076 75.642226 190.871494 
C 71.280807 195.232913 68.830244 201.149096 68.830244 207.317073 
C 68.830244 213.48505 71.280807 219.401234 75.642226 223.762652 
C 80.003644 228.124071 85.919828 230.574634 92.087805 230.574634 
z
" clip-path="url(#p8944d98b79)" style="fill: #2c3e50"/>
   </g>
   <g id="patch_32">
    <path d="M 148.356098 256.458049 
C 152.932339 256.458049 157.321765 254.639889 160.557656 251.403998 
C 163.793547 248.168107 165.611707 243.77868 165.611707 239.202439 
C 165.611707 234.626198 163.793547 230.236772 160.557656 227.00088 
C 157.321765 223.764989 152.932339 221.946829 148.356098 221.946829 
C 143.779856 221.946829 139.39043 223.764989 136.154539 227.00088 
C 132.918648 230.236772 131.100488 234.626198 131.100488 239.202439 
C 131.100488 243.77868 132.918648 248.168107 136.154539 251.403998 
C 139.39043 254.639889 143.779856 256.458049 148.356098 256.458049 
z
" clip-path="url(#p8944d98b79)" style="fill: #2c3e50"/>
   </g>
   <g id="patch_33">
    <path d="M 103.554075 187.082479 
L 156.86333 224.189676 
L 139.848865 254.215202 
L 80.621535 227.551667 
z
" clip-path="url(#p8944d98b79)" style="fill: #2c3e50"/>
   </g>
   <g id="patch_34">
    <path d="M 148.356098 253.457073 
C 152.136471 253.457073 155.762519 251.955115 158.435646 249.281987 
C 161.108774 246.60886 162.610732 242.982812 162.610732 239.202439 
C 162.610732 235.422066 161.108774 231.796018 158.435646 229.122891 
C 155.762519 226.449763 152.136471 224.947805 148.356098 224.947805 
C 144.575724 224.947805 140.949677 226.449763 138.276549 229.122891 
C 135.603422 231.796018 134.101463 235.422066 134.101463 239.202439 
C 134.101463 242.982812 135.603422 246.60886 138.276549 249.281987 
C 140.949677 251.955115 144.575724 253.457073 148.356098 253.457073 
z
" clip-path="url(#p8944d98b79)" style="fill: #3c3f42"/>
   </g>
   <g id="patch_35">
    <path d="M 163.360976 274.651463 
C 165.798321 274.651463 168.136168 273.683096 169.859632 271.959632 
C 171.583096 270.236168 172.551463 267.898321 172.551463 265.460976 
C 172.551463 263.02363 171.583096 260.685783 169.859632 258.962319 
C 168.136168 257.238856 165.798321 256.270488 163.360976 256.270488 
C 160.92363 256.270488 158.585783 257.238856 156.862319 258.962319 
C 155.138856 260.685783 154.170488 263.02363 154.170488 265.460976 
C 154.170488 267.898321 155.138856 270.236168 156.862319 271.959632 
C 158.585783 273.683096 160.92363 274.651463 163.360976 274.651463 
z
" clip-path="url(#p8944d98b79)" style="fill: #3c3f42"/>
   </g>
   <g id="patch_36">
    <path d="M 160.732586 232.13016 
L 171.340554 260.901217 
L 155.381398 270.020734 
L 135.979609 246.274718 
z
" clip-path="url(#p8944d98b79)" style="fill: #3c3f42"/>
   </g>
   <g id="patch_37">
    <path d="M 163.360976 274.651463 
C 165.798321 274.651463 168.136168 273.683096 169.859632 271.959632 
C 171.583096 270.236168 172.551463 267.898321 172.551463 265.460976 
C 172.551463 263.02363 171.583096 260.685783 169.859632 258.962319 
C 168.136168 257.238856 165.798321 256.270488 163.360976 256.270488 
C 160.92363 256.270488 158.585783 257.238856 156.862319 258.962319 
C 155.138856 260.685783 154.170488 263.02363 154.170488 265.460976 
C 154.170488 267.898321 155.138856 270.236168 156.862319 271.959632 
C 158.585783 273.683096 160.92363 274.651463 163.360976 274.651463 
z
" clip-path="url(#p8944d98b79)" style="fill: #3c3f42"/>
   </g>
   <g id="patch_38">
    <path d="M 155.858537 251.01878 
C 157.500014 251.01878 159.074483 250.366614 160.235183 249.205914 
C 161.395883 248.045214 162.048049 246.470746 162.048049 244.829268 
C 162.048049 243.18779 161.395883 241.613322 160.235183 240.452622 
C 159.074483 239.291922 157.500014 238.639756 155.858537 238.639756 
C 154.217059 238.639756 152.642591 239.291922 151.481891 240.452622 
C 150.32119 241.613322 149.669024 243.18779 149.669024 244.829268 
C 149.669024 246.470746 150.32119 248.045214 151.481891 249.205914 
C 152.642591 250.366614 154.217059 251.01878 155.858537 251.01878 
z
" clip-path="url(#p8944d98b79)" style="fill: #3c3f42"/>
   </g>
   <g id="patch_39">
    <path d="M 154.723816 268.601761 
L 150.041674 246.944491 
L 161.675399 242.714045 
L 171.998136 262.32019 
z
" clip-path="url(#p8944d98b79)" style="fill: #3c3f42"/>
   </g>
   <g id="patch_40">
    <path d="M 155.858537 250.090354 
C 157.253793 250.090354 158.592091 249.536013 159.578686 248.549417 
C 160.565281 247.562822 161.119622 246.224524 161.119622 244.829268 
C 161.119622 243.434012 160.565281 242.095714 159.578686 241.109119 
C 158.592091 240.122524 157.253793 239.568183 155.858537 239.568183 
C 154.46328 239.568183 153.124983 240.122524 152.138387 241.109119 
C 151.151792 242.095714 150.597451 243.434012 150.597451 244.829268 
C 150.597451 246.224524 151.151792 247.562822 152.138387 248.549417 
C 153.124983 249.536013 154.46328 250.090354 155.858537 250.090354 
z
" clip-path="url(#p8944d98b79)" style="fill: #1b1b1b"/>
   </g>
   <g id="patch_41">
    <path d="M 168.987805 248.2335 
C 169.890618 248.2335 170.756575 247.874809 171.39496 247.236424 
C 172.033345 246.598039 172.392037 245.732081 172.392037 244.829268 
C 172.392037 243.926455 172.033345 243.060498 171.39496 242.422113 
C 170.756575 241.783728 169.890618 241.425037 168.987805 241.425037 
C 168.084992 241.425037 167.219035 241.783728 166.58065 242.422113 
C 165.942264 243.060498 165.583573 243.926455 165.583573 244.829268 
C 165.583573 245.732081 165.942264 246.598039 166.58065 247.236424 
C 167.219035 247.874809 168.084992 248.2335 168.987805 248.2335 
z
" clip-path="url(#p8944d98b79)" style="fill: #1b1b1b"/>
   </g>
   <g id="patch_42">
    <path d="M 155.858537 239.568183 
L 168.987805 241.425037 
L 168.987805 248.2335 
L 155.858537 250.090354 
z
" clip-path="url(#p8944d98b79)" style="fill: #1b1b1b"/>
   </g>
   <g id="line2d_9">
    <path d="M 83.319241 191.834039 
L 98.846896 197.854345 
L 101.675717 200.736763 
L 103.348094 204.412863 
L 103.662313 208.439254 
L 102.580477 212.330293 
L 100.233069 215.616664 
L 96.903222 217.901982 
L 92.992565 218.910603 
L 88.97278 218.520874 
L 85.328714 216.779801 
L 74.597832 204.04401 
L 72.772787 202.184386 
L 71.693834 199.812708 
L 71.491112 197.215037 
L 72.189071 194.704689 
L 73.703528 192.58445 
L 75.851816 191.110051 
L 78.374821 190.459327 
L 80.96823 190.710766 
L 83.319241 191.834039 
L 83.319241 191.834039 
" clip-path="url(#p8944d98b79)" style="fill: none; stroke: #1d2a36; stroke-width: 1.7; stroke-linecap: round"/>
   </g>
   <g id="line2d_10">
    <path d="M 103.554075 187.082479 
L 156.86333 224.189676 
L 161.484949 228.004701 
L 164.523034 233.170339 
L 165.611148 239.063537 
L 164.618049 244.973489 
L 161.663518 250.187367 
L 157.103916 254.0763 
L 151.489198 256.171227 
L 145.496581 256.219467 
L 139.848865 254.215202 
L 80.621535 227.551667 
L 74.392397 222.409677 
L 70.297586 215.447295 
L 68.830997 207.504289 
L 70.169523 199.538702 
L 74.151717 192.511301 
L 80.297267 187.269695 
L 87.864931 184.446099 
L 95.941935 184.381079 
L 103.554075 187.082479 
L 103.554075 187.082479 
" clip-path="url(#p8944d98b79)" style="fill: none; stroke: #1d2a36; stroke-width: 1.7; stroke-linecap: round"/>
   </g>
   <g id="patch_43">
    <path d="M 92.087805 216.695122 
C 94.574892 216.695122 96.96045 215.706992 98.719087 213.948355 
C 100.477723 212.189719 101.465854 209.804161 101.465854 207.317073 
C 101.465854 204.829986 100.477723 202.444428 98.719087 200.685791 
C 96.96045 198.927155 94.574892 197.939024 92.087805 197.939024 
C 89.600717 197.939024 87.21516 198.927155 85.456523 200.685791 
C 83.697886 202.444428 82.709756 204.829986 82.709756 207.317073 
C 82.709756 209.804161 83.697886 212.189719 85.456523 213.948355 
C 87.21516 215.706992 89.600717 216.695122 92.087805 216.695122 
z
" clip-path="url(#p8944d98b79)" style="fill: #2c3e50"/>
   </g>
   <g id="patch_44">
    <path d="M 110.843902 204.87878 
C 112.684347 204.87878 114.44966 204.147564 115.751051 202.846173 
C 117.052442 201.544782 117.783659 199.779469 117.783659 197.939024 
C 117.783659 196.09858 117.052442 194.333267 115.751051 193.031876 
C 114.44966 191.730485 112.684347 190.999268 110.843902 190.999268 
C 109.003458 190.999268 107.238145 191.730485 105.936754 193.031876 
C 104.635363 194.333267 103.904146 196.09858 103.904146 197.939024 
C 103.904146 199.779469 104.635363 201.544782 105.936754 202.846173 
C 107.238145 204.147564 109.003458 204.87878 110.843902 204.87878 
z
" clip-path="url(#p8944d98b79)" style="fill: #2c3e50"/>
   </g>
   <g id="patch_45">
    <path d="M 87.893814 198.929091 
L 107.740349 191.731918 
L 113.947456 204.146131 
L 96.281796 215.705055 
z
" clip-path="url(#p8944d98b79)" style="fill: #2c3e50"/>
   </g>
   <g id="patch_46">
    <path d="M 110.843902 204.87878 
C 112.684347 204.87878 114.44966 204.147564 115.751051 202.846173 
C 117.052442 201.544782 117.783659 199.779469 117.783659 197.939024 
C 117.783659 196.09858 117.052442 194.333267 115.751051 193.031876 
C 114.44966 191.730485 112.684347 190.999268 110.843902 190.999268 
C 109.003458 190.999268 107.238145 191.730485 105.936754 193.031876 
C 104.635363 194.333267 103.904146 196.09858 103.904146 197.939024 
C 103.904146 199.779469 104.635363 201.544782 105.936754 202.846173 
C 107.238145 204.147564 109.003458 204.87878 110.843902 204.87878 
z
" clip-path="url(#p8944d98b79)" style="fill: #2c3e50"/>
   </g>
   <g id="patch_47">
    <path d="M 114.595122 192.499756 
C 116.137116 192.499756 117.616162 191.887115 118.706517 190.796761 
C 119.796871 189.706406 120.409512 188.22736 120.409512 186.685366 
C 120.409512 185.143372 119.796871 183.664326 118.706517 182.573971 
C 117.616162 181.483616 116.137116 180.870976 114.595122 180.870976 
C 113.053128 180.870976 111.574082 181.483616 110.483727 182.573971 
C 109.393373 183.664326 108.780732 185.143372 108.780732 186.685366 
C 108.780732 188.22736 109.393373 189.706406 110.483727 190.796761 
C 111.574082 191.887115 113.053128 192.499756 114.595122 192.499756 
z
" clip-path="url(#p8944d98b79)" style="fill: #2c3e50"/>
   </g>
   <g id="patch_48">
    <path d="M 104.260272 195.744481 
L 109.079107 184.846694 
L 120.111137 188.524037 
L 117.427533 200.133568 
z
" clip-path="url(#p8944d98b79)" style="fill: #2c3e50"/>
   </g>
   <g id="patch_49">
    <path d="M 155.858537 249.285717 
C 157.040401 249.285717 158.174018 248.816158 159.009722 247.980453 
C 159.845426 247.144749 160.314985 246.011132 160.314985 244.829268 
C 160.314985 243.647404 159.845426 242.513787 159.009722 241.678083 
C 158.174018 240.842379 157.040401 240.37282 155.858537 240.37282 
C 154.676673 240.37282 153.543056 240.842379 152.707351 241.678083 
C 151.871647 242.513787 151.402088 243.647404 151.402088 244.829268 
C 151.402088 246.011132 151.871647 247.144749 152.707351 247.980453 
C 153.543056 248.816158 154.676673 249.285717 155.858537 249.285717 
z
" clip-path="url(#p8944d98b79)" style="fill: #1b1b1b; stroke: #121212; stroke-width: 1.3; stroke-linejoin: miter"/>
   </g>
   <g id="patch_50">
    <path d="M 114.595122 192.874878 
C 116.2366 192.874878 117.811068 192.222712 118.971768 191.062012 
C 120.132468 189.901312 120.784634 188.326844 120.784634 186.685366 
C 120.784634 185.043888 120.132468 183.46942 118.971768 182.30872 
C 117.811068 181.14802 116.2366 180.495854 114.595122 180.495854 
C 112.953644 180.495854 111.379176 181.14802 110.218476 182.30872 
C 109.057776 183.46942 108.40561 185.043888 108.40561 186.685366 
C 108.40561 188.326844 109.057776 189.901312 110.218476 191.062012 
C 111.379176 192.222712 112.953644 192.874878 114.595122 192.874878 
z
" clip-path="url(#p8944d98b79)" style="fill: #f2e0c9; stroke: #a49888; stroke-width: 1.6; stroke-linejoin: miter"/>
   </g>
   <g id="line2d_11">
    <path d="M 160.732586 232.13016 
L 171.340554 260.901217 
L 172.418856 263.90538 
L 172.404644 267.097172 
L 171.299632 270.091613 
L 169.237101 272.527532 
L 166.465822 274.11112 
L 163.320054 274.651372 
L 160.179221 274.083127 
L 157.422154 272.474924 
L 155.381398 270.020734 
L 135.979609 246.274718 
L 134.307141 241.615199 
L 134.329184 236.664666 
L 136.04308 232.020225 
L 139.242108 228.242066 
L 143.540417 225.785889 
L 148.419568 224.947946 
L 153.291064 225.829306 
L 157.56733 228.323662 
L 160.732586 232.13016 
L 160.732586 232.13016 
" clip-path="url(#p8944d98b79)" style="fill: none; stroke: #282a2c; stroke-width: 1.7; stroke-linecap: round"/>
   </g>
   <g id="line2d_12">
    <path d="M 154.723816 268.601761 
L 150.041674 246.944491 
L 149.669025 244.827443 
L 150.042922 242.710616 
L 151.118268 240.849329 
L 152.765361 239.468081 
L 154.785536 238.733472 
L 156.935131 238.734106 
L 158.954873 239.469906 
L 160.601151 240.852125 
L 161.675399 242.714045 
L 171.998136 262.32019 
L 172.551463 265.463685 
L 171.996282 268.606854 
L 170.399556 271.370583 
L 167.953873 273.421526 
L 164.954218 274.512309 
L 161.762396 274.511368 
L 158.763385 273.418816 
L 156.318912 271.366431 
L 154.723816 268.601761 
L 154.723816 268.601761 
" clip-path="url(#p8944d98b79)" style="fill: none; stroke: #282a2c; stroke-width: 1.7; stroke-linecap: round"/>
   </g>
   <g id="line2d_13">
    <path d="M 155.858537 239.568183 
L 168.987805 241.425037 
L 170.152121 241.630337 
L 171.176003 242.221476 
L 171.935956 243.127152 
L 172.340319 244.23813 
L 172.340319 245.420407 
L 171.935956 246.531384 
L 171.176003 247.437061 
L 170.152121 248.0282 
L 168.987805 248.2335 
L 155.858537 250.090354 
L 154.059139 249.773071 
L 152.476776 248.859494 
L 151.302303 247.459811 
L 150.677379 245.742846 
L 150.677379 243.91569 
L 151.302303 242.198726 
L 152.476776 240.799043 
L 154.059139 239.885465 
L 155.858537 239.568183 
L 155.858537 239.568183 
" clip-path="url(#p8944d98b79)" style="fill: none; stroke: #121212; stroke-width: 1.5; stroke-linecap: round"/>
   </g>
   <g id="line2d_14">
    <path d="M 87.893814 198.929091 
L 107.740349 191.731918 
L 110.050472 191.044774 
L 112.456294 191.189179 
L 114.667638 192.147715 
L 116.417783 193.804768 
L 117.495635 195.960474 
L 117.771191 198.354822 
L 117.211213 200.699018 
L 115.883244 202.710319 
L 113.947456 204.146131 
L 96.281796 215.705055 
L 93.160008 216.633627 
L 89.908898 216.438485 
L 86.920595 215.143167 
L 84.555534 212.903906 
L 83.098976 209.99079 
L 82.726604 206.755185 
L 83.483331 203.587352 
L 85.277884 200.869378 
L 87.893814 198.929091 
L 87.893814 198.929091 
" clip-path="url(#p8944d98b79)" style="fill: none; stroke: #1d2a36; stroke-width: 1.7; stroke-linecap: round"/>
   </g>
   <g id="line2d_15">
    <path d="M 104.260272 195.744481 
L 109.079107 184.846694 
L 110.040626 183.070991 
L 111.551485 181.731236 
L 113.429451 180.989021 
L 115.448014 180.93387 
L 117.363706 181.572434 
L 118.945466 182.827693 
L 120.00251 184.548244 
L 120.407343 186.526564 
L 120.111137 188.524037 
L 117.427533 200.133568 
L 116.279914 202.252955 
L 114.476631 203.852019 
L 112.235187 204.737888 
L 109.825934 204.803713 
L 107.539463 204.041556 
L 105.651557 202.543344 
L 104.389923 200.489783 
L 103.906735 198.128562 
L 104.260272 195.744481 
L 104.260272 195.744481 
" clip-path="url(#p8944d98b79)" style="fill: none; stroke: #1d2a36; stroke-width: 1.7; stroke-linecap: round"/>
   </g>
   <g id="patch_51">
    <path d="M 78.958537 212.943902 
C 82.937877 212.943902 86.754769 211.362894 89.568588 208.549075 
C 92.382406 205.735257 93.963415 201.918365 93.963415 197.939024 
C 93.963415 193.959684 92.382406 190.142792 89.568588 187.328973 
C 86.754769 184.515155 82.937877 182.934146 78.958537 182.934146 
C 74.979196 182.934146 71.162304 184.515155 68.348486 187.328973 
C 65.534667 190.142792 63.953659 193.959684 63.953659 197.939024 
C 63.953659 201.918365 65.534667 205.735257 68.348486 208.549075 
C 71.162304 211.362894 74.979196 212.943902 78.958537 212.943902 
z
" clip-path="url(#p8944d98b79)" style="fill: #f2e0c9; stroke: #a49888; stroke-width: 1.8; stroke-linejoin: miter"/>
   </g>
   <g id="line2d_16">
    <path d="M 120.368589 202.547836 
L 108.821655 170.822896 
" clip-path="url(#p8944d98b79)" style="fill: none; stroke: #5b6b73; stroke-width: 5; stroke-linecap: round"/>
   </g>
   <g id="patch_52">
    <path d="M 120.368589 207.274372 
C 121.622081 207.274372 122.824402 206.776355 123.710755 205.890002 
C 124.597108 205.003649 125.095125 203.801328 125.095125 202.547836 
C 125.095125 201.294344 124.597108 200.092022 123.710755 199.20567 
C 122.824402 198.319317 121.622081 197.821299 120.368589 197.821299 
C 119.115097 197.821299 117.912776 198.319317 117.026423 199.20567 
C 116.14007 200.092022 115.642052 201.294344 115.642052 202.547836 
C 115.642052 203.801328 116.14007 205.003649 117.026423 205.890002 
C 117.912776 206.776355 119.115097 207.274372 120.368589 207.274372 
z
" clip-path="url(#p8944d98b79)" style="fill: #5b6b73; stroke: #5b6b73; stroke-linejoin: miter"/>
   </g>
   <g id="patch_53">
    <path d="M 108.821655 175.549433 
C 110.075147 175.549433 111.277468 175.051415 112.163821 174.165062 
C 113.050174 173.278709 113.548192 172.076388 113.548192 170.822896 
C 113.548192 169.569404 113.050174 168.367083 112.163821 167.48073 
C 111.277468 166.594377 110.075147 166.096359 108.821655 166.096359 
C 107.568163 166.096359 106.365842 166.594377 105.479489 167.48073 
C 104.593136 168.367083 104.095119 169.569404 104.095119 170.822896 
C 104.095119 172.076388 104.593136 173.278709 105.479489 174.165062 
C 106.365842 175.051415 107.568163 175.549433 108.821655 175.549433 
z
" clip-path="url(#p8944d98b79)" style="fill: #5b6b73; stroke: #5b6b73; stroke-linejoin: miter"/>
   </g>
   <g id="line2d_17">
    <path d="M 110.99054 176.289299 
L 99.443606 144.564359 
" clip-path="url(#p8944d98b79)" style="fill: none; stroke: #5b6b73; stroke-width: 5; stroke-linecap: round"/>
   </g>
   <g id="patch_54">
    <path d="M 110.99054 181.015836 
C 112.244032 181.015836 113.446353 180.517818 114.332706 179.631465 
C 115.219059 178.745112 115.717077 177.542791 115.717077 176.289299 
C 115.717077 175.035807 115.219059 173.833486 114.332706 172.947133 
C 113.446353 172.06078 112.244032 171.562763 110.99054 171.562763 
C 109.737048 171.562763 108.534727 172.06078 107.648374 172.947133 
C 106.762021 173.833486 106.264003 175.035807 106.264003 176.289299 
C 106.264003 177.542791 106.762021 178.745112 107.648374 179.631465 
C 108.534727 180.517818 109.737048 181.015836 110.99054 181.015836 
z
" clip-path="url(#p8944d98b79)" style="fill: #5b6b73; stroke: #5b6b73; stroke-linejoin: miter"/>
   </g>
   <g id="patch_55">
    <path d="M 99.443606 149.290896 
C 100.697098 149.290896 101.89942 148.792878 102.785772 147.906526 
C 103.672125 147.020173 104.170143 145.817852 104.170143 144.564359 
C 104.170143 143.310867 103.672125 142.108546 102.785772 141.222193 
C 101.89942 140.335841 100.697098 139.837823 99.443606 139.837823 
C 98.190114 139.837823 96.987793 140.335841 96.10144 141.222193 
C 95.215087 142.108546 94.71707 143.310867 94.71707 144.564359 
C 94.71707 145.817852 95.215087 147.020173 96.10144 147.906526 
C 96.987793 148.792878 98.190114 149.290896 99.443606 149.290896 
z
" clip-path="url(#p8944d98b79)" style="fill: #5b6b73; stroke: #5b6b73; stroke-linejoin: miter"/>
   </g>
   <g id="patch_56">
    <path d="M 106.060895 162.239794 
Q 111.044233 173.147923 113.472252 182.366368 
" clip-path="url(#p8944d98b79)" style="fill: none; stroke-dasharray: 2.2,0; stroke-dashoffset: 0; stroke: #c0392b; stroke-width: 2.2; stroke-linecap: round"/>
    <path d="M 114.753585 176.237895 
L 113.472252 182.366368 
L 109.338273 177.664218 
z
" clip-path="url(#p8944d98b79)" style="fill: #c0392b; stroke-dasharray: 2.2,0; stroke-dashoffset: 0; stroke: #c0392b; stroke-width: 2.2; stroke-linecap: round"/>
   </g>
  </g>
 </g>
 <defs>
  <clipPath id="p8944d98b79">
   <rect x="5.809756" y="1" width="247.580488" height="307.6"/>
  </clipPath>
 </defs>
</svg>
