<?xml version="1.0" encoding="utf-8" standalone="no"?>
<!DOCTYPE svg PUBLIC "-//W3C//DTD SVG 1.1//EN"
  "http://www.w3.org/Graphics/SVG/1.1/DTD/svg11.dtd">
<svg xmlns:xlink="http://www.w3.org/1999/xlink" width="259.2pt" height="309.6pt" viewBox="0 0 259.2 309.6" xmlns="http://www.w3.org/2000/svg" version="1.1">
 <metadata>
  <rdf:RDF xmlns:dc="http://purl.org/dc/elements/1.1/" xmlns:cc="http://creativecommons.org/ns#" xmlns:rdf="http://www.w3.org/1999/02/22-rdf-syntax-ns#">
   <cc:Work>
    <dc:type rdf:resource="http://purl.org/dc/dcmitype/StillImage"/>
    <dc:date>2026-07-10T23:04:57.370687</dc:date>
    <dc:format>image/svg+xml</dc:format>
    <dc:creator>
     <cc:Agent>
      <dc:title>Matplotlib v3.10.8, https://matplotlib.org/</dc:title>
     </cc:Agent>
    </dc:creator>
   </cc:Work>
  </rdf:RDF>
 </metadata>
 <defs>
  <style type="text/css">*{stroke-linejoin: round; stroke-linecap: butt}</style>
 </defs>
 <g id="figure_1">
  <g id="patch_1">
   <path d="M 0 309.6 
L 259.2 309.6 
L 259.2 0 
L 0 0 
L 0 309.6 
z
" style="fill: none"/>
  </g>
  <g id="axes_1">
   <g id="line2d_1">
    <path d="M 17.063415 299.221951 
L 242.136585 299.221951 
" clip-path="url(#p42e50fff54)" style="fill: none; stroke: #c3c3c3; stroke-width: 3; stroke-linecap: round"/>
   </g>
   <g id="patch_2">
    <path d="M 110.843902 261.709756 
L 148.356098 261.709756 
L 148.356098 248.580488 
L 110.843902 248.580488 
z
" clip-path="url(#p42e50fff54)" style="fill: #9aa5b1; stroke: #9aa5b1"/>
   </g>
   <g id="patch_3">
    <path d="M 115.345366 282.341463 
L 121.347317 282.341463 
L 121.347317 261.709756 
L 115.345366 261.709756 
z
" clip-path="url(#p42e50fff54)" style="fill: #9aa5b1; stroke: #9aa5b1; stroke-linejoin: miter"/>
   </g>
   <g id="patch_4">
    <path d="M 137.852683 282.341463 
L 143.854634 282.341463 
L 143.854634 261.709756 
L 137.852683 261.709756 
z
" clip-path="url(#p42e50fff54)" style="fill: #9aa5b1; stroke: #9aa5b1; stroke-linejoin: miter"/>
   </g>
   <g id="patch_5">
    <path d="M 125.84878 191.561951 
C 128.136901 191.561951 130.331614 190.652871 131.94956 189.034926 
C 133.567505 187.41698 134.476585 185.222267 134.476585 182.934146 
C 134.476585 180.646026 133.567505 178.451313 131.94956 176.833367 
C 130.331614 175.215421 128.136901 174.306341 125.84878 174.306341 
C 123.56066 174.306341 121.365947 175.215421 119.748001 176.833367 
C 118.130056 178.451313 117.220976 180.646026 117.220976 182.934146 
C 117.220976 185.222267 118.130056 187.41698 119.748001 189.034926 
C 121.365947 190.652871 123.56066 191.561951 125.84878 191.561951 
z
" clip-path="url(#p42e50fff54)" style="fill: #9aa0a6; fill-opacity: 0.285"/>
   </g>
   <g id="patch_6">
    <path d="M 146.480488 166.811405 
C 148.173697 166.811405 149.797785 166.138686 150.995065 164.941406 
C 152.192344 163.744126 152.865063 162.120039 152.865063 160.426829 
C 152.865063 158.73362 152.192344 157.109532 150.995065 155.912253 
C 149.797785 154.714973 148.173697 154.042254 146.480488 154.042254 
C 144.787279 154.042254 143.163191 154.714973 141.965911 155.912253 
C 140.768631 157.109532 140.095912 158.73362 140.095912 160.426829 
C 140.095912 162.120039 140.768631 163.744126 141.965911 164.941406 
C 143.163191 166.138686 144.787279 166.811405 146.480488 166.811405 
z
" clip-path="url(#p42e50fff54)" style="fill: #9aa0a6; fill-opacity: 0.285"/>
   </g>
   <g id="patch_7">
    <path d="M 119.488758 177.104126 
L 141.774071 156.112614 
L 151.186904 164.741044 
L 132.208803 188.764167 
z
" clip-path="url(#p42e50fff54)" style="fill: #9aa0a6; fill-opacity: 0.285"/>
   </g>
   <g id="patch_8">
    <path d="M 146.480488 166.811405 
C 148.173697 166.811405 149.797785 166.138686 150.995065 164.941406 
C 152.192344 163.744126 152.865063 162.120039 152.865063 160.426829 
C 152.865063 158.73362 152.192344 157.109532 150.995065 155.912253 
C 149.797785 154.714973 148.173697 154.042254 146.480488 154.042254 
C 144.787279 154.042254 143.163191 154.714973 141.965911 155.912253 
C 140.768631 157.109532 140.095912 158.73362 140.095912 160.426829 
C 140.095912 162.120039 140.768631 163.744126 141.965911 164.941406 
C 143.163191 166.138686 144.787279 166.811405 146.480488 166.811405 
z
" clip-path="url(#p42e50fff54)" style="fill: #9aa0a6; fill-opacity: 0.285"/>
   </g>
   <g id="patch_9">
    <path d="M 157.734146 137.641922 
C 159.152781 137.641922 160.513503 137.078292 161.51663 136.075166 
C 162.519756 135.07204 163.083385 133.711318 163.083385 132.292683 
C 163.083385 130.874048 162.519756 129.513326 161.51663 128.5102 
C 160.513503 127.507073 159.152781 126.943444 157.734146 126.943444 
C 156.315512 126.943444 154.954789 127.507073 153.951663 128.5102 
C 152.948537 129.513326 152.384907 130.874048 152.384907 132.292683 
C 152.384907 133.711318 152.948537 135.07204 153.951663 136.075166 
C 154.954789 137.078292 156.315512 137.641922 157.734146 137.641922 
z
" clip-path="url(#p42e50fff54)" style="fill: #9aa0a6; fill-opacity: 0.285"/>
   </g>
   <g id="patch_10">
    <path d="M 140.552558 158.055657 
L 152.767503 130.306025 
L 162.70079 134.27934 
L 152.408417 162.798001 
z
" clip-path="url(#p42e50fff54)" style="fill: #9aa0a6; fill-opacity: 0.285"/>
   </g>
   <g id="patch_11">
    <path d="M 157.734146 138.17272 
C 159.29355 138.17272 160.789295 137.553162 161.89196 136.450497 
C 162.994625 135.347832 163.614183 133.852087 163.614183 132.292683 
C 163.614183 130.733279 162.994625 129.237534 161.89196 128.134869 
C 160.789295 127.032204 159.29355 126.412646 157.734146 126.412646 
C 156.174742 126.412646 154.678998 127.032204 153.576333 128.134869 
C 152.473668 129.237534 151.85411 130.733279 151.85411 132.292683 
C 151.85411 133.852087 152.473668 135.347832 153.576333 136.450497 
C 154.678998 137.553162 156.174742 138.17272 157.734146 138.17272 
z
" clip-path="url(#p42e50fff54)" style="fill: #9aa0a6; fill-opacity: 0.285; stroke: #7d8288; stroke-opacity: 0.85; stroke-width: 1.3; stroke-linejoin: miter"/>
   </g>
   <g id="line2d_2">
    <path d="M 119.488758 177.104126 
L 141.774071 156.112614 
L 143.533452 154.763104 
L 145.648288 154.096723 
L 147.863499 154.193846 
L 149.9119 155.042758 
L 151.546421 156.54107 
L 152.569916 158.508061 
L 152.858936 160.706484 
L 152.378621 162.871176 
L 151.186904 164.741044 
L 132.208803 188.764167 
L 129.831262 190.587829 
L 126.973375 191.488344 
L 123.979846 191.357097 
L 121.211738 190.209918 
L 119.002925 188.185173 
L 117.619824 185.527077 
L 117.229256 182.556235 
L 117.87833 179.630975 
L 119.488758 177.104126 
L 119.488758 177.104126 
" clip-path="url(#p42e50fff54)" style="fill: none; stroke: #7d8288; stroke-opacity: 0.85; stroke-width: 1.7; stroke-linecap: round"/>
   </g>
   <g id="line2d_3">
    <path d="M 140.552558 158.055657 
L 152.767503 130.306025 
L 153.746505 128.727143 
L 155.206475 127.578318 
L 156.97132 126.998115 
L 158.828173 127.056514 
L 160.553071 127.746473 
L 161.937964 128.984772 
L 162.815815 130.622054 
L 163.080742 132.460838 
L 162.70079 134.27934 
L 152.408417 162.798001 
L 151.239931 164.682473 
L 149.497385 166.053652 
L 147.390958 166.746153 
L 145.174714 166.67645 
L 143.115965 165.852951 
L 141.463028 164.374981 
L 140.41527 162.420806 
L 140.099068 160.226128 
L 140.552558 158.055657 
L 140.552558 158.055657 
" clip-path="url(#p42e50fff54)" style="fill: none; stroke: #7d8288; stroke-opacity: 0.85; stroke-width: 1.7; stroke-linecap: round"/>
   </g>
   <g id="patch_12">
    <path d="M 123.973171 171.680488 
C 125.962841 171.680488 127.871287 170.889984 129.278196 169.483074 
C 130.685105 168.076165 131.47561 166.167719 131.47561 164.178049 
C 131.47561 162.188379 130.685105 160.279932 129.278196 158.873023 
C 127.871287 157.466114 125.962841 156.67561 123.973171 156.67561 
C 121.983501 156.67561 120.075054 157.466114 118.668145 158.873023 
C 117.261236 160.279932 116.470732 162.188379 116.470732 164.178049 
C 116.470732 166.167719 117.261236 168.076165 118.668145 169.483074 
C 120.075054 170.889984 121.983501 171.680488 123.973171 171.680488 
z
" clip-path="url(#p42e50fff54)" style="fill: #9aa0a6; fill-opacity: 0.3"/>
   </g>
   <g id="patch_13">
    <path d="M 125.84878 194.562927 
C 128.932769 194.562927 131.890861 193.337645 134.07157 191.156936 
C 136.252279 188.976227 137.477561 186.018135 137.477561 182.934146 
C 137.477561 179.850158 136.252279 176.892066 134.07157 174.711357 
C 131.890861 172.530648 128.932769 171.305366 125.84878 171.305366 
C 122.764792 171.305366 119.8067 172.530648 117.625991 174.711357 
C 115.445282 176.892066 114.22 179.850158 114.22 182.934146 
C 114.22 186.018135 115.445282 188.976227 117.625991 191.156936 
C 119.8067 193.337645 122.764792 194.562927 125.84878 194.562927 
z
" clip-path="url(#p42e50fff54)" style="fill: #9aa0a6; fill-opacity: 0.3"/>
   </g>
   <g id="patch_14">
    <path d="M 131.438377 163.431528 
L 137.41985 181.777039 
L 114.277711 184.091253 
L 116.507965 164.924569 
z
" clip-path="url(#p42e50fff54)" style="fill: #9aa0a6; fill-opacity: 0.3"/>
   </g>
   <g id="patch_15">
    <path d="M 125.84878 206.191707 
C 132.016758 206.191707 137.932941 203.741144 142.29436 199.379725 
C 146.655778 195.018307 149.106341 189.102124 149.106341 182.934146 
C 149.106341 176.766169 146.655778 170.849986 142.29436 166.488567 
C 137.932941 162.127149 132.016758 159.676585 125.84878 159.676585 
C 119.680803 159.676585 113.76462 162.127149 109.403201 166.488567 
C 105.041783 170.849986 102.59122 176.766169 102.59122 182.934146 
C 102.59122 189.102124 105.041783 195.018307 109.403201 199.379725 
C 113.76462 203.741144 119.680803 206.191707 125.84878 206.191707 
z
" clip-path="url(#p42e50fff54)" style="fill: #9aa0a6; fill-opacity: 0.3"/>
   </g>
   <g id="patch_16">
    <path d="M 129.6 258.333659 
C 134.176241 258.333659 138.565667 256.515499 141.801559 253.279607 
C 145.03745 250.043716 146.85561 245.65429 146.85561 241.078049 
C 146.85561 236.501808 145.03745 232.112381 141.801559 228.87649 
C 138.565667 225.640599 134.176241 223.822439 129.6 223.822439 
C 125.023759 223.822439 120.634333 225.640599 117.398441 228.87649 
C 114.16255 232.112381 112.34439 236.501808 112.34439 241.078049 
C 112.34439 245.65429 114.16255 250.043716 117.398441 253.279607 
C 120.634333 256.515499 125.023759 258.333659 129.6 258.333659 
z
" clip-path="url(#p42e50fff54)" style="fill: #9aa0a6; fill-opacity: 0.3"/>
   </g>
   <g id="patch_17">
    <path d="M 149.058089 181.436772 
L 146.81981 239.967093 
L 112.38019 242.189004 
L 102.639472 184.431521 
z
" clip-path="url(#p42e50fff54)" style="fill: #9aa0a6; fill-opacity: 0.3"/>
   </g>
   <g id="patch_18">
    <path d="M 129.6 255.332683 
C 133.380373 255.332683 137.006421 253.830725 139.679548 251.157597 
C 142.352676 248.48447 143.854634 244.858422 143.854634 241.078049 
C 143.854634 237.297676 142.352676 233.671628 139.679548 230.9985 
C 137.006421 228.325373 133.380373 226.823415 129.6 226.823415 
C 125.819627 226.823415 122.193579 228.325373 119.520452 230.9985 
C 116.847324 233.671628 115.345366 237.297676 115.345366 241.078049 
C 115.345366 244.858422 116.847324 248.48447 119.520452 251.157597 
C 122.193579 253.830725 125.819627 255.332683 129.6 255.332683 
z
" clip-path="url(#p42e50fff54)" style="fill: #9aa0a6; fill-opacity: 0.3"/>
   </g>
   <g id="patch_19">
    <path d="M 155.858537 270.900244 
C 158.295882 270.900244 160.633729 269.931876 162.357193 268.208412 
C 164.080657 266.484949 165.049024 264.147102 165.049024 261.709756 
C 165.049024 259.27241 164.080657 256.934564 162.357193 255.2111 
C 160.633729 253.487636 158.295882 252.519268 155.858537 252.519268 
C 153.421191 252.519268 151.083344 253.487636 149.35988 255.2111 
C 147.636417 256.934564 146.668049 259.27241 146.668049 261.709756 
C 146.668049 264.147102 147.636417 266.484949 149.35988 268.208412 
C 151.083344 269.931876 153.421191 270.900244 155.858537 270.900244 
z
" clip-path="url(#p42e50fff54)" style="fill: #9aa0a6; fill-opacity: 0.3"/>
   </g>
   <g id="patch_20">
    <path d="M 138.40682 229.869369 
L 161.536618 254.483107 
L 150.180455 268.936405 
L 120.79318 252.286729 
z
" clip-path="url(#p42e50fff54)" style="fill: #9aa0a6; fill-opacity: 0.3"/>
   </g>
   <g id="patch_21">
    <path d="M 155.858537 270.900244 
C 158.295882 270.900244 160.633729 269.931876 162.357193 268.208412 
C 164.080657 266.484949 165.049024 264.147102 165.049024 261.709756 
C 165.049024 259.27241 164.080657 256.934564 162.357193 255.2111 
C 160.633729 253.487636 158.295882 252.519268 155.858537 252.519268 
C 153.421191 252.519268 151.083344 253.487636 149.35988 255.2111 
C 147.636417 256.934564 146.668049 259.27241 146.668049 261.709756 
C 146.668049 264.147102 147.636417 266.484949 149.35988 268.208412 
C 151.083344 269.931876 153.421191 270.900244 155.858537 270.900244 
z
" clip-path="url(#p42e50fff54)" style="fill: #9aa0a6; fill-opacity: 0.3"/>
   </g>
   <g id="patch_22">
    <path d="M 163.360976 299.784634 
C 165.002453 299.784634 166.576922 299.132468 167.737622 297.971768 
C 168.898322 296.811068 169.550488 295.2366 169.550488 293.595122 
C 169.550488 291.953644 168.898322 290.379176 167.737622 289.218476 
C 166.576922 288.057776 165.002453 287.40561 163.360976 287.40561 
C 161.719498 287.40561 160.14503 288.057776 158.98433 289.218476 
C 157.823629 290.379176 157.171463 291.953644 157.171463 293.595122 
C 157.171463 295.2366 157.823629 296.811068 158.98433 297.971768 
C 160.14503 299.132468 161.719498 299.784634 163.360976 299.784634 
z
" clip-path="url(#p42e50fff54)" style="fill: #9aa0a6; fill-opacity: 0.3"/>
   </g>
   <g id="patch_23">
    <path d="M 164.804715 259.604773 
L 169.385953 292.17748 
L 157.335998 295.012764 
L 146.912358 263.814739 
z
" clip-path="url(#p42e50fff54)" style="fill: #9aa0a6; fill-opacity: 0.3"/>
   </g>
   <g id="patch_24">
    <path d="M 163.360976 298.856207 
C 164.756232 298.856207 166.09453 298.301866 167.081125 297.315271 
C 168.06772 296.328676 168.622061 294.990378 168.622061 293.595122 
C 168.622061 292.199866 168.06772 290.861568 167.081125 289.874973 
C 166.09453 288.888378 164.756232 288.334037 163.360976 288.334037 
C 161.965719 288.334037 160.627422 288.888378 159.640826 289.874973 
C 158.654231 290.861568 158.09989 292.199866 158.09989 293.595122 
C 158.09989 294.990378 158.654231 296.328676 159.640826 297.315271 
C 160.627422 298.301866 161.965719 298.856207 163.360976 298.856207 
z
" clip-path="url(#p42e50fff54)" style="fill: #9aa0a6; fill-opacity: 0.3"/>
   </g>
   <g id="patch_25">
    <path d="M 176.490244 296.999354 
C 177.393057 296.999354 178.259014 296.640662 178.897399 296.002277 
C 179.535784 295.363892 179.894476 294.497935 179.894476 293.595122 
C 179.894476 292.692309 179.535784 291.826352 178.897399 291.187967 
C 178.259014 290.549582 177.393057 290.19089 176.490244 290.19089 
C 175.587431 290.19089 174.721474 290.549582 174.083089 291.187967 
C 173.444704 291.826352 173.086012 292.692309 173.086012 293.595122 
C 173.086012 294.497935 173.444704 295.363892 174.083089 296.002277 
C 174.721474 296.640662 175.587431 296.999354 176.490244 296.999354 
z
" clip-path="url(#p42e50fff54)" style="fill: #9aa0a6; fill-opacity: 0.3"/>
   </g>
   <g id="patch_26">
    <path d="M 163.360976 288.334037 
L 176.490244 290.19089 
L 176.490244 296.999354 
L 163.360976 298.856207 
z
" clip-path="url(#p42e50fff54)" style="fill: #9aa0a6; fill-opacity: 0.3"/>
   </g>
   <g id="line2d_4">
    <path d="M 131.438377 163.431528 
L 137.41985 181.777039 
L 137.117783 185.80436 
L 135.456508 189.485491 
L 132.636399 192.376433 
L 128.997603 194.128495 
L 124.979013 194.530354 
L 121.06533 193.53354 
L 117.728601 191.258281 
L 115.371286 187.97901 
L 114.277711 184.091253 
L 116.507965 164.924569 
L 116.702847 162.326298 
L 117.774637 159.951375 
L 119.594062 158.086251 
L 121.941672 156.955888 
L 124.534311 156.696624 
L 127.059268 157.339731 
L 129.211996 158.807639 
L 130.732845 160.923298 
L 131.438377 163.431528 
L 131.438377 163.431528 
" clip-path="url(#p42e50fff54)" style="fill: none; stroke: #7d8288; stroke-opacity: 0.85; stroke-width: 1.7; stroke-linecap: round"/>
   </g>
   <g id="line2d_5">
    <path d="M 149.058089 181.436772 
L 146.81981 239.967093 
L 146.161297 245.923614 
L 143.505248 251.295688 
L 139.172021 255.435364 
L 133.684266 257.843335 
L 127.703889 258.229166 
L 121.952211 256.546319 
L 117.122969 252.99777 
L 113.798641 248.011527 
L 112.38019 242.189004 
L 102.639472 184.431521 
L 103.527032 176.403167 
L 107.106925 169.162546 
L 112.947362 163.582983 
L 120.3439 160.337456 
L 128.404408 159.817423 
L 136.15667 162.085608 
L 142.665649 166.868435 
L 147.146264 173.589023 
L 149.058089 181.436772 
L 149.058089 181.436772 
" clip-path="url(#p42e50fff54)" style="fill: none; stroke: #7d8288; stroke-opacity: 0.85; stroke-width: 1.7; stroke-linecap: round"/>
   </g>
   <g id="patch_27">
    <path d="M 125.84878 192.312195 
C 128.335868 192.312195 130.721426 191.324065 132.480062 189.565428 
C 134.238699 187.806792 135.226829 185.421234 135.226829 182.934146 
C 135.226829 180.447059 134.238699 178.061501 132.480062 176.302864 
C 130.721426 174.544228 128.335868 173.556098 125.84878 173.556098 
C 123.361693 173.556098 120.976135 174.544228 119.217499 176.302864 
C 117.458862 178.061501 116.470732 180.447059 116.470732 182.934146 
C 116.470732 185.421234 117.458862 187.806792 119.217499 189.565428 
C 120.976135 191.324065 123.361693 192.312195 125.84878 192.312195 
z
" clip-path="url(#p42e50fff54)" style="fill: #9aa0a6; fill-opacity: 0.3"/>
   </g>
   <g id="patch_28">
    <path d="M 105.217073 167.366585 
C 107.057518 167.366585 108.822831 166.635369 110.124222 165.333978 
C 111.425613 164.032587 112.156829 162.267274 112.156829 160.426829 
C 112.156829 158.586384 111.425613 156.821072 110.124222 155.519681 
C 108.822831 154.21829 107.057518 153.487073 105.217073 153.487073 
C 103.376628 153.487073 101.611316 154.21829 100.309925 155.519681 
C 99.008534 156.821072 98.277317 158.586384 98.277317 160.426829 
C 98.277317 162.267274 99.008534 164.032587 100.309925 165.333978 
C 101.611316 166.635369 103.376628 167.366585 105.217073 167.366585 
z
" clip-path="url(#p42e50fff54)" style="fill: #9aa0a6; fill-opacity: 0.3"/>
   </g>
   <g id="patch_29">
    <path d="M 118.935713 189.271125 
L 100.101403 165.116193 
L 110.332743 155.737465 
L 132.761848 176.597168 
z
" clip-path="url(#p42e50fff54)" style="fill: #9aa0a6; fill-opacity: 0.3"/>
   </g>
   <g id="patch_30">
    <path d="M 105.217073 167.366585 
C 107.057518 167.366585 108.822831 166.635369 110.124222 165.333978 
C 111.425613 164.032587 112.156829 162.267274 112.156829 160.426829 
C 112.156829 158.586384 111.425613 156.821072 110.124222 155.519681 
C 108.822831 154.21829 107.057518 153.487073 105.217073 153.487073 
C 103.376628 153.487073 101.611316 154.21829 100.309925 155.519681 
C 99.008534 156.821072 98.277317 158.586384 98.277317 160.426829 
C 98.277317 162.267274 99.008534 164.032587 100.309925 165.333978 
C 101.611316 166.635369 103.376628 167.366585 105.217073 167.366585 
z
" clip-path="url(#p42e50fff54)" style="fill: #9aa0a6; fill-opacity: 0.3"/>
   </g>
   <g id="patch_31">
    <path d="M 93.963415 138.107073 
C 95.505409 138.107073 96.984455 137.494432 98.074809 136.404078 
C 99.165164 135.313723 99.777805 133.834677 99.777805 132.292683 
C 99.777805 130.750689 99.165164 129.271643 98.074809 128.181288 
C 96.984455 127.090934 95.505409 126.478293 93.963415 126.478293 
C 92.42142 126.478293 90.942375 127.090934 89.85202 128.181288 
C 88.761665 129.271643 88.149024 130.750689 88.149024 132.292683 
C 88.149024 133.834677 88.761665 135.313723 89.85202 136.404078 
C 90.942375 137.494432 92.42142 138.107073 93.963415 138.107073 
z
" clip-path="url(#p42e50fff54)" style="fill: #9aa0a6; fill-opacity: 0.3"/>
   </g>
   <g id="patch_32">
    <path d="M 98.773671 163.00419 
L 88.564889 134.452093 
L 99.36194 130.133273 
L 111.660475 157.849469 
z
" clip-path="url(#p42e50fff54)" style="fill: #9aa0a6; fill-opacity: 0.3"/>
   </g>
   <g id="patch_33">
    <path d="M 163.360976 298.051571 
C 164.54284 298.051571 165.676457 297.582011 166.512161 296.746307 
C 167.347865 295.910603 167.817424 294.776986 167.817424 293.595122 
C 167.817424 292.413258 167.347865 291.279641 166.512161 290.443937 
C 165.676457 289.608233 164.54284 289.138673 163.360976 289.138673 
C 162.179112 289.138673 161.045495 289.608233 160.20979 290.443937 
C 159.374086 291.279641 158.904527 292.413258 158.904527 293.595122 
C 158.904527 294.776986 159.374086 295.910603 160.20979 296.746307 
C 161.045495 297.582011 162.179112 298.051571 163.360976 298.051571 
z
" clip-path="url(#p42e50fff54)" style="fill: #9aa0a6; fill-opacity: 0.3; stroke: #7d8288; stroke-opacity: 0.85; stroke-width: 1.3; stroke-linejoin: miter"/>
   </g>
   <g id="patch_34">
    <path d="M 93.963415 138.482195 
C 95.604892 138.482195 97.179361 137.830029 98.340061 136.669329 
C 99.500761 135.508629 100.152927 133.934161 100.152927 132.292683 
C 100.152927 130.651205 99.500761 129.076737 98.340061 127.916037 
C 97.179361 126.755337 95.604892 126.103171 93.963415 126.103171 
C 92.321937 126.103171 90.747469 126.755337 89.586769 127.916037 
C 88.426068 129.076737 87.773902 130.651205 87.773902 132.292683 
C 87.773902 133.934161 88.426068 135.508629 89.586769 136.669329 
C 90.747469 137.830029 92.321937 138.482195 93.963415 138.482195 
z
" clip-path="url(#p42e50fff54)" style="fill: #9aa0a6; fill-opacity: 0.3; stroke: #7d8288; stroke-opacity: 0.85; stroke-width: 1.6; stroke-linejoin: miter"/>
   </g>
   <g id="line2d_6">
    <path d="M 138.40682 229.869369 
L 161.536618 254.483107 
L 163.665847 256.860945 
L 164.8534 259.823622 
L 164.956039 263.013794 
L 163.961385 266.04668 
L 161.989408 268.556469 
L 159.277958 270.240443 
L 156.154074 270.895491 
L 152.994545 270.442603 
L 150.180455 268.936405 
L 120.79318 252.286729 
L 117.490702 248.598653 
L 115.648784 244.003481 
L 115.489588 239.055459 
L 117.032317 234.351391 
L 120.090893 230.458657 
L 124.296408 227.846779 
L 129.141615 226.830787 
L 134.04211 227.533225 
L 138.40682 229.869369 
L 138.40682 229.869369 
" clip-path="url(#p42e50fff54)" style="fill: none; stroke: #7d8288; stroke-opacity: 0.85; stroke-width: 1.7; stroke-linecap: round"/>
   </g>
   <g id="line2d_7">
    <path d="M 164.804715 259.604773 
L 169.385953 292.17748 
L 169.507464 294.323638 
L 168.887619 296.381926 
L 167.601178 298.104085 
L 165.803307 299.282396 
L 163.710854 299.774737 
L 161.576201 299.521726 
L 159.656818 298.553879 
L 158.184211 296.987933 
L 157.335998 295.012764 
L 146.912358 263.814739 
L 146.731932 260.62802 
L 147.652309 257.571774 
L 149.562478 255.01463 
L 152.232045 253.265017 
L 155.33902 252.533964 
L 158.508657 252.909647 
L 161.35865 254.346753 
L 163.545248 256.671946 
L 164.804715 259.604773 
L 164.804715 259.604773 
" clip-path="url(#p42e50fff54)" style="fill: none; stroke: #7d8288; stroke-opacity: 0.85; stroke-width: 1.7; stroke-linecap: round"/>
   </g>
   <g id="line2d_8">
    <path d="M 163.360976 288.334037 
L 176.490244 290.19089 
L 177.65456 290.396191 
L 178.678442 290.987329 
L 179.438395 291.893006 
L 179.842758 293.003983 
L 179.842758 294.186261 
L 179.438395 295.297238 
L 178.678442 296.202915 
L 177.65456 296.794053 
L 176.490244 296.999354 
L 163.360976 298.856207 
L 161.561578 298.538925 
L 159.979215 297.625347 
L 158.804742 296.225665 
L 158.179818 294.5087 
L 158.179818 292.681544 
L 158.804742 290.964579 
L 159.979215 289.564897 
L 161.561578 288.651319 
L 163.360976 288.334037 
L 163.360976 288.334037 
" clip-path="url(#p42e50fff54)" style="fill: none; stroke: #7d8288; stroke-opacity: 0.85; stroke-width: 1.5; stroke-linecap: round"/>
   </g>
   <g id="line2d_9">
    <path d="M 118.935713 189.271125 
L 100.101403 165.116193 
L 98.806059 163.083728 
L 98.283977 160.730801 
L 98.59813 158.341211 
L 99.710624 156.203177 
L 101.487278 154.574578 
L 103.7138 153.651847 
L 106.121639 153.546279 
L 108.420373 154.270606 
L 110.332743 155.737465 
L 132.761848 176.597168 
L 134.512313 179.343743 
L 135.217829 182.523373 
L 134.793299 185.752549 
L 133.289928 188.641784 
L 130.889045 190.842594 
L 127.880231 192.089528 
L 124.626395 192.232188 
L 121.519996 191.253367 
L 118.935713 189.271125 
L 118.935713 189.271125 
" clip-path="url(#p42e50fff54)" style="fill: none; stroke: #7d8288; stroke-opacity: 0.85; stroke-width: 1.7; stroke-linecap: round"/>
   </g>
   <g id="line2d_10">
    <path d="M 98.773671 163.00419 
L 88.564889 134.452093 
L 88.151898 132.47546 
L 88.439862 130.476782 
L 89.394048 128.697128 
L 90.899366 127.351151 
L 92.774255 126.601195 
L 94.792573 126.537717 
L 96.710883 127.168373 
L 98.297808 128.417096 
L 99.36194 130.133273 
L 111.660475 157.849469 
L 112.1534 160.208676 
L 111.809701 162.594195 
L 110.670834 164.718299 
L 108.874163 166.324787 
L 106.636393 167.219895 
L 104.227432 167.295659 
L 101.937837 166.542941 
L 100.043765 165.052529 
L 98.773671 163.00419 
L 98.773671 163.00419 
" clip-path="url(#p42e50fff54)" style="fill: none; stroke: #7d8288; stroke-opacity: 0.85; stroke-width: 1.7; stroke-linecap: round"/>
   </g>
   <g id="patch_35">
    <path d="M 123.973171 179.182927 
C 127.952511 179.182927 131.769403 177.601918 134.583222 174.7881 
C 137.39704 171.974281 138.978049 168.157389 138.978049 164.178049 
C 138.978049 160.198709 137.39704 156.381816 134.583222 153.567998 
C 131.769403 150.754179 127.952511 149.173171 123.973171 149.173171 
C 119.993831 149.173171 116.176938 150.754179 113.36312 153.567998 
C 110.549301 156.381816 108.968293 160.198709 108.968293 164.178049 
C 108.968293 168.157389 110.549301 171.974281 113.36312 174.7881 
C 116.176938 177.601918 119.993831 179.182927 123.973171 179.182927 
z
" clip-path="url(#p42e50fff54)" style="fill: #9aa0a6; fill-opacity: 0.3; stroke: #7d8288; stroke-opacity: 0.85; stroke-width: 1.8; stroke-linejoin: miter"/>
   </g>
   <g id="patch_36">
    <path d="M 125.84878 191.561951 
C 128.136901 191.561951 130.331614 190.652871 131.94956 189.034926 
C 133.567505 187.41698 134.476585 185.222267 134.476585 182.934146 
C 134.476585 180.646026 133.567505 178.451313 131.94956 176.833367 
C 130.331614 175.215421 128.136901 174.306341 125.84878 174.306341 
C 123.56066 174.306341 121.365947 175.215421 119.748001 176.833367 
C 118.130056 178.451313 117.220976 180.646026 117.220976 182.934146 
C 117.220976 185.222267 118.130056 187.41698 119.748001 189.034926 
C 121.365947 190.652871 123.56066 191.561951 125.84878 191.561951 
z
" clip-path="url(#p42e50fff54)" style="fill: #2c3e50; fill-opacity: 0.95"/>
   </g>
   <g id="patch_37">
    <path d="M 150.231707 185.567502 
C 151.924917 185.567502 153.549004 184.894783 154.746284 183.697504 
C 155.943564 182.500224 156.616283 180.876136 156.616283 179.182927 
C 156.616283 177.489718 155.943564 175.86563 154.746284 174.66835 
C 153.549004 173.47107 151.924917 172.798351 150.231707 172.798351 
C 148.538498 172.798351 146.91441 173.47107 145.717131 174.66835 
C 144.519851 175.86563 143.847132 177.489718 143.847132 179.182927 
C 143.847132 180.876136 144.519851 182.500224 145.717131 183.697504 
C 146.91441 184.894783 148.538498 185.567502 150.231707 185.567502 
z
" clip-path="url(#p42e50fff54)" style="fill: #2c3e50; fill-opacity: 0.95"/>
   </g>
   <g id="patch_38">
    <path d="M 124.536861 174.406668 
L 149.260887 172.872593 
L 151.202528 185.493261 
L 127.1607 191.461624 
z
" clip-path="url(#p42e50fff54)" style="fill: #2c3e50; fill-opacity: 0.95"/>
   </g>
   <g id="patch_39">
    <path d="M 150.231707 185.567502 
C 151.924917 185.567502 153.549004 184.894783 154.746284 183.697504 
C 155.943564 182.500224 156.616283 180.876136 156.616283 179.182927 
C 156.616283 177.489718 155.943564 175.86563 154.746284 174.66835 
C 153.549004 173.47107 151.924917 172.798351 150.231707 172.798351 
C 148.538498 172.798351 146.91441 173.47107 145.717131 174.66835 
C 144.519851 175.86563 143.847132 177.489718 143.847132 179.182927 
C 143.847132 180.876136 144.519851 182.500224 145.717131 183.697504 
C 146.91441 184.894783 148.538498 185.567502 150.231707 185.567502 
z
" clip-path="url(#p42e50fff54)" style="fill: #2c3e50; fill-opacity: 0.95"/>
   </g>
   <g id="patch_40">
    <path d="M 146.480488 207.039483 
C 147.899123 207.039483 149.259845 206.475853 150.262971 205.472727 
C 151.266097 204.469601 151.829727 203.108879 151.829727 201.690244 
C 151.829727 200.271609 151.266097 198.910887 150.262971 197.907761 
C 149.259845 196.904634 147.899123 196.341005 146.480488 196.341005 
C 145.061853 196.341005 143.701131 196.904634 142.698005 197.907761 
C 141.694878 198.910887 141.131249 200.271609 141.131249 201.690244 
C 141.131249 203.108879 141.694878 204.469601 142.698005 205.472727 
C 143.701131 206.475853 145.061853 207.039483 146.480488 207.039483 
z
" clip-path="url(#p42e50fff54)" style="fill: #2c3e50; fill-opacity: 0.95"/>
   </g>
   <g id="patch_41">
    <path d="M 156.529414 180.232545 
L 151.756945 202.569653 
L 141.204031 200.810834 
L 143.934001 178.133309 
z
" clip-path="url(#p42e50fff54)" style="fill: #2c3e50; fill-opacity: 0.95"/>
   </g>
   <g id="patch_42">
    <path d="M 146.480488 207.57028 
C 148.039892 207.57028 149.535636 206.950723 150.638302 205.848058 
C 151.740967 204.745393 152.360524 203.249648 152.360524 201.690244 
C 152.360524 200.13084 151.740967 198.635095 150.638302 197.53243 
C 149.535636 196.429765 148.039892 195.810207 146.480488 195.810207 
C 144.921084 195.810207 143.425339 196.429765 142.322674 197.53243 
C 141.220009 198.635095 140.600451 200.13084 140.600451 201.690244 
C 140.600451 203.249648 141.220009 204.745393 142.322674 205.848058 
C 143.425339 206.950723 144.921084 207.57028 146.480488 207.57028 
z
" clip-path="url(#p42e50fff54)" style="fill: #f2e0c9; fill-opacity: 0.95; stroke: #a49888; stroke-width: 1.3; stroke-linejoin: miter"/>
   </g>
   <g id="line2d_11">
    <path d="M 124.536861 174.406668 
L 149.260887 172.872593 
L 151.477696 172.921112 
L 153.54422 173.724899 
L 155.211206 175.187005 
L 156.277592 177.131077 
L 156.614754 179.322633 
L 156.182027 181.497338 
L 155.031603 183.392892 
L 153.302242 184.780661 
L 151.202528 185.493261 
L 127.1607 191.461624 
L 124.165012 191.396058 
L 121.372412 190.309859 
L 119.119728 188.334041 
L 117.678666 185.706916 
L 117.223041 182.745354 
L 117.807808 179.806563 
L 119.362434 177.245005 
L 121.69941 175.369641 
L 124.536861 174.406668 
L 124.536861 174.406668 
" clip-path="url(#p42e50fff54)" style="fill: none; stroke: #1d2a36; stroke-width: 1.7; stroke-linecap: round"/>
   </g>
   <g id="line2d_12">
    <path d="M 156.529414 180.232545 
L 151.756945 202.569653 
L 151.13796 204.321273 
L 149.957215 205.755552 
L 148.357125 206.699494 
L 146.530686 207.039247 
L 144.698191 206.733832 
L 143.080668 205.820085 
L 141.873214 204.408218 
L 141.221464 202.668524 
L 141.204031 200.810834 
L 143.934001 178.133309 
L 144.672789 176.042666 
L 146.082065 174.330785 
L 147.99185 173.204144 
L 150.171794 172.798632 
L 152.358964 173.163161 
L 154.289556 174.253762 
L 155.730712 175.938893 
L 156.508606 178.015302 
L 156.529414 180.232545 
L 156.529414 180.232545 
" clip-path="url(#p42e50fff54)" style="fill: none; stroke: #1d2a36; stroke-width: 1.7; stroke-linecap: round"/>
   </g>
   <g id="patch_43">
    <path d="M 123.973171 171.680488 
C 125.962841 171.680488 127.871287 170.889984 129.278196 169.483074 
C 130.685105 168.076165 131.47561 166.167719 131.47561 164.178049 
C 131.47561 162.188379 130.685105 160.279932 129.278196 158.873023 
C 127.871287 157.466114 125.962841 156.67561 123.973171 156.67561 
C 121.983501 156.67561 120.075054 157.466114 118.668145 158.873023 
C 117.261236 160.279932 116.470732 162.188379 116.470732 164.178049 
C 116.470732 166.167719 117.261236 168.076165 118.668145 169.483074 
C 120.075054 170.889984 121.983501 171.680488 123.973171 171.680488 
z
" clip-path="url(#p42e50fff54)" style="fill: #2c3e50"/>
   </g>
   <g id="patch_44">
    <path d="M 125.84878 194.562927 
C 128.932769 194.562927 131.890861 193.337645 134.07157 191.156936 
C 136.252279 188.976227 137.477561 186.018135 137.477561 182.934146 
C 137.477561 179.850158 136.252279 176.892066 134.07157 174.711357 
C 131.890861 172.530648 128.932769 171.305366 125.84878 171.305366 
C 122.764792 171.305366 119.8067 172.530648 117.625991 174.711357 
C 115.445282 176.892066 114.22 179.850158 114.22 182.934146 
C 114.22 186.018135 115.445282 188.976227 117.625991 191.156936 
C 119.8067 193.337645 122.764792 194.562927 125.84878 194.562927 
z
" clip-path="url(#p42e50fff54)" style="fill: #2c3e50"/>
   </g>
   <g id="patch_45">
    <path d="M 131.438377 163.431528 
L 137.41985 181.777039 
L 114.277711 184.091253 
L 116.507965 164.924569 
z
" clip-path="url(#p42e50fff54)" style="fill: #2c3e50"/>
   </g>
   <g id="patch_46">
    <path d="M 125.84878 206.191707 
C 132.016758 206.191707 137.932941 203.741144 142.29436 199.379725 
C 146.655778 195.018307 149.106341 189.102124 149.106341 182.934146 
C 149.106341 176.766169 146.655778 170.849986 142.29436 166.488567 
C 137.932941 162.127149 132.016758 159.676585 125.84878 159.676585 
C 119.680803 159.676585 113.76462 162.127149 109.403201 166.488567 
C 105.041783 170.849986 102.59122 176.766169 102.59122 182.934146 
C 102.59122 189.102124 105.041783 195.018307 109.403201 199.379725 
C 113.76462 203.741144 119.680803 206.191707 125.84878 206.191707 
z
" clip-path="url(#p42e50fff54)" style="fill: #2c3e50"/>
   </g>
   <g id="patch_47">
    <path d="M 129.6 258.333659 
C 134.176241 258.333659 138.565667 256.515499 141.801559 253.279607 
C 145.03745 250.043716 146.85561 245.65429 146.85561 241.078049 
C 146.85561 236.501808 145.03745 232.112381 141.801559 228.87649 
C 138.565667 225.640599 134.176241 223.822439 129.6 223.822439 
C 125.023759 223.822439 120.634333 225.640599 117.398441 228.87649 
C 114.16255 232.112381 112.34439 236.501808 112.34439 241.078049 
C 112.34439 245.65429 114.16255 250.043716 117.398441 253.279607 
C 120.634333 256.515499 125.023759 258.333659 129.6 258.333659 
z
" clip-path="url(#p42e50fff54)" style="fill: #2c3e50"/>
   </g>
   <g id="patch_48">
    <path d="M 149.058089 181.436772 
L 146.81981 239.967093 
L 112.38019 242.189004 
L 102.639472 184.431521 
z
" clip-path="url(#p42e50fff54)" style="fill: #2c3e50"/>
   </g>
   <g id="patch_49">
    <path d="M 129.6 255.332683 
C 133.380373 255.332683 137.006421 253.830725 139.679548 251.157597 
C 142.352676 248.48447 143.854634 244.858422 143.854634 241.078049 
C 143.854634 237.297676 142.352676 233.671628 139.679548 230.9985 
C 137.006421 228.325373 133.380373 226.823415 129.6 226.823415 
C 125.819627 226.823415 122.193579 228.325373 119.520452 230.9985 
C 116.847324 233.671628 115.345366 237.297676 115.345366 241.078049 
C 115.345366 244.858422 116.847324 248.48447 119.520452 251.157597 
C 122.193579 253.830725 125.819627 255.332683 129.6 255.332683 
z
" clip-path="url(#p42e50fff54)" style="fill: #3c3f42"/>
   </g>
   <g id="patch_50">
    <path d="M 155.858537 270.900244 
C 158.295882 270.900244 160.633729 269.931876 162.357193 268.208412 
C 164.080657 266.484949 165.049024 264.147102 165.049024 261.709756 
C 165.049024 259.27241 164.080657 256.934564 162.357193 255.2111 
C 160.633729 253.487636 158.295882 252.519268 155.858537 252.519268 
C 153.421191 252.519268 151.083344 253.487636 149.35988 255.2111 
C 147.636417 256.934564 146.668049 259.27241 146.668049 261.709756 
C 146.668049 264.147102 147.636417 266.484949 149.35988 268.208412 
C 151.083344 269.931876 153.421191 270.900244 155.858537 270.900244 
z
" clip-path="url(#p42e50fff54)" style="fill: #3c3f42"/>
   </g>
   <g id="patch_51">
    <path d="M 138.40682 229.869369 
L 161.536618 254.483107 
L 150.180455 268.936405 
L 120.79318 252.286729 
z
" clip-path="url(#p42e50fff54)" style="fill: #3c3f42"/>
   </g>
   <g id="patch_52">
    <path d="M 155.858537 270.900244 
C 158.295882 270.900244 160.633729 269.931876 162.357193 268.208412 
C 164.080657 266.484949 165.049024 264.147102 165.049024 261.709756 
C 165.049024 259.27241 164.080657 256.934564 162.357193 255.2111 
C 160.633729 253.487636 158.295882 252.519268 155.858537 252.519268 
C 153.421191 252.519268 151.083344 253.487636 149.35988 255.2111 
C 147.636417 256.934564 146.668049 259.27241 146.668049 261.709756 
C 146.668049 264.147102 147.636417 266.484949 149.35988 268.208412 
C 151.083344 269.931876 153.421191 270.900244 155.858537 270.900244 
z
" clip-path="url(#p42e50fff54)" style="fill: #3c3f42"/>
   </g>
   <g id="patch_53">
    <path d="M 163.360976 299.784634 
C 165.002453 299.784634 166.576922 299.132468 167.737622 297.971768 
C 168.898322 296.811068 169.550488 295.2366 169.550488 293.595122 
C 169.550488 291.953644 168.898322 290.379176 167.737622 289.218476 
C 166.576922 288.057776 165.002453 287.40561 163.360976 287.40561 
C 161.719498 287.40561 160.14503 288.057776 158.98433 289.218476 
C 157.823629 290.379176 157.171463 291.953644 157.171463 293.595122 
C 157.171463 295.2366 157.823629 296.811068 158.98433 297.971768 
C 160.14503 299.132468 161.719498 299.784634 163.360976 299.784634 
z
" clip-path="url(#p42e50fff54)" style="fill: #3c3f42"/>
   </g>
   <g id="patch_54">
    <path d="M 164.804715 259.604773 
L 169.385953 292.17748 
L 157.335998 295.012764 
L 146.912358 263.814739 
z
" clip-path="url(#p42e50fff54)" style="fill: #3c3f42"/>
   </g>
   <g id="patch_55">
    <path d="M 163.360976 298.856207 
C 164.756232 298.856207 166.09453 298.301866 167.081125 297.315271 
C 168.06772 296.328676 168.622061 294.990378 168.622061 293.595122 
C 168.622061 292.199866 168.06772 290.861568 167.081125 289.874973 
C 166.09453 288.888378 164.756232 288.334037 163.360976 288.334037 
C 161.965719 288.334037 160.627422 288.888378 159.640826 289.874973 
C 158.654231 290.861568 158.09989 292.199866 158.09989 293.595122 
C 158.09989 294.990378 158.654231 296.328676 159.640826 297.315271 
C 160.627422 298.301866 161.965719 298.856207 163.360976 298.856207 
z
" clip-path="url(#p42e50fff54)" style="fill: #1b1b1b"/>
   </g>
   <g id="patch_56">
    <path d="M 176.490244 296.999354 
C 177.393057 296.999354 178.259014 296.640662 178.897399 296.002277 
C 179.535784 295.363892 179.894476 294.497935 179.894476 293.595122 
C 179.894476 292.692309 179.535784 291.826352 178.897399 291.187967 
C 178.259014 290.549582 177.393057 290.19089 176.490244 290.19089 
C 175.587431 290.19089 174.721474 290.549582 174.083089 291.187967 
C 173.444704 291.826352 173.086012 292.692309 173.086012 293.595122 
C 173.086012 294.497935 173.444704 295.363892 174.083089 296.002277 
C 174.721474 296.640662 175.587431 296.999354 176.490244 296.999354 
z
" clip-path="url(#p42e50fff54)" style="fill: #1b1b1b"/>
   </g>
   <g id="patch_57">
    <path d="M 163.360976 288.334037 
L 176.490244 290.19089 
L 176.490244 296.999354 
L 163.360976 298.856207 
z
" clip-path="url(#p42e50fff54)" style="fill: #1b1b1b"/>
   </g>
   <g id="line2d_13">
    <path d="M 131.438377 163.431528 
L 137.41985 181.777039 
L 137.117783 185.80436 
L 135.456508 189.485491 
L 132.636399 192.376433 
L 128.997603 194.128495 
L 124.979013 194.530354 
L 121.06533 193.53354 
L 117.728601 191.258281 
L 115.371286 187.97901 
L 114.277711 184.091253 
L 116.507965 164.924569 
L 116.702847 162.326298 
L 117.774637 159.951375 
L 119.594062 158.086251 
L 121.941672 156.955888 
L 124.534311 156.696624 
L 127.059268 157.339731 
L 129.211996 158.807639 
L 130.732845 160.923298 
L 131.438377 163.431528 
L 131.438377 163.431528 
" clip-path="url(#p42e50fff54)" style="fill: none; stroke: #1d2a36; stroke-width: 1.7; stroke-linecap: round"/>
   </g>
   <g id="line2d_14">
    <path d="M 149.058089 181.436772 
L 146.81981 239.967093 
L 146.161297 245.923614 
L 143.505248 251.295688 
L 139.172021 255.435364 
L 133.684266 257.843335 
L 127.703889 258.229166 
L 121.952211 256.546319 
L 117.122969 252.99777 
L 113.798641 248.011527 
L 112.38019 242.189004 
L 102.639472 184.431521 
L 103.527032 176.403167 
L 107.106925 169.162546 
L 112.947362 163.582983 
L 120.3439 160.337456 
L 128.404408 159.817423 
L 136.15667 162.085608 
L 142.665649 166.868435 
L 147.146264 173.589023 
L 149.058089 181.436772 
L 149.058089 181.436772 
" clip-path="url(#p42e50fff54)" style="fill: none; stroke: #1d2a36; stroke-width: 1.7; stroke-linecap: round"/>
   </g>
   <g id="patch_58">
    <path d="M 125.84878 192.312195 
C 128.335868 192.312195 130.721426 191.324065 132.480062 189.565428 
C 134.238699 187.806792 135.226829 185.421234 135.226829 182.934146 
C 135.226829 180.447059 134.238699 178.061501 132.480062 176.302864 
C 130.721426 174.544228 128.335868 173.556098 125.84878 173.556098 
C 123.361693 173.556098 120.976135 174.544228 119.217499 176.302864 
C 117.458862 178.061501 116.470732 180.447059 116.470732 182.934146 
C 116.470732 185.421234 117.458862 187.806792 119.217499 189.565428 
C 120.976135 191.324065 123.361693 192.312195 125.84878 192.312195 
z
" clip-path="url(#p42e50fff54)" style="fill: #2c3e50"/>
   </g>
   <g id="patch_59">
    <path d="M 101.465854 186.122683 
C 103.306298 186.122683 105.071611 185.391466 106.373002 184.090075 
C 107.674393 182.788684 108.40561 181.023372 108.40561 179.182927 
C 108.40561 177.342482 107.674393 175.577169 106.373002 174.275778 
C 105.071611 172.974387 103.306298 172.243171 101.465854 172.243171 
C 99.625409 172.243171 97.860096 172.974387 96.558705 174.275778 
C 95.257314 175.577169 94.526098 177.342482 94.526098 179.182927 
C 94.526098 181.023372 95.257314 182.788684 96.558705 184.090075 
C 97.860096 185.391466 99.625409 186.122683 101.465854 186.122683 
z
" clip-path="url(#p42e50fff54)" style="fill: #2c3e50"/>
   </g>
   <g id="patch_60">
    <path d="M 124.422781 192.203144 
L 100.410614 186.041985 
L 102.521093 172.323868 
L 127.27478 173.665148 
z
" clip-path="url(#p42e50fff54)" style="fill: #2c3e50"/>
   </g>
   <g id="patch_61">
    <path d="M 101.465854 186.122683 
C 103.306298 186.122683 105.071611 185.391466 106.373002 184.090075 
C 107.674393 182.788684 108.40561 181.023372 108.40561 179.182927 
C 108.40561 177.342482 107.674393 175.577169 106.373002 174.275778 
C 105.071611 172.974387 103.306298 172.243171 101.465854 172.243171 
C 99.625409 172.243171 97.860096 172.974387 96.558705 174.275778 
C 95.257314 175.577169 94.526098 177.342482 94.526098 179.182927 
C 94.526098 181.023372 95.257314 182.788684 96.558705 184.090075 
C 97.860096 185.391466 99.625409 186.122683 101.465854 186.122683 
z
" clip-path="url(#p42e50fff54)" style="fill: #2c3e50"/>
   </g>
   <g id="patch_62">
    <path d="M 105.217073 207.504634 
C 106.759067 207.504634 108.238113 206.891993 109.328468 205.801639 
C 110.418823 204.711284 111.031463 203.232238 111.031463 201.690244 
C 111.031463 200.14825 110.418823 198.669204 109.328468 197.578849 
C 108.238113 196.488494 106.759067 195.875854 105.217073 195.875854 
C 103.675079 195.875854 102.196033 196.488494 101.105678 197.578849 
C 100.015324 198.669204 99.402683 200.14825 99.402683 201.690244 
C 99.402683 203.232238 100.015324 204.711284 101.105678 205.801639 
C 102.196033 206.891993 103.675079 207.504634 105.217073 207.504634 
z
" clip-path="url(#p42e50fff54)" style="fill: #2c3e50"/>
   </g>
   <g id="patch_63">
    <path d="M 108.311187 178.042038 
L 110.952352 200.734364 
L 99.481794 202.646124 
L 94.62052 180.323816 
z
" clip-path="url(#p42e50fff54)" style="fill: #2c3e50"/>
   </g>
   <g id="patch_64">
    <path d="M 163.360976 298.051571 
C 164.54284 298.051571 165.676457 297.582011 166.512161 296.746307 
C 167.347865 295.910603 167.817424 294.776986 167.817424 293.595122 
C 167.817424 292.413258 167.347865 291.279641 166.512161 290.443937 
C 165.676457 289.608233 164.54284 289.138673 163.360976 289.138673 
C 162.179112 289.138673 161.045495 289.608233 160.20979 290.443937 
C 159.374086 291.279641 158.904527 292.413258 158.904527 293.595122 
C 158.904527 294.776986 159.374086 295.910603 160.20979 296.746307 
C 161.045495 297.582011 162.179112 298.051571 163.360976 298.051571 
z
" clip-path="url(#p42e50fff54)" style="fill: #1b1b1b; stroke: #121212; stroke-width: 1.3; stroke-linejoin: miter"/>
   </g>
   <g id="patch_65">
    <path d="M 105.217073 207.879756 
C 106.858551 207.879756 108.433019 207.22759 109.593719 206.06689 
C 110.754419 204.90619 111.406585 203.331722 111.406585 201.690244 
C 111.406585 200.048766 110.754419 198.474298 109.593719 197.313598 
C 108.433019 196.152898 106.858551 195.500732 105.217073 195.500732 
C 103.575595 195.500732 102.001127 196.152898 100.840427 197.313598 
C 99.679727 198.474298 99.027561 200.048766 99.027561 201.690244 
C 99.027561 203.331722 99.679727 204.90619 100.840427 206.06689 
C 102.001127 207.22759 103.575595 207.879756 105.217073 207.879756 
z
" clip-path="url(#p42e50fff54)" style="fill: #f2e0c9; stroke: #a49888; stroke-width: 1.6; stroke-linejoin: miter"/>
   </g>
   <g id="line2d_15">
    <path d="M 138.40682 229.869369 
L 161.536618 254.483107 
L 163.665847 256.860945 
L 164.8534 259.823622 
L 164.956039 263.013794 
L 163.961385 266.04668 
L 161.989408 268.556469 
L 159.277958 270.240443 
L 156.154074 270.895491 
L 152.994545 270.442603 
L 150.180455 268.936405 
L 120.79318 252.286729 
L 117.490702 248.598653 
L 115.648784 244.003481 
L 115.489588 239.055459 
L 117.032317 234.351391 
L 120.090893 230.458657 
L 124.296408 227.846779 
L 129.141615 226.830787 
L 134.04211 227.533225 
L 138.40682 229.869369 
L 138.40682 229.869369 
" clip-path="url(#p42e50fff54)" style="fill: none; stroke: #282a2c; stroke-width: 1.7; stroke-linecap: round"/>
   </g>
   <g id="line2d_16">
    <path d="M 164.804715 259.604773 
L 169.385953 292.17748 
L 169.507464 294.323638 
L 168.887619 296.381926 
L 167.601178 298.104085 
L 165.803307 299.282396 
L 163.710854 299.774737 
L 161.576201 299.521726 
L 159.656818 298.553879 
L 158.184211 296.987933 
L 157.335998 295.012764 
L 146.912358 263.814739 
L 146.731932 260.62802 
L 147.652309 257.571774 
L 149.562478 255.01463 
L 152.232045 253.265017 
L 155.33902 252.533964 
L 158.508657 252.909647 
L 161.35865 254.346753 
L 163.545248 256.671946 
L 164.804715 259.604773 
L 164.804715 259.604773 
" clip-path="url(#p42e50fff54)" style="fill: none; stroke: #282a2c; stroke-width: 1.7; stroke-linecap: round"/>
   </g>
   <g id="line2d_17">
    <path d="M 163.360976 288.334037 
L 176.490244 290.19089 
L 177.65456 290.396191 
L 178.678442 290.987329 
L 179.438395 291.893006 
L 179.842758 293.003983 
L 179.842758 294.186261 
L 179.438395 295.297238 
L 178.678442 296.202915 
L 177.65456 296.794053 
L 176.490244 296.999354 
L 163.360976 298.856207 
L 161.561578 298.538925 
L 159.979215 297.625347 
L 158.804742 296.225665 
L 158.179818 294.5087 
L 158.179818 292.681544 
L 158.804742 290.964579 
L 159.979215 289.564897 
L 161.561578 288.651319 
L 163.360976 288.334037 
L 163.360976 288.334037 
" clip-path="url(#p42e50fff54)" style="fill: none; stroke: #121212; stroke-width: 1.5; stroke-linecap: round"/>
   </g>
   <g id="patch_66">
    <path d="M 150.231707 254.207317 
L 170.863415 254.207317 
L 170.863415 245.954634 
L 150.231707 245.954634 
z
" clip-path="url(#p42e50fff54)" style="fill: #9aa5b1; stroke: #9aa5b1; stroke-linejoin: miter"/>
   </g>
   <g id="line2d_18">
    <path d="M 124.422781 192.203144 
L 100.410614 186.041985 
L 98.128316 185.26742 
L 96.248575 183.758975 
L 94.998115 181.698592 
L 94.527759 179.334782 
L 94.89424 176.952656 
L 96.053355 174.839533 
L 97.865296 173.250288 
L 100.111519 172.376607 
L 102.521093 172.323868 
L 127.27478 173.665148 
L 130.358966 174.711858 
L 132.899157 176.750297 
L 134.588968 179.534599 
L 135.224584 182.728937 
L 134.729339 185.948027 
L 133.162968 188.803597 
L 130.714398 190.951226 
L 127.678963 192.131876 
L 124.422781 192.203144 
L 124.422781 192.203144 
" clip-path="url(#p42e50fff54)" style="fill: none; stroke: #1d2a36; stroke-width: 1.7; stroke-linecap: round"/>
   </g>
   <g id="line2d_19">
    <path d="M 108.311187 178.042038 
L 110.952352 200.734364 
L 110.933403 202.753592 
L 110.22498 204.644564 
L 108.912529 206.179201 
L 107.154352 207.172405 
L 105.16251 207.504378 
L 103.17725 207.135081 
L 101.438022 206.109057 
L 100.154604 204.550058 
L 99.481794 202.646124 
L 94.62052 180.323816 
L 94.643138 177.91377 
L 95.488675 175.656803 
L 97.055148 173.825139 
L 99.153618 172.639703 
L 101.530977 172.243476 
L 103.900482 172.68425 
L 105.976334 173.90886 
L 107.508156 175.7696 
L 108.311187 178.042038 
L 108.311187 178.042038 
" clip-path="url(#p42e50fff54)" style="fill: none; stroke: #1d2a36; stroke-width: 1.7; stroke-linecap: round"/>
   </g>
   <g id="patch_67">
    <path d="M 123.973171 179.182927 
C 127.952511 179.182927 131.769403 177.601918 134.583222 174.7881 
C 137.39704 171.974281 138.978049 168.157389 138.978049 164.178049 
C 138.978049 160.198709 137.39704 156.381816 134.583222 153.567998 
C 131.769403 150.754179 127.952511 149.173171 123.973171 149.173171 
C 119.993831 149.173171 116.176938 150.754179 113.36312 153.567998 
C 110.549301 156.381816 108.968293 160.198709 108.968293 164.178049 
C 108.968293 168.157389 110.549301 171.974281 113.36312 174.7881 
C 116.176938 177.601918 119.993831 179.182927 123.973171 179.182927 
z
" clip-path="url(#p42e50fff54)" style="fill: #f2e0c9; stroke: #a49888; stroke-width: 1.8; stroke-linejoin: miter"/>
   </g>
   <g id="line2d_20">
    <path d="M 91.437011 131.576868 
L 97.876139 128.115602 
L 94.209651 121.791078 
L 100.648779 118.329812 
L 96.982292 112.005288 
L 103.42142 108.544022 
L 99.754932 102.219498 
L 106.19406 98.758232 
L 102.527573 92.433708 
L 108.966701 88.972442 
L 105.300213 82.647918 
L 111.739341 79.186652 
L 108.072854 72.862128 
L 114.511982 69.400862 
L 110.845494 63.076338 
L 117.284622 59.615072 
L 113.618135 53.290548 
L 120.057263 49.829282 
L 116.390775 43.504758 
L 122.829903 40.043492 
L 119.163416 33.718968 
L 125.602544 30.257702 
L 121.936056 23.933178 
L 128.375184 20.471912 
" clip-path="url(#p42e50fff54)" style="fill: none; stroke: #c0392b; stroke-width: 3.2; stroke-linecap: round"/>
   </g>
   <g id="line2d_21">
    <path d="M 155.207742 133.008497 
L 158.87423 126.683973 
L 152.435102 123.222707 
L 156.10159 116.898183 
L 149.662461 113.436917 
L 153.328949 107.112393 
L 146.889821 103.651127 
L 150.556309 97.326603 
L 144.11718 93.865337 
L 147.783668 87.540813 
L 141.34454 84.079547 
L 145.011028 77.755023 
L 138.571899 74.293757 
L 142.238387 67.969233 
L 135.799259 64.507967 
L 139.465747 58.183443 
L 133.026618 54.722177 
L 136.693106 48.397653 
L 130.253978 44.936387 
L 133.920465 38.611863 
L 127.481337 35.150597 
L 131.147825 28.826073 
L 124.708697 25.364807 
L 128.375184 19.040283 
" clip-path="url(#p42e50fff54)" style="fill: none; stroke: #c0392b; stroke-width: 3.2; stroke-linecap: round"/>
   </g>
   <g id="line2d_22">
    <path d="M 102.607943 201.394363 
L 108.723234 194.075944 
L 104.402004 185.574003 
L 110.517296 178.255584 
L 106.196066 169.753642 
L 112.311357 162.435223 
L 107.990127 153.933281 
L 114.105419 146.614863 
L 109.784189 138.112921 
L 115.89948 130.794502 
L 111.57825 122.29256 
L 117.693542 114.974142 
L 113.372312 106.4722 
L 119.487603 99.153781 
L 115.166373 90.651839 
L 121.281665 83.333421 
L 116.960435 74.831479 
L 123.075726 67.51306 
L 118.754496 59.011118 
L 124.869788 51.692699 
L 120.548558 43.190758 
L 126.663849 35.872339 
L 122.342619 27.370397 
L 128.457911 20.051978 
" clip-path="url(#p42e50fff54)" style="fill: none; stroke: #c0392b; stroke-width: 3.2; stroke-linecap: round"/>
   </g>
   <g id="line2d_23">
    <path d="M 143.871357 201.986125 
L 148.192588 193.484183 
L 142.077296 186.165764 
L 146.398526 177.663822 
L 140.283234 170.345404 
L 144.604465 161.843462 
L 138.489173 154.525043 
L 142.810403 146.023101 
L 136.695111 138.704682 
L 141.016342 130.202741 
L 134.90105 122.884322 
L 139.22228 114.38238 
L 133.106988 107.063961 
L 137.428219 98.56202 
L 131.312927 91.243601 
L 135.634157 82.741659 
L 129.518865 75.42324 
L 133.840096 66.921298 
L 127.724804 59.60288 
L 132.046034 51.100938 
L 125.930742 43.782519 
L 130.251973 35.280577 
L 124.136681 27.962159 
L 128.457911 19.460217 
" clip-path="url(#p42e50fff54)" style="fill: none; stroke: #c0392b; stroke-width: 3.2; stroke-linecap: round"/>
   </g>
   <g id="patch_68">
    <path d="M 121.347317 24.257561 
L 130.350244 24.257561 
L 130.350244 15.254634 
L 121.347317 15.254634 
z
" clip-path="url(#p42e50fff54)" style="fill: #7a7a7a; stroke: #7a7a7a; stroke-linejoin: miter"/>
   </g>
   <g id="patch_69">
    <path d="M 89.750974 115.480546 
Q 80.752136 155.074336 104.320757 185.06455 
" clip-path="url(#p42e50fff54)" style="fill: none; stroke-dasharray: 2.2,0; stroke-dashoffset: 0; stroke: #c0392b; stroke-width: 2.2; stroke-linecap: round"/>
    <path d="M 103.06203 178.931394 
L 104.320757 185.06455 
L 98.658996 182.391638 
z
" clip-path="url(#p42e50fff54)" style="fill: #c0392b; stroke-dasharray: 2.2,0; stroke-dashoffset: 0; stroke: #c0392b; stroke-width: 2.2; stroke-linecap: round"/>
   </g>
  </g>
 </g>
 <defs>
  <clipPath id="p42e50fff54">
   <rect x="5.809756" y="1" width="247.580488" height="307.6"/>
  </clipPath>
 </defs>
</svg>
