<?xml version="1.0" encoding="utf-8" standalone="no"?>
<!DOCTYPE svg PUBLIC "-//W3C//DTD SVG 1.1//EN"
  "http://www.w3.org/Graphics/SVG/1.1/DTD/svg11.dtd">
<svg xmlns:xlink="http://www.w3.org/1999/xlink" width="259.2pt" height="309.6pt" viewBox="0 0 259.2 309.6" xmlns="http://www.w3.org/2000/svg" version="1.1">
 <metadata>
  <rdf:RDF xmlns:dc="http://purl.org/dc/elements/1.1/" xmlns:cc="http://creativecommons.org/ns#" xmlns:rdf="http://www.w3.org/1999/02/22-rdf-syntax-ns#">
   <cc:Work>
    <dc:type rdf:resource="http://purl.org/dc/dcmitype/StillImage"/>
    <dc:date>2026-07-10T23:04:57.896415</dc:date>
    <dc:format>image/svg+xml</dc:format>
    <dc:creator>
     <cc:Agent>
      <dc:title>Matplotlib v3.10.8, https://matplotlib.org/</dc:title>
     </cc:Agent>
    </dc:creator>
   </cc:Work>
  </rdf:RDF>
 </metadata>
 <defs>
  <style type="text/css">*{stroke-linejoin: round; stroke-linecap: butt}</style>
 </defs>
 <g id="figure_1">
  <g id="patch_1">
   <path d="M 0 309.6 
L 259.2 309.6 
L 259.2 0 
L 0 0 
L 0 309.6 
z
" style="fill: none"/>
  </g>
  <g id="axes_1">
   <g id="line2d_1">
    <path d="M 17.063415 299.221951 
L 242.136585 299.221951 
" clip-path="url(#p04aa719bcb)" style="fill: none; stroke: #c3c3c3; stroke-width: 3; stroke-linecap: round"/>
   </g>
   <g id="patch_2">
    <path d="M 129.6 88.403415 
C 131.888121 88.403415 134.082834 87.494335 135.700779 85.876389 
C 137.318725 84.258443 138.227805 82.06373 138.227805 79.77561 
C 138.227805 77.487489 137.318725 75.292776 135.700779 73.67483 
C 134.082834 72.056885 131.888121 71.147805 129.6 71.147805 
C 127.311879 71.147805 125.117166 72.056885 123.499221 73.67483 
C 121.881275 75.292776 120.972195 77.487489 120.972195 79.77561 
C 120.972195 82.06373 121.881275 84.258443 123.499221 85.876389 
C 125.117166 87.494335 127.311879 88.403415 129.6 88.403415 
z
" clip-path="url(#p04aa719bcb)" style="fill: #9aa0a6; fill-opacity: 0.285"/>
   </g>
   <g id="patch_3">
    <path d="M 116.470732 110.543112 
C 118.163941 110.543112 119.788029 109.870393 120.985308 108.673113 
C 122.182588 107.475834 122.855307 105.851746 122.855307 104.158537 
C 122.855307 102.465327 122.182588 100.84124 120.985308 99.64396 
C 119.788029 98.44668 118.163941 97.773961 116.470732 97.773961 
C 114.777522 97.773961 113.153435 98.44668 111.956155 99.64396 
C 110.758875 100.84124 110.086156 102.465327 110.086156 104.158537 
C 110.086156 105.851746 110.758875 107.475834 111.956155 108.673113 
C 113.153435 109.870393 114.777522 110.543112 116.470732 110.543112 
z
" clip-path="url(#p04aa719bcb)" style="fill: #9aa0a6; fill-opacity: 0.285"/>
   </g>
   <g id="patch_4">
    <path d="M 137.196533 83.866051 
L 122.092166 107.185463 
L 110.849297 101.13161 
L 122.003467 75.685169 
z
" clip-path="url(#p04aa719bcb)" style="fill: #9aa0a6; fill-opacity: 0.285"/>
   </g>
   <g id="patch_5">
    <path d="M 116.470732 110.543112 
C 118.163941 110.543112 119.788029 109.870393 120.985308 108.673113 
C 122.182588 107.475834 122.855307 105.851746 122.855307 104.158537 
C 122.855307 102.465327 122.182588 100.84124 120.985308 99.64396 
C 119.788029 98.44668 118.163941 97.773961 116.470732 97.773961 
C 114.777522 97.773961 113.153435 98.44668 111.956155 99.64396 
C 110.758875 100.84124 110.086156 102.465327 110.086156 104.158537 
C 110.086156 105.851746 110.758875 107.475834 111.956155 108.673113 
C 113.153435 109.870393 114.777522 110.543112 116.470732 110.543112 
z
" clip-path="url(#p04aa719bcb)" style="fill: #9aa0a6; fill-opacity: 0.285"/>
   </g>
   <g id="patch_6">
    <path d="M 114.595122 137.641922 
C 116.013757 137.641922 117.374479 137.078292 118.377605 136.075166 
C 119.380731 135.07204 119.944361 133.711318 119.944361 132.292683 
C 119.944361 130.874048 119.380731 129.513326 118.377605 128.5102 
C 117.374479 127.507073 116.013757 126.943444 114.595122 126.943444 
C 113.176487 126.943444 111.815765 127.507073 110.812639 128.5102 
C 109.809512 129.513326 109.245883 130.874048 109.245883 132.292683 
C 109.245883 133.711318 109.809512 135.07204 110.812639 136.075166 
C 111.815765 137.078292 113.176487 137.641922 114.595122 137.641922 
z
" clip-path="url(#p04aa719bcb)" style="fill: #9aa0a6; fill-opacity: 0.285"/>
   </g>
   <g id="patch_7">
    <path d="M 122.841166 104.583232 
L 119.932513 132.648509 
L 109.257731 131.936857 
L 110.100297 103.733841 
z
" clip-path="url(#p04aa719bcb)" style="fill: #9aa0a6; fill-opacity: 0.285"/>
   </g>
   <g id="patch_8">
    <path d="M 114.595122 138.17272 
C 116.154526 138.17272 117.650271 137.553162 118.752936 136.450497 
C 119.855601 135.347832 120.475159 133.852087 120.475159 132.292683 
C 120.475159 130.733279 119.855601 129.237534 118.752936 128.134869 
C 117.650271 127.032204 116.154526 126.412646 114.595122 126.412646 
C 113.035718 126.412646 111.539973 127.032204 110.437308 128.134869 
C 109.334643 129.237534 108.715085 130.733279 108.715085 132.292683 
C 108.715085 133.852087 109.334643 135.347832 110.437308 136.450497 
C 111.539973 137.553162 113.035718 138.17272 114.595122 138.17272 
z
" clip-path="url(#p04aa719bcb)" style="fill: #9aa0a6; fill-opacity: 0.285; stroke: #7d8288; stroke-opacity: 0.85; stroke-width: 1.3; stroke-linejoin: miter"/>
   </g>
   <g id="line2d_2">
    <path d="M 137.196533 83.866051 
L 122.092166 107.185463 
L 120.717882 108.925561 
L 118.83133 110.090685 
L 116.660054 110.540305 
L 114.465943 110.220189 
L 112.51364 109.168948 
L 111.03862 107.513378 
L 110.218793 105.453165 
L 110.153042 103.2368 
L 110.849297 101.13161 
L 122.003467 75.685169 
L 123.860607 73.333685 
L 126.410003 71.759193 
L 129.344159 71.151599 
L 132.309174 71.584188 
L 134.947422 73.004783 
L 136.940692 75.24204 
L 138.048566 78.026112 
L 138.137419 81.0212 
L 137.196533 83.866051 
L 137.196533 83.866051 
" clip-path="url(#p04aa719bcb)" style="fill: none; stroke: #7d8288; stroke-opacity: 0.85; stroke-width: 1.7; stroke-linecap: round"/>
   </g>
   <g id="line2d_3">
    <path d="M 122.841166 104.583232 
L 119.932513 132.648509 
L 119.488929 134.452545 
L 118.45508 135.996071 
L 116.955663 137.092912 
L 115.17153 137.610776 
L 113.317873 137.487199 
L 111.618272 136.737086 
L 110.277722 135.450913 
L 109.457915 133.783811 
L 109.257731 131.936857 
L 110.100297 103.733841 
L 110.629736 101.580636 
L 111.863685 99.738364 
L 113.653312 98.42923 
L 115.782761 97.811135 
L 117.99519 97.958631 
L 120.023746 98.853926 
L 121.623757 100.389036 
L 122.602237 102.378803 
L 122.841166 104.583232 
L 122.841166 104.583232 
" clip-path="url(#p04aa719bcb)" style="fill: none; stroke: #7d8288; stroke-opacity: 0.85; stroke-width: 1.7; stroke-linecap: round"/>
   </g>
   <g id="patch_9">
    <path d="M 129.6 64.770732 
C 131.58967 64.770732 133.498116 63.980227 134.905026 62.573318 
C 136.311935 61.166409 137.102439 59.257963 137.102439 57.268293 
C 137.102439 55.278623 136.311935 53.370176 134.905026 51.963267 
C 133.498116 50.556358 131.58967 49.765854 129.6 49.765854 
C 127.61033 49.765854 125.701884 50.556358 124.294974 51.963267 
C 122.888065 53.370176 122.097561 55.278623 122.097561 57.268293 
C 122.097561 59.257963 122.888065 61.166409 124.294974 62.573318 
C 125.701884 63.980227 127.61033 64.770732 129.6 64.770732 
z
" clip-path="url(#p04aa719bcb)" style="fill: #9aa0a6; fill-opacity: 0.3"/>
   </g>
   <g id="patch_10">
    <path d="M 129.6 91.40439 
C 132.683989 91.40439 135.64208 90.179109 137.82279 87.998399 
C 140.003499 85.81769 141.22878 82.859598 141.22878 79.77561 
C 141.22878 76.691621 140.003499 73.733529 137.82279 71.55282 
C 135.64208 69.372111 132.683989 68.146829 129.6 68.146829 
C 126.516011 68.146829 123.55792 69.372111 121.37721 71.55282 
C 119.196501 73.733529 117.97122 76.691621 117.97122 79.77561 
C 117.97122 82.859598 119.196501 85.81769 121.37721 87.998399 
C 123.55792 90.179109 126.516011 91.40439 129.6 91.40439 
z
" clip-path="url(#p04aa719bcb)" style="fill: #9aa0a6; fill-opacity: 0.3"/>
   </g>
   <g id="patch_11">
    <path d="M 137.102439 57.268293 
L 141.22878 79.77561 
L 117.97122 79.77561 
L 122.097561 57.268293 
z
" clip-path="url(#p04aa719bcb)" style="fill: #9aa0a6; fill-opacity: 0.3"/>
   </g>
   <g id="patch_12">
    <path d="M 129.6 103.033171 
C 135.767977 103.033171 141.684161 100.582607 146.045579 96.221189 
C 150.406998 91.85977 152.857561 85.943587 152.857561 79.77561 
C 152.857561 73.607632 150.406998 67.691449 146.045579 63.330031 
C 141.684161 58.968612 135.767977 56.518049 129.6 56.518049 
C 123.432023 56.518049 117.515839 58.968612 113.154421 63.330031 
C 108.793002 67.691449 106.342439 73.607632 106.342439 79.77561 
C 106.342439 85.943587 108.793002 91.85977 113.154421 96.221189 
C 117.515839 100.582607 123.432023 103.033171 129.6 103.033171 
z
" clip-path="url(#p04aa719bcb)" style="fill: #9aa0a6; fill-opacity: 0.3"/>
   </g>
   <g id="patch_13">
    <path d="M 129.6 164.553171 
C 134.176241 164.553171 138.565667 162.735011 141.801559 159.49912 
C 145.03745 156.263228 146.85561 151.873802 146.85561 147.297561 
C 146.85561 142.72132 145.03745 138.331893 141.801559 135.096002 
C 138.565667 131.860111 134.176241 130.041951 129.6 130.041951 
C 125.023759 130.041951 120.634333 131.860111 117.398441 135.096002 
C 114.16255 138.331893 112.34439 142.72132 112.34439 147.297561 
C 112.34439 151.873802 114.16255 156.263228 117.398441 159.49912 
C 120.634333 162.735011 125.023759 164.553171 129.6 164.553171 
z
" clip-path="url(#p04aa719bcb)" style="fill: #9aa0a6; fill-opacity: 0.3"/>
   </g>
   <g id="patch_14">
    <path d="M 152.857561 79.77561 
L 146.85561 147.297561 
L 112.34439 147.297561 
L 106.342439 79.77561 
z
" clip-path="url(#p04aa719bcb)" style="fill: #9aa0a6; fill-opacity: 0.3"/>
   </g>
   <g id="patch_15">
    <path d="M 129.6 161.552195 
C 133.380373 161.552195 137.006421 160.050237 139.679548 157.377109 
C 142.352676 154.703982 143.854634 151.077934 143.854634 147.297561 
C 143.854634 143.517188 142.352676 139.89114 139.679548 137.218013 
C 137.006421 134.544885 133.380373 133.042927 129.6 133.042927 
C 125.819627 133.042927 122.193579 134.544885 119.520452 137.218013 
C 116.847324 139.89114 115.345366 143.517188 115.345366 147.297561 
C 115.345366 151.077934 116.847324 154.703982 119.520452 157.377109 
C 122.193579 160.050237 125.819627 161.552195 129.6 161.552195 
z
" clip-path="url(#p04aa719bcb)" style="fill: #9aa0a6; fill-opacity: 0.3"/>
   </g>
   <g id="patch_16">
    <path d="M 129.6 227.76122 
C 132.037346 227.76122 134.375192 226.792852 136.098656 225.069388 
C 137.82212 223.345924 138.790488 221.008078 138.790488 218.570732 
C 138.790488 216.133386 137.82212 213.795539 136.098656 212.072075 
C 134.375192 210.348612 132.037346 209.380244 129.6 209.380244 
C 127.162654 209.380244 124.824808 210.348612 123.101344 212.072075 
C 121.37788 213.795539 120.409512 216.133386 120.409512 218.570732 
C 120.409512 221.008078 121.37788 223.345924 123.101344 225.069388 
C 124.824808 226.792852 127.162654 227.76122 129.6 227.76122 
z
" clip-path="url(#p04aa719bcb)" style="fill: #9aa0a6; fill-opacity: 0.3"/>
   </g>
   <g id="patch_17">
    <path d="M 143.854634 147.297561 
L 138.790488 218.570732 
L 120.409512 218.570732 
L 115.345366 147.297561 
z
" clip-path="url(#p04aa719bcb)" style="fill: #9aa0a6; fill-opacity: 0.3"/>
   </g>
   <g id="patch_18">
    <path d="M 129.6 227.76122 
C 132.037346 227.76122 134.375192 226.792852 136.098656 225.069388 
C 137.82212 223.345924 138.790488 221.008078 138.790488 218.570732 
C 138.790488 216.133386 137.82212 213.795539 136.098656 212.072075 
C 134.375192 210.348612 132.037346 209.380244 129.6 209.380244 
C 127.162654 209.380244 124.824808 210.348612 123.101344 212.072075 
C 121.37788 213.795539 120.409512 216.133386 120.409512 218.570732 
C 120.409512 221.008078 121.37788 223.345924 123.101344 225.069388 
C 124.824808 226.792852 127.162654 227.76122 129.6 227.76122 
z
" clip-path="url(#p04aa719bcb)" style="fill: #9aa0a6; fill-opacity: 0.3"/>
   </g>
   <g id="patch_19">
    <path d="M 129.6 290.406585 
C 131.241478 290.406585 132.815946 289.754419 133.976646 288.593719 
C 135.137346 287.433019 135.789512 285.858551 135.789512 284.217073 
C 135.789512 282.575595 135.137346 281.001127 133.976646 279.840427 
C 132.815946 278.679727 131.241478 278.027561 129.6 278.027561 
C 127.958522 278.027561 126.384054 278.679727 125.223354 279.840427 
C 124.062654 281.001127 123.410488 282.575595 123.410488 284.217073 
C 123.410488 285.858551 124.062654 287.433019 125.223354 288.593719 
C 126.384054 289.754419 127.958522 290.406585 129.6 290.406585 
z
" clip-path="url(#p04aa719bcb)" style="fill: #9aa0a6; fill-opacity: 0.3"/>
   </g>
   <g id="patch_20">
    <path d="M 138.790488 218.570732 
L 135.789512 284.217073 
L 123.410488 284.217073 
L 120.409512 218.570732 
z
" clip-path="url(#p04aa719bcb)" style="fill: #9aa0a6; fill-opacity: 0.3"/>
   </g>
   <g id="patch_21">
    <path d="M 129.6 289.478159 
C 130.995256 289.478159 132.333554 288.923817 133.320149 287.937222 
C 134.306744 286.950627 134.861085 285.612329 134.861085 284.217073 
C 134.861085 282.821817 134.306744 281.483519 133.320149 280.496924 
C 132.333554 279.510329 130.995256 278.955988 129.6 278.955988 
C 128.204744 278.955988 126.866446 279.510329 125.879851 280.496924 
C 124.893256 281.483519 124.338915 282.821817 124.338915 284.217073 
C 124.338915 285.612329 124.893256 286.950627 125.879851 287.937222 
C 126.866446 288.923817 128.204744 289.478159 129.6 289.478159 
z
" clip-path="url(#p04aa719bcb)" style="fill: #9aa0a6; fill-opacity: 0.3"/>
   </g>
   <g id="patch_22">
    <path d="M 146.480488 287.621305 
C 147.383301 287.621305 148.249258 287.262614 148.887643 286.624228 
C 149.526028 285.985843 149.88472 285.119886 149.88472 284.217073 
C 149.88472 283.31426 149.526028 282.448303 148.887643 281.809918 
C 148.249258 281.171533 147.383301 280.812841 146.480488 280.812841 
C 145.577675 280.812841 144.711718 281.171533 144.073332 281.809918 
C 143.434947 282.448303 143.076256 283.31426 143.076256 284.217073 
C 143.076256 285.119886 143.434947 285.985843 144.073332 286.624228 
C 144.711718 287.262614 145.577675 287.621305 146.480488 287.621305 
z
" clip-path="url(#p04aa719bcb)" style="fill: #9aa0a6; fill-opacity: 0.3"/>
   </g>
   <g id="patch_23">
    <path d="M 129.6 278.955988 
L 146.480488 280.812841 
L 146.480488 287.621305 
L 129.6 289.478159 
z
" clip-path="url(#p04aa719bcb)" style="fill: #9aa0a6; fill-opacity: 0.3"/>
   </g>
   <g id="line2d_4">
    <path d="M 137.102439 57.268293 
L 141.22878 79.77561 
L 140.527479 83.752887 
L 138.508163 87.250446 
L 135.41439 89.846429 
L 131.619317 91.227723 
L 127.580683 91.227723 
L 123.78561 89.846429 
L 120.691837 87.250446 
L 118.672521 83.752887 
L 117.97122 79.77561 
L 122.097561 57.268293 
L 122.550013 54.702307 
L 123.852798 52.445818 
L 125.84878 50.77099 
L 128.297215 49.879833 
L 130.902785 49.879833 
L 133.35122 50.77099 
L 135.347202 52.445818 
L 136.649987 54.702307 
L 137.102439 57.268293 
L 137.102439 57.268293 
" clip-path="url(#p04aa719bcb)" style="fill: none; stroke: #7d8288; stroke-opacity: 0.85; stroke-width: 1.7; stroke-linecap: round"/>
   </g>
   <g id="line2d_5">
    <path d="M 152.857561 79.77561 
L 146.85561 147.297561 
L 145.814969 153.199327 
L 142.818564 158.389253 
L 138.227805 162.241357 
L 132.596405 164.291019 
L 126.603595 164.291019 
L 120.972195 162.241357 
L 116.381436 158.389253 
L 113.385031 153.199327 
L 112.34439 147.297561 
L 106.342439 79.77561 
L 107.745042 71.821055 
L 111.783675 64.825938 
L 117.97122 59.633971 
L 125.561367 56.871383 
L 133.638633 56.871383 
L 141.22878 59.633971 
L 147.416325 64.825938 
L 151.454958 71.821055 
L 152.857561 79.77561 
L 152.857561 79.77561 
" clip-path="url(#p04aa719bcb)" style="fill: none; stroke: #7d8288; stroke-opacity: 0.85; stroke-width: 1.7; stroke-linecap: round"/>
   </g>
   <g id="patch_24">
    <path d="M 129.6 89.153659 
C 132.087088 89.153659 134.472645 88.165528 136.231282 86.406892 
C 137.989918 84.648255 138.978049 82.262697 138.978049 79.77561 
C 138.978049 77.288522 137.989918 74.902964 136.231282 73.144328 
C 134.472645 71.385691 132.087088 70.397561 129.6 70.397561 
C 127.112912 70.397561 124.727355 71.385691 122.968718 73.144328 
C 121.210082 74.902964 120.221951 77.288522 120.221951 79.77561 
C 120.221951 82.262697 121.210082 84.648255 122.968718 86.406892 
C 124.727355 88.165528 127.112912 89.153659 129.6 89.153659 
z
" clip-path="url(#p04aa719bcb)" style="fill: #9aa0a6; fill-opacity: 0.3"/>
   </g>
   <g id="patch_25">
    <path d="M 142.729268 111.098293 
C 144.569713 111.098293 146.335026 110.367076 147.636417 109.065685 
C 148.937808 107.764294 149.669024 105.998981 149.669024 104.158537 
C 149.669024 102.318092 148.937808 100.552779 147.636417 99.251388 
C 146.335026 97.949997 144.569713 97.21878 142.729268 97.21878 
C 140.888823 97.21878 139.123511 97.949997 137.82212 99.251388 
C 136.520729 100.552779 135.789512 102.318092 135.789512 104.158537 
C 135.789512 105.998981 136.520729 107.764294 137.82212 109.065685 
C 139.123511 110.367076 140.888823 111.098293 142.729268 111.098293 
z
" clip-path="url(#p04aa719bcb)" style="fill: #9aa0a6; fill-opacity: 0.3"/>
   </g>
   <g id="patch_26">
    <path d="M 137.857101 75.329478 
L 148.839523 100.868399 
L 136.619014 107.448674 
L 121.342899 84.221741 
z
" clip-path="url(#p04aa719bcb)" style="fill: #9aa0a6; fill-opacity: 0.3"/>
   </g>
   <g id="patch_27">
    <path d="M 142.729268 111.098293 
C 144.569713 111.098293 146.335026 110.367076 147.636417 109.065685 
C 148.937808 107.764294 149.669024 105.998981 149.669024 104.158537 
C 149.669024 102.318092 148.937808 100.552779 147.636417 99.251388 
C 146.335026 97.949997 144.569713 97.21878 142.729268 97.21878 
C 140.888823 97.21878 139.123511 97.949997 137.82212 99.251388 
C 136.520729 100.552779 135.789512 102.318092 135.789512 104.158537 
C 135.789512 105.998981 136.520729 107.764294 137.82212 109.065685 
C 139.123511 110.367076 140.888823 111.098293 142.729268 111.098293 
z
" clip-path="url(#p04aa719bcb)" style="fill: #9aa0a6; fill-opacity: 0.3"/>
   </g>
   <g id="patch_28">
    <path d="M 144.604878 138.107073 
C 146.146872 138.107073 147.625918 137.494432 148.716273 136.404078 
C 149.806627 135.313723 150.419268 133.834677 150.419268 132.292683 
C 150.419268 130.750689 149.806627 129.271643 148.716273 128.181288 
C 147.625918 127.090934 146.146872 126.478293 144.604878 126.478293 
C 143.062884 126.478293 141.583838 127.090934 140.493483 128.181288 
C 139.403129 129.271643 138.790488 130.750689 138.790488 132.292683 
C 138.790488 133.834677 139.403129 135.313723 140.493483 136.404078 
C 141.583838 137.494432 143.062884 138.107073 144.604878 138.107073 
z
" clip-path="url(#p04aa719bcb)" style="fill: #9aa0a6; fill-opacity: 0.3"/>
   </g>
   <g id="patch_29">
    <path d="M 149.653654 103.696911 
L 150.40639 131.905915 
L 138.803366 132.67945 
L 135.804883 104.620162 
z
" clip-path="url(#p04aa719bcb)" style="fill: #9aa0a6; fill-opacity: 0.3"/>
   </g>
   <g id="patch_30">
    <path d="M 129.6 288.673522 
C 130.781864 288.673522 131.915481 288.203962 132.751185 287.368258 
C 133.586889 286.532554 134.056449 285.398937 134.056449 284.217073 
C 134.056449 283.035209 133.586889 281.901592 132.751185 281.065888 
C 131.915481 280.230184 130.781864 279.760624 129.6 279.760624 
C 128.418136 279.760624 127.284519 280.230184 126.448815 281.065888 
C 125.613111 281.901592 125.143551 283.035209 125.143551 284.217073 
C 125.143551 285.398937 125.613111 286.532554 126.448815 287.368258 
C 127.284519 288.203962 128.418136 288.673522 129.6 288.673522 
z
" clip-path="url(#p04aa719bcb)" style="fill: #9aa0a6; fill-opacity: 0.3; stroke: #7d8288; stroke-opacity: 0.85; stroke-width: 1.3; stroke-linejoin: miter"/>
   </g>
   <g id="patch_31">
    <path d="M 144.604878 138.482195 
C 146.246356 138.482195 147.820824 137.830029 148.981524 136.669329 
C 150.142224 135.508629 150.79439 133.934161 150.79439 132.292683 
C 150.79439 130.651205 150.142224 129.076737 148.981524 127.916037 
C 147.820824 126.755337 146.246356 126.103171 144.604878 126.103171 
C 142.9634 126.103171 141.388932 126.755337 140.228232 127.916037 
C 139.067532 129.076737 138.415366 130.651205 138.415366 132.292683 
C 138.415366 133.934161 139.067532 135.508629 140.228232 136.669329 
C 141.388932 137.830029 142.9634 138.482195 144.604878 138.482195 
z
" clip-path="url(#p04aa719bcb)" style="fill: #9aa0a6; fill-opacity: 0.3; stroke: #7d8288; stroke-opacity: 0.85; stroke-width: 1.6; stroke-linejoin: miter"/>
   </g>
   <g id="line2d_6">
    <path d="M 143.854634 147.297561 
L 138.790488 218.570732 
L 138.236234 221.714064 
L 136.640322 224.478263 
L 134.195244 226.529928 
L 131.195911 227.621595 
L 128.004089 227.621595 
L 125.004756 226.529928 
L 122.559678 224.478263 
L 120.963766 221.714064 
L 120.409512 218.570732 
L 115.345366 147.297561 
L 116.205025 142.422189 
L 118.680317 138.134859 
L 122.472683 134.952686 
L 127.124709 133.259487 
L 132.075291 133.259487 
L 136.727317 134.952686 
L 140.519683 138.134859 
L 142.994975 142.422189 
L 143.854634 147.297561 
L 143.854634 147.297561 
" clip-path="url(#p04aa719bcb)" style="fill: none; stroke: #7d8288; stroke-opacity: 0.85; stroke-width: 1.7; stroke-linecap: round"/>
   </g>
   <g id="line2d_7">
    <path d="M 138.790488 218.570732 
L 135.789512 284.217073 
L 135.416239 286.334011 
L 134.341441 288.195615 
L 132.694756 289.577348 
L 130.674798 290.312553 
L 128.525202 290.312553 
L 126.505244 289.577348 
L 124.858559 288.195615 
L 123.783761 286.334011 
L 123.410488 284.217073 
L 120.409512 218.570732 
L 120.963766 215.4274 
L 122.559678 212.6632 
L 125.004756 210.611536 
L 128.004089 209.519868 
L 131.195911 209.519868 
L 134.195244 210.611536 
L 136.640322 212.6632 
L 138.236234 215.4274 
L 138.790488 218.570732 
L 138.790488 218.570732 
" clip-path="url(#p04aa719bcb)" style="fill: none; stroke: #7d8288; stroke-opacity: 0.85; stroke-width: 1.7; stroke-linecap: round"/>
   </g>
   <g id="line2d_8">
    <path d="M 129.6 278.955988 
L 146.480488 280.812841 
L 147.644804 281.018142 
L 148.668686 281.60928 
L 149.428639 282.514957 
L 149.833002 283.625935 
L 149.833002 284.808212 
L 149.428639 285.919189 
L 148.668686 286.824866 
L 147.644804 287.416005 
L 146.480488 287.621305 
L 129.6 289.478159 
L 127.800603 289.160876 
L 126.21824 288.247298 
L 125.043766 286.847616 
L 124.418842 285.130651 
L 124.418842 283.303495 
L 125.043766 281.58653 
L 126.21824 280.186848 
L 127.800603 279.27327 
L 129.6 278.955988 
L 129.6 278.955988 
" clip-path="url(#p04aa719bcb)" style="fill: none; stroke: #7d8288; stroke-opacity: 0.85; stroke-width: 1.5; stroke-linecap: round"/>
   </g>
   <g id="line2d_9">
    <path d="M 137.857101 75.329478 
L 148.839523 100.868399 
L 149.596323 103.156649 
L 149.524854 105.565741 
L 148.633738 107.805104 
L 147.030455 109.604636 
L 144.908386 110.747289 
L 142.523483 111.095241 
L 140.163401 110.606524 
L 138.1128 109.340084 
L 136.619014 107.448674 
L 121.342899 84.221741 
L 120.320197 81.129512 
L 120.416776 77.873982 
L 121.620987 74.847816 
L 123.787585 72.416015 
L 126.655246 70.87189 
L 129.878088 70.401685 
L 133.067388 71.062113 
L 135.83847 72.773518 
L 137.857101 75.329478 
L 137.857101 75.329478 
" clip-path="url(#p04aa719bcb)" style="fill: none; stroke: #7d8288; stroke-opacity: 0.85; stroke-width: 1.7; stroke-linecap: round"/>
   </g>
   <g id="line2d_10">
    <path d="M 149.653654 103.696911 
L 150.40639 131.905915 
L 150.188799 133.913474 
L 149.297704 135.725542 
L 147.840585 137.123556 
L 145.993192 137.938896 
L 143.978348 138.073219 
L 142.039072 137.510324 
L 140.409271 136.318104 
L 139.285522 134.64036 
L 138.803366 132.67945 
L 135.804883 104.620162 
L 136.064589 102.224043 
L 137.128154 100.061253 
L 138.867296 98.392656 
L 141.072249 97.419508 
L 143.477063 97.259187 
L 145.791682 97.93103 
L 147.736928 99.354001 
L 149.078177 101.356471 
L 149.653654 103.696911 
L 149.653654 103.696911 
" clip-path="url(#p04aa719bcb)" style="fill: none; stroke: #7d8288; stroke-opacity: 0.85; stroke-width: 1.7; stroke-linecap: round"/>
   </g>
   <g id="patch_32">
    <path d="M 129.6 72.273171 
C 133.57934 72.273171 137.396233 70.692162 140.210051 67.878344 
C 143.023869 65.064525 144.604878 61.247633 144.604878 57.268293 
C 144.604878 53.288953 143.023869 49.47206 140.210051 46.658242 
C 137.396233 43.844423 133.57934 42.263415 129.6 42.263415 
C 125.62066 42.263415 121.803767 43.844423 118.989949 46.658242 
C 116.176131 49.47206 114.595122 53.288953 114.595122 57.268293 
C 114.595122 61.247633 116.176131 65.064525 118.989949 67.878344 
C 121.803767 70.692162 125.62066 72.273171 129.6 72.273171 
z
" clip-path="url(#p04aa719bcb)" style="fill: #9aa0a6; fill-opacity: 0.3; stroke: #7d8288; stroke-opacity: 0.85; stroke-width: 1.8; stroke-linejoin: miter"/>
   </g>
   <g id="patch_33">
    <path d="M 129.6 88.403415 
C 131.888121 88.403415 134.082834 87.494335 135.700779 85.876389 
C 137.318725 84.258443 138.227805 82.06373 138.227805 79.77561 
C 138.227805 77.487489 137.318725 75.292776 135.700779 73.67483 
C 134.082834 72.056885 131.888121 71.147805 129.6 71.147805 
C 127.311879 71.147805 125.117166 72.056885 123.499221 73.67483 
C 121.881275 75.292776 120.972195 77.487489 120.972195 79.77561 
C 120.972195 82.06373 121.881275 84.258443 123.499221 85.876389 
C 125.117166 87.494335 127.311879 88.403415 129.6 88.403415 
z
" clip-path="url(#p04aa719bcb)" style="fill: #2c3e50; fill-opacity: 0.95"/>
   </g>
   <g id="patch_34">
    <path d="M 80.834146 86.160185 
C 82.527356 86.160185 84.151443 85.487466 85.348723 84.290186 
C 86.546003 83.092907 87.218722 81.468819 87.218722 79.77561 
C 87.218722 78.082401 86.546003 76.458313 85.348723 75.261033 
C 84.151443 74.063753 82.527356 73.391034 80.834146 73.391034 
C 79.140937 73.391034 77.516849 74.063753 76.31957 75.261033 
C 75.12229 76.458313 74.449571 78.082401 74.449571 79.77561 
C 74.449571 81.468819 75.12229 83.092907 76.31957 84.290186 
C 77.516849 85.487466 79.140937 86.160185 80.834146 86.160185 
z
" clip-path="url(#p04aa719bcb)" style="fill: #2c3e50; fill-opacity: 0.95"/>
   </g>
   <g id="patch_35">
    <path d="M 129.6 88.403415 
L 80.834146 86.160185 
L 80.834146 73.391034 
L 129.6 71.147805 
z
" clip-path="url(#p04aa719bcb)" style="fill: #2c3e50; fill-opacity: 0.95"/>
   </g>
   <g id="patch_36">
    <path d="M 80.834146 86.160185 
C 82.527356 86.160185 84.151443 85.487466 85.348723 84.290186 
C 86.546003 83.092907 87.218722 81.468819 87.218722 79.77561 
C 87.218722 78.082401 86.546003 76.458313 85.348723 75.261033 
C 84.151443 74.063753 82.527356 73.391034 80.834146 73.391034 
C 79.140937 73.391034 77.516849 74.063753 76.31957 75.261033 
C 75.12229 76.458313 74.449571 78.082401 74.449571 79.77561 
C 74.449571 81.468819 75.12229 83.092907 76.31957 84.290186 
C 77.516849 85.487466 79.140937 86.160185 80.834146 86.160185 
z
" clip-path="url(#p04aa719bcb)" style="fill: #2c3e50; fill-opacity: 0.95"/>
   </g>
   <g id="patch_37">
    <path d="M 58.326829 85.124849 
C 59.745464 85.124849 61.106186 84.561219 62.109312 83.558093 
C 63.112439 82.554967 63.676068 81.194245 63.676068 79.77561 
C 63.676068 78.356975 63.112439 76.996253 62.109312 75.993127 
C 61.106186 74.99 59.745464 74.426371 58.326829 74.426371 
C 56.908194 74.426371 55.547472 74.99 54.544346 75.993127 
C 53.54122 76.996253 52.97759 78.356975 52.97759 79.77561 
C 52.97759 81.194245 53.54122 82.554967 54.544346 83.558093 
C 55.547472 84.561219 56.908194 85.124849 58.326829 85.124849 
z
" clip-path="url(#p04aa719bcb)" style="fill: #2c3e50; fill-opacity: 0.95"/>
   </g>
   <g id="patch_38">
    <path d="M 80.834146 86.160185 
L 58.326829 85.124849 
L 58.326829 74.426371 
L 80.834146 73.391034 
z
" clip-path="url(#p04aa719bcb)" style="fill: #2c3e50; fill-opacity: 0.95"/>
   </g>
   <g id="patch_39">
    <path d="M 58.326829 85.655646 
C 59.886233 85.655646 61.381978 85.036089 62.484643 83.933423 
C 63.587308 82.830758 64.206866 81.335014 64.206866 79.77561 
C 64.206866 78.216206 63.587308 76.720461 62.484643 75.617796 
C 61.381978 74.515131 59.886233 73.895573 58.326829 73.895573 
C 56.767425 73.895573 55.271681 74.515131 54.169016 75.617796 
C 53.06635 76.720461 52.446793 78.216206 52.446793 79.77561 
C 52.446793 81.335014 53.06635 82.830758 54.169016 83.933423 
C 55.271681 85.036089 56.767425 85.655646 58.326829 85.655646 
z
" clip-path="url(#p04aa719bcb)" style="fill: #f2e0c9; fill-opacity: 0.95; stroke: #a49888; stroke-width: 1.3; stroke-linejoin: miter"/>
   </g>
   <g id="line2d_11">
    <path d="M 129.6 88.403415 
L 80.834146 86.160185 
L 78.650493 85.775148 
L 76.73022 84.666478 
L 75.304942 82.967898 
L 74.546567 80.88428 
L 74.546567 78.66694 
L 75.304942 76.583322 
L 76.73022 74.884741 
L 78.650493 73.776071 
L 80.834146 73.391034 
L 129.6 71.147805 
L 132.550883 71.668125 
L 135.145846 73.166328 
L 137.071898 75.461707 
L 138.096729 78.277407 
L 138.096729 81.273812 
L 137.071898 84.089512 
L 135.145846 86.384892 
L 132.550883 87.883094 
L 129.6 88.403415 
L 129.6 88.403415 
" clip-path="url(#p04aa719bcb)" style="fill: none; stroke: #1d2a36; stroke-width: 1.7; stroke-linecap: round"/>
   </g>
   <g id="line2d_12">
    <path d="M 80.834146 86.160185 
L 58.326829 85.124849 
L 56.497282 84.80225 
L 54.888405 83.873365 
L 53.694252 82.450229 
L 53.058857 80.704495 
L 53.058857 78.846724 
L 53.694252 77.10099 
L 54.888405 75.677855 
L 56.497282 74.748969 
L 58.326829 74.426371 
L 80.834146 73.391034 
L 83.0178 73.776071 
L 84.938072 74.884741 
L 86.363351 76.583322 
L 87.121726 78.66694 
L 87.121726 80.88428 
L 86.363351 82.967898 
L 84.938072 84.666478 
L 83.0178 85.775148 
L 80.834146 86.160185 
L 80.834146 86.160185 
" clip-path="url(#p04aa719bcb)" style="fill: none; stroke: #1d2a36; stroke-width: 1.7; stroke-linecap: round"/>
   </g>
   <g id="patch_40">
    <path d="M 129.6 64.770732 
C 131.58967 64.770732 133.498116 63.980227 134.905026 62.573318 
C 136.311935 61.166409 137.102439 59.257963 137.102439 57.268293 
C 137.102439 55.278623 136.311935 53.370176 134.905026 51.963267 
C 133.498116 50.556358 131.58967 49.765854 129.6 49.765854 
C 127.61033 49.765854 125.701884 50.556358 124.294974 51.963267 
C 122.888065 53.370176 122.097561 55.278623 122.097561 57.268293 
C 122.097561 59.257963 122.888065 61.166409 124.294974 62.573318 
C 125.701884 63.980227 127.61033 64.770732 129.6 64.770732 
z
" clip-path="url(#p04aa719bcb)" style="fill: #2c3e50"/>
   </g>
   <g id="patch_41">
    <path d="M 129.6 91.40439 
C 132.683989 91.40439 135.64208 90.179109 137.82279 87.998399 
C 140.003499 85.81769 141.22878 82.859598 141.22878 79.77561 
C 141.22878 76.691621 140.003499 73.733529 137.82279 71.55282 
C 135.64208 69.372111 132.683989 68.146829 129.6 68.146829 
C 126.516011 68.146829 123.55792 69.372111 121.37721 71.55282 
C 119.196501 73.733529 117.97122 76.691621 117.97122 79.77561 
C 117.97122 82.859598 119.196501 85.81769 121.37721 87.998399 
C 123.55792 90.179109 126.516011 91.40439 129.6 91.40439 
z
" clip-path="url(#p04aa719bcb)" style="fill: #2c3e50"/>
   </g>
   <g id="patch_42">
    <path d="M 137.102439 57.268293 
L 141.22878 79.77561 
L 117.97122 79.77561 
L 122.097561 57.268293 
z
" clip-path="url(#p04aa719bcb)" style="fill: #2c3e50"/>
   </g>
   <g id="patch_43">
    <path d="M 129.6 103.033171 
C 135.767977 103.033171 141.684161 100.582607 146.045579 96.221189 
C 150.406998 91.85977 152.857561 85.943587 152.857561 79.77561 
C 152.857561 73.607632 150.406998 67.691449 146.045579 63.330031 
C 141.684161 58.968612 135.767977 56.518049 129.6 56.518049 
C 123.432023 56.518049 117.515839 58.968612 113.154421 63.330031 
C 108.793002 67.691449 106.342439 73.607632 106.342439 79.77561 
C 106.342439 85.943587 108.793002 91.85977 113.154421 96.221189 
C 117.515839 100.582607 123.432023 103.033171 129.6 103.033171 
z
" clip-path="url(#p04aa719bcb)" style="fill: #2c3e50"/>
   </g>
   <g id="patch_44">
    <path d="M 129.6 164.553171 
C 134.176241 164.553171 138.565667 162.735011 141.801559 159.49912 
C 145.03745 156.263228 146.85561 151.873802 146.85561 147.297561 
C 146.85561 142.72132 145.03745 138.331893 141.801559 135.096002 
C 138.565667 131.860111 134.176241 130.041951 129.6 130.041951 
C 125.023759 130.041951 120.634333 131.860111 117.398441 135.096002 
C 114.16255 138.331893 112.34439 142.72132 112.34439 147.297561 
C 112.34439 151.873802 114.16255 156.263228 117.398441 159.49912 
C 120.634333 162.735011 125.023759 164.553171 129.6 164.553171 
z
" clip-path="url(#p04aa719bcb)" style="fill: #2c3e50"/>
   </g>
   <g id="patch_45">
    <path d="M 152.857561 79.77561 
L 146.85561 147.297561 
L 112.34439 147.297561 
L 106.342439 79.77561 
z
" clip-path="url(#p04aa719bcb)" style="fill: #2c3e50"/>
   </g>
   <g id="patch_46">
    <path d="M 129.6 161.552195 
C 133.380373 161.552195 137.006421 160.050237 139.679548 157.377109 
C 142.352676 154.703982 143.854634 151.077934 143.854634 147.297561 
C 143.854634 143.517188 142.352676 139.89114 139.679548 137.218013 
C 137.006421 134.544885 133.380373 133.042927 129.6 133.042927 
C 125.819627 133.042927 122.193579 134.544885 119.520452 137.218013 
C 116.847324 139.89114 115.345366 143.517188 115.345366 147.297561 
C 115.345366 151.077934 116.847324 154.703982 119.520452 157.377109 
C 122.193579 160.050237 125.819627 161.552195 129.6 161.552195 
z
" clip-path="url(#p04aa719bcb)" style="fill: #3c3f42"/>
   </g>
   <g id="patch_47">
    <path d="M 129.6 227.76122 
C 132.037346 227.76122 134.375192 226.792852 136.098656 225.069388 
C 137.82212 223.345924 138.790488 221.008078 138.790488 218.570732 
C 138.790488 216.133386 137.82212 213.795539 136.098656 212.072075 
C 134.375192 210.348612 132.037346 209.380244 129.6 209.380244 
C 127.162654 209.380244 124.824808 210.348612 123.101344 212.072075 
C 121.37788 213.795539 120.409512 216.133386 120.409512 218.570732 
C 120.409512 221.008078 121.37788 223.345924 123.101344 225.069388 
C 124.824808 226.792852 127.162654 227.76122 129.6 227.76122 
z
" clip-path="url(#p04aa719bcb)" style="fill: #3c3f42"/>
   </g>
   <g id="patch_48">
    <path d="M 143.854634 147.297561 
L 138.790488 218.570732 
L 120.409512 218.570732 
L 115.345366 147.297561 
z
" clip-path="url(#p04aa719bcb)" style="fill: #3c3f42"/>
   </g>
   <g id="patch_49">
    <path d="M 129.6 227.76122 
C 132.037346 227.76122 134.375192 226.792852 136.098656 225.069388 
C 137.82212 223.345924 138.790488 221.008078 138.790488 218.570732 
C 138.790488 216.133386 137.82212 213.795539 136.098656 212.072075 
C 134.375192 210.348612 132.037346 209.380244 129.6 209.380244 
C 127.162654 209.380244 124.824808 210.348612 123.101344 212.072075 
C 121.37788 213.795539 120.409512 216.133386 120.409512 218.570732 
C 120.409512 221.008078 121.37788 223.345924 123.101344 225.069388 
C 124.824808 226.792852 127.162654 227.76122 129.6 227.76122 
z
" clip-path="url(#p04aa719bcb)" style="fill: #3c3f42"/>
   </g>
   <g id="patch_50">
    <path d="M 129.6 290.406585 
C 131.241478 290.406585 132.815946 289.754419 133.976646 288.593719 
C 135.137346 287.433019 135.789512 285.858551 135.789512 284.217073 
C 135.789512 282.575595 135.137346 281.001127 133.976646 279.840427 
C 132.815946 278.679727 131.241478 278.027561 129.6 278.027561 
C 127.958522 278.027561 126.384054 278.679727 125.223354 279.840427 
C 124.062654 281.001127 123.410488 282.575595 123.410488 284.217073 
C 123.410488 285.858551 124.062654 287.433019 125.223354 288.593719 
C 126.384054 289.754419 127.958522 290.406585 129.6 290.406585 
z
" clip-path="url(#p04aa719bcb)" style="fill: #3c3f42"/>
   </g>
   <g id="patch_51">
    <path d="M 138.790488 218.570732 
L 135.789512 284.217073 
L 123.410488 284.217073 
L 120.409512 218.570732 
z
" clip-path="url(#p04aa719bcb)" style="fill: #3c3f42"/>
   </g>
   <g id="patch_52">
    <path d="M 129.6 289.478159 
C 130.995256 289.478159 132.333554 288.923817 133.320149 287.937222 
C 134.306744 286.950627 134.861085 285.612329 134.861085 284.217073 
C 134.861085 282.821817 134.306744 281.483519 133.320149 280.496924 
C 132.333554 279.510329 130.995256 278.955988 129.6 278.955988 
C 128.204744 278.955988 126.866446 279.510329 125.879851 280.496924 
C 124.893256 281.483519 124.338915 282.821817 124.338915 284.217073 
C 124.338915 285.612329 124.893256 286.950627 125.879851 287.937222 
C 126.866446 288.923817 128.204744 289.478159 129.6 289.478159 
z
" clip-path="url(#p04aa719bcb)" style="fill: #1b1b1b"/>
   </g>
   <g id="patch_53">
    <path d="M 146.480488 287.621305 
C 147.383301 287.621305 148.249258 287.262614 148.887643 286.624228 
C 149.526028 285.985843 149.88472 285.119886 149.88472 284.217073 
C 149.88472 283.31426 149.526028 282.448303 148.887643 281.809918 
C 148.249258 281.171533 147.383301 280.812841 146.480488 280.812841 
C 145.577675 280.812841 144.711718 281.171533 144.073332 281.809918 
C 143.434947 282.448303 143.076256 283.31426 143.076256 284.217073 
C 143.076256 285.119886 143.434947 285.985843 144.073332 286.624228 
C 144.711718 287.262614 145.577675 287.621305 146.480488 287.621305 
z
" clip-path="url(#p04aa719bcb)" style="fill: #1b1b1b"/>
   </g>
   <g id="patch_54">
    <path d="M 129.6 278.955988 
L 146.480488 280.812841 
L 146.480488 287.621305 
L 129.6 289.478159 
z
" clip-path="url(#p04aa719bcb)" style="fill: #1b1b1b"/>
   </g>
   <g id="line2d_13">
    <path d="M 137.102439 57.268293 
L 141.22878 79.77561 
L 140.527479 83.752887 
L 138.508163 87.250446 
L 135.41439 89.846429 
L 131.619317 91.227723 
L 127.580683 91.227723 
L 123.78561 89.846429 
L 120.691837 87.250446 
L 118.672521 83.752887 
L 117.97122 79.77561 
L 122.097561 57.268293 
L 122.550013 54.702307 
L 123.852798 52.445818 
L 125.84878 50.77099 
L 128.297215 49.879833 
L 130.902785 49.879833 
L 133.35122 50.77099 
L 135.347202 52.445818 
L 136.649987 54.702307 
L 137.102439 57.268293 
L 137.102439 57.268293 
" clip-path="url(#p04aa719bcb)" style="fill: none; stroke: #1d2a36; stroke-width: 1.7; stroke-linecap: round"/>
   </g>
   <g id="line2d_14">
    <path d="M 152.857561 79.77561 
L 146.85561 147.297561 
L 145.814969 153.199327 
L 142.818564 158.389253 
L 138.227805 162.241357 
L 132.596405 164.291019 
L 126.603595 164.291019 
L 120.972195 162.241357 
L 116.381436 158.389253 
L 113.385031 153.199327 
L 112.34439 147.297561 
L 106.342439 79.77561 
L 107.745042 71.821055 
L 111.783675 64.825938 
L 117.97122 59.633971 
L 125.561367 56.871383 
L 133.638633 56.871383 
L 141.22878 59.633971 
L 147.416325 64.825938 
L 151.454958 71.821055 
L 152.857561 79.77561 
L 152.857561 79.77561 
" clip-path="url(#p04aa719bcb)" style="fill: none; stroke: #1d2a36; stroke-width: 1.7; stroke-linecap: round"/>
   </g>
   <g id="patch_55">
    <path d="M 129.6 89.153659 
C 132.087088 89.153659 134.472645 88.165528 136.231282 86.406892 
C 137.989918 84.648255 138.978049 82.262697 138.978049 79.77561 
C 138.978049 77.288522 137.989918 74.902964 136.231282 73.144328 
C 134.472645 71.385691 132.087088 70.397561 129.6 70.397561 
C 127.112912 70.397561 124.727355 71.385691 122.968718 73.144328 
C 121.210082 74.902964 120.221951 77.288522 120.221951 79.77561 
C 120.221951 82.262697 121.210082 84.648255 122.968718 86.406892 
C 124.727355 88.165528 127.112912 89.153659 129.6 89.153659 
z
" clip-path="url(#p04aa719bcb)" style="fill: #2c3e50"/>
   </g>
   <g id="patch_56">
    <path d="M 178.365854 86.715366 
C 180.206298 86.715366 181.971611 85.984149 183.273002 84.682758 
C 184.574393 83.381367 185.30561 81.616055 185.30561 79.77561 
C 185.30561 77.935165 184.574393 76.169852 183.273002 74.868461 
C 181.971611 73.56707 180.206298 72.835854 178.365854 72.835854 
C 176.525409 72.835854 174.760096 73.56707 173.458705 74.868461 
C 172.157314 76.169852 171.426098 77.935165 171.426098 79.77561 
C 171.426098 81.616055 172.157314 83.381367 173.458705 84.682758 
C 174.760096 85.984149 176.525409 86.715366 178.365854 86.715366 
z
" clip-path="url(#p04aa719bcb)" style="fill: #2c3e50"/>
   </g>
   <g id="patch_57">
    <path d="M 129.6 70.397561 
L 178.365854 72.835854 
L 178.365854 86.715366 
L 129.6 89.153659 
z
" clip-path="url(#p04aa719bcb)" style="fill: #2c3e50"/>
   </g>
   <g id="patch_58">
    <path d="M 178.365854 86.715366 
C 180.206298 86.715366 181.971611 85.984149 183.273002 84.682758 
C 184.574393 83.381367 185.30561 81.616055 185.30561 79.77561 
C 185.30561 77.935165 184.574393 76.169852 183.273002 74.868461 
C 181.971611 73.56707 180.206298 72.835854 178.365854 72.835854 
C 176.525409 72.835854 174.760096 73.56707 173.458705 74.868461 
C 172.157314 76.169852 171.426098 77.935165 171.426098 79.77561 
C 171.426098 81.616055 172.157314 83.381367 173.458705 84.682758 
C 174.760096 85.984149 176.525409 86.715366 178.365854 86.715366 
z
" clip-path="url(#p04aa719bcb)" style="fill: #2c3e50"/>
   </g>
   <g id="patch_59">
    <path d="M 200.873171 85.59 
C 202.415165 85.59 203.894211 84.977359 204.984566 83.887005 
C 206.07492 82.79665 206.687561 81.317604 206.687561 79.77561 
C 206.687561 78.233615 206.07492 76.75457 204.984566 75.664215 
C 203.894211 74.57386 202.415165 73.96122 200.873171 73.96122 
C 199.331176 73.96122 197.852131 74.57386 196.761776 75.664215 
C 195.671421 76.75457 195.05878 78.233615 195.05878 79.77561 
C 195.05878 81.317604 195.671421 82.79665 196.761776 83.887005 
C 197.852131 84.977359 199.331176 85.59 200.873171 85.59 
z
" clip-path="url(#p04aa719bcb)" style="fill: #2c3e50"/>
   </g>
   <g id="patch_60">
    <path d="M 178.365854 72.835854 
L 200.873171 73.96122 
L 200.873171 85.59 
L 178.365854 86.715366 
z
" clip-path="url(#p04aa719bcb)" style="fill: #2c3e50"/>
   </g>
   <g id="patch_61">
    <path d="M 129.6 288.673522 
C 130.781864 288.673522 131.915481 288.203962 132.751185 287.368258 
C 133.586889 286.532554 134.056449 285.398937 134.056449 284.217073 
C 134.056449 283.035209 133.586889 281.901592 132.751185 281.065888 
C 131.915481 280.230184 130.781864 279.760624 129.6 279.760624 
C 128.418136 279.760624 127.284519 280.230184 126.448815 281.065888 
C 125.613111 281.901592 125.143551 283.035209 125.143551 284.217073 
C 125.143551 285.398937 125.613111 286.532554 126.448815 287.368258 
C 127.284519 288.203962 128.418136 288.673522 129.6 288.673522 
z
" clip-path="url(#p04aa719bcb)" style="fill: #1b1b1b; stroke: #121212; stroke-width: 1.3; stroke-linejoin: miter"/>
   </g>
   <g id="patch_62">
    <path d="M 200.873171 85.965122 
C 202.514649 85.965122 204.089117 85.312956 205.249817 84.152256 
C 206.410517 82.991556 207.062683 81.417088 207.062683 79.77561 
C 207.062683 78.134132 206.410517 76.559664 205.249817 75.398964 
C 204.089117 74.238264 202.514649 73.586098 200.873171 73.586098 
C 199.231693 73.586098 197.657225 74.238264 196.496525 75.398964 
C 195.335825 76.559664 194.683659 78.134132 194.683659 79.77561 
C 194.683659 81.417088 195.335825 82.991556 196.496525 84.152256 
C 197.657225 85.312956 199.231693 85.965122 200.873171 85.965122 
z
" clip-path="url(#p04aa719bcb)" style="fill: #f2e0c9; stroke: #a49888; stroke-width: 1.6; stroke-linejoin: miter"/>
   </g>
   <g id="line2d_15">
    <path d="M 143.854634 147.297561 
L 138.790488 218.570732 
L 138.236234 221.714064 
L 136.640322 224.478263 
L 134.195244 226.529928 
L 131.195911 227.621595 
L 128.004089 227.621595 
L 125.004756 226.529928 
L 122.559678 224.478263 
L 120.963766 221.714064 
L 120.409512 218.570732 
L 115.345366 147.297561 
L 116.205025 142.422189 
L 118.680317 138.134859 
L 122.472683 134.952686 
L 127.124709 133.259487 
L 132.075291 133.259487 
L 136.727317 134.952686 
L 140.519683 138.134859 
L 142.994975 142.422189 
L 143.854634 147.297561 
L 143.854634 147.297561 
" clip-path="url(#p04aa719bcb)" style="fill: none; stroke: #282a2c; stroke-width: 1.7; stroke-linecap: round"/>
   </g>
   <g id="line2d_16">
    <path d="M 138.790488 218.570732 
L 135.789512 284.217073 
L 135.416239 286.334011 
L 134.341441 288.195615 
L 132.694756 289.577348 
L 130.674798 290.312553 
L 128.525202 290.312553 
L 126.505244 289.577348 
L 124.858559 288.195615 
L 123.783761 286.334011 
L 123.410488 284.217073 
L 120.409512 218.570732 
L 120.963766 215.4274 
L 122.559678 212.6632 
L 125.004756 210.611536 
L 128.004089 209.519868 
L 131.195911 209.519868 
L 134.195244 210.611536 
L 136.640322 212.6632 
L 138.236234 215.4274 
L 138.790488 218.570732 
L 138.790488 218.570732 
" clip-path="url(#p04aa719bcb)" style="fill: none; stroke: #282a2c; stroke-width: 1.7; stroke-linecap: round"/>
   </g>
   <g id="line2d_17">
    <path d="M 129.6 278.955988 
L 146.480488 280.812841 
L 147.644804 281.018142 
L 148.668686 281.60928 
L 149.428639 282.514957 
L 149.833002 283.625935 
L 149.833002 284.808212 
L 149.428639 285.919189 
L 148.668686 286.824866 
L 147.644804 287.416005 
L 146.480488 287.621305 
L 129.6 289.478159 
L 127.800603 289.160876 
L 126.21824 288.247298 
L 125.043766 286.847616 
L 124.418842 285.130651 
L 124.418842 283.303495 
L 125.043766 281.58653 
L 126.21824 280.186848 
L 127.800603 279.27327 
L 129.6 278.955988 
L 129.6 278.955988 
" clip-path="url(#p04aa719bcb)" style="fill: none; stroke: #121212; stroke-width: 1.5; stroke-linecap: round"/>
   </g>
   <g id="line2d_18">
    <path d="M 129.6 70.397561 
L 178.365854 72.835854 
L 180.73939 73.254372 
L 182.826643 74.459448 
L 184.375859 76.305732 
L 185.200179 78.570534 
L 185.200179 80.980686 
L 184.375859 83.245488 
L 182.826643 85.091771 
L 180.73939 86.296847 
L 178.365854 86.715366 
L 129.6 89.153659 
L 126.392518 88.588093 
L 123.571906 86.959612 
L 121.478372 84.464634 
L 120.364425 81.404091 
L 120.364425 78.147129 
L 121.478372 75.086585 
L 123.571906 72.591608 
L 126.392518 70.963127 
L 129.6 70.397561 
L 129.6 70.397561 
" clip-path="url(#p04aa719bcb)" style="fill: none; stroke: #1d2a36; stroke-width: 1.7; stroke-linecap: round"/>
   </g>
   <g id="line2d_19">
    <path d="M 178.365854 72.835854 
L 200.873171 73.96122 
L 202.861809 74.31187 
L 204.610589 75.321528 
L 205.90858 76.868415 
L 206.599227 78.765951 
L 206.599227 80.785268 
L 205.90858 82.682805 
L 204.610589 84.229691 
L 202.861809 85.239349 
L 200.873171 85.59 
L 178.365854 86.715366 
L 175.992317 86.296847 
L 173.905064 85.091771 
L 172.355849 83.245488 
L 171.531528 80.980686 
L 171.531528 78.570534 
L 172.355849 76.305732 
L 173.905064 74.459448 
L 175.992317 73.254372 
L 178.365854 72.835854 
L 178.365854 72.835854 
" clip-path="url(#p04aa719bcb)" style="fill: none; stroke: #1d2a36; stroke-width: 1.7; stroke-linecap: round"/>
   </g>
   <g id="patch_63">
    <path d="M 129.6 72.273171 
C 133.57934 72.273171 137.396233 70.692162 140.210051 67.878344 
C 143.023869 65.064525 144.604878 61.247633 144.604878 57.268293 
C 144.604878 53.288953 143.023869 49.47206 140.210051 46.658242 
C 137.396233 43.844423 133.57934 42.263415 129.6 42.263415 
C 125.62066 42.263415 121.803767 43.844423 118.989949 46.658242 
C 116.176131 49.47206 114.595122 53.288953 114.595122 57.268293 
C 114.595122 61.247633 116.176131 65.064525 118.989949 67.878344 
C 121.803767 70.692162 125.62066 72.273171 129.6 72.273171 
z
" clip-path="url(#p04aa719bcb)" style="fill: #f2e0c9; stroke: #a49888; stroke-width: 1.8; stroke-linejoin: miter"/>
   </g>
   <g id="line2d_20">
    <path d="M 183.992683 79.77561 
L 217.753659 79.77561 
" clip-path="url(#p04aa719bcb)" style="fill: none; stroke: #5b6b73; stroke-width: 5; stroke-linecap: round"/>
   </g>
   <g id="patch_64">
    <path d="M 183.992683 84.502146 
C 185.246175 84.502146 186.448496 84.004129 187.334849 83.117776 
C 188.221202 82.231423 188.71922 81.029102 188.71922 79.77561 
C 188.71922 78.522118 188.221202 77.319796 187.334849 76.433444 
C 186.448496 75.547091 185.246175 75.049073 183.992683 75.049073 
C 182.739191 75.049073 181.53687 75.547091 180.650517 76.433444 
C 179.764164 77.319796 179.266146 78.522118 179.266146 79.77561 
C 179.266146 81.029102 179.764164 82.231423 180.650517 83.117776 
C 181.53687 84.004129 182.739191 84.502146 183.992683 84.502146 
z
" clip-path="url(#p04aa719bcb)" style="fill: #5b6b73; stroke: #5b6b73; stroke-linejoin: miter"/>
   </g>
   <g id="patch_65">
    <path d="M 217.753659 84.502146 
C 219.007151 84.502146 220.209472 84.004129 221.095825 83.117776 
C 221.982177 82.231423 222.480195 81.029102 222.480195 79.77561 
C 222.480195 78.522118 221.982177 77.319796 221.095825 76.433444 
C 220.209472 75.547091 219.007151 75.049073 217.753659 75.049073 
C 216.500166 75.049073 215.297845 75.547091 214.411492 76.433444 
C 213.52514 77.319796 213.027122 78.522118 213.027122 79.77561 
C 213.027122 81.029102 213.52514 82.231423 214.411492 83.117776 
C 215.297845 84.004129 216.500166 84.502146 217.753659 84.502146 
z
" clip-path="url(#p04aa719bcb)" style="fill: #5b6b73; stroke: #5b6b73; stroke-linejoin: miter"/>
   </g>
   <g id="line2d_21">
    <path d="M 41.446341 79.77561 
L 75.207317 79.77561 
" clip-path="url(#p04aa719bcb)" style="fill: none; stroke: #5b6b73; stroke-width: 5; stroke-linecap: round"/>
   </g>
   <g id="patch_66">
    <path d="M 41.446341 84.502146 
C 42.699834 84.502146 43.902155 84.004129 44.788508 83.117776 
C 45.67486 82.231423 46.172878 81.029102 46.172878 79.77561 
C 46.172878 78.522118 45.67486 77.319796 44.788508 76.433444 
C 43.902155 75.547091 42.699834 75.049073 41.446341 75.049073 
C 40.192849 75.049073 38.990528 75.547091 38.104175 76.433444 
C 37.217823 77.319796 36.719805 78.522118 36.719805 79.77561 
C 36.719805 81.029102 37.217823 82.231423 38.104175 83.117776 
C 38.990528 84.004129 40.192849 84.502146 41.446341 84.502146 
z
" clip-path="url(#p04aa719bcb)" style="fill: #5b6b73; stroke: #5b6b73; stroke-linejoin: miter"/>
   </g>
   <g id="patch_67">
    <path d="M 75.207317 84.502146 
C 76.460809 84.502146 77.66313 84.004129 78.549483 83.117776 
C 79.435836 82.231423 79.933854 81.029102 79.933854 79.77561 
C 79.933854 78.522118 79.435836 77.319796 78.549483 76.433444 
C 77.66313 75.547091 76.460809 75.049073 75.207317 75.049073 
C 73.953825 75.049073 72.751504 75.547091 71.865151 76.433444 
C 70.978798 77.319796 70.48078 78.522118 70.48078 79.77561 
C 70.48078 81.029102 70.978798 82.231423 71.865151 83.117776 
C 72.751504 84.004129 73.953825 84.502146 75.207317 84.502146 
z
" clip-path="url(#p04aa719bcb)" style="fill: #5b6b73; stroke: #5b6b73; stroke-linejoin: miter"/>
   </g>
   <g id="line2d_22">
    <path d="M 144.604878 149.173171 
L 144.604878 115.412195 
" clip-path="url(#p04aa719bcb)" style="fill: none; stroke: #5b6b73; stroke-width: 5; stroke-linecap: round"/>
   </g>
   <g id="patch_68">
    <path d="M 144.604878 153.899707 
C 145.85837 153.899707 147.060691 153.40169 147.947044 152.515337 
C 148.833397 151.628984 149.331415 150.426663 149.331415 149.173171 
C 149.331415 147.919679 148.833397 146.717357 147.947044 145.831005 
C 147.060691 144.944652 145.85837 144.446634 144.604878 144.446634 
C 143.351386 144.446634 142.149065 144.944652 141.262712 145.831005 
C 140.376359 146.717357 139.878341 147.919679 139.878341 149.173171 
C 139.878341 150.426663 140.376359 151.628984 141.262712 152.515337 
C 142.149065 153.40169 143.351386 153.899707 144.604878 153.899707 
z
" clip-path="url(#p04aa719bcb)" style="fill: #5b6b73; stroke: #5b6b73; stroke-linejoin: miter"/>
   </g>
   <g id="patch_69">
    <path d="M 144.604878 120.138732 
C 145.85837 120.138732 147.060691 119.640714 147.947044 118.754361 
C 148.833397 117.868008 149.331415 116.665687 149.331415 115.412195 
C 149.331415 114.158703 148.833397 112.956382 147.947044 112.070029 
C 147.060691 111.183676 145.85837 110.685659 144.604878 110.685659 
C 143.351386 110.685659 142.149065 111.183676 141.262712 112.070029 
C 140.376359 112.956382 139.878341 114.158703 139.878341 115.412195 
C 139.878341 116.665687 140.376359 117.868008 141.262712 118.754361 
C 142.149065 119.640714 143.351386 120.138732 144.604878 120.138732 
z
" clip-path="url(#p04aa719bcb)" style="fill: #5b6b73; stroke: #5b6b73; stroke-linejoin: miter"/>
   </g>
   <g id="line2d_23">
    <path d="M 114.595122 149.173171 
L 114.595122 115.412195 
" clip-path="url(#p04aa719bcb)" style="fill: none; stroke: #5b6b73; stroke-width: 5; stroke-linecap: round"/>
   </g>
   <g id="patch_70">
    <path d="M 114.595122 153.899707 
C 115.848614 153.899707 117.050935 153.40169 117.937288 152.515337 
C 118.823641 151.628984 119.321659 150.426663 119.321659 149.173171 
C 119.321659 147.919679 118.823641 146.717357 117.937288 145.831005 
C 117.050935 144.944652 115.848614 144.446634 114.595122 144.446634 
C 113.34163 144.446634 112.139309 144.944652 111.252956 145.831005 
C 110.366603 146.717357 109.868585 147.919679 109.868585 149.173171 
C 109.868585 150.426663 110.366603 151.628984 111.252956 152.515337 
C 112.139309 153.40169 113.34163 153.899707 114.595122 153.899707 
z
" clip-path="url(#p04aa719bcb)" style="fill: #5b6b73; stroke: #5b6b73; stroke-linejoin: miter"/>
   </g>
   <g id="patch_71">
    <path d="M 114.595122 120.138732 
C 115.848614 120.138732 117.050935 119.640714 117.937288 118.754361 
C 118.823641 117.868008 119.321659 116.665687 119.321659 115.412195 
C 119.321659 114.158703 118.823641 112.956382 117.937288 112.070029 
C 117.050935 111.183676 115.848614 110.685659 114.595122 110.685659 
C 113.34163 110.685659 112.139309 111.183676 111.252956 112.070029 
C 110.366603 112.956382 109.868585 114.158703 109.868585 115.412195 
C 109.868585 116.665687 110.366603 117.868008 111.252956 118.754361 
C 112.139309 119.640714 113.34163 120.138732 114.595122 120.138732 
z
" clip-path="url(#p04aa719bcb)" style="fill: #5b6b73; stroke: #5b6b73; stroke-linejoin: miter"/>
   </g>
   <g id="patch_72">
    <path d="M 146.557934 131.85499 
Q 187.804326 122.174086 199.577065 84.041906 
" clip-path="url(#p04aa719bcb)" style="fill: none; stroke-dasharray: 2.2,0; stroke-dashoffset: 0; stroke: #c0392b; stroke-width: 2.2; stroke-linecap: round"/>
    <path d="M 195.249692 88.566709 
L 199.577065 84.041906 
L 200.600484 90.218686 
z
" clip-path="url(#p04aa719bcb)" style="fill: #c0392b; stroke-dasharray: 2.2,0; stroke-dashoffset: 0; stroke: #c0392b; stroke-width: 2.2; stroke-linecap: round"/>
   </g>
  </g>
 </g>
 <defs>
  <clipPath id="p04aa719bcb">
   <rect x="5.809756" y="1" width="247.580488" height="307.6"/>
  </clipPath>
 </defs>
</svg>
