<?xml version="1.0" encoding="utf-8" standalone="no"?>
<!DOCTYPE svg PUBLIC "-//W3C//DTD SVG 1.1//EN"
  "http://www.w3.org/Graphics/SVG/1.1/DTD/svg11.dtd">
<svg xmlns:xlink="http://www.w3.org/1999/xlink" width="259.2pt" height="309.6pt" viewBox="0 0 259.2 309.6" xmlns="http://www.w3.org/2000/svg" version="1.1">
 <metadata>
  <rdf:RDF xmlns:dc="http://purl.org/dc/elements/1.1/" xmlns:cc="http://creativecommons.org/ns#" xmlns:rdf="http://www.w3.org/1999/02/22-rdf-syntax-ns#">
   <cc:Work>
    <dc:type rdf:resource="http://purl.org/dc/dcmitype/StillImage"/>
    <dc:date>2026-07-10T23:04:56.030255</dc:date>
    <dc:format>image/svg+xml</dc:format>
    <dc:creator>
     <cc:Agent>
      <dc:title>Matplotlib v3.10.8, https://matplotlib.org/</dc:title>
     </cc:Agent>
    </dc:creator>
   </cc:Work>
  </rdf:RDF>
 </metadata>
 <defs>
  <style type="text/css">*{stroke-linejoin: round; stroke-linecap: butt}</style>
 </defs>
 <g id="figure_1">
  <g id="patch_1">
   <path d="M 0 309.6 
L 259.2 309.6 
L 259.2 0 
L 0 0 
L 0 309.6 
z
" style="fill: none"/>
  </g>
  <g id="axes_1">
   <g id="line2d_1">
    <path d="M 17.063415 278.590244 
L 242.136585 278.590244 
" clip-path="url(#p0bc3415c75)" style="fill: none; stroke: #c3c3c3; stroke-width: 3; stroke-linecap: round"/>
   </g>
   <g id="patch_2">
    <path d="M 114.595122 265.445971 
C 118.073065 265.445971 121.409029 264.064169 123.868307 261.604892 
C 126.327584 259.145615 127.709385 255.809651 127.709385 252.331707 
C 127.709385 248.853764 126.327584 245.5178 123.868307 243.058523 
C 121.409029 240.599245 118.073065 239.217444 114.595122 239.217444 
C 111.117179 239.217444 107.781215 240.599245 105.321937 243.058523 
C 102.86266 245.5178 101.480859 248.853764 101.480859 252.331707 
C 101.480859 255.809651 102.86266 259.145615 105.321937 261.604892 
C 107.781215 264.064169 111.117179 265.445971 114.595122 265.445971 
z
" clip-path="url(#p0bc3415c75)" style="fill: #3c3f42; fill-opacity: 0.95"/>
   </g>
   <g id="patch_3">
    <path d="M 80.834146 273.916224 
C 83.076505 273.916224 85.227323 273.025326 86.81291 271.439739 
C 88.398497 269.854153 89.289395 267.703334 89.289395 265.460976 
C 89.289395 263.218617 88.398497 261.067799 86.81291 259.482212 
C 85.227323 257.896625 83.076505 257.005727 80.834146 257.005727 
C 78.591788 257.005727 76.440969 257.896625 74.855383 259.482212 
C 73.269796 261.067799 72.378898 263.218617 72.378898 265.460976 
C 72.378898 267.703334 73.269796 269.854153 74.855383 271.439739 
C 76.440969 273.025326 78.591788 273.916224 80.834146 273.916224 
z
" clip-path="url(#p0bc3415c75)" style="fill: #3c3f42; fill-opacity: 0.95"/>
   </g>
   <g id="patch_4">
    <path d="M 119.348338 264.554262 
L 83.89872 273.341307 
L 77.769573 257.580644 
L 109.841906 240.109153 
z
" clip-path="url(#p0bc3415c75)" style="fill: #3c3f42; fill-opacity: 0.95"/>
   </g>
   <g id="patch_5">
    <path d="M 80.834146 273.916224 
C 83.076505 273.916224 85.227323 273.025326 86.81291 271.439739 
C 88.398497 269.854153 89.289395 267.703334 89.289395 265.460976 
C 89.289395 263.218617 88.398497 261.067799 86.81291 259.482212 
C 85.227323 257.896625 83.076505 257.005727 80.834146 257.005727 
C 78.591788 257.005727 76.440969 257.896625 74.855383 259.482212 
C 73.269796 261.067799 72.378898 263.218617 72.378898 265.460976 
C 72.378898 267.703334 73.269796 269.854153 74.855383 271.439739 
C 76.440969 273.025326 78.591788 273.916224 80.834146 273.916224 
z
" clip-path="url(#p0bc3415c75)" style="fill: #3c3f42; fill-opacity: 0.95"/>
   </g>
   <g id="patch_6">
    <path d="M 58.326829 252.399229 
C 59.836989 252.399229 61.2855 251.799237 62.353344 250.731392 
C 63.421188 249.663548 64.02118 248.215038 64.02118 246.704878 
C 64.02118 245.194718 63.421188 243.746208 62.353344 242.678364 
C 61.2855 241.61052 59.836989 241.010527 58.326829 241.010527 
C 56.81667 241.010527 55.368159 241.61052 54.300315 242.678364 
C 53.232471 243.746208 52.632478 245.194718 52.632478 246.704878 
C 52.632478 248.215038 53.232471 249.663548 54.300315 250.731392 
C 55.368159 251.799237 56.81667 252.399229 58.326829 252.399229 
z
" clip-path="url(#p0bc3415c75)" style="fill: #3c3f42; fill-opacity: 0.95"/>
   </g>
   <g id="patch_7">
    <path d="M 75.421228 271.956478 
L 54.681394 251.0794 
L 61.972264 242.330356 
L 86.247065 258.965474 
z
" clip-path="url(#p0bc3415c75)" style="fill: #3c3f42; fill-opacity: 0.95"/>
   </g>
   <g id="patch_8">
    <path d="M 58.326829 251.545077 
C 59.610465 251.545077 60.841699 251.035083 61.749366 250.127415 
C 62.657034 249.219748 63.167028 247.988514 63.167028 246.704878 
C 63.167028 245.421242 62.657034 244.190008 61.749366 243.282341 
C 60.841699 242.374673 59.610465 241.86468 58.326829 241.86468 
C 57.043194 241.86468 55.81196 242.374673 54.904292 243.282341 
C 53.996625 244.190008 53.486631 245.421242 53.486631 246.704878 
C 53.486631 247.988514 53.996625 249.219748 54.904292 250.127415 
C 55.81196 251.035083 57.043194 251.545077 58.326829 251.545077 
z
" clip-path="url(#p0bc3415c75)" style="fill: #1b1b1b; fill-opacity: 0.95"/>
   </g>
   <g id="patch_9">
    <path d="M 47.073171 240.458722 
C 47.903759 240.458722 48.700439 240.128726 49.287754 239.541412 
C 49.875068 238.954098 50.205064 238.157417 50.205064 237.326829 
C 50.205064 236.496241 49.875068 235.699561 49.287754 235.112246 
C 48.700439 234.524932 47.903759 234.194936 47.073171 234.194936 
C 46.242583 234.194936 45.445902 234.524932 44.858588 235.112246 
C 44.271274 235.699561 43.941278 236.496241 43.941278 237.326829 
C 43.941278 238.157417 44.271274 238.954098 44.858588 239.541412 
C 45.445902 240.128726 46.242583 240.458722 47.073171 240.458722 
z
" clip-path="url(#p0bc3415c75)" style="fill: #1b1b1b; fill-opacity: 0.95"/>
   </g>
   <g id="patch_10">
    <path d="M 55.22821 250.423222 
L 45.068182 239.732816 
L 49.07816 234.920842 
L 61.425449 242.986535 
z
" clip-path="url(#p0bc3415c75)" style="fill: #1b1b1b; fill-opacity: 0.95"/>
   </g>
   <g id="patch_11">
    <path d="M 58.326829 250.804811 
C 59.414144 250.804811 60.457072 250.372816 61.22592 249.603968 
C 61.994767 248.835121 62.426762 247.792193 62.426762 246.704878 
C 62.426762 245.617563 61.994767 244.574635 61.22592 243.805788 
C 60.457072 243.03694 59.414144 242.604945 58.326829 242.604945 
C 57.239514 242.604945 56.196587 243.03694 55.427739 243.805788 
C 54.658891 244.574635 54.226896 245.617563 54.226896 246.704878 
C 54.226896 247.792193 54.658891 248.835121 55.427739 249.603968 
C 56.196587 250.372816 57.239514 250.804811 58.326829 250.804811 
z
" clip-path="url(#p0bc3415c75)" style="fill: #1b1b1b; fill-opacity: 0.95; stroke: #121212; stroke-width: 1.3; stroke-linejoin: miter"/>
   </g>
   <g id="line2d_2">
    <path d="M 119.348338 264.554262 
L 83.89872 273.341307 
L 81.018671 273.914211 
L 78.116366 273.467529 
L 75.541866 272.05514 
L 73.605692 269.847396 
L 72.541377 267.110586 
L 72.477293 264.174808 
L 73.421168 261.394161 
L 75.259157 259.104032 
L 77.769573 257.580644 
L 109.841906 240.109153 
L 114.30892 239.220567 
L 118.810454 239.913379 
L 122.803557 242.104024 
L 125.806601 245.528279 
L 127.457376 249.773128 
L 127.556773 254.326579 
L 126.092803 258.639419 
L 123.242044 262.191456 
L 119.348338 264.554262 
L 119.348338 264.554262 
" clip-path="url(#p0bc3415c75)" style="fill: none; stroke: #282a2c; stroke-width: 1.7; stroke-linecap: round"/>
   </g>
   <g id="line2d_3">
    <path d="M 75.421228 271.956478 
L 54.681394 251.0794 
L 53.405067 249.568772 
L 52.722376 247.712716 
L 52.715665 245.7351 
L 53.385743 243.874453 
L 54.651789 242.355198 
L 56.3611 241.360578 
L 58.307506 241.01056 
L 60.256243 241.34736 
L 61.972264 242.330356 
L 86.247065 258.965474 
L 88.142218 261.208527 
L 89.155911 263.964489 
L 89.165875 266.900949 
L 88.170911 269.663727 
L 86.291024 271.919592 
L 83.752957 273.396451 
L 80.862839 273.916176 
L 77.969259 273.416078 
L 75.421228 271.956478 
L 75.421228 271.956478 
" clip-path="url(#p0bc3415c75)" style="fill: none; stroke: #282a2c; stroke-width: 1.7; stroke-linecap: round"/>
   </g>
   <g id="line2d_4">
    <path d="M 55.22821 250.423222 
L 45.068182 239.732816 
L 44.366201 238.901971 
L 43.990721 237.88114 
L 43.98703 236.793451 
L 44.355573 235.770096 
L 45.051899 234.934505 
L 45.992019 234.387464 
L 47.062543 234.194954 
L 48.134348 234.380194 
L 49.07816 234.920842 
L 61.425449 242.986535 
L 62.510328 244.270568 
L 63.090615 245.848216 
L 63.096319 247.52919 
L 62.526752 249.110739 
L 61.450613 250.402106 
L 59.997699 251.247533 
L 58.343254 251.545049 
L 56.686828 251.258768 
L 55.22821 250.423222 
L 55.22821 250.423222 
" clip-path="url(#p0bc3415c75)" style="fill: none; stroke: #121212; stroke-width: 1.5; stroke-linecap: round"/>
   </g>
   <g id="patch_12">
    <path d="M 110.843902 182.934146 
C 112.833573 182.934146 114.742019 182.143642 116.148928 180.736733 
C 117.555837 179.329824 118.346341 177.421377 118.346341 175.431707 
C 118.346341 173.442037 117.555837 171.533591 116.148928 170.126682 
C 114.742019 168.719773 112.833573 167.929268 110.843902 167.929268 
C 108.854232 167.929268 106.945786 168.719773 105.538877 170.126682 
C 104.131968 171.533591 103.341463 173.442037 103.341463 175.431707 
C 103.341463 177.421377 104.131968 179.329824 105.538877 180.736733 
C 106.945786 182.143642 108.854232 182.934146 110.843902 182.934146 
z
" clip-path="url(#p0bc3415c75)" style="fill: #2c3e50"/>
   </g>
   <g id="patch_13">
    <path d="M 112.719512 205.816585 
C 115.803501 205.816585 118.761592 204.591304 120.942302 202.410594 
C 123.123011 200.229885 124.348293 197.271794 124.348293 194.187805 
C 124.348293 191.103816 123.123011 188.145725 120.942302 185.965015 
C 118.761592 183.784306 115.803501 182.559024 112.719512 182.559024 
C 109.635524 182.559024 106.677432 183.784306 104.496723 185.965015 
C 102.316013 188.145725 101.090732 191.103816 101.090732 194.187805 
C 101.090732 197.271794 102.316013 200.229885 104.496723 202.410594 
C 106.677432 204.591304 109.635524 205.816585 112.719512 205.816585 
z
" clip-path="url(#p0bc3415c75)" style="fill: #2c3e50"/>
   </g>
   <g id="patch_14">
    <path d="M 118.309108 174.685187 
L 124.290581 193.030698 
L 101.148443 195.344912 
L 103.378697 176.178228 
z
" clip-path="url(#p0bc3415c75)" style="fill: #2c3e50"/>
   </g>
   <g id="patch_15">
    <path d="M 112.719512 217.445366 
C 118.887489 217.445366 124.803673 214.994803 129.165091 210.633384 
C 133.52651 206.271965 135.977073 200.355782 135.977073 194.187805 
C 135.977073 188.019828 133.52651 182.103644 129.165091 177.742226 
C 124.803673 173.380807 118.887489 170.930244 112.719512 170.930244 
C 106.551535 170.930244 100.635352 173.380807 96.273933 177.742226 
C 91.912515 182.103644 89.461951 188.019828 89.461951 194.187805 
C 89.461951 200.355782 91.912515 206.271965 96.273933 210.633384 
C 100.635352 214.994803 106.551535 217.445366 112.719512 217.445366 
z
" clip-path="url(#p0bc3415c75)" style="fill: #2c3e50"/>
   </g>
   <g id="patch_16">
    <path d="M 114.595122 269.587317 
C 119.171363 269.587317 123.560789 267.769157 126.796681 264.533266 
C 130.032572 261.297375 131.850732 256.907949 131.850732 252.331707 
C 131.850732 247.755466 130.032572 243.36604 126.796681 240.130149 
C 123.560789 236.894257 119.171363 235.076098 114.595122 235.076098 
C 110.018881 235.076098 105.629454 236.894257 102.393563 240.130149 
C 99.157672 243.36604 97.339512 247.755466 97.339512 252.331707 
C 97.339512 256.907949 99.157672 261.297375 102.393563 264.533266 
C 105.629454 267.769157 110.018881 269.587317 114.595122 269.587317 
z
" clip-path="url(#p0bc3415c75)" style="fill: #2c3e50"/>
   </g>
   <g id="patch_17">
    <path d="M 135.964982 193.437951 
L 131.841761 251.775364 
L 97.348483 252.888051 
L 89.474042 194.937659 
z
" clip-path="url(#p0bc3415c75)" style="fill: #2c3e50"/>
   </g>
   <g id="patch_18">
    <path d="M 114.595122 266.586341 
C 118.375495 266.586341 122.001543 265.084383 124.67467 262.411256 
C 127.347798 259.738128 128.849756 256.11208 128.849756 252.331707 
C 128.849756 248.551334 127.347798 244.925286 124.67467 242.252159 
C 122.001543 239.579031 118.375495 238.077073 114.595122 238.077073 
C 110.814749 238.077073 107.188701 239.579031 104.515573 242.252159 
C 101.842446 244.925286 100.340488 248.551334 100.340488 252.331707 
C 100.340488 256.11208 101.842446 259.738128 104.515573 262.411256 
C 107.188701 265.084383 110.814749 266.586341 114.595122 266.586341 
z
" clip-path="url(#p0bc3415c75)" style="fill: #3c3f42"/>
   </g>
   <g id="patch_19">
    <path d="M 150.231707 255.895366 
C 152.669053 255.895366 155.0069 254.926998 156.730364 253.203534 
C 158.453827 251.480071 159.422195 249.142224 159.422195 246.704878 
C 159.422195 244.267532 158.453827 241.929686 156.730364 240.206222 
C 155.0069 238.482758 152.669053 237.51439 150.231707 237.51439 
C 147.794361 237.51439 145.456515 238.482758 143.733051 240.206222 
C 142.009587 241.929686 141.04122 244.267532 141.04122 246.704878 
C 141.04122 249.142224 142.009587 251.480071 143.733051 253.203534 
C 145.456515 254.926998 147.794361 255.895366 150.231707 255.895366 
z
" clip-path="url(#p0bc3415c75)" style="fill: #3c3f42"/>
   </g>
   <g id="patch_20">
    <path d="M 112.371933 238.251508 
L 148.798335 237.626855 
L 151.665079 255.782902 
L 116.818311 266.411907 
z
" clip-path="url(#p0bc3415c75)" style="fill: #3c3f42"/>
   </g>
   <g id="patch_21">
    <path d="M 150.231707 255.895366 
C 152.669053 255.895366 155.0069 254.926998 156.730364 253.203534 
C 158.453827 251.480071 159.422195 249.142224 159.422195 246.704878 
C 159.422195 244.267532 158.453827 241.929686 156.730364 240.206222 
C 155.0069 238.482758 152.669053 237.51439 150.231707 237.51439 
C 147.794361 237.51439 145.456515 238.482758 143.733051 240.206222 
C 142.009587 241.929686 141.04122 244.267532 141.04122 246.704878 
C 141.04122 249.142224 142.009587 251.480071 143.733051 253.203534 
C 145.456515 254.926998 147.794361 255.895366 150.231707 255.895366 
z
" clip-path="url(#p0bc3415c75)" style="fill: #3c3f42"/>
   </g>
   <g id="patch_22">
    <path d="M 138.978049 222.884634 
C 140.619527 222.884634 142.193995 222.232468 143.354695 221.071768 
C 144.515395 219.911068 145.167561 218.3366 145.167561 216.695122 
C 145.167561 215.053644 144.515395 213.479176 143.354695 212.318476 
C 142.193995 211.157776 140.619527 210.50561 138.978049 210.50561 
C 137.336571 210.50561 135.762103 211.157776 134.601403 212.318476 
C 133.440703 213.479176 132.788537 215.053644 132.788537 216.695122 
C 132.788537 218.3366 133.440703 219.911068 134.601403 221.071768 
C 135.762103 222.232468 137.336571 222.884634 138.978049 222.884634 
z
" clip-path="url(#p0bc3415c75)" style="fill: #3c3f42"/>
   </g>
   <g id="patch_23">
    <path d="M 141.626385 249.931874 
L 133.182628 218.868405 
L 144.77347 214.521839 
L 158.837029 243.477882 
z
" clip-path="url(#p0bc3415c75)" style="fill: #3c3f42"/>
   </g>
   <g id="patch_24">
    <path d="M 138.978049 221.956207 
C 140.373305 221.956207 141.711603 221.401866 142.698198 220.415271 
C 143.684793 219.428676 144.239134 218.090378 144.239134 216.695122 
C 144.239134 215.299866 143.684793 213.961568 142.698198 212.974973 
C 141.711603 211.988378 140.373305 211.434037 138.978049 211.434037 
C 137.582793 211.434037 136.244495 211.988378 135.2579 212.974973 
C 134.271305 213.961568 133.716963 215.299866 133.716963 216.695122 
C 133.716963 218.090378 134.271305 219.428676 135.2579 220.415271 
C 136.244495 221.401866 137.582793 221.956207 138.978049 221.956207 
z
" clip-path="url(#p0bc3415c75)" style="fill: #1b1b1b"/>
   </g>
   <g id="patch_25">
    <path d="M 127.72439 212.596915 
C 128.627203 212.596915 129.493161 212.238223 130.131546 211.599838 
C 130.769931 210.961453 131.128622 210.095496 131.128622 209.192683 
C 131.128622 208.28987 130.769931 207.423913 130.131546 206.785528 
C 129.493161 206.147143 128.627203 205.788451 127.72439 205.788451 
C 126.821577 205.788451 125.95562 206.147143 125.317235 206.785528 
C 124.67885 207.423913 124.320159 208.28987 124.320159 209.192683 
C 124.320159 210.095496 124.67885 210.961453 125.317235 211.599838 
C 125.95562 212.238223 126.821577 212.596915 127.72439 212.596915 
z
" clip-path="url(#p0bc3415c75)" style="fill: #1b1b1b"/>
   </g>
   <g id="patch_26">
    <path d="M 136.059724 221.07261 
L 125.836062 212.025175 
L 129.612718 206.360191 
L 141.896374 212.317634 
z
" clip-path="url(#p0bc3415c75)" style="fill: #1b1b1b"/>
   </g>
   <g id="line2d_5">
    <path d="M 118.309108 174.685187 
L 124.290581 193.030698 
L 123.988514 197.058019 
L 122.327239 200.739149 
L 119.507131 203.630091 
L 115.868335 205.382154 
L 111.849745 205.784013 
L 107.936062 204.787198 
L 104.599333 202.51194 
L 102.242018 199.232668 
L 101.148443 195.344912 
L 103.378697 176.178228 
L 103.573579 173.579956 
L 104.645369 171.205033 
L 106.464794 169.33991 
L 108.812404 168.209547 
L 111.405043 167.950283 
L 113.93 168.593389 
L 116.082728 170.061298 
L 117.603576 172.176957 
L 118.309108 174.685187 
L 118.309108 174.685187 
" clip-path="url(#p0bc3415c75)" style="fill: none; stroke: #1d2a36; stroke-width: 1.7; stroke-linecap: round"/>
   </g>
   <g id="line2d_6">
    <path d="M 135.964982 193.437951 
L 131.841761 251.775364 
L 130.991942 257.707614 
L 128.164424 262.991449 
L 123.700249 266.989563 
L 118.13786 269.219723 
L 112.148166 269.412939 
L 106.45361 267.545906 
L 101.741041 263.843817 
L 98.578863 258.753197 
L 97.348483 252.888051 
L 89.474042 194.937659 
L 90.619451 186.942018 
L 94.430453 179.820326 
L 100.447385 174.431565 
L 107.944517 171.425697 
L 116.017584 171.165275 
L 123.692855 173.681711 
L 130.044578 178.671484 
L 134.306643 185.532754 
L 135.964982 193.437951 
L 135.964982 193.437951 
" clip-path="url(#p0bc3415c75)" style="fill: none; stroke: #1d2a36; stroke-width: 1.7; stroke-linecap: round"/>
   </g>
   <g id="patch_27">
    <path d="M 112.719512 203.565854 
C 115.2066 203.565854 117.592158 202.577723 119.350794 200.819087 
C 121.109431 199.06045 122.097561 196.674892 122.097561 194.187805 
C 122.097561 191.700717 121.109431 189.31516 119.350794 187.556523 
C 117.592158 185.797886 115.2066 184.809756 112.719512 184.809756 
C 110.232425 184.809756 107.846867 185.797886 106.08823 187.556523 
C 104.329594 189.31516 103.341463 191.700717 103.341463 194.187805 
C 103.341463 196.674892 104.329594 199.06045 106.08823 200.819087 
C 107.846867 202.577723 110.232425 203.565854 112.719512 203.565854 
z
" clip-path="url(#p0bc3415c75)" style="fill: #2c3e50"/>
   </g>
   <g id="patch_28">
    <path d="M 125.84878 229.261707 
C 127.689225 229.261707 129.454538 228.530491 130.755929 227.2291 
C 132.05732 225.927709 132.788537 224.162396 132.788537 222.321951 
C 132.788537 220.481506 132.05732 218.716194 130.755929 217.414803 
C 129.454538 216.113412 127.689225 215.382195 125.84878 215.382195 
C 124.008336 215.382195 122.243023 216.113412 120.941632 217.414803 
C 119.640241 218.716194 118.909024 220.481506 118.909024 222.321951 
C 118.909024 224.162396 119.640241 225.927709 120.941632 227.2291 
C 122.243023 228.530491 124.008336 229.261707 125.84878 229.261707 
z
" clip-path="url(#p0bc3415c75)" style="fill: #2c3e50"/>
   </g>
   <g id="patch_29">
    <path d="M 121.217742 190.221964 
L 132.13747 219.387229 
L 119.560091 225.256673 
L 104.221283 198.153645 
z
" clip-path="url(#p0bc3415c75)" style="fill: #2c3e50"/>
   </g>
   <g id="patch_30">
    <path d="M 125.84878 229.261707 
C 127.689225 229.261707 129.454538 228.530491 130.755929 227.2291 
C 132.05732 225.927709 132.788537 224.162396 132.788537 222.321951 
C 132.788537 220.481506 132.05732 218.716194 130.755929 217.414803 
C 129.454538 216.113412 127.689225 215.382195 125.84878 215.382195 
C 124.008336 215.382195 122.243023 216.113412 120.941632 217.414803 
C 119.640241 218.716194 118.909024 220.481506 118.909024 222.321951 
C 118.909024 224.162396 119.640241 225.927709 120.941632 227.2291 
C 122.243023 228.530491 124.008336 229.261707 125.84878 229.261707 
z
" clip-path="url(#p0bc3415c75)" style="fill: #2c3e50"/>
   </g>
   <g id="patch_31">
    <path d="M 135.226829 248.768049 
C 136.768824 248.768049 138.247869 248.155408 139.338224 247.065053 
C 140.428579 245.974699 141.04122 244.495653 141.04122 242.953659 
C 141.04122 241.411664 140.428579 239.932618 139.338224 238.842264 
C 138.247869 237.751909 136.768824 237.139268 135.226829 237.139268 
C 133.684835 237.139268 132.205789 237.751909 131.115434 238.842264 
C 130.02508 239.932618 129.412439 241.411664 129.412439 242.953659 
C 129.412439 244.495653 130.02508 245.974699 131.115434 247.065053 
C 132.205789 248.155408 133.684835 248.768049 135.226829 248.768049 
z
" clip-path="url(#p0bc3415c75)" style="fill: #2c3e50"/>
   </g>
   <g id="patch_32">
    <path d="M 132.166502 219.45026 
L 140.520055 240.547647 
L 129.933603 245.35967 
L 119.531059 225.193643 
z
" clip-path="url(#p0bc3415c75)" style="fill: #2c3e50"/>
   </g>
   <g id="patch_33">
    <path d="M 138.978049 221.151571 
C 140.159913 221.151571 141.29353 220.682011 142.129234 219.846307 
C 142.964938 219.010603 143.434498 217.876986 143.434498 216.695122 
C 143.434498 215.513258 142.964938 214.379641 142.129234 213.543937 
C 141.29353 212.708233 140.159913 212.238673 138.978049 212.238673 
C 137.796185 212.238673 136.662568 212.708233 135.826864 213.543937 
C 134.99116 214.379641 134.5216 215.513258 134.5216 216.695122 
C 134.5216 217.876986 134.99116 219.010603 135.826864 219.846307 
C 136.662568 220.682011 137.796185 221.151571 138.978049 221.151571 
z
" clip-path="url(#p0bc3415c75)" style="fill: #1b1b1b; stroke: #121212; stroke-width: 1.3; stroke-linejoin: miter"/>
   </g>
   <g id="patch_34">
    <path d="M 135.226829 249.143171 
C 136.868307 249.143171 138.442775 248.491005 139.603475 247.330305 
C 140.764175 246.169604 141.416341 244.595136 141.416341 242.953659 
C 141.416341 241.312181 140.764175 239.737713 139.603475 238.577012 
C 138.442775 237.416312 136.868307 236.764146 135.226829 236.764146 
C 133.585351 236.764146 132.010883 237.416312 130.850183 238.577012 
C 129.689483 239.737713 129.037317 241.312181 129.037317 242.953659 
C 129.037317 244.595136 129.689483 246.169604 130.850183 247.330305 
C 132.010883 248.491005 133.585351 249.143171 135.226829 249.143171 
z
" clip-path="url(#p0bc3415c75)" style="fill: #f2e0c9; stroke: #a49888; stroke-width: 1.6; stroke-linejoin: miter"/>
   </g>
   <g id="line2d_7">
    <path d="M 112.371933 238.251508 
L 148.798335 237.626855 
L 151.989645 237.684084 
L 154.968922 238.829355 
L 157.37682 240.92453 
L 158.922913 243.7169 
L 159.420718 246.869664 
L 158.810192 250.002553 
L 157.164975 252.737694 
L 154.683503 254.745188 
L 151.665079 255.782902 
L 116.818311 266.411907 
L 111.868525 266.323143 
L 107.247606 264.546805 
L 103.512906 261.297146 
L 101.114885 256.966123 
L 100.342779 252.07612 
L 101.289717 247.216946 
L 103.841482 242.974687 
L 107.690295 239.861023 
L 112.371933 238.251508 
L 112.371933 238.251508 
" clip-path="url(#p0bc3415c75)" style="fill: none; stroke: #282a2c; stroke-width: 1.7; stroke-linecap: round"/>
   </g>
   <g id="line2d_8">
    <path d="M 141.626385 249.931874 
L 133.182628 218.868405 
L 132.788828 216.755189 
L 133.14154 214.634728 
L 134.19822 212.762782 
L 135.831419 211.365133 
L 137.844147 210.61036 
L 139.993641 210.589499 
L 142.020639 211.305066 
L 143.680656 212.670753 
L 144.77347 214.521839 
L 158.837029 243.477882 
L 159.421762 246.615687 
L 158.898039 249.76425 
L 157.329029 252.543808 
L 154.903976 254.619104 
L 151.915379 255.739828 
L 148.723707 255.770803 
L 145.713921 254.708294 
L 143.249047 252.680456 
L 141.626385 249.931874 
L 141.626385 249.931874 
" clip-path="url(#p0bc3415c75)" style="fill: none; stroke: #282a2c; stroke-width: 1.7; stroke-linecap: round"/>
   </g>
   <g id="line2d_9">
    <path d="M 136.059724 221.07261 
L 125.836062 212.025175 
L 124.981173 211.208509 
L 124.457156 210.148704 
L 124.327216 208.973589 
L 124.607025 207.8249 
L 125.262835 206.841186 
L 126.215544 206.141097 
L 127.350243 205.809074 
L 128.530069 205.885165 
L 129.612718 206.360191 
L 141.896374 212.317634 
L 143.217566 213.579755 
L 144.02741 215.217635 
L 144.228227 217.033722 
L 143.795794 218.808968 
L 142.782271 220.329254 
L 141.309902 221.411209 
L 139.556277 221.924335 
L 137.732909 221.806741 
L 136.059724 221.07261 
L 136.059724 221.07261 
" clip-path="url(#p0bc3415c75)" style="fill: none; stroke: #121212; stroke-width: 1.5; stroke-linecap: round"/>
   </g>
   <g id="line2d_10">
    <path d="M 121.217742 190.221964 
L 132.13747 219.387229 
L 132.76195 221.715073 
L 132.552599 224.116116 
L 131.534669 226.300755 
L 129.830937 228.005493 
L 127.646898 229.024711 
L 125.245979 229.235477 
L 122.917767 228.612371 
L 120.943079 227.230546 
L 119.560091 225.256673 
L 104.221283 198.153645 
L 103.377391 195.00791 
L 103.660297 191.763258 
L 105.035879 188.811042 
L 107.33822 186.507343 
L 110.289624 185.130021 
L 113.534108 184.845202 
L 116.680341 185.687238 
L 119.348839 187.554568 
L 121.217742 190.221964 
L 121.217742 190.221964 
" clip-path="url(#p0bc3415c75)" style="fill: none; stroke: #1d2a36; stroke-width: 1.7; stroke-linecap: round"/>
   </g>
   <g id="line2d_11">
    <path d="M 132.166502 219.45026 
L 140.520055 240.547647 
L 141.023739 242.503137 
L 140.82823 244.512967 
L 139.95711 246.334721 
L 138.515447 247.748669 
L 136.677129 248.584268 
L 134.663884 248.740733 
L 132.718538 248.199191 
L 131.075728 247.02496 
L 129.933603 245.35967 
L 119.531059 225.193643 
L 118.929888 222.859671 
L 119.163237 220.460842 
L 120.202962 218.28649 
L 121.923656 216.598874 
L 124.117777 215.601546 
L 126.520683 215.414798 
L 128.842548 216.061155 
L 130.80332 217.462656 
L 132.166502 219.45026 
L 132.166502 219.45026 
" clip-path="url(#p0bc3415c75)" style="fill: none; stroke: #1d2a36; stroke-width: 1.7; stroke-linecap: round"/>
   </g>
   <g id="patch_35">
    <path d="M 110.843902 190.436585 
C 114.823243 190.436585 118.640135 188.855577 121.453953 186.041758 
C 124.267772 183.22794 125.84878 179.411047 125.84878 175.431707 
C 125.84878 171.452367 124.267772 167.635475 121.453953 164.821656 
C 118.640135 162.007838 114.823243 160.426829 110.843902 160.426829 
C 106.864562 160.426829 103.04767 162.007838 100.233851 164.821656 
C 97.420033 167.635475 95.839024 171.452367 95.839024 175.431707 
C 95.839024 179.411047 97.420033 183.22794 100.233851 186.041758 
C 103.04767 188.855577 106.864562 190.436585 110.843902 190.436585 
z
" clip-path="url(#p0bc3415c75)" style="fill: #f2e0c9; stroke: #a49888; stroke-width: 1.8; stroke-linejoin: miter"/>
   </g>
   <g id="patch_36">
    <path d="M 150.344523 262.637247 
Q 105.808309 239.203438 69.22683 270.072568 
" clip-path="url(#p0bc3415c75)" style="fill: none; stroke-dasharray: 2.2,0; stroke-dashoffset: 0; stroke: #c0392b; stroke-width: 2.2; stroke-linecap: round"/>
    <path d="M 75.312419 268.600966 
L 69.22683 270.072568 
L 71.700902 264.321136 
z
" clip-path="url(#p0bc3415c75)" style="fill: #c0392b; stroke-dasharray: 2.2,0; stroke-dashoffset: 0; stroke: #c0392b; stroke-width: 2.2; stroke-linecap: round"/>
   </g>
  </g>
 </g>
 <defs>
  <clipPath id="p0bc3415c75">
   <rect x="5.809756" y="1" width="247.580488" height="307.6"/>
  </clipPath>
 </defs>
</svg>
