<?xml version="1.0" encoding="utf-8" standalone="no"?>
<!DOCTYPE svg PUBLIC "-//W3C//DTD SVG 1.1//EN"
  "http://www.w3.org/Graphics/SVG/1.1/DTD/svg11.dtd">
<svg xmlns:xlink="http://www.w3.org/1999/xlink" width="259.2pt" height="309.6pt" viewBox="0 0 259.2 309.6" xmlns="http://www.w3.org/2000/svg" version="1.1">
 <metadata>
  <rdf:RDF xmlns:dc="http://purl.org/dc/elements/1.1/" xmlns:cc="http://creativecommons.org/ns#" xmlns:rdf="http://www.w3.org/1999/02/22-rdf-syntax-ns#">
   <cc:Work>
    <dc:type rdf:resource="http://purl.org/dc/dcmitype/StillImage"/>
    <dc:date>2026-07-10T23:04:55.633168</dc:date>
    <dc:format>image/svg+xml</dc:format>
    <dc:creator>
     <cc:Agent>
      <dc:title>Matplotlib v3.10.8, https://matplotlib.org/</dc:title>
     </cc:Agent>
    </dc:creator>
   </cc:Work>
  </rdf:RDF>
 </metadata>
 <defs>
  <style type="text/css">*{stroke-linejoin: round; stroke-linecap: butt}</style>
 </defs>
 <g id="figure_1">
  <g id="patch_1">
   <path d="M 0 309.6 
L 259.2 309.6 
L 259.2 0 
L 0 0 
L 0 309.6 
z
" style="fill: none"/>
  </g>
  <g id="axes_1">
   <g id="line2d_1">
    <path d="M 17.063415 287.968293 
L 242.136585 287.968293 
" clip-path="url(#pb8b399dbe3)" style="fill: none; stroke: #c3c3c3; stroke-width: 3; stroke-linecap: round"/>
   </g>
   <g id="patch_2">
    <path d="M 54.57561 226.073171 
C 56.56528 226.073171 58.473726 225.282666 59.880635 223.875757 
C 61.287544 222.468848 62.078049 220.560402 62.078049 218.570732 
C 62.078049 216.581062 61.287544 214.672615 59.880635 213.265706 
C 58.473726 211.858797 56.56528 211.068293 54.57561 211.068293 
C 52.58594 211.068293 50.677493 211.858797 49.270584 213.265706 
C 47.863675 214.672615 47.073171 216.581062 47.073171 218.570732 
C 47.073171 220.560402 47.863675 222.468848 49.270584 223.875757 
C 50.677493 225.282666 52.58594 226.073171 54.57561 226.073171 
z
" clip-path="url(#pb8b399dbe3)" style="fill: #2c3e50"/>
   </g>
   <g id="patch_3">
    <path d="M 73.331707 233.950732 
C 76.415696 233.950732 79.373788 232.72545 81.554497 230.544741 
C 83.735206 228.364031 84.960488 225.40594 84.960488 222.321951 
C 84.960488 219.237963 83.735206 216.279871 81.554497 214.099162 
C 79.373788 211.918452 76.415696 210.693171 73.331707 210.693171 
C 70.247719 210.693171 67.289627 211.918452 65.108918 214.099162 
C 62.928209 216.279871 61.702927 219.237963 61.702927 222.321951 
C 61.702927 225.40594 62.928209 228.364031 65.108918 230.544741 
C 67.289627 232.72545 70.247719 233.950732 73.331707 233.950732 
z
" clip-path="url(#pb8b399dbe3)" style="fill: #2c3e50"/>
   </g>
   <g id="patch_4">
    <path d="M 56.046959 211.213985 
L 75.612299 210.918994 
L 71.051116 233.724909 
L 53.10426 225.927478 
z
" clip-path="url(#pb8b399dbe3)" style="fill: #2c3e50"/>
   </g>
   <g id="patch_5">
    <path d="M 73.331707 245.579512 
C 79.499685 245.579512 85.415868 243.128949 89.777286 238.76753 
C 94.138705 234.406112 96.589268 228.489928 96.589268 222.321951 
C 96.589268 216.153974 94.138705 210.237791 89.777286 205.876372 
C 85.415868 201.514954 79.499685 199.06439 73.331707 199.06439 
C 67.16373 199.06439 61.247547 201.514954 56.886128 205.876372 
C 52.52471 210.237791 50.074146 216.153974 50.074146 222.321951 
C 50.074146 228.489928 52.52471 234.406112 56.886128 238.76753 
C 61.247547 243.128949 67.16373 245.579512 73.331707 245.579512 
z
" clip-path="url(#pb8b399dbe3)" style="fill: #2c3e50"/>
   </g>
   <g id="patch_6">
    <path d="M 163.360976 253.081951 
C 167.937217 253.081951 172.326643 251.263791 175.562534 248.0279 
C 178.798425 244.792009 180.616585 240.402583 180.616585 235.826341 
C 180.616585 231.2501 178.798425 226.860674 175.562534 223.624783 
C 172.326643 220.388892 167.937217 218.570732 163.360976 218.570732 
C 158.784734 218.570732 154.395308 220.388892 151.159417 223.624783 
C 147.923526 226.860674 146.105366 231.2501 146.105366 235.826341 
C 146.105366 240.402583 147.923526 244.792009 151.159417 248.0279 
C 154.395308 251.263791 158.784734 253.081951 163.360976 253.081951 
z
" clip-path="url(#pb8b399dbe3)" style="fill: #2c3e50"/>
   </g>
   <g id="patch_7">
    <path d="M 76.781744 199.321704 
L 165.920681 218.761642 
L 160.801271 252.891041 
L 69.88167 245.322199 
z
" clip-path="url(#pb8b399dbe3)" style="fill: #2c3e50"/>
   </g>
   <g id="patch_8">
    <path d="M 163.360976 250.080976 
C 167.141349 250.080976 170.767397 248.579017 173.440524 245.90589 
C 176.113652 243.232762 177.61561 239.606715 177.61561 235.826341 
C 177.61561 232.045968 176.113652 228.41992 173.440524 225.746793 
C 170.767397 223.073665 167.141349 221.571707 163.360976 221.571707 
C 159.580602 221.571707 155.954555 223.073665 153.281427 225.746793 
C 150.6083 228.41992 149.106341 232.045968 149.106341 235.826341 
C 149.106341 239.606715 150.6083 243.232762 153.281427 245.90589 
C 155.954555 248.579017 159.580602 250.080976 163.360976 250.080976 
z
" clip-path="url(#pb8b399dbe3)" style="fill: #3c3f42"/>
   </g>
   <g id="patch_9">
    <path d="M 200.873171 250.643659 
C 203.310517 250.643659 205.648363 249.675291 207.371827 247.951827 
C 209.095291 246.228363 210.063659 243.890517 210.063659 241.453171 
C 210.063659 239.015825 209.095291 236.677978 207.371827 234.954514 
C 205.648363 233.231051 203.310517 232.262683 200.873171 232.262683 
C 198.435825 232.262683 196.097978 233.231051 194.374514 234.954514 
C 192.651051 236.677978 191.682683 239.015825 191.682683 241.453171 
C 191.682683 243.890517 192.651051 246.228363 194.374514 247.951827 
C 196.097978 249.675291 198.435825 250.643659 200.873171 250.643659 
z
" clip-path="url(#pb8b399dbe3)" style="fill: #3c3f42"/>
   </g>
   <g id="patch_10">
    <path d="M 165.475514 221.729416 
L 202.236492 232.364363 
L 199.50985 250.541978 
L 161.246437 249.923267 
z
" clip-path="url(#pb8b399dbe3)" style="fill: #3c3f42"/>
   </g>
   <g id="patch_11">
    <path d="M 200.873171 250.643659 
C 203.310517 250.643659 205.648363 249.675291 207.371827 247.951827 
C 209.095291 246.228363 210.063659 243.890517 210.063659 241.453171 
C 210.063659 239.015825 209.095291 236.677978 207.371827 234.954514 
C 205.648363 233.231051 203.310517 232.262683 200.873171 232.262683 
C 198.435825 232.262683 196.097978 233.231051 194.374514 234.954514 
C 192.651051 236.677978 191.682683 239.015825 191.682683 241.453171 
C 191.682683 243.890517 192.651051 246.228363 194.374514 247.951827 
C 196.097978 249.675291 198.435825 250.643659 200.873171 250.643659 
z
" clip-path="url(#pb8b399dbe3)" style="fill: #3c3f42"/>
   </g>
   <g id="patch_12">
    <path d="M 227.131707 251.581463 
C 228.773185 251.581463 230.347653 250.929297 231.508353 249.768597 
C 232.669053 248.607897 233.32122 247.033429 233.32122 245.391951 
C 233.32122 243.750473 232.669053 242.176005 231.508353 241.015305 
C 230.347653 239.854605 228.773185 239.202439 227.131707 239.202439 
C 225.490229 239.202439 223.915761 239.854605 222.755061 241.015305 
C 221.594361 242.176005 220.942195 243.750473 220.942195 245.391951 
C 220.942195 247.033429 221.594361 248.607897 222.755061 249.768597 
C 223.915761 250.929297 225.490229 251.581463 227.131707 251.581463 
z
" clip-path="url(#pb8b399dbe3)" style="fill: #3c3f42"/>
   </g>
   <g id="patch_13">
    <path d="M 202.236492 232.364363 
L 228.049862 239.270918 
L 226.213552 251.512985 
L 199.50985 250.541978 
z
" clip-path="url(#pb8b399dbe3)" style="fill: #3c3f42"/>
   </g>
   <g id="patch_14">
    <path d="M 227.131707 250.653037 
C 228.526963 250.653037 229.865261 250.098695 230.851856 249.1121 
C 231.838452 248.125505 232.392793 246.787207 232.392793 245.391951 
C 232.392793 243.996695 231.838452 242.658397 230.851856 241.671802 
C 229.865261 240.685207 228.526963 240.130866 227.131707 240.130866 
C 225.736451 240.130866 224.398153 240.685207 223.411558 241.671802 
C 222.424963 242.658397 221.870622 243.996695 221.870622 245.391951 
C 221.870622 246.787207 222.424963 248.125505 223.411558 249.1121 
C 224.398153 250.098695 225.736451 250.653037 227.131707 250.653037 
z
" clip-path="url(#pb8b399dbe3)" style="fill: #1b1b1b"/>
   </g>
   <g id="patch_15">
    <path d="M 238.385366 250.484232 
C 239.288179 250.484232 240.154136 250.12554 240.792521 249.487155 
C 241.430906 248.84877 241.789598 247.982813 241.789598 247.08 
C 241.789598 246.177187 241.430906 245.31123 240.792521 244.672845 
C 240.154136 244.03446 239.288179 243.675768 238.385366 243.675768 
C 237.482553 243.675768 236.616596 244.03446 235.978211 244.672845 
C 235.339825 245.31123 234.981134 246.177187 234.981134 247.08 
C 234.981134 247.982813 235.339825 248.84877 235.978211 249.487155 
C 236.616596 250.12554 237.482553 250.484232 238.385366 250.484232 
z
" clip-path="url(#pb8b399dbe3)" style="fill: #1b1b1b"/>
   </g>
   <g id="patch_16">
    <path d="M 227.912139 240.189073 
L 238.890351 243.713432 
L 237.880381 250.446568 
L 226.351276 250.59483 
z
" clip-path="url(#pb8b399dbe3)" style="fill: #1b1b1b"/>
   </g>
   <g id="line2d_2">
    <path d="M 56.046959 211.213985 
L 75.612299 210.918994 
L 79.374803 212.386684 
L 82.408422 215.052715 
L 84.347254 218.595523 
L 84.957449 222.587793 
L 84.165408 226.547998 
L 82.066662 229.99848 
L 78.914353 232.523059 
L 75.088693 233.817234 
L 71.051116 233.724909 
L 53.10426 225.927478 
L 50.676838 224.980581 
L 48.719665 223.260562 
L 47.468806 220.974879 
L 47.075131 218.399221 
L 47.586126 215.84425 
L 48.940155 213.618132 
L 50.973903 211.989372 
L 53.44207 211.15442 
L 56.046959 211.213985 
L 56.046959 211.213985 
" clip-path="url(#pb8b399dbe3)" style="fill: none; stroke: #1d2a36; stroke-width: 1.7; stroke-linecap: round"/>
   </g>
   <g id="line2d_3">
    <path d="M 76.781744 199.321704 
L 165.920681 218.761642 
L 171.602783 220.66624 
L 176.290801 224.39937 
L 179.419292 229.510761 
L 180.610912 235.383905 
L 179.721936 241.310413 
L 176.859587 246.575461 
L 172.369105 250.544007 
L 166.792111 252.737385 
L 160.801271 252.891041 
L 69.88167 245.322199 
L 62.223185 242.755132 
L 55.904551 237.723522 
L 51.68789 230.834255 
L 50.081793 222.918279 
L 51.279978 214.930377 
L 55.137927 207.834008 
L 61.190315 202.485098 
L 68.707134 199.528806 
L 76.781744 199.321704 
L 76.781744 199.321704 
" clip-path="url(#pb8b399dbe3)" style="fill: none; stroke: #1d2a36; stroke-width: 1.7; stroke-linecap: round"/>
   </g>
   <g id="patch_17">
    <path d="M 73.331707 231.7 
C 75.818795 231.7 78.204353 230.71187 79.962989 228.953233 
C 81.721626 227.194597 82.709756 224.809039 82.709756 222.321951 
C 82.709756 219.834864 81.721626 217.449306 79.962989 215.690669 
C 78.204353 213.932033 75.818795 212.943902 73.331707 212.943902 
C 70.84462 212.943902 68.459062 213.932033 66.700425 215.690669 
C 64.941789 217.449306 63.953659 219.834864 63.953659 222.321951 
C 63.953659 224.809039 64.941789 227.194597 66.700425 228.953233 
C 68.459062 230.71187 70.84462 231.7 73.331707 231.7 
z
" clip-path="url(#pb8b399dbe3)" style="fill: #2c3e50"/>
   </g>
   <g id="patch_18">
    <path d="M 73.331707 261.147073 
C 75.172152 261.147073 76.937465 260.415857 78.238856 259.114466 
C 79.540247 257.813075 80.271463 256.047762 80.271463 254.207317 
C 80.271463 252.366872 79.540247 250.601559 78.238856 249.300168 
C 76.937465 247.998777 75.172152 247.267561 73.331707 247.267561 
C 71.491262 247.267561 69.72595 247.998777 68.424559 249.300168 
C 67.123168 250.601559 66.391951 252.366872 66.391951 254.207317 
C 66.391951 256.047762 67.123168 257.813075 68.424559 259.114466 
C 69.72595 260.415857 71.491262 261.147073 73.331707 261.147073 
z
" clip-path="url(#pb8b399dbe3)" style="fill: #2c3e50"/>
   </g>
   <g id="patch_19">
    <path d="M 82.709756 222.321951 
L 80.271463 254.207317 
L 66.391951 254.207317 
L 63.953659 222.321951 
z
" clip-path="url(#pb8b399dbe3)" style="fill: #2c3e50"/>
   </g>
   <g id="patch_20">
    <path d="M 73.331707 261.147073 
C 75.172152 261.147073 76.937465 260.415857 78.238856 259.114466 
C 79.540247 257.813075 80.271463 256.047762 80.271463 254.207317 
C 80.271463 252.366872 79.540247 250.601559 78.238856 249.300168 
C 76.937465 247.998777 75.172152 247.267561 73.331707 247.267561 
C 71.491262 247.267561 69.72595 247.998777 68.424559 249.300168 
C 67.123168 250.601559 66.391951 252.366872 66.391951 254.207317 
C 66.391951 256.047762 67.123168 257.813075 68.424559 259.114466 
C 69.72595 260.415857 71.491262 261.147073 73.331707 261.147073 
z
" clip-path="url(#pb8b399dbe3)" style="fill: #2c3e50"/>
   </g>
   <g id="patch_21">
    <path d="M 75.207317 291.907073 
C 76.749311 291.907073 78.228357 291.294432 79.318712 290.204078 
C 80.409066 289.113723 81.021707 287.634677 81.021707 286.092683 
C 81.021707 284.550689 80.409066 283.071643 79.318712 281.981288 
C 78.228357 280.890934 76.749311 280.278293 75.207317 280.278293 
C 73.665323 280.278293 72.186277 280.890934 71.095922 281.981288 
C 70.005568 283.071643 69.392927 284.550689 69.392927 286.092683 
C 69.392927 287.634677 70.005568 289.113723 71.095922 290.204078 
C 72.186277 291.294432 73.665323 291.907073 75.207317 291.907073 
z
" clip-path="url(#pb8b399dbe3)" style="fill: #2c3e50"/>
   </g>
   <g id="patch_22">
    <path d="M 80.259488 253.799801 
L 81.011674 285.75125 
L 69.40296 286.434116 
L 66.403927 254.614834 
z
" clip-path="url(#pb8b399dbe3)" style="fill: #2c3e50"/>
   </g>
   <g id="patch_23">
    <path d="M 227.131707 249.8484 
C 228.313571 249.8484 229.447188 249.37884 230.282892 248.543136 
C 231.118597 247.707432 231.588156 246.573815 231.588156 245.391951 
C 231.588156 244.210087 231.118597 243.07647 230.282892 242.240766 
C 229.447188 241.405062 228.313571 240.935502 227.131707 240.935502 
C 225.949843 240.935502 224.816226 241.405062 223.980522 242.240766 
C 223.144818 243.07647 222.675259 244.210087 222.675259 245.391951 
C 222.675259 246.573815 223.144818 247.707432 223.980522 248.543136 
C 224.816226 249.37884 225.949843 249.8484 227.131707 249.8484 
z
" clip-path="url(#pb8b399dbe3)" style="fill: #1b1b1b; stroke: #121212; stroke-width: 1.3; stroke-linejoin: miter"/>
   </g>
   <g id="patch_24">
    <path d="M 75.207317 292.282195 
C 76.848795 292.282195 78.423263 291.630029 79.583963 290.469329 
C 80.744663 289.308629 81.396829 287.734161 81.396829 286.092683 
C 81.396829 284.451205 80.744663 282.876737 79.583963 281.716037 
C 78.423263 280.555337 76.848795 279.903171 75.207317 279.903171 
C 73.565839 279.903171 71.991371 280.555337 70.830671 281.716037 
C 69.669971 282.876737 69.017805 284.451205 69.017805 286.092683 
C 69.017805 287.734161 69.669971 289.308629 70.830671 290.469329 
C 71.991371 291.630029 73.565839 292.282195 75.207317 292.282195 
z
" clip-path="url(#pb8b399dbe3)" style="fill: #f2e0c9; stroke: #a49888; stroke-width: 1.6; stroke-linejoin: miter"/>
   </g>
   <g id="line2d_4">
    <path d="M 165.475514 221.729416 
L 202.236492 232.364363 
L 205.262829 233.378769 
L 207.759708 235.367066 
L 209.425969 238.089438 
L 210.060637 241.217525 
L 209.587161 244.374035 
L 208.062648 247.178245 
L 205.670979 249.291927 
L 202.700623 250.460139 
L 199.50985 250.541978 
L 161.246437 249.923267 
L 156.552526 248.349904 
L 152.679816 245.266014 
L 150.09541 241.04356 
L 149.111028 236.191833 
L 149.8454 231.296022 
L 152.209949 226.946634 
L 155.919477 223.66827 
L 160.52656 221.856349 
L 165.475514 221.729416 
L 165.475514 221.729416 
" clip-path="url(#pb8b399dbe3)" style="fill: none; stroke: #282a2c; stroke-width: 1.7; stroke-linecap: round"/>
   </g>
   <g id="line2d_5">
    <path d="M 202.236492 232.364363 
L 228.049862 239.270918 
L 230.088008 239.954089 
L 231.769579 241.293146 
L 232.891755 243.12658 
L 233.319185 245.233251 
L 233.000313 247.359064 
L 231.9736 249.247614 
L 230.362884 250.671114 
L 228.362441 251.457869 
L 226.213552 251.512985 
L 199.50985 250.541978 
L 196.483513 249.527573 
L 193.986633 247.539275 
L 192.320372 244.816904 
L 191.685704 241.688816 
L 192.159181 238.532307 
L 193.683693 235.728096 
L 196.075362 233.614414 
L 199.045718 232.446202 
L 202.236492 232.364363 
L 202.236492 232.364363 
" clip-path="url(#pb8b399dbe3)" style="fill: none; stroke: #282a2c; stroke-width: 1.7; stroke-linecap: round"/>
   </g>
   <g id="line2d_6">
    <path d="M 227.912139 240.189073 
L 238.890351 243.713432 
L 240.011331 244.089176 
L 240.936196 244.825657 
L 241.553392 245.834046 
L 241.788478 246.992715 
L 241.613099 248.161912 
L 241.048407 249.200614 
L 240.162513 249.983539 
L 239.062269 250.416255 
L 237.880381 250.446568 
L 226.351276 250.59483 
L 224.618852 250.014134 
L 223.189516 248.875936 
L 222.235666 247.317517 
L 221.872352 245.526846 
L 222.143393 243.719906 
L 223.016098 242.114638 
L 224.385207 240.904663 
L 226.085584 240.235921 
L 227.912139 240.189073 
L 227.912139 240.189073 
" clip-path="url(#pb8b399dbe3)" style="fill: none; stroke: #121212; stroke-width: 1.5; stroke-linecap: round"/>
   </g>
   <g id="line2d_7">
    <path d="M 82.709756 222.321951 
L 80.271463 254.207317 
L 79.852945 256.580853 
L 78.647869 258.668106 
L 76.801585 260.217322 
L 74.536783 261.041643 
L 72.126631 261.041643 
L 69.861829 260.217322 
L 68.015546 258.668106 
L 66.81047 256.580853 
L 66.391951 254.207317 
L 63.953659 222.321951 
L 64.519224 219.11447 
L 66.147705 216.293858 
L 68.642683 214.200323 
L 71.703226 213.086376 
L 74.960188 213.086376 
L 78.020732 214.200323 
L 80.515709 216.293858 
L 82.144191 219.11447 
L 82.709756 222.321951 
L 82.709756 222.321951 
" clip-path="url(#pb8b399dbe3)" style="fill: none; stroke: #1d2a36; stroke-width: 1.7; stroke-linecap: round"/>
   </g>
   <g id="line2d_8">
    <path d="M 80.259488 253.799801 
L 81.011674 285.75125 
L 80.778405 287.757048 
L 79.873181 289.562099 
L 78.405185 290.948687 
L 76.551479 291.749569 
L 74.535647 291.868148 
L 72.600828 291.29012 
L 70.980391 290.085204 
L 69.869783 288.398732 
L 69.40296 286.434116 
L 66.403927 254.614834 
L 66.682344 252.220817 
L 67.762773 250.066401 
L 69.514897 248.411441 
L 71.727385 247.455549 
L 74.133378 247.31402 
L 76.442678 248.003925 
L 78.376749 249.44205 
L 79.702313 251.454936 
L 80.259488 253.799801 
L 80.259488 253.799801 
" clip-path="url(#pb8b399dbe3)" style="fill: none; stroke: #1d2a36; stroke-width: 1.7; stroke-linecap: round"/>
   </g>
   <g id="patch_25">
    <path d="M 54.57561 233.57561 
C 58.55495 233.57561 62.371842 231.994601 65.185661 229.180783 
C 67.999479 226.366964 69.580488 222.550072 69.580488 218.570732 
C 69.580488 214.591392 67.999479 210.774499 65.185661 207.960681 
C 62.371842 205.146862 58.55495 203.565854 54.57561 203.565854 
C 50.59627 203.565854 46.779377 205.146862 43.965559 207.960681 
C 41.15174 210.774499 39.570732 214.591392 39.570732 218.570732 
C 39.570732 222.550072 41.15174 226.366964 43.965559 229.180783 
C 46.779377 231.994601 50.59627 233.57561 54.57561 233.57561 
z
" clip-path="url(#pb8b399dbe3)" style="fill: #f2e0c9; stroke: #a49888; stroke-width: 1.8; stroke-linejoin: miter"/>
   </g>
  </g>
 </g>
 <defs>
  <clipPath id="pb8b399dbe3">
   <rect x="5.809756" y="1" width="247.580488" height="307.6"/>
  </clipPath>
 </defs>
</svg>
