<?xml version="1.0" encoding="utf-8" standalone="no"?>
<!DOCTYPE svg PUBLIC "-//W3C//DTD SVG 1.1//EN"
  "http://www.w3.org/Graphics/SVG/1.1/DTD/svg11.dtd">
<svg xmlns:xlink="http://www.w3.org/1999/xlink" width="259.2pt" height="309.6pt" viewBox="0 0 259.2 309.6" xmlns="http://www.w3.org/2000/svg" version="1.1">
 <metadata>
  <rdf:RDF xmlns:dc="http://purl.org/dc/elements/1.1/" xmlns:cc="http://creativecommons.org/ns#" xmlns:rdf="http://www.w3.org/1999/02/22-rdf-syntax-ns#">
   <cc:Work>
    <dc:type rdf:resource="http://purl.org/dc/dcmitype/StillImage"/>
    <dc:date>2026-07-10T23:04:56.651982</dc:date>
    <dc:format>image/svg+xml</dc:format>
    <dc:creator>
     <cc:Agent>
      <dc:title>Matplotlib v3.10.8, https://matplotlib.org/</dc:title>
     </cc:Agent>
    </dc:creator>
   </cc:Work>
  </rdf:RDF>
 </metadata>
 <defs>
  <style type="text/css">*{stroke-linejoin: round; stroke-linecap: butt}</style>
 </defs>
 <g id="figure_1">
  <g id="patch_1">
   <path d="M 0 309.6 
L 259.2 309.6 
L 259.2 0 
L 0 0 
L 0 309.6 
z
" style="fill: none"/>
  </g>
  <g id="axes_1">
   <g id="line2d_1">
    <path d="M 17.063415 299.221951 
L 242.136585 299.221951 
" clip-path="url(#p5a55e9ed00)" style="fill: none; stroke: #c3c3c3; stroke-width: 3; stroke-linecap: round"/>
   </g>
   <g id="patch_2">
    <path d="M 129.6 64.770732 
C 131.58967 64.770732 133.498116 63.980227 134.905026 62.573318 
C 136.311935 61.166409 137.102439 59.257963 137.102439 57.268293 
C 137.102439 55.278623 136.311935 53.370176 134.905026 51.963267 
C 133.498116 50.556358 131.58967 49.765854 129.6 49.765854 
C 127.61033 49.765854 125.701884 50.556358 124.294974 51.963267 
C 122.888065 53.370176 122.097561 55.278623 122.097561 57.268293 
C 122.097561 59.257963 122.888065 61.166409 124.294974 62.573318 
C 125.701884 63.980227 127.61033 64.770732 129.6 64.770732 
z
" clip-path="url(#p5a55e9ed00)" style="fill: #9aa0a6; fill-opacity: 0.3"/>
   </g>
   <g id="patch_3">
    <path d="M 129.6 91.40439 
C 132.683989 91.40439 135.64208 90.179109 137.82279 87.998399 
C 140.003499 85.81769 141.22878 82.859598 141.22878 79.77561 
C 141.22878 76.691621 140.003499 73.733529 137.82279 71.55282 
C 135.64208 69.372111 132.683989 68.146829 129.6 68.146829 
C 126.516011 68.146829 123.55792 69.372111 121.37721 71.55282 
C 119.196501 73.733529 117.97122 76.691621 117.97122 79.77561 
C 117.97122 82.859598 119.196501 85.81769 121.37721 87.998399 
C 123.55792 90.179109 126.516011 91.40439 129.6 91.40439 
z
" clip-path="url(#p5a55e9ed00)" style="fill: #9aa0a6; fill-opacity: 0.3"/>
   </g>
   <g id="patch_4">
    <path d="M 137.102439 57.268293 
L 141.22878 79.77561 
L 117.97122 79.77561 
L 122.097561 57.268293 
z
" clip-path="url(#p5a55e9ed00)" style="fill: #9aa0a6; fill-opacity: 0.3"/>
   </g>
   <g id="patch_5">
    <path d="M 129.6 103.033171 
C 135.767977 103.033171 141.684161 100.582607 146.045579 96.221189 
C 150.406998 91.85977 152.857561 85.943587 152.857561 79.77561 
C 152.857561 73.607632 150.406998 67.691449 146.045579 63.330031 
C 141.684161 58.968612 135.767977 56.518049 129.6 56.518049 
C 123.432023 56.518049 117.515839 58.968612 113.154421 63.330031 
C 108.793002 67.691449 106.342439 73.607632 106.342439 79.77561 
C 106.342439 85.943587 108.793002 91.85977 113.154421 96.221189 
C 117.515839 100.582607 123.432023 103.033171 129.6 103.033171 
z
" clip-path="url(#p5a55e9ed00)" style="fill: #9aa0a6; fill-opacity: 0.3"/>
   </g>
   <g id="patch_6">
    <path d="M 129.6 164.553171 
C 134.176241 164.553171 138.565667 162.735011 141.801559 159.49912 
C 145.03745 156.263228 146.85561 151.873802 146.85561 147.297561 
C 146.85561 142.72132 145.03745 138.331893 141.801559 135.096002 
C 138.565667 131.860111 134.176241 130.041951 129.6 130.041951 
C 125.023759 130.041951 120.634333 131.860111 117.398441 135.096002 
C 114.16255 138.331893 112.34439 142.72132 112.34439 147.297561 
C 112.34439 151.873802 114.16255 156.263228 117.398441 159.49912 
C 120.634333 162.735011 125.023759 164.553171 129.6 164.553171 
z
" clip-path="url(#p5a55e9ed00)" style="fill: #9aa0a6; fill-opacity: 0.3"/>
   </g>
   <g id="patch_7">
    <path d="M 152.857561 79.77561 
L 146.85561 147.297561 
L 112.34439 147.297561 
L 106.342439 79.77561 
z
" clip-path="url(#p5a55e9ed00)" style="fill: #9aa0a6; fill-opacity: 0.3"/>
   </g>
   <g id="patch_8">
    <path d="M 129.6 161.552195 
C 133.380373 161.552195 137.006421 160.050237 139.679548 157.377109 
C 142.352676 154.703982 143.854634 151.077934 143.854634 147.297561 
C 143.854634 143.517188 142.352676 139.89114 139.679548 137.218013 
C 137.006421 134.544885 133.380373 133.042927 129.6 133.042927 
C 125.819627 133.042927 122.193579 134.544885 119.520452 137.218013 
C 116.847324 139.89114 115.345366 143.517188 115.345366 147.297561 
C 115.345366 151.077934 116.847324 154.703982 119.520452 157.377109 
C 122.193579 160.050237 125.819627 161.552195 129.6 161.552195 
z
" clip-path="url(#p5a55e9ed00)" style="fill: #9aa0a6; fill-opacity: 0.3"/>
   </g>
   <g id="patch_9">
    <path d="M 129.6 227.76122 
C 132.037346 227.76122 134.375192 226.792852 136.098656 225.069388 
C 137.82212 223.345924 138.790488 221.008078 138.790488 218.570732 
C 138.790488 216.133386 137.82212 213.795539 136.098656 212.072075 
C 134.375192 210.348612 132.037346 209.380244 129.6 209.380244 
C 127.162654 209.380244 124.824808 210.348612 123.101344 212.072075 
C 121.37788 213.795539 120.409512 216.133386 120.409512 218.570732 
C 120.409512 221.008078 121.37788 223.345924 123.101344 225.069388 
C 124.824808 226.792852 127.162654 227.76122 129.6 227.76122 
z
" clip-path="url(#p5a55e9ed00)" style="fill: #9aa0a6; fill-opacity: 0.3"/>
   </g>
   <g id="patch_10">
    <path d="M 143.854634 147.297561 
L 138.790488 218.570732 
L 120.409512 218.570732 
L 115.345366 147.297561 
z
" clip-path="url(#p5a55e9ed00)" style="fill: #9aa0a6; fill-opacity: 0.3"/>
   </g>
   <g id="patch_11">
    <path d="M 129.6 227.76122 
C 132.037346 227.76122 134.375192 226.792852 136.098656 225.069388 
C 137.82212 223.345924 138.790488 221.008078 138.790488 218.570732 
C 138.790488 216.133386 137.82212 213.795539 136.098656 212.072075 
C 134.375192 210.348612 132.037346 209.380244 129.6 209.380244 
C 127.162654 209.380244 124.824808 210.348612 123.101344 212.072075 
C 121.37788 213.795539 120.409512 216.133386 120.409512 218.570732 
C 120.409512 221.008078 121.37788 223.345924 123.101344 225.069388 
C 124.824808 226.792852 127.162654 227.76122 129.6 227.76122 
z
" clip-path="url(#p5a55e9ed00)" style="fill: #9aa0a6; fill-opacity: 0.3"/>
   </g>
   <g id="patch_12">
    <path d="M 129.6 290.406585 
C 131.241478 290.406585 132.815946 289.754419 133.976646 288.593719 
C 135.137346 287.433019 135.789512 285.858551 135.789512 284.217073 
C 135.789512 282.575595 135.137346 281.001127 133.976646 279.840427 
C 132.815946 278.679727 131.241478 278.027561 129.6 278.027561 
C 127.958522 278.027561 126.384054 278.679727 125.223354 279.840427 
C 124.062654 281.001127 123.410488 282.575595 123.410488 284.217073 
C 123.410488 285.858551 124.062654 287.433019 125.223354 288.593719 
C 126.384054 289.754419 127.958522 290.406585 129.6 290.406585 
z
" clip-path="url(#p5a55e9ed00)" style="fill: #9aa0a6; fill-opacity: 0.3"/>
   </g>
   <g id="patch_13">
    <path d="M 138.790488 218.570732 
L 135.789512 284.217073 
L 123.410488 284.217073 
L 120.409512 218.570732 
z
" clip-path="url(#p5a55e9ed00)" style="fill: #9aa0a6; fill-opacity: 0.3"/>
   </g>
   <g id="patch_14">
    <path d="M 129.6 289.478159 
C 130.995256 289.478159 132.333554 288.923817 133.320149 287.937222 
C 134.306744 286.950627 134.861085 285.612329 134.861085 284.217073 
C 134.861085 282.821817 134.306744 281.483519 133.320149 280.496924 
C 132.333554 279.510329 130.995256 278.955988 129.6 278.955988 
C 128.204744 278.955988 126.866446 279.510329 125.879851 280.496924 
C 124.893256 281.483519 124.338915 282.821817 124.338915 284.217073 
C 124.338915 285.612329 124.893256 286.950627 125.879851 287.937222 
C 126.866446 288.923817 128.204744 289.478159 129.6 289.478159 
z
" clip-path="url(#p5a55e9ed00)" style="fill: #9aa0a6; fill-opacity: 0.3"/>
   </g>
   <g id="patch_15">
    <path d="M 146.480488 287.621305 
C 147.383301 287.621305 148.249258 287.262614 148.887643 286.624228 
C 149.526028 285.985843 149.88472 285.119886 149.88472 284.217073 
C 149.88472 283.31426 149.526028 282.448303 148.887643 281.809918 
C 148.249258 281.171533 147.383301 280.812841 146.480488 280.812841 
C 145.577675 280.812841 144.711718 281.171533 144.073332 281.809918 
C 143.434947 282.448303 143.076256 283.31426 143.076256 284.217073 
C 143.076256 285.119886 143.434947 285.985843 144.073332 286.624228 
C 144.711718 287.262614 145.577675 287.621305 146.480488 287.621305 
z
" clip-path="url(#p5a55e9ed00)" style="fill: #9aa0a6; fill-opacity: 0.3"/>
   </g>
   <g id="patch_16">
    <path d="M 129.6 278.955988 
L 146.480488 280.812841 
L 146.480488 287.621305 
L 129.6 289.478159 
z
" clip-path="url(#p5a55e9ed00)" style="fill: #9aa0a6; fill-opacity: 0.3"/>
   </g>
   <g id="line2d_2">
    <path d="M 137.102439 57.268293 
L 141.22878 79.77561 
L 140.527479 83.752887 
L 138.508163 87.250446 
L 135.41439 89.846429 
L 131.619317 91.227723 
L 127.580683 91.227723 
L 123.78561 89.846429 
L 120.691837 87.250446 
L 118.672521 83.752887 
L 117.97122 79.77561 
L 122.097561 57.268293 
L 122.550013 54.702307 
L 123.852798 52.445818 
L 125.84878 50.77099 
L 128.297215 49.879833 
L 130.902785 49.879833 
L 133.35122 50.77099 
L 135.347202 52.445818 
L 136.649987 54.702307 
L 137.102439 57.268293 
L 137.102439 57.268293 
" clip-path="url(#p5a55e9ed00)" style="fill: none; stroke: #7d8288; stroke-opacity: 0.85; stroke-width: 1.7; stroke-linecap: round"/>
   </g>
   <g id="line2d_3">
    <path d="M 152.857561 79.77561 
L 146.85561 147.297561 
L 145.814969 153.199327 
L 142.818564 158.389253 
L 138.227805 162.241357 
L 132.596405 164.291019 
L 126.603595 164.291019 
L 120.972195 162.241357 
L 116.381436 158.389253 
L 113.385031 153.199327 
L 112.34439 147.297561 
L 106.342439 79.77561 
L 107.745042 71.821055 
L 111.783675 64.825938 
L 117.97122 59.633971 
L 125.561367 56.871383 
L 133.638633 56.871383 
L 141.22878 59.633971 
L 147.416325 64.825938 
L 151.454958 71.821055 
L 152.857561 79.77561 
L 152.857561 79.77561 
" clip-path="url(#p5a55e9ed00)" style="fill: none; stroke: #7d8288; stroke-opacity: 0.85; stroke-width: 1.7; stroke-linecap: round"/>
   </g>
   <g id="patch_17">
    <path d="M 129.6 89.153659 
C 132.087088 89.153659 134.472645 88.165528 136.231282 86.406892 
C 137.989918 84.648255 138.978049 82.262697 138.978049 79.77561 
C 138.978049 77.288522 137.989918 74.902964 136.231282 73.144328 
C 134.472645 71.385691 132.087088 70.397561 129.6 70.397561 
C 127.112912 70.397561 124.727355 71.385691 122.968718 73.144328 
C 121.210082 74.902964 120.221951 77.288522 120.221951 79.77561 
C 120.221951 82.262697 121.210082 84.648255 122.968718 86.406892 
C 124.727355 88.165528 127.112912 89.153659 129.6 89.153659 
z
" clip-path="url(#p5a55e9ed00)" style="fill: #9aa0a6; fill-opacity: 0.3"/>
   </g>
   <g id="patch_18">
    <path d="M 142.729268 111.098293 
C 144.569713 111.098293 146.335026 110.367076 147.636417 109.065685 
C 148.937808 107.764294 149.669024 105.998981 149.669024 104.158537 
C 149.669024 102.318092 148.937808 100.552779 147.636417 99.251388 
C 146.335026 97.949997 144.569713 97.21878 142.729268 97.21878 
C 140.888823 97.21878 139.123511 97.949997 137.82212 99.251388 
C 136.520729 100.552779 135.789512 102.318092 135.789512 104.158537 
C 135.789512 105.998981 136.520729 107.764294 137.82212 109.065685 
C 139.123511 110.367076 140.888823 111.098293 142.729268 111.098293 
z
" clip-path="url(#p5a55e9ed00)" style="fill: #9aa0a6; fill-opacity: 0.3"/>
   </g>
   <g id="patch_19">
    <path d="M 137.857101 75.329478 
L 148.839523 100.868399 
L 136.619014 107.448674 
L 121.342899 84.221741 
z
" clip-path="url(#p5a55e9ed00)" style="fill: #9aa0a6; fill-opacity: 0.3"/>
   </g>
   <g id="patch_20">
    <path d="M 142.729268 111.098293 
C 144.569713 111.098293 146.335026 110.367076 147.636417 109.065685 
C 148.937808 107.764294 149.669024 105.998981 149.669024 104.158537 
C 149.669024 102.318092 148.937808 100.552779 147.636417 99.251388 
C 146.335026 97.949997 144.569713 97.21878 142.729268 97.21878 
C 140.888823 97.21878 139.123511 97.949997 137.82212 99.251388 
C 136.520729 100.552779 135.789512 102.318092 135.789512 104.158537 
C 135.789512 105.998981 136.520729 107.764294 137.82212 109.065685 
C 139.123511 110.367076 140.888823 111.098293 142.729268 111.098293 
z
" clip-path="url(#p5a55e9ed00)" style="fill: #9aa0a6; fill-opacity: 0.3"/>
   </g>
   <g id="patch_21">
    <path d="M 144.604878 141.858293 
C 146.146872 141.858293 147.625918 141.245652 148.716273 140.155297 
C 149.806627 139.064943 150.419268 137.585897 150.419268 136.043902 
C 150.419268 134.501908 149.806627 133.022862 148.716273 131.932508 
C 147.625918 130.842153 146.146872 130.229512 144.604878 130.229512 
C 143.062884 130.229512 141.583838 130.842153 140.493483 131.932508 
C 139.403129 133.022862 138.790488 134.501908 138.790488 136.043902 
C 138.790488 137.585897 139.403129 139.064943 140.493483 140.155297 
C 141.583838 141.245652 143.062884 141.858293 144.604878 141.858293 
z
" clip-path="url(#p5a55e9ed00)" style="fill: #9aa0a6; fill-opacity: 0.3"/>
   </g>
   <g id="patch_22">
    <path d="M 149.657049 103.75102 
L 150.409235 135.70247 
L 138.800521 136.385335 
L 135.801488 104.566053 
z
" clip-path="url(#p5a55e9ed00)" style="fill: #9aa0a6; fill-opacity: 0.3"/>
   </g>
   <g id="patch_23">
    <path d="M 129.6 288.673522 
C 130.781864 288.673522 131.915481 288.203962 132.751185 287.368258 
C 133.586889 286.532554 134.056449 285.398937 134.056449 284.217073 
C 134.056449 283.035209 133.586889 281.901592 132.751185 281.065888 
C 131.915481 280.230184 130.781864 279.760624 129.6 279.760624 
C 128.418136 279.760624 127.284519 280.230184 126.448815 281.065888 
C 125.613111 281.901592 125.143551 283.035209 125.143551 284.217073 
C 125.143551 285.398937 125.613111 286.532554 126.448815 287.368258 
C 127.284519 288.203962 128.418136 288.673522 129.6 288.673522 
z
" clip-path="url(#p5a55e9ed00)" style="fill: #9aa0a6; fill-opacity: 0.3; stroke: #7d8288; stroke-opacity: 0.85; stroke-width: 1.3; stroke-linejoin: miter"/>
   </g>
   <g id="patch_24">
    <path d="M 144.604878 142.233415 
C 146.246356 142.233415 147.820824 141.581249 148.981524 140.420548 
C 150.142224 139.259848 150.79439 137.68538 150.79439 136.043902 
C 150.79439 134.402425 150.142224 132.827956 148.981524 131.667256 
C 147.820824 130.506556 146.246356 129.85439 144.604878 129.85439 
C 142.9634 129.85439 141.388932 130.506556 140.228232 131.667256 
C 139.067532 132.827956 138.415366 134.402425 138.415366 136.043902 
C 138.415366 137.68538 139.067532 139.259848 140.228232 140.420548 
C 141.388932 141.581249 142.9634 142.233415 144.604878 142.233415 
z
" clip-path="url(#p5a55e9ed00)" style="fill: #9aa0a6; fill-opacity: 0.3; stroke: #7d8288; stroke-opacity: 0.85; stroke-width: 1.6; stroke-linejoin: miter"/>
   </g>
   <g id="line2d_4">
    <path d="M 143.854634 147.297561 
L 138.790488 218.570732 
L 138.236234 221.714064 
L 136.640322 224.478263 
L 134.195244 226.529928 
L 131.195911 227.621595 
L 128.004089 227.621595 
L 125.004756 226.529928 
L 122.559678 224.478263 
L 120.963766 221.714064 
L 120.409512 218.570732 
L 115.345366 147.297561 
L 116.205025 142.422189 
L 118.680317 138.134859 
L 122.472683 134.952686 
L 127.124709 133.259487 
L 132.075291 133.259487 
L 136.727317 134.952686 
L 140.519683 138.134859 
L 142.994975 142.422189 
L 143.854634 147.297561 
L 143.854634 147.297561 
" clip-path="url(#p5a55e9ed00)" style="fill: none; stroke: #7d8288; stroke-opacity: 0.85; stroke-width: 1.7; stroke-linecap: round"/>
   </g>
   <g id="line2d_5">
    <path d="M 138.790488 218.570732 
L 135.789512 284.217073 
L 135.416239 286.334011 
L 134.341441 288.195615 
L 132.694756 289.577348 
L 130.674798 290.312553 
L 128.525202 290.312553 
L 126.505244 289.577348 
L 124.858559 288.195615 
L 123.783761 286.334011 
L 123.410488 284.217073 
L 120.409512 218.570732 
L 120.963766 215.4274 
L 122.559678 212.6632 
L 125.004756 210.611536 
L 128.004089 209.519868 
L 131.195911 209.519868 
L 134.195244 210.611536 
L 136.640322 212.6632 
L 138.236234 215.4274 
L 138.790488 218.570732 
L 138.790488 218.570732 
" clip-path="url(#p5a55e9ed00)" style="fill: none; stroke: #7d8288; stroke-opacity: 0.85; stroke-width: 1.7; stroke-linecap: round"/>
   </g>
   <g id="line2d_6">
    <path d="M 129.6 278.955988 
L 146.480488 280.812841 
L 147.644804 281.018142 
L 148.668686 281.60928 
L 149.428639 282.514957 
L 149.833002 283.625935 
L 149.833002 284.808212 
L 149.428639 285.919189 
L 148.668686 286.824866 
L 147.644804 287.416005 
L 146.480488 287.621305 
L 129.6 289.478159 
L 127.800603 289.160876 
L 126.21824 288.247298 
L 125.043766 286.847616 
L 124.418842 285.130651 
L 124.418842 283.303495 
L 125.043766 281.58653 
L 126.21824 280.186848 
L 127.800603 279.27327 
L 129.6 278.955988 
L 129.6 278.955988 
" clip-path="url(#p5a55e9ed00)" style="fill: none; stroke: #7d8288; stroke-opacity: 0.85; stroke-width: 1.5; stroke-linecap: round"/>
   </g>
   <g id="line2d_7">
    <path d="M 137.857101 75.329478 
L 148.839523 100.868399 
L 149.596323 103.156649 
L 149.524854 105.565741 
L 148.633738 107.805104 
L 147.030455 109.604636 
L 144.908386 110.747289 
L 142.523483 111.095241 
L 140.163401 110.606524 
L 138.1128 109.340084 
L 136.619014 107.448674 
L 121.342899 84.221741 
L 120.320197 81.129512 
L 120.416776 77.873982 
L 121.620987 74.847816 
L 123.787585 72.416015 
L 126.655246 70.87189 
L 129.878088 70.401685 
L 133.067388 71.062113 
L 135.83847 72.773518 
L 137.857101 75.329478 
L 137.857101 75.329478 
" clip-path="url(#p5a55e9ed00)" style="fill: none; stroke: #7d8288; stroke-opacity: 0.85; stroke-width: 1.7; stroke-linecap: round"/>
   </g>
   <g id="line2d_8">
    <path d="M 149.657049 103.75102 
L 150.409235 135.70247 
L 150.175966 137.708268 
L 149.270742 139.513318 
L 147.802746 140.899906 
L 145.94904 141.700789 
L 143.933208 141.819367 
L 141.998389 141.241339 
L 140.377952 140.036424 
L 139.267344 138.349951 
L 138.800521 136.385335 
L 135.801488 104.566053 
L 136.079905 102.172036 
L 137.160334 100.017621 
L 138.912458 98.362661 
L 141.124946 97.406769 
L 143.530939 97.26524 
L 145.840239 97.955144 
L 147.77431 99.393269 
L 149.099874 101.406156 
L 149.657049 103.75102 
L 149.657049 103.75102 
" clip-path="url(#p5a55e9ed00)" style="fill: none; stroke: #7d8288; stroke-opacity: 0.85; stroke-width: 1.7; stroke-linecap: round"/>
   </g>
   <g id="patch_25">
    <path d="M 129.6 72.273171 
C 133.57934 72.273171 137.396233 70.692162 140.210051 67.878344 
C 143.023869 65.064525 144.604878 61.247633 144.604878 57.268293 
C 144.604878 53.288953 143.023869 49.47206 140.210051 46.658242 
C 137.396233 43.844423 133.57934 42.263415 129.6 42.263415 
C 125.62066 42.263415 121.803767 43.844423 118.989949 46.658242 
C 116.176131 49.47206 114.595122 53.288953 114.595122 57.268293 
C 114.595122 61.247633 116.176131 65.064525 118.989949 67.878344 
C 121.803767 70.692162 125.62066 72.273171 129.6 72.273171 
z
" clip-path="url(#p5a55e9ed00)" style="fill: #9aa0a6; fill-opacity: 0.3; stroke: #7d8288; stroke-opacity: 0.85; stroke-width: 1.8; stroke-linejoin: miter"/>
   </g>
   <g id="patch_26">
    <path d="M 193.370732 124.790244 
C 195.360402 124.790244 197.268848 123.99974 198.675757 122.59283 
C 200.082666 121.185921 200.873171 119.277475 200.873171 117.287805 
C 200.873171 115.298135 200.082666 113.389689 198.675757 111.982779 
C 197.268848 110.57587 195.360402 109.785366 193.370732 109.785366 
C 191.381062 109.785366 189.472615 110.57587 188.065706 111.982779 
C 186.658797 113.389689 185.868293 115.298135 185.868293 117.287805 
C 185.868293 119.277475 186.658797 121.185921 188.065706 122.59283 
C 189.472615 123.99974 191.381062 124.790244 193.370732 124.790244 
z
" clip-path="url(#p5a55e9ed00)" style="fill: #2c3e50"/>
   </g>
   <g id="patch_27">
    <path d="M 172.739024 138.294634 
C 175.823013 138.294634 178.781105 137.069352 180.961814 134.888643 
C 183.142523 132.707934 184.367805 129.749842 184.367805 126.665854 
C 184.367805 123.581865 183.142523 120.623773 180.961814 118.443064 
C 178.781105 116.262355 175.823013 115.037073 172.739024 115.037073 
C 169.655036 115.037073 166.696944 116.262355 164.516235 118.443064 
C 162.335526 120.623773 161.110244 123.581865 161.110244 126.665854 
C 161.110244 129.749842 162.335526 132.707934 164.516235 134.888643 
C 166.696944 137.069352 169.655036 138.294634 172.739024 138.294634 
z
" clip-path="url(#p5a55e9ed00)" style="fill: #2c3e50"/>
   </g>
   <g id="patch_28">
    <path d="M 196.475263 124.117774 
L 177.551048 137.252306 
L 167.927001 116.079402 
L 190.2662 110.457836 
z
" clip-path="url(#p5a55e9ed00)" style="fill: #2c3e50"/>
   </g>
   <g id="patch_29">
    <path d="M 172.739024 149.923415 
C 178.907002 149.923415 184.823185 147.472851 189.184603 143.111433 
C 193.546022 138.750014 195.996585 132.833831 195.996585 126.665854 
C 195.996585 120.497876 193.546022 114.581693 189.184603 110.220275 
C 184.823185 105.858856 178.907002 103.408293 172.739024 103.408293 
C 166.571047 103.408293 160.654864 105.858856 156.293445 110.220275 
C 151.932027 114.581693 149.481463 120.497876 149.481463 126.665854 
C 149.481463 132.833831 151.932027 138.750014 156.293445 143.111433 
C 160.654864 147.472851 166.571047 149.923415 172.739024 149.923415 
z
" clip-path="url(#p5a55e9ed00)" style="fill: #2c3e50"/>
   </g>
   <g id="patch_30">
    <path d="M 112.719512 172.05561 
C 117.295753 172.05561 121.68518 170.23745 124.921071 167.001559 
C 128.156962 163.765667 129.975122 159.376241 129.975122 154.8 
C 129.975122 150.223759 128.156962 145.834333 124.921071 142.598441 
C 121.68518 139.36255 117.295753 137.54439 112.719512 137.54439 
C 108.143271 137.54439 103.753845 139.36255 100.517954 142.598441 
C 97.282062 145.834333 95.463902 150.223759 95.463902 154.8 
C 95.463902 159.376241 97.282062 163.765667 100.517954 167.001559 
C 103.753845 170.23745 108.143271 172.05561 112.719512 172.05561 
z
" clip-path="url(#p5a55e9ed00)" style="fill: #2c3e50"/>
   </g>
   <g id="patch_31">
    <path d="M 182.610321 147.72462 
L 120.043378 170.424246 
L 105.395647 139.175754 
L 162.867728 105.607087 
z
" clip-path="url(#p5a55e9ed00)" style="fill: #2c3e50"/>
   </g>
   <g id="patch_32">
    <path d="M 112.719512 169.054634 
C 116.499885 169.054634 120.125933 167.552676 122.799061 164.879548 
C 125.472188 162.206421 126.974146 158.580373 126.974146 154.8 
C 126.974146 151.019627 125.472188 147.393579 122.799061 144.720452 
C 120.125933 142.047324 116.499885 140.545366 112.719512 140.545366 
C 108.939139 140.545366 105.313091 142.047324 102.639964 144.720452 
C 99.966836 147.393579 98.464878 151.019627 98.464878 154.8 
C 98.464878 158.580373 99.966836 162.206421 102.639964 164.879548 
C 105.313091 167.552676 108.939139 169.054634 112.719512 169.054634 
z
" clip-path="url(#p5a55e9ed00)" style="fill: #3c3f42"/>
   </g>
   <g id="patch_33">
    <path d="M 129.6 233.388049 
C 132.037346 233.388049 134.375192 232.419681 136.098656 230.696217 
C 137.82212 228.972753 138.790488 226.634907 138.790488 224.197561 
C 138.790488 221.760215 137.82212 219.422369 136.098656 217.698905 
C 134.375192 215.975441 132.037346 215.007073 129.6 215.007073 
C 127.162654 215.007073 124.824808 215.975441 123.101344 217.698905 
C 121.37788 219.422369 120.409512 221.760215 120.409512 224.197561 
C 120.409512 226.634907 121.37788 228.972753 123.101344 230.696217 
C 124.824808 232.419681 127.162654 233.388049 129.6 233.388049 
z
" clip-path="url(#p5a55e9ed00)" style="fill: #3c3f42"/>
   </g>
   <g id="patch_34">
    <path d="M 126.570278 151.430895 
L 138.530099 222.025375 
L 120.669901 226.369747 
L 98.868746 158.169105 
z
" clip-path="url(#p5a55e9ed00)" style="fill: #3c3f42"/>
   </g>
   <g id="patch_35">
    <path d="M 129.6 233.388049 
C 132.037346 233.388049 134.375192 232.419681 136.098656 230.696217 
C 137.82212 228.972753 138.790488 226.634907 138.790488 224.197561 
C 138.790488 221.760215 137.82212 219.422369 136.098656 217.698905 
C 134.375192 215.975441 132.037346 215.007073 129.6 215.007073 
C 127.162654 215.007073 124.824808 215.975441 123.101344 217.698905 
C 121.37788 219.422369 120.409512 221.760215 120.409512 224.197561 
C 120.409512 226.634907 121.37788 228.972753 123.101344 230.696217 
C 124.824808 232.419681 127.162654 233.388049 129.6 233.388049 
z
" clip-path="url(#p5a55e9ed00)" style="fill: #3c3f42"/>
   </g>
   <g id="patch_36">
    <path d="M 129.6 290.406585 
C 131.241478 290.406585 132.815946 289.754419 133.976646 288.593719 
C 135.137346 287.433019 135.789512 285.858551 135.789512 284.217073 
C 135.789512 282.575595 135.137346 281.001127 133.976646 279.840427 
C 132.815946 278.679727 131.241478 278.027561 129.6 278.027561 
C 127.958522 278.027561 126.384054 278.679727 125.223354 279.840427 
C 124.062654 281.001127 123.410488 282.575595 123.410488 284.217073 
C 123.410488 285.858551 124.062654 287.433019 125.223354 288.593719 
C 126.384054 289.754419 127.958522 290.406585 129.6 290.406585 
z
" clip-path="url(#p5a55e9ed00)" style="fill: #3c3f42"/>
   </g>
   <g id="patch_37">
    <path d="M 138.790488 224.197561 
L 135.789512 284.217073 
L 123.410488 284.217073 
L 120.409512 224.197561 
z
" clip-path="url(#p5a55e9ed00)" style="fill: #3c3f42"/>
   </g>
   <g id="patch_38">
    <path d="M 129.6 289.478159 
C 130.995256 289.478159 132.333554 288.923817 133.320149 287.937222 
C 134.306744 286.950627 134.861085 285.612329 134.861085 284.217073 
C 134.861085 282.821817 134.306744 281.483519 133.320149 280.496924 
C 132.333554 279.510329 130.995256 278.955988 129.6 278.955988 
C 128.204744 278.955988 126.866446 279.510329 125.879851 280.496924 
C 124.893256 281.483519 124.338915 282.821817 124.338915 284.217073 
C 124.338915 285.612329 124.893256 286.950627 125.879851 287.937222 
C 126.866446 288.923817 128.204744 289.478159 129.6 289.478159 
z
" clip-path="url(#p5a55e9ed00)" style="fill: #1b1b1b"/>
   </g>
   <g id="patch_39">
    <path d="M 146.480488 287.621305 
C 147.383301 287.621305 148.249258 287.262614 148.887643 286.624228 
C 149.526028 285.985843 149.88472 285.119886 149.88472 284.217073 
C 149.88472 283.31426 149.526028 282.448303 148.887643 281.809918 
C 148.249258 281.171533 147.383301 280.812841 146.480488 280.812841 
C 145.577675 280.812841 144.711718 281.171533 144.073332 281.809918 
C 143.434947 282.448303 143.076256 283.31426 143.076256 284.217073 
C 143.076256 285.119886 143.434947 285.985843 144.073332 286.624228 
C 144.711718 287.262614 145.577675 287.621305 146.480488 287.621305 
z
" clip-path="url(#p5a55e9ed00)" style="fill: #1b1b1b"/>
   </g>
   <g id="patch_40">
    <path d="M 129.6 278.955988 
L 146.480488 280.812841 
L 146.480488 287.621305 
L 129.6 289.478159 
z
" clip-path="url(#p5a55e9ed00)" style="fill: #1b1b1b"/>
   </g>
   <g id="line2d_9">
    <path d="M 196.475263 124.117774 
L 177.551048 137.252306 
L 173.640068 138.259673 
L 169.620408 137.868655 
L 165.9769 136.126414 
L 163.149004 133.24309 
L 161.477805 129.566454 
L 161.164876 125.539962 
L 162.24796 121.64927 
L 164.596422 118.363652 
L 167.927001 116.079402 
L 190.2662 110.457836 
L 192.789413 109.807921 
L 195.382742 110.060191 
L 197.733393 111.184217 
L 199.557842 113.044427 
L 200.636034 115.41645 
L 200.837924 118.014186 
L 200.13916 120.52431 
L 198.624024 122.644064 
L 196.475263 124.117774 
L 196.475263 124.117774 
" clip-path="url(#p5a55e9ed00)" style="fill: none; stroke: #1d2a36; stroke-width: 1.7; stroke-linecap: round"/>
   </g>
   <g id="line2d_10">
    <path d="M 182.610321 147.72462 
L 120.043378 170.424246 
L 114.257888 171.986898 
L 108.286847 171.476557 
L 102.850451 168.954776 
L 98.604409 164.725721 
L 96.060858 159.299478 
L 95.526586 153.33053 
L 97.066034 147.538823 
L 100.493523 142.622921 
L 105.395647 139.175754 
L 162.867728 105.607087 
L 170.665562 103.500904 
L 178.713486 104.188755 
L 186.040803 107.587677 
L 191.763728 113.287708 
L 195.191994 120.60134 
L 195.912099 128.646443 
L 193.837191 136.452657 
L 189.217531 143.078439 
L 182.610321 147.72462 
L 182.610321 147.72462 
" clip-path="url(#p5a55e9ed00)" style="fill: none; stroke: #1d2a36; stroke-width: 1.7; stroke-linecap: round"/>
   </g>
   <g id="patch_41">
    <path d="M 172.739024 136.043902 
C 175.226112 136.043902 177.61167 135.055772 179.370306 133.297136 
C 181.128943 131.538499 182.117073 129.152941 182.117073 126.665854 
C 182.117073 124.178766 181.128943 121.793208 179.370306 120.034572 
C 177.61167 118.275935 175.226112 117.287805 172.739024 117.287805 
C 170.251937 117.287805 167.866379 118.275935 166.107743 120.034572 
C 164.349106 121.793208 163.360976 124.178766 163.360976 126.665854 
C 163.360976 129.152941 164.349106 131.538499 166.107743 133.297136 
C 167.866379 135.055772 170.251937 136.043902 172.739024 136.043902 
z
" clip-path="url(#p5a55e9ed00)" style="fill: #2c3e50"/>
   </g>
   <g id="patch_42">
    <path d="M 168.987805 161.739756 
C 170.82825 161.739756 172.593562 161.00854 173.894953 159.707149 
C 175.196344 158.405758 175.927561 156.640445 175.927561 154.8 
C 175.927561 152.959555 175.196344 151.194242 173.894953 149.892851 
C 172.593562 148.59146 170.82825 147.860244 168.987805 147.860244 
C 167.14736 147.860244 165.382047 148.59146 164.080656 149.892851 
C 162.779265 151.194242 162.048049 152.959555 162.048049 154.8 
C 162.048049 156.640445 162.779265 158.405758 164.080656 159.707149 
C 165.382047 161.00854 167.14736 161.739756 168.987805 161.739756 
z
" clip-path="url(#p5a55e9ed00)" style="fill: #2c3e50"/>
   </g>
   <g id="patch_43">
    <path d="M 182.034808 127.905291 
L 175.866685 155.717184 
L 162.108925 153.882816 
L 163.443241 125.426416 
z
" clip-path="url(#p5a55e9ed00)" style="fill: #2c3e50"/>
   </g>
   <g id="patch_44">
    <path d="M 168.987805 161.739756 
C 170.82825 161.739756 172.593562 161.00854 173.894953 159.707149 
C 175.196344 158.405758 175.927561 156.640445 175.927561 154.8 
C 175.927561 152.959555 175.196344 151.194242 173.894953 149.892851 
C 172.593562 148.59146 170.82825 147.860244 168.987805 147.860244 
C 167.14736 147.860244 165.382047 148.59146 164.080656 149.892851 
C 162.779265 151.194242 162.048049 152.959555 162.048049 154.8 
C 162.048049 156.640445 162.779265 158.405758 164.080656 159.707149 
C 165.382047 161.00854 167.14736 161.739756 168.987805 161.739756 
z
" clip-path="url(#p5a55e9ed00)" style="fill: #2c3e50"/>
   </g>
   <g id="patch_45">
    <path d="M 167.112195 198.126585 
C 168.654189 198.126585 170.133235 197.513945 171.22359 196.42359 
C 172.313945 195.333235 172.926585 193.854189 172.926585 192.312195 
C 172.926585 190.770201 172.313945 189.291155 171.22359 188.2008 
C 170.133235 187.110446 168.654189 186.497805 167.112195 186.497805 
C 165.570201 186.497805 164.091155 187.110446 163.0008 188.2008 
C 161.910446 189.291155 161.297805 190.770201 161.297805 192.312195 
C 161.297805 193.854189 161.910446 195.333235 163.0008 196.42359 
C 164.091155 197.513945 165.570201 198.126585 167.112195 198.126585 
z
" clip-path="url(#p5a55e9ed00)" style="fill: #2c3e50"/>
   </g>
   <g id="patch_46">
    <path d="M 175.918903 155.146555 
L 172.919331 192.602552 
L 161.305059 192.021838 
L 162.056707 154.453445 
z
" clip-path="url(#p5a55e9ed00)" style="fill: #2c3e50"/>
   </g>
   <g id="patch_47">
    <path d="M 129.6 288.673522 
C 130.781864 288.673522 131.915481 288.203962 132.751185 287.368258 
C 133.586889 286.532554 134.056449 285.398937 134.056449 284.217073 
C 134.056449 283.035209 133.586889 281.901592 132.751185 281.065888 
C 131.915481 280.230184 130.781864 279.760624 129.6 279.760624 
C 128.418136 279.760624 127.284519 280.230184 126.448815 281.065888 
C 125.613111 281.901592 125.143551 283.035209 125.143551 284.217073 
C 125.143551 285.398937 125.613111 286.532554 126.448815 287.368258 
C 127.284519 288.203962 128.418136 288.673522 129.6 288.673522 
z
" clip-path="url(#p5a55e9ed00)" style="fill: #1b1b1b; stroke: #121212; stroke-width: 1.3; stroke-linejoin: miter"/>
   </g>
   <g id="patch_48">
    <path d="M 167.112195 198.501707 
C 168.753673 198.501707 170.328141 197.849541 171.488841 196.688841 
C 172.649541 195.528141 173.301707 193.953673 173.301707 192.312195 
C 173.301707 190.670717 172.649541 189.096249 171.488841 187.935549 
C 170.328141 186.774849 168.753673 186.122683 167.112195 186.122683 
C 165.470717 186.122683 163.896249 186.774849 162.735549 187.935549 
C 161.574849 189.096249 160.922683 190.670717 160.922683 192.312195 
C 160.922683 193.953673 161.574849 195.528141 162.735549 196.688841 
C 163.896249 197.849541 165.470717 198.501707 167.112195 198.501707 
z
" clip-path="url(#p5a55e9ed00)" style="fill: #f2e0c9; stroke: #a49888; stroke-width: 1.6; stroke-linejoin: miter"/>
   </g>
   <g id="line2d_11">
    <path d="M 126.570278 151.430895 
L 138.530099 222.025375 
L 138.73448 225.210647 
L 137.837107 228.273727 
L 135.946218 230.845161 
L 133.289881 232.614796 
L 130.18849 233.369188 
L 127.016119 233.017347 
L 124.155402 231.601709 
L 121.951383 229.293022 
L 120.669901 226.369747 
L 98.868746 158.169105 
L 98.551748 153.228682 
L 99.943591 148.477783 
L 102.876398 144.489437 
L 106.996431 141.744697 
L 111.806751 140.574619 
L 116.727165 141.120332 
L 121.164196 143.316015 
L 124.582673 146.896836 
L 126.570278 151.430895 
L 126.570278 151.430895 
" clip-path="url(#p5a55e9ed00)" style="fill: none; stroke: #282a2c; stroke-width: 1.7; stroke-linecap: round"/>
   </g>
   <g id="line2d_12">
    <path d="M 138.790488 224.197561 
L 135.789512 284.217073 
L 135.416239 286.334011 
L 134.341441 288.195615 
L 132.694756 289.577348 
L 130.674798 290.312553 
L 128.525202 290.312553 
L 126.505244 289.577348 
L 124.858559 288.195615 
L 123.783761 286.334011 
L 123.410488 284.217073 
L 120.409512 224.197561 
L 120.963766 221.054229 
L 122.559678 218.290029 
L 125.004756 216.238365 
L 128.004089 215.146697 
L 131.195911 215.146697 
L 134.195244 216.238365 
L 136.640322 218.290029 
L 138.236234 221.054229 
L 138.790488 224.197561 
L 138.790488 224.197561 
" clip-path="url(#p5a55e9ed00)" style="fill: none; stroke: #282a2c; stroke-width: 1.7; stroke-linecap: round"/>
   </g>
   <g id="line2d_13">
    <path d="M 129.6 278.955988 
L 146.480488 280.812841 
L 147.644804 281.018142 
L 148.668686 281.60928 
L 149.428639 282.514957 
L 149.833002 283.625935 
L 149.833002 284.808212 
L 149.428639 285.919189 
L 148.668686 286.824866 
L 147.644804 287.416005 
L 146.480488 287.621305 
L 129.6 289.478159 
L 127.800603 289.160876 
L 126.21824 288.247298 
L 125.043766 286.847616 
L 124.418842 285.130651 
L 124.418842 283.303495 
L 125.043766 281.58653 
L 126.21824 280.186848 
L 127.800603 279.27327 
L 129.6 278.955988 
L 129.6 278.955988 
" clip-path="url(#p5a55e9ed00)" style="fill: none; stroke: #121212; stroke-width: 1.5; stroke-linecap: round"/>
   </g>
   <g id="line2d_14">
    <path d="M 182.034808 127.905291 
L 175.866685 155.717184 
L 175.138142 158.014586 
L 173.667778 159.924262 
L 171.63294 161.215877 
L 169.27906 161.733642 
L 166.89005 161.415107 
L 164.75406 160.298693 
L 163.128723 158.519055 
L 162.210077 156.290844 
L 162.108925 153.882816 
L 163.443241 125.426416 
L 164.427758 122.321818 
L 166.414736 119.741175 
L 169.164517 117.99575 
L 172.345436 117.296068 
L 175.573828 117.72652 
L 178.460301 119.235188 
L 180.656703 121.640104 
L 181.898116 124.651199 
L 182.034808 127.905291 
L 182.034808 127.905291 
" clip-path="url(#p5a55e9ed00)" style="fill: none; stroke: #1d2a36; stroke-width: 1.7; stroke-linecap: round"/>
   </g>
   <g id="line2d_15">
    <path d="M 175.918903 155.146555 
L 172.919331 192.602552 
L 172.46981 194.571199 
L 171.374082 196.267376 
L 169.764307 197.486501 
L 167.834648 198.081527 
L 165.817851 197.980688 
L 163.957171 197.196144 
L 162.477033 195.822524 
L 161.555965 194.025506 
L 161.305059 192.021838 
L 162.056707 154.453445 
L 162.593232 152.10377 
L 163.901037 150.0793 
L 165.822381 148.624216 
L 168.125522 147.914023 
L 170.532667 148.03438 
L 172.753479 148.970771 
L 174.520095 150.610253 
L 175.619435 152.75508 
L 175.918903 155.146555 
L 175.918903 155.146555 
" clip-path="url(#p5a55e9ed00)" style="fill: none; stroke: #1d2a36; stroke-width: 1.7; stroke-linecap: round"/>
   </g>
   <g id="patch_49">
    <path d="M 193.370732 132.292683 
C 197.350072 132.292683 201.166964 130.711674 203.980783 127.897856 
C 206.794601 125.084037 208.37561 121.267145 208.37561 117.287805 
C 208.37561 113.308465 206.794601 109.491572 203.980783 106.677754 
C 201.166964 103.863935 197.350072 102.282927 193.370732 102.282927 
C 189.391392 102.282927 185.574499 103.863935 182.760681 106.677754 
C 179.946862 109.491572 178.365854 113.308465 178.365854 117.287805 
C 178.365854 121.267145 179.946862 125.084037 182.760681 127.897856 
C 185.574499 130.711674 189.391392 132.292683 193.370732 132.292683 
z
" clip-path="url(#p5a55e9ed00)" style="fill: #f2e0c9; stroke: #a49888; stroke-width: 1.8; stroke-linejoin: miter"/>
   </g>
   <g id="line2d_16">
    <path d="M 150.231707 192.312195 
L 183.992683 192.312195 
" clip-path="url(#p5a55e9ed00)" style="fill: none; stroke: #5b6b73; stroke-width: 5; stroke-linecap: round"/>
   </g>
   <g id="patch_50">
    <path d="M 150.231707 197.038732 
C 151.485199 197.038732 152.687521 196.540714 153.573873 195.654361 
C 154.460226 194.768008 154.958244 193.565687 154.958244 192.312195 
C 154.958244 191.058703 154.460226 189.856382 153.573873 188.970029 
C 152.687521 188.083676 151.485199 187.585659 150.231707 187.585659 
C 148.978215 187.585659 147.775894 188.083676 146.889541 188.970029 
C 146.003188 189.856382 145.505171 191.058703 145.505171 192.312195 
C 145.505171 193.565687 146.003188 194.768008 146.889541 195.654361 
C 147.775894 196.540714 148.978215 197.038732 150.231707 197.038732 
z
" clip-path="url(#p5a55e9ed00)" style="fill: #5b6b73; stroke: #5b6b73; stroke-linejoin: miter"/>
   </g>
   <g id="patch_51">
    <path d="M 183.992683 197.038732 
C 185.246175 197.038732 186.448496 196.540714 187.334849 195.654361 
C 188.221202 194.768008 188.71922 193.565687 188.71922 192.312195 
C 188.71922 191.058703 188.221202 189.856382 187.334849 188.970029 
C 186.448496 188.083676 185.246175 187.585659 183.992683 187.585659 
C 182.739191 187.585659 181.53687 188.083676 180.650517 188.970029 
C 179.764164 189.856382 179.266146 191.058703 179.266146 192.312195 
C 179.266146 193.565687 179.764164 194.768008 180.650517 195.654361 
C 181.53687 196.540714 182.739191 197.038732 183.992683 197.038732 
z
" clip-path="url(#p5a55e9ed00)" style="fill: #5b6b73; stroke: #5b6b73; stroke-linejoin: miter"/>
   </g>
   <g id="line2d_17">
    <path d="M 127.72439 136.043902 
L 161.485366 136.043902 
" clip-path="url(#p5a55e9ed00)" style="fill: none; stroke: #5b6b73; stroke-width: 5; stroke-linecap: round"/>
   </g>
   <g id="patch_52">
    <path d="M 127.72439 140.770439 
C 128.977882 140.770439 130.180204 140.272421 131.066556 139.386069 
C 131.952909 138.499716 132.450927 137.297395 132.450927 136.043902 
C 132.450927 134.79041 131.952909 133.588089 131.066556 132.701736 
C 130.180204 131.815384 128.977882 131.317366 127.72439 131.317366 
C 126.470898 131.317366 125.268577 131.815384 124.382224 132.701736 
C 123.495871 133.588089 122.997854 134.79041 122.997854 136.043902 
C 122.997854 137.297395 123.495871 138.499716 124.382224 139.386069 
C 125.268577 140.272421 126.470898 140.770439 127.72439 140.770439 
z
" clip-path="url(#p5a55e9ed00)" style="fill: #5b6b73; stroke: #5b6b73; stroke-linejoin: miter"/>
   </g>
   <g id="patch_53">
    <path d="M 161.485366 140.770439 
C 162.738858 140.770439 163.941179 140.272421 164.827532 139.386069 
C 165.713885 138.499716 166.211902 137.297395 166.211902 136.043902 
C 166.211902 134.79041 165.713885 133.588089 164.827532 132.701736 
C 163.941179 131.815384 162.738858 131.317366 161.485366 131.317366 
C 160.231874 131.317366 159.029553 131.815384 158.1432 132.701736 
C 157.256847 133.588089 156.758829 134.79041 156.758829 136.043902 
C 156.758829 137.297395 157.256847 138.499716 158.1432 139.386069 
C 159.029553 140.272421 160.231874 140.770439 161.485366 140.770439 
z
" clip-path="url(#p5a55e9ed00)" style="fill: #5b6b73; stroke: #5b6b73; stroke-linejoin: miter"/>
   </g>
   <g id="patch_54">
    <path d="M 145.97097 137.509304 
Q 166.439919 159.945613 167.038102 187.850031 
" clip-path="url(#p5a55e9ed00)" style="fill: none; stroke-dasharray: 2.2,0; stroke-dashoffset: 0; stroke: #c0392b; stroke-width: 2.2; stroke-linecap: round"/>
    <path d="M 169.71744 182.191308 
L 167.038102 187.850031 
L 164.118726 182.311327 
z
" clip-path="url(#p5a55e9ed00)" style="fill: #c0392b; stroke-dasharray: 2.2,0; stroke-dashoffset: 0; stroke: #c0392b; stroke-width: 2.2; stroke-linecap: round"/>
   </g>
  </g>
 </g>
 <defs>
  <clipPath id="p5a55e9ed00">
   <rect x="5.809756" y="1" width="247.580488" height="307.6"/>
  </clipPath>
 </defs>
</svg>
