<?xml version="1.0" encoding="utf-8" standalone="no"?>
<!DOCTYPE svg PUBLIC "-//W3C//DTD SVG 1.1//EN"
  "http://www.w3.org/Graphics/SVG/1.1/DTD/svg11.dtd">
<svg xmlns:xlink="http://www.w3.org/1999/xlink" width="259.2pt" height="309.6pt" viewBox="0 0 259.2 309.6" xmlns="http://www.w3.org/2000/svg" version="1.1">
 <metadata>
  <rdf:RDF xmlns:dc="http://purl.org/dc/elements/1.1/" xmlns:cc="http://creativecommons.org/ns#" xmlns:rdf="http://www.w3.org/1999/02/22-rdf-syntax-ns#">
   <cc:Work>
    <dc:type rdf:resource="http://purl.org/dc/dcmitype/StillImage"/>
    <dc:date>2026-07-10T23:04:54.948355</dc:date>
    <dc:format>image/svg+xml</dc:format>
    <dc:creator>
     <cc:Agent>
      <dc:title>Matplotlib v3.10.8, https://matplotlib.org/</dc:title>
     </cc:Agent>
    </dc:creator>
   </cc:Work>
  </rdf:RDF>
 </metadata>
 <defs>
  <style type="text/css">*{stroke-linejoin: round; stroke-linecap: butt}</style>
 </defs>
 <g id="figure_1">
  <g id="patch_1">
   <path d="M 0 309.6 
L 259.2 309.6 
L 259.2 0 
L 0 0 
L 0 309.6 
z
" style="fill: none"/>
  </g>
  <g id="axes_1">
   <g id="line2d_1">
    <path d="M 17.063415 299.221951 
L 242.136585 299.221951 
" clip-path="url(#p0a672f581c)" style="fill: none; stroke: #c3c3c3; stroke-width: 3; stroke-linecap: round"/>
   </g>
   <g id="patch_2">
    <path d="M 97.714634 246.704878 
L 150.231707 246.704878 
L 150.231707 233.57561 
L 97.714634 233.57561 
z
" clip-path="url(#p0a672f581c)" style="fill: #9aa5b1; stroke: #9aa5b1"/>
   </g>
   <g id="patch_3">
    <path d="M 102.216098 267.336585 
L 108.218049 267.336585 
L 108.218049 246.704878 
L 102.216098 246.704878 
z
" clip-path="url(#p0a672f581c)" style="fill: #9aa5b1; stroke: #9aa5b1; stroke-linejoin: miter"/>
   </g>
   <g id="patch_4">
    <path d="M 139.728293 267.336585 
L 145.730244 267.336585 
L 145.730244 246.704878 
L 139.728293 246.704878 
z
" clip-path="url(#p0a672f581c)" style="fill: #9aa5b1; stroke: #9aa5b1; stroke-linejoin: miter"/>
   </g>
   <g id="patch_5">
    <path d="M 120.221951 162.302439 
C 122.211621 162.302439 124.120068 161.511935 125.526977 160.105026 
C 126.933886 158.698116 127.72439 156.78967 127.72439 154.8 
C 127.72439 152.81033 126.933886 150.901884 125.526977 149.494974 
C 124.120068 148.088065 122.211621 147.297561 120.221951 147.297561 
C 118.232281 147.297561 116.323835 148.088065 114.916926 149.494974 
C 113.510016 150.901884 112.719512 152.81033 112.719512 154.8 
C 112.719512 156.78967 113.510016 158.698116 114.916926 160.105026 
C 116.323835 161.511935 118.232281 162.302439 120.221951 162.302439 
z
" clip-path="url(#p0a672f581c)" style="fill: #9aa0a6; fill-opacity: 0.3"/>
   </g>
   <g id="patch_6">
    <path d="M 118.346341 185.184878 
C 121.43033 185.184878 124.388422 183.959596 126.569131 181.778887 
C 128.74984 179.598178 129.975122 176.640086 129.975122 173.556098 
C 129.975122 170.472109 128.74984 167.514017 126.569131 165.333308 
C 124.388422 163.152599 121.43033 161.927317 118.346341 161.927317 
C 115.262353 161.927317 112.304261 163.152599 110.123552 165.333308 
C 107.942843 167.514017 106.717561 170.472109 106.717561 173.556098 
C 106.717561 176.640086 107.942843 179.598178 110.123552 181.778887 
C 112.304261 183.959596 115.262353 185.184878 118.346341 185.184878 
z
" clip-path="url(#p0a672f581c)" style="fill: #9aa0a6; fill-opacity: 0.3"/>
   </g>
   <g id="patch_7">
    <path d="M 127.687157 155.546521 
L 129.917411 174.713204 
L 106.775272 172.398991 
L 112.756745 154.053479 
z
" clip-path="url(#p0a672f581c)" style="fill: #9aa0a6; fill-opacity: 0.3"/>
   </g>
   <g id="patch_8">
    <path d="M 118.346341 196.813659 
C 124.514319 196.813659 130.430502 194.363095 134.791921 190.001677 
C 139.153339 185.640258 141.603902 179.724075 141.603902 173.556098 
C 141.603902 167.38812 139.153339 161.471937 134.791921 157.110518 
C 130.430502 152.7491 124.514319 150.298537 118.346341 150.298537 
C 112.178364 150.298537 106.262181 152.7491 101.900762 157.110518 
C 97.539344 161.471937 95.08878 167.38812 95.08878 173.556098 
C 95.08878 179.724075 97.539344 185.640258 101.900762 190.001677 
C 106.262181 194.363095 112.178364 196.813659 118.346341 196.813659 
z
" clip-path="url(#p0a672f581c)" style="fill: #9aa0a6; fill-opacity: 0.3"/>
   </g>
   <g id="patch_9">
    <path d="M 123.973171 250.83122 
C 128.549412 250.83122 132.938838 249.01306 136.174729 245.777168 
C 139.410621 242.541277 141.22878 238.151851 141.22878 233.57561 
C 141.22878 228.999369 139.410621 224.609942 136.174729 221.374051 
C 132.938838 218.13816 128.549412 216.32 123.973171 216.32 
C 119.39693 216.32 115.007503 218.13816 111.771612 221.374051 
C 108.535721 224.609942 106.717561 228.999369 106.717561 233.57561 
C 106.717561 238.151851 108.535721 242.541277 111.771612 245.777168 
C 115.007503 249.01306 119.39693 250.83122 123.973171 250.83122 
z
" clip-path="url(#p0a672f581c)" style="fill: #9aa0a6; fill-opacity: 0.3"/>
   </g>
   <g id="patch_10">
    <path d="M 141.502365 171.38522 
L 141.153446 231.964959 
L 106.792895 235.186261 
L 95.190318 175.726975 
z
" clip-path="url(#p0a672f581c)" style="fill: #9aa0a6; fill-opacity: 0.3"/>
   </g>
   <g id="patch_11">
    <path d="M 123.973171 247.830244 
C 127.753544 247.830244 131.379592 246.328286 134.052719 243.655158 
C 136.725847 240.982031 138.227805 237.355983 138.227805 233.57561 
C 138.227805 229.795237 136.725847 226.169189 134.052719 223.496061 
C 131.379592 220.822934 127.753544 219.320976 123.973171 219.320976 
C 120.192798 219.320976 116.56675 220.822934 113.893622 223.496061 
C 111.220495 226.169189 109.718537 229.795237 109.718537 233.57561 
C 109.718537 237.355983 111.220495 240.982031 113.893622 243.655158 
C 116.56675 246.328286 120.192798 247.830244 123.973171 247.830244 
z
" clip-path="url(#p0a672f581c)" style="fill: #9aa0a6; fill-opacity: 0.3"/>
   </g>
   <g id="patch_12">
    <path d="M 150.231707 265.273415 
C 152.669053 265.273415 155.0069 264.305047 156.730364 262.581583 
C 158.453827 260.858119 159.422195 258.520273 159.422195 256.082927 
C 159.422195 253.645581 158.453827 251.307734 156.730364 249.584271 
C 155.0069 247.860807 152.669053 246.892439 150.231707 246.892439 
C 147.794361 246.892439 145.456515 247.860807 143.733051 249.584271 
C 142.009587 251.307734 141.04122 253.645581 141.04122 256.082927 
C 141.04122 258.520273 142.009587 260.858119 143.733051 262.581583 
C 145.456515 264.305047 147.794361 265.273415 150.231707 265.273415 
z
" clip-path="url(#p0a672f581c)" style="fill: #9aa0a6; fill-opacity: 0.3"/>
   </g>
   <g id="patch_13">
    <path d="M 133.249964 222.752685 
L 156.212797 249.104988 
L 144.250617 263.060865 
L 114.696378 244.398535 
z
" clip-path="url(#p0a672f581c)" style="fill: #9aa0a6; fill-opacity: 0.3"/>
   </g>
   <g id="patch_14">
    <path d="M 150.231707 265.273415 
C 152.669053 265.273415 155.0069 264.305047 156.730364 262.581583 
C 158.453827 260.858119 159.422195 258.520273 159.422195 256.082927 
C 159.422195 253.645581 158.453827 251.307734 156.730364 249.584271 
C 155.0069 247.860807 152.669053 246.892439 150.231707 246.892439 
C 147.794361 246.892439 145.456515 247.860807 143.733051 249.584271 
C 142.009587 251.307734 141.04122 253.645581 141.04122 256.082927 
C 141.04122 258.520273 142.009587 260.858119 143.733051 262.581583 
C 145.456515 264.305047 147.794361 265.273415 150.231707 265.273415 
z
" clip-path="url(#p0a672f581c)" style="fill: #9aa0a6; fill-opacity: 0.3"/>
   </g>
   <g id="patch_15">
    <path d="M 150.231707 299.784634 
C 151.873185 299.784634 153.447653 299.132468 154.608353 297.971768 
C 155.769053 296.811068 156.42122 295.2366 156.42122 293.595122 
C 156.42122 291.953644 155.769053 290.379176 154.608353 289.218476 
C 153.447653 288.057776 151.873185 287.40561 150.231707 287.40561 
C 148.590229 287.40561 147.015761 288.057776 145.855061 289.218476 
C 144.694361 290.379176 144.042195 291.953644 144.042195 293.595122 
C 144.042195 295.2366 144.694361 296.811068 145.855061 297.971768 
C 147.015761 299.132468 148.590229 299.784634 150.231707 299.784634 
z
" clip-path="url(#p0a672f581c)" style="fill: #9aa0a6; fill-opacity: 0.3"/>
   </g>
   <g id="patch_16">
    <path d="M 159.422195 256.082927 
L 156.42122 293.595122 
L 144.042195 293.595122 
L 141.04122 256.082927 
z
" clip-path="url(#p0a672f581c)" style="fill: #9aa0a6; fill-opacity: 0.3"/>
   </g>
   <g id="patch_17">
    <path d="M 150.231707 298.856207 
C 151.626963 298.856207 152.965261 298.301866 153.951856 297.315271 
C 154.938452 296.328676 155.492793 294.990378 155.492793 293.595122 
C 155.492793 292.199866 154.938452 290.861568 153.951856 289.874973 
C 152.965261 288.888378 151.626963 288.334037 150.231707 288.334037 
C 148.836451 288.334037 147.498153 288.888378 146.511558 289.874973 
C 145.524963 290.861568 144.970622 292.199866 144.970622 293.595122 
C 144.970622 294.990378 145.524963 296.328676 146.511558 297.315271 
C 147.498153 298.301866 148.836451 298.856207 150.231707 298.856207 
z
" clip-path="url(#p0a672f581c)" style="fill: #9aa0a6; fill-opacity: 0.3"/>
   </g>
   <g id="patch_18">
    <path d="M 165.236585 296.999354 
C 166.139398 296.999354 167.005356 296.640662 167.643741 296.002277 
C 168.282126 295.363892 168.640817 294.497935 168.640817 293.595122 
C 168.640817 292.692309 168.282126 291.826352 167.643741 291.187967 
C 167.005356 290.549582 166.139398 290.19089 165.236585 290.19089 
C 164.333773 290.19089 163.467815 290.549582 162.82943 291.187967 
C 162.191045 291.826352 161.832354 292.692309 161.832354 293.595122 
C 161.832354 294.497935 162.191045 295.363892 162.82943 296.002277 
C 163.467815 296.640662 164.333773 296.999354 165.236585 296.999354 
z
" clip-path="url(#p0a672f581c)" style="fill: #9aa0a6; fill-opacity: 0.3"/>
   </g>
   <g id="patch_19">
    <path d="M 150.231707 288.334037 
L 165.236585 290.19089 
L 165.236585 296.999354 
L 150.231707 298.856207 
z
" clip-path="url(#p0a672f581c)" style="fill: #9aa0a6; fill-opacity: 0.3"/>
   </g>
   <g id="line2d_2">
    <path d="M 127.687157 155.546521 
L 129.917411 174.713204 
L 128.823836 178.600961 
L 126.466521 181.880233 
L 123.129792 184.155491 
L 119.216109 185.152306 
L 115.197519 184.750447 
L 111.558723 182.998384 
L 108.738614 180.107442 
L 107.077339 176.426311 
L 106.775272 172.398991 
L 112.756745 154.053479 
L 113.462277 151.545249 
L 114.983126 149.42959 
L 117.135854 147.961682 
L 119.660811 147.318575 
L 122.25345 147.577839 
L 124.60106 148.708202 
L 126.420485 150.573326 
L 127.492275 152.948249 
L 127.687157 155.546521 
L 127.687157 155.546521 
" clip-path="url(#p0a672f581c)" style="fill: none; stroke: #7d8288; stroke-opacity: 0.85; stroke-width: 1.7; stroke-linecap: round"/>
   </g>
   <g id="line2d_3">
    <path d="M 141.502365 171.38522 
L 141.153446 231.964959 
L 140.668224 237.938093 
L 138.169332 243.385048 
L 133.958173 247.64884 
L 128.542676 250.215192 
L 122.576029 250.774565 
L 116.777897 249.25949 
L 111.847622 245.852708 
L 108.379867 240.965127 
L 106.792895 235.186261 
L 95.190318 175.726975 
L 95.844313 167.676228 
L 99.212385 160.334681 
L 104.888295 154.587831 
L 112.187443 151.128835 
L 120.229446 150.374897 
L 128.044318 152.416954 
L 134.689472 157.008704 
L 139.363402 163.596314 
L 141.502365 171.38522 
L 141.502365 171.38522 
" clip-path="url(#p0a672f581c)" style="fill: none; stroke: #7d8288; stroke-opacity: 0.85; stroke-width: 1.7; stroke-linecap: round"/>
   </g>
   <g id="patch_20">
    <path d="M 118.346341 182.934146 
C 120.833429 182.934146 123.218987 181.946016 124.977623 180.187379 
C 126.73626 178.428743 127.72439 176.043185 127.72439 173.556098 
C 127.72439 171.06901 126.73626 168.683452 124.977623 166.924816 
C 123.218987 165.166179 120.833429 164.178049 118.346341 164.178049 
C 115.859254 164.178049 113.473696 165.166179 111.71506 166.924816 
C 109.956423 168.683452 108.968293 171.06901 108.968293 173.556098 
C 108.968293 176.043185 109.956423 178.428743 111.71506 180.187379 
C 113.473696 181.946016 115.859254 182.934146 118.346341 182.934146 
z
" clip-path="url(#p0a672f581c)" style="fill: #9aa0a6; fill-opacity: 0.3"/>
   </g>
   <g id="patch_21">
    <path d="M 146.480488 180.495854 
C 148.320933 180.495854 150.086245 179.764637 151.387636 178.463246 
C 152.689027 177.161855 153.420244 175.396542 153.420244 173.556098 
C 153.420244 171.715653 152.689027 169.95034 151.387636 168.648949 
C 150.086245 167.347558 148.320933 166.616341 146.480488 166.616341 
C 144.640043 166.616341 142.87473 167.347558 141.573339 168.648949 
C 140.271948 169.95034 139.540732 171.715653 139.540732 173.556098 
C 139.540732 175.396542 140.271948 177.161855 141.573339 178.463246 
C 142.87473 179.764637 144.640043 180.495854 146.480488 180.495854 
z
" clip-path="url(#p0a672f581c)" style="fill: #9aa0a6; fill-opacity: 0.3"/>
   </g>
   <g id="patch_22">
    <path d="M 118.346341 164.178049 
L 146.480488 166.616341 
L 146.480488 180.495854 
L 118.346341 182.934146 
z
" clip-path="url(#p0a672f581c)" style="fill: #9aa0a6; fill-opacity: 0.3"/>
   </g>
   <g id="patch_23">
    <path d="M 146.480488 180.495854 
C 148.320933 180.495854 150.086245 179.764637 151.387636 178.463246 
C 152.689027 177.161855 153.420244 175.396542 153.420244 173.556098 
C 153.420244 171.715653 152.689027 169.95034 151.387636 168.648949 
C 150.086245 167.347558 148.320933 166.616341 146.480488 166.616341 
C 144.640043 166.616341 142.87473 167.347558 141.573339 168.648949 
C 140.271948 169.95034 139.540732 171.715653 139.540732 173.556098 
C 139.540732 175.396542 140.271948 177.161855 141.573339 178.463246 
C 142.87473 179.764637 144.640043 180.495854 146.480488 180.495854 
z
" clip-path="url(#p0a672f581c)" style="fill: #9aa0a6; fill-opacity: 0.3"/>
   </g>
   <g id="patch_24">
    <path d="M 152.107317 154.987561 
C 153.649311 154.987561 155.128357 154.37492 156.218712 153.284566 
C 157.309066 152.194211 157.921707 150.715165 157.921707 149.173171 
C 157.921707 147.631176 157.309066 146.152131 156.218712 145.061776 
C 155.128357 143.971421 153.649311 143.35878 152.107317 143.35878 
C 150.565323 143.35878 149.086277 143.971421 147.995922 145.061776 
C 146.905568 146.152131 146.292927 147.631176 146.292927 149.173171 
C 146.292927 150.715165 146.905568 152.194211 147.995922 153.284566 
C 149.086277 154.37492 150.565323 154.987561 152.107317 154.987561 
z
" clip-path="url(#p0a672f581c)" style="fill: #9aa0a6; fill-opacity: 0.3"/>
   </g>
   <g id="patch_25">
    <path d="M 139.718451 171.995627 
L 146.441826 147.86575 
L 157.772808 150.480592 
L 153.242525 175.116568 
z
" clip-path="url(#p0a672f581c)" style="fill: #9aa0a6; fill-opacity: 0.3"/>
   </g>
   <g id="patch_26">
    <path d="M 150.231707 298.051571 
C 151.413571 298.051571 152.547188 297.582011 153.382892 296.746307 
C 154.218597 295.910603 154.688156 294.776986 154.688156 293.595122 
C 154.688156 292.413258 154.218597 291.279641 153.382892 290.443937 
C 152.547188 289.608233 151.413571 289.138673 150.231707 289.138673 
C 149.049843 289.138673 147.916226 289.608233 147.080522 290.443937 
C 146.244818 291.279641 145.775259 292.413258 145.775259 293.595122 
C 145.775259 294.776986 146.244818 295.910603 147.080522 296.746307 
C 147.916226 297.582011 149.049843 298.051571 150.231707 298.051571 
z
" clip-path="url(#p0a672f581c)" style="fill: #9aa0a6; fill-opacity: 0.3; stroke: #7d8288; stroke-opacity: 0.85; stroke-width: 1.3; stroke-linejoin: miter"/>
   </g>
   <g id="patch_27">
    <path d="M 152.107317 155.362683 
C 153.748795 155.362683 155.323263 154.710517 156.483963 153.549817 
C 157.644663 152.389117 158.296829 150.814649 158.296829 149.173171 
C 158.296829 147.531693 157.644663 145.957225 156.483963 144.796525 
C 155.323263 143.635825 153.748795 142.983659 152.107317 142.983659 
C 150.465839 142.983659 148.891371 143.635825 147.730671 144.796525 
C 146.569971 145.957225 145.917805 147.531693 145.917805 149.173171 
C 145.917805 150.814649 146.569971 152.389117 147.730671 153.549817 
C 148.891371 154.710517 150.465839 155.362683 152.107317 155.362683 
z
" clip-path="url(#p0a672f581c)" style="fill: #9aa0a6; fill-opacity: 0.3; stroke: #7d8288; stroke-opacity: 0.85; stroke-width: 1.6; stroke-linejoin: miter"/>
   </g>
   <g id="line2d_4">
    <path d="M 133.249964 222.752685 
L 156.212797 249.104988 
L 158.238689 251.571463 
L 159.298821 254.582086 
L 159.265324 257.773734 
L 158.142241 260.761444 
L 156.06503 263.184857 
L 153.284234 264.751672 
L 150.135259 265.272909 
L 146.997917 264.685698 
L 144.250617 263.060865 
L 114.696378 244.398535 
L 111.554178 240.572983 
L 109.909893 235.903444 
L 109.961846 230.953134 
L 111.703772 226.319133 
L 114.925568 222.560371 
L 119.238639 220.130209 
L 124.122764 219.321761 
L 128.988846 220.232537 
L 133.249964 222.752685 
L 133.249964 222.752685 
" clip-path="url(#p0a672f581c)" style="fill: none; stroke: #7d8288; stroke-opacity: 0.85; stroke-width: 1.7; stroke-linecap: round"/>
   </g>
   <g id="line2d_5">
    <path d="M 159.422195 256.082927 
L 156.42122 293.595122 
L 156.047946 295.71206 
L 154.973149 297.573664 
L 153.326463 298.955397 
L 151.306505 299.690602 
L 149.15691 299.690602 
L 147.136951 298.955397 
L 145.490266 297.573664 
L 144.415468 295.71206 
L 144.042195 293.595122 
L 141.04122 256.082927 
L 141.595474 252.939595 
L 143.191385 250.175395 
L 145.636463 248.123731 
L 148.635796 247.032063 
L 151.827619 247.032063 
L 154.826951 248.123731 
L 157.272029 250.175395 
L 158.867941 252.939595 
L 159.422195 256.082927 
L 159.422195 256.082927 
" clip-path="url(#p0a672f581c)" style="fill: none; stroke: #7d8288; stroke-opacity: 0.85; stroke-width: 1.7; stroke-linecap: round"/>
   </g>
   <g id="line2d_6">
    <path d="M 150.231707 288.334037 
L 165.236585 290.19089 
L 166.400901 290.396191 
L 167.424783 290.987329 
L 168.184737 291.893006 
L 168.589099 293.003983 
L 168.589099 294.186261 
L 168.184737 295.297238 
L 167.424783 296.202915 
L 166.400901 296.794053 
L 165.236585 296.999354 
L 150.231707 298.856207 
L 148.43231 298.538925 
L 146.849947 297.625347 
L 145.675474 296.225665 
L 145.05055 294.5087 
L 145.05055 292.681544 
L 145.675474 290.964579 
L 146.849947 289.564897 
L 148.43231 288.651319 
L 150.231707 288.334037 
L 150.231707 288.334037 
" clip-path="url(#p0a672f581c)" style="fill: none; stroke: #7d8288; stroke-opacity: 0.85; stroke-width: 1.5; stroke-linecap: round"/>
   </g>
   <g id="line2d_7">
    <path d="M 118.346341 164.178049 
L 146.480488 166.616341 
L 148.854024 167.03486 
L 150.941277 168.239936 
L 152.490493 170.08622 
L 153.314813 172.351022 
L 153.314813 174.761174 
L 152.490493 177.025976 
L 150.941277 178.872259 
L 148.854024 180.077335 
L 146.480488 180.495854 
L 118.346341 182.934146 
L 115.13886 182.368581 
L 112.318248 180.7401 
L 110.224713 178.245122 
L 109.110766 175.184579 
L 109.110766 171.927616 
L 110.224713 168.867073 
L 112.318248 166.372095 
L 115.13886 164.743614 
L 118.346341 164.178049 
L 118.346341 164.178049 
" clip-path="url(#p0a672f581c)" style="fill: none; stroke: #7d8288; stroke-opacity: 0.85; stroke-width: 1.7; stroke-linecap: round"/>
   </g>
   <g id="line2d_8">
    <path d="M 139.718451 171.995627 
L 146.441826 147.86575 
L 147.230662 146.006885 
L 148.607693 144.529921 
L 150.406831 143.613001 
L 152.411073 143.36672 
L 154.378677 143.820783 
L 156.072322 144.920422 
L 157.287729 146.533006 
L 157.878301 148.464033 
L 157.772808 150.480592 
L 153.242525 175.116568 
L 152.301012 177.335213 
L 150.657458 179.098041 
L 148.5101 180.192429 
L 146.11794 180.486377 
L 143.769509 179.944431 
L 141.748062 178.631959 
L 140.297416 176.707262 
L 139.592539 174.402488 
L 139.718451 171.995627 
L 139.718451 171.995627 
" clip-path="url(#p0a672f581c)" style="fill: none; stroke: #7d8288; stroke-opacity: 0.85; stroke-width: 1.7; stroke-linecap: round"/>
   </g>
   <g id="patch_28">
    <path d="M 120.221951 169.804878 
C 124.201291 169.804878 128.018184 168.223869 130.832002 165.410051 
C 133.645821 162.596233 135.226829 158.77934 135.226829 154.8 
C 135.226829 150.82066 133.645821 147.003767 130.832002 144.189949 
C 128.018184 141.376131 124.201291 139.795122 120.221951 139.795122 
C 116.242611 139.795122 112.425719 141.376131 109.6119 144.189949 
C 106.798082 147.003767 105.217073 150.82066 105.217073 154.8 
C 105.217073 158.77934 106.798082 162.596233 109.6119 165.410051 
C 112.425719 168.223869 116.242611 169.804878 120.221951 169.804878 
z
" clip-path="url(#p0a672f581c)" style="fill: #9aa0a6; fill-opacity: 0.3; stroke: #7d8288; stroke-opacity: 0.85; stroke-width: 1.8; stroke-linejoin: miter"/>
   </g>
   <g id="patch_29">
    <path d="M 120.221951 162.302439 
C 122.211621 162.302439 124.120068 161.511935 125.526977 160.105026 
C 126.933886 158.698116 127.72439 156.78967 127.72439 154.8 
C 127.72439 152.81033 126.933886 150.901884 125.526977 149.494974 
C 124.120068 148.088065 122.211621 147.297561 120.221951 147.297561 
C 118.232281 147.297561 116.323835 148.088065 114.916926 149.494974 
C 113.510016 150.901884 112.719512 152.81033 112.719512 154.8 
C 112.719512 156.78967 113.510016 158.698116 114.916926 160.105026 
C 116.323835 161.511935 118.232281 162.302439 120.221951 162.302439 
z
" clip-path="url(#p0a672f581c)" style="fill: #2c3e50"/>
   </g>
   <g id="patch_30">
    <path d="M 118.346341 185.184878 
C 121.43033 185.184878 124.388422 183.959596 126.569131 181.778887 
C 128.74984 179.598178 129.975122 176.640086 129.975122 173.556098 
C 129.975122 170.472109 128.74984 167.514017 126.569131 165.333308 
C 124.388422 163.152599 121.43033 161.927317 118.346341 161.927317 
C 115.262353 161.927317 112.304261 163.152599 110.123552 165.333308 
C 107.942843 167.514017 106.717561 170.472109 106.717561 173.556098 
C 106.717561 176.640086 107.942843 179.598178 110.123552 181.778887 
C 112.304261 183.959596 115.262353 185.184878 118.346341 185.184878 
z
" clip-path="url(#p0a672f581c)" style="fill: #2c3e50"/>
   </g>
   <g id="patch_31">
    <path d="M 127.687157 155.546521 
L 129.917411 174.713204 
L 106.775272 172.398991 
L 112.756745 154.053479 
z
" clip-path="url(#p0a672f581c)" style="fill: #2c3e50"/>
   </g>
   <g id="patch_32">
    <path d="M 118.346341 196.813659 
C 124.514319 196.813659 130.430502 194.363095 134.791921 190.001677 
C 139.153339 185.640258 141.603902 179.724075 141.603902 173.556098 
C 141.603902 167.38812 139.153339 161.471937 134.791921 157.110518 
C 130.430502 152.7491 124.514319 150.298537 118.346341 150.298537 
C 112.178364 150.298537 106.262181 152.7491 101.900762 157.110518 
C 97.539344 161.471937 95.08878 167.38812 95.08878 173.556098 
C 95.08878 179.724075 97.539344 185.640258 101.900762 190.001677 
C 106.262181 194.363095 112.178364 196.813659 118.346341 196.813659 
z
" clip-path="url(#p0a672f581c)" style="fill: #2c3e50"/>
   </g>
   <g id="patch_33">
    <path d="M 123.973171 250.83122 
C 128.549412 250.83122 132.938838 249.01306 136.174729 245.777168 
C 139.410621 242.541277 141.22878 238.151851 141.22878 233.57561 
C 141.22878 228.999369 139.410621 224.609942 136.174729 221.374051 
C 132.938838 218.13816 128.549412 216.32 123.973171 216.32 
C 119.39693 216.32 115.007503 218.13816 111.771612 221.374051 
C 108.535721 224.609942 106.717561 228.999369 106.717561 233.57561 
C 106.717561 238.151851 108.535721 242.541277 111.771612 245.777168 
C 115.007503 249.01306 119.39693 250.83122 123.973171 250.83122 
z
" clip-path="url(#p0a672f581c)" style="fill: #2c3e50"/>
   </g>
   <g id="patch_34">
    <path d="M 141.502365 171.38522 
L 141.153446 231.964959 
L 106.792895 235.186261 
L 95.190318 175.726975 
z
" clip-path="url(#p0a672f581c)" style="fill: #2c3e50"/>
   </g>
   <g id="patch_35">
    <path d="M 123.973171 247.830244 
C 127.753544 247.830244 131.379592 246.328286 134.052719 243.655158 
C 136.725847 240.982031 138.227805 237.355983 138.227805 233.57561 
C 138.227805 229.795237 136.725847 226.169189 134.052719 223.496061 
C 131.379592 220.822934 127.753544 219.320976 123.973171 219.320976 
C 120.192798 219.320976 116.56675 220.822934 113.893622 223.496061 
C 111.220495 226.169189 109.718537 229.795237 109.718537 233.57561 
C 109.718537 237.355983 111.220495 240.982031 113.893622 243.655158 
C 116.56675 246.328286 120.192798 247.830244 123.973171 247.830244 
z
" clip-path="url(#p0a672f581c)" style="fill: #3c3f42"/>
   </g>
   <g id="patch_36">
    <path d="M 150.231707 265.273415 
C 152.669053 265.273415 155.0069 264.305047 156.730364 262.581583 
C 158.453827 260.858119 159.422195 258.520273 159.422195 256.082927 
C 159.422195 253.645581 158.453827 251.307734 156.730364 249.584271 
C 155.0069 247.860807 152.669053 246.892439 150.231707 246.892439 
C 147.794361 246.892439 145.456515 247.860807 143.733051 249.584271 
C 142.009587 251.307734 141.04122 253.645581 141.04122 256.082927 
C 141.04122 258.520273 142.009587 260.858119 143.733051 262.581583 
C 145.456515 264.305047 147.794361 265.273415 150.231707 265.273415 
z
" clip-path="url(#p0a672f581c)" style="fill: #3c3f42"/>
   </g>
   <g id="patch_37">
    <path d="M 133.249964 222.752685 
L 156.212797 249.104988 
L 144.250617 263.060865 
L 114.696378 244.398535 
z
" clip-path="url(#p0a672f581c)" style="fill: #3c3f42"/>
   </g>
   <g id="patch_38">
    <path d="M 150.231707 265.273415 
C 152.669053 265.273415 155.0069 264.305047 156.730364 262.581583 
C 158.453827 260.858119 159.422195 258.520273 159.422195 256.082927 
C 159.422195 253.645581 158.453827 251.307734 156.730364 249.584271 
C 155.0069 247.860807 152.669053 246.892439 150.231707 246.892439 
C 147.794361 246.892439 145.456515 247.860807 143.733051 249.584271 
C 142.009587 251.307734 141.04122 253.645581 141.04122 256.082927 
C 141.04122 258.520273 142.009587 260.858119 143.733051 262.581583 
C 145.456515 264.305047 147.794361 265.273415 150.231707 265.273415 
z
" clip-path="url(#p0a672f581c)" style="fill: #3c3f42"/>
   </g>
   <g id="patch_39">
    <path d="M 150.231707 299.784634 
C 151.873185 299.784634 153.447653 299.132468 154.608353 297.971768 
C 155.769053 296.811068 156.42122 295.2366 156.42122 293.595122 
C 156.42122 291.953644 155.769053 290.379176 154.608353 289.218476 
C 153.447653 288.057776 151.873185 287.40561 150.231707 287.40561 
C 148.590229 287.40561 147.015761 288.057776 145.855061 289.218476 
C 144.694361 290.379176 144.042195 291.953644 144.042195 293.595122 
C 144.042195 295.2366 144.694361 296.811068 145.855061 297.971768 
C 147.015761 299.132468 148.590229 299.784634 150.231707 299.784634 
z
" clip-path="url(#p0a672f581c)" style="fill: #3c3f42"/>
   </g>
   <g id="patch_40">
    <path d="M 159.422195 256.082927 
L 156.42122 293.595122 
L 144.042195 293.595122 
L 141.04122 256.082927 
z
" clip-path="url(#p0a672f581c)" style="fill: #3c3f42"/>
   </g>
   <g id="patch_41">
    <path d="M 150.231707 298.856207 
C 151.626963 298.856207 152.965261 298.301866 153.951856 297.315271 
C 154.938452 296.328676 155.492793 294.990378 155.492793 293.595122 
C 155.492793 292.199866 154.938452 290.861568 153.951856 289.874973 
C 152.965261 288.888378 151.626963 288.334037 150.231707 288.334037 
C 148.836451 288.334037 147.498153 288.888378 146.511558 289.874973 
C 145.524963 290.861568 144.970622 292.199866 144.970622 293.595122 
C 144.970622 294.990378 145.524963 296.328676 146.511558 297.315271 
C 147.498153 298.301866 148.836451 298.856207 150.231707 298.856207 
z
" clip-path="url(#p0a672f581c)" style="fill: #1b1b1b"/>
   </g>
   <g id="patch_42">
    <path d="M 165.236585 296.999354 
C 166.139398 296.999354 167.005356 296.640662 167.643741 296.002277 
C 168.282126 295.363892 168.640817 294.497935 168.640817 293.595122 
C 168.640817 292.692309 168.282126 291.826352 167.643741 291.187967 
C 167.005356 290.549582 166.139398 290.19089 165.236585 290.19089 
C 164.333773 290.19089 163.467815 290.549582 162.82943 291.187967 
C 162.191045 291.826352 161.832354 292.692309 161.832354 293.595122 
C 161.832354 294.497935 162.191045 295.363892 162.82943 296.002277 
C 163.467815 296.640662 164.333773 296.999354 165.236585 296.999354 
z
" clip-path="url(#p0a672f581c)" style="fill: #1b1b1b"/>
   </g>
   <g id="patch_43">
    <path d="M 150.231707 288.334037 
L 165.236585 290.19089 
L 165.236585 296.999354 
L 150.231707 298.856207 
z
" clip-path="url(#p0a672f581c)" style="fill: #1b1b1b"/>
   </g>
   <g id="line2d_9">
    <path d="M 127.687157 155.546521 
L 129.917411 174.713204 
L 128.823836 178.600961 
L 126.466521 181.880233 
L 123.129792 184.155491 
L 119.216109 185.152306 
L 115.197519 184.750447 
L 111.558723 182.998384 
L 108.738614 180.107442 
L 107.077339 176.426311 
L 106.775272 172.398991 
L 112.756745 154.053479 
L 113.462277 151.545249 
L 114.983126 149.42959 
L 117.135854 147.961682 
L 119.660811 147.318575 
L 122.25345 147.577839 
L 124.60106 148.708202 
L 126.420485 150.573326 
L 127.492275 152.948249 
L 127.687157 155.546521 
L 127.687157 155.546521 
" clip-path="url(#p0a672f581c)" style="fill: none; stroke: #1d2a36; stroke-width: 1.7; stroke-linecap: round"/>
   </g>
   <g id="line2d_10">
    <path d="M 141.502365 171.38522 
L 141.153446 231.964959 
L 140.668224 237.938093 
L 138.169332 243.385048 
L 133.958173 247.64884 
L 128.542676 250.215192 
L 122.576029 250.774565 
L 116.777897 249.25949 
L 111.847622 245.852708 
L 108.379867 240.965127 
L 106.792895 235.186261 
L 95.190318 175.726975 
L 95.844313 167.676228 
L 99.212385 160.334681 
L 104.888295 154.587831 
L 112.187443 151.128835 
L 120.229446 150.374897 
L 128.044318 152.416954 
L 134.689472 157.008704 
L 139.363402 163.596314 
L 141.502365 171.38522 
L 141.502365 171.38522 
" clip-path="url(#p0a672f581c)" style="fill: none; stroke: #1d2a36; stroke-width: 1.7; stroke-linecap: round"/>
   </g>
   <g id="patch_44">
    <path d="M 118.346341 182.934146 
C 120.833429 182.934146 123.218987 181.946016 124.977623 180.187379 
C 126.73626 178.428743 127.72439 176.043185 127.72439 173.556098 
C 127.72439 171.06901 126.73626 168.683452 124.977623 166.924816 
C 123.218987 165.166179 120.833429 164.178049 118.346341 164.178049 
C 115.859254 164.178049 113.473696 165.166179 111.71506 166.924816 
C 109.956423 168.683452 108.968293 171.06901 108.968293 173.556098 
C 108.968293 176.043185 109.956423 178.428743 111.71506 180.187379 
C 113.473696 181.946016 115.859254 182.934146 118.346341 182.934146 
z
" clip-path="url(#p0a672f581c)" style="fill: #2c3e50"/>
   </g>
   <g id="patch_45">
    <path d="M 135.226829 154.237317 
C 137.067274 154.237317 138.832587 153.506101 140.133978 152.20471 
C 141.435369 150.903319 142.166585 149.138006 142.166585 147.297561 
C 142.166585 145.457116 141.435369 143.691803 140.133978 142.390412 
C 138.832587 141.089021 137.067274 140.357805 135.226829 140.357805 
C 133.386384 140.357805 131.621072 141.089021 130.319681 142.390412 
C 129.01829 143.691803 128.287073 145.457116 128.287073 147.297561 
C 128.287073 149.138006 129.01829 150.903319 130.319681 152.20471 
C 131.621072 153.506101 133.386384 154.237317 135.226829 154.237317 
z
" clip-path="url(#p0a672f581c)" style="fill: #2c3e50"/>
   </g>
   <g id="patch_46">
    <path d="M 110.457729 168.484846 
L 129.389256 143.544835 
L 141.064403 151.050287 
L 126.234954 178.627349 
z
" clip-path="url(#p0a672f581c)" style="fill: #2c3e50"/>
   </g>
   <g id="patch_47">
    <path d="M 135.226829 154.237317 
C 137.067274 154.237317 138.832587 153.506101 140.133978 152.20471 
C 141.435369 150.903319 142.166585 149.138006 142.166585 147.297561 
C 142.166585 145.457116 141.435369 143.691803 140.133978 142.390412 
C 138.832587 141.089021 137.067274 140.357805 135.226829 140.357805 
C 133.386384 140.357805 131.621072 141.089021 130.319681 142.390412 
C 129.01829 143.691803 128.287073 145.457116 128.287073 147.297561 
C 128.287073 149.138006 129.01829 150.903319 130.319681 152.20471 
C 131.621072 153.506101 133.386384 154.237317 135.226829 154.237317 
z
" clip-path="url(#p0a672f581c)" style="fill: #2c3e50"/>
   </g>
   <g id="patch_48">
    <path d="M 142.729268 123.102195 
C 144.271263 123.102195 145.750308 122.489554 146.840663 121.3992 
C 147.931018 120.308845 148.543659 118.829799 148.543659 117.287805 
C 148.543659 115.745811 147.931018 114.266765 146.840663 113.17641 
C 145.750308 112.086055 144.271263 111.473415 142.729268 111.473415 
C 141.187274 111.473415 139.708228 112.086055 138.617874 113.17641 
C 137.527519 114.266765 136.914878 115.745811 136.914878 117.287805 
C 136.914878 118.829799 137.527519 120.308845 138.617874 121.3992 
C 139.708228 122.489554 141.187274 123.102195 142.729268 123.102195 
z
" clip-path="url(#p0a672f581c)" style="fill: #2c3e50"/>
   </g>
   <g id="patch_49">
    <path d="M 128.494277 145.614423 
L 137.088481 115.877608 
L 148.370055 118.698002 
L 141.959382 148.980699 
z
" clip-path="url(#p0a672f581c)" style="fill: #2c3e50"/>
   </g>
   <g id="patch_50">
    <path d="M 150.231707 298.051571 
C 151.413571 298.051571 152.547188 297.582011 153.382892 296.746307 
C 154.218597 295.910603 154.688156 294.776986 154.688156 293.595122 
C 154.688156 292.413258 154.218597 291.279641 153.382892 290.443937 
C 152.547188 289.608233 151.413571 289.138673 150.231707 289.138673 
C 149.049843 289.138673 147.916226 289.608233 147.080522 290.443937 
C 146.244818 291.279641 145.775259 292.413258 145.775259 293.595122 
C 145.775259 294.776986 146.244818 295.910603 147.080522 296.746307 
C 147.916226 297.582011 149.049843 298.051571 150.231707 298.051571 
z
" clip-path="url(#p0a672f581c)" style="fill: #1b1b1b; stroke: #121212; stroke-width: 1.3; stroke-linejoin: miter"/>
   </g>
   <g id="patch_51">
    <path d="M 142.729268 123.477317 
C 144.370746 123.477317 145.945214 122.825151 147.105914 121.664451 
C 148.266614 120.503751 148.91878 118.929283 148.91878 117.287805 
C 148.91878 115.646327 148.266614 114.071859 147.105914 112.911159 
C 145.945214 111.750459 144.370746 111.098293 142.729268 111.098293 
C 141.08779 111.098293 139.513322 111.750459 138.352622 112.911159 
C 137.191922 114.071859 136.539756 115.646327 136.539756 117.287805 
C 136.539756 118.929283 137.191922 120.503751 138.352622 121.664451 
C 139.513322 122.825151 141.08779 123.477317 142.729268 123.477317 
z
" clip-path="url(#p0a672f581c)" style="fill: #f2e0c9; stroke: #a49888; stroke-width: 1.6; stroke-linejoin: miter"/>
   </g>
   <g id="line2d_11">
    <path d="M 133.249964 222.752685 
L 156.212797 249.104988 
L 158.238689 251.571463 
L 159.298821 254.582086 
L 159.265324 257.773734 
L 158.142241 260.761444 
L 156.06503 263.184857 
L 153.284234 264.751672 
L 150.135259 265.272909 
L 146.997917 264.685698 
L 144.250617 263.060865 
L 114.696378 244.398535 
L 111.554178 240.572983 
L 109.909893 235.903444 
L 109.961846 230.953134 
L 111.703772 226.319133 
L 114.925568 222.560371 
L 119.238639 220.130209 
L 124.122764 219.321761 
L 128.988846 220.232537 
L 133.249964 222.752685 
L 133.249964 222.752685 
" clip-path="url(#p0a672f581c)" style="fill: none; stroke: #282a2c; stroke-width: 1.7; stroke-linecap: round"/>
   </g>
   <g id="line2d_12">
    <path d="M 159.422195 256.082927 
L 156.42122 293.595122 
L 156.047946 295.71206 
L 154.973149 297.573664 
L 153.326463 298.955397 
L 151.306505 299.690602 
L 149.15691 299.690602 
L 147.136951 298.955397 
L 145.490266 297.573664 
L 144.415468 295.71206 
L 144.042195 293.595122 
L 141.04122 256.082927 
L 141.595474 252.939595 
L 143.191385 250.175395 
L 145.636463 248.123731 
L 148.635796 247.032063 
L 151.827619 247.032063 
L 154.826951 248.123731 
L 157.272029 250.175395 
L 158.867941 252.939595 
L 159.422195 256.082927 
L 159.422195 256.082927 
" clip-path="url(#p0a672f581c)" style="fill: none; stroke: #282a2c; stroke-width: 1.7; stroke-linecap: round"/>
   </g>
   <g id="line2d_13">
    <path d="M 150.231707 288.334037 
L 165.236585 290.19089 
L 166.400901 290.396191 
L 167.424783 290.987329 
L 168.184737 291.893006 
L 168.589099 293.003983 
L 168.589099 294.186261 
L 168.184737 295.297238 
L 167.424783 296.202915 
L 166.400901 296.794053 
L 165.236585 296.999354 
L 150.231707 298.856207 
L 148.43231 298.538925 
L 146.849947 297.625347 
L 145.675474 296.225665 
L 145.05055 294.5087 
L 145.05055 292.681544 
L 145.675474 290.964579 
L 146.849947 289.564897 
L 148.43231 288.651319 
L 150.231707 288.334037 
L 150.231707 288.334037 
" clip-path="url(#p0a672f581c)" style="fill: none; stroke: #121212; stroke-width: 1.5; stroke-linecap: round"/>
   </g>
   <g id="line2d_14">
    <path d="M 110.457729 168.484846 
L 129.389256 143.544835 
L 131.024812 141.774585 
L 133.167194 140.670486 
L 135.557998 140.365711 
L 137.908859 140.897019 
L 139.936227 142.200327 
L 141.395572 144.118437 
L 142.110876 146.419996 
L 141.995862 148.827402 
L 141.064403 151.050287 
L 126.234954 178.627349 
L 124.024743 181.019579 
L 121.129632 182.511604 
L 117.898816 182.923462 
L 114.721977 182.205478 
L 111.982291 180.444251 
L 110.010203 177.852211 
L 109.043576 174.741996 
L 109.199 171.488745 
L 110.457729 168.484846 
L 110.457729 168.484846 
" clip-path="url(#p0a672f581c)" style="fill: none; stroke: #1d2a36; stroke-width: 1.7; stroke-linecap: round"/>
   </g>
   <g id="line2d_15">
    <path d="M 128.494277 145.614423 
L 137.088481 115.877608 
L 137.910978 114.033391 
L 139.314632 112.581703 
L 141.130141 111.697642 
L 143.138529 111.487836 
L 145.097553 111.977592 
L 146.770928 113.107838 
L 147.956819 114.74225 
L 148.51219 116.683694 
L 148.370055 118.698002 
L 141.959382 148.980699 
L 140.977692 151.181862 
L 139.302363 152.914521 
L 137.135465 153.969691 
L 134.738357 154.220105 
L 132.400166 153.635557 
L 130.402913 152.286553 
L 128.987495 150.335804 
L 128.324632 148.018597 
L 128.494277 145.614423 
L 128.494277 145.614423 
" clip-path="url(#p0a672f581c)" style="fill: none; stroke: #1d2a36; stroke-width: 1.7; stroke-linecap: round"/>
   </g>
   <g id="patch_52">
    <path d="M 120.221951 169.804878 
C 124.201291 169.804878 128.018184 168.223869 130.832002 165.410051 
C 133.645821 162.596233 135.226829 158.77934 135.226829 154.8 
C 135.226829 150.82066 133.645821 147.003767 130.832002 144.189949 
C 128.018184 141.376131 124.201291 139.795122 120.221951 139.795122 
C 116.242611 139.795122 112.425719 141.376131 109.6119 144.189949 
C 106.798082 147.003767 105.217073 150.82066 105.217073 154.8 
C 105.217073 158.77934 106.798082 162.596233 109.6119 165.410051 
C 112.425719 168.223869 116.242611 169.804878 120.221951 169.804878 
z
" clip-path="url(#p0a672f581c)" style="fill: #f2e0c9; stroke: #a49888; stroke-width: 1.8; stroke-linejoin: miter"/>
   </g>
   <g id="line2d_16">
    <path d="M 125.84878 117.287805 
L 159.609756 117.287805 
" clip-path="url(#p0a672f581c)" style="fill: none; stroke: #5b6b73; stroke-width: 5; stroke-linecap: round"/>
   </g>
   <g id="patch_53">
    <path d="M 125.84878 122.014341 
C 127.102273 122.014341 128.304594 121.516324 129.190947 120.629971 
C 130.077299 119.743618 130.575317 118.541297 130.575317 117.287805 
C 130.575317 116.034313 130.077299 114.831992 129.190947 113.945639 
C 128.304594 113.059286 127.102273 112.561268 125.84878 112.561268 
C 124.595288 112.561268 123.392967 113.059286 122.506614 113.945639 
C 121.620262 114.831992 121.122244 116.034313 121.122244 117.287805 
C 121.122244 118.541297 121.620262 119.743618 122.506614 120.629971 
C 123.392967 121.516324 124.595288 122.014341 125.84878 122.014341 
z
" clip-path="url(#p0a672f581c)" style="fill: #5b6b73; stroke: #5b6b73; stroke-linejoin: miter"/>
   </g>
   <g id="patch_54">
    <path d="M 159.609756 122.014341 
C 160.863248 122.014341 162.065569 121.516324 162.951922 120.629971 
C 163.838275 119.743618 164.336293 118.541297 164.336293 117.287805 
C 164.336293 116.034313 163.838275 114.831992 162.951922 113.945639 
C 162.065569 113.059286 160.863248 112.561268 159.609756 112.561268 
C 158.356264 112.561268 157.153943 113.059286 156.26759 113.945639 
C 155.381237 114.831992 154.88322 116.034313 154.88322 117.287805 
C 154.88322 118.541297 155.381237 119.743618 156.26759 120.629971 
C 157.153943 121.516324 158.356264 122.014341 159.609756 122.014341 
z
" clip-path="url(#p0a672f581c)" style="fill: #5b6b73; stroke: #5b6b73; stroke-linejoin: miter"/>
   </g>
   <g id="line2d_17">
    <path d="M 135.226829 149.173171 
L 168.987805 149.173171 
" clip-path="url(#p0a672f581c)" style="fill: none; stroke: #5b6b73; stroke-width: 5; stroke-linecap: round"/>
   </g>
   <g id="patch_55">
    <path d="M 135.226829 153.899707 
C 136.480321 153.899707 137.682643 153.40169 138.568995 152.515337 
C 139.455348 151.628984 139.953366 150.426663 139.953366 149.173171 
C 139.953366 147.919679 139.455348 146.717357 138.568995 145.831005 
C 137.682643 144.944652 136.480321 144.446634 135.226829 144.446634 
C 133.973337 144.446634 132.771016 144.944652 131.884663 145.831005 
C 130.99831 146.717357 130.500293 147.919679 130.500293 149.173171 
C 130.500293 150.426663 130.99831 151.628984 131.884663 152.515337 
C 132.771016 153.40169 133.973337 153.899707 135.226829 153.899707 
z
" clip-path="url(#p0a672f581c)" style="fill: #5b6b73; stroke: #5b6b73; stroke-linejoin: miter"/>
   </g>
   <g id="patch_56">
    <path d="M 168.987805 153.899707 
C 170.241297 153.899707 171.443618 153.40169 172.329971 152.515337 
C 173.216324 151.628984 173.714341 150.426663 173.714341 149.173171 
C 173.714341 147.919679 173.216324 146.717357 172.329971 145.831005 
C 171.443618 144.944652 170.241297 144.446634 168.987805 144.446634 
C 167.734313 144.446634 166.531992 144.944652 165.645639 145.831005 
C 164.759286 146.717357 164.261268 147.919679 164.261268 149.173171 
C 164.261268 150.426663 164.759286 151.628984 165.645639 152.515337 
C 166.531992 153.40169 167.734313 153.899707 168.987805 153.899707 
z
" clip-path="url(#p0a672f581c)" style="fill: #5b6b73; stroke: #5b6b73; stroke-linejoin: miter"/>
   </g>
   <g id="patch_57">
    <path d="M 152.086032 147.170676 
Q 151.678546 131.975007 145.068912 121.08163 
" clip-path="url(#p0a672f581c)" style="fill: none; stroke-dasharray: 2.2,0; stroke-dashoffset: 0; stroke: #c0392b; stroke-width: 2.2; stroke-linecap: round"/>
    <path d="M 145.580026 127.321724 
L 145.068912 121.08163 
L 150.367655 124.416796 
z
" clip-path="url(#p0a672f581c)" style="fill: #c0392b; stroke-dasharray: 2.2,0; stroke-dashoffset: 0; stroke: #c0392b; stroke-width: 2.2; stroke-linecap: round"/>
   </g>
  </g>
 </g>
 <defs>
  <clipPath id="p0a672f581c">
   <rect x="5.809756" y="1" width="247.580488" height="307.6"/>
  </clipPath>
 </defs>
</svg>
