<?xml version="1.0" encoding="utf-8" standalone="no"?>
<!DOCTYPE svg PUBLIC "-//W3C//DTD SVG 1.1//EN"
  "http://www.w3.org/Graphics/SVG/1.1/DTD/svg11.dtd">
<svg xmlns:xlink="http://www.w3.org/1999/xlink" width="259.2pt" height="309.6pt" viewBox="0 0 259.2 309.6" xmlns="http://www.w3.org/2000/svg" version="1.1">
 <metadata>
  <rdf:RDF xmlns:dc="http://purl.org/dc/elements/1.1/" xmlns:cc="http://creativecommons.org/ns#" xmlns:rdf="http://www.w3.org/1999/02/22-rdf-syntax-ns#">
   <cc:Work>
    <dc:type rdf:resource="http://purl.org/dc/dcmitype/StillImage"/>
    <dc:date>2026-07-10T23:04:55.215976</dc:date>
    <dc:format>image/svg+xml</dc:format>
    <dc:creator>
     <cc:Agent>
      <dc:title>Matplotlib v3.10.8, https://matplotlib.org/</dc:title>
     </cc:Agent>
    </dc:creator>
   </cc:Work>
  </rdf:RDF>
 </metadata>
 <defs>
  <style type="text/css">*{stroke-linejoin: round; stroke-linecap: butt}</style>
 </defs>
 <g id="figure_1">
  <g id="patch_1">
   <path d="M 0 309.6 
L 259.2 309.6 
L 259.2 0 
L 0 0 
L 0 309.6 
z
" style="fill: none"/>
  </g>
  <g id="axes_1">
   <g id="line2d_1">
    <path d="M 17.063415 286.092683 
L 242.136585 286.092683 
" clip-path="url(#p15330a0b65)" style="fill: none; stroke: #c3c3c3; stroke-width: 3; stroke-linecap: round"/>
   </g>
   <g id="patch_2">
    <path d="M 112.719512 194.187805 
C 114.709182 194.187805 116.617628 193.397301 118.024538 191.990391 
C 119.431447 190.583482 120.221951 188.675036 120.221951 186.685366 
C 120.221951 184.695696 119.431447 182.78725 118.024538 181.38034 
C 116.617628 179.973431 114.709182 179.182927 112.719512 179.182927 
C 110.729842 179.182927 108.821396 179.973431 107.414487 181.38034 
C 106.007577 182.78725 105.217073 184.695696 105.217073 186.685366 
C 105.217073 188.675036 106.007577 190.583482 107.414487 191.990391 
C 108.821396 193.397301 110.729842 194.187805 112.719512 194.187805 
z
" clip-path="url(#p15330a0b65)" style="fill: #9aa0a6; fill-opacity: 0.3"/>
   </g>
   <g id="patch_3">
    <path d="M 110.843902 217.070244 
C 113.927891 217.070244 116.885983 215.844962 119.066692 213.664253 
C 121.247401 211.483544 122.472683 208.525452 122.472683 205.441463 
C 122.472683 202.357475 121.247401 199.399383 119.066692 197.218674 
C 116.885983 195.037965 113.927891 193.812683 110.843902 193.812683 
C 107.759914 193.812683 104.801822 195.037965 102.621113 197.218674 
C 100.440404 199.399383 99.215122 202.357475 99.215122 205.441463 
C 99.215122 208.525452 100.440404 211.483544 102.621113 213.664253 
C 104.801822 215.844962 107.759914 217.070244 110.843902 217.070244 
z
" clip-path="url(#p15330a0b65)" style="fill: #9aa0a6; fill-opacity: 0.3"/>
   </g>
   <g id="patch_4">
    <path d="M 120.184718 187.431886 
L 122.414972 206.59857 
L 99.272833 204.284357 
L 105.254306 185.938845 
z
" clip-path="url(#p15330a0b65)" style="fill: #9aa0a6; fill-opacity: 0.3"/>
   </g>
   <g id="patch_5">
    <path d="M 110.843902 228.699024 
C 117.01188 228.699024 122.928063 226.248461 127.289482 221.887042 
C 131.6509 217.525624 134.101463 211.609441 134.101463 205.441463 
C 134.101463 199.273486 131.6509 193.357303 127.289482 188.995884 
C 122.928063 184.634466 117.01188 182.183902 110.843902 182.183902 
C 104.675925 182.183902 98.759742 184.634466 94.398323 188.995884 
C 90.036905 193.357303 87.586341 199.273486 87.586341 205.441463 
C 87.586341 211.609441 90.036905 217.525624 94.398323 221.887042 
C 98.759742 226.248461 104.675925 228.699024 110.843902 228.699024 
z
" clip-path="url(#p15330a0b65)" style="fill: #9aa0a6; fill-opacity: 0.3"/>
   </g>
   <g id="patch_6">
    <path d="M 112.719512 278.965366 
C 117.295753 278.965366 121.68518 277.147206 124.921071 273.911315 
C 128.156962 270.675424 129.975122 266.285997 129.975122 261.709756 
C 129.975122 257.133515 128.156962 252.744089 124.921071 249.508197 
C 121.68518 246.272306 117.295753 244.454146 112.719512 244.454146 
C 108.143271 244.454146 103.753845 246.272306 100.517954 249.508197 
C 97.282062 252.744089 95.463902 257.133515 95.463902 261.709756 
C 95.463902 266.285997 97.282062 270.675424 100.517954 273.911315 
C 103.753845 277.147206 108.143271 278.965366 112.719512 278.965366 
z
" clip-path="url(#p15330a0b65)" style="fill: #9aa0a6; fill-opacity: 0.3"/>
   </g>
   <g id="patch_7">
    <path d="M 134.088553 204.666642 
L 129.965543 261.134888 
L 95.473481 262.284624 
L 87.599252 206.216285 
z
" clip-path="url(#p15330a0b65)" style="fill: #9aa0a6; fill-opacity: 0.3"/>
   </g>
   <g id="patch_8">
    <path d="M 112.719512 275.96439 
C 116.499885 275.96439 120.125933 274.462432 122.799061 271.789305 
C 125.472188 269.116177 126.974146 265.490129 126.974146 261.709756 
C 126.974146 257.929383 125.472188 254.303335 122.799061 251.630208 
C 120.125933 248.95708 116.499885 247.455122 112.719512 247.455122 
C 108.939139 247.455122 105.313091 248.95708 102.639964 251.630208 
C 99.966836 254.303335 98.464878 257.929383 98.464878 261.709756 
C 98.464878 265.490129 99.966836 269.116177 102.639964 271.789305 
C 105.313091 274.462432 108.939139 275.96439 112.719512 275.96439 
z
" clip-path="url(#p15330a0b65)" style="fill: #9aa0a6; fill-opacity: 0.3"/>
   </g>
   <g id="patch_9">
    <path d="M 150.231707 282.153902 
C 152.669053 282.153902 155.0069 281.185535 156.730364 279.462071 
C 158.453827 277.738607 159.422195 275.40076 159.422195 272.963415 
C 159.422195 270.526069 158.453827 268.188222 156.730364 266.464758 
C 155.0069 264.741295 152.669053 263.772927 150.231707 263.772927 
C 147.794361 263.772927 145.456515 264.741295 143.733051 266.464758 
C 142.009587 268.188222 141.04122 270.526069 141.04122 272.963415 
C 141.04122 275.40076 142.009587 277.738607 143.733051 279.462071 
C 145.456515 281.185535 147.794361 282.153902 150.231707 282.153902 
z
" clip-path="url(#p15330a0b65)" style="fill: #9aa0a6; fill-opacity: 0.3"/>
   </g>
   <g id="patch_10">
    <path d="M 116.815551 248.056293 
L 152.872575 264.160524 
L 147.59084 281.766305 
L 108.623473 275.363219 
z
" clip-path="url(#p15330a0b65)" style="fill: #9aa0a6; fill-opacity: 0.3"/>
   </g>
   <g id="patch_11">
    <path d="M 150.231707 282.153902 
C 152.669053 282.153902 155.0069 281.185535 156.730364 279.462071 
C 158.453827 277.738607 159.422195 275.40076 159.422195 272.963415 
C 159.422195 270.526069 158.453827 268.188222 156.730364 266.464758 
C 155.0069 264.741295 152.669053 263.772927 150.231707 263.772927 
C 147.794361 263.772927 145.456515 264.741295 143.733051 266.464758 
C 142.009587 268.188222 141.04122 270.526069 141.04122 272.963415 
C 141.04122 275.40076 142.009587 277.738607 143.733051 279.462071 
C 145.456515 281.185535 147.794361 282.153902 150.231707 282.153902 
z
" clip-path="url(#p15330a0b65)" style="fill: #9aa0a6; fill-opacity: 0.3"/>
   </g>
   <g id="patch_12">
    <path d="M 180.241463 284.779756 
C 181.882941 284.779756 183.457409 284.12759 184.618109 282.96689 
C 185.77881 281.80619 186.430976 280.231722 186.430976 278.590244 
C 186.430976 276.948766 185.77881 275.374298 184.618109 274.213598 
C 183.457409 273.052898 181.882941 272.400732 180.241463 272.400732 
C 178.599986 272.400732 177.025517 273.052898 175.864817 274.213598 
C 174.704117 275.374298 174.051951 276.948766 174.051951 278.590244 
C 174.051951 280.231722 174.704117 281.80619 175.864817 282.96689 
C 177.025517 284.12759 178.599986 284.779756 180.241463 284.779756 
z
" clip-path="url(#p15330a0b65)" style="fill: #9aa0a6; fill-opacity: 0.3"/>
   </g>
   <g id="patch_13">
    <path d="M 151.925409 263.93034 
L 181.38212 272.506745 
L 179.100807 284.673743 
L 148.538006 281.996489 
z
" clip-path="url(#p15330a0b65)" style="fill: #9aa0a6; fill-opacity: 0.3"/>
   </g>
   <g id="patch_14">
    <path d="M 180.241463 283.851329 
C 181.63672 283.851329 182.975017 283.296988 183.961613 282.310393 
C 184.948208 281.323798 185.502549 279.9855 185.502549 278.590244 
C 185.502549 277.194988 184.948208 275.85669 183.961613 274.870095 
C 182.975017 273.8835 181.63672 273.329159 180.241463 273.329159 
C 178.846207 273.329159 177.507909 273.8835 176.521314 274.870095 
C 175.534719 275.85669 174.980378 277.194988 174.980378 278.590244 
C 174.980378 279.9855 175.534719 281.323798 176.521314 282.310393 
C 177.507909 283.296988 178.846207 283.851329 180.241463 283.851329 
z
" clip-path="url(#p15330a0b65)" style="fill: #9aa0a6; fill-opacity: 0.3"/>
   </g>
   <g id="patch_15">
    <path d="M 195.246341 283.870085 
C 196.149154 283.870085 197.015112 283.511394 197.653497 282.873009 
C 198.291882 282.234624 198.650573 281.368666 198.650573 280.465854 
C 198.650573 279.563041 198.291882 278.697083 197.653497 278.058698 
C 197.015112 277.420313 196.149154 277.061622 195.246341 277.061622 
C 194.343529 277.061622 193.477571 277.420313 192.839186 278.058698 
C 192.200801 278.697083 191.84211 279.563041 191.84211 280.465854 
C 191.84211 281.368666 192.200801 282.234624 192.839186 282.873009 
C 193.477571 283.511394 194.343529 283.870085 195.246341 283.870085 
z
" clip-path="url(#p15330a0b65)" style="fill: #9aa0a6; fill-opacity: 0.3"/>
   </g>
   <g id="patch_16">
    <path d="M 180.894021 273.369785 
L 195.668584 277.08791 
L 194.824098 283.843797 
L 179.588906 283.810703 
z
" clip-path="url(#p15330a0b65)" style="fill: #9aa0a6; fill-opacity: 0.3"/>
   </g>
   <g id="line2d_2">
    <path d="M 120.184718 187.431886 
L 122.414972 206.59857 
L 121.321397 210.486327 
L 118.964082 213.765599 
L 115.627353 216.040857 
L 111.71367 217.037671 
L 107.69508 216.635812 
L 104.056284 214.88375 
L 101.236175 211.992808 
L 99.5749 208.311677 
L 99.272833 204.284357 
L 105.254306 185.938845 
L 105.959838 183.430615 
L 107.480687 181.314956 
L 109.633415 179.847048 
L 112.158372 179.203941 
L 114.751011 179.463205 
L 117.098621 180.593568 
L 118.918046 182.458692 
L 119.989836 184.833615 
L 120.184718 187.431886 
L 120.184718 187.431886 
" clip-path="url(#p15330a0b65)" style="fill: none; stroke: #7d8288; stroke-opacity: 0.85; stroke-width: 1.7; stroke-linecap: round"/>
   </g>
   <g id="line2d_3">
    <path d="M 134.088553 204.666642 
L 129.965543 261.134888 
L 129.122097 267.068047 
L 126.300256 272.354917 
L 121.840378 276.357823 
L 116.280388 278.593957 
L 110.290904 278.793606 
L 104.594347 276.932691 
L 99.877804 273.235666 
L 96.71016 268.148445 
L 95.473481 262.284624 
L 87.599252 206.216285 
L 88.736071 198.219419 
L 92.539421 191.093638 
L 98.550562 185.698416 
L 106.044461 182.684497 
L 114.117243 182.415405 
L 121.795213 184.923594 
L 128.152292 189.906542 
L 132.421725 196.76323 
L 134.088553 204.666642 
L 134.088553 204.666642 
" clip-path="url(#p15330a0b65)" style="fill: none; stroke: #7d8288; stroke-opacity: 0.85; stroke-width: 1.7; stroke-linecap: round"/>
   </g>
   <g id="patch_17">
    <path d="M 110.843902 214.819512 
C 113.33099 214.819512 115.716548 213.831382 117.475184 212.072745 
C 119.233821 210.314109 120.221951 207.928551 120.221951 205.441463 
C 120.221951 202.954376 119.233821 200.568818 117.475184 198.810182 
C 115.716548 197.051545 113.33099 196.063415 110.843902 196.063415 
C 108.356815 196.063415 105.971257 197.051545 104.212621 198.810182 
C 102.453984 200.568818 101.465854 202.954376 101.465854 205.441463 
C 101.465854 207.928551 102.453984 210.314109 104.212621 212.072745 
C 105.971257 213.831382 108.356815 214.819512 110.843902 214.819512 
z
" clip-path="url(#p15330a0b65)" style="fill: #9aa0a6; fill-opacity: 0.3"/>
   </g>
   <g id="patch_18">
    <path d="M 131.47561 234.888537 
C 133.316055 234.888537 135.081367 234.15732 136.382758 232.855929 
C 137.684149 231.554538 138.415366 229.789225 138.415366 227.94878 
C 138.415366 226.108336 137.684149 224.343023 136.382758 223.041632 
C 135.081367 221.740241 133.316055 221.009024 131.47561 221.009024 
C 129.635165 221.009024 127.869852 221.740241 126.568461 223.041632 
C 125.26707 224.343023 124.535854 226.108336 124.535854 227.94878 
C 124.535854 229.789225 125.26707 231.554538 126.568461 232.855929 
C 127.869852 234.15732 129.635165 234.888537 131.47561 234.888537 
z
" clip-path="url(#p15330a0b65)" style="fill: #9aa0a6; fill-opacity: 0.3"/>
   </g>
   <g id="patch_19">
    <path d="M 117.75697 199.104485 
L 136.59128 223.259416 
L 126.35994 232.638145 
L 103.930835 211.778442 
z
" clip-path="url(#p15330a0b65)" style="fill: #9aa0a6; fill-opacity: 0.3"/>
   </g>
   <g id="patch_20">
    <path d="M 131.47561 234.888537 
C 133.316055 234.888537 135.081367 234.15732 136.382758 232.855929 
C 137.684149 231.554538 138.415366 229.789225 138.415366 227.94878 
C 138.415366 226.108336 137.684149 224.343023 136.382758 223.041632 
C 135.081367 221.740241 133.316055 221.009024 131.47561 221.009024 
C 129.635165 221.009024 127.869852 221.740241 126.568461 223.041632 
C 125.26707 224.343023 124.535854 226.108336 124.535854 227.94878 
C 124.535854 229.789225 125.26707 231.554538 126.568461 232.855929 
C 127.869852 234.15732 129.635165 234.888537 131.47561 234.888537 
z
" clip-path="url(#p15330a0b65)" style="fill: #9aa0a6; fill-opacity: 0.3"/>
   </g>
   <g id="patch_21">
    <path d="M 172.739024 246.892439 
C 174.281019 246.892439 175.760065 246.279798 176.850419 245.189444 
C 177.940774 244.099089 178.553415 242.620043 178.553415 241.078049 
C 178.553415 239.536054 177.940774 238.057009 176.850419 236.966654 
C 175.760065 235.876299 174.281019 235.263659 172.739024 235.263659 
C 171.19703 235.263659 169.717984 235.876299 168.62763 236.966654 
C 167.537275 238.057009 166.924634 239.536054 166.924634 241.078049 
C 166.924634 242.620043 167.537275 244.099089 168.62763 245.189444 
C 169.717984 246.279798 171.19703 246.892439 172.739024 246.892439 
z
" clip-path="url(#p15330a0b65)" style="fill: #9aa0a6; fill-opacity: 0.3"/>
   </g>
   <g id="patch_22">
    <path d="M 133.579769 221.335708 
L 174.501969 235.537366 
L 170.97608 246.618731 
L 129.37145 234.561853 
z
" clip-path="url(#p15330a0b65)" style="fill: #9aa0a6; fill-opacity: 0.3"/>
   </g>
   <g id="patch_23">
    <path d="M 180.241463 283.046693 
C 181.423327 283.046693 182.556944 282.577133 183.392649 281.741429 
C 184.228353 280.905725 184.697912 279.772108 184.697912 278.590244 
C 184.697912 277.40838 184.228353 276.274763 183.392649 275.439059 
C 182.556944 274.603355 181.423327 274.133795 180.241463 274.133795 
C 179.059599 274.133795 177.925982 274.603355 177.090278 275.439059 
C 176.254574 276.274763 175.785015 277.40838 175.785015 278.590244 
C 175.785015 279.772108 176.254574 280.905725 177.090278 281.741429 
C 177.925982 282.577133 179.059599 283.046693 180.241463 283.046693 
z
" clip-path="url(#p15330a0b65)" style="fill: #9aa0a6; fill-opacity: 0.3; stroke: #7d8288; stroke-opacity: 0.85; stroke-width: 1.3; stroke-linejoin: miter"/>
   </g>
   <g id="patch_24">
    <path d="M 172.739024 247.267561 
C 174.380502 247.267561 175.95497 246.615395 177.11567 245.454695 
C 178.276371 244.293995 178.928537 242.719527 178.928537 241.078049 
C 178.928537 239.436571 178.276371 237.862103 177.11567 236.701403 
C 175.95497 235.540703 174.380502 234.888537 172.739024 234.888537 
C 171.097547 234.888537 169.523078 235.540703 168.362378 236.701403 
C 167.201678 237.862103 166.549512 239.436571 166.549512 241.078049 
C 166.549512 242.719527 167.201678 244.293995 168.362378 245.454695 
C 169.523078 246.615395 171.097547 247.267561 172.739024 247.267561 
z
" clip-path="url(#p15330a0b65)" style="fill: #9aa0a6; fill-opacity: 0.3; stroke: #7d8288; stroke-opacity: 0.85; stroke-width: 1.6; stroke-linejoin: miter"/>
   </g>
   <g id="line2d_4">
    <path d="M 116.815551 248.056293 
L 152.872575 264.160524 
L 155.724077 265.594633 
L 157.913118 267.917526 
L 159.175668 270.849027 
L 159.359444 274.035555 
L 158.442281 277.092767 
L 156.534801 279.651918 
L 153.867075 281.404337 
L 150.76087 282.138656 
L 147.59084 281.766305 
L 108.623473 275.363219 
L 104.200735 273.138887 
L 100.805487 269.536033 
L 98.847247 264.989214 
L 98.562206 260.046844 
L 99.984745 255.305046 
L 102.943286 251.335751 
L 107.080983 248.617713 
L 111.89877 247.47877 
L 116.815551 248.056293 
L 116.815551 248.056293 
" clip-path="url(#p15330a0b65)" style="fill: none; stroke: #7d8288; stroke-opacity: 0.85; stroke-width: 1.7; stroke-linecap: round"/>
   </g>
   <g id="line2d_5">
    <path d="M 151.925409 263.93034 
L 181.38212 272.506745 
L 183.394009 273.263752 
L 185.025655 274.663213 
L 186.080256 276.536331 
L 186.430614 278.657182 
L 186.034468 280.769959 
L 184.9396 282.619831 
L 183.278068 283.983674 
L 181.250277 284.696991 
L 179.100807 284.673743 
L 148.538006 281.996489 
L 145.550655 280.872448 
L 143.127908 278.794461 
L 141.561984 276.013164 
L 141.041757 272.864021 
L 141.629973 269.726867 
L 143.255686 266.980089 
L 145.722809 264.954987 
L 148.733773 263.895821 
L 151.925409 263.93034 
L 151.925409 263.93034 
" clip-path="url(#p15330a0b65)" style="fill: none; stroke: #7d8288; stroke-opacity: 0.85; stroke-width: 1.7; stroke-linecap: round"/>
   </g>
   <g id="line2d_6">
    <path d="M 180.894021 273.369785 
L 195.668584 277.08791 
L 196.798445 277.43604 
L 197.741099 278.149611 
L 198.382848 279.142555 
L 198.646288 280.295108 
L 198.499645 281.468256 
L 197.960605 282.520499 
L 197.094185 283.324921 
L 196.004888 283.784498 
L 194.824098 283.843797 
L 179.588906 283.810703 
L 177.842758 283.272683 
L 176.385929 282.169891 
L 175.394135 280.635342 
L 174.987 278.854124 
L 175.213631 277.041077 
L 176.046692 275.414883 
L 177.385705 274.171685 
L 179.069165 273.46143 
L 180.894021 273.369785 
L 180.894021 273.369785 
" clip-path="url(#p15330a0b65)" style="fill: none; stroke: #7d8288; stroke-opacity: 0.85; stroke-width: 1.5; stroke-linecap: round"/>
   </g>
   <g id="line2d_7">
    <path d="M 117.75697 199.104485 
L 136.59128 223.259416 
L 137.886624 225.291882 
L 138.408705 227.644808 
L 138.094553 230.034399 
L 136.982059 232.172432 
L 135.205405 233.801031 
L 132.978883 234.723763 
L 130.571044 234.829331 
L 128.272309 234.105004 
L 126.35994 232.638145 
L 103.930835 211.778442 
L 102.18037 209.031867 
L 101.474854 205.852236 
L 101.899384 202.623061 
L 103.402755 199.733826 
L 105.803638 197.533016 
L 108.812452 196.286082 
L 112.066288 196.143422 
L 115.172687 197.122243 
L 117.75697 199.104485 
L 117.75697 199.104485 
" clip-path="url(#p15330a0b65)" style="fill: none; stroke: #7d8288; stroke-opacity: 0.85; stroke-width: 1.7; stroke-linecap: round"/>
   </g>
   <g id="line2d_8">
    <path d="M 133.579769 221.335708 
L 174.501969 235.537366 
L 176.290675 236.474473 
L 177.651 237.966839 
L 178.418868 239.834462 
L 178.501663 241.852081 
L 177.889399 243.776339 
L 176.655924 245.375145 
L 174.950013 246.455657 
L 172.977424 246.88755 
L 170.97608 246.618731 
L 129.37145 234.561853 
L 127.236543 233.443371 
L 125.612929 231.66216 
L 124.696441 229.433061 
L 124.597621 227.024936 
L 125.328388 224.72824 
L 126.800601 222.819989 
L 128.836688 221.530345 
L 131.191069 221.01486 
L 133.579769 221.335708 
L 133.579769 221.335708 
" clip-path="url(#p15330a0b65)" style="fill: none; stroke: #7d8288; stroke-opacity: 0.85; stroke-width: 1.7; stroke-linecap: round"/>
   </g>
   <g id="patch_25">
    <path d="M 112.719512 201.690244 
C 116.698852 201.690244 120.515745 200.109235 123.329563 197.295417 
C 126.143382 194.481598 127.72439 190.664706 127.72439 186.685366 
C 127.72439 182.706026 126.143382 178.889133 123.329563 176.075315 
C 120.515745 173.261496 116.698852 171.680488 112.719512 171.680488 
C 108.740172 171.680488 104.92328 173.261496 102.109461 176.075315 
C 99.295643 178.889133 97.714634 182.706026 97.714634 186.685366 
C 97.714634 190.664706 99.295643 194.481598 102.109461 197.295417 
C 104.92328 200.109235 108.740172 201.690244 112.719512 201.690244 
z
" clip-path="url(#p15330a0b65)" style="fill: #9aa0a6; fill-opacity: 0.3; stroke: #7d8288; stroke-opacity: 0.85; stroke-width: 1.8; stroke-linejoin: miter"/>
   </g>
   <g id="patch_26">
    <path d="M 97.714634 186.685366 
C 99.704304 186.685366 101.61275 185.894862 103.01966 184.487952 
C 104.426569 183.081043 105.217073 181.172597 105.217073 179.182927 
C 105.217073 177.193257 104.426569 175.284811 103.01966 173.877901 
C 101.61275 172.470992 99.704304 171.680488 97.714634 171.680488 
C 95.724964 171.680488 93.816518 172.470992 92.409609 173.877901 
C 91.002699 175.284811 90.212195 177.193257 90.212195 179.182927 
C 90.212195 181.172597 91.002699 183.081043 92.409609 184.487952 
C 93.816518 185.894862 95.724964 186.685366 97.714634 186.685366 
z
" clip-path="url(#p15330a0b65)" style="fill: #2c3e50"/>
   </g>
   <g id="patch_27">
    <path d="M 99.590244 211.443415 
C 102.674233 211.443415 105.632324 210.218133 107.813033 208.037424 
C 109.993743 205.856714 111.219024 202.898623 111.219024 199.814634 
C 111.219024 196.730646 109.993743 193.772554 107.813033 191.591845 
C 105.632324 189.411135 102.674233 188.185854 99.590244 188.185854 
C 96.506255 188.185854 93.548164 189.411135 91.367454 191.591845 
C 89.186745 193.772554 87.961463 196.730646 87.961463 199.814634 
C 87.961463 202.898623 89.186745 205.856714 91.367454 208.037424 
C 93.548164 210.218133 96.506255 211.443415 99.590244 211.443415 
z
" clip-path="url(#p15330a0b65)" style="fill: #2c3e50"/>
   </g>
   <g id="patch_28">
    <path d="M 105.186262 178.503688 
L 111.171267 198.761814 
L 88.00922 200.867454 
L 90.243006 179.862166 
z
" clip-path="url(#p15330a0b65)" style="fill: #2c3e50"/>
   </g>
   <g id="patch_29">
    <path d="M 99.590244 223.072195 
C 105.758221 223.072195 111.674404 220.621632 116.035823 216.260213 
C 120.397242 211.898795 122.847805 205.982611 122.847805 199.814634 
C 122.847805 193.646657 120.397242 187.730474 116.035823 183.369055 
C 111.674404 179.007637 105.758221 176.557073 99.590244 176.557073 
C 93.422267 176.557073 87.506083 179.007637 83.144665 183.369055 
C 78.783246 187.730474 76.332683 193.646657 76.332683 199.814634 
C 76.332683 205.982611 78.783246 211.898795 83.144665 216.260213 
C 87.506083 220.621632 93.422267 223.072195 99.590244 223.072195 
z
" clip-path="url(#p15330a0b65)" style="fill: #2c3e50"/>
   </g>
   <g id="patch_30">
    <path d="M 112.719512 278.965366 
C 117.295753 278.965366 121.68518 277.147206 124.921071 273.911315 
C 128.156962 270.675424 129.975122 266.285997 129.975122 261.709756 
C 129.975122 257.133515 128.156962 252.744089 124.921071 249.508197 
C 121.68518 246.272306 117.295753 244.454146 112.719512 244.454146 
C 108.143271 244.454146 103.753845 246.272306 100.517954 249.508197 
C 97.282062 252.744089 95.463902 257.133515 95.463902 261.709756 
C 95.463902 266.285997 97.282062 270.675424 100.517954 273.911315 
C 103.753845 277.147206 108.143271 278.965366 112.719512 278.965366 
z
" clip-path="url(#p15330a0b65)" style="fill: #2c3e50"/>
   </g>
   <g id="patch_31">
    <path d="M 122.341584 194.988592 
L 129.599539 258.129144 
L 95.839486 265.290368 
L 76.838904 204.640676 
z
" clip-path="url(#p15330a0b65)" style="fill: #2c3e50"/>
   </g>
   <g id="patch_32">
    <path d="M 112.719512 275.96439 
C 116.499885 275.96439 120.125933 274.462432 122.799061 271.789305 
C 125.472188 269.116177 126.974146 265.490129 126.974146 261.709756 
C 126.974146 257.929383 125.472188 254.303335 122.799061 251.630208 
C 120.125933 248.95708 116.499885 247.455122 112.719512 247.455122 
C 108.939139 247.455122 105.313091 248.95708 102.639964 251.630208 
C 99.966836 254.303335 98.464878 257.929383 98.464878 261.709756 
C 98.464878 265.490129 99.966836 269.116177 102.639964 271.789305 
C 105.313091 274.462432 108.939139 275.96439 112.719512 275.96439 
z
" clip-path="url(#p15330a0b65)" style="fill: #3c3f42"/>
   </g>
   <g id="patch_33">
    <path d="M 150.231707 282.153902 
C 152.669053 282.153902 155.0069 281.185535 156.730364 279.462071 
C 158.453827 277.738607 159.422195 275.40076 159.422195 272.963415 
C 159.422195 270.526069 158.453827 268.188222 156.730364 266.464758 
C 155.0069 264.741295 152.669053 263.772927 150.231707 263.772927 
C 147.794361 263.772927 145.456515 264.741295 143.733051 266.464758 
C 142.009587 268.188222 141.04122 270.526069 141.04122 272.963415 
C 141.04122 275.40076 142.009587 277.738607 143.733051 279.462071 
C 145.456515 281.185535 147.794361 282.153902 150.231707 282.153902 
z
" clip-path="url(#p15330a0b65)" style="fill: #3c3f42"/>
   </g>
   <g id="patch_34">
    <path d="M 116.815551 248.056293 
L 152.872575 264.160524 
L 147.59084 281.766305 
L 108.623473 275.363219 
z
" clip-path="url(#p15330a0b65)" style="fill: #3c3f42"/>
   </g>
   <g id="patch_35">
    <path d="M 150.231707 282.153902 
C 152.669053 282.153902 155.0069 281.185535 156.730364 279.462071 
C 158.453827 277.738607 159.422195 275.40076 159.422195 272.963415 
C 159.422195 270.526069 158.453827 268.188222 156.730364 266.464758 
C 155.0069 264.741295 152.669053 263.772927 150.231707 263.772927 
C 147.794361 263.772927 145.456515 264.741295 143.733051 266.464758 
C 142.009587 268.188222 141.04122 270.526069 141.04122 272.963415 
C 141.04122 275.40076 142.009587 277.738607 143.733051 279.462071 
C 145.456515 281.185535 147.794361 282.153902 150.231707 282.153902 
z
" clip-path="url(#p15330a0b65)" style="fill: #3c3f42"/>
   </g>
   <g id="patch_36">
    <path d="M 180.241463 284.779756 
C 181.882941 284.779756 183.457409 284.12759 184.618109 282.96689 
C 185.77881 281.80619 186.430976 280.231722 186.430976 278.590244 
C 186.430976 276.948766 185.77881 275.374298 184.618109 274.213598 
C 183.457409 273.052898 181.882941 272.400732 180.241463 272.400732 
C 178.599986 272.400732 177.025517 273.052898 175.864817 274.213598 
C 174.704117 275.374298 174.051951 276.948766 174.051951 278.590244 
C 174.051951 280.231722 174.704117 281.80619 175.864817 282.96689 
C 177.025517 284.12759 178.599986 284.779756 180.241463 284.779756 
z
" clip-path="url(#p15330a0b65)" style="fill: #3c3f42"/>
   </g>
   <g id="patch_37">
    <path d="M 151.925409 263.93034 
L 181.38212 272.506745 
L 179.100807 284.673743 
L 148.538006 281.996489 
z
" clip-path="url(#p15330a0b65)" style="fill: #3c3f42"/>
   </g>
   <g id="patch_38">
    <path d="M 180.241463 283.851329 
C 181.63672 283.851329 182.975017 283.296988 183.961613 282.310393 
C 184.948208 281.323798 185.502549 279.9855 185.502549 278.590244 
C 185.502549 277.194988 184.948208 275.85669 183.961613 274.870095 
C 182.975017 273.8835 181.63672 273.329159 180.241463 273.329159 
C 178.846207 273.329159 177.507909 273.8835 176.521314 274.870095 
C 175.534719 275.85669 174.980378 277.194988 174.980378 278.590244 
C 174.980378 279.9855 175.534719 281.323798 176.521314 282.310393 
C 177.507909 283.296988 178.846207 283.851329 180.241463 283.851329 
z
" clip-path="url(#p15330a0b65)" style="fill: #1b1b1b"/>
   </g>
   <g id="patch_39">
    <path d="M 195.246341 283.870085 
C 196.149154 283.870085 197.015112 283.511394 197.653497 282.873009 
C 198.291882 282.234624 198.650573 281.368666 198.650573 280.465854 
C 198.650573 279.563041 198.291882 278.697083 197.653497 278.058698 
C 197.015112 277.420313 196.149154 277.061622 195.246341 277.061622 
C 194.343529 277.061622 193.477571 277.420313 192.839186 278.058698 
C 192.200801 278.697083 191.84211 279.563041 191.84211 280.465854 
C 191.84211 281.368666 192.200801 282.234624 192.839186 282.873009 
C 193.477571 283.511394 194.343529 283.870085 195.246341 283.870085 
z
" clip-path="url(#p15330a0b65)" style="fill: #1b1b1b"/>
   </g>
   <g id="patch_40">
    <path d="M 180.894021 273.369785 
L 195.668584 277.08791 
L 194.824098 283.843797 
L 179.588906 283.810703 
z
" clip-path="url(#p15330a0b65)" style="fill: #1b1b1b"/>
   </g>
   <g id="line2d_9">
    <path d="M 105.186262 178.503688 
L 111.171267 198.761814 
L 110.832932 202.78625 
L 109.138562 206.452265 
L 106.292525 209.317685 
L 102.638093 211.036896 
L 98.616046 211.402536 
L 94.711501 210.370505 
L 91.395405 208.06528 
L 89.067727 204.764905 
L 88.00922 200.867454 
L 90.243006 179.862166 
L 90.461287 177.265755 
L 91.554429 174.900584 
L 93.390582 173.051927 
L 95.74828 171.942758 
L 98.343149 171.706861 
L 100.86221 172.372688 
L 103.001627 173.85993 
L 104.503355 175.989204 
L 105.186262 178.503688 
L 105.186262 178.503688 
" clip-path="url(#p15330a0b65)" style="fill: none; stroke: #1d2a36; stroke-width: 1.7; stroke-linecap: round"/>
   </g>
   <g id="line2d_10">
    <path d="M 122.341584 194.988592 
L 129.599539 258.129144 
L 129.80619 264.118391 
L 127.951935 269.81712 
L 124.260426 274.537982 
L 119.176912 277.71157 
L 113.31454 278.955104 
L 107.3804 278.118594 
L 102.090235 275.302936 
L 98.082117 270.847739 
L 95.839486 265.290368 
L 76.838904 204.640676 
L 76.560374 196.568213 
L 79.059587 188.887317 
L 84.035099 182.524417 
L 90.886792 178.246972 
L 98.788249 176.570905 
L 106.786439 177.698375 
L 113.916661 181.493392 
L 119.318907 187.498222 
L 122.341584 194.988592 
L 122.341584 194.988592 
" clip-path="url(#p15330a0b65)" style="fill: none; stroke: #1d2a36; stroke-width: 1.7; stroke-linecap: round"/>
   </g>
   <g id="patch_41">
    <path d="M 99.590244 209.192683 
C 102.077332 209.192683 104.462889 208.204553 106.221526 206.445916 
C 107.980162 204.68728 108.968293 202.301722 108.968293 199.814634 
C 108.968293 197.327547 107.980162 194.941989 106.221526 193.183352 
C 104.462889 191.424716 102.077332 190.436585 99.590244 190.436585 
C 97.103156 190.436585 94.717599 191.424716 92.958962 193.183352 
C 91.200326 194.941989 90.212195 197.327547 90.212195 199.814634 
C 90.212195 202.301722 91.200326 204.68728 92.958962 206.445916 
C 94.717599 208.204553 97.103156 209.192683 99.590244 209.192683 
z
" clip-path="url(#p15330a0b65)" style="fill: #2c3e50"/>
   </g>
   <g id="patch_42">
    <path d="M 82.709756 223.634878 
C 84.550201 223.634878 86.315514 222.903662 87.616905 221.602271 
C 88.918296 220.30088 89.649512 218.535567 89.649512 216.695122 
C 89.649512 214.854677 88.918296 213.089364 87.616905 211.787973 
C 86.315514 210.486582 84.550201 209.755366 82.709756 209.755366 
C 80.869311 209.755366 79.103999 210.486582 77.802608 211.787973 
C 76.501216 213.089364 75.77 214.854677 75.77 216.695122 
C 75.77 218.535567 76.501216 220.30088 77.802608 221.602271 
C 79.103999 222.903662 80.869311 223.634878 82.709756 223.634878 
z
" clip-path="url(#p15330a0b65)" style="fill: #2c3e50"/>
   </g>
   <g id="patch_43">
    <path d="M 106.221526 206.445916 
L 87.616905 221.602271 
L 77.802608 211.787973 
L 92.958962 193.183352 
z
" clip-path="url(#p15330a0b65)" style="fill: #2c3e50"/>
   </g>
   <g id="patch_44">
    <path d="M 82.709756 223.634878 
C 84.550201 223.634878 86.315514 222.903662 87.616905 221.602271 
C 88.918296 220.30088 89.649512 218.535567 89.649512 216.695122 
C 89.649512 214.854677 88.918296 213.089364 87.616905 211.787973 
C 86.315514 210.486582 84.550201 209.755366 82.709756 209.755366 
C 80.869311 209.755366 79.103999 210.486582 77.802608 211.787973 
C 76.501216 213.089364 75.77 214.854677 75.77 216.695122 
C 75.77 218.535567 76.501216 220.30088 77.802608 221.602271 
C 79.103999 222.903662 80.869311 223.634878 82.709756 223.634878 
z
" clip-path="url(#p15330a0b65)" style="fill: #2c3e50"/>
   </g>
   <g id="patch_45">
    <path d="M 58.326829 213.131463 
C 59.868824 213.131463 61.347869 212.518823 62.438224 211.428468 
C 63.528579 210.338113 64.14122 208.859067 64.14122 207.317073 
C 64.14122 205.775079 63.528579 204.296033 62.438224 203.205678 
C 61.347869 202.115324 59.868824 201.502683 58.326829 201.502683 
C 56.784835 201.502683 55.305789 202.115324 54.215434 203.205678 
C 53.12508 204.296033 52.512439 205.775079 52.512439 207.317073 
C 52.512439 208.859067 53.12508 210.338113 54.215434 211.428468 
C 55.305789 212.518823 56.784835 213.131463 58.326829 213.131463 
z
" clip-path="url(#p15330a0b65)" style="fill: #2c3e50"/>
   </g>
   <g id="patch_46">
    <path d="M 80.218529 223.172313 
L 56.239585 212.743909 
L 60.414074 201.890238 
L 85.200983 210.217931 
z
" clip-path="url(#p15330a0b65)" style="fill: #2c3e50"/>
   </g>
   <g id="patch_47">
    <path d="M 180.241463 283.046693 
C 181.423327 283.046693 182.556944 282.577133 183.392649 281.741429 
C 184.228353 280.905725 184.697912 279.772108 184.697912 278.590244 
C 184.697912 277.40838 184.228353 276.274763 183.392649 275.439059 
C 182.556944 274.603355 181.423327 274.133795 180.241463 274.133795 
C 179.059599 274.133795 177.925982 274.603355 177.090278 275.439059 
C 176.254574 276.274763 175.785015 277.40838 175.785015 278.590244 
C 175.785015 279.772108 176.254574 280.905725 177.090278 281.741429 
C 177.925982 282.577133 179.059599 283.046693 180.241463 283.046693 
z
" clip-path="url(#p15330a0b65)" style="fill: #1b1b1b; stroke: #121212; stroke-width: 1.3; stroke-linejoin: miter"/>
   </g>
   <g id="patch_48">
    <path d="M 58.326829 213.506585 
C 59.968307 213.506585 61.542775 212.854419 62.703475 211.693719 
C 63.864175 210.533019 64.516341 208.958551 64.516341 207.317073 
C 64.516341 205.675595 63.864175 204.101127 62.703475 202.940427 
C 61.542775 201.779727 59.968307 201.127561 58.326829 201.127561 
C 56.685351 201.127561 55.110883 201.779727 53.950183 202.940427 
C 52.789483 204.101127 52.137317 205.675595 52.137317 207.317073 
C 52.137317 208.958551 52.789483 210.533019 53.950183 211.693719 
C 55.110883 212.854419 56.685351 213.506585 58.326829 213.506585 
z
" clip-path="url(#p15330a0b65)" style="fill: #f2e0c9; stroke: #a49888; stroke-width: 1.6; stroke-linejoin: miter"/>
   </g>
   <g id="line2d_11">
    <path d="M 116.815551 248.056293 
L 152.872575 264.160524 
L 155.724077 265.594633 
L 157.913118 267.917526 
L 159.175668 270.849027 
L 159.359444 274.035555 
L 158.442281 277.092767 
L 156.534801 279.651918 
L 153.867075 281.404337 
L 150.76087 282.138656 
L 147.59084 281.766305 
L 108.623473 275.363219 
L 104.200735 273.138887 
L 100.805487 269.536033 
L 98.847247 264.989214 
L 98.562206 260.046844 
L 99.984745 255.305046 
L 102.943286 251.335751 
L 107.080983 248.617713 
L 111.89877 247.47877 
L 116.815551 248.056293 
L 116.815551 248.056293 
" clip-path="url(#p15330a0b65)" style="fill: none; stroke: #282a2c; stroke-width: 1.7; stroke-linecap: round"/>
   </g>
   <g id="line2d_12">
    <path d="M 151.925409 263.93034 
L 181.38212 272.506745 
L 183.394009 273.263752 
L 185.025655 274.663213 
L 186.080256 276.536331 
L 186.430614 278.657182 
L 186.034468 280.769959 
L 184.9396 282.619831 
L 183.278068 283.983674 
L 181.250277 284.696991 
L 179.100807 284.673743 
L 148.538006 281.996489 
L 145.550655 280.872448 
L 143.127908 278.794461 
L 141.561984 276.013164 
L 141.041757 272.864021 
L 141.629973 269.726867 
L 143.255686 266.980089 
L 145.722809 264.954987 
L 148.733773 263.895821 
L 151.925409 263.93034 
L 151.925409 263.93034 
" clip-path="url(#p15330a0b65)" style="fill: none; stroke: #282a2c; stroke-width: 1.7; stroke-linecap: round"/>
   </g>
   <g id="line2d_13">
    <path d="M 180.894021 273.369785 
L 195.668584 277.08791 
L 196.798445 277.43604 
L 197.741099 278.149611 
L 198.382848 279.142555 
L 198.646288 280.295108 
L 198.499645 281.468256 
L 197.960605 282.520499 
L 197.094185 283.324921 
L 196.004888 283.784498 
L 194.824098 283.843797 
L 179.588906 283.810703 
L 177.842758 283.272683 
L 176.385929 282.169891 
L 175.394135 280.635342 
L 174.987 278.854124 
L 175.213631 277.041077 
L 176.046692 275.414883 
L 177.385705 274.171685 
L 179.069165 273.46143 
L 180.894021 273.369785 
L 180.894021 273.369785 
" clip-path="url(#p15330a0b65)" style="fill: none; stroke: #121212; stroke-width: 1.5; stroke-linecap: round"/>
   </g>
   <g id="line2d_14">
    <path d="M 106.221526 206.445916 
L 87.616905 221.602271 
L 85.642624 222.984677 
L 83.314596 223.60847 
L 80.913615 223.398412 
L 78.729276 222.379837 
L 77.025041 220.675603 
L 76.006466 218.491263 
L 75.796408 216.090282 
L 76.420201 213.762254 
L 77.802608 211.787973 
L 92.958962 193.183352 
L 95.626909 191.315236 
L 98.772893 190.472272 
L 102.017462 190.756135 
L 104.969272 192.132586 
L 107.272292 194.435606 
L 108.648743 197.387417 
L 108.932606 200.631985 
L 108.089643 203.777969 
L 106.221526 206.445916 
L 106.221526 206.445916 
" clip-path="url(#p15330a0b65)" style="fill: none; stroke: #1d2a36; stroke-width: 1.7; stroke-linecap: round"/>
   </g>
   <g id="line2d_15">
    <path d="M 80.218529 223.172313 
L 56.239585 212.743909 
L 54.509374 211.702751 
L 53.239605 210.132616 
L 52.58343 208.222884 
L 52.619993 206.203899 
L 53.344886 204.319179 
L 54.670674 202.796049 
L 56.437449 201.818221 
L 58.43211 201.503636 
L 60.414074 201.890238 
L 85.200983 210.217931 
L 87.266074 211.460603 
L 88.781605 213.334636 
L 89.564782 215.613993 
L 89.521141 218.023749 
L 88.655947 220.273254 
L 87.073554 222.091183 
L 84.964823 223.258268 
L 82.584098 223.63374 
L 80.218529 223.172313 
L 80.218529 223.172313 
" clip-path="url(#p15330a0b65)" style="fill: none; stroke: #1d2a36; stroke-width: 1.7; stroke-linecap: round"/>
   </g>
   <g id="patch_49">
    <path d="M 97.714634 194.187805 
C 101.693974 194.187805 105.510867 192.606796 108.324685 189.792978 
C 111.138504 186.979159 112.719512 183.162267 112.719512 179.182927 
C 112.719512 175.203587 111.138504 171.386694 108.324685 168.572876 
C 105.510867 165.759057 101.693974 164.178049 97.714634 164.178049 
C 93.735294 164.178049 89.918402 165.759057 87.104583 168.572876 
C 84.290765 171.386694 82.709756 175.203587 82.709756 179.182927 
C 82.709756 183.162267 84.290765 186.979159 87.104583 189.792978 
C 89.918402 192.606796 93.735294 194.187805 97.714634 194.187805 
z
" clip-path="url(#p15330a0b65)" style="fill: #f2e0c9; stroke: #a49888; stroke-width: 1.8; stroke-linejoin: miter"/>
   </g>
   <g id="line2d_16">
    <path d="M 59.549811 204.993407 
L 63.301514 212.902669 
L 71.945145 211.517267 
L 75.696848 219.426529 
L 84.340479 218.041127 
L 88.092182 225.950389 
L 96.735813 224.564987 
L 100.487516 232.474249 
L 109.131147 231.088848 
L 112.88285 238.998109 
L 121.526481 237.612708 
L 125.278185 245.521969 
L 133.921815 244.136568 
L 137.673519 252.045829 
L 146.31715 250.660428 
L 150.068853 258.569689 
L 158.712484 257.184288 
L 162.464187 265.093549 
L 171.107818 263.708148 
L 174.859521 271.617409 
L 183.503152 270.232008 
L 187.254855 278.141269 
L 195.898486 276.755868 
L 199.650189 284.665129 
" clip-path="url(#p15330a0b65)" style="fill: none; stroke: #c0392b; stroke-width: 3.2; stroke-linecap: round"/>
   </g>
   <g id="line2d_17">
    <path d="M 174.908576 239.598809 
L 171.792696 244.35135 
L 177.355024 243.186932 
L 174.239144 247.939473 
L 179.801471 246.775055 
L 176.685591 251.527596 
L 182.247919 250.363178 
L 179.132039 255.115719 
L 184.694367 253.951301 
L 181.578486 258.703842 
L 187.140814 257.539424 
L 184.024934 262.291965 
L 189.587262 261.127547 
L 186.471381 265.880088 
L 192.033709 264.71567 
L 188.917829 269.468211 
L 194.480157 268.303793 
L 191.364276 273.056334 
L 196.926604 271.891916 
L 193.810724 276.644457 
L 199.373052 275.480039 
L 196.257171 280.23258 
L 201.819499 279.068162 
L 198.703619 283.820703 
" clip-path="url(#p15330a0b65)" style="fill: none; stroke: #c0392b; stroke-width: 3.2; stroke-linecap: round"/>
   </g>
   <g id="patch_50">
    <path d="M 196.371707 286.842927 
L 205.374634 286.842927 
L 205.374634 277.84 
L 196.371707 277.84 
z
" clip-path="url(#p15330a0b65)" style="fill: #7a7a7a; stroke: #7a7a7a; stroke-linejoin: miter"/>
   </g>
   <g id="patch_51">
    <path d="M 171.375685 239.614108 
Q 125.371719 190.849109 62.651568 206.242441 
" clip-path="url(#p15330a0b65)" style="fill: none; stroke-dasharray: 2.2,0; stroke-dashoffset: 0; stroke: #c0392b; stroke-width: 2.2; stroke-linecap: round"/>
    <path d="M 68.75756 207.626951 
L 62.651568 206.242441 
L 67.422771 202.188354 
z
" clip-path="url(#p15330a0b65)" style="fill: #c0392b; stroke-dasharray: 2.2,0; stroke-dashoffset: 0; stroke: #c0392b; stroke-width: 2.2; stroke-linecap: round"/>
   </g>
  </g>
 </g>
 <defs>
  <clipPath id="p15330a0b65">
   <rect x="5.809756" y="1" width="247.580488" height="307.6"/>
  </clipPath>
 </defs>
</svg>
