<?xml version="1.0" encoding="utf-8" standalone="no"?>
<!DOCTYPE svg PUBLIC "-//W3C//DTD SVG 1.1//EN"
  "http://www.w3.org/Graphics/SVG/1.1/DTD/svg11.dtd">
<svg xmlns:xlink="http://www.w3.org/1999/xlink" width="259.2pt" height="309.6pt" viewBox="0 0 259.2 309.6" xmlns="http://www.w3.org/2000/svg" version="1.1">
 <metadata>
  <rdf:RDF xmlns:dc="http://purl.org/dc/elements/1.1/" xmlns:cc="http://creativecommons.org/ns#" xmlns:rdf="http://www.w3.org/1999/02/22-rdf-syntax-ns#">
   <cc:Work>
    <dc:type rdf:resource="http://purl.org/dc/dcmitype/StillImage"/>
    <dc:date>2026-07-10T23:04:55.705025</dc:date>
    <dc:format>image/svg+xml</dc:format>
    <dc:creator>
     <cc:Agent>
      <dc:title>Matplotlib v3.10.8, https://matplotlib.org/</dc:title>
     </cc:Agent>
    </dc:creator>
   </cc:Work>
  </rdf:RDF>
 </metadata>
 <defs>
  <style type="text/css">*{stroke-linejoin: round; stroke-linecap: butt}</style>
 </defs>
 <g id="figure_1">
  <g id="patch_1">
   <path d="M 0 309.6 
L 259.2 309.6 
L 259.2 0 
L 0 0 
L 0 309.6 
z
" style="fill: none"/>
  </g>
  <g id="axes_1">
   <g id="line2d_1">
    <path d="M 17.063415 271.087805 
L 242.136585 271.087805 
" clip-path="url(#p6a0451b85b)" style="fill: none; stroke: #c3c3c3; stroke-width: 3; stroke-linecap: round"/>
   </g>
   <g id="patch_2">
    <path d="M 73.331707 212.193659 
C 75.619828 212.193659 77.814541 211.284579 79.432487 209.666633 
C 81.050432 208.048687 81.959512 205.853974 81.959512 203.565854 
C 81.959512 201.277733 81.050432 199.08302 79.432487 197.465074 
C 77.814541 195.847129 75.619828 194.938049 73.331707 194.938049 
C 71.043587 194.938049 68.848874 195.847129 67.230928 197.465074 
C 65.612982 199.08302 64.703902 201.277733 64.703902 203.565854 
C 64.703902 205.853974 65.612982 208.048687 67.230928 209.666633 
C 68.848874 211.284579 71.043587 212.193659 73.331707 212.193659 
z
" clip-path="url(#p6a0451b85b)" style="fill: #2c3e50; fill-opacity: 0.95"/>
   </g>
   <g id="patch_3">
    <path d="M 114.595122 183.691893 
C 116.288331 183.691893 117.912419 183.019174 119.109699 181.821894 
C 120.306978 180.624614 120.979698 179.000526 120.979698 177.307317 
C 120.979698 175.614108 120.306978 173.99002 119.109699 172.79274 
C 117.912419 171.595461 116.288331 170.922741 114.595122 170.922741 
C 112.901913 170.922741 111.277825 171.595461 110.080545 172.79274 
C 108.883266 173.99002 108.210546 175.614108 108.210546 177.307317 
C 108.210546 179.000526 108.883266 180.624614 110.080545 181.821894 
C 111.277825 183.019174 112.901913 183.691893 114.595122 183.691893 
z
" clip-path="url(#p6a0451b85b)" style="fill: #2c3e50; fill-opacity: 0.95"/>
   </g>
   <g id="patch_4">
    <path d="M 68.69965 196.286907 
L 111.1674 171.920897 
L 118.022844 182.693738 
L 77.963764 210.8448 
z
" clip-path="url(#p6a0451b85b)" style="fill: #2c3e50; fill-opacity: 0.95"/>
   </g>
   <g id="patch_5">
    <path d="M 114.595122 183.691893 
C 116.288331 183.691893 117.912419 183.019174 119.109699 181.821894 
C 120.306978 180.624614 120.979698 179.000526 120.979698 177.307317 
C 120.979698 175.614108 120.306978 173.99002 119.109699 172.79274 
C 117.912419 171.595461 116.288331 170.922741 114.595122 170.922741 
C 112.901913 170.922741 111.277825 171.595461 110.080545 172.79274 
C 108.883266 173.99002 108.210546 175.614108 108.210546 177.307317 
C 108.210546 179.000526 108.883266 180.624614 110.080545 181.821894 
C 111.277825 183.019174 112.901913 183.691893 114.595122 183.691893 
z
" clip-path="url(#p6a0451b85b)" style="fill: #2c3e50; fill-opacity: 0.95"/>
   </g>
   <g id="patch_6">
    <path d="M 125.84878 148.89558 
C 127.267415 148.89558 128.628137 148.331951 129.631264 147.328825 
C 130.63439 146.325698 131.19802 144.964976 131.19802 143.546341 
C 131.19802 142.127707 130.63439 140.766985 129.631264 139.763858 
C 128.628137 138.760732 127.267415 138.197102 125.84878 138.197102 
C 124.430146 138.197102 123.069424 138.760732 122.066297 139.763858 
C 121.063171 140.766985 120.499541 142.127707 120.499541 143.546341 
C 120.499541 144.964976 121.063171 146.325698 122.066297 147.328825 
C 123.069424 148.331951 124.430146 148.89558 125.84878 148.89558 
z
" clip-path="url(#p6a0451b85b)" style="fill: #2c3e50; fill-opacity: 0.95"/>
   </g>
   <g id="patch_7">
    <path d="M 108.538182 175.288337 
L 120.774047 141.854764 
L 130.923514 145.237919 
L 120.652062 179.326297 
z
" clip-path="url(#p6a0451b85b)" style="fill: #2c3e50; fill-opacity: 0.95"/>
   </g>
   <g id="patch_8">
    <path d="M 125.84878 149.426378 
C 127.408184 149.426378 128.903929 148.80682 130.006594 147.704155 
C 131.109259 146.60149 131.728817 145.105745 131.728817 143.546341 
C 131.728817 141.986938 131.109259 140.491193 130.006594 139.388528 
C 128.903929 138.285863 127.408184 137.666305 125.84878 137.666305 
C 124.289377 137.666305 122.793632 138.285863 121.690967 139.388528 
C 120.588302 140.491193 119.968744 141.986938 119.968744 143.546341 
C 119.968744 145.105745 120.588302 146.60149 121.690967 147.704155 
C 122.793632 148.80682 124.289377 149.426378 125.84878 149.426378 
z
" clip-path="url(#p6a0451b85b)" style="fill: #f2e0c9; fill-opacity: 0.95; stroke: #a49888; stroke-width: 1.3; stroke-linejoin: miter"/>
   </g>
   <g id="line2d_2">
    <path d="M 68.69965 196.286907 
L 111.1674 171.920897 
L 113.216381 171.073387 
L 115.431659 170.977782 
L 117.546038 171.645612 
L 119.304493 172.996328 
L 120.494928 174.867012 
L 120.97376 177.032033 
L 120.683234 179.230257 
L 119.658392 181.196547 
L 118.022844 182.693738 
L 77.963764 210.8448 
L 75.194871 211.990083 
L 72.201252 212.119279 
L 69.343983 211.216806 
L 66.967692 209.391515 
L 65.358996 206.863563 
L 64.711926 203.937859 
L 65.104529 200.967286 
L 66.489451 198.310138 
L 68.69965 196.286907 
L 68.69965 196.286907 
" clip-path="url(#p6a0451b85b)" style="fill: none; stroke: #1d2a36; stroke-width: 1.7; stroke-linecap: round"/>
   </g>
   <g id="line2d_3">
    <path d="M 108.538182 175.288337 
L 120.774047 141.854764 
L 121.658644 140.221117 
L 123.048634 138.988542 
L 124.776363 138.305704 
L 126.633441 138.254965 
L 128.395878 138.842444 
L 129.851097 139.997282 
L 130.823577 141.580189 
L 131.196024 143.400244 
L 130.923514 145.237919 
L 120.652062 179.326297 
L 119.596252 181.276133 
L 117.937232 182.747272 
L 115.875104 183.562271 
L 113.658591 183.622831 
L 111.555038 182.921647 
L 109.818164 181.543291 
L 108.657461 179.654015 
L 108.212928 177.481692 
L 108.538182 175.288337 
L 108.538182 175.288337 
" clip-path="url(#p6a0451b85b)" style="fill: none; stroke: #1d2a36; stroke-width: 1.7; stroke-linecap: round"/>
   </g>
   <g id="patch_9">
    <path d="M 54.57561 205.441463 
C 56.56528 205.441463 58.473726 204.650959 59.880635 203.24405 
C 61.287544 201.837141 62.078049 199.928694 62.078049 197.939024 
C 62.078049 195.949354 61.287544 194.040908 59.880635 192.633999 
C 58.473726 191.22709 56.56528 190.436585 54.57561 190.436585 
C 52.58594 190.436585 50.677493 191.22709 49.270584 192.633999 
C 47.863675 194.040908 47.073171 195.949354 47.073171 197.939024 
C 47.073171 199.928694 47.863675 201.837141 49.270584 203.24405 
C 50.677493 204.650959 52.58594 205.441463 54.57561 205.441463 
z
" clip-path="url(#p6a0451b85b)" style="fill: #2c3e50"/>
   </g>
   <g id="patch_10">
    <path d="M 73.331707 215.194634 
C 76.415696 215.194634 79.373788 213.969352 81.554497 211.788643 
C 83.735206 209.607934 84.960488 206.649842 84.960488 203.565854 
C 84.960488 200.481865 83.735206 197.523773 81.554497 195.343064 
C 79.373788 193.162355 76.415696 191.937073 73.331707 191.937073 
C 70.247719 191.937073 67.289627 193.162355 65.108918 195.343064 
C 62.928209 197.523773 61.702927 200.481865 61.702927 203.565854 
C 61.702927 206.649842 62.928209 209.607934 65.108918 211.788643 
C 67.289627 213.969352 70.247719 215.194634 73.331707 215.194634 
z
" clip-path="url(#p6a0451b85b)" style="fill: #2c3e50"/>
   </g>
   <g id="patch_11">
    <path d="M 56.73142 190.752991 
L 76.673213 192.427502 
L 69.990202 214.704205 
L 52.4198 205.125058 
z
" clip-path="url(#p6a0451b85b)" style="fill: #2c3e50"/>
   </g>
   <g id="patch_12">
    <path d="M 73.331707 226.823415 
C 79.499685 226.823415 85.415868 224.372851 89.777286 220.011433 
C 94.138705 215.650014 96.589268 209.733831 96.589268 203.565854 
C 96.589268 197.397876 94.138705 191.481693 89.777286 187.120275 
C 85.415868 182.758856 79.499685 180.308293 73.331707 180.308293 
C 67.16373 180.308293 61.247547 182.758856 56.886128 187.120275 
C 52.52471 191.481693 50.074146 197.397876 50.074146 203.565854 
C 50.074146 209.733831 52.52471 215.650014 56.886128 220.011433 
C 61.247547 224.372851 67.16373 226.823415 73.331707 226.823415 
z
" clip-path="url(#p6a0451b85b)" style="fill: #2c3e50"/>
   </g>
   <g id="patch_13">
    <path d="M 163.360976 238.827317 
C 167.937217 238.827317 172.326643 237.009157 175.562534 233.773266 
C 178.798425 230.537375 180.616585 226.147949 180.616585 221.571707 
C 180.616585 216.995466 178.798425 212.60604 175.562534 209.370149 
C 172.326643 206.134257 167.937217 204.316098 163.360976 204.316098 
C 158.784734 204.316098 154.395308 206.134257 151.159417 209.370149 
C 147.923526 212.60604 146.105366 216.995466 146.105366 221.571707 
C 146.105366 226.147949 147.923526 230.537375 151.159417 233.773266 
C 154.395308 237.009157 158.784734 238.827317 163.360976 238.827317 
z
" clip-path="url(#p6a0451b85b)" style="fill: #2c3e50"/>
   </g>
   <g id="patch_14">
    <path d="M 77.89289 180.759939 
L 166.745079 204.65119 
L 159.976872 238.492225 
L 68.770524 226.371769 
z
" clip-path="url(#p6a0451b85b)" style="fill: #2c3e50"/>
   </g>
   <g id="patch_15">
    <path d="M 163.360976 235.826341 
C 167.141349 235.826341 170.767397 234.324383 173.440524 231.651256 
C 176.113652 228.978128 177.61561 225.35208 177.61561 221.571707 
C 177.61561 217.791334 176.113652 214.165286 173.440524 211.492159 
C 170.767397 208.819031 167.141349 207.317073 163.360976 207.317073 
C 159.580602 207.317073 155.954555 208.819031 153.281427 211.492159 
C 150.6083 214.165286 149.106341 217.791334 149.106341 221.571707 
C 149.106341 225.35208 150.6083 228.978128 153.281427 231.651256 
C 155.954555 234.324383 159.580602 235.826341 163.360976 235.826341 
z
" clip-path="url(#p6a0451b85b)" style="fill: #3c3f42"/>
   </g>
   <g id="patch_16">
    <path d="M 195.246341 237.139268 
C 197.683687 237.139268 200.021534 236.170901 201.744998 234.447437 
C 203.468461 232.723973 204.436829 230.386126 204.436829 227.94878 
C 204.436829 225.511435 203.468461 223.173588 201.744998 221.450124 
C 200.021534 219.72666 197.683687 218.758293 195.246341 218.758293 
C 192.808996 218.758293 190.471149 219.72666 188.747685 221.450124 
C 187.024221 223.173588 186.055854 225.511435 186.055854 227.94878 
C 186.055854 230.386126 187.024221 232.723973 188.747685 234.447437 
C 190.471149 236.170901 192.808996 237.139268 195.246341 237.139268 
z
" clip-path="url(#p6a0451b85b)" style="fill: #3c3f42"/>
   </g>
   <g id="patch_17">
    <path d="M 166.156539 207.593889 
L 197.048744 218.936766 
L 193.443939 236.960795 
L 160.565412 235.549526 
z
" clip-path="url(#p6a0451b85b)" style="fill: #3c3f42"/>
   </g>
   <g id="patch_18">
    <path d="M 195.246341 237.139268 
C 197.683687 237.139268 200.021534 236.170901 201.744998 234.447437 
C 203.468461 232.723973 204.436829 230.386126 204.436829 227.94878 
C 204.436829 225.511435 203.468461 223.173588 201.744998 221.450124 
C 200.021534 219.72666 197.683687 218.758293 195.246341 218.758293 
C 192.808996 218.758293 190.471149 219.72666 188.747685 221.450124 
C 187.024221 223.173588 186.055854 225.511435 186.055854 227.94878 
C 186.055854 230.386126 187.024221 232.723973 188.747685 234.447437 
C 190.471149 236.170901 192.808996 237.139268 195.246341 237.139268 
z
" clip-path="url(#p6a0451b85b)" style="fill: #3c3f42"/>
   </g>
   <g id="patch_19">
    <path d="M 223.380488 239.765122 
C 225.021966 239.765122 226.596434 239.112956 227.757134 237.952256 
C 228.917834 236.791556 229.57 235.217088 229.57 233.57561 
C 229.57 231.934132 228.917834 230.359664 227.757134 229.198964 
C 226.596434 228.038264 225.021966 227.386098 223.380488 227.386098 
C 221.73901 227.386098 220.164542 228.038264 219.003842 229.198964 
C 217.843142 230.359664 217.190976 231.934132 217.190976 233.57561 
C 217.190976 235.217088 217.843142 236.791556 219.003842 237.952256 
C 220.164542 239.112956 221.73901 239.765122 223.380488 239.765122 
z
" clip-path="url(#p6a0451b85b)" style="fill: #3c3f42"/>
   </g>
   <g id="patch_20">
    <path d="M 197.048744 218.936766 
L 224.594351 227.506294 
L 222.166625 239.644926 
L 193.443939 236.960795 
z
" clip-path="url(#p6a0451b85b)" style="fill: #3c3f42"/>
   </g>
   <g id="patch_21">
    <path d="M 223.380488 238.836695 
C 224.775744 238.836695 226.114042 238.282354 227.100637 237.295759 
C 228.087232 236.309164 228.641573 234.970866 228.641573 233.57561 
C 228.641573 232.180354 228.087232 230.842056 227.100637 229.855461 
C 226.114042 228.868866 224.775744 228.314524 223.380488 228.314524 
C 221.985232 228.314524 220.646934 228.868866 219.660339 229.855461 
C 218.673744 230.842056 218.119402 232.180354 218.119402 233.57561 
C 218.119402 234.970866 218.673744 236.309164 219.660339 237.295759 
C 220.646934 238.282354 221.985232 238.836695 223.380488 238.836695 
z
" clip-path="url(#p6a0451b85b)" style="fill: #1b1b1b"/>
   </g>
   <g id="patch_22">
    <path d="M 234.634146 239.230573 
C 235.536959 239.230573 236.402917 238.871882 237.041302 238.233497 
C 237.679687 237.595112 238.038378 236.729154 238.038378 235.826341 
C 238.038378 234.923529 237.679687 234.057571 237.041302 233.419186 
C 236.402917 232.780801 235.536959 232.42211 234.634146 232.42211 
C 233.731334 232.42211 232.865376 232.780801 232.226991 233.419186 
C 231.588606 234.057571 231.229915 234.923529 231.229915 235.826341 
C 231.229915 236.729154 231.588606 237.595112 232.226991 238.233497 
C 232.865376 238.871882 233.731334 239.230573 234.634146 239.230573 
z
" clip-path="url(#p6a0451b85b)" style="fill: #1b1b1b"/>
   </g>
   <g id="patch_23">
    <path d="M 224.412272 228.416691 
L 235.301771 232.488218 
L 233.966522 239.164465 
L 222.348704 238.734528 
z
" clip-path="url(#p6a0451b85b)" style="fill: #1b1b1b"/>
   </g>
   <g id="line2d_4">
    <path d="M 56.73142 190.752991 
L 76.673213 192.427502 
L 80.281236 194.242089 
L 83.051043 197.18126 
L 84.648556 200.890506 
L 84.881089 204.92244 
L 83.720596 208.790749 
L 81.30705 212.028858 
L 77.93156 214.246204 
L 74.00126 215.175343 
L 69.990202 214.704205 
L 52.4198 205.125058 
L 50.092043 203.954356 
L 48.30507 202.058117 
L 47.274417 199.665055 
L 47.124396 197.063808 
L 47.873101 194.568124 
L 49.430227 192.479022 
L 51.607963 191.048476 
L 54.14364 190.449031 
L 56.73142 190.752991 
L 56.73142 190.752991 
" clip-path="url(#p6a0451b85b)" style="fill: none; stroke: #1d2a36; stroke-width: 1.7; stroke-linecap: round"/>
   </g>
   <g id="line2d_5">
    <path d="M 77.89289 180.759939 
L 166.745079 204.65119 
L 172.328151 206.829053 
L 176.829648 210.785099 
L 179.706625 216.042168 
L 180.612076 221.966182 
L 179.436789 227.842616 
L 176.322522 232.962686 
L 171.644901 236.708835 
L 165.968116 238.629224 
L 159.976872 238.492225 
L 68.770524 226.371769 
L 61.245515 223.436387 
L 55.178279 218.104326 
L 51.300614 211.018711 
L 50.080224 203.034171 
L 51.664307 195.11376 
L 55.861797 188.212796 
L 62.166417 183.163637 
L 69.817735 180.575287 
L 77.89289 180.759939 
L 77.89289 180.759939 
" clip-path="url(#p6a0451b85b)" style="fill: none; stroke: #1d2a36; stroke-width: 1.7; stroke-linecap: round"/>
   </g>
   <g id="patch_24">
    <path d="M 73.331707 212.943902 
C 75.818795 212.943902 78.204353 211.955772 79.962989 210.197136 
C 81.721626 208.438499 82.709756 206.052941 82.709756 203.565854 
C 82.709756 201.078766 81.721626 198.693208 79.962989 196.934572 
C 78.204353 195.175935 75.818795 194.187805 73.331707 194.187805 
C 70.84462 194.187805 68.459062 195.175935 66.700425 196.934572 
C 64.941789 198.693208 63.953659 201.078766 63.953659 203.565854 
C 63.953659 206.052941 64.941789 208.438499 66.700425 210.197136 
C 68.459062 211.955772 70.84462 212.943902 73.331707 212.943902 
z
" clip-path="url(#p6a0451b85b)" style="fill: #2c3e50"/>
   </g>
   <g id="patch_25">
    <path d="M 73.331707 255.520244 
C 75.172152 255.520244 76.937465 254.789027 78.238856 253.487636 
C 79.540247 252.186245 80.271463 250.420933 80.271463 248.580488 
C 80.271463 246.740043 79.540247 244.97473 78.238856 243.673339 
C 76.937465 242.371948 75.172152 241.640732 73.331707 241.640732 
C 71.491262 241.640732 69.72595 242.371948 68.424559 243.673339 
C 67.123168 244.97473 66.391951 246.740043 66.391951 248.580488 
C 66.391951 250.420933 67.123168 252.186245 68.424559 253.487636 
C 69.72595 254.789027 71.491262 255.520244 73.331707 255.520244 
z
" clip-path="url(#p6a0451b85b)" style="fill: #2c3e50"/>
   </g>
   <g id="patch_26">
    <path d="M 82.709756 203.565854 
L 80.271463 248.580488 
L 66.391951 248.580488 
L 63.953659 203.565854 
z
" clip-path="url(#p6a0451b85b)" style="fill: #2c3e50"/>
   </g>
   <g id="patch_27">
    <path d="M 73.331707 255.520244 
C 75.172152 255.520244 76.937465 254.789027 78.238856 253.487636 
C 79.540247 252.186245 80.271463 250.420933 80.271463 248.580488 
C 80.271463 246.740043 79.540247 244.97473 78.238856 243.673339 
C 76.937465 242.371948 75.172152 241.640732 73.331707 241.640732 
C 71.491262 241.640732 69.72595 242.371948 68.424559 243.673339 
C 67.123168 244.97473 66.391951 246.740043 66.391951 248.580488 
C 66.391951 250.420933 67.123168 252.186245 68.424559 253.487636 
C 69.72595 254.789027 71.491262 255.520244 73.331707 255.520244 
z
" clip-path="url(#p6a0451b85b)" style="fill: #2c3e50"/>
   </g>
   <g id="patch_28">
    <path d="M 75.207317 290.031463 
C 76.749311 290.031463 78.228357 289.418823 79.318712 288.328468 
C 80.409066 287.238113 81.021707 285.759067 81.021707 284.217073 
C 81.021707 282.675079 80.409066 281.196033 79.318712 280.105678 
C 78.228357 279.015324 76.749311 278.402683 75.207317 278.402683 
C 73.665323 278.402683 72.186277 279.015324 71.095922 280.105678 
C 70.005568 281.196033 69.392927 282.675079 69.392927 284.217073 
C 69.392927 285.759067 70.005568 287.238113 71.095922 288.328468 
C 72.186277 289.418823 73.665323 290.031463 75.207317 290.031463 
z
" clip-path="url(#p6a0451b85b)" style="fill: #2c3e50"/>
   </g>
   <g id="patch_29">
    <path d="M 80.261871 248.215742 
L 81.013671 283.911476 
L 69.400963 284.522671 
L 66.401543 248.945233 
z
" clip-path="url(#p6a0451b85b)" style="fill: #2c3e50"/>
   </g>
   <g id="patch_30">
    <path d="M 223.380488 238.032059 
C 224.562352 238.032059 225.695969 237.562499 226.531673 236.726795 
C 227.367377 235.891091 227.836937 234.757474 227.836937 233.57561 
C 227.836937 232.393746 227.367377 231.260129 226.531673 230.424425 
C 225.695969 229.588721 224.562352 229.119161 223.380488 229.119161 
C 222.198624 229.119161 221.065007 229.588721 220.229303 230.424425 
C 219.393599 231.260129 218.924039 232.393746 218.924039 233.57561 
C 218.924039 234.757474 219.393599 235.891091 220.229303 236.726795 
C 221.065007 237.562499 222.198624 238.032059 223.380488 238.032059 
z
" clip-path="url(#p6a0451b85b)" style="fill: #1b1b1b; stroke: #121212; stroke-width: 1.3; stroke-linejoin: miter"/>
   </g>
   <g id="patch_31">
    <path d="M 75.207317 290.406585 
C 76.848795 290.406585 78.423263 289.754419 79.583963 288.593719 
C 80.744663 287.433019 81.396829 285.858551 81.396829 284.217073 
C 81.396829 282.575595 80.744663 281.001127 79.583963 279.840427 
C 78.423263 278.679727 76.848795 278.027561 75.207317 278.027561 
C 73.565839 278.027561 71.991371 278.679727 70.830671 279.840427 
C 69.669971 281.001127 69.017805 282.575595 69.017805 284.217073 
C 69.017805 285.858551 69.669971 287.433019 70.830671 288.593719 
C 71.991371 289.754419 73.565839 290.406585 75.207317 290.406585 
z
" clip-path="url(#p6a0451b85b)" style="fill: #f2e0c9; stroke: #a49888; stroke-width: 1.6; stroke-linejoin: miter"/>
   </g>
   <g id="line2d_6">
    <path d="M 166.156539 207.593889 
L 197.048744 218.936766 
L 200.022337 220.096715 
L 202.419874 222.203739 
L 203.952177 225.0037 
L 204.434427 228.158881 
L 203.808459 231.288721 
L 202.149774 234.015715 
L 199.658432 236.010947 
L 196.634927 237.033762 
L 193.443939 236.960795 
L 160.565412 235.549526 
L 155.953309 233.750421 
L 152.234681 230.482384 
L 149.858048 226.139587 
L 149.110067 221.245837 
L 150.080956 216.391392 
L 152.653611 212.161769 
L 156.517733 209.067123 
L 161.207251 207.480715 
L 166.156539 207.593889 
L 166.156539 207.593889 
" clip-path="url(#p6a0451b85b)" style="fill: none; stroke: #282a2c; stroke-width: 1.7; stroke-linecap: round"/>
   </g>
   <g id="line2d_7">
    <path d="M 197.048744 218.936766 
L 224.594351 227.506294 
L 226.596974 228.287484 
L 228.211642 229.7065 
L 229.243601 231.592188 
L 229.568382 233.717106 
L 229.146812 235.824957 
L 228.029738 237.661504 
L 226.351896 239.005232 
L 224.315658 239.694067 
L 222.166625 239.644926 
L 193.443939 236.960795 
L 190.470346 235.800846 
L 188.072809 233.693822 
L 186.540506 230.893861 
L 186.058255 227.73868 
L 186.684223 224.60884 
L 188.342909 221.881846 
L 190.834251 219.886614 
L 193.857756 218.863799 
L 197.048744 218.936766 
L 197.048744 218.936766 
" clip-path="url(#p6a0451b85b)" style="fill: none; stroke: #282a2c; stroke-width: 1.7; stroke-linecap: round"/>
   </g>
   <g id="line2d_8">
    <path d="M 224.412272 228.416691 
L 235.301771 232.488218 
L 236.403214 232.917872 
L 237.291281 233.698331 
L 237.858859 234.73546 
L 238.037488 235.904164 
L 237.805625 237.063483 
L 237.191234 238.073583 
L 236.268421 238.812634 
L 235.14849 239.191493 
L 233.966522 239.164465 
L 222.348704 238.734528 
L 220.646474 238.070517 
L 219.274007 236.864353 
L 218.396841 235.261518 
L 218.120777 233.455338 
L 218.479112 231.663664 
L 219.428625 230.1026 
L 220.854791 228.960431 
L 222.585593 228.374921 
L 224.412272 228.416691 
L 224.412272 228.416691 
" clip-path="url(#p6a0451b85b)" style="fill: none; stroke: #121212; stroke-width: 1.5; stroke-linecap: round"/>
   </g>
   <g id="line2d_9">
    <path d="M 82.709756 203.565854 
L 80.271463 248.580488 
L 79.852945 250.954024 
L 78.647869 253.041277 
L 76.801585 254.590493 
L 74.536783 255.414813 
L 72.126631 255.414813 
L 69.861829 254.590493 
L 68.015546 253.041277 
L 66.81047 250.954024 
L 66.391951 248.580488 
L 63.953659 203.565854 
L 64.519224 200.358372 
L 66.147705 197.53776 
L 68.642683 195.444225 
L 71.703226 194.330279 
L 74.960188 194.330279 
L 78.020732 195.444225 
L 80.515709 197.53776 
L 82.144191 200.358372 
L 82.709756 203.565854 
L 82.709756 203.565854 
" clip-path="url(#p6a0451b85b)" style="fill: none; stroke: #1d2a36; stroke-width: 1.7; stroke-linecap: round"/>
   </g>
   <g id="line2d_10">
    <path d="M 80.261871 248.215742 
L 81.013671 283.911476 
L 80.768025 285.915795 
L 79.851676 287.715224 
L 78.375149 289.092724 
L 76.516535 289.882149 
L 74.500009 289.988282 
L 72.568795 289.398322 
L 70.955826 288.183427 
L 69.85565 286.490131 
L 69.400963 284.522671 
L 66.401543 248.945233 
L 66.694733 246.552981 
L 67.78844 244.405275 
L 69.550746 242.761162 
L 71.769093 241.818946 
L 74.175914 241.692271 
L 76.480911 242.396417 
L 78.406067 243.846453 
L 79.719181 245.867483 
L 80.261871 248.215742 
L 80.261871 248.215742 
" clip-path="url(#p6a0451b85b)" style="fill: none; stroke: #1d2a36; stroke-width: 1.7; stroke-linecap: round"/>
   </g>
   <g id="patch_32">
    <path d="M 54.57561 212.943902 
C 58.55495 212.943902 62.371842 211.362894 65.185661 208.549075 
C 67.999479 205.735257 69.580488 201.918365 69.580488 197.939024 
C 69.580488 193.959684 67.999479 190.142792 65.185661 187.328973 
C 62.371842 184.515155 58.55495 182.934146 54.57561 182.934146 
C 50.59627 182.934146 46.779377 184.515155 43.965559 187.328973 
C 41.15174 190.142792 39.570732 193.959684 39.570732 197.939024 
C 39.570732 201.918365 41.15174 205.735257 43.965559 208.549075 
C 46.779377 211.362894 50.59627 212.943902 54.57561 212.943902 
z
" clip-path="url(#p6a0451b85b)" style="fill: #f2e0c9; stroke: #a49888; stroke-width: 1.8; stroke-linejoin: miter"/>
   </g>
  </g>
 </g>
 <defs>
  <clipPath id="p6a0451b85b">
   <rect x="5.809756" y="1" width="247.580488" height="307.6"/>
  </clipPath>
 </defs>
</svg>
