<?xml version="1.0" encoding="utf-8" standalone="no"?>
<!DOCTYPE svg PUBLIC "-//W3C//DTD SVG 1.1//EN"
  "http://www.w3.org/Graphics/SVG/1.1/DTD/svg11.dtd">
<svg xmlns:xlink="http://www.w3.org/1999/xlink" width="259.2pt" height="309.6pt" viewBox="0 0 259.2 309.6" xmlns="http://www.w3.org/2000/svg" version="1.1">
 <metadata>
  <rdf:RDF xmlns:dc="http://purl.org/dc/elements/1.1/" xmlns:cc="http://creativecommons.org/ns#" xmlns:rdf="http://www.w3.org/1999/02/22-rdf-syntax-ns#">
   <cc:Work>
    <dc:type rdf:resource="http://purl.org/dc/dcmitype/StillImage"/>
    <dc:date>2026-07-10T23:04:58.071047</dc:date>
    <dc:format>image/svg+xml</dc:format>
    <dc:creator>
     <cc:Agent>
      <dc:title>Matplotlib v3.10.8, https://matplotlib.org/</dc:title>
     </cc:Agent>
    </dc:creator>
   </cc:Work>
  </rdf:RDF>
 </metadata>
 <defs>
  <style type="text/css">*{stroke-linejoin: round; stroke-linecap: butt}</style>
 </defs>
 <g id="figure_1">
  <g id="patch_1">
   <path d="M 0 309.6 
L 259.2 309.6 
L 259.2 0 
L 0 0 
L 0 309.6 
z
" style="fill: none"/>
  </g>
  <g id="axes_1">
   <g id="line2d_1">
    <path d="M 17.063415 299.221951 
L 242.136585 299.221951 
" clip-path="url(#pbb6371f524)" style="fill: none; stroke: #c3c3c3; stroke-width: 3; stroke-linecap: round"/>
   </g>
   <g id="patch_2">
    <path d="M 54.57561 229.82439 
L 144.604878 229.82439 
L 144.604878 214.819512 
L 54.57561 214.819512 
z
" clip-path="url(#pbb6371f524)" style="fill: #9aa5b1; stroke: #9aa5b1"/>
   </g>
   <g id="patch_3">
    <path d="M 59.077073 250.456098 
L 65.079024 250.456098 
L 65.079024 229.82439 
L 59.077073 229.82439 
z
" clip-path="url(#pbb6371f524)" style="fill: #9aa5b1; stroke: #9aa5b1; stroke-linejoin: miter"/>
   </g>
   <g id="patch_4">
    <path d="M 134.101463 250.456098 
L 140.103415 250.456098 
L 140.103415 229.82439 
L 134.101463 229.82439 
z
" clip-path="url(#pbb6371f524)" style="fill: #9aa5b1; stroke: #9aa5b1; stroke-linejoin: miter"/>
   </g>
   <g id="patch_5">
    <path d="M 107.092683 194.1728 
C 110.570626 194.1728 113.90659 192.790998 116.365868 190.331721 
C 118.825145 187.872444 120.206946 184.53648 120.206946 181.058537 
C 120.206946 177.580593 118.825145 174.244629 116.365868 171.785352 
C 113.90659 169.326075 110.570626 167.944273 107.092683 167.944273 
C 103.61474 167.944273 100.278776 169.326075 97.819498 171.785352 
C 95.360221 174.244629 93.97842 177.580593 93.97842 181.058537 
C 93.97842 184.53648 95.360221 187.872444 97.819498 190.331721 
C 100.278776 192.790998 103.61474 194.1728 107.092683 194.1728 
z
" clip-path="url(#pbb6371f524)" style="fill: #9aa0a6; fill-opacity: 0.285"/>
   </g>
   <g id="patch_6">
    <path d="M 88.336585 257.035737 
C 90.578944 257.035737 92.729762 256.144838 94.315349 254.559252 
C 95.900936 252.973665 96.791834 250.822846 96.791834 248.580488 
C 96.791834 246.33813 95.900936 244.187311 94.315349 242.601724 
C 92.729762 241.016137 90.578944 240.125239 88.336585 240.125239 
C 86.094227 240.125239 83.943408 241.016137 82.357822 242.601724 
C 80.772235 244.187311 79.881337 246.33813 79.881337 248.580488 
C 79.881337 250.822846 80.772235 252.973665 82.357822 254.559252 
C 83.943408 256.144838 86.094227 257.035737 88.336585 257.035737 
z
" clip-path="url(#pbb6371f524)" style="fill: #9aa0a6; fill-opacity: 0.285"/>
   </g>
   <g id="patch_7">
    <path d="M 119.728511 184.568489 
L 96.483369 250.843483 
L 80.189802 246.317492 
L 94.456855 177.548584 
z
" clip-path="url(#pbb6371f524)" style="fill: #9aa0a6; fill-opacity: 0.285"/>
   </g>
   <g id="patch_8">
    <path d="M 88.336585 257.035737 
C 90.578944 257.035737 92.729762 256.144838 94.315349 254.559252 
C 95.900936 252.973665 96.791834 250.822846 96.791834 248.580488 
C 96.791834 246.33813 95.900936 244.187311 94.315349 242.601724 
C 92.729762 241.016137 90.578944 240.125239 88.336585 240.125239 
C 86.094227 240.125239 83.943408 241.016137 82.357822 242.601724 
C 80.772235 244.187311 79.881337 246.33813 79.881337 248.580488 
C 79.881337 250.822846 80.772235 252.973665 82.357822 254.559252 
C 83.943408 256.144838 86.094227 257.035737 88.336585 257.035737 
z
" clip-path="url(#pbb6371f524)" style="fill: #9aa0a6; fill-opacity: 0.285"/>
   </g>
   <g id="patch_9">
    <path d="M 82.709756 289.911424 
C 84.219916 289.911424 85.668426 289.311432 86.73627 288.243588 
C 87.804115 287.175743 88.404107 285.727233 88.404107 284.217073 
C 88.404107 282.706914 87.804115 281.258403 86.73627 280.190559 
C 85.668426 279.122715 84.219916 278.522722 82.709756 278.522722 
C 81.199597 278.522722 79.751086 279.122715 78.683242 280.190559 
C 77.615398 281.258403 77.015405 282.706914 77.015405 284.217073 
C 77.015405 285.727233 77.615398 287.175743 78.683242 288.243588 
C 79.751086 289.311432 81.199597 289.911424 82.709756 289.911424 
z
" clip-path="url(#pbb6371f524)" style="fill: #9aa0a6; fill-opacity: 0.285"/>
   </g>
   <g id="patch_10">
    <path d="M 96.688367 249.89919 
L 88.334425 285.105179 
L 77.085087 283.328968 
L 79.984804 247.261785 
z
" clip-path="url(#pbb6371f524)" style="fill: #9aa0a6; fill-opacity: 0.285"/>
   </g>
   <g id="patch_11">
    <path d="M 82.709756 289.057272 
C 83.993392 289.057272 85.224626 288.547278 86.132293 287.63961 
C 87.039961 286.731943 87.549955 285.500709 87.549955 284.217073 
C 87.549955 282.933438 87.039961 281.702203 86.132293 280.794536 
C 85.224626 279.886868 83.993392 279.376875 82.709756 279.376875 
C 81.42612 279.376875 80.194886 279.886868 79.287219 280.794536 
C 78.379551 281.702203 77.869558 282.933438 77.869558 284.217073 
C 77.869558 285.500709 78.379551 286.731943 79.287219 287.63961 
C 80.194886 288.547278 81.42612 289.057272 82.709756 289.057272 
z
" clip-path="url(#pbb6371f524)" style="fill: #9aa0a6; fill-opacity: 0.285"/>
   </g>
   <g id="patch_12">
    <path d="M 67.704878 289.224576 
C 68.535466 289.224576 69.332147 288.89458 69.919461 288.307266 
C 70.506775 287.719952 70.836771 286.923271 70.836771 286.092683 
C 70.836771 285.262095 70.506775 284.465414 69.919461 283.8781 
C 69.332147 283.290786 68.535466 282.96079 67.704878 282.96079 
C 66.87429 282.96079 66.077609 283.290786 65.490295 283.8781 
C 64.902981 284.465414 64.572985 285.262095 64.572985 286.092683 
C 64.572985 286.923271 64.902981 287.719952 65.490295 288.307266 
C 66.077609 288.89458 66.87429 289.224576 67.704878 289.224576 
z
" clip-path="url(#pbb6371f524)" style="fill: #9aa0a6; fill-opacity: 0.285"/>
   </g>
   <g id="patch_13">
    <path d="M 83.310109 289.019895 
L 68.093342 289.200391 
L 67.316415 282.984975 
L 82.109403 279.414251 
z
" clip-path="url(#pbb6371f524)" style="fill: #9aa0a6; fill-opacity: 0.285"/>
   </g>
   <g id="patch_14">
    <path d="M 82.709756 288.317006 
C 83.797071 288.317006 84.839999 287.885011 85.608846 287.116164 
C 86.377694 286.347316 86.809689 285.304388 86.809689 284.217073 
C 86.809689 283.129758 86.377694 282.086831 85.608846 281.317983 
C 84.839999 280.549135 83.797071 280.11714 82.709756 280.11714 
C 81.622441 280.11714 80.579514 280.549135 79.810666 281.317983 
C 79.041818 282.086831 78.609823 283.129758 78.609823 284.217073 
C 78.609823 285.304388 79.041818 286.347316 79.810666 287.116164 
C 80.579514 287.885011 81.622441 288.317006 82.709756 288.317006 
z
" clip-path="url(#pbb6371f524)" style="fill: #9aa0a6; fill-opacity: 0.285; stroke: #7d8288; stroke-opacity: 0.85; stroke-width: 1.3; stroke-linejoin: miter"/>
   </g>
   <g id="line2d_2">
    <path d="M 119.728511 184.568489 
L 96.483369 250.843483 
L 95.218068 253.493372 
L 93.122758 255.550694 
L 90.450166 256.767307 
L 87.522644 256.996469 
L 84.693296 256.210538 
L 82.303382 254.504312 
L 80.641162 252.083584 
L 79.907123 249.240332 
L 80.189802 246.317492 
L 94.456855 177.548584 
L 96.419363 173.438553 
L 99.669231 170.247604 
L 103.814477 168.360613 
L 108.355123 168.005179 
L 112.743499 169.224172 
L 116.450304 171.870565 
L 119.028442 175.625162 
L 120.166951 180.035105 
L 119.728511 184.568489 
L 119.728511 184.568489 
" clip-path="url(#pbb6371f524)" style="fill: none; stroke: #7d8288; stroke-opacity: 0.85; stroke-width: 1.7; stroke-linecap: round"/>
   </g>
   <g id="line2d_3">
    <path d="M 96.688367 249.89919 
L 88.334425 285.105179 
L 87.691466 286.97537 
L 86.447639 288.512869 
L 84.752969 289.532232 
L 82.811856 289.910509 
L 80.858429 289.602073 
L 79.128299 288.644127 
L 77.830146 287.152212 
L 77.120546 285.306277 
L 77.085087 283.328968 
L 79.984804 247.261785 
L 80.939501 244.484835 
L 82.786395 242.201881 
L 85.302724 240.688282 
L 88.184982 240.126598 
L 91.085525 240.584579 
L 93.654506 242.006984 
L 95.582067 244.222251 
L 96.635716 246.963185 
L 96.688367 249.89919 
L 96.688367 249.89919 
" clip-path="url(#pbb6371f524)" style="fill: none; stroke: #7d8288; stroke-opacity: 0.85; stroke-width: 1.7; stroke-linecap: round"/>
   </g>
   <g id="line2d_4">
    <path d="M 83.310109 289.019895 
L 68.093342 289.200391 
L 67.007016 289.145836 
L 66.004862 288.723025 
L 65.207755 287.982956 
L 64.711839 287.014893 
L 64.576927 285.935597 
L 64.819292 284.875248 
L 65.409701 283.96174 
L 66.276943 283.305255 
L 67.316415 282.984975 
L 82.109403 279.414251 
L 83.788271 279.498564 
L 85.337054 280.151999 
L 86.568946 281.295741 
L 87.335362 282.79184 
L 87.543863 284.459842 
L 87.169298 286.098563 
L 86.256847 287.510349 
L 84.916565 288.524917 
L 83.310109 289.019895 
L 83.310109 289.019895 
" clip-path="url(#pbb6371f524)" style="fill: none; stroke: #7d8288; stroke-opacity: 0.85; stroke-width: 1.5; stroke-linecap: round"/>
   </g>
   <g id="patch_15">
    <path d="M 150.231707 141.670732 
C 152.221377 141.670732 154.129824 140.880227 155.536733 139.473318 
C 156.943642 138.066409 157.734146 136.157963 157.734146 134.168293 
C 157.734146 132.178623 156.943642 130.270176 155.536733 128.863267 
C 154.129824 127.456358 152.221377 126.665854 150.231707 126.665854 
C 148.242037 126.665854 146.333591 127.456358 144.926682 128.863267 
C 143.519773 130.270176 142.729268 132.178623 142.729268 134.168293 
C 142.729268 136.157963 143.519773 138.066409 144.926682 139.473318 
C 146.333591 140.880227 148.242037 141.670732 150.231707 141.670732 
z
" clip-path="url(#pbb6371f524)" style="fill: #9aa0a6; fill-opacity: 0.3"/>
   </g>
   <g id="patch_16">
    <path d="M 138.978049 164.553171 
C 142.062037 164.553171 145.020129 163.327889 147.200838 161.14718 
C 149.381548 158.966471 150.606829 156.008379 150.606829 152.92439 
C 150.606829 149.840402 149.381548 146.88231 147.200838 144.701601 
C 145.020129 142.520891 142.062037 141.29561 138.978049 141.29561 
C 135.89406 141.29561 132.935969 142.520891 130.755259 144.701601 
C 128.57455 146.88231 127.349268 149.840402 127.349268 152.92439 
C 127.349268 156.008379 128.57455 158.966471 130.755259 161.14718 
C 132.935969 163.327889 135.89406 164.553171 138.978049 164.553171 
z
" clip-path="url(#pbb6371f524)" style="fill: #9aa0a6; fill-opacity: 0.3"/>
   </g>
   <g id="patch_17">
    <path d="M 156.664996 138.028266 
L 148.949646 158.907348 
L 129.006452 146.941432 
L 143.798419 130.30832 
z
" clip-path="url(#pbb6371f524)" style="fill: #9aa0a6; fill-opacity: 0.3"/>
   </g>
   <g id="patch_18">
    <path d="M 138.978049 176.181951 
C 145.146026 176.181951 151.062209 173.731388 155.423628 169.369969 
C 159.785046 165.008551 162.23561 159.092368 162.23561 152.92439 
C 162.23561 146.756413 159.785046 140.84023 155.423628 136.478811 
C 151.062209 132.117393 145.146026 129.666829 138.978049 129.666829 
C 132.810072 129.666829 126.893888 132.117393 122.53247 136.478811 
C 118.171051 140.84023 115.720488 146.756413 115.720488 152.92439 
C 115.720488 159.092368 118.171051 165.008551 122.53247 169.369969 
C 126.893888 173.731388 132.810072 176.181951 138.978049 176.181951 
z
" clip-path="url(#pbb6371f524)" style="fill: #9aa0a6; fill-opacity: 0.3"/>
   </g>
   <g id="patch_19">
    <path d="M 107.092683 198.314146 
C 111.668924 198.314146 116.05835 196.495986 119.294242 193.260095 
C 122.530133 190.024204 124.348293 185.634778 124.348293 181.058537 
C 124.348293 176.482295 122.530133 172.092869 119.294242 168.856978 
C 116.05835 165.621087 111.668924 163.802927 107.092683 163.802927 
C 102.516442 163.802927 98.127015 165.621087 94.891124 168.856978 
C 91.655233 172.092869 89.837073 176.482295 89.837073 181.058537 
C 89.837073 185.634778 91.655233 190.024204 94.891124 193.260095 
C 98.127015 196.495986 102.516442 198.314146 107.092683 198.314146 
z
" clip-path="url(#pbb6371f524)" style="fill: #9aa0a6; fill-opacity: 0.3"/>
   </g>
   <g id="patch_20">
    <path d="M 154.365754 170.36379 
L 118.509368 193.997446 
L 95.675998 168.119627 
L 123.590343 135.484991 
z
" clip-path="url(#pbb6371f524)" style="fill: #9aa0a6; fill-opacity: 0.3"/>
   </g>
   <g id="patch_21">
    <path d="M 107.092683 195.313171 
C 110.873056 195.313171 114.499104 193.811213 117.172231 191.138085 
C 119.845359 188.464958 121.347317 184.83891 121.347317 181.058537 
C 121.347317 177.278163 119.845359 173.652116 117.172231 170.978988 
C 114.499104 168.305861 110.873056 166.803902 107.092683 166.803902 
C 103.31231 166.803902 99.686262 168.305861 97.013134 170.978988 
C 94.340007 173.652116 92.838049 177.278163 92.838049 181.058537 
C 92.838049 184.83891 94.340007 188.464958 97.013134 191.138085 
C 99.686262 193.811213 103.31231 195.313171 107.092683 195.313171 
z
" clip-path="url(#pbb6371f524)" style="fill: #9aa0a6; fill-opacity: 0.3"/>
   </g>
   <g id="patch_22">
    <path d="M 131.47561 254.019756 
C 133.912956 254.019756 136.250802 253.051388 137.974266 251.327925 
C 139.69773 249.604461 140.666098 247.266614 140.666098 244.829268 
C 140.666098 242.391922 139.69773 240.054076 137.974266 238.330612 
C 136.250802 236.607148 133.912956 235.63878 131.47561 235.63878 
C 129.038264 235.63878 126.700417 236.607148 124.976954 238.330612 
C 123.25349 240.054076 122.285122 242.391922 122.285122 244.829268 
C 122.285122 247.266614 123.25349 249.604461 124.976954 251.327925 
C 126.700417 253.051388 129.038264 254.019756 131.47561 254.019756 
z
" clip-path="url(#pbb6371f524)" style="fill: #9aa0a6; fill-opacity: 0.3"/>
   </g>
   <g id="patch_23">
    <path d="M 120.40725 175.967673 
L 140.060002 241.547001 
L 122.891218 248.111536 
L 93.778116 186.149401 
z
" clip-path="url(#pbb6371f524)" style="fill: #9aa0a6; fill-opacity: 0.3"/>
   </g>
   <g id="patch_24">
    <path d="M 131.47561 254.019756 
C 133.912956 254.019756 136.250802 253.051388 137.974266 251.327925 
C 139.69773 249.604461 140.666098 247.266614 140.666098 244.829268 
C 140.666098 242.391922 139.69773 240.054076 137.974266 238.330612 
C 136.250802 236.607148 133.912956 235.63878 131.47561 235.63878 
C 129.038264 235.63878 126.700417 236.607148 124.976954 238.330612 
C 123.25349 240.054076 122.285122 242.391922 122.285122 244.829268 
C 122.285122 247.266614 123.25349 249.604461 124.976954 251.327925 
C 126.700417 253.051388 129.038264 254.019756 131.47561 254.019756 
z
" clip-path="url(#pbb6371f524)" style="fill: #9aa0a6; fill-opacity: 0.3"/>
   </g>
   <g id="patch_25">
    <path d="M 135.226829 290.406585 
C 136.868307 290.406585 138.442775 289.754419 139.603475 288.593719 
C 140.764175 287.433019 141.416341 285.858551 141.416341 284.217073 
C 141.416341 282.575595 140.764175 281.001127 139.603475 279.840427 
C 138.442775 278.679727 136.868307 278.027561 135.226829 278.027561 
C 133.585351 278.027561 132.010883 278.679727 130.850183 279.840427 
C 129.689483 281.001127 129.037317 282.575595 129.037317 284.217073 
C 129.037317 285.858551 129.689483 287.433019 130.850183 288.593719 
C 132.010883 289.754419 133.585351 290.406585 135.226829 290.406585 
z
" clip-path="url(#pbb6371f524)" style="fill: #9aa0a6; fill-opacity: 0.3"/>
   </g>
   <g id="patch_26">
    <path d="M 140.624699 243.957926 
L 141.388461 283.630251 
L 129.065198 284.803895 
L 122.326521 245.70061 
z
" clip-path="url(#pbb6371f524)" style="fill: #9aa0a6; fill-opacity: 0.3"/>
   </g>
   <g id="patch_27">
    <path d="M 135.226829 289.478159 
C 136.622085 289.478159 137.960383 288.923817 138.946978 287.937222 
C 139.933573 286.950627 140.487915 285.612329 140.487915 284.217073 
C 140.487915 282.821817 139.933573 281.483519 138.946978 280.496924 
C 137.960383 279.510329 136.622085 278.955988 135.226829 278.955988 
C 133.831573 278.955988 132.493275 279.510329 131.50668 280.496924 
C 130.520085 281.483519 129.965744 282.821817 129.965744 284.217073 
C 129.965744 285.612329 130.520085 286.950627 131.50668 287.937222 
C 132.493275 288.923817 133.831573 289.478159 135.226829 289.478159 
z
" clip-path="url(#pbb6371f524)" style="fill: #9aa0a6; fill-opacity: 0.3"/>
   </g>
   <g id="patch_28">
    <path d="M 150.231707 287.621305 
C 151.13452 287.621305 152.000478 287.262614 152.638863 286.624228 
C 153.277248 285.985843 153.635939 285.119886 153.635939 284.217073 
C 153.635939 283.31426 153.277248 282.448303 152.638863 281.809918 
C 152.000478 281.171533 151.13452 280.812841 150.231707 280.812841 
C 149.328895 280.812841 148.462937 281.171533 147.824552 281.809918 
C 147.186167 282.448303 146.827476 283.31426 146.827476 284.217073 
C 146.827476 285.119886 147.186167 285.985843 147.824552 286.624228 
C 148.462937 287.262614 149.328895 287.621305 150.231707 287.621305 
z
" clip-path="url(#pbb6371f524)" style="fill: #9aa0a6; fill-opacity: 0.3"/>
   </g>
   <g id="patch_29">
    <path d="M 135.226829 278.955988 
L 150.231707 280.812841 
L 150.231707 287.621305 
L 135.226829 289.478159 
z
" clip-path="url(#pbb6371f524)" style="fill: #9aa0a6; fill-opacity: 0.3"/>
   </g>
   <g id="line2d_5">
    <path d="M 156.664996 138.028266 
L 148.949646 158.907348 
L 146.301993 161.957019 
L 142.770964 163.917221 
L 138.782453 164.551526 
L 134.817535 163.783426 
L 131.354436 161.705566 
L 128.810856 158.568567 
L 127.493591 154.750797 
L 127.56152 150.712736 
L 129.006452 146.941432 
L 143.798419 130.30832 
L 145.506582 128.34079 
L 147.784665 127.076144 
L 150.357898 126.666915 
L 152.91591 127.162463 
L 155.150167 128.503018 
L 156.791186 130.526888 
L 157.641035 132.989966 
L 157.597209 135.595167 
L 156.664996 138.028266 
L 156.664996 138.028266 
" clip-path="url(#pbb6371f524)" style="fill: none; stroke: #7d8288; stroke-opacity: 0.85; stroke-width: 1.7; stroke-linecap: round"/>
   </g>
   <g id="line2d_6">
    <path d="M 154.365754 170.36379 
L 118.509368 193.997446 
L 113.39549 197.12187 
L 107.5214 198.30882 
L 101.595601 197.41513 
L 96.332831 194.548594 
L 92.367858 190.054958 
L 90.178916 184.476221 
L 90.030024 178.48526 
L 91.939141 172.804675 
L 95.675998 168.119627 
L 123.590343 135.484991 
L 130.482961 131.27381 
L 138.400212 129.674009 
L 146.387159 130.878546 
L 153.480458 134.742139 
L 158.824552 140.798778 
L 161.774865 148.317946 
L 161.975545 156.392719 
L 159.402388 164.04916 
L 154.365754 170.36379 
L 154.365754 170.36379 
" clip-path="url(#pbb6371f524)" style="fill: none; stroke: #7d8288; stroke-opacity: 0.85; stroke-width: 1.7; stroke-linecap: round"/>
   </g>
   <g id="patch_30">
    <path d="M 138.978049 162.302439 
C 141.465136 162.302439 143.850694 161.314309 145.609331 159.555672 
C 147.367967 157.797036 148.356098 155.411478 148.356098 152.92439 
C 148.356098 150.437303 147.367967 148.051745 145.609331 146.293108 
C 143.850694 144.534472 141.465136 143.546341 138.978049 143.546341 
C 136.490961 143.546341 134.105403 144.534472 132.346767 146.293108 
C 130.58813 148.051745 129.6 150.437303 129.6 152.92439 
C 129.6 155.411478 130.58813 157.797036 132.346767 159.555672 
C 134.105403 161.314309 136.490961 162.302439 138.978049 162.302439 
z
" clip-path="url(#pbb6371f524)" style="fill: #9aa0a6; fill-opacity: 0.3"/>
   </g>
   <g id="patch_31">
    <path d="M 123.973171 197.376341 
C 125.813616 197.376341 127.578928 196.645125 128.880319 195.343734 
C 130.18171 194.042343 130.912927 192.27703 130.912927 190.436585 
C 130.912927 188.596141 130.18171 186.830828 128.880319 185.529437 
C 127.578928 184.228046 125.813616 183.496829 123.973171 183.496829 
C 122.132726 183.496829 120.367413 184.228046 119.066022 185.529437 
C 117.764631 186.830828 117.033415 188.596141 117.033415 190.436585 
C 117.033415 192.27703 117.764631 194.042343 119.066022 195.343734 
C 120.367413 196.645125 122.132726 197.376341 123.973171 197.376341 
z
" clip-path="url(#pbb6371f524)" style="fill: #9aa0a6; fill-opacity: 0.3"/>
   </g>
   <g id="patch_32">
    <path d="M 147.685348 156.40731 
L 130.416573 193.013946 
L 117.529769 187.859225 
L 130.270749 149.44147 
z
" clip-path="url(#pbb6371f524)" style="fill: #9aa0a6; fill-opacity: 0.3"/>
   </g>
   <g id="patch_33">
    <path d="M 123.973171 197.376341 
C 125.813616 197.376341 127.578928 196.645125 128.880319 195.343734 
C 130.18171 194.042343 130.912927 192.27703 130.912927 190.436585 
C 130.912927 188.596141 130.18171 186.830828 128.880319 185.529437 
C 127.578928 184.228046 125.813616 183.496829 123.973171 183.496829 
C 122.132726 183.496829 120.367413 184.228046 119.066022 185.529437 
C 117.764631 186.830828 117.033415 188.596141 117.033415 190.436585 
C 117.033415 192.27703 117.764631 194.042343 119.066022 195.343734 
C 120.367413 196.645125 122.132726 197.376341 123.973171 197.376341 
z
" clip-path="url(#pbb6371f524)" style="fill: #9aa0a6; fill-opacity: 0.3"/>
   </g>
   <g id="patch_34">
    <path d="M 112.719512 230.011951 
C 114.261507 230.011951 115.740552 229.39931 116.830907 228.308956 
C 117.921262 227.218601 118.533902 225.739555 118.533902 224.197561 
C 118.533902 222.655567 117.921262 221.176521 116.830907 220.086166 
C 115.740552 218.995812 114.261507 218.383171 112.719512 218.383171 
C 111.177518 218.383171 109.698472 218.995812 108.608117 220.086166 
C 107.517763 221.176521 106.905122 222.655567 106.905122 224.197561 
C 106.905122 225.739555 107.517763 227.218601 108.608117 228.308956 
C 109.698472 229.39931 111.177518 230.011951 112.719512 230.011951 
z
" clip-path="url(#pbb6371f524)" style="fill: #9aa0a6; fill-opacity: 0.3"/>
   </g>
   <g id="patch_35">
    <path d="M 130.556801 192.631129 
L 118.235527 226.036233 
L 107.203497 222.358889 
L 117.38954 188.242042 
z
" clip-path="url(#pbb6371f524)" style="fill: #9aa0a6; fill-opacity: 0.3"/>
   </g>
   <g id="patch_36">
    <path d="M 135.226829 288.673522 
C 136.408693 288.673522 137.54231 288.203962 138.378014 287.368258 
C 139.213718 286.532554 139.683278 285.398937 139.683278 284.217073 
C 139.683278 283.035209 139.213718 281.901592 138.378014 281.065888 
C 137.54231 280.230184 136.408693 279.760624 135.226829 279.760624 
C 134.044965 279.760624 132.911348 280.230184 132.075644 281.065888 
C 131.23994 281.901592 130.77038 283.035209 130.77038 284.217073 
C 130.77038 285.398937 131.23994 286.532554 132.075644 287.368258 
C 132.911348 288.203962 134.044965 288.673522 135.226829 288.673522 
z
" clip-path="url(#pbb6371f524)" style="fill: #9aa0a6; fill-opacity: 0.3; stroke: #7d8288; stroke-opacity: 0.85; stroke-width: 1.3; stroke-linejoin: miter"/>
   </g>
   <g id="patch_37">
    <path d="M 112.719512 230.387073 
C 114.36099 230.387073 115.935458 229.734907 117.096158 228.574207 
C 118.256858 227.413507 118.909024 225.839039 118.909024 224.197561 
C 118.909024 222.556083 118.256858 220.981615 117.096158 219.820915 
C 115.935458 218.660215 114.36099 218.008049 112.719512 218.008049 
C 111.078034 218.008049 109.503566 218.660215 108.342866 219.820915 
C 107.182166 220.981615 106.53 222.556083 106.53 224.197561 
C 106.53 225.839039 107.182166 227.413507 108.342866 228.574207 
C 109.503566 229.734907 111.078034 230.387073 112.719512 230.387073 
z
" clip-path="url(#pbb6371f524)" style="fill: #9aa0a6; fill-opacity: 0.3; stroke: #7d8288; stroke-opacity: 0.85; stroke-width: 1.6; stroke-linejoin: miter"/>
   </g>
   <g id="line2d_7">
    <path d="M 120.40725 175.967673 
L 140.060002 241.547001 
L 140.664901 244.680981 
L 140.161436 247.832846 
L 138.610333 250.622436 
L 136.198676 252.713284 
L 133.217348 253.853204 
L 130.025941 253.904704 
L 127.009385 252.861572 
L 124.531522 250.849626 
L 122.891218 248.111536 
L 93.778116 186.149401 
L 92.839904 181.288534 
L 93.620788 176.399926 
L 96.026582 172.073215 
L 99.76711 168.830267 
L 104.391211 167.062228 
L 109.341149 166.982351 
L 114.019889 168.60027 
L 117.863105 171.720839 
L 120.40725 175.967673 
L 120.40725 175.967673 
" clip-path="url(#pbb6371f524)" style="fill: none; stroke: #7d8288; stroke-opacity: 0.85; stroke-width: 1.7; stroke-linecap: round"/>
   </g>
   <g id="line2d_8">
    <path d="M 140.624699 243.957926 
L 141.388461 283.630251 
L 141.217574 285.773043 
L 140.324115 287.728162 
L 138.815848 289.259791 
L 136.874692 290.183195 
L 134.73478 290.386996 
L 132.654216 289.846613 
L 130.883948 288.627225 
L 129.637495 286.875908 
L 129.065198 284.803895 
L 122.326521 245.70061 
L 122.580262 242.518889 
L 123.906913 239.615834 
L 126.146461 237.341596 
L 129.028783 235.970481 
L 132.206228 235.667868 
L 135.29555 236.470254 
L 137.924131 238.280861 
L 139.774925 240.881302 
L 140.624699 243.957926 
L 140.624699 243.957926 
" clip-path="url(#pbb6371f524)" style="fill: none; stroke: #7d8288; stroke-opacity: 0.85; stroke-width: 1.7; stroke-linecap: round"/>
   </g>
   <g id="line2d_9">
    <path d="M 135.226829 278.955988 
L 150.231707 280.812841 
L 151.396023 281.018142 
L 152.419905 281.60928 
L 153.179858 282.514957 
L 153.584221 283.625935 
L 153.584221 284.808212 
L 153.179858 285.919189 
L 152.419905 286.824866 
L 151.396023 287.416005 
L 150.231707 287.621305 
L 135.226829 289.478159 
L 133.427432 289.160876 
L 131.845069 288.247298 
L 130.670596 286.847616 
L 130.045672 285.130651 
L 130.045672 283.303495 
L 130.670596 281.58653 
L 131.845069 280.186848 
L 133.427432 279.27327 
L 135.226829 278.955988 
L 135.226829 278.955988 
" clip-path="url(#pbb6371f524)" style="fill: none; stroke: #7d8288; stroke-opacity: 0.85; stroke-width: 1.5; stroke-linecap: round"/>
   </g>
   <g id="line2d_10">
    <path d="M 147.685348 156.40731 
L 130.416573 193.013946 
L 129.146479 195.062285 
L 127.252407 196.552697 
L 124.962812 197.305415 
L 122.553851 197.229651 
L 120.316081 196.334543 
L 118.51941 194.728055 
L 117.380543 192.603951 
L 117.036844 190.218432 
L 117.529769 187.859225 
L 130.270749 149.44147 
L 131.987092 146.673444 
L 134.546648 144.659374 
L 137.640696 143.642188 
L 140.896049 143.744571 
L 143.920062 144.954177 
L 146.347996 147.125107 
L 147.887005 149.995517 
L 148.351463 153.219192 
L 147.685348 156.40731 
L 147.685348 156.40731 
" clip-path="url(#pbb6371f524)" style="fill: none; stroke: #7d8288; stroke-opacity: 0.85; stroke-width: 1.7; stroke-linecap: round"/>
   </g>
   <g id="line2d_11">
    <path d="M 130.556801 192.631129 
L 118.235527 226.036233 
L 117.274008 227.811935 
L 115.763149 229.151691 
L 113.885183 229.893906 
L 111.86662 229.949057 
L 109.950928 229.310493 
L 108.369168 228.055234 
L 107.312124 226.334683 
L 106.907291 224.356363 
L 107.203497 222.358889 
L 117.38954 188.242042 
L 118.53716 186.122655 
L 120.340442 184.523591 
L 122.581886 183.637722 
L 124.991139 183.571896 
L 127.27761 184.334053 
L 129.165517 185.832266 
L 130.42715 187.885827 
L 130.910338 190.247047 
L 130.556801 192.631129 
L 130.556801 192.631129 
" clip-path="url(#pbb6371f524)" style="fill: none; stroke: #7d8288; stroke-opacity: 0.85; stroke-width: 1.7; stroke-linecap: round"/>
   </g>
   <g id="patch_38">
    <path d="M 150.231707 149.173171 
C 154.211047 149.173171 158.02794 147.592162 160.841758 144.778344 
C 163.655577 141.964525 165.236585 138.147633 165.236585 134.168293 
C 165.236585 130.188953 163.655577 126.37206 160.841758 123.558242 
C 158.02794 120.744423 154.211047 119.163415 150.231707 119.163415 
C 146.252367 119.163415 142.435475 120.744423 139.621656 123.558242 
C 136.807838 126.37206 135.226829 130.188953 135.226829 134.168293 
C 135.226829 138.147633 136.807838 141.964525 139.621656 144.778344 
C 142.435475 147.592162 146.252367 149.173171 150.231707 149.173171 
z
" clip-path="url(#pbb6371f524)" style="fill: #9aa0a6; fill-opacity: 0.3; stroke: #7d8288; stroke-opacity: 0.85; stroke-width: 1.8; stroke-linejoin: miter"/>
   </g>
   <g id="patch_39">
    <path d="M 107.092683 194.1728 
C 110.570626 194.1728 113.90659 192.790998 116.365868 190.331721 
C 118.825145 187.872444 120.206946 184.53648 120.206946 181.058537 
C 120.206946 177.580593 118.825145 174.244629 116.365868 171.785352 
C 113.90659 169.326075 110.570626 167.944273 107.092683 167.944273 
C 103.61474 167.944273 100.278776 169.326075 97.819498 171.785352 
C 95.360221 174.244629 93.97842 177.580593 93.97842 181.058537 
C 93.97842 184.53648 95.360221 187.872444 97.819498 190.331721 
C 100.278776 192.790998 103.61474 194.1728 107.092683 194.1728 
z
" clip-path="url(#pbb6371f524)" style="fill: #3c3f42; fill-opacity: 0.95"/>
   </g>
   <g id="patch_40">
    <path d="M 88.336585 257.035737 
C 90.578944 257.035737 92.729762 256.144838 94.315349 254.559252 
C 95.900936 252.973665 96.791834 250.822846 96.791834 248.580488 
C 96.791834 246.33813 95.900936 244.187311 94.315349 242.601724 
C 92.729762 241.016137 90.578944 240.125239 88.336585 240.125239 
C 86.094227 240.125239 83.943408 241.016137 82.357822 242.601724 
C 80.772235 244.187311 79.881337 246.33813 79.881337 248.580488 
C 79.881337 250.822846 80.772235 252.973665 82.357822 254.559252 
C 83.943408 256.144838 86.094227 257.035737 88.336585 257.035737 
z
" clip-path="url(#pbb6371f524)" style="fill: #3c3f42; fill-opacity: 0.95"/>
   </g>
   <g id="patch_41">
    <path d="M 119.728511 184.568489 
L 96.483369 250.843483 
L 80.189802 246.317492 
L 94.456855 177.548584 
z
" clip-path="url(#pbb6371f524)" style="fill: #3c3f42; fill-opacity: 0.95"/>
   </g>
   <g id="patch_42">
    <path d="M 88.336585 257.035737 
C 90.578944 257.035737 92.729762 256.144838 94.315349 254.559252 
C 95.900936 252.973665 96.791834 250.822846 96.791834 248.580488 
C 96.791834 246.33813 95.900936 244.187311 94.315349 242.601724 
C 92.729762 241.016137 90.578944 240.125239 88.336585 240.125239 
C 86.094227 240.125239 83.943408 241.016137 82.357822 242.601724 
C 80.772235 244.187311 79.881337 246.33813 79.881337 248.580488 
C 79.881337 250.822846 80.772235 252.973665 82.357822 254.559252 
C 83.943408 256.144838 86.094227 257.035737 88.336585 257.035737 
z
" clip-path="url(#pbb6371f524)" style="fill: #3c3f42; fill-opacity: 0.95"/>
   </g>
   <g id="patch_43">
    <path d="M 82.709756 289.911424 
C 84.219916 289.911424 85.668426 289.311432 86.73627 288.243588 
C 87.804115 287.175743 88.404107 285.727233 88.404107 284.217073 
C 88.404107 282.706914 87.804115 281.258403 86.73627 280.190559 
C 85.668426 279.122715 84.219916 278.522722 82.709756 278.522722 
C 81.199597 278.522722 79.751086 279.122715 78.683242 280.190559 
C 77.615398 281.258403 77.015405 282.706914 77.015405 284.217073 
C 77.015405 285.727233 77.615398 287.175743 78.683242 288.243588 
C 79.751086 289.311432 81.199597 289.911424 82.709756 289.911424 
z
" clip-path="url(#pbb6371f524)" style="fill: #3c3f42; fill-opacity: 0.95"/>
   </g>
   <g id="patch_44">
    <path d="M 96.688367 249.89919 
L 88.334425 285.105179 
L 77.085087 283.328968 
L 79.984804 247.261785 
z
" clip-path="url(#pbb6371f524)" style="fill: #3c3f42; fill-opacity: 0.95"/>
   </g>
   <g id="patch_45">
    <path d="M 82.709756 289.057272 
C 83.993392 289.057272 85.224626 288.547278 86.132293 287.63961 
C 87.039961 286.731943 87.549955 285.500709 87.549955 284.217073 
C 87.549955 282.933438 87.039961 281.702203 86.132293 280.794536 
C 85.224626 279.886868 83.993392 279.376875 82.709756 279.376875 
C 81.42612 279.376875 80.194886 279.886868 79.287219 280.794536 
C 78.379551 281.702203 77.869558 282.933438 77.869558 284.217073 
C 77.869558 285.500709 78.379551 286.731943 79.287219 287.63961 
C 80.194886 288.547278 81.42612 289.057272 82.709756 289.057272 
z
" clip-path="url(#pbb6371f524)" style="fill: #1b1b1b; fill-opacity: 0.95"/>
   </g>
   <g id="patch_46">
    <path d="M 67.704878 289.224576 
C 68.535466 289.224576 69.332147 288.89458 69.919461 288.307266 
C 70.506775 287.719952 70.836771 286.923271 70.836771 286.092683 
C 70.836771 285.262095 70.506775 284.465414 69.919461 283.8781 
C 69.332147 283.290786 68.535466 282.96079 67.704878 282.96079 
C 66.87429 282.96079 66.077609 283.290786 65.490295 283.8781 
C 64.902981 284.465414 64.572985 285.262095 64.572985 286.092683 
C 64.572985 286.923271 64.902981 287.719952 65.490295 288.307266 
C 66.077609 288.89458 66.87429 289.224576 67.704878 289.224576 
z
" clip-path="url(#pbb6371f524)" style="fill: #1b1b1b; fill-opacity: 0.95"/>
   </g>
   <g id="patch_47">
    <path d="M 83.310109 289.019895 
L 68.093342 289.200391 
L 67.316415 282.984975 
L 82.109403 279.414251 
z
" clip-path="url(#pbb6371f524)" style="fill: #1b1b1b; fill-opacity: 0.95"/>
   </g>
   <g id="patch_48">
    <path d="M 82.709756 288.317006 
C 83.797071 288.317006 84.839999 287.885011 85.608846 287.116164 
C 86.377694 286.347316 86.809689 285.304388 86.809689 284.217073 
C 86.809689 283.129758 86.377694 282.086831 85.608846 281.317983 
C 84.839999 280.549135 83.797071 280.11714 82.709756 280.11714 
C 81.622441 280.11714 80.579514 280.549135 79.810666 281.317983 
C 79.041818 282.086831 78.609823 283.129758 78.609823 284.217073 
C 78.609823 285.304388 79.041818 286.347316 79.810666 287.116164 
C 80.579514 287.885011 81.622441 288.317006 82.709756 288.317006 
z
" clip-path="url(#pbb6371f524)" style="fill: #1b1b1b; fill-opacity: 0.95; stroke: #121212; stroke-width: 1.3; stroke-linejoin: miter"/>
   </g>
   <g id="line2d_12">
    <path d="M 119.728511 184.568489 
L 96.483369 250.843483 
L 95.218068 253.493372 
L 93.122758 255.550694 
L 90.450166 256.767307 
L 87.522644 256.996469 
L 84.693296 256.210538 
L 82.303382 254.504312 
L 80.641162 252.083584 
L 79.907123 249.240332 
L 80.189802 246.317492 
L 94.456855 177.548584 
L 96.419363 173.438553 
L 99.669231 170.247604 
L 103.814477 168.360613 
L 108.355123 168.005179 
L 112.743499 169.224172 
L 116.450304 171.870565 
L 119.028442 175.625162 
L 120.166951 180.035105 
L 119.728511 184.568489 
L 119.728511 184.568489 
" clip-path="url(#pbb6371f524)" style="fill: none; stroke: #282a2c; stroke-width: 1.7; stroke-linecap: round"/>
   </g>
   <g id="line2d_13">
    <path d="M 96.688367 249.89919 
L 88.334425 285.105179 
L 87.691466 286.97537 
L 86.447639 288.512869 
L 84.752969 289.532232 
L 82.811856 289.910509 
L 80.858429 289.602073 
L 79.128299 288.644127 
L 77.830146 287.152212 
L 77.120546 285.306277 
L 77.085087 283.328968 
L 79.984804 247.261785 
L 80.939501 244.484835 
L 82.786395 242.201881 
L 85.302724 240.688282 
L 88.184982 240.126598 
L 91.085525 240.584579 
L 93.654506 242.006984 
L 95.582067 244.222251 
L 96.635716 246.963185 
L 96.688367 249.89919 
L 96.688367 249.89919 
" clip-path="url(#pbb6371f524)" style="fill: none; stroke: #282a2c; stroke-width: 1.7; stroke-linecap: round"/>
   </g>
   <g id="line2d_14">
    <path d="M 83.310109 289.019895 
L 68.093342 289.200391 
L 67.007016 289.145836 
L 66.004862 288.723025 
L 65.207755 287.982956 
L 64.711839 287.014893 
L 64.576927 285.935597 
L 64.819292 284.875248 
L 65.409701 283.96174 
L 66.276943 283.305255 
L 67.316415 282.984975 
L 82.109403 279.414251 
L 83.788271 279.498564 
L 85.337054 280.151999 
L 86.568946 281.295741 
L 87.335362 282.79184 
L 87.543863 284.459842 
L 87.169298 286.098563 
L 86.256847 287.510349 
L 84.916565 288.524917 
L 83.310109 289.019895 
L 83.310109 289.019895 
" clip-path="url(#pbb6371f524)" style="fill: none; stroke: #121212; stroke-width: 1.5; stroke-linecap: round"/>
   </g>
   <g id="patch_49">
    <path d="M 150.231707 141.670732 
C 152.221377 141.670732 154.129824 140.880227 155.536733 139.473318 
C 156.943642 138.066409 157.734146 136.157963 157.734146 134.168293 
C 157.734146 132.178623 156.943642 130.270176 155.536733 128.863267 
C 154.129824 127.456358 152.221377 126.665854 150.231707 126.665854 
C 148.242037 126.665854 146.333591 127.456358 144.926682 128.863267 
C 143.519773 130.270176 142.729268 132.178623 142.729268 134.168293 
C 142.729268 136.157963 143.519773 138.066409 144.926682 139.473318 
C 146.333591 140.880227 148.242037 141.670732 150.231707 141.670732 
z
" clip-path="url(#pbb6371f524)" style="fill: #2c3e50"/>
   </g>
   <g id="patch_50">
    <path d="M 138.978049 164.553171 
C 142.062037 164.553171 145.020129 163.327889 147.200838 161.14718 
C 149.381548 158.966471 150.606829 156.008379 150.606829 152.92439 
C 150.606829 149.840402 149.381548 146.88231 147.200838 144.701601 
C 145.020129 142.520891 142.062037 141.29561 138.978049 141.29561 
C 135.89406 141.29561 132.935969 142.520891 130.755259 144.701601 
C 128.57455 146.88231 127.349268 149.840402 127.349268 152.92439 
C 127.349268 156.008379 128.57455 158.966471 130.755259 161.14718 
C 132.935969 163.327889 135.89406 164.553171 138.978049 164.553171 
z
" clip-path="url(#pbb6371f524)" style="fill: #2c3e50"/>
   </g>
   <g id="patch_51">
    <path d="M 156.664996 138.028266 
L 148.949646 158.907348 
L 129.006452 146.941432 
L 143.798419 130.30832 
z
" clip-path="url(#pbb6371f524)" style="fill: #2c3e50"/>
   </g>
   <g id="patch_52">
    <path d="M 138.978049 176.181951 
C 145.146026 176.181951 151.062209 173.731388 155.423628 169.369969 
C 159.785046 165.008551 162.23561 159.092368 162.23561 152.92439 
C 162.23561 146.756413 159.785046 140.84023 155.423628 136.478811 
C 151.062209 132.117393 145.146026 129.666829 138.978049 129.666829 
C 132.810072 129.666829 126.893888 132.117393 122.53247 136.478811 
C 118.171051 140.84023 115.720488 146.756413 115.720488 152.92439 
C 115.720488 159.092368 118.171051 165.008551 122.53247 169.369969 
C 126.893888 173.731388 132.810072 176.181951 138.978049 176.181951 
z
" clip-path="url(#pbb6371f524)" style="fill: #2c3e50"/>
   </g>
   <g id="patch_53">
    <path d="M 107.092683 198.314146 
C 111.668924 198.314146 116.05835 196.495986 119.294242 193.260095 
C 122.530133 190.024204 124.348293 185.634778 124.348293 181.058537 
C 124.348293 176.482295 122.530133 172.092869 119.294242 168.856978 
C 116.05835 165.621087 111.668924 163.802927 107.092683 163.802927 
C 102.516442 163.802927 98.127015 165.621087 94.891124 168.856978 
C 91.655233 172.092869 89.837073 176.482295 89.837073 181.058537 
C 89.837073 185.634778 91.655233 190.024204 94.891124 193.260095 
C 98.127015 196.495986 102.516442 198.314146 107.092683 198.314146 
z
" clip-path="url(#pbb6371f524)" style="fill: #2c3e50"/>
   </g>
   <g id="patch_54">
    <path d="M 154.365754 170.36379 
L 118.509368 193.997446 
L 95.675998 168.119627 
L 123.590343 135.484991 
z
" clip-path="url(#pbb6371f524)" style="fill: #2c3e50"/>
   </g>
   <g id="patch_55">
    <path d="M 107.092683 195.313171 
C 110.873056 195.313171 114.499104 193.811213 117.172231 191.138085 
C 119.845359 188.464958 121.347317 184.83891 121.347317 181.058537 
C 121.347317 177.278163 119.845359 173.652116 117.172231 170.978988 
C 114.499104 168.305861 110.873056 166.803902 107.092683 166.803902 
C 103.31231 166.803902 99.686262 168.305861 97.013134 170.978988 
C 94.340007 173.652116 92.838049 177.278163 92.838049 181.058537 
C 92.838049 184.83891 94.340007 188.464958 97.013134 191.138085 
C 99.686262 193.811213 103.31231 195.313171 107.092683 195.313171 
z
" clip-path="url(#pbb6371f524)" style="fill: #3c3f42"/>
   </g>
   <g id="patch_56">
    <path d="M 131.47561 254.019756 
C 133.912956 254.019756 136.250802 253.051388 137.974266 251.327925 
C 139.69773 249.604461 140.666098 247.266614 140.666098 244.829268 
C 140.666098 242.391922 139.69773 240.054076 137.974266 238.330612 
C 136.250802 236.607148 133.912956 235.63878 131.47561 235.63878 
C 129.038264 235.63878 126.700417 236.607148 124.976954 238.330612 
C 123.25349 240.054076 122.285122 242.391922 122.285122 244.829268 
C 122.285122 247.266614 123.25349 249.604461 124.976954 251.327925 
C 126.700417 253.051388 129.038264 254.019756 131.47561 254.019756 
z
" clip-path="url(#pbb6371f524)" style="fill: #3c3f42"/>
   </g>
   <g id="patch_57">
    <path d="M 120.40725 175.967673 
L 140.060002 241.547001 
L 122.891218 248.111536 
L 93.778116 186.149401 
z
" clip-path="url(#pbb6371f524)" style="fill: #3c3f42"/>
   </g>
   <g id="patch_58">
    <path d="M 131.47561 254.019756 
C 133.912956 254.019756 136.250802 253.051388 137.974266 251.327925 
C 139.69773 249.604461 140.666098 247.266614 140.666098 244.829268 
C 140.666098 242.391922 139.69773 240.054076 137.974266 238.330612 
C 136.250802 236.607148 133.912956 235.63878 131.47561 235.63878 
C 129.038264 235.63878 126.700417 236.607148 124.976954 238.330612 
C 123.25349 240.054076 122.285122 242.391922 122.285122 244.829268 
C 122.285122 247.266614 123.25349 249.604461 124.976954 251.327925 
C 126.700417 253.051388 129.038264 254.019756 131.47561 254.019756 
z
" clip-path="url(#pbb6371f524)" style="fill: #3c3f42"/>
   </g>
   <g id="patch_59">
    <path d="M 135.226829 290.406585 
C 136.868307 290.406585 138.442775 289.754419 139.603475 288.593719 
C 140.764175 287.433019 141.416341 285.858551 141.416341 284.217073 
C 141.416341 282.575595 140.764175 281.001127 139.603475 279.840427 
C 138.442775 278.679727 136.868307 278.027561 135.226829 278.027561 
C 133.585351 278.027561 132.010883 278.679727 130.850183 279.840427 
C 129.689483 281.001127 129.037317 282.575595 129.037317 284.217073 
C 129.037317 285.858551 129.689483 287.433019 130.850183 288.593719 
C 132.010883 289.754419 133.585351 290.406585 135.226829 290.406585 
z
" clip-path="url(#pbb6371f524)" style="fill: #3c3f42"/>
   </g>
   <g id="patch_60">
    <path d="M 140.624699 243.957926 
L 141.388461 283.630251 
L 129.065198 284.803895 
L 122.326521 245.70061 
z
" clip-path="url(#pbb6371f524)" style="fill: #3c3f42"/>
   </g>
   <g id="patch_61">
    <path d="M 135.226829 289.478159 
C 136.622085 289.478159 137.960383 288.923817 138.946978 287.937222 
C 139.933573 286.950627 140.487915 285.612329 140.487915 284.217073 
C 140.487915 282.821817 139.933573 281.483519 138.946978 280.496924 
C 137.960383 279.510329 136.622085 278.955988 135.226829 278.955988 
C 133.831573 278.955988 132.493275 279.510329 131.50668 280.496924 
C 130.520085 281.483519 129.965744 282.821817 129.965744 284.217073 
C 129.965744 285.612329 130.520085 286.950627 131.50668 287.937222 
C 132.493275 288.923817 133.831573 289.478159 135.226829 289.478159 
z
" clip-path="url(#pbb6371f524)" style="fill: #1b1b1b"/>
   </g>
   <g id="patch_62">
    <path d="M 150.231707 287.621305 
C 151.13452 287.621305 152.000478 287.262614 152.638863 286.624228 
C 153.277248 285.985843 153.635939 285.119886 153.635939 284.217073 
C 153.635939 283.31426 153.277248 282.448303 152.638863 281.809918 
C 152.000478 281.171533 151.13452 280.812841 150.231707 280.812841 
C 149.328895 280.812841 148.462937 281.171533 147.824552 281.809918 
C 147.186167 282.448303 146.827476 283.31426 146.827476 284.217073 
C 146.827476 285.119886 147.186167 285.985843 147.824552 286.624228 
C 148.462937 287.262614 149.328895 287.621305 150.231707 287.621305 
z
" clip-path="url(#pbb6371f524)" style="fill: #1b1b1b"/>
   </g>
   <g id="patch_63">
    <path d="M 135.226829 278.955988 
L 150.231707 280.812841 
L 150.231707 287.621305 
L 135.226829 289.478159 
z
" clip-path="url(#pbb6371f524)" style="fill: #1b1b1b"/>
   </g>
   <g id="line2d_15">
    <path d="M 156.664996 138.028266 
L 148.949646 158.907348 
L 146.301993 161.957019 
L 142.770964 163.917221 
L 138.782453 164.551526 
L 134.817535 163.783426 
L 131.354436 161.705566 
L 128.810856 158.568567 
L 127.493591 154.750797 
L 127.56152 150.712736 
L 129.006452 146.941432 
L 143.798419 130.30832 
L 145.506582 128.34079 
L 147.784665 127.076144 
L 150.357898 126.666915 
L 152.91591 127.162463 
L 155.150167 128.503018 
L 156.791186 130.526888 
L 157.641035 132.989966 
L 157.597209 135.595167 
L 156.664996 138.028266 
L 156.664996 138.028266 
" clip-path="url(#pbb6371f524)" style="fill: none; stroke: #1d2a36; stroke-width: 1.7; stroke-linecap: round"/>
   </g>
   <g id="line2d_16">
    <path d="M 154.365754 170.36379 
L 118.509368 193.997446 
L 113.39549 197.12187 
L 107.5214 198.30882 
L 101.595601 197.41513 
L 96.332831 194.548594 
L 92.367858 190.054958 
L 90.178916 184.476221 
L 90.030024 178.48526 
L 91.939141 172.804675 
L 95.675998 168.119627 
L 123.590343 135.484991 
L 130.482961 131.27381 
L 138.400212 129.674009 
L 146.387159 130.878546 
L 153.480458 134.742139 
L 158.824552 140.798778 
L 161.774865 148.317946 
L 161.975545 156.392719 
L 159.402388 164.04916 
L 154.365754 170.36379 
L 154.365754 170.36379 
" clip-path="url(#pbb6371f524)" style="fill: none; stroke: #1d2a36; stroke-width: 1.7; stroke-linecap: round"/>
   </g>
   <g id="patch_64">
    <path d="M 138.978049 162.302439 
C 141.465136 162.302439 143.850694 161.314309 145.609331 159.555672 
C 147.367967 157.797036 148.356098 155.411478 148.356098 152.92439 
C 148.356098 150.437303 147.367967 148.051745 145.609331 146.293108 
C 143.850694 144.534472 141.465136 143.546341 138.978049 143.546341 
C 136.490961 143.546341 134.105403 144.534472 132.346767 146.293108 
C 130.58813 148.051745 129.6 150.437303 129.6 152.92439 
C 129.6 155.411478 130.58813 157.797036 132.346767 159.555672 
C 134.105403 161.314309 136.490961 162.302439 138.978049 162.302439 
z
" clip-path="url(#pbb6371f524)" style="fill: #2c3e50"/>
   </g>
   <g id="patch_65">
    <path d="M 112.719512 193.625122 
C 114.559957 193.625122 116.32527 192.893905 117.626661 191.592514 
C 118.928052 190.291123 119.659268 188.525811 119.659268 186.685366 
C 119.659268 184.844921 118.928052 183.079608 117.626661 181.778217 
C 116.32527 180.476826 114.559957 179.74561 112.719512 179.74561 
C 110.879067 179.74561 109.113755 180.476826 107.812364 181.778217 
C 106.510973 183.079608 105.779756 184.844921 105.779756 186.685366 
C 105.779756 188.525811 106.510973 190.291123 107.812364 191.592514 
C 109.113755 192.893905 110.879067 193.625122 112.719512 193.625122 
z
" clip-path="url(#pbb6371f524)" style="fill: #2c3e50"/>
   </g>
   <g id="patch_66">
    <path d="M 146.380632 158.681955 
L 118.197424 190.945964 
L 107.2416 182.424768 
L 131.575465 147.166825 
z
" clip-path="url(#pbb6371f524)" style="fill: #2c3e50"/>
   </g>
   <g id="patch_67">
    <path d="M 112.719512 193.625122 
C 114.559957 193.625122 116.32527 192.893905 117.626661 191.592514 
C 118.928052 190.291123 119.659268 188.525811 119.659268 186.685366 
C 119.659268 184.844921 118.928052 183.079608 117.626661 181.778217 
C 116.32527 180.476826 114.559957 179.74561 112.719512 179.74561 
C 110.879067 179.74561 109.113755 180.476826 107.812364 181.778217 
C 106.510973 183.079608 105.779756 184.844921 105.779756 186.685366 
C 105.779756 188.525811 106.510973 190.291123 107.812364 191.592514 
C 109.113755 192.893905 110.879067 193.625122 112.719512 193.625122 
z
" clip-path="url(#pbb6371f524)" style="fill: #2c3e50"/>
   </g>
   <g id="patch_68">
    <path d="M 125.84878 203.753415 
C 127.390775 203.753415 128.869821 203.140774 129.960175 202.050419 
C 131.05053 200.960065 131.663171 199.481019 131.663171 197.939024 
C 131.663171 196.39703 131.05053 194.917984 129.960175 193.82763 
C 128.869821 192.737275 127.390775 192.124634 125.84878 192.124634 
C 124.306786 192.124634 122.82774 192.737275 121.737386 193.82763 
C 120.647031 194.917984 120.03439 196.39703 120.03439 197.939024 
C 120.03439 199.481019 120.647031 200.960065 121.737386 202.050419 
C 122.82774 203.140774 124.306786 203.753415 125.84878 203.753415 
z
" clip-path="url(#pbb6371f524)" style="fill: #2c3e50"/>
   </g>
   <g id="patch_69">
    <path d="M 117.235846 181.41631 
L 129.632736 193.52441 
L 122.064825 202.353639 
L 108.203179 191.954421 
z
" clip-path="url(#pbb6371f524)" style="fill: #2c3e50"/>
   </g>
   <g id="patch_70">
    <path d="M 135.226829 288.673522 
C 136.408693 288.673522 137.54231 288.203962 138.378014 287.368258 
C 139.213718 286.532554 139.683278 285.398937 139.683278 284.217073 
C 139.683278 283.035209 139.213718 281.901592 138.378014 281.065888 
C 137.54231 280.230184 136.408693 279.760624 135.226829 279.760624 
C 134.044965 279.760624 132.911348 280.230184 132.075644 281.065888 
C 131.23994 281.901592 130.77038 283.035209 130.77038 284.217073 
C 130.77038 285.398937 131.23994 286.532554 132.075644 287.368258 
C 132.911348 288.203962 134.044965 288.673522 135.226829 288.673522 
z
" clip-path="url(#pbb6371f524)" style="fill: #1b1b1b; stroke: #121212; stroke-width: 1.3; stroke-linejoin: miter"/>
   </g>
   <g id="patch_71">
    <path d="M 125.84878 204.128537 
C 127.490258 204.128537 129.064726 203.476371 130.225427 202.31567 
C 131.386127 201.15497 132.038293 199.580502 132.038293 197.939024 
C 132.038293 196.297547 131.386127 194.723078 130.225427 193.562378 
C 129.064726 192.401678 127.490258 191.749512 125.84878 191.749512 
C 124.207303 191.749512 122.632835 192.401678 121.472134 193.562378 
C 120.311434 194.723078 119.659268 196.297547 119.659268 197.939024 
C 119.659268 199.580502 120.311434 201.15497 121.472134 202.31567 
C 122.632835 203.476371 124.207303 204.128537 125.84878 204.128537 
z
" clip-path="url(#pbb6371f524)" style="fill: #f2e0c9; stroke: #a49888; stroke-width: 1.6; stroke-linejoin: miter"/>
   </g>
   <g id="line2d_17">
    <path d="M 120.40725 175.967673 
L 140.060002 241.547001 
L 140.664901 244.680981 
L 140.161436 247.832846 
L 138.610333 250.622436 
L 136.198676 252.713284 
L 133.217348 253.853204 
L 130.025941 253.904704 
L 127.009385 252.861572 
L 124.531522 250.849626 
L 122.891218 248.111536 
L 93.778116 186.149401 
L 92.839904 181.288534 
L 93.620788 176.399926 
L 96.026582 172.073215 
L 99.76711 168.830267 
L 104.391211 167.062228 
L 109.341149 166.982351 
L 114.019889 168.60027 
L 117.863105 171.720839 
L 120.40725 175.967673 
L 120.40725 175.967673 
" clip-path="url(#pbb6371f524)" style="fill: none; stroke: #282a2c; stroke-width: 1.7; stroke-linecap: round"/>
   </g>
   <g id="line2d_18">
    <path d="M 140.624699 243.957926 
L 141.388461 283.630251 
L 141.217574 285.773043 
L 140.324115 287.728162 
L 138.815848 289.259791 
L 136.874692 290.183195 
L 134.73478 290.386996 
L 132.654216 289.846613 
L 130.883948 288.627225 
L 129.637495 286.875908 
L 129.065198 284.803895 
L 122.326521 245.70061 
L 122.580262 242.518889 
L 123.906913 239.615834 
L 126.146461 237.341596 
L 129.028783 235.970481 
L 132.206228 235.667868 
L 135.29555 236.470254 
L 137.924131 238.280861 
L 139.774925 240.881302 
L 140.624699 243.957926 
L 140.624699 243.957926 
" clip-path="url(#pbb6371f524)" style="fill: none; stroke: #282a2c; stroke-width: 1.7; stroke-linecap: round"/>
   </g>
   <g id="line2d_19">
    <path d="M 135.226829 278.955988 
L 150.231707 280.812841 
L 151.396023 281.018142 
L 152.419905 281.60928 
L 153.179858 282.514957 
L 153.584221 283.625935 
L 153.584221 284.808212 
L 153.179858 285.919189 
L 152.419905 286.824866 
L 151.396023 287.416005 
L 150.231707 287.621305 
L 135.226829 289.478159 
L 133.427432 289.160876 
L 131.845069 288.247298 
L 130.670596 286.847616 
L 130.045672 285.130651 
L 130.045672 283.303495 
L 130.670596 281.58653 
L 131.845069 280.186848 
L 133.427432 279.27327 
L 135.226829 278.955988 
L 135.226829 278.955988 
" clip-path="url(#pbb6371f524)" style="fill: none; stroke: #121212; stroke-width: 1.5; stroke-linecap: round"/>
   </g>
   <g id="line2d_20">
    <path d="M 146.380632 158.681955 
L 118.197424 190.945964 
L 116.409855 192.562575 
L 114.177176 193.470307 
L 111.768682 193.559676 
L 109.474872 192.819901 
L 107.572413 191.340211 
L 106.29077 189.299078 
L 105.784529 186.942692 
L 106.114748 184.555269 
L 107.2416 182.424768 
L 131.575465 147.166825 
L 133.991099 144.982216 
L 137.008232 143.755551 
L 140.262955 143.634782 
L 143.362698 144.634478 
L 145.933589 146.634059 
L 147.665538 149.392347 
L 148.349648 152.576652 
L 147.903405 155.802899 
L 146.380632 158.681955 
L 146.380632 158.681955 
" clip-path="url(#pbb6371f524)" style="fill: none; stroke: #1d2a36; stroke-width: 1.7; stroke-linecap: round"/>
   </g>
   <g id="line2d_21">
    <path d="M 117.235846 181.41631 
L 129.632736 193.52441 
L 130.914422 195.084833 
L 131.585117 196.989513 
L 131.563926 199.008718 
L 130.853404 200.898903 
L 129.53925 202.432082 
L 127.779971 203.423333 
L 125.787762 203.753094 
L 123.802913 203.381594 
L 122.064825 202.353639 
L 108.203179 191.954421 
L 106.673424 190.091982 
L 105.872916 187.818653 
L 105.898209 185.408634 
L 106.746252 183.152608 
L 108.314758 181.322684 
L 110.414543 180.139579 
L 112.792341 179.745992 
L 115.161354 180.189396 
L 117.235846 181.41631 
L 117.235846 181.41631 
" clip-path="url(#pbb6371f524)" style="fill: none; stroke: #1d2a36; stroke-width: 1.7; stroke-linecap: round"/>
   </g>
   <g id="patch_72">
    <path d="M 150.231707 149.173171 
C 154.211047 149.173171 158.02794 147.592162 160.841758 144.778344 
C 163.655577 141.964525 165.236585 138.147633 165.236585 134.168293 
C 165.236585 130.188953 163.655577 126.37206 160.841758 123.558242 
C 158.02794 120.744423 154.211047 119.163415 150.231707 119.163415 
C 146.252367 119.163415 142.435475 120.744423 139.621656 123.558242 
C 136.807838 126.37206 135.226829 130.188953 135.226829 134.168293 
C 135.226829 138.147633 136.807838 141.964525 139.621656 144.778344 
C 142.435475 147.592162 146.252367 149.173171 150.231707 149.173171 
z
" clip-path="url(#pbb6371f524)" style="fill: #f2e0c9; stroke: #a49888; stroke-width: 1.8; stroke-linejoin: miter"/>
   </g>
   <g id="line2d_22">
    <path d="M 125.84878 214.819512 
L 125.84878 181.058537 
" clip-path="url(#pbb6371f524)" style="fill: none; stroke: #5b6b73; stroke-width: 5; stroke-linecap: round"/>
   </g>
   <g id="patch_73">
    <path d="M 125.84878 219.546049 
C 127.102273 219.546049 128.304594 219.048031 129.190947 218.161678 
C 130.077299 217.275325 130.575317 216.073004 130.575317 214.819512 
C 130.575317 213.56602 130.077299 212.363699 129.190947 211.477346 
C 128.304594 210.590993 127.102273 210.092976 125.84878 210.092976 
C 124.595288 210.092976 123.392967 210.590993 122.506614 211.477346 
C 121.620262 212.363699 121.122244 213.56602 121.122244 214.819512 
C 121.122244 216.073004 121.620262 217.275325 122.506614 218.161678 
C 123.392967 219.048031 124.595288 219.546049 125.84878 219.546049 
z
" clip-path="url(#pbb6371f524)" style="fill: #5b6b73; stroke: #5b6b73; stroke-linejoin: miter"/>
   </g>
   <g id="patch_74">
    <path d="M 125.84878 185.785073 
C 127.102273 185.785073 128.304594 185.287055 129.190947 184.400703 
C 130.077299 183.51435 130.575317 182.312029 130.575317 181.058537 
C 130.575317 179.805044 130.077299 178.602723 129.190947 177.716371 
C 128.304594 176.830018 127.102273 176.332 125.84878 176.332 
C 124.595288 176.332 123.392967 176.830018 122.506614 177.716371 
C 121.620262 178.602723 121.122244 179.805044 121.122244 181.058537 
C 121.122244 182.312029 121.620262 183.51435 122.506614 184.400703 
C 123.392967 185.287055 124.595288 185.785073 125.84878 185.785073 
z
" clip-path="url(#pbb6371f524)" style="fill: #5b6b73; stroke: #5b6b73; stroke-linejoin: miter"/>
   </g>
   <g id="line2d_23">
    <path d="M 112.719512 241.078049 
L 112.719512 207.317073 
" clip-path="url(#pbb6371f524)" style="fill: none; stroke: #5b6b73; stroke-width: 5; stroke-linecap: round"/>
   </g>
   <g id="patch_75">
    <path d="M 112.719512 245.804585 
C 113.973004 245.804585 115.175325 245.306568 116.061678 244.420215 
C 116.948031 243.533862 117.446049 242.331541 117.446049 241.078049 
C 117.446049 239.824557 116.948031 238.622236 116.061678 237.735883 
C 115.175325 236.84953 113.973004 236.351512 112.719512 236.351512 
C 111.46602 236.351512 110.263699 236.84953 109.377346 237.735883 
C 108.490993 238.622236 107.992976 239.824557 107.992976 241.078049 
C 107.992976 242.331541 108.490993 243.533862 109.377346 244.420215 
C 110.263699 245.306568 111.46602 245.804585 112.719512 245.804585 
z
" clip-path="url(#pbb6371f524)" style="fill: #5b6b73; stroke: #5b6b73; stroke-linejoin: miter"/>
   </g>
   <g id="patch_76">
    <path d="M 112.719512 212.04361 
C 113.973004 212.04361 115.175325 211.545592 116.061678 210.659239 
C 116.948031 209.772886 117.446049 208.570565 117.446049 207.317073 
C 117.446049 206.063581 116.948031 204.86126 116.061678 203.974907 
C 115.175325 203.088554 113.973004 202.590537 112.719512 202.590537 
C 111.46602 202.590537 110.263699 203.088554 109.377346 203.974907 
C 108.490993 204.86126 107.992976 206.063581 107.992976 207.317073 
C 107.992976 208.570565 108.490993 209.772886 109.377346 210.659239 
C 110.263699 211.545592 111.46602 212.04361 112.719512 212.04361 
z
" clip-path="url(#pbb6371f524)" style="fill: #5b6b73; stroke: #5b6b73; stroke-linejoin: miter"/>
   </g>
   <g id="patch_77">
    <path d="M 114.28834 222.958574 
Q 125.088151 213.971844 125.674329 202.397026 
" clip-path="url(#pbb6371f524)" style="fill: none; stroke-dasharray: 2.2,0; stroke-dashoffset: 0; stroke: #c0392b; stroke-width: 2.2; stroke-linecap: round"/>
    <path d="M 122.594678 207.848241 
L 125.674329 202.397026 
L 128.18751 208.131477 
z
" clip-path="url(#pbb6371f524)" style="fill: #c0392b; stroke-dasharray: 2.2,0; stroke-dashoffset: 0; stroke: #c0392b; stroke-width: 2.2; stroke-linecap: round"/>
   </g>
  </g>
 </g>
 <defs>
  <clipPath id="pbb6371f524">
   <rect x="5.809756" y="1" width="247.580488" height="307.6"/>
  </clipPath>
 </defs>
</svg>
