<?xml version="1.0" encoding="utf-8" standalone="no"?>
<!DOCTYPE svg PUBLIC "-//W3C//DTD SVG 1.1//EN"
  "http://www.w3.org/Graphics/SVG/1.1/DTD/svg11.dtd">
<svg xmlns:xlink="http://www.w3.org/1999/xlink" width="259.2pt" height="309.6pt" viewBox="0 0 259.2 309.6" xmlns="http://www.w3.org/2000/svg" version="1.1">
 <metadata>
  <rdf:RDF xmlns:dc="http://purl.org/dc/elements/1.1/" xmlns:cc="http://creativecommons.org/ns#" xmlns:rdf="http://www.w3.org/1999/02/22-rdf-syntax-ns#">
   <cc:Work>
    <dc:type rdf:resource="http://purl.org/dc/dcmitype/StillImage"/>
    <dc:date>2026-07-10T23:04:54.498401</dc:date>
    <dc:format>image/svg+xml</dc:format>
    <dc:creator>
     <cc:Agent>
      <dc:title>Matplotlib v3.10.8, https://matplotlib.org/</dc:title>
     </cc:Agent>
    </dc:creator>
   </cc:Work>
  </rdf:RDF>
 </metadata>
 <defs>
  <style type="text/css">*{stroke-linejoin: round; stroke-linecap: butt}</style>
 </defs>
 <g id="figure_1">
  <g id="patch_1">
   <path d="M 0 309.6 
L 259.2 309.6 
L 259.2 0 
L 0 0 
L 0 309.6 
z
" style="fill: none"/>
  </g>
  <g id="axes_1">
   <g id="line2d_1">
    <path d="M 17.063415 299.221951 
L 242.136585 299.221951 
" clip-path="url(#pcc494aeff5)" style="fill: none; stroke: #c3c3c3; stroke-width: 3; stroke-linecap: round"/>
   </g>
   <g id="patch_2">
    <path d="M 92.087805 211.068293 
L 155.858537 211.068293 
L 155.858537 196.063415 
L 92.087805 196.063415 
z
" clip-path="url(#pcc494aeff5)" style="fill: #9aa5b1; stroke: #9aa5b1"/>
   </g>
   <g id="patch_3">
    <path d="M 96.589268 231.7 
L 102.59122 231.7 
L 102.59122 211.068293 
L 96.589268 211.068293 
z
" clip-path="url(#pcc494aeff5)" style="fill: #9aa5b1; stroke: #9aa5b1; stroke-linejoin: miter"/>
   </g>
   <g id="patch_4">
    <path d="M 145.355122 231.7 
L 151.357073 231.7 
L 151.357073 211.068293 
L 145.355122 211.068293 
z
" clip-path="url(#pcc494aeff5)" style="fill: #9aa5b1; stroke: #9aa5b1; stroke-linejoin: miter"/>
   </g>
   <g id="patch_5">
    <path d="M 125.773756 118.75078 
C 127.763426 118.75078 129.671872 117.960276 131.078782 116.553367 
C 132.485691 115.146458 133.276195 113.238012 133.276195 111.248341 
C 133.276195 109.258671 132.485691 107.350225 131.078782 105.943316 
C 129.671872 104.536407 127.763426 103.745902 125.773756 103.745902 
C 123.784086 103.745902 121.87564 104.536407 120.468731 105.943316 
C 119.061821 107.350225 118.271317 109.258671 118.271317 111.248341 
C 118.271317 113.238012 119.061821 115.146458 120.468731 116.553367 
C 121.87564 117.960276 123.784086 118.75078 125.773756 118.75078 
z
" clip-path="url(#pcc494aeff5)" style="fill: #9aa0a6; fill-opacity: 0.3"/>
   </g>
   <g id="patch_6">
    <path d="M 124.460829 141.595707 
C 127.544818 141.595707 130.50291 140.370426 132.683619 138.189716 
C 134.864328 136.009007 136.08961 133.050915 136.08961 129.966927 
C 136.08961 126.882938 134.864328 123.924847 132.683619 121.744137 
C 130.50291 119.563428 127.544818 118.338146 124.460829 118.338146 
C 121.376841 118.338146 118.418749 119.563428 116.23804 121.744137 
C 114.05733 123.924847 112.832049 126.882938 112.832049 129.966927 
C 112.832049 133.050915 114.05733 136.009007 116.23804 138.189716 
C 118.418749 140.370426 121.376841 141.595707 124.460829 141.595707 
z
" clip-path="url(#pcc494aeff5)" style="fill: #9aa0a6; fill-opacity: 0.3"/>
   </g>
   <g id="patch_7">
    <path d="M 133.257808 111.773275 
L 136.06111 130.780574 
L 112.860548 129.15328 
L 118.289704 110.723408 
z
" clip-path="url(#pcc494aeff5)" style="fill: #9aa0a6; fill-opacity: 0.3"/>
   </g>
   <g id="patch_8">
    <path d="M 124.460829 153.224488 
C 130.628807 153.224488 136.54499 150.773924 140.906408 146.412506 
C 145.267827 142.051087 147.71839 136.134904 147.71839 129.966927 
C 147.71839 123.79895 145.267827 117.882766 140.906408 113.521348 
C 136.54499 109.159929 130.628807 106.709366 124.460829 106.709366 
C 118.292852 106.709366 112.376669 109.159929 108.01525 113.521348 
C 103.653832 117.882766 101.203268 123.79895 101.203268 129.966927 
C 101.203268 136.134904 103.653832 142.051087 108.01525 146.412506 
C 112.376669 150.773924 118.292852 153.224488 124.460829 153.224488 
z
" clip-path="url(#pcc494aeff5)" style="fill: #9aa0a6; fill-opacity: 0.3"/>
   </g>
   <g id="patch_9">
    <path d="M 119.734293 214.594439 
C 124.310534 214.594439 128.69996 212.776279 131.935851 209.540388 
C 135.171743 206.304497 136.989902 201.91507 136.989902 197.338829 
C 136.989902 192.762588 135.171743 188.373162 131.935851 185.137271 
C 128.69996 181.901379 124.310534 180.08322 119.734293 180.08322 
C 115.158051 180.08322 110.768625 181.901379 107.532734 185.137271 
C 104.296843 188.373162 102.478683 192.762588 102.478683 197.338829 
C 102.478683 201.91507 104.296843 206.304497 107.532734 209.540388 
C 110.768625 212.776279 115.158051 214.594439 119.734293 214.594439 
z
" clip-path="url(#pcc494aeff5)" style="fill: #9aa0a6; fill-opacity: 0.3"/>
   </g>
   <g id="patch_10">
    <path d="M 147.661366 131.594581 
L 136.947594 198.546444 
L 102.520992 196.131215 
L 101.260293 128.339272 
z
" clip-path="url(#pcc494aeff5)" style="fill: #9aa0a6; fill-opacity: 0.3"/>
   </g>
   <g id="patch_11">
    <path d="M 119.734293 211.593463 
C 123.514666 211.593463 127.140714 210.091505 129.813841 207.418378 
C 132.486969 204.74525 133.988927 201.119202 133.988927 197.338829 
C 133.988927 193.558456 132.486969 189.932408 129.813841 187.259281 
C 127.140714 184.586153 123.514666 183.084195 119.734293 183.084195 
C 115.95392 183.084195 112.327872 184.586153 109.654744 187.259281 
C 106.981617 189.932408 105.479659 193.558456 105.479659 197.338829 
C 105.479659 201.119202 106.981617 204.74525 109.654744 207.418378 
C 112.327872 210.091505 115.95392 211.593463 119.734293 211.593463 
z
" clip-path="url(#pcc494aeff5)" style="fill: #9aa0a6; fill-opacity: 0.3"/>
   </g>
   <g id="patch_12">
    <path d="M 185.83078 233.238 
C 188.268126 233.238 190.605973 232.269632 192.329437 230.546168 
C 194.052901 228.822705 195.021268 226.484858 195.021268 224.047512 
C 195.021268 221.610166 194.052901 219.27232 192.329437 217.548856 
C 190.605973 215.825392 188.268126 214.857024 185.83078 214.857024 
C 183.393435 214.857024 181.055588 215.825392 179.332124 217.548856 
C 177.60866 219.27232 176.640293 221.610166 176.640293 224.047512 
C 176.640293 226.484858 177.60866 228.822705 179.332124 230.546168 
C 181.055588 232.269632 183.393435 233.238 185.83078 233.238 
z
" clip-path="url(#pcc494aeff5)" style="fill: #9aa0a6; fill-opacity: 0.3"/>
   </g>
   <g id="patch_13">
    <path d="M 125.074855 184.122438 
L 189.274038 215.526418 
L 182.387523 232.568606 
L 114.393731 210.55522 
z
" clip-path="url(#pcc494aeff5)" style="fill: #9aa0a6; fill-opacity: 0.3"/>
   </g>
   <g id="patch_14">
    <path d="M 185.83078 233.238 
C 188.268126 233.238 190.605973 232.269632 192.329437 230.546168 
C 194.052901 228.822705 195.021268 226.484858 195.021268 224.047512 
C 195.021268 221.610166 194.052901 219.27232 192.329437 217.548856 
C 190.605973 215.825392 188.268126 214.857024 185.83078 214.857024 
C 183.393435 214.857024 181.055588 215.825392 179.332124 217.548856 
C 177.60866 219.27232 176.640293 221.610166 176.640293 224.047512 
C 176.640293 226.484858 177.60866 228.822705 179.332124 230.546168 
C 181.055588 232.269632 183.393435 233.238 185.83078 233.238 
z
" clip-path="url(#pcc494aeff5)" style="fill: #9aa0a6; fill-opacity: 0.3"/>
   </g>
   <g id="patch_15">
    <path d="M 157.734146 299.784634 
C 159.375624 299.784634 160.950092 299.132468 162.110792 297.971768 
C 163.271492 296.811068 163.923659 295.2366 163.923659 293.595122 
C 163.923659 291.953644 163.271492 290.379176 162.110792 289.218476 
C 160.950092 288.057776 159.375624 287.40561 157.734146 287.40561 
C 156.092669 287.40561 154.5182 288.057776 153.3575 289.218476 
C 152.1968 290.379176 151.544634 291.953644 151.544634 293.595122 
C 151.544634 295.2366 152.1968 296.811068 153.3575 297.971768 
C 154.5182 299.132468 156.092669 299.784634 157.734146 299.784634 
z
" clip-path="url(#pcc494aeff5)" style="fill: #9aa0a6; fill-opacity: 0.3"/>
   </g>
   <g id="patch_16">
    <path d="M 194.352156 227.490074 
L 163.473032 295.913582 
L 151.995261 291.276662 
L 177.309405 220.60495 
z
" clip-path="url(#pcc494aeff5)" style="fill: #9aa0a6; fill-opacity: 0.3"/>
   </g>
   <g id="patch_17">
    <path d="M 157.734146 298.856207 
C 159.129402 298.856207 160.4677 298.301866 161.454295 297.315271 
C 162.440891 296.328676 162.995232 294.990378 162.995232 293.595122 
C 162.995232 292.199866 162.440891 290.861568 161.454295 289.874973 
C 160.4677 288.888378 159.129402 288.334037 157.734146 288.334037 
C 156.33889 288.334037 155.000592 288.888378 154.013997 289.874973 
C 153.027402 290.861568 152.473061 292.199866 152.473061 293.595122 
C 152.473061 294.990378 153.027402 296.328676 154.013997 297.315271 
C 155.000592 298.301866 156.33889 298.856207 157.734146 298.856207 
z
" clip-path="url(#pcc494aeff5)" style="fill: #9aa0a6; fill-opacity: 0.3"/>
   </g>
   <g id="patch_18">
    <path d="M 173.489268 296.999354 
C 174.392081 296.999354 175.258039 296.640662 175.896424 296.002277 
C 176.534809 295.363892 176.8935 294.497935 176.8935 293.595122 
C 176.8935 292.692309 176.534809 291.826352 175.896424 291.187967 
C 175.258039 290.549582 174.392081 290.19089 173.489268 290.19089 
C 172.586455 290.19089 171.720498 290.549582 171.082113 291.187967 
C 170.443728 291.826352 170.085037 292.692309 170.085037 293.595122 
C 170.085037 294.497935 170.443728 295.363892 171.082113 296.002277 
C 171.720498 296.640662 172.586455 296.999354 173.489268 296.999354 
z
" clip-path="url(#pcc494aeff5)" style="fill: #9aa0a6; fill-opacity: 0.3"/>
   </g>
   <g id="patch_19">
    <path d="M 157.734146 288.334037 
L 173.489268 290.19089 
L 173.489268 296.999354 
L 157.734146 298.856207 
z
" clip-path="url(#pcc494aeff5)" style="fill: #9aa0a6; fill-opacity: 0.3"/>
   </g>
   <g id="line2d_2">
    <path d="M 133.257808 111.773275 
L 136.06111 130.780574 
L 135.083244 134.699035 
L 132.824158 138.046733 
L 129.556331 140.419888 
L 125.673911 141.532262 
L 121.645176 141.249685 
L 117.95605 139.606241 
L 115.051496 136.800154 
L 113.281847 133.169878 
L 112.860548 129.15328 
L 118.289704 110.723408 
L 118.920585 108.195369 
L 120.37806 106.035563 
L 122.486336 104.504495 
L 124.991123 103.786835 
L 127.590307 103.969143 
L 129.970388 105.029429 
L 131.844293 106.839808 
L 132.986002 109.181921 
L 133.257808 111.773275 
L 133.257808 111.773275 
" clip-path="url(#pcc494aeff5)" style="fill: none; stroke: #7d8288; stroke-opacity: 0.85; stroke-width: 1.7; stroke-linecap: round"/>
   </g>
   <g id="line2d_3">
    <path d="M 147.661366 131.594581 
L 136.947594 198.546444 
L 135.496476 204.360912 
L 132.144207 209.328412 
L 127.295118 212.849793 
L 121.534083 214.500322 
L 115.555966 214.080922 
L 110.081817 211.642178 
L 105.771899 207.478239 
L 103.146052 202.091338 
L 102.520992 196.131215 
L 101.260293 128.339272 
L 103.216147 120.502381 
L 107.734424 113.807054 
L 114.270151 109.060846 
L 122.035025 106.83622 
L 130.092487 107.401498 
L 137.470688 110.6885 
L 143.279707 116.300765 
L 146.818893 123.561371 
L 147.661366 131.594581 
L 147.661366 131.594581 
" clip-path="url(#pcc494aeff5)" style="fill: none; stroke: #7d8288; stroke-opacity: 0.85; stroke-width: 1.7; stroke-linecap: round"/>
   </g>
   <g id="patch_20">
    <path d="M 124.460829 139.344976 
C 126.947917 139.344976 129.333475 138.356845 131.092111 136.598209 
C 132.850748 134.839572 133.838878 132.454014 133.838878 129.966927 
C 133.838878 127.479839 132.850748 125.094281 131.092111 123.335645 
C 129.333475 121.577008 126.947917 120.588878 124.460829 120.588878 
C 121.973742 120.588878 119.588184 121.577008 117.829547 123.335645 
C 116.070911 125.094281 115.08278 127.479839 115.08278 129.966927 
C 115.08278 132.454014 116.070911 134.839572 117.829547 136.598209 
C 119.588184 138.356845 121.973742 139.344976 124.460829 139.344976 
z
" clip-path="url(#pcc494aeff5)" style="fill: #9aa0a6; fill-opacity: 0.3"/>
   </g>
   <g id="patch_21">
    <path d="M 150.944439 151.011268 
C 152.784884 151.011268 154.550197 150.280052 155.851588 148.978661 
C 157.152979 147.67727 157.884195 145.911957 157.884195 144.071512 
C 157.884195 142.231067 157.152979 140.465755 155.851588 139.164364 
C 154.550197 137.862973 152.784884 137.131756 150.944439 137.131756 
C 149.103994 137.131756 147.338681 137.862973 146.03729 139.164364 
C 144.735899 140.465755 144.004683 142.231067 144.004683 144.071512 
C 144.004683 145.911957 144.735899 147.67727 146.03729 148.978661 
C 147.338681 150.280052 149.103994 151.011268 150.944439 151.011268 
z
" clip-path="url(#pcc494aeff5)" style="fill: #9aa0a6; fill-opacity: 0.3"/>
   </g>
   <g id="patch_22">
    <path d="M 128.86916 121.689583 
L 154.206604 137.946278 
L 147.682274 150.196747 
L 120.052499 138.244271 
z
" clip-path="url(#pcc494aeff5)" style="fill: #9aa0a6; fill-opacity: 0.3"/>
   </g>
   <g id="patch_23">
    <path d="M 150.944439 151.011268 
C 152.784884 151.011268 154.550197 150.280052 155.851588 148.978661 
C 157.152979 147.67727 157.884195 145.911957 157.884195 144.071512 
C 157.884195 142.231067 157.152979 140.465755 155.851588 139.164364 
C 154.550197 137.862973 152.784884 137.131756 150.944439 137.131756 
C 149.103994 137.131756 147.338681 137.862973 146.03729 139.164364 
C 144.735899 140.465755 144.004683 142.231067 144.004683 144.071512 
C 144.004683 145.911957 144.735899 147.67727 146.03729 148.978661 
C 147.338681 150.280052 149.103994 151.011268 150.944439 151.011268 
z
" clip-path="url(#pcc494aeff5)" style="fill: #9aa0a6; fill-opacity: 0.3"/>
   </g>
   <g id="patch_24">
    <path d="M 180.316488 156.112927 
C 181.858482 156.112927 183.337528 155.500286 184.427883 154.409931 
C 185.518237 153.319577 186.130878 151.840531 186.130878 150.298537 
C 186.130878 148.756542 185.518237 147.277496 184.427883 146.187142 
C 183.337528 145.096787 181.858482 144.484146 180.316488 144.484146 
C 178.774493 144.484146 177.295448 145.096787 176.205093 146.187142 
C 175.114738 147.277496 174.502098 148.756542 174.502098 150.298537 
C 174.502098 151.840531 175.114738 153.319577 176.205093 154.409931 
C 177.295448 155.500286 178.774493 156.112927 180.316488 156.112927 
z
" clip-path="url(#pcc494aeff5)" style="fill: #9aa0a6; fill-opacity: 0.3"/>
   </g>
   <g id="patch_25">
    <path d="M 152.383713 137.282646 
L 181.522366 144.610568 
L 179.110609 155.986506 
L 149.505165 150.860378 
z
" clip-path="url(#pcc494aeff5)" style="fill: #9aa0a6; fill-opacity: 0.3"/>
   </g>
   <g id="patch_26">
    <path d="M 157.734146 298.051571 
C 158.91601 298.051571 160.049627 297.582011 160.885331 296.746307 
C 161.721036 295.910603 162.190595 294.776986 162.190595 293.595122 
C 162.190595 292.413258 161.721036 291.279641 160.885331 290.443937 
C 160.049627 289.608233 158.91601 289.138673 157.734146 289.138673 
C 156.552282 289.138673 155.418665 289.608233 154.582961 290.443937 
C 153.747257 291.279641 153.277698 292.413258 153.277698 293.595122 
C 153.277698 294.776986 153.747257 295.910603 154.582961 296.746307 
C 155.418665 297.582011 156.552282 298.051571 157.734146 298.051571 
z
" clip-path="url(#pcc494aeff5)" style="fill: #9aa0a6; fill-opacity: 0.3; stroke: #7d8288; stroke-opacity: 0.85; stroke-width: 1.3; stroke-linejoin: miter"/>
   </g>
   <g id="patch_27">
    <path d="M 180.316488 156.488049 
C 181.957966 156.488049 183.532434 155.835883 184.693134 154.675183 
C 185.853834 153.514483 186.506 151.940014 186.506 150.298537 
C 186.506 148.657059 185.853834 147.082591 184.693134 145.921891 
C 183.532434 144.76119 181.957966 144.109024 180.316488 144.109024 
C 178.67501 144.109024 177.100542 144.76119 175.939842 145.921891 
C 174.779142 147.082591 174.126976 148.657059 174.126976 150.298537 
C 174.126976 151.940014 174.779142 153.514483 175.939842 154.675183 
C 177.100542 155.835883 178.67501 156.488049 180.316488 156.488049 
z
" clip-path="url(#pcc494aeff5)" style="fill: #9aa0a6; fill-opacity: 0.3; stroke: #7d8288; stroke-opacity: 0.85; stroke-width: 1.6; stroke-linejoin: miter"/>
   </g>
   <g id="line2d_4">
    <path d="M 125.074855 184.122438 
L 189.274038 215.526418 
L 191.98077 217.217966 
L 193.945722 219.733258 
L 194.931893 222.768913 
L 194.820335 225.958786 
L 193.624505 228.918131 
L 191.488636 231.290007 
L 188.670346 232.788332 
L 185.509563 233.232385 
L 182.387523 232.568606 
L 114.393731 210.55522 
L 110.195534 207.931595 
L 107.147852 204.030325 
L 105.618281 199.321962 
L 105.791309 194.374405 
L 107.646067 189.7844 
L 110.958843 186.105571 
L 115.330068 183.781639 
L 120.232508 183.092904 
L 125.074855 184.122438 
L 125.074855 184.122438 
" clip-path="url(#pcc494aeff5)" style="fill: none; stroke: #7d8288; stroke-opacity: 0.85; stroke-width: 1.7; stroke-linecap: round"/>
   </g>
   <g id="line2d_5">
    <path d="M 194.352156 227.490074 
L 163.473032 295.913582 
L 162.333974 297.736576 
L 160.64011 299.06005 
L 158.595744 299.724372 
L 156.447456 299.649417 
L 154.454362 298.844224 
L 152.856858 297.405912 
L 151.847628 295.507963 
L 151.548398 293.379296 
L 151.995261 291.276662 
L 177.309405 220.60495 
L 179.000733 217.89808 
L 181.515865 215.932922 
L 184.551439 214.946504 
L 187.741321 215.057801 
L 190.700763 216.253391 
L 193.072814 218.389066 
L 194.571369 221.207233 
L 195.015679 224.36798 
L 194.352156 227.490074 
L 194.352156 227.490074 
" clip-path="url(#pcc494aeff5)" style="fill: none; stroke: #7d8288; stroke-opacity: 0.85; stroke-width: 1.7; stroke-linecap: round"/>
   </g>
   <g id="line2d_6">
    <path d="M 157.734146 288.334037 
L 173.489268 290.19089 
L 174.653584 290.396191 
L 175.677466 290.987329 
L 176.437419 291.893006 
L 176.841782 293.003983 
L 176.841782 294.186261 
L 176.437419 295.297238 
L 175.677466 296.202915 
L 174.653584 296.794053 
L 173.489268 296.999354 
L 157.734146 298.856207 
L 155.934749 298.538925 
L 154.352386 297.625347 
L 153.177913 296.225665 
L 152.552989 294.5087 
L 152.552989 292.681544 
L 153.177913 290.964579 
L 154.352386 289.564897 
L 155.934749 288.651319 
L 157.734146 288.334037 
L 157.734146 288.334037 
" clip-path="url(#pcc494aeff5)" style="fill: none; stroke: #7d8288; stroke-opacity: 0.85; stroke-width: 1.5; stroke-linecap: round"/>
   </g>
   <g id="line2d_7">
    <path d="M 128.86916 121.689583 
L 154.206604 137.946278 
L 156.104825 139.431401 
L 157.380627 141.476189 
L 157.88013 143.834012 
L 157.543086 146.220481 
L 156.410148 148.347753 
L 154.617965 149.959247 
L 152.382701 150.860593 
L 149.973961 150.943076 
L 147.682274 150.196747 
L 120.052499 138.244271 
L 117.487335 136.237348 
L 115.763278 133.47412 
L 115.088274 130.287873 
L 115.543738 127.062915 
L 117.074735 124.188223 
L 119.496604 122.010529 
L 122.517232 120.792493 
L 125.772287 120.68103 
L 128.86916 121.689583 
L 128.86916 121.689583 
" clip-path="url(#pcc494aeff5)" style="fill: none; stroke: #7d8288; stroke-opacity: 0.85; stroke-width: 1.7; stroke-linecap: round"/>
   </g>
   <g id="line2d_8">
    <path d="M 152.383713 137.282646 
L 181.522366 144.610568 
L 183.395043 145.366029 
L 184.8964 146.716423 
L 185.845353 148.498873 
L 186.127442 150.49839 
L 185.708645 152.473801 
L 184.639474 154.186842 
L 183.048887 155.430897 
L 181.128733 156.055914 
L 179.110609 155.986506 
L 149.505165 150.860378 
L 147.270035 149.958699 
L 145.478092 148.346938 
L 144.345471 146.219497 
L 144.008784 143.832978 
L 144.508638 141.475229 
L 145.784746 139.430631 
L 147.683188 137.945791 
L 149.974985 137.199804 
L 152.383713 137.282646 
L 152.383713 137.282646 
" clip-path="url(#pcc494aeff5)" style="fill: none; stroke: #7d8288; stroke-opacity: 0.85; stroke-width: 1.7; stroke-linecap: round"/>
   </g>
   <g id="patch_28">
    <path d="M 125.773756 126.25322 
C 129.753096 126.25322 133.569989 124.672211 136.383807 121.858392 
C 139.197626 119.044574 140.778634 115.227682 140.778634 111.248341 
C 140.778634 107.269001 139.197626 103.452109 136.383807 100.63829 
C 133.569989 97.824472 129.753096 96.243463 125.773756 96.243463 
C 121.794416 96.243463 117.977523 97.824472 115.163705 100.63829 
C 112.349887 103.452109 110.768878 107.269001 110.768878 111.248341 
C 110.768878 115.227682 112.349887 119.044574 115.163705 121.858392 
C 117.977523 124.672211 121.794416 126.25322 125.773756 126.25322 
z
" clip-path="url(#pcc494aeff5)" style="fill: #9aa0a6; fill-opacity: 0.3; stroke: #7d8288; stroke-opacity: 0.85; stroke-width: 1.8; stroke-linejoin: miter"/>
   </g>
   <g id="patch_29">
    <path d="M 157.734146 68.521951 
C 159.723816 68.521951 161.632263 67.731447 163.039172 66.324538 
C 164.446081 64.917628 165.236585 63.009182 165.236585 61.019512 
C 165.236585 59.029842 164.446081 57.121396 163.039172 55.714487 
C 161.632263 54.307577 159.723816 53.517073 157.734146 53.517073 
C 155.744476 53.517073 153.83603 54.307577 152.429121 55.714487 
C 151.022212 57.121396 150.231707 59.029842 150.231707 61.019512 
C 150.231707 63.009182 151.022212 64.917628 152.429121 66.324538 
C 153.83603 67.731447 155.744476 68.521951 157.734146 68.521951 
z
" clip-path="url(#pcc494aeff5)" style="fill: #2c3e50"/>
   </g>
   <g id="patch_30">
    <path d="M 157.734146 91.40439 
C 160.818135 91.40439 163.776227 90.179109 165.956936 87.998399 
C 168.137645 85.81769 169.362927 82.859598 169.362927 79.77561 
C 169.362927 76.691621 168.137645 73.733529 165.956936 71.55282 
C 163.776227 69.372111 160.818135 68.146829 157.734146 68.146829 
C 154.650158 68.146829 151.692066 69.372111 149.511357 71.55282 
C 147.330648 73.733529 146.105366 76.691621 146.105366 79.77561 
C 146.105366 82.859598 147.330648 85.81769 149.511357 87.998399 
C 151.692066 90.179109 154.650158 91.40439 157.734146 91.40439 
z
" clip-path="url(#pcc494aeff5)" style="fill: #2c3e50"/>
   </g>
   <g id="patch_31">
    <path d="M 165.236585 61.019512 
L 169.362927 79.77561 
L 146.105366 79.77561 
L 150.231707 61.019512 
z
" clip-path="url(#pcc494aeff5)" style="fill: #2c3e50"/>
   </g>
   <g id="patch_32">
    <path d="M 157.734146 103.033171 
C 163.902124 103.033171 169.818307 100.582607 174.179725 96.221189 
C 178.541144 91.85977 180.991707 85.943587 180.991707 79.77561 
C 180.991707 73.607632 178.541144 67.691449 174.179725 63.330031 
C 169.818307 58.968612 163.902124 56.518049 157.734146 56.518049 
C 151.566169 56.518049 145.649986 58.968612 141.288567 63.330031 
C 136.927149 67.691449 134.476585 73.607632 134.476585 79.77561 
C 134.476585 85.943587 136.927149 91.85977 141.288567 96.221189 
C 145.649986 100.582607 151.566169 103.033171 157.734146 103.033171 
z
" clip-path="url(#pcc494aeff5)" style="fill: #2c3e50"/>
   </g>
   <g id="patch_33">
    <path d="M 157.734146 164.553171 
C 162.310388 164.553171 166.699814 162.735011 169.935705 159.49912 
C 173.171596 156.263228 174.989756 151.873802 174.989756 147.297561 
C 174.989756 142.72132 173.171596 138.331893 169.935705 135.096002 
C 166.699814 131.860111 162.310388 130.041951 157.734146 130.041951 
C 153.157905 130.041951 148.768479 131.860111 145.532588 135.096002 
C 142.296696 138.331893 140.478537 142.72132 140.478537 147.297561 
C 140.478537 151.873802 142.296696 156.263228 145.532588 159.49912 
C 148.768479 162.735011 153.157905 164.553171 157.734146 164.553171 
z
" clip-path="url(#pcc494aeff5)" style="fill: #2c3e50"/>
   </g>
   <g id="patch_34">
    <path d="M 180.991707 79.77561 
L 174.989756 147.297561 
L 140.478537 147.297561 
L 134.476585 79.77561 
z
" clip-path="url(#pcc494aeff5)" style="fill: #2c3e50"/>
   </g>
   <g id="patch_35">
    <path d="M 157.734146 161.552195 
C 161.51452 161.552195 165.140567 160.050237 167.813695 157.377109 
C 170.486822 154.703982 171.98878 151.077934 171.98878 147.297561 
C 171.98878 143.517188 170.486822 139.89114 167.813695 137.218013 
C 165.140567 134.544885 161.51452 133.042927 157.734146 133.042927 
C 153.953773 133.042927 150.327725 134.544885 147.654598 137.218013 
C 144.98147 139.89114 143.479512 143.517188 143.479512 147.297561 
C 143.479512 151.077934 144.98147 154.703982 147.654598 157.377109 
C 150.327725 160.050237 153.953773 161.552195 157.734146 161.552195 
z
" clip-path="url(#pcc494aeff5)" style="fill: #3c3f42"/>
   </g>
   <g id="patch_36">
    <path d="M 157.734146 227.76122 
C 160.171492 227.76122 162.509339 226.792852 164.232803 225.069388 
C 165.956266 223.345924 166.924634 221.008078 166.924634 218.570732 
C 166.924634 216.133386 165.956266 213.795539 164.232803 212.072075 
C 162.509339 210.348612 160.171492 209.380244 157.734146 209.380244 
C 155.2968 209.380244 152.958954 210.348612 151.23549 212.072075 
C 149.512026 213.795539 148.543659 216.133386 148.543659 218.570732 
C 148.543659 221.008078 149.512026 223.345924 151.23549 225.069388 
C 152.958954 226.792852 155.2968 227.76122 157.734146 227.76122 
z
" clip-path="url(#pcc494aeff5)" style="fill: #3c3f42"/>
   </g>
   <g id="patch_37">
    <path d="M 171.98878 147.297561 
L 166.924634 218.570732 
L 148.543659 218.570732 
L 143.479512 147.297561 
z
" clip-path="url(#pcc494aeff5)" style="fill: #3c3f42"/>
   </g>
   <g id="patch_38">
    <path d="M 157.734146 227.76122 
C 160.171492 227.76122 162.509339 226.792852 164.232803 225.069388 
C 165.956266 223.345924 166.924634 221.008078 166.924634 218.570732 
C 166.924634 216.133386 165.956266 213.795539 164.232803 212.072075 
C 162.509339 210.348612 160.171492 209.380244 157.734146 209.380244 
C 155.2968 209.380244 152.958954 210.348612 151.23549 212.072075 
C 149.512026 213.795539 148.543659 216.133386 148.543659 218.570732 
C 148.543659 221.008078 149.512026 223.345924 151.23549 225.069388 
C 152.958954 226.792852 155.2968 227.76122 157.734146 227.76122 
z
" clip-path="url(#pcc494aeff5)" style="fill: #3c3f42"/>
   </g>
   <g id="patch_39">
    <path d="M 157.734146 299.784634 
C 159.375624 299.784634 160.950092 299.132468 162.110792 297.971768 
C 163.271492 296.811068 163.923659 295.2366 163.923659 293.595122 
C 163.923659 291.953644 163.271492 290.379176 162.110792 289.218476 
C 160.950092 288.057776 159.375624 287.40561 157.734146 287.40561 
C 156.092669 287.40561 154.5182 288.057776 153.3575 289.218476 
C 152.1968 290.379176 151.544634 291.953644 151.544634 293.595122 
C 151.544634 295.2366 152.1968 296.811068 153.3575 297.971768 
C 154.5182 299.132468 156.092669 299.784634 157.734146 299.784634 
z
" clip-path="url(#pcc494aeff5)" style="fill: #3c3f42"/>
   </g>
   <g id="patch_40">
    <path d="M 166.924634 218.570732 
L 163.923659 293.595122 
L 151.544634 293.595122 
L 148.543659 218.570732 
z
" clip-path="url(#pcc494aeff5)" style="fill: #3c3f42"/>
   </g>
   <g id="patch_41">
    <path d="M 157.734146 298.856207 
C 159.129402 298.856207 160.4677 298.301866 161.454295 297.315271 
C 162.440891 296.328676 162.995232 294.990378 162.995232 293.595122 
C 162.995232 292.199866 162.440891 290.861568 161.454295 289.874973 
C 160.4677 288.888378 159.129402 288.334037 157.734146 288.334037 
C 156.33889 288.334037 155.000592 288.888378 154.013997 289.874973 
C 153.027402 290.861568 152.473061 292.199866 152.473061 293.595122 
C 152.473061 294.990378 153.027402 296.328676 154.013997 297.315271 
C 155.000592 298.301866 156.33889 298.856207 157.734146 298.856207 
z
" clip-path="url(#pcc494aeff5)" style="fill: #1b1b1b"/>
   </g>
   <g id="patch_42">
    <path d="M 173.489268 296.999354 
C 174.392081 296.999354 175.258039 296.640662 175.896424 296.002277 
C 176.534809 295.363892 176.8935 294.497935 176.8935 293.595122 
C 176.8935 292.692309 176.534809 291.826352 175.896424 291.187967 
C 175.258039 290.549582 174.392081 290.19089 173.489268 290.19089 
C 172.586455 290.19089 171.720498 290.549582 171.082113 291.187967 
C 170.443728 291.826352 170.085037 292.692309 170.085037 293.595122 
C 170.085037 294.497935 170.443728 295.363892 171.082113 296.002277 
C 171.720498 296.640662 172.586455 296.999354 173.489268 296.999354 
z
" clip-path="url(#pcc494aeff5)" style="fill: #1b1b1b"/>
   </g>
   <g id="patch_43">
    <path d="M 157.734146 288.334037 
L 173.489268 290.19089 
L 173.489268 296.999354 
L 157.734146 298.856207 
z
" clip-path="url(#pcc494aeff5)" style="fill: #1b1b1b"/>
   </g>
   <g id="line2d_9">
    <path d="M 165.236585 61.019512 
L 169.362927 79.77561 
L 168.661626 83.752887 
L 166.642309 87.250446 
L 163.548537 89.846429 
L 159.753463 91.227723 
L 155.71483 91.227723 
L 151.919756 89.846429 
L 148.825984 87.250446 
L 146.806667 83.752887 
L 146.105366 79.77561 
L 150.231707 61.019512 
L 150.68416 58.453527 
L 151.986945 56.197037 
L 153.982927 54.522209 
L 156.431361 53.631052 
L 159.036931 53.631052 
L 161.485366 54.522209 
L 163.481348 56.197037 
L 164.784133 58.453527 
L 165.236585 61.019512 
L 165.236585 61.019512 
" clip-path="url(#pcc494aeff5)" style="fill: none; stroke: #1d2a36; stroke-width: 1.7; stroke-linecap: round"/>
   </g>
   <g id="line2d_10">
    <path d="M 180.991707 79.77561 
L 174.989756 147.297561 
L 173.949115 153.199327 
L 170.95271 158.389253 
L 166.361951 162.241357 
L 160.730552 164.291019 
L 154.737741 164.291019 
L 149.106341 162.241357 
L 144.515582 158.389253 
L 141.519177 153.199327 
L 140.478537 147.297561 
L 134.476585 79.77561 
L 135.879188 71.821055 
L 139.917821 64.825938 
L 146.105366 59.633971 
L 153.695513 56.871383 
L 161.772779 56.871383 
L 169.362927 59.633971 
L 175.550472 64.825938 
L 179.589105 71.821055 
L 180.991707 79.77561 
L 180.991707 79.77561 
" clip-path="url(#pcc494aeff5)" style="fill: none; stroke: #1d2a36; stroke-width: 1.7; stroke-linecap: round"/>
   </g>
   <g id="patch_44">
    <path d="M 157.734146 89.153659 
C 160.221234 89.153659 162.606792 88.165528 164.365428 86.406892 
C 166.124065 84.648255 167.112195 82.262697 167.112195 79.77561 
C 167.112195 77.288522 166.124065 74.902964 164.365428 73.144328 
C 162.606792 71.385691 160.221234 70.397561 157.734146 70.397561 
C 155.247059 70.397561 152.861501 71.385691 151.102864 73.144328 
C 149.344228 74.902964 148.356098 77.288522 148.356098 79.77561 
C 148.356098 82.262697 149.344228 84.648255 151.102864 86.406892 
C 152.861501 88.165528 155.247059 89.153659 157.734146 89.153659 
z
" clip-path="url(#pcc494aeff5)" style="fill: #2c3e50"/>
   </g>
   <g id="patch_45">
    <path d="M 157.734146 116.725122 
C 159.574591 116.725122 161.339904 115.993905 162.641295 114.692514 
C 163.942686 113.391123 164.673902 111.625811 164.673902 109.785366 
C 164.673902 107.944921 163.942686 106.179608 162.641295 104.878217 
C 161.339904 103.576826 159.574591 102.84561 157.734146 102.84561 
C 155.893702 102.84561 154.128389 103.576826 152.826998 104.878217 
C 151.525607 106.179608 150.79439 107.944921 150.79439 109.785366 
C 150.79439 111.625811 151.525607 113.391123 152.826998 114.692514 
C 154.128389 115.993905 155.893702 116.725122 157.734146 116.725122 
z
" clip-path="url(#pcc494aeff5)" style="fill: #2c3e50"/>
   </g>
   <g id="patch_46">
    <path d="M 167.112195 79.77561 
L 164.673902 109.785366 
L 150.79439 109.785366 
L 148.356098 79.77561 
z
" clip-path="url(#pcc494aeff5)" style="fill: #2c3e50"/>
   </g>
   <g id="patch_47">
    <path d="M 157.734146 116.725122 
C 159.574591 116.725122 161.339904 115.993905 162.641295 114.692514 
C 163.942686 113.391123 164.673902 111.625811 164.673902 109.785366 
C 164.673902 107.944921 163.942686 106.179608 162.641295 104.878217 
C 161.339904 103.576826 159.574591 102.84561 157.734146 102.84561 
C 155.893702 102.84561 154.128389 103.576826 152.826998 104.878217 
C 151.525607 106.179608 150.79439 107.944921 150.79439 109.785366 
C 150.79439 111.625811 151.525607 113.391123 152.826998 114.692514 
C 154.128389 115.993905 155.893702 116.725122 157.734146 116.725122 
z
" clip-path="url(#pcc494aeff5)" style="fill: #2c3e50"/>
   </g>
   <g id="patch_48">
    <path d="M 157.734146 145.609512 
C 159.276141 145.609512 160.755186 144.996871 161.845541 143.906517 
C 162.935896 142.816162 163.548537 141.337116 163.548537 139.795122 
C 163.548537 138.253128 162.935896 136.774082 161.845541 135.683727 
C 160.755186 134.593373 159.276141 133.980732 157.734146 133.980732 
C 156.192152 133.980732 154.713106 134.593373 153.622752 135.683727 
C 152.532397 136.774082 151.919756 138.253128 151.919756 139.795122 
C 151.919756 141.337116 152.532397 142.816162 153.622752 143.906517 
C 154.713106 144.996871 156.192152 145.609512 157.734146 145.609512 
z
" clip-path="url(#pcc494aeff5)" style="fill: #2c3e50"/>
   </g>
   <g id="patch_49">
    <path d="M 164.673902 109.785366 
L 163.548537 139.795122 
L 151.919756 139.795122 
L 150.79439 109.785366 
z
" clip-path="url(#pcc494aeff5)" style="fill: #2c3e50"/>
   </g>
   <g id="patch_50">
    <path d="M 157.734146 298.051571 
C 158.91601 298.051571 160.049627 297.582011 160.885331 296.746307 
C 161.721036 295.910603 162.190595 294.776986 162.190595 293.595122 
C 162.190595 292.413258 161.721036 291.279641 160.885331 290.443937 
C 160.049627 289.608233 158.91601 289.138673 157.734146 289.138673 
C 156.552282 289.138673 155.418665 289.608233 154.582961 290.443937 
C 153.747257 291.279641 153.277698 292.413258 153.277698 293.595122 
C 153.277698 294.776986 153.747257 295.910603 154.582961 296.746307 
C 155.418665 297.582011 156.552282 298.051571 157.734146 298.051571 
z
" clip-path="url(#pcc494aeff5)" style="fill: #1b1b1b; stroke: #121212; stroke-width: 1.3; stroke-linejoin: miter"/>
   </g>
   <g id="patch_51">
    <path d="M 157.734146 145.984634 
C 159.375624 145.984634 160.950092 145.332468 162.110792 144.171768 
C 163.271492 143.011068 163.923659 141.4366 163.923659 139.795122 
C 163.923659 138.153644 163.271492 136.579176 162.110792 135.418476 
C 160.950092 134.257776 159.375624 133.60561 157.734146 133.60561 
C 156.092669 133.60561 154.5182 134.257776 153.3575 135.418476 
C 152.1968 136.579176 151.544634 138.153644 151.544634 139.795122 
C 151.544634 141.4366 152.1968 143.011068 153.3575 144.171768 
C 154.5182 145.332468 156.092669 145.984634 157.734146 145.984634 
z
" clip-path="url(#pcc494aeff5)" style="fill: #f2e0c9; stroke: #a49888; stroke-width: 1.6; stroke-linejoin: miter"/>
   </g>
   <g id="line2d_11">
    <path d="M 171.98878 147.297561 
L 166.924634 218.570732 
L 166.37038 221.714064 
L 164.774468 224.478263 
L 162.32939 226.529928 
L 159.330058 227.621595 
L 156.138235 227.621595 
L 153.138902 226.529928 
L 150.693824 224.478263 
L 149.097913 221.714064 
L 148.543659 218.570732 
L 143.479512 147.297561 
L 144.339172 142.422189 
L 146.814463 138.134859 
L 150.606829 134.952686 
L 155.258855 133.259487 
L 160.209438 133.259487 
L 164.861463 134.952686 
L 168.65383 138.134859 
L 171.129121 142.422189 
L 171.98878 147.297561 
L 171.98878 147.297561 
" clip-path="url(#pcc494aeff5)" style="fill: none; stroke: #282a2c; stroke-width: 1.7; stroke-linecap: round"/>
   </g>
   <g id="line2d_12">
    <path d="M 166.924634 218.570732 
L 163.923659 293.595122 
L 163.550385 295.71206 
L 162.475588 297.573664 
L 160.828902 298.955397 
L 158.808944 299.690602 
L 156.659349 299.690602 
L 154.63939 298.955397 
L 152.992705 297.573664 
L 151.917907 295.71206 
L 151.544634 293.595122 
L 148.543659 218.570732 
L 149.097913 215.4274 
L 150.693824 212.6632 
L 153.138902 210.611536 
L 156.138235 209.519868 
L 159.330058 209.519868 
L 162.32939 210.611536 
L 164.774468 212.6632 
L 166.37038 215.4274 
L 166.924634 218.570732 
L 166.924634 218.570732 
" clip-path="url(#pcc494aeff5)" style="fill: none; stroke: #282a2c; stroke-width: 1.7; stroke-linecap: round"/>
   </g>
   <g id="line2d_13">
    <path d="M 157.734146 288.334037 
L 173.489268 290.19089 
L 174.653584 290.396191 
L 175.677466 290.987329 
L 176.437419 291.893006 
L 176.841782 293.003983 
L 176.841782 294.186261 
L 176.437419 295.297238 
L 175.677466 296.202915 
L 174.653584 296.794053 
L 173.489268 296.999354 
L 157.734146 298.856207 
L 155.934749 298.538925 
L 154.352386 297.625347 
L 153.177913 296.225665 
L 152.552989 294.5087 
L 152.552989 292.681544 
L 153.177913 290.964579 
L 154.352386 289.564897 
L 155.934749 288.651319 
L 157.734146 288.334037 
L 157.734146 288.334037 
" clip-path="url(#pcc494aeff5)" style="fill: none; stroke: #121212; stroke-width: 1.5; stroke-linecap: round"/>
   </g>
   <g id="line2d_14">
    <path d="M 167.112195 79.77561 
L 164.673902 109.785366 
L 164.255384 112.158902 
L 163.050308 114.246155 
L 161.204024 115.795371 
L 158.939222 116.619691 
L 156.52907 116.619691 
L 154.264268 115.795371 
L 152.417985 114.246155 
L 151.212909 112.158902 
L 150.79439 109.785366 
L 148.356098 79.77561 
L 148.921663 76.568128 
L 150.550144 73.747516 
L 153.045122 71.653981 
L 156.105665 70.540035 
L 159.362627 70.540035 
L 162.423171 71.653981 
L 164.918148 73.747516 
L 166.54663 76.568128 
L 167.112195 79.77561 
L 167.112195 79.77561 
" clip-path="url(#pcc494aeff5)" style="fill: none; stroke: #1d2a36; stroke-width: 1.7; stroke-linecap: round"/>
   </g>
   <g id="line2d_15">
    <path d="M 164.673902 109.785366 
L 163.548537 139.795122 
L 163.197886 141.783761 
L 162.188228 143.53254 
L 160.641341 144.830532 
L 158.743805 145.521179 
L 156.724488 145.521179 
L 154.826951 144.830532 
L 153.280065 143.53254 
L 152.270407 141.783761 
L 151.919756 139.795122 
L 150.79439 109.785366 
L 151.212909 107.411829 
L 152.417985 105.324577 
L 154.264268 103.775361 
L 156.52907 102.95104 
L 158.939222 102.95104 
L 161.204024 103.775361 
L 163.050308 105.324577 
L 164.255384 107.411829 
L 164.673902 109.785366 
L 164.673902 109.785366 
" clip-path="url(#pcc494aeff5)" style="fill: none; stroke: #1d2a36; stroke-width: 1.7; stroke-linecap: round"/>
   </g>
   <g id="patch_52">
    <path d="M 157.734146 76.02439 
C 161.713487 76.02439 165.530379 74.443382 168.344197 71.629563 
C 171.158016 68.815745 172.739024 64.998852 172.739024 61.019512 
C 172.739024 57.040172 171.158016 53.22328 168.344197 50.409461 
C 165.530379 47.595643 161.713487 46.014634 157.734146 46.014634 
C 153.754806 46.014634 149.937914 47.595643 147.124095 50.409461 
C 144.310277 53.22328 142.729268 57.040172 142.729268 61.019512 
C 142.729268 64.998852 144.310277 68.815745 147.124095 71.629563 
C 149.937914 74.443382 153.754806 76.02439 157.734146 76.02439 
z
" clip-path="url(#pcc494aeff5)" style="fill: #f2e0c9; stroke: #a49888; stroke-width: 1.8; stroke-linejoin: miter"/>
   </g>
   <g id="patch_53">
    <path d="M 108.878318 191.414153 
Q 143.127423 173.820163 156.140758 140.206984 
" clip-path="url(#pcc494aeff5)" style="fill: none; stroke-dasharray: 2.2,0; stroke-dashoffset: 0; stroke: #c0392b; stroke-width: 2.2; stroke-linecap: round"/>
    <path d="M 151.507806 144.418368 
L 156.140758 140.206984 
L 156.730094 146.440176 
z
" clip-path="url(#pcc494aeff5)" style="fill: #c0392b; stroke-dasharray: 2.2,0; stroke-dashoffset: 0; stroke: #c0392b; stroke-width: 2.2; stroke-linecap: round"/>
   </g>
  </g>
 </g>
 <defs>
  <clipPath id="pcc494aeff5">
   <rect x="5.809756" y="1" width="247.580488" height="307.6"/>
  </clipPath>
 </defs>
</svg>
