<?xml version="1.0" encoding="utf-8" standalone="no"?>
<!DOCTYPE svg PUBLIC "-//W3C//DTD SVG 1.1//EN"
  "http://www.w3.org/Graphics/SVG/1.1/DTD/svg11.dtd">
<svg xmlns:xlink="http://www.w3.org/1999/xlink" width="259.2pt" height="309.6pt" viewBox="0 0 259.2 309.6" xmlns="http://www.w3.org/2000/svg" version="1.1">
 <metadata>
  <rdf:RDF xmlns:dc="http://purl.org/dc/elements/1.1/" xmlns:cc="http://creativecommons.org/ns#" xmlns:rdf="http://www.w3.org/1999/02/22-rdf-syntax-ns#">
   <cc:Work>
    <dc:type rdf:resource="http://purl.org/dc/dcmitype/StillImage"/>
    <dc:date>2026-07-10T23:04:56.115502</dc:date>
    <dc:format>image/svg+xml</dc:format>
    <dc:creator>
     <cc:Agent>
      <dc:title>Matplotlib v3.10.8, https://matplotlib.org/</dc:title>
     </cc:Agent>
    </dc:creator>
   </cc:Work>
  </rdf:RDF>
 </metadata>
 <defs>
  <style type="text/css">*{stroke-linejoin: round; stroke-linecap: butt}</style>
 </defs>
 <g id="figure_1">
  <g id="patch_1">
   <path d="M 0 309.6 
L 259.2 309.6 
L 259.2 0 
L 0 0 
L 0 309.6 
z
" style="fill: none"/>
  </g>
  <g id="axes_1">
   <g id="line2d_1">
    <path d="M 17.063415 299.221951 
L 242.136585 299.221951 
" clip-path="url(#p55f15ee794)" style="fill: none; stroke: #c3c3c3; stroke-width: 3; stroke-linecap: round"/>
   </g>
   <g id="patch_2">
    <path d="M 129.6 160.411824 
C 133.077943 160.411824 136.413907 159.030023 138.873185 156.570746 
C 141.332462 154.111468 142.714263 150.775504 142.714263 147.297561 
C 142.714263 143.819618 141.332462 140.483654 138.873185 138.024376 
C 136.413907 135.565099 133.077943 134.183298 129.6 134.183298 
C 126.122057 134.183298 122.786093 135.565099 120.326815 138.024376 
C 117.867538 140.483654 116.485737 143.819618 116.485737 147.297561 
C 116.485737 150.775504 117.867538 154.111468 120.326815 156.570746 
C 122.786093 159.030023 126.122057 160.411824 129.6 160.411824 
z
" clip-path="url(#p55f15ee794)" style="fill: #3c3f42; fill-opacity: 0.95"/>
   </g>
   <g id="patch_3">
    <path d="M 123.973171 225.150371 
C 126.215529 225.150371 128.366348 224.259472 129.951934 222.673886 
C 131.537521 221.088299 132.42842 218.93748 132.42842 216.695122 
C 132.42842 214.452764 131.537521 212.301945 129.951934 210.716358 
C 128.366348 209.130772 126.215529 208.239873 123.973171 208.239873 
C 121.730813 208.239873 119.579994 209.130772 117.994407 210.716358 
C 116.40882 212.301945 115.517922 214.452764 115.517922 216.695122 
C 115.517922 218.93748 116.40882 221.088299 117.994407 222.673886 
C 119.579994 224.259472 121.730813 225.150371 123.973171 225.150371 
z
" clip-path="url(#p55f15ee794)" style="fill: #3c3f42; fill-opacity: 0.95"/>
   </g>
   <g id="patch_4">
    <path d="M 142.671367 148.357402 
L 132.400763 217.37844 
L 115.545579 216.011804 
L 116.528633 146.23772 
z
" clip-path="url(#p55f15ee794)" style="fill: #3c3f42; fill-opacity: 0.95"/>
   </g>
   <g id="patch_5">
    <path d="M 123.973171 225.150371 
C 126.215529 225.150371 128.366348 224.259472 129.951934 222.673886 
C 131.537521 221.088299 132.42842 218.93748 132.42842 216.695122 
C 132.42842 214.452764 131.537521 212.301945 129.951934 210.716358 
C 128.366348 209.130772 126.215529 208.239873 123.973171 208.239873 
C 121.730813 208.239873 119.579994 209.130772 117.994407 210.716358 
C 116.40882 212.301945 115.517922 214.452764 115.517922 216.695122 
C 115.517922 218.93748 116.40882 221.088299 117.994407 222.673886 
C 119.579994 224.259472 121.730813 225.150371 123.973171 225.150371 
z
" clip-path="url(#p55f15ee794)" style="fill: #3c3f42; fill-opacity: 0.95"/>
   </g>
   <g id="patch_6">
    <path d="M 150.231707 167.99679 
C 151.741867 167.99679 153.190378 167.396797 154.258222 166.328953 
C 155.326066 165.261109 155.926059 163.812599 155.926059 162.302439 
C 155.926059 160.792279 155.326066 159.343769 154.258222 158.275925 
C 153.190378 157.208081 151.741867 156.608088 150.231707 156.608088 
C 148.721548 156.608088 147.273037 157.208081 146.205193 158.275925 
C 145.137349 159.343769 144.537356 160.792279 144.537356 162.302439 
C 144.537356 163.812599 145.137349 165.261109 146.205193 166.328953 
C 147.273037 167.396797 148.721548 167.99679 150.231707 167.99679 
z
" clip-path="url(#p55f15ee794)" style="fill: #3c3f42; fill-opacity: 0.95"/>
   </g>
   <g id="patch_7">
    <path d="M 116.358783 213.01921 
L 145.10365 159.826825 
L 155.359765 164.778053 
L 131.587559 220.371033 
z
" clip-path="url(#p55f15ee794)" style="fill: #3c3f42; fill-opacity: 0.95"/>
   </g>
   <g id="patch_8">
    <path d="M 150.231707 167.142638 
C 151.515343 167.142638 152.746577 166.632644 153.654245 165.724976 
C 154.561912 164.817309 155.071906 163.586075 155.071906 162.302439 
C 155.071906 161.018803 154.561912 159.787569 153.654245 158.879902 
C 152.746577 157.972234 151.515343 157.46224 150.231707 157.46224 
C 148.948072 157.46224 147.716838 157.972234 146.80917 158.879902 
C 145.901503 159.787569 145.391509 161.018803 145.391509 162.302439 
C 145.391509 163.586075 145.901503 164.817309 146.80917 165.724976 
C 147.716838 166.632644 148.948072 167.142638 150.231707 167.142638 
z
" clip-path="url(#p55f15ee794)" style="fill: #1b1b1b; fill-opacity: 0.95"/>
   </g>
   <g id="patch_9">
    <path d="M 159.609756 159.807503 
C 160.440344 159.807503 161.237025 159.477507 161.824339 158.890193 
C 162.411653 158.302878 162.741649 157.506198 162.741649 156.67561 
C 162.741649 155.845022 162.411653 155.048341 161.824339 154.461027 
C 161.237025 153.873713 160.440344 153.543717 159.609756 153.543717 
C 158.779168 153.543717 157.982487 153.873713 157.395173 154.461027 
C 156.807859 155.048341 156.477863 155.845022 156.477863 156.67561 
C 156.477863 157.506198 156.807859 158.302878 157.395173 158.890193 
C 157.982487 159.477507 158.779168 159.807503 159.609756 159.807503 
z
" clip-path="url(#p55f15ee794)" style="fill: #1b1b1b; fill-opacity: 0.95"/>
   </g>
   <g id="patch_10">
    <path d="M 147.741446 158.152003 
L 157.99841 153.990034 
L 161.221102 159.361186 
L 152.721969 166.452875 
z
" clip-path="url(#p55f15ee794)" style="fill: #1b1b1b; fill-opacity: 0.95"/>
   </g>
   <g id="patch_11">
    <path d="M 150.231707 166.402372 
C 151.319022 166.402372 152.36195 165.970377 153.130798 165.201529 
C 153.899645 164.432682 154.33164 163.389754 154.33164 162.302439 
C 154.33164 161.215124 153.899645 160.172196 153.130798 159.403349 
C 152.36195 158.634501 151.319022 158.202506 150.231707 158.202506 
C 149.144392 158.202506 148.101465 158.634501 147.332617 159.403349 
C 146.563769 160.172196 146.131774 161.215124 146.131774 162.302439 
C 146.131774 163.389754 146.563769 164.432682 147.332617 165.201529 
C 148.101465 165.970377 149.144392 166.402372 150.231707 166.402372 
z
" clip-path="url(#p55f15ee794)" style="fill: #1b1b1b; fill-opacity: 0.95; stroke: #121212; stroke-width: 1.3; stroke-linejoin: miter"/>
   </g>
   <g id="line2d_2">
    <path d="M 142.671367 148.357402 
L 132.400763 217.37844 
L 131.658808 220.219637 
L 129.989852 222.635726 
L 127.595196 224.33529 
L 124.76367 225.113337 
L 121.836798 224.876023 
L 119.167604 223.651972 
L 117.078032 221.588822 
L 115.820116 218.935419 
L 115.545579 216.011804 
L 116.528633 146.23772 
L 117.679419 141.830966 
L 120.268004 138.083563 
L 123.982165 135.447505 
L 128.37392 134.240738 
L 132.913558 134.608817 
L 137.053533 136.507345 
L 140.294501 139.707333 
L 142.245554 143.822814 
L 142.671367 148.357402 
L 142.671367 148.357402 
" clip-path="url(#p55f15ee794)" style="fill: none; stroke: #282a2c; stroke-width: 1.7; stroke-linecap: round"/>
   </g>
   <g id="line2d_3">
    <path d="M 116.358783 213.01921 
L 145.10365 159.826825 
L 146.25962 158.222224 
L 147.894681 157.109757 
L 149.811623 156.623604 
L 151.779233 156.822403 
L 153.560189 157.682174 
L 154.93968 159.099218 
L 155.751321 160.902618 
L 155.897215 162.874856 
L 155.359765 164.778053 
L 131.587559 220.371033 
L 129.871119 222.753623 
L 127.4433 224.405468 
L 124.596932 225.127331 
L 121.675329 224.832146 
L 119.03088 223.555515 
L 116.982544 221.45142 
L 115.777381 218.773645 
L 115.560751 215.845169 
L 116.358783 213.01921 
L 116.358783 213.01921 
" clip-path="url(#p55f15ee794)" style="fill: none; stroke: #282a2c; stroke-width: 1.7; stroke-linecap: round"/>
   </g>
   <g id="line2d_4">
    <path d="M 147.741446 158.152003 
L 157.99841 153.990034 
L 159.014108 153.600881 
L 160.101649 153.582586 
L 161.12986 153.937355 
L 161.974725 154.622399 
L 162.53434 155.555089 
L 162.741206 156.622932 
L 162.570374 157.697127 
L 162.042447 158.648113 
L 161.221102 159.361186 
L 152.721969 166.452875 
L 151.152255 167.054293 
L 149.47151 167.082567 
L 147.882455 166.534287 
L 146.576755 165.475584 
L 145.711896 164.034152 
L 145.392193 162.383851 
L 145.656207 160.72373 
L 146.472094 159.254025 
L 147.741446 158.152003 
L 147.741446 158.152003 
" clip-path="url(#p55f15ee794)" style="fill: none; stroke: #121212; stroke-width: 1.5; stroke-linecap: round"/>
   </g>
   <g id="patch_12">
    <path d="M 129.6 66.646341 
C 131.58967 66.646341 133.498116 65.855837 134.905026 64.448928 
C 136.311935 63.042019 137.102439 61.133573 137.102439 59.143902 
C 137.102439 57.154232 136.311935 55.245786 134.905026 53.838877 
C 133.498116 52.431968 131.58967 51.641463 129.6 51.641463 
C 127.61033 51.641463 125.701884 52.431968 124.294974 53.838877 
C 122.888065 55.245786 122.097561 57.154232 122.097561 59.143902 
C 122.097561 61.133573 122.888065 63.042019 124.294974 64.448928 
C 125.701884 65.855837 127.61033 66.646341 129.6 66.646341 
z
" clip-path="url(#p55f15ee794)" style="fill: #2c3e50"/>
   </g>
   <g id="patch_13">
    <path d="M 129.6 91.40439 
C 132.683989 91.40439 135.64208 90.179109 137.82279 87.998399 
C 140.003499 85.81769 141.22878 82.859598 141.22878 79.77561 
C 141.22878 76.691621 140.003499 73.733529 137.82279 71.55282 
C 135.64208 69.372111 132.683989 68.146829 129.6 68.146829 
C 126.516011 68.146829 123.55792 69.372111 121.37721 71.55282 
C 119.196501 73.733529 117.97122 76.691621 117.97122 79.77561 
C 117.97122 82.859598 119.196501 85.81769 121.37721 87.998399 
C 123.55792 90.179109 126.516011 91.40439 129.6 91.40439 
z
" clip-path="url(#p55f15ee794)" style="fill: #2c3e50"/>
   </g>
   <g id="patch_14">
    <path d="M 137.102439 59.143902 
L 141.22878 79.77561 
L 117.97122 79.77561 
L 122.097561 59.143902 
z
" clip-path="url(#p55f15ee794)" style="fill: #2c3e50"/>
   </g>
   <g id="patch_15">
    <path d="M 129.6 103.033171 
C 135.767977 103.033171 141.684161 100.582607 146.045579 96.221189 
C 150.406998 91.85977 152.857561 85.943587 152.857561 79.77561 
C 152.857561 73.607632 150.406998 67.691449 146.045579 63.330031 
C 141.684161 58.968612 135.767977 56.518049 129.6 56.518049 
C 123.432023 56.518049 117.515839 58.968612 113.154421 63.330031 
C 108.793002 67.691449 106.342439 73.607632 106.342439 79.77561 
C 106.342439 85.943587 108.793002 91.85977 113.154421 96.221189 
C 117.515839 100.582607 123.432023 103.033171 129.6 103.033171 
z
" clip-path="url(#p55f15ee794)" style="fill: #2c3e50"/>
   </g>
   <g id="patch_16">
    <path d="M 129.6 164.553171 
C 134.176241 164.553171 138.565667 162.735011 141.801559 159.49912 
C 145.03745 156.263228 146.85561 151.873802 146.85561 147.297561 
C 146.85561 142.72132 145.03745 138.331893 141.801559 135.096002 
C 138.565667 131.860111 134.176241 130.041951 129.6 130.041951 
C 125.023759 130.041951 120.634333 131.860111 117.398441 135.096002 
C 114.16255 138.331893 112.34439 142.72132 112.34439 147.297561 
C 112.34439 151.873802 114.16255 156.263228 117.398441 159.49912 
C 120.634333 162.735011 125.023759 164.553171 129.6 164.553171 
z
" clip-path="url(#p55f15ee794)" style="fill: #2c3e50"/>
   </g>
   <g id="patch_17">
    <path d="M 152.857561 79.77561 
L 146.85561 147.297561 
L 112.34439 147.297561 
L 106.342439 79.77561 
z
" clip-path="url(#p55f15ee794)" style="fill: #2c3e50"/>
   </g>
   <g id="patch_18">
    <path d="M 129.6 161.552195 
C 133.380373 161.552195 137.006421 160.050237 139.679548 157.377109 
C 142.352676 154.703982 143.854634 151.077934 143.854634 147.297561 
C 143.854634 143.517188 142.352676 139.89114 139.679548 137.218013 
C 137.006421 134.544885 133.380373 133.042927 129.6 133.042927 
C 125.819627 133.042927 122.193579 134.544885 119.520452 137.218013 
C 116.847324 139.89114 115.345366 143.517188 115.345366 147.297561 
C 115.345366 151.077934 116.847324 154.703982 119.520452 157.377109 
C 122.193579 160.050237 125.819627 161.552195 129.6 161.552195 
z
" clip-path="url(#p55f15ee794)" style="fill: #3c3f42"/>
   </g>
   <g id="patch_19">
    <path d="M 129.6 227.76122 
C 132.037346 227.76122 134.375192 226.792852 136.098656 225.069388 
C 137.82212 223.345924 138.790488 221.008078 138.790488 218.570732 
C 138.790488 216.133386 137.82212 213.795539 136.098656 212.072075 
C 134.375192 210.348612 132.037346 209.380244 129.6 209.380244 
C 127.162654 209.380244 124.824808 210.348612 123.101344 212.072075 
C 121.37788 213.795539 120.409512 216.133386 120.409512 218.570732 
C 120.409512 221.008078 121.37788 223.345924 123.101344 225.069388 
C 124.824808 226.792852 127.162654 227.76122 129.6 227.76122 
z
" clip-path="url(#p55f15ee794)" style="fill: #3c3f42"/>
   </g>
   <g id="patch_20">
    <path d="M 143.854634 147.297561 
L 138.790488 218.570732 
L 120.409512 218.570732 
L 115.345366 147.297561 
z
" clip-path="url(#p55f15ee794)" style="fill: #3c3f42"/>
   </g>
   <g id="patch_21">
    <path d="M 129.6 227.76122 
C 132.037346 227.76122 134.375192 226.792852 136.098656 225.069388 
C 137.82212 223.345924 138.790488 221.008078 138.790488 218.570732 
C 138.790488 216.133386 137.82212 213.795539 136.098656 212.072075 
C 134.375192 210.348612 132.037346 209.380244 129.6 209.380244 
C 127.162654 209.380244 124.824808 210.348612 123.101344 212.072075 
C 121.37788 213.795539 120.409512 216.133386 120.409512 218.570732 
C 120.409512 221.008078 121.37788 223.345924 123.101344 225.069388 
C 124.824808 226.792852 127.162654 227.76122 129.6 227.76122 
z
" clip-path="url(#p55f15ee794)" style="fill: #3c3f42"/>
   </g>
   <g id="patch_22">
    <path d="M 129.6 290.406585 
C 131.241478 290.406585 132.815946 289.754419 133.976646 288.593719 
C 135.137346 287.433019 135.789512 285.858551 135.789512 284.217073 
C 135.789512 282.575595 135.137346 281.001127 133.976646 279.840427 
C 132.815946 278.679727 131.241478 278.027561 129.6 278.027561 
C 127.958522 278.027561 126.384054 278.679727 125.223354 279.840427 
C 124.062654 281.001127 123.410488 282.575595 123.410488 284.217073 
C 123.410488 285.858551 124.062654 287.433019 125.223354 288.593719 
C 126.384054 289.754419 127.958522 290.406585 129.6 290.406585 
z
" clip-path="url(#p55f15ee794)" style="fill: #3c3f42"/>
   </g>
   <g id="patch_23">
    <path d="M 138.790488 218.570732 
L 135.789512 284.217073 
L 123.410488 284.217073 
L 120.409512 218.570732 
z
" clip-path="url(#p55f15ee794)" style="fill: #3c3f42"/>
   </g>
   <g id="patch_24">
    <path d="M 129.6 289.478159 
C 130.995256 289.478159 132.333554 288.923817 133.320149 287.937222 
C 134.306744 286.950627 134.861085 285.612329 134.861085 284.217073 
C 134.861085 282.821817 134.306744 281.483519 133.320149 280.496924 
C 132.333554 279.510329 130.995256 278.955988 129.6 278.955988 
C 128.204744 278.955988 126.866446 279.510329 125.879851 280.496924 
C 124.893256 281.483519 124.338915 282.821817 124.338915 284.217073 
C 124.338915 285.612329 124.893256 286.950627 125.879851 287.937222 
C 126.866446 288.923817 128.204744 289.478159 129.6 289.478159 
z
" clip-path="url(#p55f15ee794)" style="fill: #1b1b1b"/>
   </g>
   <g id="patch_25">
    <path d="M 146.480488 287.621305 
C 147.383301 287.621305 148.249258 287.262614 148.887643 286.624228 
C 149.526028 285.985843 149.88472 285.119886 149.88472 284.217073 
C 149.88472 283.31426 149.526028 282.448303 148.887643 281.809918 
C 148.249258 281.171533 147.383301 280.812841 146.480488 280.812841 
C 145.577675 280.812841 144.711718 281.171533 144.073332 281.809918 
C 143.434947 282.448303 143.076256 283.31426 143.076256 284.217073 
C 143.076256 285.119886 143.434947 285.985843 144.073332 286.624228 
C 144.711718 287.262614 145.577675 287.621305 146.480488 287.621305 
z
" clip-path="url(#p55f15ee794)" style="fill: #1b1b1b"/>
   </g>
   <g id="patch_26">
    <path d="M 129.6 278.955988 
L 146.480488 280.812841 
L 146.480488 287.621305 
L 129.6 289.478159 
z
" clip-path="url(#p55f15ee794)" style="fill: #1b1b1b"/>
   </g>
   <g id="line2d_5">
    <path d="M 137.102439 59.143902 
L 141.22878 79.77561 
L 140.527479 83.752887 
L 138.508163 87.250446 
L 135.41439 89.846429 
L 131.619317 91.227723 
L 127.580683 91.227723 
L 123.78561 89.846429 
L 120.691837 87.250446 
L 118.672521 83.752887 
L 117.97122 79.77561 
L 122.097561 59.143902 
L 122.550013 56.577917 
L 123.852798 54.321428 
L 125.84878 52.6466 
L 128.297215 51.755442 
L 130.902785 51.755442 
L 133.35122 52.6466 
L 135.347202 54.321428 
L 136.649987 56.577917 
L 137.102439 59.143902 
L 137.102439 59.143902 
" clip-path="url(#p55f15ee794)" style="fill: none; stroke: #1d2a36; stroke-width: 1.7; stroke-linecap: round"/>
   </g>
   <g id="line2d_6">
    <path d="M 152.857561 79.77561 
L 146.85561 147.297561 
L 145.814969 153.199327 
L 142.818564 158.389253 
L 138.227805 162.241357 
L 132.596405 164.291019 
L 126.603595 164.291019 
L 120.972195 162.241357 
L 116.381436 158.389253 
L 113.385031 153.199327 
L 112.34439 147.297561 
L 106.342439 79.77561 
L 107.745042 71.821055 
L 111.783675 64.825938 
L 117.97122 59.633971 
L 125.561367 56.871383 
L 133.638633 56.871383 
L 141.22878 59.633971 
L 147.416325 64.825938 
L 151.454958 71.821055 
L 152.857561 79.77561 
L 152.857561 79.77561 
" clip-path="url(#p55f15ee794)" style="fill: none; stroke: #1d2a36; stroke-width: 1.7; stroke-linecap: round"/>
   </g>
   <g id="patch_27">
    <path d="M 129.6 89.153659 
C 132.087088 89.153659 134.472645 88.165528 136.231282 86.406892 
C 137.989918 84.648255 138.978049 82.262697 138.978049 79.77561 
C 138.978049 77.288522 137.989918 74.902964 136.231282 73.144328 
C 134.472645 71.385691 132.087088 70.397561 129.6 70.397561 
C 127.112912 70.397561 124.727355 71.385691 122.968718 73.144328 
C 121.210082 74.902964 120.221951 77.288522 120.221951 79.77561 
C 120.221951 82.262697 121.210082 84.648255 122.968718 86.406892 
C 124.727355 88.165528 127.112912 89.153659 129.6 89.153659 
z
" clip-path="url(#p55f15ee794)" style="fill: #2c3e50"/>
   </g>
   <g id="patch_28">
    <path d="M 148.356098 111.098293 
C 150.196542 111.098293 151.961855 110.367076 153.263246 109.065685 
C 154.564637 107.764294 155.295854 105.998981 155.295854 104.158537 
C 155.295854 102.318092 154.564637 100.552779 153.263246 99.251388 
C 151.961855 97.949997 150.196542 97.21878 148.356098 97.21878 
C 146.515653 97.21878 144.75034 97.949997 143.448949 99.251388 
C 142.147558 100.552779 141.416341 102.318092 141.416341 104.158537 
C 141.416341 105.998981 142.147558 107.764294 143.448949 109.065685 
C 144.75034 110.367076 146.515653 111.098293 148.356098 111.098293 
z
" clip-path="url(#p55f15ee794)" style="fill: #2c3e50"/>
   </g>
   <g id="patch_29">
    <path d="M 137.033266 74.057712 
L 153.856715 99.927293 
L 142.85548 108.389781 
L 122.166734 85.493507 
z
" clip-path="url(#p55f15ee794)" style="fill: #2c3e50"/>
   </g>
   <g id="patch_30">
    <path d="M 148.356098 111.098293 
C 150.196542 111.098293 151.961855 110.367076 153.263246 109.065685 
C 154.564637 107.764294 155.295854 105.998981 155.295854 104.158537 
C 155.295854 102.318092 154.564637 100.552779 153.263246 99.251388 
C 151.961855 97.949997 150.196542 97.21878 148.356098 97.21878 
C 146.515653 97.21878 144.75034 97.949997 143.448949 99.251388 
C 142.147558 100.552779 141.416341 102.318092 141.416341 104.158537 
C 141.416341 105.998981 142.147558 107.764294 143.448949 109.065685 
C 144.75034 110.367076 146.515653 111.098293 148.356098 111.098293 
z
" clip-path="url(#p55f15ee794)" style="fill: #2c3e50"/>
   </g>
   <g id="patch_31">
    <path d="M 150.231707 166.24122 
C 151.773702 166.24122 153.252747 165.628579 154.343102 164.538224 
C 155.433457 163.447869 156.046098 161.968824 156.046098 160.426829 
C 156.046098 158.884835 155.433457 157.405789 154.343102 156.315434 
C 153.252747 155.22508 151.773702 154.612439 150.231707 154.612439 
C 148.689713 154.612439 147.210667 155.22508 146.120313 156.315434 
C 145.029958 157.405789 144.417317 158.884835 144.417317 160.426829 
C 144.417317 161.968824 145.029958 163.447869 146.120313 164.538224 
C 147.210667 165.628579 148.689713 166.24122 150.231707 166.24122 
z
" clip-path="url(#p55f15ee794)" style="fill: #2c3e50"/>
   </g>
   <g id="patch_32">
    <path d="M 155.292001 103.92734 
L 156.04287 160.233124 
L 144.420545 160.620535 
L 141.420194 104.389733 
z
" clip-path="url(#p55f15ee794)" style="fill: #2c3e50"/>
   </g>
   <g id="patch_33">
    <path d="M 129.6 288.673522 
C 130.781864 288.673522 131.915481 288.203962 132.751185 287.368258 
C 133.586889 286.532554 134.056449 285.398937 134.056449 284.217073 
C 134.056449 283.035209 133.586889 281.901592 132.751185 281.065888 
C 131.915481 280.230184 130.781864 279.760624 129.6 279.760624 
C 128.418136 279.760624 127.284519 280.230184 126.448815 281.065888 
C 125.613111 281.901592 125.143551 283.035209 125.143551 284.217073 
C 125.143551 285.398937 125.613111 286.532554 126.448815 287.368258 
C 127.284519 288.203962 128.418136 288.673522 129.6 288.673522 
z
" clip-path="url(#p55f15ee794)" style="fill: #1b1b1b; stroke: #121212; stroke-width: 1.3; stroke-linejoin: miter"/>
   </g>
   <g id="patch_34">
    <path d="M 150.231707 166.616341 
C 151.873185 166.616341 153.447653 165.964175 154.608353 164.803475 
C 155.769053 163.642775 156.42122 162.068307 156.42122 160.426829 
C 156.42122 158.785351 155.769053 157.210883 154.608353 156.050183 
C 153.447653 154.889483 151.873185 154.237317 150.231707 154.237317 
C 148.590229 154.237317 147.015761 154.889483 145.855061 156.050183 
C 144.694361 157.210883 144.042195 158.785351 144.042195 160.426829 
C 144.042195 162.068307 144.694361 163.642775 145.855061 164.803475 
C 147.015761 165.964175 148.590229 166.616341 150.231707 166.616341 
z
" clip-path="url(#p55f15ee794)" style="fill: #f2e0c9; stroke: #a49888; stroke-width: 1.6; stroke-linejoin: miter"/>
   </g>
   <g id="line2d_7">
    <path d="M 143.854634 147.297561 
L 138.790488 218.570732 
L 138.236234 221.714064 
L 136.640322 224.478263 
L 134.195244 226.529928 
L 131.195911 227.621595 
L 128.004089 227.621595 
L 125.004756 226.529928 
L 122.559678 224.478263 
L 120.963766 221.714064 
L 120.409512 218.570732 
L 115.345366 147.297561 
L 116.205025 142.422189 
L 118.680317 138.134859 
L 122.472683 134.952686 
L 127.124709 133.259487 
L 132.075291 133.259487 
L 136.727317 134.952686 
L 140.519683 138.134859 
L 142.994975 142.422189 
L 143.854634 147.297561 
L 143.854634 147.297561 
" clip-path="url(#p55f15ee794)" style="fill: none; stroke: #282a2c; stroke-width: 1.7; stroke-linecap: round"/>
   </g>
   <g id="line2d_8">
    <path d="M 138.790488 218.570732 
L 135.789512 284.217073 
L 135.416239 286.334011 
L 134.341441 288.195615 
L 132.694756 289.577348 
L 130.674798 290.312553 
L 128.525202 290.312553 
L 126.505244 289.577348 
L 124.858559 288.195615 
L 123.783761 286.334011 
L 123.410488 284.217073 
L 120.409512 218.570732 
L 120.963766 215.4274 
L 122.559678 212.6632 
L 125.004756 210.611536 
L 128.004089 209.519868 
L 131.195911 209.519868 
L 134.195244 210.611536 
L 136.640322 212.6632 
L 138.236234 215.4274 
L 138.790488 218.570732 
L 138.790488 218.570732 
" clip-path="url(#p55f15ee794)" style="fill: none; stroke: #282a2c; stroke-width: 1.7; stroke-linecap: round"/>
   </g>
   <g id="line2d_9">
    <path d="M 129.6 278.955988 
L 146.480488 280.812841 
L 147.644804 281.018142 
L 148.668686 281.60928 
L 149.428639 282.514957 
L 149.833002 283.625935 
L 149.833002 284.808212 
L 149.428639 285.919189 
L 148.668686 286.824866 
L 147.644804 287.416005 
L 146.480488 287.621305 
L 129.6 289.478159 
L 127.800603 289.160876 
L 126.21824 288.247298 
L 125.043766 286.847616 
L 124.418842 285.130651 
L 124.418842 283.303495 
L 125.043766 281.58653 
L 126.21824 280.186848 
L 127.800603 279.27327 
L 129.6 278.955988 
L 129.6 278.955988 
" clip-path="url(#p55f15ee794)" style="fill: none; stroke: #121212; stroke-width: 1.5; stroke-linecap: round"/>
   </g>
   <g id="line2d_10">
    <path d="M 137.033266 74.057712 
L 153.856715 99.927293 
L 154.972158 102.06379 
L 155.289606 104.452944 
L 154.770771 106.806589 
L 153.478232 108.840839 
L 151.567887 110.310335 
L 149.270154 111.037833 
L 146.862172 110.935586 
L 144.634379 110.015927 
L 142.85548 108.389781 
L 122.166734 85.493507 
L 120.659378 82.606349 
L 120.230394 79.377762 
L 120.931523 76.197161 
L 122.678197 73.448174 
L 125.259744 71.462369 
L 128.364789 70.479264 
L 131.618819 70.617435 
L 134.62935 71.860217 
L 137.033266 74.057712 
L 137.033266 74.057712 
" clip-path="url(#p55f15ee794)" style="fill: none; stroke: #1d2a36; stroke-width: 1.7; stroke-linecap: round"/>
   </g>
   <g id="line2d_11">
    <path d="M 155.292001 103.92734 
L 156.04287 160.233124 
L 155.758665 162.23234 
L 154.807828 164.013786 
L 153.305042 165.362591 
L 151.431568 166.116071 
L 149.413372 166.183344 
L 147.49388 165.556297 
L 145.90461 164.31056 
L 144.837252 162.596388 
L 144.420545 160.620535 
L 141.420194 104.389733 
L 141.759406 102.003572 
L 142.894276 99.877331 
L 144.687923 98.267466 
L 146.924006 97.368152 
L 149.33282 97.287858 
L 151.623827 98.036269 
L 153.520698 99.523116 
L 154.794641 101.569064 
L 155.292001 103.92734 
L 155.292001 103.92734 
" clip-path="url(#p55f15ee794)" style="fill: none; stroke: #1d2a36; stroke-width: 1.7; stroke-linecap: round"/>
   </g>
   <g id="patch_35">
    <path d="M 129.6 74.14878 
C 133.57934 74.14878 137.396233 72.567772 140.210051 69.753953 
C 143.023869 66.940135 144.604878 63.123243 144.604878 59.143902 
C 144.604878 55.164562 143.023869 51.34767 140.210051 48.533851 
C 137.396233 45.720033 133.57934 44.139024 129.6 44.139024 
C 125.62066 44.139024 121.803767 45.720033 118.989949 48.533851 
C 116.176131 51.34767 114.595122 55.164562 114.595122 59.143902 
C 114.595122 63.123243 116.176131 66.940135 118.989949 69.753953 
C 121.803767 72.567772 125.62066 74.14878 129.6 74.14878 
z
" clip-path="url(#p55f15ee794)" style="fill: #f2e0c9; stroke: #a49888; stroke-width: 1.8; stroke-linejoin: miter"/>
   </g>
   <g id="patch_36">
    <path d="M 125.751067 210.152467 
Q 146.439504 198.995527 144.956882 178.002763 
" clip-path="url(#p55f15ee794)" style="fill: none; stroke-dasharray: 2.2,0; stroke-dashoffset: 0; stroke: #c0392b; stroke-width: 2.2; stroke-linecap: round"/>
    <path d="M 142.558359 183.786109 
L 144.956882 178.002763 
L 148.144445 183.39159 
z
" clip-path="url(#p55f15ee794)" style="fill: #c0392b; stroke-dasharray: 2.2,0; stroke-dashoffset: 0; stroke: #c0392b; stroke-width: 2.2; stroke-linecap: round"/>
   </g>
  </g>
 </g>
 <defs>
  <clipPath id="p55f15ee794">
   <rect x="5.809756" y="1" width="247.580488" height="307.6"/>
  </clipPath>
 </defs>
</svg>
