<?xml version="1.0" encoding="utf-8" standalone="no"?>
<!DOCTYPE svg PUBLIC "-//W3C//DTD SVG 1.1//EN"
  "http://www.w3.org/Graphics/SVG/1.1/DTD/svg11.dtd">
<svg xmlns:xlink="http://www.w3.org/1999/xlink" width="259.2pt" height="309.6pt" viewBox="0 0 259.2 309.6" xmlns="http://www.w3.org/2000/svg" version="1.1">
 <metadata>
  <rdf:RDF xmlns:dc="http://purl.org/dc/elements/1.1/" xmlns:cc="http://creativecommons.org/ns#" xmlns:rdf="http://www.w3.org/1999/02/22-rdf-syntax-ns#">
   <cc:Work>
    <dc:type rdf:resource="http://purl.org/dc/dcmitype/StillImage"/>
    <dc:date>2026-07-10T23:04:54.814269</dc:date>
    <dc:format>image/svg+xml</dc:format>
    <dc:creator>
     <cc:Agent>
      <dc:title>Matplotlib v3.10.8, https://matplotlib.org/</dc:title>
     </cc:Agent>
    </dc:creator>
   </cc:Work>
  </rdf:RDF>
 </metadata>
 <defs>
  <style type="text/css">*{stroke-linejoin: round; stroke-linecap: butt}</style>
 </defs>
 <g id="figure_1">
  <g id="patch_1">
   <path d="M 0 309.6 
L 259.2 309.6 
L 259.2 0 
L 0 0 
L 0 309.6 
z
" style="fill: none"/>
  </g>
  <g id="axes_1">
   <g id="line2d_1">
    <path d="M 17.063415 299.221951 
L 242.136585 299.221951 
" clip-path="url(#p413d6c140b)" style="fill: none; stroke: #c3c3c3; stroke-width: 3; stroke-linecap: round"/>
   </g>
   <g id="patch_2">
    <path d="M 129.6 88.403415 
C 131.888121 88.403415 134.082834 87.494335 135.700779 85.876389 
C 137.318725 84.258443 138.227805 82.06373 138.227805 79.77561 
C 138.227805 77.487489 137.318725 75.292776 135.700779 73.67483 
C 134.082834 72.056885 131.888121 71.147805 129.6 71.147805 
C 127.311879 71.147805 125.117166 72.056885 123.499221 73.67483 
C 121.881275 75.292776 120.972195 77.487489 120.972195 79.77561 
C 120.972195 82.06373 121.881275 84.258443 123.499221 85.876389 
C 125.117166 87.494335 127.311879 88.403415 129.6 88.403415 
z
" clip-path="url(#p413d6c140b)" style="fill: #9aa0a6; fill-opacity: 0.285"/>
   </g>
   <g id="patch_3">
    <path d="M 101.465854 95.538234 
C 103.159063 95.538234 104.783151 94.865515 105.98043 93.668235 
C 107.17771 92.470956 107.850429 90.846868 107.850429 89.153659 
C 107.850429 87.460449 107.17771 85.836362 105.98043 84.639082 
C 104.783151 83.441802 103.159063 82.769083 101.465854 82.769083 
C 99.772644 82.769083 98.148557 83.441802 96.951277 84.639082 
C 95.753997 85.836362 95.081278 87.460449 95.081278 89.153659 
C 95.081278 90.846868 95.753997 92.470956 96.951277 93.668235 
C 98.148557 94.865515 99.772644 95.538234 101.465854 95.538234 
z
" clip-path="url(#p413d6c140b)" style="fill: #9aa0a6; fill-opacity: 0.285"/>
   </g>
   <g id="patch_4">
    <path d="M 132.328351 87.960664 
L 103.484834 95.210599 
L 99.446874 83.096718 
L 126.871649 71.590555 
z
" clip-path="url(#p413d6c140b)" style="fill: #9aa0a6; fill-opacity: 0.285"/>
   </g>
   <g id="patch_5">
    <path d="M 101.465854 95.538234 
C 103.159063 95.538234 104.783151 94.865515 105.98043 93.668235 
C 107.17771 92.470956 107.850429 90.846868 107.850429 89.153659 
C 107.850429 87.460449 107.17771 85.836362 105.98043 84.639082 
C 104.783151 83.441802 103.159063 82.769083 101.465854 82.769083 
C 99.772644 82.769083 98.148557 83.441802 96.951277 84.639082 
C 95.753997 85.836362 95.081278 87.460449 95.081278 89.153659 
C 95.081278 90.846868 95.753997 92.470956 96.951277 93.668235 
C 98.148557 94.865515 99.772644 95.538234 101.465854 95.538234 
z
" clip-path="url(#p413d6c140b)" style="fill: #9aa0a6; fill-opacity: 0.285"/>
   </g>
   <g id="patch_6">
    <path d="M 95.839024 122.637044 
C 97.257659 122.637044 98.618381 122.073414 99.621508 121.070288 
C 100.624634 120.067162 101.188263 118.70644 101.188263 117.287805 
C 101.188263 115.86917 100.624634 114.508448 99.621508 113.505322 
C 98.618381 112.502195 97.257659 111.938566 95.839024 111.938566 
C 94.42039 111.938566 93.059667 112.502195 92.056541 113.505322 
C 91.053415 114.508448 90.489785 115.86917 90.489785 117.287805 
C 90.489785 118.70644 91.053415 120.067162 92.056541 121.070288 
C 93.059667 122.073414 94.42039 122.637044 95.839024 122.637044 
z
" clip-path="url(#p413d6c140b)" style="fill: #9aa0a6; fill-opacity: 0.285"/>
   </g>
   <g id="patch_7">
    <path d="M 107.726445 90.405777 
L 101.084385 118.336877 
L 90.593664 116.238733 
L 95.205262 87.90154 
z
" clip-path="url(#p413d6c140b)" style="fill: #9aa0a6; fill-opacity: 0.285"/>
   </g>
   <g id="patch_8">
    <path d="M 95.839024 123.167841 
C 97.398428 123.167841 98.894173 122.548284 99.996838 121.445619 
C 101.099503 120.342954 101.719061 118.847209 101.719061 117.287805 
C 101.719061 115.728401 101.099503 114.232656 99.996838 113.129991 
C 98.894173 112.027326 97.398428 111.407768 95.839024 111.407768 
C 94.27962 111.407768 92.783876 112.027326 91.681211 113.129991 
C 90.578546 114.232656 89.958988 115.728401 89.958988 117.287805 
C 89.958988 118.847209 90.578546 120.342954 91.681211 121.445619 
C 92.783876 122.548284 94.27962 123.167841 95.839024 123.167841 
z
" clip-path="url(#p413d6c140b)" style="fill: #9aa0a6; fill-opacity: 0.285; stroke: #7d8288; stroke-opacity: 0.85; stroke-width: 1.3; stroke-linejoin: miter"/>
   </g>
   <g id="line2d_2">
    <path d="M 132.328351 87.960664 
L 103.484834 95.210599 
L 101.291479 95.535852 
L 99.119156 95.091319 
L 97.22988 93.930617 
L 95.851524 92.193742 
L 95.15034 90.090189 
L 95.210899 87.873676 
L 96.025899 85.811548 
L 97.497037 84.152528 
L 99.446874 83.096718 
L 126.871649 71.590555 
L 129.835642 71.151023 
L 132.771213 71.751744 
L 135.324289 73.320261 
L 137.186932 75.667388 
L 138.134478 78.510028 
L 138.052641 81.505315 
L 136.95129 84.291975 
L 134.963265 86.533894 
L 132.328351 87.960664 
L 132.328351 87.960664 
" clip-path="url(#p413d6c140b)" style="fill: none; stroke: #7d8288; stroke-opacity: 0.85; stroke-width: 1.7; stroke-linecap: round"/>
   </g>
   <g id="line2d_3">
    <path d="M 107.726445 90.405777 
L 101.084385 118.336877 
L 100.409247 120.067629 
L 99.182873 121.463093 
L 97.553182 122.354956 
L 95.716737 122.635646 
L 93.895043 122.271307 
L 92.307821 121.305884 
L 91.146515 119.855822 
L 90.551194 118.096019 
L 90.593664 116.238733 
L 95.205262 87.90154 
L 96.011072 85.835804 
L 97.474808 84.17025 
L 99.419924 83.105768 
L 101.611809 82.770751 
L 103.78609 83.205608 
L 105.680516 84.357886 
L 107.066591 86.088606 
L 107.777135 88.189016 
L 107.726445 90.405777 
L 107.726445 90.405777 
" clip-path="url(#p413d6c140b)" style="fill: none; stroke: #7d8288; stroke-opacity: 0.85; stroke-width: 1.7; stroke-linecap: round"/>
   </g>
   <g id="patch_9">
    <path d="M 129.6 64.770732 
C 131.58967 64.770732 133.498116 63.980227 134.905026 62.573318 
C 136.311935 61.166409 137.102439 59.257963 137.102439 57.268293 
C 137.102439 55.278623 136.311935 53.370176 134.905026 51.963267 
C 133.498116 50.556358 131.58967 49.765854 129.6 49.765854 
C 127.61033 49.765854 125.701884 50.556358 124.294974 51.963267 
C 122.888065 53.370176 122.097561 55.278623 122.097561 57.268293 
C 122.097561 59.257963 122.888065 61.166409 124.294974 62.573318 
C 125.701884 63.980227 127.61033 64.770732 129.6 64.770732 
z
" clip-path="url(#p413d6c140b)" style="fill: #9aa0a6; fill-opacity: 0.3"/>
   </g>
   <g id="patch_10">
    <path d="M 129.6 91.40439 
C 132.683989 91.40439 135.64208 90.179109 137.82279 87.998399 
C 140.003499 85.81769 141.22878 82.859598 141.22878 79.77561 
C 141.22878 76.691621 140.003499 73.733529 137.82279 71.55282 
C 135.64208 69.372111 132.683989 68.146829 129.6 68.146829 
C 126.516011 68.146829 123.55792 69.372111 121.37721 71.55282 
C 119.196501 73.733529 117.97122 76.691621 117.97122 79.77561 
C 117.97122 82.859598 119.196501 85.81769 121.37721 87.998399 
C 123.55792 90.179109 126.516011 91.40439 129.6 91.40439 
z
" clip-path="url(#p413d6c140b)" style="fill: #9aa0a6; fill-opacity: 0.3"/>
   </g>
   <g id="patch_11">
    <path d="M 137.102439 57.268293 
L 141.22878 79.77561 
L 117.97122 79.77561 
L 122.097561 57.268293 
z
" clip-path="url(#p413d6c140b)" style="fill: #9aa0a6; fill-opacity: 0.3"/>
   </g>
   <g id="patch_12">
    <path d="M 129.6 103.033171 
C 135.767977 103.033171 141.684161 100.582607 146.045579 96.221189 
C 150.406998 91.85977 152.857561 85.943587 152.857561 79.77561 
C 152.857561 73.607632 150.406998 67.691449 146.045579 63.330031 
C 141.684161 58.968612 135.767977 56.518049 129.6 56.518049 
C 123.432023 56.518049 117.515839 58.968612 113.154421 63.330031 
C 108.793002 67.691449 106.342439 73.607632 106.342439 79.77561 
C 106.342439 85.943587 108.793002 91.85977 113.154421 96.221189 
C 117.515839 100.582607 123.432023 103.033171 129.6 103.033171 
z
" clip-path="url(#p413d6c140b)" style="fill: #9aa0a6; fill-opacity: 0.3"/>
   </g>
   <g id="patch_13">
    <path d="M 129.6 164.553171 
C 134.176241 164.553171 138.565667 162.735011 141.801559 159.49912 
C 145.03745 156.263228 146.85561 151.873802 146.85561 147.297561 
C 146.85561 142.72132 145.03745 138.331893 141.801559 135.096002 
C 138.565667 131.860111 134.176241 130.041951 129.6 130.041951 
C 125.023759 130.041951 120.634333 131.860111 117.398441 135.096002 
C 114.16255 138.331893 112.34439 142.72132 112.34439 147.297561 
C 112.34439 151.873802 114.16255 156.263228 117.398441 159.49912 
C 120.634333 162.735011 125.023759 164.553171 129.6 164.553171 
z
" clip-path="url(#p413d6c140b)" style="fill: #9aa0a6; fill-opacity: 0.3"/>
   </g>
   <g id="patch_14">
    <path d="M 152.857561 79.77561 
L 146.85561 147.297561 
L 112.34439 147.297561 
L 106.342439 79.77561 
z
" clip-path="url(#p413d6c140b)" style="fill: #9aa0a6; fill-opacity: 0.3"/>
   </g>
   <g id="patch_15">
    <path d="M 129.6 161.552195 
C 133.380373 161.552195 137.006421 160.050237 139.679548 157.377109 
C 142.352676 154.703982 143.854634 151.077934 143.854634 147.297561 
C 143.854634 143.517188 142.352676 139.89114 139.679548 137.218013 
C 137.006421 134.544885 133.380373 133.042927 129.6 133.042927 
C 125.819627 133.042927 122.193579 134.544885 119.520452 137.218013 
C 116.847324 139.89114 115.345366 143.517188 115.345366 147.297561 
C 115.345366 151.077934 116.847324 154.703982 119.520452 157.377109 
C 122.193579 160.050237 125.819627 161.552195 129.6 161.552195 
z
" clip-path="url(#p413d6c140b)" style="fill: #9aa0a6; fill-opacity: 0.3"/>
   </g>
   <g id="patch_16">
    <path d="M 129.6 227.76122 
C 132.037346 227.76122 134.375192 226.792852 136.098656 225.069388 
C 137.82212 223.345924 138.790488 221.008078 138.790488 218.570732 
C 138.790488 216.133386 137.82212 213.795539 136.098656 212.072075 
C 134.375192 210.348612 132.037346 209.380244 129.6 209.380244 
C 127.162654 209.380244 124.824808 210.348612 123.101344 212.072075 
C 121.37788 213.795539 120.409512 216.133386 120.409512 218.570732 
C 120.409512 221.008078 121.37788 223.345924 123.101344 225.069388 
C 124.824808 226.792852 127.162654 227.76122 129.6 227.76122 
z
" clip-path="url(#p413d6c140b)" style="fill: #9aa0a6; fill-opacity: 0.3"/>
   </g>
   <g id="patch_17">
    <path d="M 143.854634 147.297561 
L 138.790488 218.570732 
L 120.409512 218.570732 
L 115.345366 147.297561 
z
" clip-path="url(#p413d6c140b)" style="fill: #9aa0a6; fill-opacity: 0.3"/>
   </g>
   <g id="patch_18">
    <path d="M 129.6 227.76122 
C 132.037346 227.76122 134.375192 226.792852 136.098656 225.069388 
C 137.82212 223.345924 138.790488 221.008078 138.790488 218.570732 
C 138.790488 216.133386 137.82212 213.795539 136.098656 212.072075 
C 134.375192 210.348612 132.037346 209.380244 129.6 209.380244 
C 127.162654 209.380244 124.824808 210.348612 123.101344 212.072075 
C 121.37788 213.795539 120.409512 216.133386 120.409512 218.570732 
C 120.409512 221.008078 121.37788 223.345924 123.101344 225.069388 
C 124.824808 226.792852 127.162654 227.76122 129.6 227.76122 
z
" clip-path="url(#p413d6c140b)" style="fill: #9aa0a6; fill-opacity: 0.3"/>
   </g>
   <g id="patch_19">
    <path d="M 129.6 290.406585 
C 131.241478 290.406585 132.815946 289.754419 133.976646 288.593719 
C 135.137346 287.433019 135.789512 285.858551 135.789512 284.217073 
C 135.789512 282.575595 135.137346 281.001127 133.976646 279.840427 
C 132.815946 278.679727 131.241478 278.027561 129.6 278.027561 
C 127.958522 278.027561 126.384054 278.679727 125.223354 279.840427 
C 124.062654 281.001127 123.410488 282.575595 123.410488 284.217073 
C 123.410488 285.858551 124.062654 287.433019 125.223354 288.593719 
C 126.384054 289.754419 127.958522 290.406585 129.6 290.406585 
z
" clip-path="url(#p413d6c140b)" style="fill: #9aa0a6; fill-opacity: 0.3"/>
   </g>
   <g id="patch_20">
    <path d="M 138.790488 218.570732 
L 135.789512 284.217073 
L 123.410488 284.217073 
L 120.409512 218.570732 
z
" clip-path="url(#p413d6c140b)" style="fill: #9aa0a6; fill-opacity: 0.3"/>
   </g>
   <g id="patch_21">
    <path d="M 129.6 289.478159 
C 130.995256 289.478159 132.333554 288.923817 133.320149 287.937222 
C 134.306744 286.950627 134.861085 285.612329 134.861085 284.217073 
C 134.861085 282.821817 134.306744 281.483519 133.320149 280.496924 
C 132.333554 279.510329 130.995256 278.955988 129.6 278.955988 
C 128.204744 278.955988 126.866446 279.510329 125.879851 280.496924 
C 124.893256 281.483519 124.338915 282.821817 124.338915 284.217073 
C 124.338915 285.612329 124.893256 286.950627 125.879851 287.937222 
C 126.866446 288.923817 128.204744 289.478159 129.6 289.478159 
z
" clip-path="url(#p413d6c140b)" style="fill: #9aa0a6; fill-opacity: 0.3"/>
   </g>
   <g id="patch_22">
    <path d="M 146.480488 287.621305 
C 147.383301 287.621305 148.249258 287.262614 148.887643 286.624228 
C 149.526028 285.985843 149.88472 285.119886 149.88472 284.217073 
C 149.88472 283.31426 149.526028 282.448303 148.887643 281.809918 
C 148.249258 281.171533 147.383301 280.812841 146.480488 280.812841 
C 145.577675 280.812841 144.711718 281.171533 144.073332 281.809918 
C 143.434947 282.448303 143.076256 283.31426 143.076256 284.217073 
C 143.076256 285.119886 143.434947 285.985843 144.073332 286.624228 
C 144.711718 287.262614 145.577675 287.621305 146.480488 287.621305 
z
" clip-path="url(#p413d6c140b)" style="fill: #9aa0a6; fill-opacity: 0.3"/>
   </g>
   <g id="patch_23">
    <path d="M 129.6 278.955988 
L 146.480488 280.812841 
L 146.480488 287.621305 
L 129.6 289.478159 
z
" clip-path="url(#p413d6c140b)" style="fill: #9aa0a6; fill-opacity: 0.3"/>
   </g>
   <g id="line2d_4">
    <path d="M 137.102439 57.268293 
L 141.22878 79.77561 
L 140.527479 83.752887 
L 138.508163 87.250446 
L 135.41439 89.846429 
L 131.619317 91.227723 
L 127.580683 91.227723 
L 123.78561 89.846429 
L 120.691837 87.250446 
L 118.672521 83.752887 
L 117.97122 79.77561 
L 122.097561 57.268293 
L 122.550013 54.702307 
L 123.852798 52.445818 
L 125.84878 50.77099 
L 128.297215 49.879833 
L 130.902785 49.879833 
L 133.35122 50.77099 
L 135.347202 52.445818 
L 136.649987 54.702307 
L 137.102439 57.268293 
L 137.102439 57.268293 
" clip-path="url(#p413d6c140b)" style="fill: none; stroke: #7d8288; stroke-opacity: 0.85; stroke-width: 1.7; stroke-linecap: round"/>
   </g>
   <g id="line2d_5">
    <path d="M 152.857561 79.77561 
L 146.85561 147.297561 
L 145.814969 153.199327 
L 142.818564 158.389253 
L 138.227805 162.241357 
L 132.596405 164.291019 
L 126.603595 164.291019 
L 120.972195 162.241357 
L 116.381436 158.389253 
L 113.385031 153.199327 
L 112.34439 147.297561 
L 106.342439 79.77561 
L 107.745042 71.821055 
L 111.783675 64.825938 
L 117.97122 59.633971 
L 125.561367 56.871383 
L 133.638633 56.871383 
L 141.22878 59.633971 
L 147.416325 64.825938 
L 151.454958 71.821055 
L 152.857561 79.77561 
L 152.857561 79.77561 
" clip-path="url(#p413d6c140b)" style="fill: none; stroke: #7d8288; stroke-opacity: 0.85; stroke-width: 1.7; stroke-linecap: round"/>
   </g>
   <g id="patch_24">
    <path d="M 129.6 89.153659 
C 132.087088 89.153659 134.472645 88.165528 136.231282 86.406892 
C 137.989918 84.648255 138.978049 82.262697 138.978049 79.77561 
C 138.978049 77.288522 137.989918 74.902964 136.231282 73.144328 
C 134.472645 71.385691 132.087088 70.397561 129.6 70.397561 
C 127.112912 70.397561 124.727355 71.385691 122.968718 73.144328 
C 121.210082 74.902964 120.221951 77.288522 120.221951 79.77561 
C 120.221951 82.262697 121.210082 84.648255 122.968718 86.406892 
C 124.727355 88.165528 127.112912 89.153659 129.6 89.153659 
z
" clip-path="url(#p413d6c140b)" style="fill: #9aa0a6; fill-opacity: 0.3"/>
   </g>
   <g id="patch_25">
    <path d="M 157.734146 96.093415 
C 159.574591 96.093415 161.339904 95.362198 162.641295 94.060807 
C 163.942686 92.759416 164.673902 90.994103 164.673902 89.153659 
C 164.673902 87.313214 163.942686 85.547901 162.641295 84.24651 
C 161.339904 82.945119 159.574591 82.213902 157.734146 82.213902 
C 155.893702 82.213902 154.128389 82.945119 152.826998 84.24651 
C 151.525607 85.547901 150.79439 87.313214 150.79439 89.153659 
C 150.79439 90.994103 151.525607 92.759416 152.826998 94.060807 
C 154.128389 95.362198 155.893702 96.093415 157.734146 96.093415 
z
" clip-path="url(#p413d6c140b)" style="fill: #9aa0a6; fill-opacity: 0.3"/>
   </g>
   <g id="patch_26">
    <path d="M 132.565599 70.878812 
L 159.92869 82.570028 
L 155.539603 95.737289 
L 126.634401 88.672408 
z
" clip-path="url(#p413d6c140b)" style="fill: #9aa0a6; fill-opacity: 0.3"/>
   </g>
   <g id="patch_27">
    <path d="M 157.734146 96.093415 
C 159.574591 96.093415 161.339904 95.362198 162.641295 94.060807 
C 163.942686 92.759416 164.673902 90.994103 164.673902 89.153659 
C 164.673902 87.313214 163.942686 85.547901 162.641295 84.24651 
C 161.339904 82.945119 159.574591 82.213902 157.734146 82.213902 
C 155.893702 82.213902 154.128389 82.945119 152.826998 84.24651 
C 151.525607 85.547901 150.79439 87.313214 150.79439 89.153659 
C 150.79439 90.994103 151.525607 92.759416 152.826998 94.060807 
C 154.128389 95.362198 155.893702 96.093415 157.734146 96.093415 
z
" clip-path="url(#p413d6c140b)" style="fill: #9aa0a6; fill-opacity: 0.3"/>
   </g>
   <g id="patch_28">
    <path d="M 163.360976 123.102195 
C 164.90297 123.102195 166.382016 122.489554 167.47237 121.3992 
C 168.562725 120.308845 169.175366 118.829799 169.175366 117.287805 
C 169.175366 115.745811 168.562725 114.266765 167.47237 113.17641 
C 166.382016 112.086055 164.90297 111.473415 163.360976 111.473415 
C 161.818981 111.473415 160.339935 112.086055 159.249581 113.17641 
C 158.159226 114.266765 157.546585 115.745811 157.546585 117.287805 
C 157.546585 118.829799 158.159226 120.308845 159.249581 121.3992 
C 160.339935 122.489554 161.818981 123.102195 163.360976 123.102195 
z
" clip-path="url(#p413d6c140b)" style="fill: #9aa0a6; fill-opacity: 0.3"/>
   </g>
   <g id="patch_29">
    <path d="M 164.539137 87.79266 
L 169.062454 116.147509 
L 157.659497 118.428101 
L 150.929156 90.514657 
z
" clip-path="url(#p413d6c140b)" style="fill: #9aa0a6; fill-opacity: 0.3"/>
   </g>
   <g id="patch_30">
    <path d="M 129.6 288.673522 
C 130.781864 288.673522 131.915481 288.203962 132.751185 287.368258 
C 133.586889 286.532554 134.056449 285.398937 134.056449 284.217073 
C 134.056449 283.035209 133.586889 281.901592 132.751185 281.065888 
C 131.915481 280.230184 130.781864 279.760624 129.6 279.760624 
C 128.418136 279.760624 127.284519 280.230184 126.448815 281.065888 
C 125.613111 281.901592 125.143551 283.035209 125.143551 284.217073 
C 125.143551 285.398937 125.613111 286.532554 126.448815 287.368258 
C 127.284519 288.203962 128.418136 288.673522 129.6 288.673522 
z
" clip-path="url(#p413d6c140b)" style="fill: #9aa0a6; fill-opacity: 0.3; stroke: #7d8288; stroke-opacity: 0.85; stroke-width: 1.3; stroke-linejoin: miter"/>
   </g>
   <g id="patch_31">
    <path d="M 163.360976 123.477317 
C 165.002453 123.477317 166.576922 122.825151 167.737622 121.664451 
C 168.898322 120.503751 169.550488 118.929283 169.550488 117.287805 
C 169.550488 115.646327 168.898322 114.071859 167.737622 112.911159 
C 166.576922 111.750459 165.002453 111.098293 163.360976 111.098293 
C 161.719498 111.098293 160.14503 111.750459 158.98433 112.911159 
C 157.823629 114.071859 157.171463 115.646327 157.171463 117.287805 
C 157.171463 118.929283 157.823629 120.503751 158.98433 121.664451 
C 160.14503 122.825151 161.719498 123.477317 163.360976 123.477317 
z
" clip-path="url(#p413d6c140b)" style="fill: #9aa0a6; fill-opacity: 0.3; stroke: #7d8288; stroke-opacity: 0.85; stroke-width: 1.6; stroke-linejoin: miter"/>
   </g>
   <g id="line2d_6">
    <path d="M 143.854634 147.297561 
L 138.790488 218.570732 
L 138.236234 221.714064 
L 136.640322 224.478263 
L 134.195244 226.529928 
L 131.195911 227.621595 
L 128.004089 227.621595 
L 125.004756 226.529928 
L 122.559678 224.478263 
L 120.963766 221.714064 
L 120.409512 218.570732 
L 115.345366 147.297561 
L 116.205025 142.422189 
L 118.680317 138.134859 
L 122.472683 134.952686 
L 127.124709 133.259487 
L 132.075291 133.259487 
L 136.727317 134.952686 
L 140.519683 138.134859 
L 142.994975 142.422189 
L 143.854634 147.297561 
L 143.854634 147.297561 
" clip-path="url(#p413d6c140b)" style="fill: none; stroke: #7d8288; stroke-opacity: 0.85; stroke-width: 1.7; stroke-linecap: round"/>
   </g>
   <g id="line2d_7">
    <path d="M 138.790488 218.570732 
L 135.789512 284.217073 
L 135.416239 286.334011 
L 134.341441 288.195615 
L 132.694756 289.577348 
L 130.674798 290.312553 
L 128.525202 290.312553 
L 126.505244 289.577348 
L 124.858559 288.195615 
L 123.783761 286.334011 
L 123.410488 284.217073 
L 120.409512 218.570732 
L 120.963766 215.4274 
L 122.559678 212.6632 
L 125.004756 210.611536 
L 128.004089 209.519868 
L 131.195911 209.519868 
L 134.195244 210.611536 
L 136.640322 212.6632 
L 138.236234 215.4274 
L 138.790488 218.570732 
L 138.790488 218.570732 
" clip-path="url(#p413d6c140b)" style="fill: none; stroke: #7d8288; stroke-opacity: 0.85; stroke-width: 1.7; stroke-linecap: round"/>
   </g>
   <g id="line2d_8">
    <path d="M 129.6 278.955988 
L 146.480488 280.812841 
L 147.644804 281.018142 
L 148.668686 281.60928 
L 149.428639 282.514957 
L 149.833002 283.625935 
L 149.833002 284.808212 
L 149.428639 285.919189 
L 148.668686 286.824866 
L 147.644804 287.416005 
L 146.480488 287.621305 
L 129.6 289.478159 
L 127.800603 289.160876 
L 126.21824 288.247298 
L 125.043766 286.847616 
L 124.418842 285.130651 
L 124.418842 283.303495 
L 125.043766 281.58653 
L 126.21824 280.186848 
L 127.800603 279.27327 
L 129.6 278.955988 
L 129.6 278.955988 
" clip-path="url(#p413d6c140b)" style="fill: none; stroke: #7d8288; stroke-opacity: 0.85; stroke-width: 1.5; stroke-linecap: round"/>
   </g>
   <g id="line2d_9">
    <path d="M 132.565599 70.878812 
L 159.92869 82.570028 
L 162.048077 83.717647 
L 163.64714 85.52093 
L 164.53301 87.762374 
L 164.598835 90.171627 
L 163.836678 92.458098 
L 162.338466 94.346004 
L 160.284905 95.607638 
L 157.923684 96.090826 
L 155.539603 95.737289 
L 126.634401 88.672408 
L 123.770364 87.121571 
L 121.609467 84.684702 
L 120.412347 81.655724 
L 120.323393 78.399977 
L 121.353335 75.310152 
L 123.377946 72.758926 
L 126.153029 71.054016 
L 129.343868 70.401059 
L 132.565599 70.878812 
L 132.565599 70.878812 
" clip-path="url(#p413d6c140b)" style="fill: none; stroke: #7d8288; stroke-opacity: 0.85; stroke-width: 1.7; stroke-linecap: round"/>
   </g>
   <g id="line2d_10">
    <path d="M 164.539137 87.79266 
L 169.062454 116.147509 
L 169.108617 118.166298 
L 168.46153 120.079128 
L 167.19924 121.655282 
L 165.473999 122.704655 
L 163.493896 123.100676 
L 161.497761 122.795578 
L 159.726357 121.826162 
L 158.393342 120.309353 
L 157.659497 118.428101 
L 150.929156 90.514657 
L 150.874058 88.105135 
L 151.646388 85.82208 
L 153.152992 83.940863 
L 155.212151 82.688386 
L 157.575499 82.215716 
L 159.957983 82.579865 
L 162.072239 83.73691 
L 163.663257 85.547295 
L 164.539137 87.79266 
L 164.539137 87.79266 
" clip-path="url(#p413d6c140b)" style="fill: none; stroke: #7d8288; stroke-opacity: 0.85; stroke-width: 1.7; stroke-linecap: round"/>
   </g>
   <g id="patch_32">
    <path d="M 129.6 72.273171 
C 133.57934 72.273171 137.396233 70.692162 140.210051 67.878344 
C 143.023869 65.064525 144.604878 61.247633 144.604878 57.268293 
C 144.604878 53.288953 143.023869 49.47206 140.210051 46.658242 
C 137.396233 43.844423 133.57934 42.263415 129.6 42.263415 
C 125.62066 42.263415 121.803767 43.844423 118.989949 46.658242 
C 116.176131 49.47206 114.595122 53.288953 114.595122 57.268293 
C 114.595122 61.247633 116.176131 65.064525 118.989949 67.878344 
C 121.803767 70.692162 125.62066 72.273171 129.6 72.273171 
z
" clip-path="url(#p413d6c140b)" style="fill: #9aa0a6; fill-opacity: 0.3; stroke: #7d8288; stroke-opacity: 0.85; stroke-width: 1.8; stroke-linejoin: miter"/>
   </g>
   <g id="patch_33">
    <path d="M 129.6 88.403415 
C 131.888121 88.403415 134.082834 87.494335 135.700779 85.876389 
C 137.318725 84.258443 138.227805 82.06373 138.227805 79.77561 
C 138.227805 77.487489 137.318725 75.292776 135.700779 73.67483 
C 134.082834 72.056885 131.888121 71.147805 129.6 71.147805 
C 127.311879 71.147805 125.117166 72.056885 123.499221 73.67483 
C 121.881275 75.292776 120.972195 77.487489 120.972195 79.77561 
C 120.972195 82.06373 121.881275 84.258443 123.499221 85.876389 
C 125.117166 87.494335 127.311879 88.403415 129.6 88.403415 
z
" clip-path="url(#p413d6c140b)" style="fill: #2c3e50; fill-opacity: 0.95"/>
   </g>
   <g id="patch_34">
    <path d="M 107.092683 52.39921 
C 108.785892 52.39921 110.40998 51.726491 111.60726 50.529211 
C 112.804539 49.331931 113.477259 47.707843 113.477259 46.014634 
C 113.477259 44.321425 112.804539 42.697337 111.60726 41.500057 
C 110.40998 40.302778 108.785892 39.630059 107.092683 39.630059 
C 105.399474 39.630059 103.775386 40.302778 102.578106 41.500057 
C 101.380826 42.697337 100.708107 44.321425 100.708107 46.014634 
C 100.708107 47.707843 101.380826 49.331931 102.578106 50.529211 
C 103.775386 51.726491 105.399474 52.39921 107.092683 52.39921 
z
" clip-path="url(#p413d6c140b)" style="fill: #2c3e50; fill-opacity: 0.95"/>
   </g>
   <g id="patch_35">
    <path d="M 122.421232 84.561455 
L 101.780395 49.556159 
L 112.404971 42.473109 
L 136.778768 74.989765 
z
" clip-path="url(#p413d6c140b)" style="fill: #2c3e50; fill-opacity: 0.95"/>
   </g>
   <g id="patch_36">
    <path d="M 107.092683 52.39921 
C 108.785892 52.39921 110.40998 51.726491 111.60726 50.529211 
C 112.804539 49.331931 113.477259 47.707843 113.477259 46.014634 
C 113.477259 44.321425 112.804539 42.697337 111.60726 41.500057 
C 110.40998 40.302778 108.785892 39.630059 107.092683 39.630059 
C 105.399474 39.630059 103.775386 40.302778 102.578106 41.500057 
C 101.380826 42.697337 100.708107 44.321425 100.708107 46.014634 
C 100.708107 47.707843 101.380826 49.331931 102.578106 50.529211 
C 103.775386 51.726491 105.399474 52.39921 107.092683 52.39921 
z
" clip-path="url(#p413d6c140b)" style="fill: #2c3e50; fill-opacity: 0.95"/>
   </g>
   <g id="patch_37">
    <path d="M 95.839024 21.354117 
C 97.257659 21.354117 98.618381 20.790488 99.621508 19.787361 
C 100.624634 18.784235 101.188263 17.423513 101.188263 16.004878 
C 101.188263 14.586243 100.624634 13.225521 99.621508 12.222395 
C 98.618381 11.219269 97.257659 10.655639 95.839024 10.655639 
C 94.42039 10.655639 93.059667 11.219269 92.056541 12.222395 
C 91.053415 13.225521 90.489785 14.586243 90.489785 16.004878 
C 90.489785 17.423513 91.053415 18.784235 92.056541 19.787361 
C 93.059667 20.790488 94.42039 21.354117 95.839024 21.354117 
z
" clip-path="url(#p413d6c140b)" style="fill: #2c3e50; fill-opacity: 0.95"/>
   </g>
   <g id="patch_38">
    <path d="M 101.114618 48.256408 
L 90.830376 17.883121 
L 100.847673 14.126635 
L 113.070747 43.77286 
z
" clip-path="url(#p413d6c140b)" style="fill: #2c3e50; fill-opacity: 0.95"/>
   </g>
   <g id="patch_39">
    <path d="M 95.839024 21.884915 
C 97.398428 21.884915 98.894173 21.265357 99.996838 20.162692 
C 101.099503 19.060027 101.719061 17.564282 101.719061 16.004878 
C 101.719061 14.445474 101.099503 12.949729 99.996838 11.847064 
C 98.894173 10.744399 97.398428 10.124841 95.839024 10.124841 
C 94.27962 10.124841 92.783876 10.744399 91.681211 11.847064 
C 90.578546 12.949729 89.958988 14.445474 89.958988 16.004878 
C 89.958988 17.564282 90.578546 19.060027 91.681211 20.162692 
C 92.783876 21.265357 94.27962 21.884915 95.839024 21.884915 
z
" clip-path="url(#p413d6c140b)" style="fill: #f2e0c9; fill-opacity: 0.95; stroke: #a49888; stroke-width: 1.3; stroke-linejoin: miter"/>
   </g>
   <g id="line2d_11">
    <path d="M 122.421232 84.561455 
L 101.780395 49.556159 
L 100.889492 47.52567 
L 100.746786 45.312927 
L 101.369488 43.18482 
L 102.682492 41.398031 
L 104.52743 40.168072 
L 106.681776 39.643295 
L 108.885683 39.886995 
L 110.873328 40.869779 
L 112.404971 42.473109 
L 136.778768 74.989765 
L 137.98269 77.73367 
L 138.175537 80.723863 
L 137.334047 83.599682 
L 135.559717 86.014262 
L 133.066557 87.676369 
L 130.15528 88.385527 
L 127.177027 88.056203 
L 124.49102 86.728116 
L 122.421232 84.561455 
L 122.421232 84.561455 
" clip-path="url(#p413d6c140b)" style="fill: none; stroke: #1d2a36; stroke-width: 1.7; stroke-linecap: round"/>
   </g>
   <g id="line2d_12">
    <path d="M 101.114618 48.256408 
L 90.830376 17.883121 
L 90.490037 16.056791 
L 90.794866 14.224199 
L 91.708094 12.606383 
L 93.119573 11.398476 
L 94.859059 10.746169 
L 96.716742 10.72814 
L 98.46856 11.346563 
L 99.903217 12.526848 
L 100.847673 14.126635 
L 113.070747 43.77286 
L 113.476958 45.952674 
L 113.113131 48.139961 
L 112.023149 50.070903 
L 110.338479 51.512598 
L 108.26232 52.291158 
L 106.045084 52.312677 
L 103.954205 51.574559 
L 102.241872 50.165831 
L 101.114618 48.256408 
L 101.114618 48.256408 
" clip-path="url(#p413d6c140b)" style="fill: none; stroke: #1d2a36; stroke-width: 1.7; stroke-linecap: round"/>
   </g>
   <g id="patch_40">
    <path d="M 129.6 64.770732 
C 131.58967 64.770732 133.498116 63.980227 134.905026 62.573318 
C 136.311935 61.166409 137.102439 59.257963 137.102439 57.268293 
C 137.102439 55.278623 136.311935 53.370176 134.905026 51.963267 
C 133.498116 50.556358 131.58967 49.765854 129.6 49.765854 
C 127.61033 49.765854 125.701884 50.556358 124.294974 51.963267 
C 122.888065 53.370176 122.097561 55.278623 122.097561 57.268293 
C 122.097561 59.257963 122.888065 61.166409 124.294974 62.573318 
C 125.701884 63.980227 127.61033 64.770732 129.6 64.770732 
z
" clip-path="url(#p413d6c140b)" style="fill: #2c3e50"/>
   </g>
   <g id="patch_41">
    <path d="M 129.6 91.40439 
C 132.683989 91.40439 135.64208 90.179109 137.82279 87.998399 
C 140.003499 85.81769 141.22878 82.859598 141.22878 79.77561 
C 141.22878 76.691621 140.003499 73.733529 137.82279 71.55282 
C 135.64208 69.372111 132.683989 68.146829 129.6 68.146829 
C 126.516011 68.146829 123.55792 69.372111 121.37721 71.55282 
C 119.196501 73.733529 117.97122 76.691621 117.97122 79.77561 
C 117.97122 82.859598 119.196501 85.81769 121.37721 87.998399 
C 123.55792 90.179109 126.516011 91.40439 129.6 91.40439 
z
" clip-path="url(#p413d6c140b)" style="fill: #2c3e50"/>
   </g>
   <g id="patch_42">
    <path d="M 137.102439 57.268293 
L 141.22878 79.77561 
L 117.97122 79.77561 
L 122.097561 57.268293 
z
" clip-path="url(#p413d6c140b)" style="fill: #2c3e50"/>
   </g>
   <g id="patch_43">
    <path d="M 129.6 103.033171 
C 135.767977 103.033171 141.684161 100.582607 146.045579 96.221189 
C 150.406998 91.85977 152.857561 85.943587 152.857561 79.77561 
C 152.857561 73.607632 150.406998 67.691449 146.045579 63.330031 
C 141.684161 58.968612 135.767977 56.518049 129.6 56.518049 
C 123.432023 56.518049 117.515839 58.968612 113.154421 63.330031 
C 108.793002 67.691449 106.342439 73.607632 106.342439 79.77561 
C 106.342439 85.943587 108.793002 91.85977 113.154421 96.221189 
C 117.515839 100.582607 123.432023 103.033171 129.6 103.033171 
z
" clip-path="url(#p413d6c140b)" style="fill: #2c3e50"/>
   </g>
   <g id="patch_44">
    <path d="M 129.6 164.553171 
C 134.176241 164.553171 138.565667 162.735011 141.801559 159.49912 
C 145.03745 156.263228 146.85561 151.873802 146.85561 147.297561 
C 146.85561 142.72132 145.03745 138.331893 141.801559 135.096002 
C 138.565667 131.860111 134.176241 130.041951 129.6 130.041951 
C 125.023759 130.041951 120.634333 131.860111 117.398441 135.096002 
C 114.16255 138.331893 112.34439 142.72132 112.34439 147.297561 
C 112.34439 151.873802 114.16255 156.263228 117.398441 159.49912 
C 120.634333 162.735011 125.023759 164.553171 129.6 164.553171 
z
" clip-path="url(#p413d6c140b)" style="fill: #2c3e50"/>
   </g>
   <g id="patch_45">
    <path d="M 152.857561 79.77561 
L 146.85561 147.297561 
L 112.34439 147.297561 
L 106.342439 79.77561 
z
" clip-path="url(#p413d6c140b)" style="fill: #2c3e50"/>
   </g>
   <g id="patch_46">
    <path d="M 129.6 161.552195 
C 133.380373 161.552195 137.006421 160.050237 139.679548 157.377109 
C 142.352676 154.703982 143.854634 151.077934 143.854634 147.297561 
C 143.854634 143.517188 142.352676 139.89114 139.679548 137.218013 
C 137.006421 134.544885 133.380373 133.042927 129.6 133.042927 
C 125.819627 133.042927 122.193579 134.544885 119.520452 137.218013 
C 116.847324 139.89114 115.345366 143.517188 115.345366 147.297561 
C 115.345366 151.077934 116.847324 154.703982 119.520452 157.377109 
C 122.193579 160.050237 125.819627 161.552195 129.6 161.552195 
z
" clip-path="url(#p413d6c140b)" style="fill: #3c3f42"/>
   </g>
   <g id="patch_47">
    <path d="M 129.6 227.76122 
C 132.037346 227.76122 134.375192 226.792852 136.098656 225.069388 
C 137.82212 223.345924 138.790488 221.008078 138.790488 218.570732 
C 138.790488 216.133386 137.82212 213.795539 136.098656 212.072075 
C 134.375192 210.348612 132.037346 209.380244 129.6 209.380244 
C 127.162654 209.380244 124.824808 210.348612 123.101344 212.072075 
C 121.37788 213.795539 120.409512 216.133386 120.409512 218.570732 
C 120.409512 221.008078 121.37788 223.345924 123.101344 225.069388 
C 124.824808 226.792852 127.162654 227.76122 129.6 227.76122 
z
" clip-path="url(#p413d6c140b)" style="fill: #3c3f42"/>
   </g>
   <g id="patch_48">
    <path d="M 143.854634 147.297561 
L 138.790488 218.570732 
L 120.409512 218.570732 
L 115.345366 147.297561 
z
" clip-path="url(#p413d6c140b)" style="fill: #3c3f42"/>
   </g>
   <g id="patch_49">
    <path d="M 129.6 227.76122 
C 132.037346 227.76122 134.375192 226.792852 136.098656 225.069388 
C 137.82212 223.345924 138.790488 221.008078 138.790488 218.570732 
C 138.790488 216.133386 137.82212 213.795539 136.098656 212.072075 
C 134.375192 210.348612 132.037346 209.380244 129.6 209.380244 
C 127.162654 209.380244 124.824808 210.348612 123.101344 212.072075 
C 121.37788 213.795539 120.409512 216.133386 120.409512 218.570732 
C 120.409512 221.008078 121.37788 223.345924 123.101344 225.069388 
C 124.824808 226.792852 127.162654 227.76122 129.6 227.76122 
z
" clip-path="url(#p413d6c140b)" style="fill: #3c3f42"/>
   </g>
   <g id="patch_50">
    <path d="M 129.6 290.406585 
C 131.241478 290.406585 132.815946 289.754419 133.976646 288.593719 
C 135.137346 287.433019 135.789512 285.858551 135.789512 284.217073 
C 135.789512 282.575595 135.137346 281.001127 133.976646 279.840427 
C 132.815946 278.679727 131.241478 278.027561 129.6 278.027561 
C 127.958522 278.027561 126.384054 278.679727 125.223354 279.840427 
C 124.062654 281.001127 123.410488 282.575595 123.410488 284.217073 
C 123.410488 285.858551 124.062654 287.433019 125.223354 288.593719 
C 126.384054 289.754419 127.958522 290.406585 129.6 290.406585 
z
" clip-path="url(#p413d6c140b)" style="fill: #3c3f42"/>
   </g>
   <g id="patch_51">
    <path d="M 138.790488 218.570732 
L 135.789512 284.217073 
L 123.410488 284.217073 
L 120.409512 218.570732 
z
" clip-path="url(#p413d6c140b)" style="fill: #3c3f42"/>
   </g>
   <g id="patch_52">
    <path d="M 129.6 289.478159 
C 130.995256 289.478159 132.333554 288.923817 133.320149 287.937222 
C 134.306744 286.950627 134.861085 285.612329 134.861085 284.217073 
C 134.861085 282.821817 134.306744 281.483519 133.320149 280.496924 
C 132.333554 279.510329 130.995256 278.955988 129.6 278.955988 
C 128.204744 278.955988 126.866446 279.510329 125.879851 280.496924 
C 124.893256 281.483519 124.338915 282.821817 124.338915 284.217073 
C 124.338915 285.612329 124.893256 286.950627 125.879851 287.937222 
C 126.866446 288.923817 128.204744 289.478159 129.6 289.478159 
z
" clip-path="url(#p413d6c140b)" style="fill: #1b1b1b"/>
   </g>
   <g id="patch_53">
    <path d="M 146.480488 287.621305 
C 147.383301 287.621305 148.249258 287.262614 148.887643 286.624228 
C 149.526028 285.985843 149.88472 285.119886 149.88472 284.217073 
C 149.88472 283.31426 149.526028 282.448303 148.887643 281.809918 
C 148.249258 281.171533 147.383301 280.812841 146.480488 280.812841 
C 145.577675 280.812841 144.711718 281.171533 144.073332 281.809918 
C 143.434947 282.448303 143.076256 283.31426 143.076256 284.217073 
C 143.076256 285.119886 143.434947 285.985843 144.073332 286.624228 
C 144.711718 287.262614 145.577675 287.621305 146.480488 287.621305 
z
" clip-path="url(#p413d6c140b)" style="fill: #1b1b1b"/>
   </g>
   <g id="patch_54">
    <path d="M 129.6 278.955988 
L 146.480488 280.812841 
L 146.480488 287.621305 
L 129.6 289.478159 
z
" clip-path="url(#p413d6c140b)" style="fill: #1b1b1b"/>
   </g>
   <g id="line2d_13">
    <path d="M 137.102439 57.268293 
L 141.22878 79.77561 
L 140.527479 83.752887 
L 138.508163 87.250446 
L 135.41439 89.846429 
L 131.619317 91.227723 
L 127.580683 91.227723 
L 123.78561 89.846429 
L 120.691837 87.250446 
L 118.672521 83.752887 
L 117.97122 79.77561 
L 122.097561 57.268293 
L 122.550013 54.702307 
L 123.852798 52.445818 
L 125.84878 50.77099 
L 128.297215 49.879833 
L 130.902785 49.879833 
L 133.35122 50.77099 
L 135.347202 52.445818 
L 136.649987 54.702307 
L 137.102439 57.268293 
L 137.102439 57.268293 
" clip-path="url(#p413d6c140b)" style="fill: none; stroke: #1d2a36; stroke-width: 1.7; stroke-linecap: round"/>
   </g>
   <g id="line2d_14">
    <path d="M 152.857561 79.77561 
L 146.85561 147.297561 
L 145.814969 153.199327 
L 142.818564 158.389253 
L 138.227805 162.241357 
L 132.596405 164.291019 
L 126.603595 164.291019 
L 120.972195 162.241357 
L 116.381436 158.389253 
L 113.385031 153.199327 
L 112.34439 147.297561 
L 106.342439 79.77561 
L 107.745042 71.821055 
L 111.783675 64.825938 
L 117.97122 59.633971 
L 125.561367 56.871383 
L 133.638633 56.871383 
L 141.22878 59.633971 
L 147.416325 64.825938 
L 151.454958 71.821055 
L 152.857561 79.77561 
L 152.857561 79.77561 
" clip-path="url(#p413d6c140b)" style="fill: none; stroke: #1d2a36; stroke-width: 1.7; stroke-linecap: round"/>
   </g>
   <g id="patch_55">
    <path d="M 129.6 89.153659 
C 132.087088 89.153659 134.472645 88.165528 136.231282 86.406892 
C 137.989918 84.648255 138.978049 82.262697 138.978049 79.77561 
C 138.978049 77.288522 137.989918 74.902964 136.231282 73.144328 
C 134.472645 71.385691 132.087088 70.397561 129.6 70.397561 
C 127.112912 70.397561 124.727355 71.385691 122.968718 73.144328 
C 121.210082 74.902964 120.221951 77.288522 120.221951 79.77561 
C 120.221951 82.262697 121.210082 84.648255 122.968718 86.406892 
C 124.727355 88.165528 127.112912 89.153659 129.6 89.153659 
z
" clip-path="url(#p413d6c140b)" style="fill: #2c3e50"/>
   </g>
   <g id="patch_56">
    <path d="M 152.107317 52.95439 
C 153.947762 52.95439 155.713075 52.223174 157.014466 50.921783 
C 158.315857 49.620392 159.047073 47.855079 159.047073 46.014634 
C 159.047073 44.174189 158.315857 42.408877 157.014466 41.107486 
C 155.713075 39.806095 153.947762 39.074878 152.107317 39.074878 
C 150.266872 39.074878 148.501559 39.806095 147.200168 41.107486 
C 145.898777 42.408877 145.167561 44.174189 145.167561 46.014634 
C 145.167561 47.855079 145.898777 49.620392 147.200168 50.921783 
C 148.501559 52.223174 150.266872 52.95439 152.107317 52.95439 
z
" clip-path="url(#p413d6c140b)" style="fill: #2c3e50"/>
   </g>
   <g id="patch_57">
    <path d="M 121.796992 74.573604 
L 146.333091 42.16515 
L 157.881543 49.864118 
L 137.403008 84.977615 
z
" clip-path="url(#p413d6c140b)" style="fill: #2c3e50"/>
   </g>
   <g id="patch_58">
    <path d="M 152.107317 52.95439 
C 153.947762 52.95439 155.713075 52.223174 157.014466 50.921783 
C 158.315857 49.620392 159.047073 47.855079 159.047073 46.014634 
C 159.047073 44.174189 158.315857 42.408877 157.014466 41.107486 
C 155.713075 39.806095 153.947762 39.074878 152.107317 39.074878 
C 150.266872 39.074878 148.501559 39.806095 147.200168 41.107486 
C 145.898777 42.408877 145.167561 44.174189 145.167561 46.014634 
C 145.167561 47.855079 145.898777 49.620392 147.200168 50.921783 
C 148.501559 52.223174 150.266872 52.95439 152.107317 52.95439 
z
" clip-path="url(#p413d6c140b)" style="fill: #2c3e50"/>
   </g>
   <g id="patch_59">
    <path d="M 163.360976 21.819268 
C 164.90297 21.819268 166.382016 21.206627 167.47237 20.116273 
C 168.562725 19.025918 169.175366 17.546872 169.175366 16.004878 
C 169.175366 14.462884 168.562725 12.983838 167.47237 11.893483 
C 166.382016 10.803129 164.90297 10.190488 163.360976 10.190488 
C 161.818981 10.190488 160.339935 10.803129 159.249581 11.893483 
C 158.159226 12.983838 157.546585 14.462884 157.546585 16.004878 
C 157.546585 17.546872 158.159226 19.025918 159.249581 20.116273 
C 160.339935 21.206627 161.818981 21.819268 163.360976 21.819268 
z
" clip-path="url(#p413d6c140b)" style="fill: #2c3e50"/>
   </g>
   <g id="patch_60">
    <path d="M 145.609421 43.577923 
L 157.916792 13.963309 
L 168.805159 18.046447 
L 158.605213 48.451345 
z
" clip-path="url(#p413d6c140b)" style="fill: #2c3e50"/>
   </g>
   <g id="patch_61">
    <path d="M 129.6 288.673522 
C 130.781864 288.673522 131.915481 288.203962 132.751185 287.368258 
C 133.586889 286.532554 134.056449 285.398937 134.056449 284.217073 
C 134.056449 283.035209 133.586889 281.901592 132.751185 281.065888 
C 131.915481 280.230184 130.781864 279.760624 129.6 279.760624 
C 128.418136 279.760624 127.284519 280.230184 126.448815 281.065888 
C 125.613111 281.901592 125.143551 283.035209 125.143551 284.217073 
C 125.143551 285.398937 125.613111 286.532554 126.448815 287.368258 
C 127.284519 288.203962 128.418136 288.673522 129.6 288.673522 
z
" clip-path="url(#p413d6c140b)" style="fill: #1b1b1b; stroke: #121212; stroke-width: 1.3; stroke-linejoin: miter"/>
   </g>
   <g id="patch_62">
    <path d="M 163.360976 22.19439 
C 165.002453 22.19439 166.576922 21.542224 167.737622 20.381524 
C 168.898322 19.220824 169.550488 17.646356 169.550488 16.004878 
C 169.550488 14.3634 168.898322 12.788932 167.737622 11.628232 
C 166.576922 10.467532 165.002453 9.815366 163.360976 9.815366 
C 161.719498 9.815366 160.14503 10.467532 158.98433 11.628232 
C 157.823629 12.788932 157.171463 14.3634 157.171463 16.004878 
C 157.171463 17.646356 157.823629 19.220824 158.98433 20.381524 
C 160.14503 21.542224 161.719498 22.19439 163.360976 22.19439 
z
" clip-path="url(#p413d6c140b)" style="fill: #f2e0c9; stroke: #a49888; stroke-width: 1.6; stroke-linejoin: miter"/>
   </g>
   <g id="line2d_15">
    <path d="M 143.854634 147.297561 
L 138.790488 218.570732 
L 138.236234 221.714064 
L 136.640322 224.478263 
L 134.195244 226.529928 
L 131.195911 227.621595 
L 128.004089 227.621595 
L 125.004756 226.529928 
L 122.559678 224.478263 
L 120.963766 221.714064 
L 120.409512 218.570732 
L 115.345366 147.297561 
L 116.205025 142.422189 
L 118.680317 138.134859 
L 122.472683 134.952686 
L 127.124709 133.259487 
L 132.075291 133.259487 
L 136.727317 134.952686 
L 140.519683 138.134859 
L 142.994975 142.422189 
L 143.854634 147.297561 
L 143.854634 147.297561 
" clip-path="url(#p413d6c140b)" style="fill: none; stroke: #282a2c; stroke-width: 1.7; stroke-linecap: round"/>
   </g>
   <g id="line2d_16">
    <path d="M 138.790488 218.570732 
L 135.789512 284.217073 
L 135.416239 286.334011 
L 134.341441 288.195615 
L 132.694756 289.577348 
L 130.674798 290.312553 
L 128.525202 290.312553 
L 126.505244 289.577348 
L 124.858559 288.195615 
L 123.783761 286.334011 
L 123.410488 284.217073 
L 120.409512 218.570732 
L 120.963766 215.4274 
L 122.559678 212.6632 
L 125.004756 210.611536 
L 128.004089 209.519868 
L 131.195911 209.519868 
L 134.195244 210.611536 
L 136.640322 212.6632 
L 138.236234 215.4274 
L 138.790488 218.570732 
L 138.790488 218.570732 
" clip-path="url(#p413d6c140b)" style="fill: none; stroke: #282a2c; stroke-width: 1.7; stroke-linecap: round"/>
   </g>
   <g id="line2d_17">
    <path d="M 129.6 278.955988 
L 146.480488 280.812841 
L 147.644804 281.018142 
L 148.668686 281.60928 
L 149.428639 282.514957 
L 149.833002 283.625935 
L 149.833002 284.808212 
L 149.428639 285.919189 
L 148.668686 286.824866 
L 147.644804 287.416005 
L 146.480488 287.621305 
L 129.6 289.478159 
L 127.800603 289.160876 
L 126.21824 288.247298 
L 125.043766 286.847616 
L 124.418842 285.130651 
L 124.418842 283.303495 
L 125.043766 281.58653 
L 126.21824 280.186848 
L 127.800603 279.27327 
L 129.6 278.955988 
L 129.6 278.955988 
" clip-path="url(#p413d6c140b)" style="fill: none; stroke: #121212; stroke-width: 1.5; stroke-linecap: round"/>
   </g>
   <g id="line2d_18">
    <path d="M 121.796992 74.573604 
L 146.333091 42.16515 
L 147.997921 40.422401 
L 150.158404 39.354157 
L 152.553955 39.089266 
L 154.895635 39.659676 
L 156.901003 40.996587 
L 158.328181 42.93875 
L 159.005032 45.251909 
L 158.849916 47.657064 
L 157.881543 49.864118 
L 137.403008 84.977615 
L 135.153239 87.332682 
L 132.233666 88.776254 
L 128.996435 89.134216 
L 125.832003 88.363392 
L 123.122046 86.556754 
L 121.193427 83.93221 
L 120.278764 80.806319 
L 120.48838 77.55611 
L 121.796992 74.573604 
L 121.796992 74.573604 
" clip-path="url(#p413d6c140b)" style="fill: none; stroke: #1d2a36; stroke-width: 1.7; stroke-linecap: round"/>
   </g>
   <g id="line2d_19">
    <path d="M 145.609421 43.577923 
L 157.916792 13.963309 
L 158.943374 12.224411 
L 160.502784 10.941492 
L 162.406934 10.269293 
L 164.426156 10.28889 
L 166.316901 10.997919 
L 167.851118 12.310861 
L 168.843757 14.069357 
L 169.175092 16.061305 
L 168.805159 18.046447 
L 158.605213 48.451345 
L 157.379938 50.526805 
L 155.518707 52.05803 
L 153.246011 52.860333 
L 150.835973 52.836943 
L 148.579277 51.990682 
L 146.748115 50.423622 
L 145.563352 48.324772 
L 145.167888 45.947286 
L 145.609421 43.577923 
L 145.609421 43.577923 
" clip-path="url(#p413d6c140b)" style="fill: none; stroke: #1d2a36; stroke-width: 1.7; stroke-linecap: round"/>
   </g>
   <g id="patch_63">
    <path d="M 129.6 72.273171 
C 133.57934 72.273171 137.396233 70.692162 140.210051 67.878344 
C 143.023869 65.064525 144.604878 61.247633 144.604878 57.268293 
C 144.604878 53.288953 143.023869 49.47206 140.210051 46.658242 
C 137.396233 43.844423 133.57934 42.263415 129.6 42.263415 
C 125.62066 42.263415 121.803767 43.844423 118.989949 46.658242 
C 116.176131 49.47206 114.595122 53.288953 114.595122 57.268293 
C 114.595122 61.247633 116.176131 65.064525 118.989949 67.878344 
C 121.803767 70.692162 125.62066 72.273171 129.6 72.273171 
z
" clip-path="url(#p413d6c140b)" style="fill: #f2e0c9; stroke: #a49888; stroke-width: 1.8; stroke-linejoin: miter"/>
   </g>
   <g id="line2d_20">
    <path d="M 146.480488 16.004878 
L 180.241463 16.004878 
" clip-path="url(#p413d6c140b)" style="fill: none; stroke: #5b6b73; stroke-width: 5; stroke-linecap: round"/>
   </g>
   <g id="patch_64">
    <path d="M 146.480488 20.731415 
C 147.73398 20.731415 148.936301 20.233397 149.822654 19.347044 
C 150.709007 18.460691 151.207024 17.25837 151.207024 16.004878 
C 151.207024 14.751386 150.709007 13.549065 149.822654 12.662712 
C 148.936301 11.776359 147.73398 11.278341 146.480488 11.278341 
C 145.226996 11.278341 144.024675 11.776359 143.138322 12.662712 
C 142.251969 13.549065 141.753951 14.751386 141.753951 16.004878 
C 141.753951 17.25837 142.251969 18.460691 143.138322 19.347044 
C 144.024675 20.233397 145.226996 20.731415 146.480488 20.731415 
z
" clip-path="url(#p413d6c140b)" style="fill: #5b6b73; stroke: #5b6b73; stroke-linejoin: miter"/>
   </g>
   <g id="patch_65">
    <path d="M 180.241463 20.731415 
C 181.494956 20.731415 182.697277 20.233397 183.583629 19.347044 
C 184.469982 18.460691 184.968 17.25837 184.968 16.004878 
C 184.968 14.751386 184.469982 13.549065 183.583629 12.662712 
C 182.697277 11.776359 181.494956 11.278341 180.241463 11.278341 
C 178.987971 11.278341 177.78565 11.776359 176.899297 12.662712 
C 176.012945 13.549065 175.514927 14.751386 175.514927 16.004878 
C 175.514927 17.25837 176.012945 18.460691 176.899297 19.347044 
C 177.78565 20.233397 178.987971 20.731415 180.241463 20.731415 
z
" clip-path="url(#p413d6c140b)" style="fill: #5b6b73; stroke: #5b6b73; stroke-linejoin: miter"/>
   </g>
   <g id="line2d_21">
    <path d="M 78.958537 16.004878 
L 112.719512 16.004878 
" clip-path="url(#p413d6c140b)" style="fill: none; stroke: #5b6b73; stroke-width: 5; stroke-linecap: round"/>
   </g>
   <g id="patch_66">
    <path d="M 78.958537 20.731415 
C 80.212029 20.731415 81.41435 20.233397 82.300703 19.347044 
C 83.187055 18.460691 83.685073 17.25837 83.685073 16.004878 
C 83.685073 14.751386 83.187055 13.549065 82.300703 12.662712 
C 81.41435 11.776359 80.212029 11.278341 78.958537 11.278341 
C 77.705044 11.278341 76.502723 11.776359 75.616371 12.662712 
C 74.730018 13.549065 74.232 14.751386 74.232 16.004878 
C 74.232 17.25837 74.730018 18.460691 75.616371 19.347044 
C 76.502723 20.233397 77.705044 20.731415 78.958537 20.731415 
z
" clip-path="url(#p413d6c140b)" style="fill: #5b6b73; stroke: #5b6b73; stroke-linejoin: miter"/>
   </g>
   <g id="patch_67">
    <path d="M 112.719512 20.731415 
C 113.973004 20.731415 115.175325 20.233397 116.061678 19.347044 
C 116.948031 18.460691 117.446049 17.25837 117.446049 16.004878 
C 117.446049 14.751386 116.948031 13.549065 116.061678 12.662712 
C 115.175325 11.776359 113.973004 11.278341 112.719512 11.278341 
C 111.46602 11.278341 110.263699 11.776359 109.377346 12.662712 
C 108.490993 13.549065 107.992976 14.751386 107.992976 16.004878 
C 107.992976 17.25837 108.490993 18.460691 109.377346 19.347044 
C 110.263699 20.233397 111.46602 20.731415 112.719512 20.731415 
z
" clip-path="url(#p413d6c140b)" style="fill: #5b6b73; stroke: #5b6b73; stroke-linejoin: miter"/>
   </g>
   <g id="line2d_22">
    <path d="M 146.480488 117.287805 
L 180.241463 117.287805 
" clip-path="url(#p413d6c140b)" style="fill: none; stroke: #5b6b73; stroke-width: 5; stroke-linecap: round"/>
   </g>
   <g id="patch_68">
    <path d="M 146.480488 122.014341 
C 147.73398 122.014341 148.936301 121.516324 149.822654 120.629971 
C 150.709007 119.743618 151.207024 118.541297 151.207024 117.287805 
C 151.207024 116.034313 150.709007 114.831992 149.822654 113.945639 
C 148.936301 113.059286 147.73398 112.561268 146.480488 112.561268 
C 145.226996 112.561268 144.024675 113.059286 143.138322 113.945639 
C 142.251969 114.831992 141.753951 116.034313 141.753951 117.287805 
C 141.753951 118.541297 142.251969 119.743618 143.138322 120.629971 
C 144.024675 121.516324 145.226996 122.014341 146.480488 122.014341 
z
" clip-path="url(#p413d6c140b)" style="fill: #5b6b73; stroke: #5b6b73; stroke-linejoin: miter"/>
   </g>
   <g id="patch_69">
    <path d="M 180.241463 122.014341 
C 181.494956 122.014341 182.697277 121.516324 183.583629 120.629971 
C 184.469982 119.743618 184.968 118.541297 184.968 117.287805 
C 184.968 116.034313 184.469982 114.831992 183.583629 113.945639 
C 182.697277 113.059286 181.494956 112.561268 180.241463 112.561268 
C 178.987971 112.561268 177.78565 113.059286 176.899297 113.945639 
C 176.012945 114.831992 175.514927 116.034313 175.514927 117.287805 
C 175.514927 118.541297 176.012945 119.743618 176.899297 120.629971 
C 177.78565 121.516324 178.987971 122.014341 180.241463 122.014341 
z
" clip-path="url(#p413d6c140b)" style="fill: #5b6b73; stroke: #5b6b73; stroke-linejoin: miter"/>
   </g>
   <g id="line2d_23">
    <path d="M 78.958537 117.287805 
L 112.719512 117.287805 
" clip-path="url(#p413d6c140b)" style="fill: none; stroke: #5b6b73; stroke-width: 5; stroke-linecap: round"/>
   </g>
   <g id="patch_70">
    <path d="M 78.958537 122.014341 
C 80.212029 122.014341 81.41435 121.516324 82.300703 120.629971 
C 83.187055 119.743618 83.685073 118.541297 83.685073 117.287805 
C 83.685073 116.034313 83.187055 114.831992 82.300703 113.945639 
C 81.41435 113.059286 80.212029 112.561268 78.958537 112.561268 
C 77.705044 112.561268 76.502723 113.059286 75.616371 113.945639 
C 74.730018 114.831992 74.232 116.034313 74.232 117.287805 
C 74.232 118.541297 74.730018 119.743618 75.616371 120.629971 
C 76.502723 121.516324 77.705044 122.014341 78.958537 122.014341 
z
" clip-path="url(#p413d6c140b)" style="fill: #5b6b73; stroke: #5b6b73; stroke-linejoin: miter"/>
   </g>
   <g id="patch_71">
    <path d="M 112.719512 122.014341 
C 113.973004 122.014341 115.175325 121.516324 116.061678 120.629971 
C 116.948031 119.743618 117.446049 118.541297 117.446049 117.287805 
C 117.446049 116.034313 116.948031 114.831992 116.061678 113.945639 
C 115.175325 113.059286 113.973004 112.561268 112.719512 112.561268 
C 111.46602 112.561268 110.263699 113.059286 109.377346 113.945639 
C 108.490993 114.831992 107.992976 116.034313 107.992976 117.287805 
C 107.992976 118.541297 108.490993 119.743618 109.377346 120.629971 
C 110.263699 121.516324 111.46602 122.014341 112.719512 122.014341 
z
" clip-path="url(#p413d6c140b)" style="fill: #5b6b73; stroke: #5b6b73; stroke-linejoin: miter"/>
   </g>
   <g id="patch_72">
    <path d="M 163.925899 115.36835 
Q 177.988489 66.646347 164.607993 20.287553 
" clip-path="url(#p413d6c140b)" style="fill: none; stroke-dasharray: 2.2,0; stroke-dashoffset: 0; stroke: #c0392b; stroke-width: 2.2; stroke-linecap: round"/>
    <path d="M 163.470739 26.444391 
L 164.607993 20.287553 
L 168.851111 24.891459 
z
" clip-path="url(#p413d6c140b)" style="fill: #c0392b; stroke-dasharray: 2.2,0; stroke-dashoffset: 0; stroke: #c0392b; stroke-width: 2.2; stroke-linecap: round"/>
   </g>
  </g>
 </g>
 <defs>
  <clipPath id="p413d6c140b">
   <rect x="5.809756" y="1" width="247.580488" height="307.6"/>
  </clipPath>
 </defs>
</svg>
