<?xml version="1.0" encoding="utf-8" standalone="no"?>
<!DOCTYPE svg PUBLIC "-//W3C//DTD SVG 1.1//EN"
  "http://www.w3.org/Graphics/SVG/1.1/DTD/svg11.dtd">
<svg xmlns:xlink="http://www.w3.org/1999/xlink" width="259.2pt" height="309.6pt" viewBox="0 0 259.2 309.6" xmlns="http://www.w3.org/2000/svg" version="1.1">
 <metadata>
  <rdf:RDF xmlns:dc="http://purl.org/dc/elements/1.1/" xmlns:cc="http://creativecommons.org/ns#" xmlns:rdf="http://www.w3.org/1999/02/22-rdf-syntax-ns#">
   <cc:Work>
    <dc:type rdf:resource="http://purl.org/dc/dcmitype/StillImage"/>
    <dc:date>2026-07-10T23:04:55.090991</dc:date>
    <dc:format>image/svg+xml</dc:format>
    <dc:creator>
     <cc:Agent>
      <dc:title>Matplotlib v3.10.8, https://matplotlib.org/</dc:title>
     </cc:Agent>
    </dc:creator>
   </cc:Work>
  </rdf:RDF>
 </metadata>
 <defs>
  <style type="text/css">*{stroke-linejoin: round; stroke-linecap: butt}</style>
 </defs>
 <g id="figure_1">
  <g id="patch_1">
   <path d="M 0 309.6 
L 259.2 309.6 
L 259.2 0 
L 0 0 
L 0 309.6 
z
" style="fill: none"/>
  </g>
  <g id="axes_1">
   <g id="line2d_1">
    <path d="M 17.063415 299.221951 
L 242.136585 299.221951 
" clip-path="url(#pbf972cd5c8)" style="fill: none; stroke: #c3c3c3; stroke-width: 3; stroke-linecap: round"/>
   </g>
   <g id="patch_2">
    <path d="M 148.356098 301.097561 
L 187.743902 301.097561 
L 187.743902 248.580488 
L 148.356098 248.580488 
z
" clip-path="url(#pbf972cd5c8)" style="fill: #9aa5b1; stroke: #9aa5b1; stroke-linejoin: miter"/>
   </g>
   <g id="patch_3">
    <path d="M 140.853659 194.1728 
C 144.331602 194.1728 147.667566 192.790998 150.126843 190.331721 
C 152.58612 187.872444 153.967922 184.53648 153.967922 181.058537 
C 153.967922 177.580593 152.58612 174.244629 150.126843 171.785352 
C 147.667566 169.326075 144.331602 167.944273 140.853659 167.944273 
C 137.375715 167.944273 134.039751 169.326075 131.580474 171.785352 
C 129.121197 174.244629 127.739395 177.580593 127.739395 181.058537 
C 127.739395 184.53648 129.121197 187.872444 131.580474 190.331721 
C 134.039751 192.790998 137.375715 194.1728 140.853659 194.1728 
z
" clip-path="url(#pbf972cd5c8)" style="fill: #9aa0a6; fill-opacity: 0.285"/>
   </g>
   <g id="patch_4">
    <path d="M 118.346341 242.030859 
C 120.5887 242.030859 122.739519 241.13996 124.325105 239.554374 
C 125.910692 237.968787 126.80159 235.817968 126.80159 233.57561 
C 126.80159 231.333252 125.910692 229.182433 124.325105 227.596846 
C 122.739519 226.011259 120.5887 225.120361 118.346341 225.120361 
C 116.103983 225.120361 113.953164 226.011259 112.367578 227.596846 
C 110.781991 229.182433 109.891093 231.333252 109.891093 233.57561 
C 109.891093 235.817968 110.781991 237.968787 112.367578 239.554374 
C 113.953164 241.13996 116.103983 242.030859 118.346341 242.030859 
z
" clip-path="url(#pbf972cd5c8)" style="fill: #9aa0a6; fill-opacity: 0.285"/>
   </g>
   <g id="patch_5">
    <path d="M 152.907569 186.224498 
L 126.117941 236.906295 
L 110.574742 230.244924 
L 128.799748 175.892575 
z
" clip-path="url(#pbf972cd5c8)" style="fill: #9aa0a6; fill-opacity: 0.285"/>
   </g>
   <g id="patch_6">
    <path d="M 118.346341 242.030859 
C 120.5887 242.030859 122.739519 241.13996 124.325105 239.554374 
C 125.910692 237.968787 126.80159 235.817968 126.80159 233.57561 
C 126.80159 231.333252 125.910692 229.182433 124.325105 227.596846 
C 122.739519 226.011259 120.5887 225.120361 118.346341 225.120361 
C 116.103983 225.120361 113.953164 226.011259 112.367578 227.596846 
C 110.781991 229.182433 109.891093 231.333252 109.891093 233.57561 
C 109.891093 235.817968 110.781991 237.968787 112.367578 239.554374 
C 113.953164 241.13996 116.103983 242.030859 118.346341 242.030859 
z
" clip-path="url(#pbf972cd5c8)" style="fill: #9aa0a6; fill-opacity: 0.285"/>
   </g>
   <g id="patch_7">
    <path d="M 103.341463 299.289473 
C 104.851623 299.289473 106.300134 298.68948 107.367978 297.621636 
C 108.435822 296.553792 109.035815 295.105282 109.035815 293.595122 
C 109.035815 292.084962 108.435822 290.636452 107.367978 289.568608 
C 106.300134 288.500763 104.851623 287.900771 103.341463 287.900771 
C 101.831304 287.900771 100.382793 288.500763 99.314949 289.568608 
C 98.247105 290.636452 97.647112 292.084962 97.647112 293.595122 
C 97.647112 295.105282 98.247105 296.553792 99.314949 297.621636 
C 100.382793 298.68948 101.831304 299.289473 103.341463 299.289473 
z
" clip-path="url(#pbf972cd5c8)" style="fill: #9aa0a6; fill-opacity: 0.285"/>
   </g>
   <g id="patch_8">
    <path d="M 126.549138 235.626309 
L 108.865796 294.976205 
L 97.817131 292.214039 
L 110.143545 231.524911 
z
" clip-path="url(#pbf972cd5c8)" style="fill: #9aa0a6; fill-opacity: 0.285"/>
   </g>
   <g id="patch_9">
    <path d="M 103.341463 298.43532 
C 104.625099 298.43532 105.856333 297.925327 106.764001 297.017659 
C 107.671668 296.109992 108.181662 294.878758 108.181662 293.595122 
C 108.181662 292.311486 107.671668 291.080252 106.764001 290.172585 
C 105.856333 289.264917 104.625099 288.754923 103.341463 288.754923 
C 102.057828 288.754923 100.826594 289.264917 99.918926 290.172585 
C 99.011259 291.080252 98.501265 292.311486 98.501265 293.595122 
C 98.501265 294.878758 99.011259 296.109992 99.918926 297.017659 
C 100.826594 297.925327 102.057828 298.43532 103.341463 298.43532 
z
" clip-path="url(#pbf972cd5c8)" style="fill: #9aa0a6; fill-opacity: 0.285"/>
   </g>
   <g id="patch_10">
    <path d="M 88.336585 296.727015 
C 89.167173 296.727015 89.963854 296.397019 90.551168 295.809705 
C 91.138483 295.222391 91.468479 294.42571 91.468479 293.595122 
C 91.468479 292.764534 91.138483 291.967853 90.551168 291.380539 
C 89.963854 290.793225 89.167173 290.463229 88.336585 290.463229 
C 87.505998 290.463229 86.709317 290.793225 86.122002 291.380539 
C 85.534688 291.967853 85.204692 292.764534 85.204692 293.595122 
C 85.204692 294.42571 85.534688 295.222391 86.122002 295.809705 
C 86.709317 296.397019 87.505998 296.727015 88.336585 296.727015 
z
" clip-path="url(#pbf972cd5c8)" style="fill: #9aa0a6; fill-opacity: 0.285"/>
   </g>
   <g id="patch_11">
    <path d="M 103.341463 298.43532 
L 88.336585 296.727015 
L 88.336585 290.463229 
L 103.341463 288.754923 
z
" clip-path="url(#pbf972cd5c8)" style="fill: #9aa0a6; fill-opacity: 0.285"/>
   </g>
   <g id="patch_12">
    <path d="M 103.341463 297.695055 
C 104.428778 297.695055 105.471706 297.26306 106.240554 296.494212 
C 107.009402 295.725365 107.441396 294.682437 107.441396 293.595122 
C 107.441396 292.507807 107.009402 291.464879 106.240554 290.696032 
C 105.471706 289.927184 104.428778 289.495189 103.341463 289.495189 
C 102.254149 289.495189 101.211221 289.927184 100.442373 290.696032 
C 99.673525 291.464879 99.241531 292.507807 99.241531 293.595122 
C 99.241531 294.682437 99.673525 295.725365 100.442373 296.494212 
C 101.211221 297.26306 102.254149 297.695055 103.341463 297.695055 
z
" clip-path="url(#pbf972cd5c8)" style="fill: #9aa0a6; fill-opacity: 0.285; stroke: #7d8288; stroke-opacity: 0.85; stroke-width: 1.3; stroke-linejoin: miter"/>
   </g>
   <g id="line2d_2">
    <path d="M 152.907569 186.224498 
L 126.117941 236.906295 
L 124.510095 239.363474 
L 122.158809 241.122551 
L 119.347683 241.971356 
L 116.415781 241.807509 
L 113.716732 240.650774 
L 111.576083 238.64067 
L 110.252027 236.019645 
L 109.904265 233.103833 
L 110.574742 230.244924 
L 128.799748 175.892575 
L 131.293551 172.081441 
L 134.940444 169.353077 
L 139.300557 168.036564 
L 143.847998 168.290693 
L 148.034277 170.084812 
L 151.354467 173.202525 
L 153.408105 177.267789 
L 153.947492 181.790272 
L 152.907569 186.224498 
L 152.907569 186.224498 
" clip-path="url(#pbf972cd5c8)" style="fill: none; stroke: #7d8288; stroke-opacity: 0.85; stroke-width: 1.7; stroke-linecap: round"/>
   </g>
   <g id="line2d_3">
    <path d="M 126.549138 235.626309 
L 108.865796 294.976205 
L 108.060279 296.782348 
L 106.685604 298.204065 
L 104.907576 299.069875 
L 102.940652 299.27535 
L 101.022072 298.795705 
L 99.383244 297.688792 
L 98.221836 296.088123 
L 97.677931 294.186761 
L 97.817131 292.214039 
L 110.143545 231.524911 
L 111.339615 228.843061 
L 113.380799 226.732027 
L 116.020901 225.44643 
L 118.941485 225.141332 
L 121.790286 225.853533 
L 124.223697 227.497129 
L 125.948212 229.873881 
L 126.755829 232.697115 
L 126.549138 235.626309 
L 126.549138 235.626309 
" clip-path="url(#pbf972cd5c8)" style="fill: none; stroke: #7d8288; stroke-opacity: 0.85; stroke-width: 1.7; stroke-linecap: round"/>
   </g>
   <g id="line2d_4">
    <path d="M 103.341463 298.43532 
L 88.336585 296.727015 
L 87.265415 296.538139 
L 86.323443 295.994291 
L 85.624286 295.161069 
L 85.252273 294.138969 
L 85.252273 293.051274 
L 85.624286 292.029175 
L 86.323443 291.195953 
L 87.265415 290.652105 
L 88.336585 290.463229 
L 103.341463 288.754923 
L 104.996909 289.046823 
L 106.452683 289.887315 
L 107.533198 291.175023 
L 108.108128 292.75463 
L 108.108128 294.435614 
L 107.533198 296.015221 
L 106.452683 297.302929 
L 104.996909 298.143421 
L 103.341463 298.43532 
L 103.341463 298.43532 
" clip-path="url(#pbf972cd5c8)" style="fill: none; stroke: #7d8288; stroke-opacity: 0.85; stroke-width: 1.5; stroke-linecap: round"/>
   </g>
   <g id="patch_13">
    <path d="M 137.102439 117.287805 
C 139.092109 117.287805 141.000555 116.497301 142.407465 115.090391 
C 143.814374 113.683482 144.604878 111.775036 144.604878 109.785366 
C 144.604878 107.795696 143.814374 105.88725 142.407465 104.48034 
C 141.000555 103.073431 139.092109 102.282927 137.102439 102.282927 
C 135.112769 102.282927 133.204323 103.073431 131.797414 104.48034 
C 130.390504 105.88725 129.6 107.795696 129.6 109.785366 
C 129.6 111.775036 130.390504 113.683482 131.797414 115.090391 
C 133.204323 116.497301 135.112769 117.287805 137.102439 117.287805 
z
" clip-path="url(#pbf972cd5c8)" style="fill: #9aa0a6; fill-opacity: 0.3"/>
   </g>
   <g id="patch_14">
    <path d="M 138.978049 138.294634 
C 142.062037 138.294634 145.020129 137.069352 147.200838 134.888643 
C 149.381548 132.707934 150.606829 129.749842 150.606829 126.665854 
C 150.606829 123.581865 149.381548 120.623773 147.200838 118.443064 
C 145.020129 116.262355 142.062037 115.037073 138.978049 115.037073 
C 135.89406 115.037073 132.935969 116.262355 130.755259 118.443064 
C 128.57455 120.623773 127.349268 123.581865 127.349268 126.665854 
C 127.349268 129.749842 128.57455 132.707934 130.755259 134.888643 
C 132.935969 137.069352 135.89406 138.294634 138.978049 138.294634 
z
" clip-path="url(#pbf972cd5c8)" style="fill: #9aa0a6; fill-opacity: 0.3"/>
   </g>
   <g id="patch_15">
    <path d="M 144.558991 108.95686 
L 150.535705 125.38167 
L 127.420393 127.950038 
L 129.645887 110.613872 
z
" clip-path="url(#pbf972cd5c8)" style="fill: #9aa0a6; fill-opacity: 0.3"/>
   </g>
   <g id="patch_16">
    <path d="M 138.978049 149.923415 
C 145.146026 149.923415 151.062209 147.472851 155.423628 143.111433 
C 159.785046 138.750014 162.23561 132.833831 162.23561 126.665854 
C 162.23561 120.497876 159.785046 114.581693 155.423628 110.220275 
C 151.062209 105.858856 145.146026 103.408293 138.978049 103.408293 
C 132.810072 103.408293 126.893888 105.858856 122.53247 110.220275 
C 118.171051 114.581693 115.720488 120.497876 115.720488 126.665854 
C 115.720488 132.833831 118.171051 138.750014 122.53247 143.111433 
C 126.893888 147.472851 132.810072 149.923415 138.978049 149.923415 
z
" clip-path="url(#pbf972cd5c8)" style="fill: #9aa0a6; fill-opacity: 0.3"/>
   </g>
   <g id="patch_17">
    <path d="M 140.853659 198.314146 
C 145.4299 198.314146 149.819326 196.495986 153.055217 193.260095 
C 156.291108 190.024204 158.109268 185.634778 158.109268 181.058537 
C 158.109268 176.482295 156.291108 172.092869 153.055217 168.856978 
C 149.819326 165.621087 145.4299 163.802927 140.853659 163.802927 
C 136.277417 163.802927 131.887991 165.621087 128.6521 168.856978 
C 125.416209 172.092869 123.598049 176.482295 123.598049 181.058537 
C 123.598049 185.634778 125.416209 190.024204 128.6521 193.260095 
C 131.887991 196.495986 136.277417 198.314146 140.853659 198.314146 
z
" clip-path="url(#pbf972cd5c8)" style="fill: #9aa0a6; fill-opacity: 0.3"/>
   </g>
   <g id="patch_18">
    <path d="M 162.221795 125.864345 
L 158.099018 180.463869 
L 123.608299 181.653204 
L 115.734303 127.467362 
z
" clip-path="url(#pbf972cd5c8)" style="fill: #9aa0a6; fill-opacity: 0.3"/>
   </g>
   <g id="patch_19">
    <path d="M 140.853659 195.313171 
C 144.634032 195.313171 148.26008 193.811213 150.933207 191.138085 
C 153.606335 188.464958 155.108293 184.83891 155.108293 181.058537 
C 155.108293 177.278163 153.606335 173.652116 150.933207 170.978988 
C 148.26008 168.305861 144.634032 166.803902 140.853659 166.803902 
C 137.073285 166.803902 133.447238 168.305861 130.77411 170.978988 
C 128.100983 173.652116 126.599024 177.278163 126.599024 181.058537 
C 126.599024 184.83891 128.100983 188.464958 130.77411 191.138085 
C 133.447238 193.811213 137.073285 195.313171 140.853659 195.313171 
z
" clip-path="url(#pbf972cd5c8)" style="fill: #9aa0a6; fill-opacity: 0.3"/>
   </g>
   <g id="patch_20">
    <path d="M 185.868293 216.507561 
C 188.305639 216.507561 190.643485 215.539193 192.366949 213.815729 
C 194.090413 212.092266 195.05878 209.754419 195.05878 207.317073 
C 195.05878 204.879727 194.090413 202.541881 192.366949 200.818417 
C 190.643485 199.094953 188.305639 198.126585 185.868293 198.126585 
C 183.430947 198.126585 181.0931 199.094953 179.369636 200.818417 
C 177.646173 202.541881 176.677805 204.879727 176.677805 207.317073 
C 176.677805 209.754419 177.646173 212.092266 179.369636 213.815729 
C 181.0931 215.539193 183.430947 216.507561 185.868293 216.507561 
z
" clip-path="url(#pbf972cd5c8)" style="fill: #9aa0a6; fill-opacity: 0.3"/>
   </g>
   <g id="patch_21">
    <path d="M 148.036156 168.745684 
L 190.499113 199.378524 
L 181.237472 215.255623 
L 133.671161 193.371389 
z
" clip-path="url(#pbf972cd5c8)" style="fill: #9aa0a6; fill-opacity: 0.3"/>
   </g>
   <g id="patch_22">
    <path d="M 185.868293 216.507561 
C 188.305639 216.507561 190.643485 215.539193 192.366949 213.815729 
C 194.090413 212.092266 195.05878 209.754419 195.05878 207.317073 
C 195.05878 204.879727 194.090413 202.541881 192.366949 200.818417 
C 190.643485 199.094953 188.305639 198.126585 185.868293 198.126585 
C 183.430947 198.126585 181.0931 199.094953 179.369636 200.818417 
C 177.646173 202.541881 176.677805 204.879727 176.677805 207.317073 
C 176.677805 209.754419 177.646173 212.092266 179.369636 213.815729 
C 181.0931 215.539193 183.430947 216.507561 185.868293 216.507561 
z
" clip-path="url(#pbf972cd5c8)" style="fill: #9aa0a6; fill-opacity: 0.3"/>
   </g>
   <g id="patch_23">
    <path d="M 163.360976 254.77 
C 165.002453 254.77 166.576922 254.117834 167.737622 252.957134 
C 168.898322 251.796434 169.550488 250.221966 169.550488 248.580488 
C 169.550488 246.93901 168.898322 245.364542 167.737622 244.203842 
C 166.576922 243.043142 165.002453 242.390976 163.360976 242.390976 
C 161.719498 242.390976 160.14503 243.043142 158.98433 244.203842 
C 157.823629 245.364542 157.171463 246.93901 157.171463 248.580488 
C 157.171463 250.221966 157.823629 251.796434 158.98433 252.957134 
C 160.14503 254.117834 161.719498 254.77 163.360976 254.77 
z
" clip-path="url(#pbf972cd5c8)" style="fill: #9aa0a6; fill-opacity: 0.3"/>
   </g>
   <g id="patch_24">
    <path d="M 193.936581 211.717958 
L 168.794721 251.544349 
L 157.92723 245.616627 
L 177.800004 202.916189 
z
" clip-path="url(#pbf972cd5c8)" style="fill: #9aa0a6; fill-opacity: 0.3"/>
   </g>
   <g id="patch_25">
    <path d="M 163.360976 253.841573 
C 164.756232 253.841573 166.09453 253.287232 167.081125 252.300637 
C 168.06772 251.314042 168.622061 249.975744 168.622061 248.580488 
C 168.622061 247.185232 168.06772 245.846934 167.081125 244.860339 
C 166.09453 243.873744 164.756232 243.319402 163.360976 243.319402 
C 161.965719 243.319402 160.627422 243.873744 159.640826 244.860339 
C 158.654231 245.846934 158.09989 247.185232 158.09989 248.580488 
C 158.09989 249.975744 158.654231 251.314042 159.640826 252.300637 
C 160.627422 253.287232 161.965719 253.841573 163.360976 253.841573 
z
" clip-path="url(#pbf972cd5c8)" style="fill: #9aa0a6; fill-opacity: 0.3"/>
   </g>
   <g id="patch_26">
    <path d="M 178.365854 251.98472 
C 179.268666 251.98472 180.134624 251.626028 180.773009 250.987643 
C 181.411394 250.349258 181.770085 249.483301 181.770085 248.580488 
C 181.770085 247.677675 181.411394 246.811718 180.773009 246.173332 
C 180.134624 245.534947 179.268666 245.176256 178.365854 245.176256 
C 177.463041 245.176256 176.597083 245.534947 175.958698 246.173332 
C 175.320313 246.811718 174.961622 247.677675 174.961622 248.580488 
C 174.961622 249.483301 175.320313 250.349258 175.958698 250.987643 
C 176.597083 251.626028 177.463041 251.98472 178.365854 251.98472 
z
" clip-path="url(#pbf972cd5c8)" style="fill: #9aa0a6; fill-opacity: 0.3"/>
   </g>
   <g id="patch_27">
    <path d="M 163.360976 243.319402 
L 178.365854 245.176256 
L 178.365854 251.98472 
L 163.360976 253.841573 
z
" clip-path="url(#pbf972cd5c8)" style="fill: #9aa0a6; fill-opacity: 0.3"/>
   </g>
   <g id="line2d_5">
    <path d="M 144.558991 108.95686 
L 150.535705 125.38167 
L 150.277909 129.412067 
L 148.657184 133.11123 
L 145.869013 136.032985 
L 142.249689 137.824926 
L 138.235757 138.270919 
L 134.311357 137.317169 
L 130.949828 135.078714 
L 128.556622 131.825543 
L 127.420393 127.950038 
L 129.645887 110.613872 
L 129.812206 108.013616 
L 130.857835 105.627059 
L 132.656656 103.742055 
L 134.991703 102.585964 
L 137.581337 102.298227 
L 140.113208 102.913549 
L 142.281936 104.357714 
L 143.82594 106.456534 
L 144.558991 108.95686 
L 144.558991 108.95686 
" clip-path="url(#pbf972cd5c8)" style="fill: none; stroke: #7d8288; stroke-opacity: 0.85; stroke-width: 1.7; stroke-linecap: round"/>
   </g>
   <g id="line2d_6">
    <path d="M 162.221795 125.864345 
L 158.099018 180.463869 
L 157.262384 186.397992 
L 154.446616 191.688098 
L 149.991336 195.696123 
L 144.433917 197.938638 
L 138.444666 198.145164 
L 132.745976 196.29079 
L 128.025191 192.599182 
L 124.851709 187.515602 
L 123.608299 181.653204 
L 115.734303 127.467362 
L 116.86194 119.469196 
L 120.657107 112.339053 
L 126.662049 106.936933 
L 134.152483 103.914413 
L 142.224951 103.636052 
L 149.905795 106.135425 
L 156.268591 111.111071 
L 160.545893 117.962853 
L 162.221795 125.864345 
L 162.221795 125.864345 
" clip-path="url(#pbf972cd5c8)" style="fill: none; stroke: #7d8288; stroke-opacity: 0.85; stroke-width: 1.7; stroke-linecap: round"/>
   </g>
   <g id="patch_28">
    <path d="M 138.978049 136.043902 
C 141.465136 136.043902 143.850694 135.055772 145.609331 133.297136 
C 147.367967 131.538499 148.356098 129.152941 148.356098 126.665854 
C 148.356098 124.178766 147.367967 121.793208 145.609331 120.034572 
C 143.850694 118.275935 141.465136 117.287805 138.978049 117.287805 
C 136.490961 117.287805 134.105403 118.275935 132.346767 120.034572 
C 130.58813 121.793208 129.6 124.178766 129.6 126.665854 
C 129.6 129.152941 130.58813 131.538499 132.346767 133.297136 
C 134.105403 135.055772 136.490961 136.043902 138.978049 136.043902 
z
" clip-path="url(#pbf972cd5c8)" style="fill: #9aa0a6; fill-opacity: 0.3"/>
   </g>
   <g id="patch_29">
    <path d="M 123.973171 157.988537 
C 125.813616 157.988537 127.578928 157.25732 128.880319 155.955929 
C 130.18171 154.654538 130.912927 152.889225 130.912927 151.04878 
C 130.912927 149.208336 130.18171 147.443023 128.880319 146.141632 
C 127.578928 144.840241 125.813616 144.109024 123.973171 144.109024 
C 122.132726 144.109024 120.367413 144.840241 119.066022 146.141632 
C 117.764631 147.443023 117.033415 149.208336 117.033415 151.04878 
C 117.033415 152.889225 117.764631 154.654538 119.066022 155.955929 
C 120.367413 157.25732 122.132726 157.988537 123.973171 157.988537 
z
" clip-path="url(#pbf972cd5c8)" style="fill: #9aa0a6; fill-opacity: 0.3"/>
   </g>
   <g id="patch_30">
    <path d="M 146.964942 131.580865 
L 129.883472 154.685889 
L 118.06287 147.411672 
L 130.991156 121.750842 
z
" clip-path="url(#pbf972cd5c8)" style="fill: #9aa0a6; fill-opacity: 0.3"/>
   </g>
   <g id="patch_31">
    <path d="M 123.973171 157.988537 
C 125.813616 157.988537 127.578928 157.25732 128.880319 155.955929 
C 130.18171 154.654538 130.912927 152.889225 130.912927 151.04878 
C 130.912927 149.208336 130.18171 147.443023 128.880319 146.141632 
C 127.578928 144.840241 125.813616 144.109024 123.973171 144.109024 
C 122.132726 144.109024 120.367413 144.840241 119.066022 146.141632 
C 117.764631 147.443023 117.033415 149.208336 117.033415 151.04878 
C 117.033415 152.889225 117.764631 154.654538 119.066022 155.955929 
C 120.367413 157.25732 122.132726 157.988537 123.973171 157.988537 
z
" clip-path="url(#pbf972cd5c8)" style="fill: #9aa0a6; fill-opacity: 0.3"/>
   </g>
   <g id="patch_32">
    <path d="M 112.719512 175.619268 
C 114.261507 175.619268 115.740552 175.006627 116.830907 173.916273 
C 117.921262 172.825918 118.533902 171.346872 118.533902 169.804878 
C 118.533902 168.262884 117.921262 166.783838 116.830907 165.693483 
C 115.740552 164.603129 114.261507 163.990488 112.719512 163.990488 
C 111.177518 163.990488 109.698472 164.603129 108.608117 165.693483 
C 107.517763 166.783838 106.905122 168.262884 106.905122 169.804878 
C 106.905122 171.346872 107.517763 172.825918 108.608117 173.916273 
C 109.698472 175.006627 111.177518 175.619268 112.719512 175.619268 
z
" clip-path="url(#pbf972cd5c8)" style="fill: #9aa0a6; fill-opacity: 0.3"/>
   </g>
   <g id="patch_33">
    <path d="M 129.923962 154.619256 
L 117.705311 172.796357 
L 107.733714 166.813399 
L 118.022379 147.478305 
z
" clip-path="url(#pbf972cd5c8)" style="fill: #9aa0a6; fill-opacity: 0.3"/>
   </g>
   <g id="patch_34">
    <path d="M 163.360976 253.036937 
C 164.54284 253.036937 165.676457 252.567377 166.512161 251.731673 
C 167.347865 250.895969 167.817424 249.762352 167.817424 248.580488 
C 167.817424 247.398624 167.347865 246.265007 166.512161 245.429303 
C 165.676457 244.593599 164.54284 244.124039 163.360976 244.124039 
C 162.179112 244.124039 161.045495 244.593599 160.20979 245.429303 
C 159.374086 246.265007 158.904527 247.398624 158.904527 248.580488 
C 158.904527 249.762352 159.374086 250.895969 160.20979 251.731673 
C 161.045495 252.567377 162.179112 253.036937 163.360976 253.036937 
z
" clip-path="url(#pbf972cd5c8)" style="fill: #9aa0a6; fill-opacity: 0.3; stroke: #7d8288; stroke-opacity: 0.85; stroke-width: 1.3; stroke-linejoin: miter"/>
   </g>
   <g id="patch_35">
    <path d="M 112.719512 175.99439 
C 114.36099 175.99439 115.935458 175.342224 117.096158 174.181524 
C 118.256858 173.020824 118.909024 171.446356 118.909024 169.804878 
C 118.909024 168.1634 118.256858 166.588932 117.096158 165.428232 
C 115.935458 164.267532 114.36099 163.615366 112.719512 163.615366 
C 111.078034 163.615366 109.503566 164.267532 108.342866 165.428232 
C 107.182166 166.588932 106.53 168.1634 106.53 169.804878 
C 106.53 171.446356 107.182166 173.020824 108.342866 174.181524 
C 109.503566 175.342224 111.078034 175.99439 112.719512 175.99439 
z
" clip-path="url(#pbf972cd5c8)" style="fill: #9aa0a6; fill-opacity: 0.3; stroke: #7d8288; stroke-opacity: 0.85; stroke-width: 1.6; stroke-linejoin: miter"/>
   </g>
   <g id="line2d_7">
    <path d="M 148.036156 168.745684 
L 190.499113 199.378524 
L 192.934984 201.441111 
L 194.518508 204.212426 
L 195.058688 207.358207 
L 194.490371 210.499026 
L 192.882104 213.256056 
L 190.427868 215.296756 
L 187.42368 216.374989 
L 184.231889 216.360703 
L 181.237472 215.255623 
L 133.671161 193.371389 
L 129.893076 190.172274 
L 127.436998 185.873908 
L 126.599167 180.994738 
L 127.480639 176.123262 
L 129.975094 171.847053 
L 133.781664 168.681886 
L 138.441222 167.009524 
L 143.391755 167.031682 
L 148.036156 168.745684 
L 148.036156 168.745684 
" clip-path="url(#pbf972cd5c8)" style="fill: none; stroke: #7d8288; stroke-opacity: 0.85; stroke-width: 1.7; stroke-linecap: round"/>
   </g>
   <g id="line2d_8">
    <path d="M 193.936581 211.717958 
L 168.794721 251.544349 
L 167.453326 253.224057 
L 165.618333 254.343681 
L 163.511069 254.76818 
L 161.385702 254.446351 
L 159.498582 253.417013 
L 158.077324 251.804319 
L 157.293352 249.802783 
L 157.241225 247.65382 
L 157.92723 245.616627 
L 177.800004 202.916189 
L 179.791773 200.422077 
L 182.516459 198.759604 
L 185.645426 198.129288 
L 188.801274 198.607154 
L 191.603362 200.135566 
L 193.713715 202.530173 
L 194.877794 205.50215 
L 194.955195 208.693035 
L 193.936581 211.717958 
L 193.936581 211.717958 
" clip-path="url(#pbf972cd5c8)" style="fill: none; stroke: #7d8288; stroke-opacity: 0.85; stroke-width: 1.7; stroke-linecap: round"/>
   </g>
   <g id="line2d_9">
    <path d="M 163.360976 243.319402 
L 178.365854 245.176256 
L 179.530169 245.381556 
L 180.554052 245.972695 
L 181.314005 246.878372 
L 181.718367 247.989349 
L 181.718367 249.171626 
L 181.314005 250.282604 
L 180.554052 251.188281 
L 179.530169 251.779419 
L 178.365854 251.98472 
L 163.360976 253.841573 
L 161.561578 253.524291 
L 159.979215 252.610713 
L 158.804742 251.21103 
L 158.179818 249.494066 
L 158.179818 247.66691 
L 158.804742 245.949945 
L 159.979215 244.550263 
L 161.561578 243.636685 
L 163.360976 243.319402 
L 163.360976 243.319402 
" clip-path="url(#pbf972cd5c8)" style="fill: none; stroke: #7d8288; stroke-opacity: 0.85; stroke-width: 1.5; stroke-linecap: round"/>
   </g>
   <g id="line2d_10">
    <path d="M 146.964942 131.580865 
L 129.883472 154.685889 
L 128.283073 156.487986 
L 126.162836 157.634035 
L 123.778493 157.985805 
L 121.417631 157.500868 
L 119.365005 156.237714 
L 117.868192 154.348697 
L 117.107729 152.061662 
L 117.17534 149.652459 
L 118.06287 147.411672 
L 130.991156 121.750842 
L 133.153857 119.315576 
L 136.019042 117.766861 
L 139.241127 117.291496 
L 142.43148 117.946817 
L 145.205299 119.653782 
L 147.22802 122.206507 
L 148.255672 125.297095 
L 148.164306 128.552775 
L 146.964942 131.580865 
L 146.964942 131.580865 
" clip-path="url(#pbf972cd5c8)" style="fill: none; stroke: #7d8288; stroke-opacity: 0.85; stroke-width: 1.7; stroke-linecap: round"/>
   </g>
   <g id="line2d_11">
    <path d="M 129.923962 154.619256 
L 117.705311 172.796357 
L 116.381484 174.321192 
L 114.61597 175.301293 
L 112.621715 175.618446 
L 110.639255 175.234396 
L 108.907706 174.195466 
L 107.635916 172.626967 
L 106.977283 170.718082 
L 107.011248 168.699051 
L 107.733714 166.813399 
L 118.022379 147.478305 
L 119.60243 145.658341 
L 121.709657 144.488543 
L 124.089897 144.110006 
L 126.456058 144.568388 
L 128.522746 145.808401 
L 130.040689 147.680481 
L 130.826799 149.958828 
L 130.78626 152.368639 
L 129.923962 154.619256 
L 129.923962 154.619256 
" clip-path="url(#pbf972cd5c8)" style="fill: none; stroke: #7d8288; stroke-opacity: 0.85; stroke-width: 1.7; stroke-linecap: round"/>
   </g>
   <g id="patch_36">
    <path d="M 137.102439 124.790244 
C 141.081779 124.790244 144.898672 123.209235 147.71249 120.395417 
C 150.526308 117.581598 152.107317 113.764706 152.107317 109.785366 
C 152.107317 105.806026 150.526308 101.989133 147.71249 99.175315 
C 144.898672 96.361496 141.081779 94.780488 137.102439 94.780488 
C 133.123099 94.780488 129.306206 96.361496 126.492388 99.175315 
C 123.67857 101.989133 122.097561 105.806026 122.097561 109.785366 
C 122.097561 113.764706 123.67857 117.581598 126.492388 120.395417 
C 129.306206 123.209235 133.123099 124.790244 137.102439 124.790244 
z
" clip-path="url(#pbf972cd5c8)" style="fill: #9aa0a6; fill-opacity: 0.3; stroke: #7d8288; stroke-opacity: 0.85; stroke-width: 1.8; stroke-linejoin: miter"/>
   </g>
   <g id="patch_37">
    <path d="M 163.360976 122.899629 
C 166.838919 122.899629 170.174883 121.517828 172.63416 119.05855 
C 175.093438 116.599273 176.475239 113.263309 176.475239 109.785366 
C 176.475239 106.307423 175.093438 102.971459 172.63416 100.512181 
C 170.174883 98.052904 166.838919 96.671102 163.360976 96.671102 
C 159.883032 96.671102 156.547068 98.052904 154.087791 100.512181 
C 151.628514 102.971459 150.246712 106.307423 150.246712 109.785366 
C 150.246712 113.263309 151.628514 116.599273 154.087791 119.05855 
C 156.547068 121.517828 159.883032 122.899629 163.360976 122.899629 
z
" clip-path="url(#pbf972cd5c8)" style="fill: #3c3f42; fill-opacity: 0.95"/>
   </g>
   <g id="patch_38">
    <path d="M 133.35122 163.255249 
C 135.593578 163.255249 137.744397 162.36435 139.329983 160.778764 
C 140.91557 159.193177 141.806468 157.042358 141.806468 154.8 
C 141.806468 152.557642 140.91557 150.406823 139.329983 148.821236 
C 137.744397 147.23565 135.593578 146.344751 133.35122 146.344751 
C 131.108861 146.344751 128.958042 147.23565 127.372456 148.821236 
C 125.786869 150.406823 124.895971 152.557642 124.895971 154.8 
C 124.895971 157.042358 125.786869 159.193177 127.372456 160.778764 
C 128.958042 162.36435 131.108861 163.255249 133.35122 163.255249 
z
" clip-path="url(#pbf972cd5c8)" style="fill: #3c3f42; fill-opacity: 0.95"/>
   </g>
   <g id="patch_39">
    <path d="M 174.272702 117.05985 
L 140.386412 159.490128 
L 126.316027 150.109872 
L 152.449249 102.510881 
z
" clip-path="url(#pbf972cd5c8)" style="fill: #3c3f42; fill-opacity: 0.95"/>
   </g>
   <g id="patch_40">
    <path d="M 133.35122 163.255249 
C 135.593578 163.255249 137.744397 162.36435 139.329983 160.778764 
C 140.91557 159.193177 141.806468 157.042358 141.806468 154.8 
C 141.806468 152.557642 140.91557 150.406823 139.329983 148.821236 
C 137.744397 147.23565 135.593578 146.344751 133.35122 146.344751 
C 131.108861 146.344751 128.958042 147.23565 127.372456 148.821236 
C 125.786869 150.406823 124.895971 152.557642 124.895971 154.8 
C 124.895971 157.042358 125.786869 159.193177 127.372456 160.778764 
C 128.958042 162.36435 131.108861 163.255249 133.35122 163.255249 
z
" clip-path="url(#pbf972cd5c8)" style="fill: #3c3f42; fill-opacity: 0.95"/>
   </g>
   <g id="patch_41">
    <path d="M 144.604878 216.762644 
C 146.115038 216.762644 147.563548 216.162651 148.631392 215.094807 
C 149.699237 214.026963 150.299229 212.578452 150.299229 211.068293 
C 150.299229 209.558133 149.699237 208.109622 148.631392 207.041778 
C 147.563548 205.973934 146.115038 205.373941 144.604878 205.373941 
C 143.094718 205.373941 141.646208 205.973934 140.578364 207.041778 
C 139.51052 208.109622 138.910527 209.558133 138.910527 211.068293 
C 138.910527 212.578452 139.51052 214.026963 140.578364 215.094807 
C 141.646208 216.162651 143.094718 216.762644 144.604878 216.762644 
z
" clip-path="url(#pbf972cd5c8)" style="fill: #3c3f42; fill-opacity: 0.95"/>
   </g>
   <g id="patch_42">
    <path d="M 141.642273 153.141789 
L 150.188649 209.951539 
L 139.021107 212.185047 
L 125.060166 156.458211 
z
" clip-path="url(#pbf972cd5c8)" style="fill: #3c3f42; fill-opacity: 0.95"/>
   </g>
   <g id="patch_43">
    <path d="M 144.604878 215.908491 
C 145.888514 215.908491 147.119748 215.398497 148.027415 214.49083 
C 148.935083 213.583162 149.445077 212.351928 149.445077 211.068293 
C 149.445077 209.784657 148.935083 208.553423 148.027415 207.645755 
C 147.119748 206.738088 145.888514 206.228094 144.604878 206.228094 
C 143.321242 206.228094 142.090008 206.738088 141.182341 207.645755 
C 140.274673 208.553423 139.76468 209.784657 139.76468 211.068293 
C 139.76468 212.351928 140.274673 213.583162 141.182341 214.49083 
C 142.090008 215.398497 143.321242 215.908491 144.604878 215.908491 
z
" clip-path="url(#pbf972cd5c8)" style="fill: #1b1b1b; fill-opacity: 0.95"/>
   </g>
   <g id="patch_44">
    <path d="M 155.858537 217.951405 
C 156.689124 217.951405 157.485805 217.621409 158.073119 217.034095 
C 158.660434 216.446781 158.99043 215.6501 158.99043 214.819512 
C 158.99043 213.988924 158.660434 213.192244 158.073119 212.604929 
C 157.485805 212.017615 156.689124 211.687619 155.858537 211.687619 
C 155.027949 211.687619 154.231268 212.017615 153.643954 212.604929 
C 153.056639 213.192244 152.726643 213.988924 152.726643 214.819512 
C 152.726643 215.6501 153.056639 216.446781 153.643954 217.034095 
C 154.231268 217.621409 155.027949 217.951405 155.858537 217.951405 
z
" clip-path="url(#pbf972cd5c8)" style="fill: #1b1b1b; fill-opacity: 0.95"/>
   </g>
   <g id="patch_45">
    <path d="M 146.135483 206.476477 
L 156.848928 211.848337 
L 154.868145 217.790687 
L 143.074273 215.660108 
z
" clip-path="url(#pbf972cd5c8)" style="fill: #1b1b1b; fill-opacity: 0.95"/>
   </g>
   <g id="patch_46">
    <path d="M 144.604878 215.168226 
C 145.692193 215.168226 146.735121 214.736231 147.503968 213.967383 
C 148.272816 213.198535 148.704811 212.155608 148.704811 211.068293 
C 148.704811 209.980978 148.272816 208.93805 147.503968 208.169202 
C 146.735121 207.400355 145.692193 206.96836 144.604878 206.96836 
C 143.517563 206.96836 142.474635 207.400355 141.705788 208.169202 
C 140.93694 208.93805 140.504945 209.980978 140.504945 211.068293 
C 140.504945 212.155608 140.93694 213.198535 141.705788 213.967383 
C 142.474635 214.736231 143.517563 215.168226 144.604878 215.168226 
z
" clip-path="url(#pbf972cd5c8)" style="fill: #1b1b1b; fill-opacity: 0.95; stroke: #121212; stroke-width: 1.3; stroke-linejoin: miter"/>
   </g>
   <g id="line2d_12">
    <path d="M 174.272702 117.05985 
L 140.386412 159.490128 
L 138.358019 161.613456 
L 135.725733 162.914981 
L 132.807045 163.237719 
L 129.953993 162.542744 
L 127.510697 160.91388 
L 125.771853 158.547591 
L 124.947193 155.729288 
L 125.136183 152.798899 
L 126.316027 150.109872 
L 152.449249 102.510881 
L 155.595327 99.217556 
L 159.678056 97.198865 
L 164.205001 96.698291 
L 168.630143 97.776212 
L 172.419746 100.302614 
L 175.116727 103.972776 
L 176.395792 108.344022 
L 176.102665 112.889115 
L 174.272702 117.05985 
L 174.272702 117.05985 
" clip-path="url(#pbf972cd5c8)" style="fill: none; stroke: #282a2c; stroke-width: 1.7; stroke-linecap: round"/>
   </g>
   <g id="line2d_13">
    <path d="M 141.642273 153.141789 
L 150.188649 209.951539 
L 150.233859 211.928649 
L 149.60013 213.801988 
L 148.363901 215.345603 
L 146.674278 216.373311 
L 144.735055 216.761156 
L 142.78013 216.462357 
L 141.045297 215.512955 
L 139.739802 214.02746 
L 139.021107 212.185047 
L 125.060166 156.458211 
L 124.993036 153.522501 
L 125.934027 150.740877 
L 127.76964 148.448842 
L 130.278474 146.922851 
L 133.157927 146.346961 
L 136.060694 146.790632 
L 138.636658 148.20035 
L 140.57512 150.406084 
L 141.642273 153.141789 
L 141.642273 153.141789 
" clip-path="url(#pbf972cd5c8)" style="fill: none; stroke: #282a2c; stroke-width: 1.7; stroke-linecap: round"/>
   </g>
   <g id="line2d_14">
    <path d="M 146.135483 206.476477 
L 156.848928 211.848337 
L 157.805402 212.366255 
L 158.527055 213.180072 
L 158.926845 214.191629 
L 158.956552 215.278918 
L 158.612593 216.310797 
L 157.936454 217.162804 
L 157.009687 217.732176 
L 155.944075 217.950237 
L 154.868145 217.790687 
L 143.074273 215.660108 
L 141.596086 214.85969 
L 140.480804 213.601973 
L 139.862947 212.038657 
L 139.817036 210.358301 
L 140.348609 208.76358 
L 141.393552 207.446842 
L 142.825828 206.566904 
L 144.472683 206.2299 
L 146.135483 206.476477 
L 146.135483 206.476477 
" clip-path="url(#pbf972cd5c8)" style="fill: none; stroke: #121212; stroke-width: 1.5; stroke-linecap: round"/>
   </g>
   <g id="patch_47">
    <path d="M 163.360976 32.885366 
C 165.350646 32.885366 167.259092 32.094862 168.666001 30.687952 
C 170.07291 29.281043 170.863415 27.372597 170.863415 25.382927 
C 170.863415 23.393257 170.07291 21.484811 168.666001 20.077901 
C 167.259092 18.670992 165.350646 17.880488 163.360976 17.880488 
C 161.371306 17.880488 159.462859 18.670992 158.05595 20.077901 
C 156.649041 21.484811 155.858537 23.393257 155.858537 25.382927 
C 155.858537 27.372597 156.649041 29.281043 158.05595 30.687952 
C 159.462859 32.094862 161.371306 32.885366 163.360976 32.885366 
z
" clip-path="url(#pbf972cd5c8)" style="fill: #2c3e50"/>
   </g>
   <g id="patch_48">
    <path d="M 163.360976 53.892195 
C 166.444964 53.892195 169.403056 52.666913 171.583765 50.486204 
C 173.764474 48.305495 174.989756 45.347403 174.989756 42.263415 
C 174.989756 39.179426 173.764474 36.221334 171.583765 34.040625 
C 169.403056 31.859916 166.444964 30.634634 163.360976 30.634634 
C 160.276987 30.634634 157.318895 31.859916 155.138186 34.040625 
C 152.957477 36.221334 151.732195 39.179426 151.732195 42.263415 
C 151.732195 45.347403 152.957477 48.305495 155.138186 50.486204 
C 157.318895 52.666913 160.276987 53.892195 163.360976 53.892195 
z
" clip-path="url(#pbf972cd5c8)" style="fill: #2c3e50"/>
   </g>
   <g id="patch_49">
    <path d="M 170.863415 25.382927 
L 174.989756 42.263415 
L 151.732195 42.263415 
L 155.858537 25.382927 
z
" clip-path="url(#pbf972cd5c8)" style="fill: #2c3e50"/>
   </g>
   <g id="patch_50">
    <path d="M 163.360976 65.520976 
C 169.528953 65.520976 175.445136 63.070412 179.806555 58.708994 
C 184.167973 54.347575 186.618537 48.431392 186.618537 42.263415 
C 186.618537 36.095437 184.167973 30.179254 179.806555 25.817836 
C 175.445136 21.456417 169.528953 19.005854 163.360976 19.005854 
C 157.192998 19.005854 151.276815 21.456417 146.915397 25.817836 
C 142.553978 30.179254 140.103415 36.095437 140.103415 42.263415 
C 140.103415 48.431392 142.553978 54.347575 146.915397 58.708994 
C 151.276815 63.070412 157.192998 65.520976 163.360976 65.520976 
z
" clip-path="url(#pbf972cd5c8)" style="fill: #2c3e50"/>
   </g>
   <g id="patch_51">
    <path d="M 163.360976 127.040976 
C 167.937217 127.040976 172.326643 125.222816 175.562534 121.986925 
C 178.798425 118.751033 180.616585 114.361607 180.616585 109.785366 
C 180.616585 105.209125 178.798425 100.819698 175.562534 97.583807 
C 172.326643 94.347916 167.937217 92.529756 163.360976 92.529756 
C 158.784734 92.529756 154.395308 94.347916 151.159417 97.583807 
C 147.923526 100.819698 146.105366 105.209125 146.105366 109.785366 
C 146.105366 114.361607 147.923526 118.751033 151.159417 121.986925 
C 154.395308 125.222816 158.784734 127.040976 163.360976 127.040976 
z
" clip-path="url(#pbf972cd5c8)" style="fill: #2c3e50"/>
   </g>
   <g id="patch_52">
    <path d="M 186.618537 42.263415 
L 180.616585 109.785366 
L 146.105366 109.785366 
L 140.103415 42.263415 
z
" clip-path="url(#pbf972cd5c8)" style="fill: #2c3e50"/>
   </g>
   <g id="patch_53">
    <path d="M 163.360976 124.04 
C 167.141349 124.04 170.767397 122.538042 173.440524 119.864914 
C 176.113652 117.191787 177.61561 113.565739 177.61561 109.785366 
C 177.61561 106.004993 176.113652 102.378945 173.440524 99.705817 
C 170.767397 97.03269 167.141349 95.530732 163.360976 95.530732 
C 159.580602 95.530732 155.954555 97.03269 153.281427 99.705817 
C 150.6083 102.378945 149.106341 106.004993 149.106341 109.785366 
C 149.106341 113.565739 150.6083 117.191787 153.281427 119.864914 
C 155.954555 122.538042 159.580602 124.04 163.360976 124.04 
z
" clip-path="url(#pbf972cd5c8)" style="fill: #3c3f42"/>
   </g>
   <g id="patch_54">
    <path d="M 163.360976 186.497805 
C 165.798321 186.497805 168.136168 185.529437 169.859632 183.805973 
C 171.583096 182.08251 172.551463 179.744663 172.551463 177.307317 
C 172.551463 174.869971 171.583096 172.532125 169.859632 170.808661 
C 168.136168 169.085197 165.798321 168.116829 163.360976 168.116829 
C 160.92363 168.116829 158.585783 169.085197 156.862319 170.808661 
C 155.138856 172.532125 154.170488 174.869971 154.170488 177.307317 
C 154.170488 179.744663 155.138856 182.08251 156.862319 183.805973 
C 158.585783 185.529437 160.92363 186.497805 163.360976 186.497805 
z
" clip-path="url(#pbf972cd5c8)" style="fill: #3c3f42"/>
   </g>
   <g id="patch_55">
    <path d="M 177.61561 109.785366 
L 172.551463 177.307317 
L 154.170488 177.307317 
L 149.106341 109.785366 
z
" clip-path="url(#pbf972cd5c8)" style="fill: #3c3f42"/>
   </g>
   <g id="patch_56">
    <path d="M 163.360976 186.497805 
C 165.798321 186.497805 168.136168 185.529437 169.859632 183.805973 
C 171.583096 182.08251 172.551463 179.744663 172.551463 177.307317 
C 172.551463 174.869971 171.583096 172.532125 169.859632 170.808661 
C 168.136168 169.085197 165.798321 168.116829 163.360976 168.116829 
C 160.92363 168.116829 158.585783 169.085197 156.862319 170.808661 
C 155.138856 172.532125 154.170488 174.869971 154.170488 177.307317 
C 154.170488 179.744663 155.138856 182.08251 156.862319 183.805973 
C 158.585783 185.529437 160.92363 186.497805 163.360976 186.497805 
z
" clip-path="url(#pbf972cd5c8)" style="fill: #3c3f42"/>
   </g>
   <g id="patch_57">
    <path d="M 163.360976 254.77 
C 165.002453 254.77 166.576922 254.117834 167.737622 252.957134 
C 168.898322 251.796434 169.550488 250.221966 169.550488 248.580488 
C 169.550488 246.93901 168.898322 245.364542 167.737622 244.203842 
C 166.576922 243.043142 165.002453 242.390976 163.360976 242.390976 
C 161.719498 242.390976 160.14503 243.043142 158.98433 244.203842 
C 157.823629 245.364542 157.171463 246.93901 157.171463 248.580488 
C 157.171463 250.221966 157.823629 251.796434 158.98433 252.957134 
C 160.14503 254.117834 161.719498 254.77 163.360976 254.77 
z
" clip-path="url(#pbf972cd5c8)" style="fill: #3c3f42"/>
   </g>
   <g id="patch_58">
    <path d="M 172.551463 177.307317 
L 169.550488 248.580488 
L 157.171463 248.580488 
L 154.170488 177.307317 
z
" clip-path="url(#pbf972cd5c8)" style="fill: #3c3f42"/>
   </g>
   <g id="patch_59">
    <path d="M 163.360976 253.841573 
C 164.756232 253.841573 166.09453 253.287232 167.081125 252.300637 
C 168.06772 251.314042 168.622061 249.975744 168.622061 248.580488 
C 168.622061 247.185232 168.06772 245.846934 167.081125 244.860339 
C 166.09453 243.873744 164.756232 243.319402 163.360976 243.319402 
C 161.965719 243.319402 160.627422 243.873744 159.640826 244.860339 
C 158.654231 245.846934 158.09989 247.185232 158.09989 248.580488 
C 158.09989 249.975744 158.654231 251.314042 159.640826 252.300637 
C 160.627422 253.287232 161.965719 253.841573 163.360976 253.841573 
z
" clip-path="url(#pbf972cd5c8)" style="fill: #1b1b1b"/>
   </g>
   <g id="patch_60">
    <path d="M 178.365854 251.98472 
C 179.268666 251.98472 180.134624 251.626028 180.773009 250.987643 
C 181.411394 250.349258 181.770085 249.483301 181.770085 248.580488 
C 181.770085 247.677675 181.411394 246.811718 180.773009 246.173332 
C 180.134624 245.534947 179.268666 245.176256 178.365854 245.176256 
C 177.463041 245.176256 176.597083 245.534947 175.958698 246.173332 
C 175.320313 246.811718 174.961622 247.677675 174.961622 248.580488 
C 174.961622 249.483301 175.320313 250.349258 175.958698 250.987643 
C 176.597083 251.626028 177.463041 251.98472 178.365854 251.98472 
z
" clip-path="url(#pbf972cd5c8)" style="fill: #1b1b1b"/>
   </g>
   <g id="patch_61">
    <path d="M 163.360976 243.319402 
L 178.365854 245.176256 
L 178.365854 251.98472 
L 163.360976 253.841573 
z
" clip-path="url(#pbf972cd5c8)" style="fill: #1b1b1b"/>
   </g>
   <g id="line2d_15">
    <path d="M 170.863415 25.382927 
L 174.989756 42.263415 
L 174.288455 46.240692 
L 172.269138 49.738251 
L 169.175366 52.334234 
L 165.380292 53.715528 
L 161.341659 53.715528 
L 157.546585 52.334234 
L 154.452813 49.738251 
L 152.433496 46.240692 
L 151.732195 42.263415 
L 155.858537 25.382927 
L 156.310989 22.816942 
L 157.613774 20.560452 
L 159.609756 18.885624 
L 162.058191 17.994467 
L 164.66376 17.994467 
L 167.112195 18.885624 
L 169.108177 20.560452 
L 170.410962 22.816942 
L 170.863415 25.382927 
L 170.863415 25.382927 
" clip-path="url(#pbf972cd5c8)" style="fill: none; stroke: #1d2a36; stroke-width: 1.7; stroke-linecap: round"/>
   </g>
   <g id="line2d_16">
    <path d="M 186.618537 42.263415 
L 180.616585 109.785366 
L 179.575945 115.687132 
L 176.57954 120.877058 
L 171.98878 124.729162 
L 166.357381 126.778824 
L 160.36457 126.778824 
L 154.733171 124.729162 
L 150.142412 120.877058 
L 147.146006 115.687132 
L 146.105366 109.785366 
L 140.103415 42.263415 
L 141.506017 34.30886 
L 145.54465 27.313743 
L 151.732195 22.121776 
L 159.322343 19.359188 
L 167.399609 19.359188 
L 174.989756 22.121776 
L 181.177301 27.313743 
L 185.215934 34.30886 
L 186.618537 42.263415 
L 186.618537 42.263415 
" clip-path="url(#pbf972cd5c8)" style="fill: none; stroke: #1d2a36; stroke-width: 1.7; stroke-linecap: round"/>
   </g>
   <g id="patch_62">
    <path d="M 163.360976 51.641463 
C 165.848063 51.641463 168.233621 50.653333 169.992257 48.894697 
C 171.750894 47.13606 172.739024 44.750502 172.739024 42.263415 
C 172.739024 39.776327 171.750894 37.390769 169.992257 35.632133 
C 168.233621 33.873496 165.848063 32.885366 163.360976 32.885366 
C 160.873888 32.885366 158.48833 33.873496 156.729694 35.632133 
C 154.971057 37.390769 153.982927 39.776327 153.982927 42.263415 
C 153.982927 44.750502 154.971057 47.13606 156.729694 48.894697 
C 158.48833 50.653333 160.873888 51.641463 163.360976 51.641463 
z
" clip-path="url(#pbf972cd5c8)" style="fill: #2c3e50"/>
   </g>
   <g id="patch_63">
    <path d="M 163.360976 79.212927 
C 165.20142 79.212927 166.966733 78.48171 168.268124 77.180319 
C 169.569515 75.878928 170.300732 74.113616 170.300732 72.273171 
C 170.300732 70.432726 169.569515 68.667413 168.268124 67.366022 
C 166.966733 66.064631 165.20142 65.333415 163.360976 65.333415 
C 161.520531 65.333415 159.755218 66.064631 158.453827 67.366022 
C 157.152436 68.667413 156.42122 70.432726 156.42122 72.273171 
C 156.42122 74.113616 157.152436 75.878928 158.453827 77.180319 
C 159.755218 78.48171 161.520531 79.212927 163.360976 79.212927 
z
" clip-path="url(#pbf972cd5c8)" style="fill: #2c3e50"/>
   </g>
   <g id="patch_64">
    <path d="M 172.739024 42.263415 
L 170.300732 72.273171 
L 156.42122 72.273171 
L 153.982927 42.263415 
z
" clip-path="url(#pbf972cd5c8)" style="fill: #2c3e50"/>
   </g>
   <g id="patch_65">
    <path d="M 163.360976 79.212927 
C 165.20142 79.212927 166.966733 78.48171 168.268124 77.180319 
C 169.569515 75.878928 170.300732 74.113616 170.300732 72.273171 
C 170.300732 70.432726 169.569515 68.667413 168.268124 67.366022 
C 166.966733 66.064631 165.20142 65.333415 163.360976 65.333415 
C 161.520531 65.333415 159.755218 66.064631 158.453827 67.366022 
C 157.152436 68.667413 156.42122 70.432726 156.42122 72.273171 
C 156.42122 74.113616 157.152436 75.878928 158.453827 77.180319 
C 159.755218 78.48171 161.520531 79.212927 163.360976 79.212927 
z
" clip-path="url(#pbf972cd5c8)" style="fill: #2c3e50"/>
   </g>
   <g id="patch_66">
    <path d="M 163.360976 106.221707 
C 164.90297 106.221707 166.382016 105.609066 167.47237 104.518712 
C 168.562725 103.428357 169.175366 101.949311 169.175366 100.407317 
C 169.175366 98.865323 168.562725 97.386277 167.47237 96.295922 
C 166.382016 95.205568 164.90297 94.592927 163.360976 94.592927 
C 161.818981 94.592927 160.339935 95.205568 159.249581 96.295922 
C 158.159226 97.386277 157.546585 98.865323 157.546585 100.407317 
C 157.546585 101.949311 158.159226 103.428357 159.249581 104.518712 
C 160.339935 105.609066 161.818981 106.221707 163.360976 106.221707 
z
" clip-path="url(#pbf972cd5c8)" style="fill: #2c3e50"/>
   </g>
   <g id="patch_67">
    <path d="M 170.300732 72.273171 
L 169.175366 100.407317 
L 157.546585 100.407317 
L 156.42122 72.273171 
z
" clip-path="url(#pbf972cd5c8)" style="fill: #2c3e50"/>
   </g>
   <g id="patch_68">
    <path d="M 163.360976 253.036937 
C 164.54284 253.036937 165.676457 252.567377 166.512161 251.731673 
C 167.347865 250.895969 167.817424 249.762352 167.817424 248.580488 
C 167.817424 247.398624 167.347865 246.265007 166.512161 245.429303 
C 165.676457 244.593599 164.54284 244.124039 163.360976 244.124039 
C 162.179112 244.124039 161.045495 244.593599 160.20979 245.429303 
C 159.374086 246.265007 158.904527 247.398624 158.904527 248.580488 
C 158.904527 249.762352 159.374086 250.895969 160.20979 251.731673 
C 161.045495 252.567377 162.179112 253.036937 163.360976 253.036937 
z
" clip-path="url(#pbf972cd5c8)" style="fill: #1b1b1b; stroke: #121212; stroke-width: 1.3; stroke-linejoin: miter"/>
   </g>
   <g id="patch_69">
    <path d="M 163.360976 106.596829 
C 165.002453 106.596829 166.576922 105.944663 167.737622 104.783963 
C 168.898322 103.623263 169.550488 102.048795 169.550488 100.407317 
C 169.550488 98.765839 168.898322 97.191371 167.737622 96.030671 
C 166.576922 94.869971 165.002453 94.217805 163.360976 94.217805 
C 161.719498 94.217805 160.14503 94.869971 158.98433 96.030671 
C 157.823629 97.191371 157.171463 98.765839 157.171463 100.407317 
C 157.171463 102.048795 157.823629 103.623263 158.98433 104.783963 
C 160.14503 105.944663 161.719498 106.596829 163.360976 106.596829 
z
" clip-path="url(#pbf972cd5c8)" style="fill: #f2e0c9; stroke: #a49888; stroke-width: 1.6; stroke-linejoin: miter"/>
   </g>
   <g id="line2d_17">
    <path d="M 177.61561 109.785366 
L 172.551463 177.307317 
L 171.997209 180.450649 
L 170.401298 183.214849 
L 167.95622 185.266513 
L 164.956887 186.358181 
L 161.765064 186.358181 
L 158.765732 185.266513 
L 156.320653 183.214849 
L 154.724742 180.450649 
L 154.170488 177.307317 
L 149.106341 109.785366 
L 149.966001 104.909994 
L 152.441292 100.622664 
L 156.233659 97.440491 
L 160.885684 95.747292 
L 165.836267 95.747292 
L 170.488293 97.440491 
L 174.280659 100.622664 
L 176.75595 104.909994 
L 177.61561 109.785366 
L 177.61561 109.785366 
" clip-path="url(#pbf972cd5c8)" style="fill: none; stroke: #282a2c; stroke-width: 1.7; stroke-linecap: round"/>
   </g>
   <g id="line2d_18">
    <path d="M 172.551463 177.307317 
L 169.550488 248.580488 
L 169.177215 250.697426 
L 168.102417 252.55903 
L 166.455732 253.940763 
L 164.435773 254.675967 
L 162.286178 254.675967 
L 160.26622 253.940763 
L 158.619534 252.55903 
L 157.544737 250.697426 
L 157.171463 248.580488 
L 154.170488 177.307317 
L 154.724742 174.163985 
L 156.320653 171.399785 
L 158.765732 169.348121 
L 161.765064 168.256453 
L 164.956887 168.256453 
L 167.95622 169.348121 
L 170.401298 171.399785 
L 171.997209 174.163985 
L 172.551463 177.307317 
L 172.551463 177.307317 
" clip-path="url(#pbf972cd5c8)" style="fill: none; stroke: #282a2c; stroke-width: 1.7; stroke-linecap: round"/>
   </g>
   <g id="line2d_19">
    <path d="M 163.360976 243.319402 
L 178.365854 245.176256 
L 179.530169 245.381556 
L 180.554052 245.972695 
L 181.314005 246.878372 
L 181.718367 247.989349 
L 181.718367 249.171626 
L 181.314005 250.282604 
L 180.554052 251.188281 
L 179.530169 251.779419 
L 178.365854 251.98472 
L 163.360976 253.841573 
L 161.561578 253.524291 
L 159.979215 252.610713 
L 158.804742 251.21103 
L 158.179818 249.494066 
L 158.179818 247.66691 
L 158.804742 245.949945 
L 159.979215 244.550263 
L 161.561578 243.636685 
L 163.360976 243.319402 
L 163.360976 243.319402 
" clip-path="url(#pbf972cd5c8)" style="fill: none; stroke: #121212; stroke-width: 1.5; stroke-linecap: round"/>
   </g>
   <g id="line2d_20">
    <path d="M 172.739024 42.263415 
L 170.300732 72.273171 
L 169.882213 74.646707 
L 168.677137 76.73396 
L 166.830854 78.283176 
L 164.566052 79.107496 
L 162.1559 79.107496 
L 159.891098 78.283176 
L 158.044814 76.73396 
L 156.839738 74.646707 
L 156.42122 72.273171 
L 153.982927 42.263415 
L 154.548492 39.055933 
L 156.176973 36.235321 
L 158.671951 34.141786 
L 161.732495 33.027839 
L 164.989457 33.027839 
L 168.05 34.141786 
L 170.544978 36.235321 
L 172.173459 39.055933 
L 172.739024 42.263415 
L 172.739024 42.263415 
" clip-path="url(#pbf972cd5c8)" style="fill: none; stroke: #1d2a36; stroke-width: 1.7; stroke-linecap: round"/>
   </g>
   <g id="line2d_21">
    <path d="M 170.300732 72.273171 
L 169.175366 100.407317 
L 168.824715 102.395956 
L 167.815057 104.144735 
L 166.268171 105.442727 
L 164.370634 106.133374 
L 162.351317 106.133374 
L 160.45378 105.442727 
L 158.906894 104.144735 
L 157.897236 102.395956 
L 157.546585 100.407317 
L 156.42122 72.273171 
L 156.839738 69.899634 
L 158.044814 67.812381 
L 159.891098 66.263166 
L 162.1559 65.438845 
L 164.566052 65.438845 
L 166.830854 66.263166 
L 168.677137 67.812381 
L 169.882213 69.899634 
L 170.300732 72.273171 
L 170.300732 72.273171 
" clip-path="url(#pbf972cd5c8)" style="fill: none; stroke: #1d2a36; stroke-width: 1.7; stroke-linecap: round"/>
   </g>
   <g id="patch_70">
    <path d="M 163.360976 40.387805 
C 167.340316 40.387805 171.157208 38.806796 173.971027 35.992978 
C 176.784845 33.179159 178.365854 29.362267 178.365854 25.382927 
C 178.365854 21.403587 176.784845 17.586694 173.971027 14.772876 
C 171.157208 11.959057 167.340316 10.378049 163.360976 10.378049 
C 159.381635 10.378049 155.564743 11.959057 152.750925 14.772876 
C 149.937106 17.586694 148.356098 21.403587 148.356098 25.382927 
C 148.356098 29.362267 149.937106 33.179159 152.750925 35.992978 
C 155.564743 38.806796 159.381635 40.387805 163.360976 40.387805 
z
" clip-path="url(#pbf972cd5c8)" style="fill: #f2e0c9; stroke: #a49888; stroke-width: 1.8; stroke-linejoin: miter"/>
   </g>
   <g id="patch_71">
    <path d="M 142.601454 168.832696 
Q 162.50571 157.286667 163.238086 136.748216 
" clip-path="url(#pbf972cd5c8)" style="fill: none; stroke-dasharray: 2.2,0; stroke-dashoffset: 0; stroke: #c0392b; stroke-width: 2.2; stroke-linecap: round"/>
    <path d="M 160.240302 142.244877 
L 163.238086 136.748216 
L 165.836745 142.44444 
z
" clip-path="url(#pbf972cd5c8)" style="fill: #c0392b; stroke-dasharray: 2.2,0; stroke-dashoffset: 0; stroke: #c0392b; stroke-width: 2.2; stroke-linecap: round"/>
   </g>
  </g>
 </g>
 <defs>
  <clipPath id="pbf972cd5c8">
   <rect x="5.809756" y="1" width="247.580488" height="307.6"/>
  </clipPath>
 </defs>
</svg>
