<?xml version="1.0" encoding="utf-8" standalone="no"?>
<!DOCTYPE svg PUBLIC "-//W3C//DTD SVG 1.1//EN"
  "http://www.w3.org/Graphics/SVG/1.1/DTD/svg11.dtd">
<svg xmlns:xlink="http://www.w3.org/1999/xlink" width="259.2pt" height="309.6pt" viewBox="0 0 259.2 309.6" xmlns="http://www.w3.org/2000/svg" version="1.1">
 <metadata>
  <rdf:RDF xmlns:dc="http://purl.org/dc/elements/1.1/" xmlns:cc="http://creativecommons.org/ns#" xmlns:rdf="http://www.w3.org/1999/02/22-rdf-syntax-ns#">
   <cc:Work>
    <dc:type rdf:resource="http://purl.org/dc/dcmitype/StillImage"/>
    <dc:date>2026-07-10T23:04:56.403770</dc:date>
    <dc:format>image/svg+xml</dc:format>
    <dc:creator>
     <cc:Agent>
      <dc:title>Matplotlib v3.10.8, https://matplotlib.org/</dc:title>
     </cc:Agent>
    </dc:creator>
   </cc:Work>
  </rdf:RDF>
 </metadata>
 <defs>
  <style type="text/css">*{stroke-linejoin: round; stroke-linecap: butt}</style>
 </defs>
 <g id="figure_1">
  <g id="patch_1">
   <path d="M 0 309.6 
L 259.2 309.6 
L 259.2 0 
L 0 0 
L 0 309.6 
z
" style="fill: none"/>
  </g>
  <g id="axes_1">
   <g id="line2d_1">
    <path d="M 17.063415 299.221951 
L 242.136585 299.221951 
" clip-path="url(#p1e03418dcf)" style="fill: none; stroke: #c3c3c3; stroke-width: 3; stroke-linecap: round"/>
   </g>
   <g id="patch_2">
    <path d="M 153.982927 220.431337 
C 157.46087 220.431337 160.796834 219.049535 163.256111 216.590258 
C 165.715389 214.13098 167.09719 210.795016 167.09719 207.317073 
C 167.09719 203.83913 165.715389 200.503166 163.256111 198.043889 
C 160.796834 195.584611 157.46087 194.20281 153.982927 194.20281 
C 150.504984 194.20281 147.16902 195.584611 144.709742 198.043889 
C 142.250465 200.503166 140.868663 203.83913 140.868663 207.317073 
C 140.868663 210.795016 142.250465 214.13098 144.709742 216.590258 
C 147.16902 219.049535 150.504984 220.431337 153.982927 220.431337 
z
" clip-path="url(#p1e03418dcf)" style="fill: #9aa0a6; fill-opacity: 0.285"/>
   </g>
   <g id="patch_3">
    <path d="M 135.226829 253.284517 
C 137.469187 253.284517 139.620006 252.393619 141.205593 250.808032 
C 142.79118 249.222445 143.682078 247.071626 143.682078 244.829268 
C 143.682078 242.58691 142.79118 240.436091 141.205593 238.850505 
C 139.620006 237.264918 137.469187 236.37402 135.226829 236.37402 
C 132.984471 236.37402 130.833652 237.264918 129.248066 238.850505 
C 127.662479 240.436091 126.77158 242.58691 126.77158 244.829268 
C 126.77158 247.071626 127.662479 249.222445 129.248066 250.808032 
C 130.833652 252.393619 132.984471 253.284517 135.226829 253.284517 
z
" clip-path="url(#p1e03418dcf)" style="fill: #9aa0a6; fill-opacity: 0.285"/>
   </g>
   <g id="patch_4">
    <path d="M 165.712681 213.18195 
L 142.789434 248.610571 
L 127.664225 241.047966 
L 142.253173 201.452196 
z
" clip-path="url(#p1e03418dcf)" style="fill: #9aa0a6; fill-opacity: 0.285"/>
   </g>
   <g id="patch_5">
    <path d="M 135.226829 253.284517 
C 137.469187 253.284517 139.620006 252.393619 141.205593 250.808032 
C 142.79118 249.222445 143.682078 247.071626 143.682078 244.829268 
C 143.682078 242.58691 142.79118 240.436091 141.205593 238.850505 
C 139.620006 237.264918 137.469187 236.37402 135.226829 236.37402 
C 132.984471 236.37402 130.833652 237.264918 129.248066 238.850505 
C 127.662479 240.436091 126.77158 242.58691 126.77158 244.829268 
C 126.77158 247.071626 127.662479 249.222445 129.248066 250.808032 
C 130.833652 252.393619 132.984471 253.284517 135.226829 253.284517 
z
" clip-path="url(#p1e03418dcf)" style="fill: #9aa0a6; fill-opacity: 0.285"/>
   </g>
   <g id="patch_6">
    <path d="M 120.221951 288.035815 
C 121.732111 288.035815 123.180621 287.435822 124.248466 286.367978 
C 125.31631 285.300134 125.916302 283.851623 125.916302 282.341463 
C 125.916302 280.831304 125.31631 279.382793 124.248466 278.314949 
C 123.180621 277.247105 121.732111 276.647112 120.221951 276.647112 
C 118.711792 276.647112 117.263281 277.247105 116.195437 278.314949 
C 115.127593 279.382793 114.5276 280.831304 114.5276 282.341463 
C 114.5276 283.851623 115.127593 285.300134 116.195437 286.367978 
C 117.263281 287.435822 118.711792 288.035815 120.221951 288.035815 
z
" clip-path="url(#p1e03418dcf)" style="fill: #9aa0a6; fill-opacity: 0.285"/>
   </g>
   <g id="patch_7">
    <path d="M 143.077331 247.969469 
L 125.509024 284.456292 
L 114.934879 280.226634 
L 127.376328 241.689068 
z
" clip-path="url(#p1e03418dcf)" style="fill: #9aa0a6; fill-opacity: 0.285"/>
   </g>
   <g id="patch_8">
    <path d="M 120.221951 287.181662 
C 121.505587 287.181662 122.736821 286.671668 123.644488 285.764001 
C 124.552156 284.856333 125.06215 283.625099 125.06215 282.341463 
C 125.06215 281.057828 124.552156 279.826594 123.644488 278.918926 
C 122.736821 278.011259 121.505587 277.501265 120.221951 277.501265 
C 118.938316 277.501265 117.707081 278.011259 116.799414 278.918926 
C 115.891747 279.826594 115.381753 281.057828 115.381753 282.341463 
C 115.381753 283.625099 115.891747 284.856333 116.799414 285.764001 
C 117.707081 286.671668 118.938316 287.181662 120.221951 287.181662 
z
" clip-path="url(#p1e03418dcf)" style="fill: #9aa0a6; fill-opacity: 0.285"/>
   </g>
   <g id="patch_9">
    <path d="M 112.719512 289.224576 
C 113.5501 289.224576 114.346781 288.89458 114.934095 288.307266 
C 115.521409 287.719952 115.851405 286.923271 115.851405 286.092683 
C 115.851405 285.262095 115.521409 284.465414 114.934095 283.8781 
C 114.346781 283.290786 113.5501 282.96079 112.719512 282.96079 
C 111.888924 282.96079 111.092244 283.290786 110.504929 283.8781 
C 109.917615 284.465414 109.587619 285.262095 109.587619 286.092683 
C 109.587619 286.923271 109.917615 287.719952 110.504929 288.307266 
C 111.092244 288.89458 111.888924 289.224576 112.719512 289.224576 
z
" clip-path="url(#p1e03418dcf)" style="fill: #9aa0a6; fill-opacity: 0.285"/>
   </g>
   <g id="patch_10">
    <path d="M 122.386554 286.670669 
L 114.120137 288.893933 
L 111.318887 283.291433 
L 118.057349 278.012258 
z
" clip-path="url(#p1e03418dcf)" style="fill: #9aa0a6; fill-opacity: 0.285"/>
   </g>
   <g id="patch_11">
    <path d="M 120.221951 286.441396 
C 121.309266 286.441396 122.352194 286.009402 123.121042 285.240554 
C 123.889889 284.471706 124.321884 283.428778 124.321884 282.341463 
C 124.321884 281.254149 123.889889 280.211221 123.121042 279.442373 
C 122.352194 278.673525 121.309266 278.241531 120.221951 278.241531 
C 119.134636 278.241531 118.091709 278.673525 117.322861 279.442373 
C 116.554013 280.211221 116.122018 281.254149 116.122018 282.341463 
C 116.122018 283.428778 116.554013 284.471706 117.322861 285.240554 
C 118.091709 286.009402 119.134636 286.441396 120.221951 286.441396 
z
" clip-path="url(#p1e03418dcf)" style="fill: #9aa0a6; fill-opacity: 0.285; stroke: #7d8288; stroke-opacity: 0.85; stroke-width: 1.3; stroke-linejoin: miter"/>
   </g>
   <g id="line2d_2">
    <path d="M 165.712681 213.18195 
L 142.789434 248.610571 
L 141.040071 250.969093 
L 138.589546 252.587062 
L 135.733428 253.269327 
L 132.816206 252.933596 
L 130.189741 251.620364 
L 128.170823 249.488025 
L 127.002964 246.793771 
L 126.827024 243.86257 
L 127.664225 241.047966 
L 142.253173 201.452196 
L 144.96647 197.79408 
L 148.767284 195.284576 
L 153.197182 194.22637 
L 157.721853 194.747096 
L 161.795553 196.783946 
L 164.926936 200.091247 
L 166.73831 204.270089 
L 167.011196 208.816443 
L 165.712681 213.18195 
L 165.712681 213.18195 
" clip-path="url(#p1e03418dcf)" style="fill: none; stroke: #7d8288; stroke-opacity: 0.85; stroke-width: 1.7; stroke-linecap: round"/>
   </g>
   <g id="line2d_3">
    <path d="M 143.077331 247.969469 
L 125.509024 284.456292 
L 124.46686 286.137038 
L 122.912698 287.359981 
L 121.033992 287.977617 
L 119.057342 287.915449 
L 117.221161 287.180977 
L 115.746919 285.862788 
L 114.812433 284.119875 
L 114.530414 282.16246 
L 114.934879 280.226634 
L 127.376328 241.689068 
L 128.923783 239.193415 
L 131.231478 237.37753 
L 134.021072 236.460434 
L 136.956098 236.552744 
L 139.682548 237.643324 
L 141.871573 239.600635 
L 143.259144 242.188596 
L 143.677899 245.095062 
L 143.077331 247.969469 
L 143.077331 247.969469 
" clip-path="url(#p1e03418dcf)" style="fill: none; stroke: #7d8288; stroke-opacity: 0.85; stroke-width: 1.7; stroke-linecap: round"/>
   </g>
   <g id="line2d_4">
    <path d="M 122.386554 286.670669 
L 114.120137 288.893933 
L 113.077585 289.204039 
L 111.991844 289.13887 
L 110.993871 288.706285 
L 110.204035 287.958462 
L 109.717603 286.985597 
L 109.593246 285.905035 
L 109.845962 284.847105 
L 110.445271 283.939411 
L 111.318887 283.291433 
L 118.057349 278.012258 
L 119.668566 277.533004 
L 121.346529 277.63372 
L 122.888852 278.30226 
L 124.109507 279.457987 
L 124.861265 280.961505 
L 125.053454 282.631465 
L 124.662892 284.266447 
L 123.736688 285.669248 
L 122.386554 286.670669 
L 122.386554 286.670669 
" clip-path="url(#p1e03418dcf)" style="fill: none; stroke: #7d8288; stroke-opacity: 0.85; stroke-width: 1.5; stroke-linecap: round"/>
   </g>
   <g id="patch_12">
    <path d="M 67.704878 203.565854 
C 69.694548 203.565854 71.602994 202.775349 73.009904 201.36844 
C 74.416813 199.961531 75.207317 198.053085 75.207317 196.063415 
C 75.207317 194.073745 74.416813 192.165298 73.009904 190.758389 
C 71.602994 189.35148 69.694548 188.560976 67.704878 188.560976 
C 65.715208 188.560976 63.806762 189.35148 62.399853 190.758389 
C 60.992943 192.165298 60.202439 194.073745 60.202439 196.063415 
C 60.202439 198.053085 60.992943 199.961531 62.399853 201.36844 
C 63.806762 202.775349 65.715208 203.565854 67.704878 203.565854 
z
" clip-path="url(#p1e03418dcf)" style="fill: #9aa0a6; fill-opacity: 0.3"/>
   </g>
   <g id="patch_13">
    <path d="M 80.834146 218.945854 
C 83.918135 218.945854 86.876227 217.720572 89.056936 215.539863 
C 91.237645 213.359153 92.462927 210.401062 92.462927 207.317073 
C 92.462927 204.233085 91.237645 201.274993 89.056936 199.094284 
C 86.876227 196.913574 83.918135 195.688293 80.834146 195.688293 
C 77.750158 195.688293 74.792066 196.913574 72.611357 199.094284 
C 70.430648 201.274993 69.205366 204.233085 69.205366 207.317073 
C 69.205366 210.401062 70.430648 213.359153 72.611357 215.539863 
C 74.792066 217.720572 77.750158 218.945854 80.834146 218.945854 
z
" clip-path="url(#p1e03418dcf)" style="fill: #9aa0a6; fill-opacity: 0.3"/>
   </g>
   <g id="patch_14">
    <path d="M 72.587401 190.367138 
L 88.402056 198.487845 
L 73.266236 216.146302 
L 62.822355 201.759691 
z
" clip-path="url(#p1e03418dcf)" style="fill: #9aa0a6; fill-opacity: 0.3"/>
   </g>
   <g id="patch_15">
    <path d="M 80.834146 230.574634 
C 87.002124 230.574634 92.918307 228.124071 97.279725 223.762652 
C 101.641144 219.401234 104.091707 213.48505 104.091707 207.317073 
C 104.091707 201.149096 101.641144 195.232913 97.279725 190.871494 
C 92.918307 186.510076 87.002124 184.059512 80.834146 184.059512 
C 74.666169 184.059512 68.749986 186.510076 64.388567 190.871494 
C 60.027149 195.232913 57.576585 201.149096 57.576585 207.317073 
C 57.576585 213.48505 60.027149 219.401234 64.388567 223.762652 
C 68.749986 228.124071 74.666169 230.574634 80.834146 230.574634 
z
" clip-path="url(#p1e03418dcf)" style="fill: #9aa0a6; fill-opacity: 0.3"/>
   </g>
   <g id="patch_16">
    <path d="M 153.982927 224.572683 
C 158.559168 224.572683 162.948594 222.754523 166.184486 219.518632 
C 169.420377 216.282741 171.238537 211.893314 171.238537 207.317073 
C 171.238537 202.740832 169.420377 198.351406 166.184486 195.115514 
C 162.948594 191.879623 158.559168 190.061463 153.982927 190.061463 
C 149.406686 190.061463 145.017259 191.879623 141.781368 195.115514 
C 138.545477 198.351406 136.727317 202.740832 136.727317 207.317073 
C 136.727317 211.893314 138.545477 216.282741 141.781368 219.518632 
C 145.017259 222.754523 149.406686 224.572683 153.982927 224.572683 
z
" clip-path="url(#p1e03418dcf)" style="fill: #9aa0a6; fill-opacity: 0.3"/>
   </g>
   <g id="patch_17">
    <path d="M 80.834146 184.059512 
L 153.982927 190.061463 
L 153.982927 224.572683 
L 80.834146 230.574634 
z
" clip-path="url(#p1e03418dcf)" style="fill: #9aa0a6; fill-opacity: 0.3"/>
   </g>
   <g id="patch_18">
    <path d="M 153.982927 221.571707 
C 157.7633 221.571707 161.389348 220.069749 164.062475 217.396622 
C 166.735603 214.723494 168.237561 211.097446 168.237561 207.317073 
C 168.237561 203.5367 166.735603 199.910652 164.062475 197.237525 
C 161.389348 194.564397 157.7633 193.062439 153.982927 193.062439 
C 150.202554 193.062439 146.576506 194.564397 143.903378 197.237525 
C 141.230251 199.910652 139.728293 203.5367 139.728293 207.317073 
C 139.728293 211.097446 141.230251 214.723494 143.903378 217.396622 
C 146.576506 220.069749 150.202554 221.571707 153.982927 221.571707 
z
" clip-path="url(#p1e03418dcf)" style="fill: #9aa0a6; fill-opacity: 0.3"/>
   </g>
   <g id="patch_19">
    <path d="M 153.982927 261.522195 
C 156.420273 261.522195 158.758119 260.553827 160.481583 258.830364 
C 162.205047 257.1069 163.173415 254.769053 163.173415 252.331707 
C 163.173415 249.894361 162.205047 247.556515 160.481583 245.833051 
C 158.758119 244.109587 156.420273 243.14122 153.982927 243.14122 
C 151.545581 243.14122 149.207734 244.109587 147.484271 245.833051 
C 145.760807 247.556515 144.792439 249.894361 144.792439 252.331707 
C 144.792439 254.769053 145.760807 257.1069 147.484271 258.830364 
C 149.207734 260.553827 151.545581 261.522195 153.982927 261.522195 
z
" clip-path="url(#p1e03418dcf)" style="fill: #9aa0a6; fill-opacity: 0.3"/>
   </g>
   <g id="patch_20">
    <path d="M 168.237561 207.317073 
L 163.173415 252.331707 
L 144.792439 252.331707 
L 139.728293 207.317073 
z
" clip-path="url(#p1e03418dcf)" style="fill: #9aa0a6; fill-opacity: 0.3"/>
   </g>
   <g id="patch_21">
    <path d="M 153.982927 261.522195 
C 156.420273 261.522195 158.758119 260.553827 160.481583 258.830364 
C 162.205047 257.1069 163.173415 254.769053 163.173415 252.331707 
C 163.173415 249.894361 162.205047 247.556515 160.481583 245.833051 
C 158.758119 244.109587 156.420273 243.14122 153.982927 243.14122 
C 151.545581 243.14122 149.207734 244.109587 147.484271 245.833051 
C 145.760807 247.556515 144.792439 249.894361 144.792439 252.331707 
C 144.792439 254.769053 145.760807 257.1069 147.484271 258.830364 
C 149.207734 260.553827 151.545581 261.522195 153.982927 261.522195 
z
" clip-path="url(#p1e03418dcf)" style="fill: #9aa0a6; fill-opacity: 0.3"/>
   </g>
   <g id="patch_22">
    <path d="M 153.982927 290.406585 
C 155.624405 290.406585 157.198873 289.754419 158.359573 288.593719 
C 159.520273 287.433019 160.172439 285.858551 160.172439 284.217073 
C 160.172439 282.575595 159.520273 281.001127 158.359573 279.840427 
C 157.198873 278.679727 155.624405 278.027561 153.982927 278.027561 
C 152.341449 278.027561 150.766981 278.679727 149.606281 279.840427 
C 148.445581 281.001127 147.793415 282.575595 147.793415 284.217073 
C 147.793415 285.858551 148.445581 287.433019 149.606281 288.593719 
C 150.766981 289.754419 152.341449 290.406585 153.982927 290.406585 
z
" clip-path="url(#p1e03418dcf)" style="fill: #9aa0a6; fill-opacity: 0.3"/>
   </g>
   <g id="patch_23">
    <path d="M 163.173415 252.331707 
L 160.172439 284.217073 
L 147.793415 284.217073 
L 144.792439 252.331707 
z
" clip-path="url(#p1e03418dcf)" style="fill: #9aa0a6; fill-opacity: 0.3"/>
   </g>
   <g id="patch_24">
    <path d="M 153.982927 289.478159 
C 155.378183 289.478159 156.716481 288.923817 157.703076 287.937222 
C 158.689671 286.950627 159.244012 285.612329 159.244012 284.217073 
C 159.244012 282.821817 158.689671 281.483519 157.703076 280.496924 
C 156.716481 279.510329 155.378183 278.955988 153.982927 278.955988 
C 152.587671 278.955988 151.249373 279.510329 150.262778 280.496924 
C 149.276183 281.483519 148.721841 282.821817 148.721841 284.217073 
C 148.721841 285.612329 149.276183 286.950627 150.262778 287.937222 
C 151.249373 288.923817 152.587671 289.478159 153.982927 289.478159 
z
" clip-path="url(#p1e03418dcf)" style="fill: #9aa0a6; fill-opacity: 0.3"/>
   </g>
   <g id="patch_25">
    <path d="M 153.982927 293.248134 
C 154.88574 293.248134 155.751697 292.889443 156.390082 292.251058 
C 157.028467 291.612673 157.387159 290.746715 157.387159 289.843902 
C 157.387159 288.94109 157.028467 288.075132 156.390082 287.436747 
C 155.751697 286.798362 154.88574 286.439671 153.982927 286.439671 
C 153.080114 286.439671 152.214157 286.798362 151.575772 287.436747 
C 150.937386 288.075132 150.578695 288.94109 150.578695 289.843902 
C 150.578695 290.746715 150.937386 291.612673 151.575772 292.251058 
C 152.214157 292.889443 153.080114 293.248134 153.982927 293.248134 
z
" clip-path="url(#p1e03418dcf)" style="fill: #9aa0a6; fill-opacity: 0.3"/>
   </g>
   <g id="patch_26">
    <path d="M 159.244012 284.217073 
L 157.387159 289.843902 
L 150.578695 289.843902 
L 148.721841 284.217073 
z
" clip-path="url(#p1e03418dcf)" style="fill: #9aa0a6; fill-opacity: 0.3"/>
   </g>
   <g id="line2d_5">
    <path d="M 72.587401 190.367138 
L 88.402056 198.487845 
L 90.965429 201.60869 
L 92.30682 205.418051 
L 92.264437 209.456461 
L 90.843393 213.23683 
L 88.215085 216.303189 
L 84.696527 218.28569 
L 80.71211 218.945213 
L 76.742411 218.202212 
L 73.266236 216.146302 
L 62.822355 201.759691 
L 61.168566 199.746242 
L 60.303153 197.28859 
L 60.330497 194.683164 
L 61.2473 192.244217 
L 62.942982 190.265921 
L 65.213019 188.986888 
L 67.783611 188.561389 
L 70.344707 189.040745 
L 72.587401 190.367138 
L 72.587401 190.367138 
" clip-path="url(#p1e03418dcf)" style="fill: none; stroke: #7d8288; stroke-opacity: 0.85; stroke-width: 1.7; stroke-linecap: round"/>
   </g>
   <g id="line2d_6">
    <path d="M 80.834146 184.059512 
L 153.982927 190.061463 
L 159.884693 191.102104 
L 165.074619 194.098509 
L 168.926723 198.689268 
L 170.976385 204.320668 
L 170.976385 210.313478 
L 168.926723 215.944878 
L 165.074619 220.535637 
L 159.884693 223.532042 
L 153.982927 224.572683 
L 80.834146 230.574634 
L 72.879592 229.172032 
L 65.884474 225.133399 
L 60.692508 218.945854 
L 57.92992 211.355706 
L 57.92992 203.27844 
L 60.692508 195.688293 
L 65.884474 189.500748 
L 72.879592 185.462115 
L 80.834146 184.059512 
L 80.834146 184.059512 
" clip-path="url(#p1e03418dcf)" style="fill: none; stroke: #7d8288; stroke-opacity: 0.85; stroke-width: 1.7; stroke-linecap: round"/>
   </g>
   <g id="patch_27">
    <path d="M 80.834146 216.695122 
C 83.321234 216.695122 85.706792 215.706992 87.465428 213.948355 
C 89.224065 212.189719 90.212195 209.804161 90.212195 207.317073 
C 90.212195 204.829986 89.224065 202.444428 87.465428 200.685791 
C 85.706792 198.927155 83.321234 197.939024 80.834146 197.939024 
C 78.347059 197.939024 75.961501 198.927155 74.202864 200.685791 
C 72.444228 202.444428 71.456098 204.829986 71.456098 207.317073 
C 71.456098 209.804161 72.444228 212.189719 74.202864 213.948355 
C 75.961501 215.706992 78.347059 216.695122 80.834146 216.695122 
z
" clip-path="url(#p1e03418dcf)" style="fill: #9aa0a6; fill-opacity: 0.3"/>
   </g>
   <g id="patch_28">
    <path d="M 80.834146 259.271463 
C 82.674591 259.271463 84.439904 258.540247 85.741295 257.238856 
C 87.042686 255.937465 87.773902 254.172152 87.773902 252.331707 
C 87.773902 250.491262 87.042686 248.72595 85.741295 247.424559 
C 84.439904 246.123168 82.674591 245.391951 80.834146 245.391951 
C 78.993702 245.391951 77.228389 246.123168 75.926998 247.424559 
C 74.625607 248.72595 73.89439 250.491262 73.89439 252.331707 
C 73.89439 254.172152 74.625607 255.937465 75.926998 257.238856 
C 77.228389 258.540247 78.993702 259.271463 80.834146 259.271463 
z
" clip-path="url(#p1e03418dcf)" style="fill: #9aa0a6; fill-opacity: 0.3"/>
   </g>
   <g id="patch_29">
    <path d="M 90.212195 207.317073 
L 87.773902 252.331707 
L 73.89439 252.331707 
L 71.456098 207.317073 
z
" clip-path="url(#p1e03418dcf)" style="fill: #9aa0a6; fill-opacity: 0.3"/>
   </g>
   <g id="patch_30">
    <path d="M 80.834146 259.271463 
C 82.674591 259.271463 84.439904 258.540247 85.741295 257.238856 
C 87.042686 255.937465 87.773902 254.172152 87.773902 252.331707 
C 87.773902 250.491262 87.042686 248.72595 85.741295 247.424559 
C 84.439904 246.123168 82.674591 245.391951 80.834146 245.391951 
C 78.993702 245.391951 77.228389 246.123168 75.926998 247.424559 
C 74.625607 248.72595 73.89439 250.491262 73.89439 252.331707 
C 73.89439 254.172152 74.625607 255.937465 75.926998 257.238856 
C 77.228389 258.540247 78.993702 259.271463 80.834146 259.271463 
z
" clip-path="url(#p1e03418dcf)" style="fill: #9aa0a6; fill-opacity: 0.3"/>
   </g>
   <g id="patch_31">
    <path d="M 80.834146 290.031463 
C 82.376141 290.031463 83.855186 289.418823 84.945541 288.328468 
C 86.035896 287.238113 86.648537 285.759067 86.648537 284.217073 
C 86.648537 282.675079 86.035896 281.196033 84.945541 280.105678 
C 83.855186 279.015324 82.376141 278.402683 80.834146 278.402683 
C 79.292152 278.402683 77.813106 279.015324 76.722752 280.105678 
C 75.632397 281.196033 75.019756 282.675079 75.019756 284.217073 
C 75.019756 285.759067 75.632397 287.238113 76.722752 288.328468 
C 77.813106 289.418823 79.292152 290.031463 80.834146 290.031463 
z
" clip-path="url(#p1e03418dcf)" style="fill: #9aa0a6; fill-opacity: 0.3"/>
   </g>
   <g id="patch_32">
    <path d="M 87.773902 252.331707 
L 86.648537 284.217073 
L 75.019756 284.217073 
L 73.89439 252.331707 
z
" clip-path="url(#p1e03418dcf)" style="fill: #9aa0a6; fill-opacity: 0.3"/>
   </g>
   <g id="patch_33">
    <path d="M 153.982927 288.673522 
C 155.164791 288.673522 156.298408 288.203962 157.134112 287.368258 
C 157.969816 286.532554 158.439376 285.398937 158.439376 284.217073 
C 158.439376 283.035209 157.969816 281.901592 157.134112 281.065888 
C 156.298408 280.230184 155.164791 279.760624 153.982927 279.760624 
C 152.801063 279.760624 151.667446 280.230184 150.831742 281.065888 
C 149.996038 281.901592 149.526478 283.035209 149.526478 284.217073 
C 149.526478 285.398937 149.996038 286.532554 150.831742 287.368258 
C 151.667446 288.203962 152.801063 288.673522 153.982927 288.673522 
z
" clip-path="url(#p1e03418dcf)" style="fill: #9aa0a6; fill-opacity: 0.3; stroke: #7d8288; stroke-opacity: 0.85; stroke-width: 1.3; stroke-linejoin: miter"/>
   </g>
   <g id="patch_34">
    <path d="M 80.834146 290.406585 
C 82.475624 290.406585 84.050092 289.754419 85.210792 288.593719 
C 86.371492 287.433019 87.023659 285.858551 87.023659 284.217073 
C 87.023659 282.575595 86.371492 281.001127 85.210792 279.840427 
C 84.050092 278.679727 82.475624 278.027561 80.834146 278.027561 
C 79.192669 278.027561 77.6182 278.679727 76.4575 279.840427 
C 75.2968 281.001127 74.644634 282.575595 74.644634 284.217073 
C 74.644634 285.858551 75.2968 287.433019 76.4575 288.593719 
C 77.6182 289.754419 79.192669 290.406585 80.834146 290.406585 
z
" clip-path="url(#p1e03418dcf)" style="fill: #9aa0a6; fill-opacity: 0.3; stroke: #7d8288; stroke-opacity: 0.85; stroke-width: 1.6; stroke-linejoin: miter"/>
   </g>
   <g id="line2d_7">
    <path d="M 168.237561 207.317073 
L 163.173415 252.331707 
L 162.61916 255.475039 
L 161.023249 258.239239 
L 158.578171 260.290903 
L 155.578838 261.382571 
L 152.387015 261.382571 
L 149.387683 260.290903 
L 146.942605 258.239239 
L 145.346693 255.475039 
L 144.792439 252.331707 
L 139.728293 207.317073 
L 140.587952 202.441701 
L 143.063244 198.154371 
L 146.85561 194.972198 
L 151.507636 193.278999 
L 156.458218 193.278999 
L 161.110244 194.972198 
L 164.90261 198.154371 
L 167.377901 202.441701 
L 168.237561 207.317073 
L 168.237561 207.317073 
" clip-path="url(#p1e03418dcf)" style="fill: none; stroke: #7d8288; stroke-opacity: 0.85; stroke-width: 1.7; stroke-linecap: round"/>
   </g>
   <g id="line2d_8">
    <path d="M 163.173415 252.331707 
L 160.172439 284.217073 
L 159.799166 286.334011 
L 158.724368 288.195615 
L 157.077683 289.577348 
L 155.057724 290.312553 
L 152.908129 290.312553 
L 150.888171 289.577348 
L 149.241485 288.195615 
L 148.166688 286.334011 
L 147.793415 284.217073 
L 144.792439 252.331707 
L 145.346693 249.188375 
L 146.942605 246.424176 
L 149.387683 244.372511 
L 152.387015 243.280844 
L 155.578838 243.280844 
L 158.578171 244.372511 
L 161.023249 246.424176 
L 162.61916 249.188375 
L 163.173415 252.331707 
L 163.173415 252.331707 
" clip-path="url(#p1e03418dcf)" style="fill: none; stroke: #7d8288; stroke-opacity: 0.85; stroke-width: 1.7; stroke-linecap: round"/>
   </g>
   <g id="line2d_9">
    <path d="M 159.244012 284.217073 
L 157.387159 289.843902 
L 157.181858 291.008218 
L 156.59072 292.0321 
L 155.685043 292.792054 
L 154.574065 293.196416 
L 153.391788 293.196416 
L 152.280811 292.792054 
L 151.375134 292.0321 
L 150.783995 291.008218 
L 150.578695 289.843902 
L 148.721841 284.217073 
L 149.039124 282.417676 
L 149.952702 280.835313 
L 151.352384 279.66084 
L 153.069349 279.035916 
L 154.896505 279.035916 
L 156.61347 279.66084 
L 158.013152 280.835313 
L 158.92673 282.417676 
L 159.244012 284.217073 
L 159.244012 284.217073 
" clip-path="url(#p1e03418dcf)" style="fill: none; stroke: #7d8288; stroke-opacity: 0.85; stroke-width: 1.5; stroke-linecap: round"/>
   </g>
   <g id="line2d_10">
    <path d="M 90.212195 207.317073 
L 87.773902 252.331707 
L 87.355384 254.705244 
L 86.150308 256.792497 
L 84.304024 258.341712 
L 82.039222 259.166033 
L 79.62907 259.166033 
L 77.364268 258.341712 
L 75.517985 256.792497 
L 74.312909 254.705244 
L 73.89439 252.331707 
L 71.456098 207.317073 
L 72.021663 204.109592 
L 73.650144 201.28898 
L 76.145122 199.195445 
L 79.205665 198.081498 
L 82.462627 198.081498 
L 85.523171 199.195445 
L 88.018148 201.28898 
L 89.64663 204.109592 
L 90.212195 207.317073 
L 90.212195 207.317073 
" clip-path="url(#p1e03418dcf)" style="fill: none; stroke: #7d8288; stroke-opacity: 0.85; stroke-width: 1.7; stroke-linecap: round"/>
   </g>
   <g id="line2d_11">
    <path d="M 87.773902 252.331707 
L 86.648537 284.217073 
L 86.297886 286.205712 
L 85.288228 287.954491 
L 83.741341 289.252483 
L 81.843805 289.94313 
L 79.824488 289.94313 
L 77.926951 289.252483 
L 76.380065 287.954491 
L 75.370407 286.205712 
L 75.019756 284.217073 
L 73.89439 252.331707 
L 74.312909 249.958171 
L 75.517985 247.870918 
L 77.364268 246.321702 
L 79.62907 245.497382 
L 82.039222 245.497382 
L 84.304024 246.321702 
L 86.150308 247.870918 
L 87.355384 249.958171 
L 87.773902 252.331707 
L 87.773902 252.331707 
" clip-path="url(#p1e03418dcf)" style="fill: none; stroke: #7d8288; stroke-opacity: 0.85; stroke-width: 1.7; stroke-linecap: round"/>
   </g>
   <g id="patch_35">
    <path d="M 67.704878 211.068293 
C 71.684218 211.068293 75.501111 209.487284 78.314929 206.673466 
C 81.128747 203.859647 82.709756 200.042755 82.709756 196.063415 
C 82.709756 192.084074 81.128747 188.267182 78.314929 185.453364 
C 75.501111 182.639545 71.684218 181.058537 67.704878 181.058537 
C 63.725538 181.058537 59.908645 182.639545 57.094827 185.453364 
C 54.281009 188.267182 52.7 192.084074 52.7 196.063415 
C 52.7 200.042755 54.281009 203.859647 57.094827 206.673466 
C 59.908645 209.487284 63.725538 211.068293 67.704878 211.068293 
z
" clip-path="url(#p1e03418dcf)" style="fill: #9aa0a6; fill-opacity: 0.3; stroke: #7d8288; stroke-opacity: 0.85; stroke-width: 1.8; stroke-linejoin: miter"/>
   </g>
   <g id="patch_36">
    <path d="M 153.982927 220.431337 
C 157.46087 220.431337 160.796834 219.049535 163.256111 216.590258 
C 165.715389 214.13098 167.09719 210.795016 167.09719 207.317073 
C 167.09719 203.83913 165.715389 200.503166 163.256111 198.043889 
C 160.796834 195.584611 157.46087 194.20281 153.982927 194.20281 
C 150.504984 194.20281 147.16902 195.584611 144.709742 198.043889 
C 142.250465 200.503166 140.868663 203.83913 140.868663 207.317073 
C 140.868663 210.795016 142.250465 214.13098 144.709742 216.590258 
C 147.16902 219.049535 150.504984 220.431337 153.982927 220.431337 
z
" clip-path="url(#p1e03418dcf)" style="fill: #3c3f42; fill-opacity: 0.95"/>
   </g>
   <g id="patch_37">
    <path d="M 135.226829 253.284517 
C 137.469187 253.284517 139.620006 252.393619 141.205593 250.808032 
C 142.79118 249.222445 143.682078 247.071626 143.682078 244.829268 
C 143.682078 242.58691 142.79118 240.436091 141.205593 238.850505 
C 139.620006 237.264918 137.469187 236.37402 135.226829 236.37402 
C 132.984471 236.37402 130.833652 237.264918 129.248066 238.850505 
C 127.662479 240.436091 126.77158 242.58691 126.77158 244.829268 
C 126.77158 247.071626 127.662479 249.222445 129.248066 250.808032 
C 130.833652 252.393619 132.984471 253.284517 135.226829 253.284517 
z
" clip-path="url(#p1e03418dcf)" style="fill: #3c3f42; fill-opacity: 0.95"/>
   </g>
   <g id="patch_38">
    <path d="M 165.712681 213.18195 
L 142.789434 248.610571 
L 127.664225 241.047966 
L 142.253173 201.452196 
z
" clip-path="url(#p1e03418dcf)" style="fill: #3c3f42; fill-opacity: 0.95"/>
   </g>
   <g id="patch_39">
    <path d="M 135.226829 253.284517 
C 137.469187 253.284517 139.620006 252.393619 141.205593 250.808032 
C 142.79118 249.222445 143.682078 247.071626 143.682078 244.829268 
C 143.682078 242.58691 142.79118 240.436091 141.205593 238.850505 
C 139.620006 237.264918 137.469187 236.37402 135.226829 236.37402 
C 132.984471 236.37402 130.833652 237.264918 129.248066 238.850505 
C 127.662479 240.436091 126.77158 242.58691 126.77158 244.829268 
C 126.77158 247.071626 127.662479 249.222445 129.248066 250.808032 
C 130.833652 252.393619 132.984471 253.284517 135.226829 253.284517 
z
" clip-path="url(#p1e03418dcf)" style="fill: #3c3f42; fill-opacity: 0.95"/>
   </g>
   <g id="patch_40">
    <path d="M 120.221951 288.035815 
C 121.732111 288.035815 123.180621 287.435822 124.248466 286.367978 
C 125.31631 285.300134 125.916302 283.851623 125.916302 282.341463 
C 125.916302 280.831304 125.31631 279.382793 124.248466 278.314949 
C 123.180621 277.247105 121.732111 276.647112 120.221951 276.647112 
C 118.711792 276.647112 117.263281 277.247105 116.195437 278.314949 
C 115.127593 279.382793 114.5276 280.831304 114.5276 282.341463 
C 114.5276 283.851623 115.127593 285.300134 116.195437 286.367978 
C 117.263281 287.435822 118.711792 288.035815 120.221951 288.035815 
z
" clip-path="url(#p1e03418dcf)" style="fill: #3c3f42; fill-opacity: 0.95"/>
   </g>
   <g id="patch_41">
    <path d="M 143.077331 247.969469 
L 125.509024 284.456292 
L 114.934879 280.226634 
L 127.376328 241.689068 
z
" clip-path="url(#p1e03418dcf)" style="fill: #3c3f42; fill-opacity: 0.95"/>
   </g>
   <g id="patch_42">
    <path d="M 120.221951 287.181662 
C 121.505587 287.181662 122.736821 286.671668 123.644488 285.764001 
C 124.552156 284.856333 125.06215 283.625099 125.06215 282.341463 
C 125.06215 281.057828 124.552156 279.826594 123.644488 278.918926 
C 122.736821 278.011259 121.505587 277.501265 120.221951 277.501265 
C 118.938316 277.501265 117.707081 278.011259 116.799414 278.918926 
C 115.891747 279.826594 115.381753 281.057828 115.381753 282.341463 
C 115.381753 283.625099 115.891747 284.856333 116.799414 285.764001 
C 117.707081 286.671668 118.938316 287.181662 120.221951 287.181662 
z
" clip-path="url(#p1e03418dcf)" style="fill: #1b1b1b; fill-opacity: 0.95"/>
   </g>
   <g id="patch_43">
    <path d="M 112.719512 289.224576 
C 113.5501 289.224576 114.346781 288.89458 114.934095 288.307266 
C 115.521409 287.719952 115.851405 286.923271 115.851405 286.092683 
C 115.851405 285.262095 115.521409 284.465414 114.934095 283.8781 
C 114.346781 283.290786 113.5501 282.96079 112.719512 282.96079 
C 111.888924 282.96079 111.092244 283.290786 110.504929 283.8781 
C 109.917615 284.465414 109.587619 285.262095 109.587619 286.092683 
C 109.587619 286.923271 109.917615 287.719952 110.504929 288.307266 
C 111.092244 288.89458 111.888924 289.224576 112.719512 289.224576 
z
" clip-path="url(#p1e03418dcf)" style="fill: #1b1b1b; fill-opacity: 0.95"/>
   </g>
   <g id="patch_44">
    <path d="M 122.386554 286.670669 
L 114.120137 288.893933 
L 111.318887 283.291433 
L 118.057349 278.012258 
z
" clip-path="url(#p1e03418dcf)" style="fill: #1b1b1b; fill-opacity: 0.95"/>
   </g>
   <g id="patch_45">
    <path d="M 80.834146 215.944878 
C 83.122267 215.944878 85.31698 215.035798 86.934926 213.417853 
C 88.552871 211.799907 89.461951 209.605194 89.461951 207.317073 
C 89.461951 205.028953 88.552871 202.834239 86.934926 201.216294 
C 85.31698 199.598348 83.122267 198.689268 80.834146 198.689268 
C 78.546026 198.689268 76.351313 199.598348 74.733367 201.216294 
C 73.115421 202.834239 72.206341 205.028953 72.206341 207.317073 
C 72.206341 209.605194 73.115421 211.799907 74.733367 213.417853 
C 76.351313 215.035798 78.546026 215.944878 80.834146 215.944878 
z
" clip-path="url(#p1e03418dcf)" style="fill: #2c3e50; fill-opacity: 0.95"/>
   </g>
   <g id="patch_46">
    <path d="M 99.590244 236.208966 
C 101.283453 236.208966 102.907541 235.536247 104.104821 234.338967 
C 105.3021 233.141687 105.97482 231.517599 105.97482 229.82439 
C 105.97482 228.131181 105.3021 226.507093 104.104821 225.309814 
C 102.907541 224.112534 101.283453 223.439815 99.590244 223.439815 
C 97.897035 223.439815 96.272947 224.112534 95.075667 225.309814 
C 93.878387 226.507093 93.205668 228.131181 93.205668 229.82439 
C 93.205668 231.517599 93.878387 233.141687 95.075667 234.338967 
C 96.272947 235.536247 97.897035 236.208966 99.590244 236.208966 
z
" clip-path="url(#p1e03418dcf)" style="fill: #2c3e50; fill-opacity: 0.95"/>
   </g>
   <g id="patch_47">
    <path d="M 87.46221 201.793687 
L 104.495011 225.737085 
L 94.685477 233.911696 
L 74.206083 212.840459 
z
" clip-path="url(#p1e03418dcf)" style="fill: #2c3e50; fill-opacity: 0.95"/>
   </g>
   <g id="patch_48">
    <path d="M 99.590244 236.208966 
C 101.283453 236.208966 102.907541 235.536247 104.104821 234.338967 
C 105.3021 233.141687 105.97482 231.517599 105.97482 229.82439 
C 105.97482 228.131181 105.3021 226.507093 104.104821 225.309814 
C 102.907541 224.112534 101.283453 223.439815 99.590244 223.439815 
C 97.897035 223.439815 96.272947 224.112534 95.075667 225.309814 
C 93.878387 226.507093 93.205668 228.131181 93.205668 229.82439 
C 93.205668 231.517599 93.878387 233.141687 95.075667 234.338967 
C 96.272947 235.536247 97.897035 236.208966 99.590244 236.208966 
z
" clip-path="url(#p1e03418dcf)" style="fill: #2c3e50; fill-opacity: 0.95"/>
   </g>
   <g id="patch_49">
    <path d="M 133.35122 259.556556 
C 134.769854 259.556556 136.130576 258.992927 137.133703 257.9898 
C 138.136829 256.986674 138.700459 255.625952 138.700459 254.207317 
C 138.700459 252.788682 138.136829 251.42796 137.133703 250.424834 
C 136.130576 249.421708 134.769854 248.858078 133.35122 248.858078 
C 131.932585 248.858078 130.571863 249.421708 129.568736 250.424834 
C 128.56561 251.42796 128.00198 252.788682 128.00198 254.207317 
C 128.00198 255.625952 128.56561 256.986674 129.568736 257.9898 
C 130.571863 258.992927 131.932585 259.556556 133.35122 259.556556 
z
" clip-path="url(#p1e03418dcf)" style="fill: #2c3e50; fill-opacity: 0.95"/>
   </g>
   <g id="patch_50">
    <path d="M 103.328353 224.648547 
L 136.483148 249.8708 
L 130.219291 258.543834 
L 95.852135 235.000233 
z
" clip-path="url(#p1e03418dcf)" style="fill: #2c3e50; fill-opacity: 0.95"/>
   </g>
   <g id="patch_51">
    <path d="M 120.221951 286.441396 
C 121.309266 286.441396 122.352194 286.009402 123.121042 285.240554 
C 123.889889 284.471706 124.321884 283.428778 124.321884 282.341463 
C 124.321884 281.254149 123.889889 280.211221 123.121042 279.442373 
C 122.352194 278.673525 121.309266 278.241531 120.221951 278.241531 
C 119.134636 278.241531 118.091709 278.673525 117.322861 279.442373 
C 116.554013 280.211221 116.122018 281.254149 116.122018 282.341463 
C 116.122018 283.428778 116.554013 284.471706 117.322861 285.240554 
C 118.091709 286.009402 119.134636 286.441396 120.221951 286.441396 
z
" clip-path="url(#p1e03418dcf)" style="fill: #1b1b1b; fill-opacity: 0.95; stroke: #121212; stroke-width: 1.3; stroke-linejoin: miter"/>
   </g>
   <g id="patch_52">
    <path d="M 133.35122 260.087354 
C 134.910623 260.087354 136.406368 259.467796 137.509033 258.365131 
C 138.611698 257.262466 139.231256 255.766721 139.231256 254.207317 
C 139.231256 252.647913 138.611698 251.152168 137.509033 250.049503 
C 136.406368 248.946838 134.910623 248.32728 133.35122 248.32728 
C 131.791816 248.32728 130.296071 248.946838 129.193406 250.049503 
C 128.090741 251.152168 127.471183 252.647913 127.471183 254.207317 
C 127.471183 255.766721 128.090741 257.262466 129.193406 258.365131 
C 130.296071 259.467796 131.791816 260.087354 133.35122 260.087354 
z
" clip-path="url(#p1e03418dcf)" style="fill: #f2e0c9; fill-opacity: 0.95; stroke: #a49888; stroke-width: 1.3; stroke-linejoin: miter"/>
   </g>
   <g id="line2d_12">
    <path d="M 165.712681 213.18195 
L 142.789434 248.610571 
L 141.040071 250.969093 
L 138.589546 252.587062 
L 135.733428 253.269327 
L 132.816206 252.933596 
L 130.189741 251.620364 
L 128.170823 249.488025 
L 127.002964 246.793771 
L 126.827024 243.86257 
L 127.664225 241.047966 
L 142.253173 201.452196 
L 144.96647 197.79408 
L 148.767284 195.284576 
L 153.197182 194.22637 
L 157.721853 194.747096 
L 161.795553 196.783946 
L 164.926936 200.091247 
L 166.73831 204.270089 
L 167.011196 208.816443 
L 165.712681 213.18195 
L 165.712681 213.18195 
" clip-path="url(#p1e03418dcf)" style="fill: none; stroke: #282a2c; stroke-width: 1.7; stroke-linecap: round"/>
   </g>
   <g id="line2d_13">
    <path d="M 143.077331 247.969469 
L 125.509024 284.456292 
L 124.46686 286.137038 
L 122.912698 287.359981 
L 121.033992 287.977617 
L 119.057342 287.915449 
L 117.221161 287.180977 
L 115.746919 285.862788 
L 114.812433 284.119875 
L 114.530414 282.16246 
L 114.934879 280.226634 
L 127.376328 241.689068 
L 128.923783 239.193415 
L 131.231478 237.37753 
L 134.021072 236.460434 
L 136.956098 236.552744 
L 139.682548 237.643324 
L 141.871573 239.600635 
L 143.259144 242.188596 
L 143.677899 245.095062 
L 143.077331 247.969469 
L 143.077331 247.969469 
" clip-path="url(#p1e03418dcf)" style="fill: none; stroke: #282a2c; stroke-width: 1.7; stroke-linecap: round"/>
   </g>
   <g id="line2d_14">
    <path d="M 122.386554 286.670669 
L 114.120137 288.893933 
L 113.077585 289.204039 
L 111.991844 289.13887 
L 110.993871 288.706285 
L 110.204035 287.958462 
L 109.717603 286.985597 
L 109.593246 285.905035 
L 109.845962 284.847105 
L 110.445271 283.939411 
L 111.318887 283.291433 
L 118.057349 278.012258 
L 119.668566 277.533004 
L 121.346529 277.63372 
L 122.888852 278.30226 
L 124.109507 279.457987 
L 124.861265 280.961505 
L 125.053454 282.631465 
L 124.662892 284.266447 
L 123.736688 285.669248 
L 122.386554 286.670669 
L 122.386554 286.670669 
" clip-path="url(#p1e03418dcf)" style="fill: none; stroke: #121212; stroke-width: 1.5; stroke-linecap: round"/>
   </g>
   <g id="line2d_15">
    <path d="M 87.46221 201.793687 
L 104.495011 225.737085 
L 105.597158 227.661108 
L 105.974783 229.846056 
L 105.582338 232.02839 
L 104.467158 233.944889 
L 102.76375 235.364396 
L 100.677571 236.115696 
L 98.460244 236.108171 
L 96.379212 235.34273 
L 94.685477 233.911696 
L 74.206083 212.840459 
L 72.716695 210.240427 
L 72.206391 207.287795 
L 72.736722 204.338695 
L 74.243722 201.748831 
L 76.545624 199.830579 
L 79.364785 198.815309 
L 82.361173 198.825477 
L 85.173379 199.859857 
L 87.46221 201.793687 
L 87.46221 201.793687 
" clip-path="url(#p1e03418dcf)" style="fill: none; stroke: #1d2a36; stroke-width: 1.7; stroke-linecap: round"/>
   </g>
   <g id="line2d_16">
    <path d="M 103.328353 224.648547 
L 136.483148 249.8708 
L 137.777446 251.203507 
L 138.537876 252.898517 
L 138.672718 254.751389 
L 138.165709 256.538637 
L 137.078001 258.044693 
L 135.540789 259.087906 
L 133.739482 259.542447 
L 131.891345 259.353493 
L 130.219291 258.543834 
L 95.852135 235.000233 
L 94.307328 233.409583 
L 93.399719 231.386506 
L 93.238778 229.175015 
L 93.843918 227.041847 
L 95.14215 225.244296 
L 96.976887 223.999172 
L 99.126834 223.456655 
L 101.332675 223.68218 
L 103.328353 224.648547 
L 103.328353 224.648547 
" clip-path="url(#p1e03418dcf)" style="fill: none; stroke: #1d2a36; stroke-width: 1.7; stroke-linecap: round"/>
   </g>
   <g id="patch_53">
    <path d="M 97.714634 254.207317 
C 99.704304 254.207317 101.61275 253.416813 103.01966 252.009904 
C 104.426569 250.602994 105.217073 248.694548 105.217073 246.704878 
C 105.217073 244.715208 104.426569 242.806762 103.01966 241.399853 
C 101.61275 239.992943 99.704304 239.202439 97.714634 239.202439 
C 95.724964 239.202439 93.816518 239.992943 92.409609 241.399853 
C 91.002699 242.806762 90.212195 244.715208 90.212195 246.704878 
C 90.212195 248.694548 91.002699 250.602994 92.409609 252.009904 
C 93.816518 253.416813 95.724964 254.207317 97.714634 254.207317 
z
" clip-path="url(#p1e03418dcf)" style="fill: #2c3e50"/>
   </g>
   <g id="patch_54">
    <path d="M 80.834146 218.945854 
C 83.918135 218.945854 86.876227 217.720572 89.056936 215.539863 
C 91.237645 213.359153 92.462927 210.401062 92.462927 207.317073 
C 92.462927 204.233085 91.237645 201.274993 89.056936 199.094284 
C 86.876227 196.913574 83.918135 195.688293 80.834146 195.688293 
C 77.750158 195.688293 74.792066 196.913574 72.611357 199.094284 
C 70.430648 201.274993 69.205366 204.233085 69.205366 207.317073 
C 69.205366 210.401062 70.430648 213.359153 72.611357 215.539863 
C 74.792066 217.720572 77.750158 218.945854 80.834146 218.945854 
z
" clip-path="url(#p1e03418dcf)" style="fill: #2c3e50"/>
   </g>
   <g id="patch_55">
    <path d="M 90.818805 249.660234 
L 70.145611 211.897874 
L 91.522682 202.736272 
L 104.610464 243.749523 
z
" clip-path="url(#p1e03418dcf)" style="fill: #2c3e50"/>
   </g>
   <g id="patch_56">
    <path d="M 80.834146 230.574634 
C 87.002124 230.574634 92.918307 228.124071 97.279725 223.762652 
C 101.641144 219.401234 104.091707 213.48505 104.091707 207.317073 
C 104.091707 201.149096 101.641144 195.232913 97.279725 190.871494 
C 92.918307 186.510076 87.002124 184.059512 80.834146 184.059512 
C 74.666169 184.059512 68.749986 186.510076 64.388567 190.871494 
C 60.027149 195.232913 57.576585 201.149096 57.576585 207.317073 
C 57.576585 213.48505 60.027149 219.401234 64.388567 223.762652 
C 68.749986 228.124071 74.666169 230.574634 80.834146 230.574634 
z
" clip-path="url(#p1e03418dcf)" style="fill: #2c3e50"/>
   </g>
   <g id="patch_57">
    <path d="M 153.982927 224.572683 
C 158.559168 224.572683 162.948594 222.754523 166.184486 219.518632 
C 169.420377 216.282741 171.238537 211.893314 171.238537 207.317073 
C 171.238537 202.740832 169.420377 198.351406 166.184486 195.115514 
C 162.948594 191.879623 158.559168 190.061463 153.982927 190.061463 
C 149.406686 190.061463 145.017259 191.879623 141.781368 195.115514 
C 138.545477 198.351406 136.727317 202.740832 136.727317 207.317073 
C 136.727317 211.893314 138.545477 216.282741 141.781368 219.518632 
C 145.017259 222.754523 149.406686 224.572683 153.982927 224.572683 
z
" clip-path="url(#p1e03418dcf)" style="fill: #2c3e50"/>
   </g>
   <g id="patch_58">
    <path d="M 80.834146 184.059512 
L 153.982927 190.061463 
L 153.982927 224.572683 
L 80.834146 230.574634 
z
" clip-path="url(#p1e03418dcf)" style="fill: #2c3e50"/>
   </g>
   <g id="patch_59">
    <path d="M 153.982927 221.571707 
C 157.7633 221.571707 161.389348 220.069749 164.062475 217.396622 
C 166.735603 214.723494 168.237561 211.097446 168.237561 207.317073 
C 168.237561 203.5367 166.735603 199.910652 164.062475 197.237525 
C 161.389348 194.564397 157.7633 193.062439 153.982927 193.062439 
C 150.202554 193.062439 146.576506 194.564397 143.903378 197.237525 
C 141.230251 199.910652 139.728293 203.5367 139.728293 207.317073 
C 139.728293 211.097446 141.230251 214.723494 143.903378 217.396622 
C 146.576506 220.069749 150.202554 221.571707 153.982927 221.571707 
z
" clip-path="url(#p1e03418dcf)" style="fill: #3c3f42"/>
   </g>
   <g id="patch_60">
    <path d="M 153.982927 261.522195 
C 156.420273 261.522195 158.758119 260.553827 160.481583 258.830364 
C 162.205047 257.1069 163.173415 254.769053 163.173415 252.331707 
C 163.173415 249.894361 162.205047 247.556515 160.481583 245.833051 
C 158.758119 244.109587 156.420273 243.14122 153.982927 243.14122 
C 151.545581 243.14122 149.207734 244.109587 147.484271 245.833051 
C 145.760807 247.556515 144.792439 249.894361 144.792439 252.331707 
C 144.792439 254.769053 145.760807 257.1069 147.484271 258.830364 
C 149.207734 260.553827 151.545581 261.522195 153.982927 261.522195 
z
" clip-path="url(#p1e03418dcf)" style="fill: #3c3f42"/>
   </g>
   <g id="patch_61">
    <path d="M 168.237561 207.317073 
L 163.173415 252.331707 
L 144.792439 252.331707 
L 139.728293 207.317073 
z
" clip-path="url(#p1e03418dcf)" style="fill: #3c3f42"/>
   </g>
   <g id="patch_62">
    <path d="M 153.982927 261.522195 
C 156.420273 261.522195 158.758119 260.553827 160.481583 258.830364 
C 162.205047 257.1069 163.173415 254.769053 163.173415 252.331707 
C 163.173415 249.894361 162.205047 247.556515 160.481583 245.833051 
C 158.758119 244.109587 156.420273 243.14122 153.982927 243.14122 
C 151.545581 243.14122 149.207734 244.109587 147.484271 245.833051 
C 145.760807 247.556515 144.792439 249.894361 144.792439 252.331707 
C 144.792439 254.769053 145.760807 257.1069 147.484271 258.830364 
C 149.207734 260.553827 151.545581 261.522195 153.982927 261.522195 
z
" clip-path="url(#p1e03418dcf)" style="fill: #3c3f42"/>
   </g>
   <g id="patch_63">
    <path d="M 153.982927 290.406585 
C 155.624405 290.406585 157.198873 289.754419 158.359573 288.593719 
C 159.520273 287.433019 160.172439 285.858551 160.172439 284.217073 
C 160.172439 282.575595 159.520273 281.001127 158.359573 279.840427 
C 157.198873 278.679727 155.624405 278.027561 153.982927 278.027561 
C 152.341449 278.027561 150.766981 278.679727 149.606281 279.840427 
C 148.445581 281.001127 147.793415 282.575595 147.793415 284.217073 
C 147.793415 285.858551 148.445581 287.433019 149.606281 288.593719 
C 150.766981 289.754419 152.341449 290.406585 153.982927 290.406585 
z
" clip-path="url(#p1e03418dcf)" style="fill: #3c3f42"/>
   </g>
   <g id="patch_64">
    <path d="M 163.173415 252.331707 
L 160.172439 284.217073 
L 147.793415 284.217073 
L 144.792439 252.331707 
z
" clip-path="url(#p1e03418dcf)" style="fill: #3c3f42"/>
   </g>
   <g id="patch_65">
    <path d="M 153.982927 289.478159 
C 155.378183 289.478159 156.716481 288.923817 157.703076 287.937222 
C 158.689671 286.950627 159.244012 285.612329 159.244012 284.217073 
C 159.244012 282.821817 158.689671 281.483519 157.703076 280.496924 
C 156.716481 279.510329 155.378183 278.955988 153.982927 278.955988 
C 152.587671 278.955988 151.249373 279.510329 150.262778 280.496924 
C 149.276183 281.483519 148.721841 282.821817 148.721841 284.217073 
C 148.721841 285.612329 149.276183 286.950627 150.262778 287.937222 
C 151.249373 288.923817 152.587671 289.478159 153.982927 289.478159 
z
" clip-path="url(#p1e03418dcf)" style="fill: #1b1b1b"/>
   </g>
   <g id="patch_66">
    <path d="M 153.982927 293.248134 
C 154.88574 293.248134 155.751697 292.889443 156.390082 292.251058 
C 157.028467 291.612673 157.387159 290.746715 157.387159 289.843902 
C 157.387159 288.94109 157.028467 288.075132 156.390082 287.436747 
C 155.751697 286.798362 154.88574 286.439671 153.982927 286.439671 
C 153.080114 286.439671 152.214157 286.798362 151.575772 287.436747 
C 150.937386 288.075132 150.578695 288.94109 150.578695 289.843902 
C 150.578695 290.746715 150.937386 291.612673 151.575772 292.251058 
C 152.214157 292.889443 153.080114 293.248134 153.982927 293.248134 
z
" clip-path="url(#p1e03418dcf)" style="fill: #1b1b1b"/>
   </g>
   <g id="patch_67">
    <path d="M 159.244012 284.217073 
L 157.387159 289.843902 
L 150.578695 289.843902 
L 148.721841 284.217073 
z
" clip-path="url(#p1e03418dcf)" style="fill: #1b1b1b"/>
   </g>
   <g id="line2d_17">
    <path d="M 90.818805 249.660234 
L 70.145611 211.897874 
L 69.223482 207.965924 
L 69.701771 203.955712 
L 71.522788 200.35093 
L 74.466893 197.586368 
L 78.178983 195.995473 
L 82.211324 195.770129 
L 86.077558 196.937518 
L 89.311358 199.356834 
L 91.522682 202.736272 
L 104.610464 243.749523 
L 105.205385 246.286265 
L 104.896812 248.873498 
L 103.721962 251.199164 
L 101.822539 252.982752 
L 99.427643 254.009137 
L 96.826132 254.154519 
L 94.331788 253.401366 
L 92.245465 251.840516 
L 90.818805 249.660234 
L 90.818805 249.660234 
" clip-path="url(#p1e03418dcf)" style="fill: none; stroke: #1d2a36; stroke-width: 1.7; stroke-linecap: round"/>
   </g>
   <g id="line2d_18">
    <path d="M 80.834146 184.059512 
L 153.982927 190.061463 
L 159.884693 191.102104 
L 165.074619 194.098509 
L 168.926723 198.689268 
L 170.976385 204.320668 
L 170.976385 210.313478 
L 168.926723 215.944878 
L 165.074619 220.535637 
L 159.884693 223.532042 
L 153.982927 224.572683 
L 80.834146 230.574634 
L 72.879592 229.172032 
L 65.884474 225.133399 
L 60.692508 218.945854 
L 57.92992 211.355706 
L 57.92992 203.27844 
L 60.692508 195.688293 
L 65.884474 189.500748 
L 72.879592 185.462115 
L 80.834146 184.059512 
L 80.834146 184.059512 
" clip-path="url(#p1e03418dcf)" style="fill: none; stroke: #1d2a36; stroke-width: 1.7; stroke-linecap: round"/>
   </g>
   <g id="patch_68">
    <path d="M 80.834146 216.695122 
C 83.321234 216.695122 85.706792 215.706992 87.465428 213.948355 
C 89.224065 212.189719 90.212195 209.804161 90.212195 207.317073 
C 90.212195 204.829986 89.224065 202.444428 87.465428 200.685791 
C 85.706792 198.927155 83.321234 197.939024 80.834146 197.939024 
C 78.347059 197.939024 75.961501 198.927155 74.202864 200.685791 
C 72.444228 202.444428 71.456098 204.829986 71.456098 207.317073 
C 71.456098 209.804161 72.444228 212.189719 74.202864 213.948355 
C 75.961501 215.706992 78.347059 216.695122 80.834146 216.695122 
z
" clip-path="url(#p1e03418dcf)" style="fill: #2c3e50"/>
   </g>
   <g id="patch_69">
    <path d="M 80.834146 259.271463 
C 82.674591 259.271463 84.439904 258.540247 85.741295 257.238856 
C 87.042686 255.937465 87.773902 254.172152 87.773902 252.331707 
C 87.773902 250.491262 87.042686 248.72595 85.741295 247.424559 
C 84.439904 246.123168 82.674591 245.391951 80.834146 245.391951 
C 78.993702 245.391951 77.228389 246.123168 75.926998 247.424559 
C 74.625607 248.72595 73.89439 250.491262 73.89439 252.331707 
C 73.89439 254.172152 74.625607 255.937465 75.926998 257.238856 
C 77.228389 258.540247 78.993702 259.271463 80.834146 259.271463 
z
" clip-path="url(#p1e03418dcf)" style="fill: #2c3e50"/>
   </g>
   <g id="patch_70">
    <path d="M 90.212195 207.317073 
L 87.773902 252.331707 
L 73.89439 252.331707 
L 71.456098 207.317073 
z
" clip-path="url(#p1e03418dcf)" style="fill: #2c3e50"/>
   </g>
   <g id="patch_71">
    <path d="M 80.834146 259.271463 
C 82.674591 259.271463 84.439904 258.540247 85.741295 257.238856 
C 87.042686 255.937465 87.773902 254.172152 87.773902 252.331707 
C 87.773902 250.491262 87.042686 248.72595 85.741295 247.424559 
C 84.439904 246.123168 82.674591 245.391951 80.834146 245.391951 
C 78.993702 245.391951 77.228389 246.123168 75.926998 247.424559 
C 74.625607 248.72595 73.89439 250.491262 73.89439 252.331707 
C 73.89439 254.172152 74.625607 255.937465 75.926998 257.238856 
C 77.228389 258.540247 78.993702 259.271463 80.834146 259.271463 
z
" clip-path="url(#p1e03418dcf)" style="fill: #2c3e50"/>
   </g>
   <g id="patch_72">
    <path d="M 80.834146 290.031463 
C 82.376141 290.031463 83.855186 289.418823 84.945541 288.328468 
C 86.035896 287.238113 86.648537 285.759067 86.648537 284.217073 
C 86.648537 282.675079 86.035896 281.196033 84.945541 280.105678 
C 83.855186 279.015324 82.376141 278.402683 80.834146 278.402683 
C 79.292152 278.402683 77.813106 279.015324 76.722752 280.105678 
C 75.632397 281.196033 75.019756 282.675079 75.019756 284.217073 
C 75.019756 285.759067 75.632397 287.238113 76.722752 288.328468 
C 77.813106 289.418823 79.292152 290.031463 80.834146 290.031463 
z
" clip-path="url(#p1e03418dcf)" style="fill: #2c3e50"/>
   </g>
   <g id="patch_73">
    <path d="M 87.773902 252.331707 
L 86.648537 284.217073 
L 75.019756 284.217073 
L 73.89439 252.331707 
z
" clip-path="url(#p1e03418dcf)" style="fill: #2c3e50"/>
   </g>
   <g id="patch_74">
    <path d="M 153.982927 288.673522 
C 155.164791 288.673522 156.298408 288.203962 157.134112 287.368258 
C 157.969816 286.532554 158.439376 285.398937 158.439376 284.217073 
C 158.439376 283.035209 157.969816 281.901592 157.134112 281.065888 
C 156.298408 280.230184 155.164791 279.760624 153.982927 279.760624 
C 152.801063 279.760624 151.667446 280.230184 150.831742 281.065888 
C 149.996038 281.901592 149.526478 283.035209 149.526478 284.217073 
C 149.526478 285.398937 149.996038 286.532554 150.831742 287.368258 
C 151.667446 288.203962 152.801063 288.673522 153.982927 288.673522 
z
" clip-path="url(#p1e03418dcf)" style="fill: #1b1b1b; stroke: #121212; stroke-width: 1.3; stroke-linejoin: miter"/>
   </g>
   <g id="patch_75">
    <path d="M 80.834146 290.406585 
C 82.475624 290.406585 84.050092 289.754419 85.210792 288.593719 
C 86.371492 287.433019 87.023659 285.858551 87.023659 284.217073 
C 87.023659 282.575595 86.371492 281.001127 85.210792 279.840427 
C 84.050092 278.679727 82.475624 278.027561 80.834146 278.027561 
C 79.192669 278.027561 77.6182 278.679727 76.4575 279.840427 
C 75.2968 281.001127 74.644634 282.575595 74.644634 284.217073 
C 74.644634 285.858551 75.2968 287.433019 76.4575 288.593719 
C 77.6182 289.754419 79.192669 290.406585 80.834146 290.406585 
z
" clip-path="url(#p1e03418dcf)" style="fill: #f2e0c9; stroke: #a49888; stroke-width: 1.6; stroke-linejoin: miter"/>
   </g>
   <g id="line2d_19">
    <path d="M 168.237561 207.317073 
L 163.173415 252.331707 
L 162.61916 255.475039 
L 161.023249 258.239239 
L 158.578171 260.290903 
L 155.578838 261.382571 
L 152.387015 261.382571 
L 149.387683 260.290903 
L 146.942605 258.239239 
L 145.346693 255.475039 
L 144.792439 252.331707 
L 139.728293 207.317073 
L 140.587952 202.441701 
L 143.063244 198.154371 
L 146.85561 194.972198 
L 151.507636 193.278999 
L 156.458218 193.278999 
L 161.110244 194.972198 
L 164.90261 198.154371 
L 167.377901 202.441701 
L 168.237561 207.317073 
L 168.237561 207.317073 
" clip-path="url(#p1e03418dcf)" style="fill: none; stroke: #282a2c; stroke-width: 1.7; stroke-linecap: round"/>
   </g>
   <g id="line2d_20">
    <path d="M 163.173415 252.331707 
L 160.172439 284.217073 
L 159.799166 286.334011 
L 158.724368 288.195615 
L 157.077683 289.577348 
L 155.057724 290.312553 
L 152.908129 290.312553 
L 150.888171 289.577348 
L 149.241485 288.195615 
L 148.166688 286.334011 
L 147.793415 284.217073 
L 144.792439 252.331707 
L 145.346693 249.188375 
L 146.942605 246.424176 
L 149.387683 244.372511 
L 152.387015 243.280844 
L 155.578838 243.280844 
L 158.578171 244.372511 
L 161.023249 246.424176 
L 162.61916 249.188375 
L 163.173415 252.331707 
L 163.173415 252.331707 
" clip-path="url(#p1e03418dcf)" style="fill: none; stroke: #282a2c; stroke-width: 1.7; stroke-linecap: round"/>
   </g>
   <g id="line2d_21">
    <path d="M 159.244012 284.217073 
L 157.387159 289.843902 
L 157.181858 291.008218 
L 156.59072 292.0321 
L 155.685043 292.792054 
L 154.574065 293.196416 
L 153.391788 293.196416 
L 152.280811 292.792054 
L 151.375134 292.0321 
L 150.783995 291.008218 
L 150.578695 289.843902 
L 148.721841 284.217073 
L 149.039124 282.417676 
L 149.952702 280.835313 
L 151.352384 279.66084 
L 153.069349 279.035916 
L 154.896505 279.035916 
L 156.61347 279.66084 
L 158.013152 280.835313 
L 158.92673 282.417676 
L 159.244012 284.217073 
L 159.244012 284.217073 
" clip-path="url(#p1e03418dcf)" style="fill: none; stroke: #121212; stroke-width: 1.5; stroke-linecap: round"/>
   </g>
   <g id="line2d_22">
    <path d="M 90.212195 207.317073 
L 87.773902 252.331707 
L 87.355384 254.705244 
L 86.150308 256.792497 
L 84.304024 258.341712 
L 82.039222 259.166033 
L 79.62907 259.166033 
L 77.364268 258.341712 
L 75.517985 256.792497 
L 74.312909 254.705244 
L 73.89439 252.331707 
L 71.456098 207.317073 
L 72.021663 204.109592 
L 73.650144 201.28898 
L 76.145122 199.195445 
L 79.205665 198.081498 
L 82.462627 198.081498 
L 85.523171 199.195445 
L 88.018148 201.28898 
L 89.64663 204.109592 
L 90.212195 207.317073 
L 90.212195 207.317073 
" clip-path="url(#p1e03418dcf)" style="fill: none; stroke: #1d2a36; stroke-width: 1.7; stroke-linecap: round"/>
   </g>
   <g id="line2d_23">
    <path d="M 87.773902 252.331707 
L 86.648537 284.217073 
L 86.297886 286.205712 
L 85.288228 287.954491 
L 83.741341 289.252483 
L 81.843805 289.94313 
L 79.824488 289.94313 
L 77.926951 289.252483 
L 76.380065 287.954491 
L 75.370407 286.205712 
L 75.019756 284.217073 
L 73.89439 252.331707 
L 74.312909 249.958171 
L 75.517985 247.870918 
L 77.364268 246.321702 
L 79.62907 245.497382 
L 82.039222 245.497382 
L 84.304024 246.321702 
L 86.150308 247.870918 
L 87.355384 249.958171 
L 87.773902 252.331707 
L 87.773902 252.331707 
" clip-path="url(#p1e03418dcf)" style="fill: none; stroke: #1d2a36; stroke-width: 1.7; stroke-linecap: round"/>
   </g>
   <g id="patch_76">
    <path d="M 97.714634 261.709756 
C 101.693974 261.709756 105.510867 260.128747 108.324685 257.314929 
C 111.138504 254.501111 112.719512 250.684218 112.719512 246.704878 
C 112.719512 242.725538 111.138504 238.908645 108.324685 236.094827 
C 105.510867 233.281009 101.693974 231.7 97.714634 231.7 
C 93.735294 231.7 89.918402 233.281009 87.104583 236.094827 
C 84.290765 238.908645 82.709756 242.725538 82.709756 246.704878 
C 82.709756 250.684218 84.290765 254.501111 87.104583 257.314929 
C 89.918402 260.128747 93.735294 261.709756 97.714634 261.709756 
z
" clip-path="url(#p1e03418dcf)" style="fill: #f2e0c9; stroke: #a49888; stroke-width: 1.8; stroke-linejoin: miter"/>
   </g>
   <g id="patch_77">
    <path d="M 82.836264 222.295443 
Q 102.858928 222.441926 112.246271 237.286789 
" clip-path="url(#p1e03418dcf)" style="fill: none; stroke-dasharray: 2.2,0; stroke-dashoffset: 0; stroke: #c0392b; stroke-width: 2.2; stroke-linecap: round"/>
    <path d="M 111.619788 231.057221 
L 112.246271 237.286789 
L 106.886727 234.050234 
z
" clip-path="url(#p1e03418dcf)" style="fill: #c0392b; stroke-dasharray: 2.2,0; stroke-dashoffset: 0; stroke: #c0392b; stroke-width: 2.2; stroke-linecap: round"/>
   </g>
  </g>
 </g>
 <defs>
  <clipPath id="p1e03418dcf">
   <rect x="5.809756" y="1" width="247.580488" height="307.6"/>
  </clipPath>
 </defs>
</svg>
