<?xml version="1.0" encoding="utf-8" standalone="no"?>
<!DOCTYPE svg PUBLIC "-//W3C//DTD SVG 1.1//EN"
  "http://www.w3.org/Graphics/SVG/1.1/DTD/svg11.dtd">
<svg xmlns:xlink="http://www.w3.org/1999/xlink" width="259.2pt" height="309.6pt" viewBox="0 0 259.2 309.6" xmlns="http://www.w3.org/2000/svg" version="1.1">
 <metadata>
  <rdf:RDF xmlns:dc="http://purl.org/dc/elements/1.1/" xmlns:cc="http://creativecommons.org/ns#" xmlns:rdf="http://www.w3.org/1999/02/22-rdf-syntax-ns#">
   <cc:Work>
    <dc:type rdf:resource="http://purl.org/dc/dcmitype/StillImage"/>
    <dc:date>2026-07-10T23:04:57.599115</dc:date>
    <dc:format>image/svg+xml</dc:format>
    <dc:creator>
     <cc:Agent>
      <dc:title>Matplotlib v3.10.8, https://matplotlib.org/</dc:title>
     </cc:Agent>
    </dc:creator>
   </cc:Work>
  </rdf:RDF>
 </metadata>
 <defs>
  <style type="text/css">*{stroke-linejoin: round; stroke-linecap: butt}</style>
 </defs>
 <g id="figure_1">
  <g id="patch_1">
   <path d="M 0 309.6 
L 259.2 309.6 
L 259.2 0 
L 0 0 
L 0 309.6 
z
" style="fill: none"/>
  </g>
  <g id="axes_1">
   <g id="line2d_1">
    <path d="M 17.063415 299.221951 
L 242.136585 299.221951 
" clip-path="url(#p0fc248ebf9)" style="fill: none; stroke: #c3c3c3; stroke-width: 3; stroke-linecap: round"/>
   </g>
   <g id="patch_2">
    <path d="M 129.6 64.770732 
C 131.58967 64.770732 133.498116 63.980227 134.905026 62.573318 
C 136.311935 61.166409 137.102439 59.257963 137.102439 57.268293 
C 137.102439 55.278623 136.311935 53.370176 134.905026 51.963267 
C 133.498116 50.556358 131.58967 49.765854 129.6 49.765854 
C 127.61033 49.765854 125.701884 50.556358 124.294974 51.963267 
C 122.888065 53.370176 122.097561 55.278623 122.097561 57.268293 
C 122.097561 59.257963 122.888065 61.166409 124.294974 62.573318 
C 125.701884 63.980227 127.61033 64.770732 129.6 64.770732 
z
" clip-path="url(#p0fc248ebf9)" style="fill: #9aa0a6; fill-opacity: 0.3"/>
   </g>
   <g id="patch_3">
    <path d="M 129.6 91.40439 
C 132.683989 91.40439 135.64208 90.179109 137.82279 87.998399 
C 140.003499 85.81769 141.22878 82.859598 141.22878 79.77561 
C 141.22878 76.691621 140.003499 73.733529 137.82279 71.55282 
C 135.64208 69.372111 132.683989 68.146829 129.6 68.146829 
C 126.516011 68.146829 123.55792 69.372111 121.37721 71.55282 
C 119.196501 73.733529 117.97122 76.691621 117.97122 79.77561 
C 117.97122 82.859598 119.196501 85.81769 121.37721 87.998399 
C 123.55792 90.179109 126.516011 91.40439 129.6 91.40439 
z
" clip-path="url(#p0fc248ebf9)" style="fill: #9aa0a6; fill-opacity: 0.3"/>
   </g>
   <g id="patch_4">
    <path d="M 137.102439 57.268293 
L 141.22878 79.77561 
L 117.97122 79.77561 
L 122.097561 57.268293 
z
" clip-path="url(#p0fc248ebf9)" style="fill: #9aa0a6; fill-opacity: 0.3"/>
   </g>
   <g id="patch_5">
    <path d="M 129.6 103.033171 
C 135.767977 103.033171 141.684161 100.582607 146.045579 96.221189 
C 150.406998 91.85977 152.857561 85.943587 152.857561 79.77561 
C 152.857561 73.607632 150.406998 67.691449 146.045579 63.330031 
C 141.684161 58.968612 135.767977 56.518049 129.6 56.518049 
C 123.432023 56.518049 117.515839 58.968612 113.154421 63.330031 
C 108.793002 67.691449 106.342439 73.607632 106.342439 79.77561 
C 106.342439 85.943587 108.793002 91.85977 113.154421 96.221189 
C 117.515839 100.582607 123.432023 103.033171 129.6 103.033171 
z
" clip-path="url(#p0fc248ebf9)" style="fill: #9aa0a6; fill-opacity: 0.3"/>
   </g>
   <g id="patch_6">
    <path d="M 129.6 164.553171 
C 134.176241 164.553171 138.565667 162.735011 141.801559 159.49912 
C 145.03745 156.263228 146.85561 151.873802 146.85561 147.297561 
C 146.85561 142.72132 145.03745 138.331893 141.801559 135.096002 
C 138.565667 131.860111 134.176241 130.041951 129.6 130.041951 
C 125.023759 130.041951 120.634333 131.860111 117.398441 135.096002 
C 114.16255 138.331893 112.34439 142.72132 112.34439 147.297561 
C 112.34439 151.873802 114.16255 156.263228 117.398441 159.49912 
C 120.634333 162.735011 125.023759 164.553171 129.6 164.553171 
z
" clip-path="url(#p0fc248ebf9)" style="fill: #9aa0a6; fill-opacity: 0.3"/>
   </g>
   <g id="patch_7">
    <path d="M 152.857561 79.77561 
L 146.85561 147.297561 
L 112.34439 147.297561 
L 106.342439 79.77561 
z
" clip-path="url(#p0fc248ebf9)" style="fill: #9aa0a6; fill-opacity: 0.3"/>
   </g>
   <g id="patch_8">
    <path d="M 129.6 161.552195 
C 133.380373 161.552195 137.006421 160.050237 139.679548 157.377109 
C 142.352676 154.703982 143.854634 151.077934 143.854634 147.297561 
C 143.854634 143.517188 142.352676 139.89114 139.679548 137.218013 
C 137.006421 134.544885 133.380373 133.042927 129.6 133.042927 
C 125.819627 133.042927 122.193579 134.544885 119.520452 137.218013 
C 116.847324 139.89114 115.345366 143.517188 115.345366 147.297561 
C 115.345366 151.077934 116.847324 154.703982 119.520452 157.377109 
C 122.193579 160.050237 125.819627 161.552195 129.6 161.552195 
z
" clip-path="url(#p0fc248ebf9)" style="fill: #9aa0a6; fill-opacity: 0.3"/>
   </g>
   <g id="patch_9">
    <path d="M 129.6 227.76122 
C 132.037346 227.76122 134.375192 226.792852 136.098656 225.069388 
C 137.82212 223.345924 138.790488 221.008078 138.790488 218.570732 
C 138.790488 216.133386 137.82212 213.795539 136.098656 212.072075 
C 134.375192 210.348612 132.037346 209.380244 129.6 209.380244 
C 127.162654 209.380244 124.824808 210.348612 123.101344 212.072075 
C 121.37788 213.795539 120.409512 216.133386 120.409512 218.570732 
C 120.409512 221.008078 121.37788 223.345924 123.101344 225.069388 
C 124.824808 226.792852 127.162654 227.76122 129.6 227.76122 
z
" clip-path="url(#p0fc248ebf9)" style="fill: #9aa0a6; fill-opacity: 0.3"/>
   </g>
   <g id="patch_10">
    <path d="M 143.854634 147.297561 
L 138.790488 218.570732 
L 120.409512 218.570732 
L 115.345366 147.297561 
z
" clip-path="url(#p0fc248ebf9)" style="fill: #9aa0a6; fill-opacity: 0.3"/>
   </g>
   <g id="patch_11">
    <path d="M 129.6 227.76122 
C 132.037346 227.76122 134.375192 226.792852 136.098656 225.069388 
C 137.82212 223.345924 138.790488 221.008078 138.790488 218.570732 
C 138.790488 216.133386 137.82212 213.795539 136.098656 212.072075 
C 134.375192 210.348612 132.037346 209.380244 129.6 209.380244 
C 127.162654 209.380244 124.824808 210.348612 123.101344 212.072075 
C 121.37788 213.795539 120.409512 216.133386 120.409512 218.570732 
C 120.409512 221.008078 121.37788 223.345924 123.101344 225.069388 
C 124.824808 226.792852 127.162654 227.76122 129.6 227.76122 
z
" clip-path="url(#p0fc248ebf9)" style="fill: #9aa0a6; fill-opacity: 0.3"/>
   </g>
   <g id="patch_12">
    <path d="M 129.6 290.406585 
C 131.241478 290.406585 132.815946 289.754419 133.976646 288.593719 
C 135.137346 287.433019 135.789512 285.858551 135.789512 284.217073 
C 135.789512 282.575595 135.137346 281.001127 133.976646 279.840427 
C 132.815946 278.679727 131.241478 278.027561 129.6 278.027561 
C 127.958522 278.027561 126.384054 278.679727 125.223354 279.840427 
C 124.062654 281.001127 123.410488 282.575595 123.410488 284.217073 
C 123.410488 285.858551 124.062654 287.433019 125.223354 288.593719 
C 126.384054 289.754419 127.958522 290.406585 129.6 290.406585 
z
" clip-path="url(#p0fc248ebf9)" style="fill: #9aa0a6; fill-opacity: 0.3"/>
   </g>
   <g id="patch_13">
    <path d="M 138.790488 218.570732 
L 135.789512 284.217073 
L 123.410488 284.217073 
L 120.409512 218.570732 
z
" clip-path="url(#p0fc248ebf9)" style="fill: #9aa0a6; fill-opacity: 0.3"/>
   </g>
   <g id="patch_14">
    <path d="M 129.6 289.478159 
C 130.995256 289.478159 132.333554 288.923817 133.320149 287.937222 
C 134.306744 286.950627 134.861085 285.612329 134.861085 284.217073 
C 134.861085 282.821817 134.306744 281.483519 133.320149 280.496924 
C 132.333554 279.510329 130.995256 278.955988 129.6 278.955988 
C 128.204744 278.955988 126.866446 279.510329 125.879851 280.496924 
C 124.893256 281.483519 124.338915 282.821817 124.338915 284.217073 
C 124.338915 285.612329 124.893256 286.950627 125.879851 287.937222 
C 126.866446 288.923817 128.204744 289.478159 129.6 289.478159 
z
" clip-path="url(#p0fc248ebf9)" style="fill: #9aa0a6; fill-opacity: 0.3"/>
   </g>
   <g id="patch_15">
    <path d="M 146.480488 287.621305 
C 147.383301 287.621305 148.249258 287.262614 148.887643 286.624228 
C 149.526028 285.985843 149.88472 285.119886 149.88472 284.217073 
C 149.88472 283.31426 149.526028 282.448303 148.887643 281.809918 
C 148.249258 281.171533 147.383301 280.812841 146.480488 280.812841 
C 145.577675 280.812841 144.711718 281.171533 144.073332 281.809918 
C 143.434947 282.448303 143.076256 283.31426 143.076256 284.217073 
C 143.076256 285.119886 143.434947 285.985843 144.073332 286.624228 
C 144.711718 287.262614 145.577675 287.621305 146.480488 287.621305 
z
" clip-path="url(#p0fc248ebf9)" style="fill: #9aa0a6; fill-opacity: 0.3"/>
   </g>
   <g id="patch_16">
    <path d="M 129.6 278.955988 
L 146.480488 280.812841 
L 146.480488 287.621305 
L 129.6 289.478159 
z
" clip-path="url(#p0fc248ebf9)" style="fill: #9aa0a6; fill-opacity: 0.3"/>
   </g>
   <g id="line2d_2">
    <path d="M 137.102439 57.268293 
L 141.22878 79.77561 
L 140.527479 83.752887 
L 138.508163 87.250446 
L 135.41439 89.846429 
L 131.619317 91.227723 
L 127.580683 91.227723 
L 123.78561 89.846429 
L 120.691837 87.250446 
L 118.672521 83.752887 
L 117.97122 79.77561 
L 122.097561 57.268293 
L 122.550013 54.702307 
L 123.852798 52.445818 
L 125.84878 50.77099 
L 128.297215 49.879833 
L 130.902785 49.879833 
L 133.35122 50.77099 
L 135.347202 52.445818 
L 136.649987 54.702307 
L 137.102439 57.268293 
L 137.102439 57.268293 
" clip-path="url(#p0fc248ebf9)" style="fill: none; stroke: #7d8288; stroke-opacity: 0.85; stroke-width: 1.7; stroke-linecap: round"/>
   </g>
   <g id="line2d_3">
    <path d="M 152.857561 79.77561 
L 146.85561 147.297561 
L 145.814969 153.199327 
L 142.818564 158.389253 
L 138.227805 162.241357 
L 132.596405 164.291019 
L 126.603595 164.291019 
L 120.972195 162.241357 
L 116.381436 158.389253 
L 113.385031 153.199327 
L 112.34439 147.297561 
L 106.342439 79.77561 
L 107.745042 71.821055 
L 111.783675 64.825938 
L 117.97122 59.633971 
L 125.561367 56.871383 
L 133.638633 56.871383 
L 141.22878 59.633971 
L 147.416325 64.825938 
L 151.454958 71.821055 
L 152.857561 79.77561 
L 152.857561 79.77561 
" clip-path="url(#p0fc248ebf9)" style="fill: none; stroke: #7d8288; stroke-opacity: 0.85; stroke-width: 1.7; stroke-linecap: round"/>
   </g>
   <g id="patch_17">
    <path d="M 129.6 89.153659 
C 132.087088 89.153659 134.472645 88.165528 136.231282 86.406892 
C 137.989918 84.648255 138.978049 82.262697 138.978049 79.77561 
C 138.978049 77.288522 137.989918 74.902964 136.231282 73.144328 
C 134.472645 71.385691 132.087088 70.397561 129.6 70.397561 
C 127.112912 70.397561 124.727355 71.385691 122.968718 73.144328 
C 121.210082 74.902964 120.221951 77.288522 120.221951 79.77561 
C 120.221951 82.262697 121.210082 84.648255 122.968718 86.406892 
C 124.727355 88.165528 127.112912 89.153659 129.6 89.153659 
z
" clip-path="url(#p0fc248ebf9)" style="fill: #9aa0a6; fill-opacity: 0.3"/>
   </g>
   <g id="patch_18">
    <path d="M 133.35122 124.227561 
C 135.191664 124.227561 136.956977 123.496344 138.258368 122.194953 
C 139.559759 120.893562 140.290976 119.12825 140.290976 117.287805 
C 140.290976 115.44736 139.559759 113.682047 138.258368 112.380656 
C 136.956977 111.079265 135.191664 110.348049 133.35122 110.348049 
C 131.510775 110.348049 129.745462 111.079265 128.444071 112.380656 
C 127.14268 113.682047 126.411463 115.44736 126.411463 117.287805 
C 126.411463 119.12825 127.14268 120.893562 128.444071 122.194953 
C 129.745462 123.496344 131.510775 124.227561 133.35122 124.227561 
z
" clip-path="url(#p0fc248ebf9)" style="fill: #9aa0a6; fill-opacity: 0.3"/>
   </g>
   <g id="patch_19">
    <path d="M 138.931507 78.842459 
L 140.256535 116.597273 
L 126.445904 117.978336 
L 120.268493 80.70876 
z
" clip-path="url(#p0fc248ebf9)" style="fill: #9aa0a6; fill-opacity: 0.3"/>
   </g>
   <g id="patch_20">
    <path d="M 133.35122 124.227561 
C 135.191664 124.227561 136.956977 123.496344 138.258368 122.194953 
C 139.559759 120.893562 140.290976 119.12825 140.290976 117.287805 
C 140.290976 115.44736 139.559759 113.682047 138.258368 112.380656 
C 136.956977 111.079265 135.191664 110.348049 133.35122 110.348049 
C 131.510775 110.348049 129.745462 111.079265 128.444071 112.380656 
C 127.14268 113.682047 126.411463 115.44736 126.411463 117.287805 
C 126.411463 119.12825 127.14268 120.893562 128.444071 122.194953 
C 129.745462 123.496344 131.510775 124.227561 133.35122 124.227561 
z
" clip-path="url(#p0fc248ebf9)" style="fill: #9aa0a6; fill-opacity: 0.3"/>
   </g>
   <g id="patch_21">
    <path d="M 137.102439 91.216829 
C 138.644433 91.216829 140.123479 90.604188 141.213834 89.513834 
C 142.304188 88.423479 142.916829 86.944433 142.916829 85.402439 
C 142.916829 83.860445 142.304188 82.381399 141.213834 81.291044 
C 140.123479 80.20069 138.644433 79.588049 137.102439 79.588049 
C 135.560445 79.588049 134.081399 80.20069 132.991044 81.291044 
C 131.90069 82.381399 131.288049 83.860445 131.288049 85.402439 
C 131.288049 86.944433 131.90069 88.423479 132.991044 89.513834 
C 134.081399 90.604188 135.560445 91.216829 137.102439 91.216829 
z
" clip-path="url(#p0fc248ebf9)" style="fill: #9aa0a6; fill-opacity: 0.3"/>
   </g>
   <g id="patch_22">
    <path d="M 126.458997 116.476955 
L 131.327874 84.723078 
L 142.877004 86.0818 
L 140.243442 118.098655 
z
" clip-path="url(#p0fc248ebf9)" style="fill: #9aa0a6; fill-opacity: 0.3"/>
   </g>
   <g id="patch_23">
    <path d="M 129.6 288.673522 
C 130.781864 288.673522 131.915481 288.203962 132.751185 287.368258 
C 133.586889 286.532554 134.056449 285.398937 134.056449 284.217073 
C 134.056449 283.035209 133.586889 281.901592 132.751185 281.065888 
C 131.915481 280.230184 130.781864 279.760624 129.6 279.760624 
C 128.418136 279.760624 127.284519 280.230184 126.448815 281.065888 
C 125.613111 281.901592 125.143551 283.035209 125.143551 284.217073 
C 125.143551 285.398937 125.613111 286.532554 126.448815 287.368258 
C 127.284519 288.203962 128.418136 288.673522 129.6 288.673522 
z
" clip-path="url(#p0fc248ebf9)" style="fill: #9aa0a6; fill-opacity: 0.3; stroke: #7d8288; stroke-opacity: 0.85; stroke-width: 1.3; stroke-linejoin: miter"/>
   </g>
   <g id="patch_24">
    <path d="M 137.102439 91.591951 
C 138.743917 91.591951 140.318385 90.939785 141.479085 89.779085 
C 142.639785 88.618385 143.291951 87.043917 143.291951 85.402439 
C 143.291951 83.760961 142.639785 82.186493 141.479085 81.025793 
C 140.318385 79.865093 138.743917 79.212927 137.102439 79.212927 
C 135.460961 79.212927 133.886493 79.865093 132.725793 81.025793 
C 131.565093 82.186493 130.912927 83.760961 130.912927 85.402439 
C 130.912927 87.043917 131.565093 88.618385 132.725793 89.779085 
C 133.886493 90.939785 135.460961 91.591951 137.102439 91.591951 
z
" clip-path="url(#p0fc248ebf9)" style="fill: #9aa0a6; fill-opacity: 0.3; stroke: #7d8288; stroke-opacity: 0.85; stroke-width: 1.6; stroke-linejoin: miter"/>
   </g>
   <g id="line2d_4">
    <path d="M 143.854634 147.297561 
L 138.790488 218.570732 
L 138.236234 221.714064 
L 136.640322 224.478263 
L 134.195244 226.529928 
L 131.195911 227.621595 
L 128.004089 227.621595 
L 125.004756 226.529928 
L 122.559678 224.478263 
L 120.963766 221.714064 
L 120.409512 218.570732 
L 115.345366 147.297561 
L 116.205025 142.422189 
L 118.680317 138.134859 
L 122.472683 134.952686 
L 127.124709 133.259487 
L 132.075291 133.259487 
L 136.727317 134.952686 
L 140.519683 138.134859 
L 142.994975 142.422189 
L 143.854634 147.297561 
L 143.854634 147.297561 
" clip-path="url(#p0fc248ebf9)" style="fill: none; stroke: #7d8288; stroke-opacity: 0.85; stroke-width: 1.7; stroke-linecap: round"/>
   </g>
   <g id="line2d_5">
    <path d="M 138.790488 218.570732 
L 135.789512 284.217073 
L 135.416239 286.334011 
L 134.341441 288.195615 
L 132.694756 289.577348 
L 130.674798 290.312553 
L 128.525202 290.312553 
L 126.505244 289.577348 
L 124.858559 288.195615 
L 123.783761 286.334011 
L 123.410488 284.217073 
L 120.409512 218.570732 
L 120.963766 215.4274 
L 122.559678 212.6632 
L 125.004756 210.611536 
L 128.004089 209.519868 
L 131.195911 209.519868 
L 134.195244 210.611536 
L 136.640322 212.6632 
L 138.236234 215.4274 
L 138.790488 218.570732 
L 138.790488 218.570732 
" clip-path="url(#p0fc248ebf9)" style="fill: none; stroke: #7d8288; stroke-opacity: 0.85; stroke-width: 1.7; stroke-linecap: round"/>
   </g>
   <g id="line2d_6">
    <path d="M 129.6 278.955988 
L 146.480488 280.812841 
L 147.644804 281.018142 
L 148.668686 281.60928 
L 149.428639 282.514957 
L 149.833002 283.625935 
L 149.833002 284.808212 
L 149.428639 285.919189 
L 148.668686 286.824866 
L 147.644804 287.416005 
L 146.480488 287.621305 
L 129.6 289.478159 
L 127.800603 289.160876 
L 126.21824 288.247298 
L 125.043766 286.847616 
L 124.418842 285.130651 
L 124.418842 283.303495 
L 125.043766 281.58653 
L 126.21824 280.186848 
L 127.800603 279.27327 
L 129.6 278.955988 
L 129.6 278.955988 
" clip-path="url(#p0fc248ebf9)" style="fill: none; stroke: #7d8288; stroke-opacity: 0.85; stroke-width: 1.5; stroke-linecap: round"/>
   </g>
   <g id="line2d_7">
    <path d="M 138.931507 78.842459 
L 140.256535 116.597273 
L 140.076269 119.000674 
L 139.084863 121.197478 
L 137.401895 122.922718 
L 135.230356 123.968303 
L 132.832165 124.208123 
L 130.49658 123.613249 
L 128.505306 122.255434 
L 127.098521 120.298449 
L 126.445904 117.978336 
L 120.268493 80.70876 
L 120.512095 77.460921 
L 121.851833 74.492267 
L 124.126114 72.160863 
L 127.060627 70.747909 
L 130.301425 70.423829 
L 133.457621 71.227712 
L 136.148532 73.062598 
L 138.049592 75.707171 
L 138.931507 78.842459 
L 138.931507 78.842459 
" clip-path="url(#p0fc248ebf9)" style="fill: none; stroke: #7d8288; stroke-opacity: 0.85; stroke-width: 1.7; stroke-linecap: round"/>
   </g>
   <g id="line2d_8">
    <path d="M 126.458997 116.476955 
L 131.327874 84.723078 
L 131.908478 82.789031 
L 133.11555 81.1702 
L 134.8035 80.061839 
L 136.768736 79.597633 
L 138.774221 79.833572 
L 140.578065 80.741199 
L 141.962697 82.21104 
L 142.76111 84.065812 
L 142.877004 86.0818 
L 140.243442 118.098655 
L 139.550464 120.407033 
L 138.109764 122.339187 
L 136.095115 123.66207 
L 133.74951 124.216122 
L 131.355866 123.934517 
L 129.202892 122.85122 
L 127.550266 121.096893 
L 126.597322 118.883134 
L 126.458997 116.476955 
L 126.458997 116.476955 
" clip-path="url(#p0fc248ebf9)" style="fill: none; stroke: #7d8288; stroke-opacity: 0.85; stroke-width: 1.7; stroke-linecap: round"/>
   </g>
   <g id="patch_25">
    <path d="M 129.6 72.273171 
C 133.57934 72.273171 137.396233 70.692162 140.210051 67.878344 
C 143.023869 65.064525 144.604878 61.247633 144.604878 57.268293 
C 144.604878 53.288953 143.023869 49.47206 140.210051 46.658242 
C 137.396233 43.844423 133.57934 42.263415 129.6 42.263415 
C 125.62066 42.263415 121.803767 43.844423 118.989949 46.658242 
C 116.176131 49.47206 114.595122 53.288953 114.595122 57.268293 
C 114.595122 61.247633 116.176131 65.064525 118.989949 67.878344 
C 121.803767 70.692162 125.62066 72.273171 129.6 72.273171 
z
" clip-path="url(#p0fc248ebf9)" style="fill: #9aa0a6; fill-opacity: 0.3; stroke: #7d8288; stroke-opacity: 0.85; stroke-width: 1.8; stroke-linejoin: miter"/>
   </g>
   <g id="patch_26">
    <path d="M 129.6 64.770732 
C 131.58967 64.770732 133.498116 63.980227 134.905026 62.573318 
C 136.311935 61.166409 137.102439 59.257963 137.102439 57.268293 
C 137.102439 55.278623 136.311935 53.370176 134.905026 51.963267 
C 133.498116 50.556358 131.58967 49.765854 129.6 49.765854 
C 127.61033 49.765854 125.701884 50.556358 124.294974 51.963267 
C 122.888065 53.370176 122.097561 55.278623 122.097561 57.268293 
C 122.097561 59.257963 122.888065 61.166409 124.294974 62.573318 
C 125.701884 63.980227 127.61033 64.770732 129.6 64.770732 
z
" clip-path="url(#p0fc248ebf9)" style="fill: #2c3e50"/>
   </g>
   <g id="patch_27">
    <path d="M 129.6 91.40439 
C 132.683989 91.40439 135.64208 90.179109 137.82279 87.998399 
C 140.003499 85.81769 141.22878 82.859598 141.22878 79.77561 
C 141.22878 76.691621 140.003499 73.733529 137.82279 71.55282 
C 135.64208 69.372111 132.683989 68.146829 129.6 68.146829 
C 126.516011 68.146829 123.55792 69.372111 121.37721 71.55282 
C 119.196501 73.733529 117.97122 76.691621 117.97122 79.77561 
C 117.97122 82.859598 119.196501 85.81769 121.37721 87.998399 
C 123.55792 90.179109 126.516011 91.40439 129.6 91.40439 
z
" clip-path="url(#p0fc248ebf9)" style="fill: #2c3e50"/>
   </g>
   <g id="patch_28">
    <path d="M 137.102439 57.268293 
L 141.22878 79.77561 
L 117.97122 79.77561 
L 122.097561 57.268293 
z
" clip-path="url(#p0fc248ebf9)" style="fill: #2c3e50"/>
   </g>
   <g id="patch_29">
    <path d="M 129.6 103.033171 
C 135.767977 103.033171 141.684161 100.582607 146.045579 96.221189 
C 150.406998 91.85977 152.857561 85.943587 152.857561 79.77561 
C 152.857561 73.607632 150.406998 67.691449 146.045579 63.330031 
C 141.684161 58.968612 135.767977 56.518049 129.6 56.518049 
C 123.432023 56.518049 117.515839 58.968612 113.154421 63.330031 
C 108.793002 67.691449 106.342439 73.607632 106.342439 79.77561 
C 106.342439 85.943587 108.793002 91.85977 113.154421 96.221189 
C 117.515839 100.582607 123.432023 103.033171 129.6 103.033171 
z
" clip-path="url(#p0fc248ebf9)" style="fill: #2c3e50"/>
   </g>
   <g id="patch_30">
    <path d="M 129.6 164.553171 
C 134.176241 164.553171 138.565667 162.735011 141.801559 159.49912 
C 145.03745 156.263228 146.85561 151.873802 146.85561 147.297561 
C 146.85561 142.72132 145.03745 138.331893 141.801559 135.096002 
C 138.565667 131.860111 134.176241 130.041951 129.6 130.041951 
C 125.023759 130.041951 120.634333 131.860111 117.398441 135.096002 
C 114.16255 138.331893 112.34439 142.72132 112.34439 147.297561 
C 112.34439 151.873802 114.16255 156.263228 117.398441 159.49912 
C 120.634333 162.735011 125.023759 164.553171 129.6 164.553171 
z
" clip-path="url(#p0fc248ebf9)" style="fill: #2c3e50"/>
   </g>
   <g id="patch_31">
    <path d="M 152.857561 79.77561 
L 146.85561 147.297561 
L 112.34439 147.297561 
L 106.342439 79.77561 
z
" clip-path="url(#p0fc248ebf9)" style="fill: #2c3e50"/>
   </g>
   <g id="patch_32">
    <path d="M 129.6 161.552195 
C 133.380373 161.552195 137.006421 160.050237 139.679548 157.377109 
C 142.352676 154.703982 143.854634 151.077934 143.854634 147.297561 
C 143.854634 143.517188 142.352676 139.89114 139.679548 137.218013 
C 137.006421 134.544885 133.380373 133.042927 129.6 133.042927 
C 125.819627 133.042927 122.193579 134.544885 119.520452 137.218013 
C 116.847324 139.89114 115.345366 143.517188 115.345366 147.297561 
C 115.345366 151.077934 116.847324 154.703982 119.520452 157.377109 
C 122.193579 160.050237 125.819627 161.552195 129.6 161.552195 
z
" clip-path="url(#p0fc248ebf9)" style="fill: #3c3f42"/>
   </g>
   <g id="patch_33">
    <path d="M 129.6 227.76122 
C 132.037346 227.76122 134.375192 226.792852 136.098656 225.069388 
C 137.82212 223.345924 138.790488 221.008078 138.790488 218.570732 
C 138.790488 216.133386 137.82212 213.795539 136.098656 212.072075 
C 134.375192 210.348612 132.037346 209.380244 129.6 209.380244 
C 127.162654 209.380244 124.824808 210.348612 123.101344 212.072075 
C 121.37788 213.795539 120.409512 216.133386 120.409512 218.570732 
C 120.409512 221.008078 121.37788 223.345924 123.101344 225.069388 
C 124.824808 226.792852 127.162654 227.76122 129.6 227.76122 
z
" clip-path="url(#p0fc248ebf9)" style="fill: #3c3f42"/>
   </g>
   <g id="patch_34">
    <path d="M 143.854634 147.297561 
L 138.790488 218.570732 
L 120.409512 218.570732 
L 115.345366 147.297561 
z
" clip-path="url(#p0fc248ebf9)" style="fill: #3c3f42"/>
   </g>
   <g id="patch_35">
    <path d="M 129.6 227.76122 
C 132.037346 227.76122 134.375192 226.792852 136.098656 225.069388 
C 137.82212 223.345924 138.790488 221.008078 138.790488 218.570732 
C 138.790488 216.133386 137.82212 213.795539 136.098656 212.072075 
C 134.375192 210.348612 132.037346 209.380244 129.6 209.380244 
C 127.162654 209.380244 124.824808 210.348612 123.101344 212.072075 
C 121.37788 213.795539 120.409512 216.133386 120.409512 218.570732 
C 120.409512 221.008078 121.37788 223.345924 123.101344 225.069388 
C 124.824808 226.792852 127.162654 227.76122 129.6 227.76122 
z
" clip-path="url(#p0fc248ebf9)" style="fill: #3c3f42"/>
   </g>
   <g id="patch_36">
    <path d="M 129.6 290.406585 
C 131.241478 290.406585 132.815946 289.754419 133.976646 288.593719 
C 135.137346 287.433019 135.789512 285.858551 135.789512 284.217073 
C 135.789512 282.575595 135.137346 281.001127 133.976646 279.840427 
C 132.815946 278.679727 131.241478 278.027561 129.6 278.027561 
C 127.958522 278.027561 126.384054 278.679727 125.223354 279.840427 
C 124.062654 281.001127 123.410488 282.575595 123.410488 284.217073 
C 123.410488 285.858551 124.062654 287.433019 125.223354 288.593719 
C 126.384054 289.754419 127.958522 290.406585 129.6 290.406585 
z
" clip-path="url(#p0fc248ebf9)" style="fill: #3c3f42"/>
   </g>
   <g id="patch_37">
    <path d="M 138.790488 218.570732 
L 135.789512 284.217073 
L 123.410488 284.217073 
L 120.409512 218.570732 
z
" clip-path="url(#p0fc248ebf9)" style="fill: #3c3f42"/>
   </g>
   <g id="patch_38">
    <path d="M 129.6 289.478159 
C 130.995256 289.478159 132.333554 288.923817 133.320149 287.937222 
C 134.306744 286.950627 134.861085 285.612329 134.861085 284.217073 
C 134.861085 282.821817 134.306744 281.483519 133.320149 280.496924 
C 132.333554 279.510329 130.995256 278.955988 129.6 278.955988 
C 128.204744 278.955988 126.866446 279.510329 125.879851 280.496924 
C 124.893256 281.483519 124.338915 282.821817 124.338915 284.217073 
C 124.338915 285.612329 124.893256 286.950627 125.879851 287.937222 
C 126.866446 288.923817 128.204744 289.478159 129.6 289.478159 
z
" clip-path="url(#p0fc248ebf9)" style="fill: #1b1b1b"/>
   </g>
   <g id="patch_39">
    <path d="M 146.480488 287.621305 
C 147.383301 287.621305 148.249258 287.262614 148.887643 286.624228 
C 149.526028 285.985843 149.88472 285.119886 149.88472 284.217073 
C 149.88472 283.31426 149.526028 282.448303 148.887643 281.809918 
C 148.249258 281.171533 147.383301 280.812841 146.480488 280.812841 
C 145.577675 280.812841 144.711718 281.171533 144.073332 281.809918 
C 143.434947 282.448303 143.076256 283.31426 143.076256 284.217073 
C 143.076256 285.119886 143.434947 285.985843 144.073332 286.624228 
C 144.711718 287.262614 145.577675 287.621305 146.480488 287.621305 
z
" clip-path="url(#p0fc248ebf9)" style="fill: #1b1b1b"/>
   </g>
   <g id="patch_40">
    <path d="M 129.6 278.955988 
L 146.480488 280.812841 
L 146.480488 287.621305 
L 129.6 289.478159 
z
" clip-path="url(#p0fc248ebf9)" style="fill: #1b1b1b"/>
   </g>
   <g id="line2d_9">
    <path d="M 137.102439 57.268293 
L 141.22878 79.77561 
L 140.527479 83.752887 
L 138.508163 87.250446 
L 135.41439 89.846429 
L 131.619317 91.227723 
L 127.580683 91.227723 
L 123.78561 89.846429 
L 120.691837 87.250446 
L 118.672521 83.752887 
L 117.97122 79.77561 
L 122.097561 57.268293 
L 122.550013 54.702307 
L 123.852798 52.445818 
L 125.84878 50.77099 
L 128.297215 49.879833 
L 130.902785 49.879833 
L 133.35122 50.77099 
L 135.347202 52.445818 
L 136.649987 54.702307 
L 137.102439 57.268293 
L 137.102439 57.268293 
" clip-path="url(#p0fc248ebf9)" style="fill: none; stroke: #1d2a36; stroke-width: 1.7; stroke-linecap: round"/>
   </g>
   <g id="line2d_10">
    <path d="M 152.857561 79.77561 
L 146.85561 147.297561 
L 145.814969 153.199327 
L 142.818564 158.389253 
L 138.227805 162.241357 
L 132.596405 164.291019 
L 126.603595 164.291019 
L 120.972195 162.241357 
L 116.381436 158.389253 
L 113.385031 153.199327 
L 112.34439 147.297561 
L 106.342439 79.77561 
L 107.745042 71.821055 
L 111.783675 64.825938 
L 117.97122 59.633971 
L 125.561367 56.871383 
L 133.638633 56.871383 
L 141.22878 59.633971 
L 147.416325 64.825938 
L 151.454958 71.821055 
L 152.857561 79.77561 
L 152.857561 79.77561 
" clip-path="url(#p0fc248ebf9)" style="fill: none; stroke: #1d2a36; stroke-width: 1.7; stroke-linecap: round"/>
   </g>
   <g id="patch_41">
    <path d="M 129.6 89.153659 
C 132.087088 89.153659 134.472645 88.165528 136.231282 86.406892 
C 137.989918 84.648255 138.978049 82.262697 138.978049 79.77561 
C 138.978049 77.288522 137.989918 74.902964 136.231282 73.144328 
C 134.472645 71.385691 132.087088 70.397561 129.6 70.397561 
C 127.112912 70.397561 124.727355 71.385691 122.968718 73.144328 
C 121.210082 74.902964 120.221951 77.288522 120.221951 79.77561 
C 120.221951 82.262697 121.210082 84.648255 122.968718 86.406892 
C 124.727355 88.165528 127.112912 89.153659 129.6 89.153659 
z
" clip-path="url(#p0fc248ebf9)" style="fill: #2c3e50"/>
   </g>
   <g id="patch_42">
    <path d="M 133.35122 124.227561 
C 135.191664 124.227561 136.956977 123.496344 138.258368 122.194953 
C 139.559759 120.893562 140.290976 119.12825 140.290976 117.287805 
C 140.290976 115.44736 139.559759 113.682047 138.258368 112.380656 
C 136.956977 111.079265 135.191664 110.348049 133.35122 110.348049 
C 131.510775 110.348049 129.745462 111.079265 128.444071 112.380656 
C 127.14268 113.682047 126.411463 115.44736 126.411463 117.287805 
C 126.411463 119.12825 127.14268 120.893562 128.444071 122.194953 
C 129.745462 123.496344 131.510775 124.227561 133.35122 124.227561 
z
" clip-path="url(#p0fc248ebf9)" style="fill: #2c3e50"/>
   </g>
   <g id="patch_43">
    <path d="M 138.931507 78.842459 
L 140.256535 116.597273 
L 126.445904 117.978336 
L 120.268493 80.70876 
z
" clip-path="url(#p0fc248ebf9)" style="fill: #2c3e50"/>
   </g>
   <g id="patch_44">
    <path d="M 133.35122 124.227561 
C 135.191664 124.227561 136.956977 123.496344 138.258368 122.194953 
C 139.559759 120.893562 140.290976 119.12825 140.290976 117.287805 
C 140.290976 115.44736 139.559759 113.682047 138.258368 112.380656 
C 136.956977 111.079265 135.191664 110.348049 133.35122 110.348049 
C 131.510775 110.348049 129.745462 111.079265 128.444071 112.380656 
C 127.14268 113.682047 126.411463 115.44736 126.411463 117.287805 
C 126.411463 119.12825 127.14268 120.893562 128.444071 122.194953 
C 129.745462 123.496344 131.510775 124.227561 133.35122 124.227561 
z
" clip-path="url(#p0fc248ebf9)" style="fill: #2c3e50"/>
   </g>
   <g id="patch_45">
    <path d="M 137.102439 158.73878 
C 138.644433 158.73878 140.123479 158.12614 141.213834 157.035785 
C 142.304188 155.94543 142.916829 154.466385 142.916829 152.92439 
C 142.916829 151.382396 142.304188 149.90335 141.213834 148.812995 
C 140.123479 147.722641 138.644433 147.11 137.102439 147.11 
C 135.560445 147.11 134.081399 147.722641 132.991044 148.812995 
C 131.90069 149.90335 131.288049 151.382396 131.288049 152.92439 
C 131.288049 154.466385 131.90069 155.94543 132.991044 157.035785 
C 134.081399 158.12614 135.560445 158.73878 137.102439 158.73878 
z
" clip-path="url(#p0fc248ebf9)" style="fill: #2c3e50"/>
   </g>
   <g id="patch_46">
    <path d="M 140.252845 116.561318 
L 142.884882 152.315712 
L 131.319996 153.533068 
L 126.449594 118.014292 
z
" clip-path="url(#p0fc248ebf9)" style="fill: #2c3e50"/>
   </g>
   <g id="patch_47">
    <path d="M 129.6 288.673522 
C 130.781864 288.673522 131.915481 288.203962 132.751185 287.368258 
C 133.586889 286.532554 134.056449 285.398937 134.056449 284.217073 
C 134.056449 283.035209 133.586889 281.901592 132.751185 281.065888 
C 131.915481 280.230184 130.781864 279.760624 129.6 279.760624 
C 128.418136 279.760624 127.284519 280.230184 126.448815 281.065888 
C 125.613111 281.901592 125.143551 283.035209 125.143551 284.217073 
C 125.143551 285.398937 125.613111 286.532554 126.448815 287.368258 
C 127.284519 288.203962 128.418136 288.673522 129.6 288.673522 
z
" clip-path="url(#p0fc248ebf9)" style="fill: #1b1b1b; stroke: #121212; stroke-width: 1.3; stroke-linejoin: miter"/>
   </g>
   <g id="patch_48">
    <path d="M 137.102439 159.113902 
C 138.743917 159.113902 140.318385 158.461736 141.479085 157.301036 
C 142.639785 156.140336 143.291951 154.565868 143.291951 152.92439 
C 143.291951 151.282912 142.639785 149.708444 141.479085 148.547744 
C 140.318385 147.387044 138.743917 146.734878 137.102439 146.734878 
C 135.460961 146.734878 133.886493 147.387044 132.725793 148.547744 
C 131.565093 149.708444 130.912927 151.282912 130.912927 152.92439 
C 130.912927 154.565868 131.565093 156.140336 132.725793 157.301036 
C 133.886493 158.461736 135.460961 159.113902 137.102439 159.113902 
z
" clip-path="url(#p0fc248ebf9)" style="fill: #f2e0c9; stroke: #a49888; stroke-width: 1.6; stroke-linejoin: miter"/>
   </g>
   <g id="line2d_11">
    <path d="M 143.854634 147.297561 
L 138.790488 218.570732 
L 138.236234 221.714064 
L 136.640322 224.478263 
L 134.195244 226.529928 
L 131.195911 227.621595 
L 128.004089 227.621595 
L 125.004756 226.529928 
L 122.559678 224.478263 
L 120.963766 221.714064 
L 120.409512 218.570732 
L 115.345366 147.297561 
L 116.205025 142.422189 
L 118.680317 138.134859 
L 122.472683 134.952686 
L 127.124709 133.259487 
L 132.075291 133.259487 
L 136.727317 134.952686 
L 140.519683 138.134859 
L 142.994975 142.422189 
L 143.854634 147.297561 
L 143.854634 147.297561 
" clip-path="url(#p0fc248ebf9)" style="fill: none; stroke: #282a2c; stroke-width: 1.7; stroke-linecap: round"/>
   </g>
   <g id="line2d_12">
    <path d="M 138.790488 218.570732 
L 135.789512 284.217073 
L 135.416239 286.334011 
L 134.341441 288.195615 
L 132.694756 289.577348 
L 130.674798 290.312553 
L 128.525202 290.312553 
L 126.505244 289.577348 
L 124.858559 288.195615 
L 123.783761 286.334011 
L 123.410488 284.217073 
L 120.409512 218.570732 
L 120.963766 215.4274 
L 122.559678 212.6632 
L 125.004756 210.611536 
L 128.004089 209.519868 
L 131.195911 209.519868 
L 134.195244 210.611536 
L 136.640322 212.6632 
L 138.236234 215.4274 
L 138.790488 218.570732 
L 138.790488 218.570732 
" clip-path="url(#p0fc248ebf9)" style="fill: none; stroke: #282a2c; stroke-width: 1.7; stroke-linecap: round"/>
   </g>
   <g id="line2d_13">
    <path d="M 129.6 278.955988 
L 146.480488 280.812841 
L 147.644804 281.018142 
L 148.668686 281.60928 
L 149.428639 282.514957 
L 149.833002 283.625935 
L 149.833002 284.808212 
L 149.428639 285.919189 
L 148.668686 286.824866 
L 147.644804 287.416005 
L 146.480488 287.621305 
L 129.6 289.478159 
L 127.800603 289.160876 
L 126.21824 288.247298 
L 125.043766 286.847616 
L 124.418842 285.130651 
L 124.418842 283.303495 
L 125.043766 281.58653 
L 126.21824 280.186848 
L 127.800603 279.27327 
L 129.6 278.955988 
L 129.6 278.955988 
" clip-path="url(#p0fc248ebf9)" style="fill: none; stroke: #121212; stroke-width: 1.5; stroke-linecap: round"/>
   </g>
   <g id="line2d_14">
    <path d="M 138.931507 78.842459 
L 140.256535 116.597273 
L 140.076269 119.000674 
L 139.084863 121.197478 
L 137.401895 122.922718 
L 135.230356 123.968303 
L 132.832165 124.208123 
L 130.49658 123.613249 
L 128.505306 122.255434 
L 127.098521 120.298449 
L 126.445904 117.978336 
L 120.268493 80.70876 
L 120.512095 77.460921 
L 121.851833 74.492267 
L 124.126114 72.160863 
L 127.060627 70.747909 
L 130.301425 70.423829 
L 133.457621 71.227712 
L 136.148532 73.062598 
L 138.049592 75.707171 
L 138.931507 78.842459 
L 138.931507 78.842459 
" clip-path="url(#p0fc248ebf9)" style="fill: none; stroke: #1d2a36; stroke-width: 1.7; stroke-linecap: round"/>
   </g>
   <g id="line2d_15">
    <path d="M 140.252845 116.561318 
L 142.884882 152.315712 
L 142.744338 154.330132 
L 141.923298 156.174998 
L 140.520791 157.627794 
L 138.705981 158.513289 
L 136.697759 158.724681 
L 134.738348 158.236472 
L 133.064082 157.107547 
L 131.8769 155.474073 
L 131.319996 153.533068 
L 126.449594 118.014292 
L 126.61734 115.609984 
L 127.597291 113.408047 
L 129.271251 111.674065 
L 131.437315 110.617184 
L 133.834224 110.364878 
L 136.172876 110.947579 
L 138.171194 112.295004 
L 139.588153 114.244636 
L 140.252845 116.561318 
L 140.252845 116.561318 
" clip-path="url(#p0fc248ebf9)" style="fill: none; stroke: #1d2a36; stroke-width: 1.7; stroke-linecap: round"/>
   </g>
   <g id="patch_49">
    <path d="M 129.6 72.273171 
C 133.57934 72.273171 137.396233 70.692162 140.210051 67.878344 
C 143.023869 65.064525 144.604878 61.247633 144.604878 57.268293 
C 144.604878 53.288953 143.023869 49.47206 140.210051 46.658242 
C 137.396233 43.844423 133.57934 42.263415 129.6 42.263415 
C 125.62066 42.263415 121.803767 43.844423 118.989949 46.658242 
C 116.176131 49.47206 114.595122 53.288953 114.595122 57.268293 
C 114.595122 61.247633 116.176131 65.064525 118.989949 67.878344 
C 121.803767 70.692162 125.62066 72.273171 129.6 72.273171 
z
" clip-path="url(#p0fc248ebf9)" style="fill: #f2e0c9; stroke: #a49888; stroke-width: 1.8; stroke-linejoin: miter"/>
   </g>
   <g id="line2d_16">
    <path d="M 134.493568 85.700596 
L 139.385117 82.250094 
L 133.841182 79.992218 
L 138.732731 76.541716 
L 133.188796 74.283841 
L 138.080345 70.833338 
L 132.53641 68.575463 
L 137.427959 65.124961 
L 131.884024 62.867086 
L 136.775573 59.416583 
L 131.231638 57.158708 
L 136.123187 53.708206 
L 130.579252 51.450331 
L 135.470801 47.999828 
L 129.926866 45.741953 
L 134.818415 42.291451 
L 129.27448 40.033576 
L 134.166029 36.583073 
L 128.622094 34.325198 
L 133.513643 30.874696 
L 127.969708 28.616821 
L 132.861257 25.166318 
L 127.317322 22.908443 
L 132.208871 19.457941 
" clip-path="url(#p0fc248ebf9)" style="fill: none; stroke: #c0392b; stroke-width: 3.2; stroke-linecap: round"/>
   </g>
   <g id="line2d_17">
    <path d="M 130.727306 117.388725 
L 135.812037 112.946376 
L 130.401113 108.907707 
L 135.485844 104.465358 
L 130.07492 100.426689 
L 135.159651 95.98434 
L 129.748727 91.945671 
L 134.833458 87.503322 
L 129.422534 83.464653 
L 134.507265 79.022304 
L 129.096341 74.983634 
L 134.181072 70.541286 
L 128.770148 66.502616 
L 133.854879 62.060268 
L 128.443955 58.021598 
L 133.528686 53.57925 
L 128.117762 49.54058 
L 133.202493 45.098232 
L 127.791569 41.059562 
L 132.8763 36.617214 
L 127.465376 32.578544 
L 132.550107 28.136196 
L 127.139183 24.097526 
L 132.223914 19.655178 
" clip-path="url(#p0fc248ebf9)" style="fill: none; stroke: #c0392b; stroke-width: 3.2; stroke-linecap: round"/>
   </g>
   <g id="patch_50">
    <path d="M 125.098537 24.257561 
L 134.101463 24.257561 
L 134.101463 15.254634 
L 125.098537 15.254634 
z
" clip-path="url(#p0fc248ebf9)" style="fill: #7a7a7a; stroke: #7a7a7a; stroke-linejoin: miter"/>
   </g>
   <g id="patch_51">
    <path d="M 136.092862 87.129227 
Q 117.854291 119.165416 134.878099 149.064127 
" clip-path="url(#p0fc248ebf9)" style="fill: none; stroke-dasharray: 2.2,0; stroke-dashoffset: 0; stroke: #c0392b; stroke-width: 2.2; stroke-linecap: round"/>
    <path d="M 134.540452 142.812248 
L 134.878099 149.064127 
L 129.674007 145.583117 
z
" clip-path="url(#p0fc248ebf9)" style="fill: #c0392b; stroke-dasharray: 2.2,0; stroke-dashoffset: 0; stroke: #c0392b; stroke-width: 2.2; stroke-linecap: round"/>
   </g>
  </g>
 </g>
 <defs>
  <clipPath id="p0fc248ebf9">
   <rect x="5.809756" y="1" width="247.580488" height="307.6"/>
  </clipPath>
 </defs>
</svg>
