<?xml version="1.0" encoding="utf-8" standalone="no"?>
<!DOCTYPE svg PUBLIC "-//W3C//DTD SVG 1.1//EN"
  "http://www.w3.org/Graphics/SVG/1.1/DTD/svg11.dtd">
<svg xmlns:xlink="http://www.w3.org/1999/xlink" width="259.2pt" height="309.6pt" viewBox="0 0 259.2 309.6" xmlns="http://www.w3.org/2000/svg" version="1.1">
 <metadata>
  <rdf:RDF xmlns:dc="http://purl.org/dc/elements/1.1/" xmlns:cc="http://creativecommons.org/ns#" xmlns:rdf="http://www.w3.org/1999/02/22-rdf-syntax-ns#">
   <cc:Work>
    <dc:type rdf:resource="http://purl.org/dc/dcmitype/StillImage"/>
    <dc:date>2026-07-10T23:04:56.783382</dc:date>
    <dc:format>image/svg+xml</dc:format>
    <dc:creator>
     <cc:Agent>
      <dc:title>Matplotlib v3.10.8, https://matplotlib.org/</dc:title>
     </cc:Agent>
    </dc:creator>
   </cc:Work>
  </rdf:RDF>
 </metadata>
 <defs>
  <style type="text/css">*{stroke-linejoin: round; stroke-linecap: butt}</style>
 </defs>
 <g id="figure_1">
  <g id="patch_1">
   <path d="M 0 309.6 
L 259.2 309.6 
L 259.2 0 
L 0 0 
L 0 309.6 
z
" style="fill: none"/>
  </g>
  <g id="axes_1">
   <g id="line2d_1">
    <path d="M 17.063415 299.221951 
L 242.136585 299.221951 
" clip-path="url(#pd2bb594431)" style="fill: none; stroke: #c3c3c3; stroke-width: 3; stroke-linecap: round"/>
   </g>
   <g id="patch_2">
    <path d="M 125.84878 66.646341 
C 127.838451 66.646341 129.746897 65.855837 131.153806 64.448928 
C 132.560715 63.042019 133.35122 61.133573 133.35122 59.143902 
C 133.35122 57.154232 132.560715 55.245786 131.153806 53.838877 
C 129.746897 52.431968 127.838451 51.641463 125.84878 51.641463 
C 123.85911 51.641463 121.950664 52.431968 120.543755 53.838877 
C 119.136846 55.245786 118.346341 57.154232 118.346341 59.143902 
C 118.346341 61.133573 119.136846 63.042019 120.543755 64.448928 
C 121.950664 65.855837 123.85911 66.646341 125.84878 66.646341 
z
" clip-path="url(#pd2bb594431)" style="fill: #9aa0a6; fill-opacity: 0.3"/>
   </g>
   <g id="patch_3">
    <path d="M 125.84878 93.28 
C 128.932769 93.28 131.890861 92.054718 134.07157 89.874009 
C 136.252279 87.6933 137.477561 84.735208 137.477561 81.65122 
C 137.477561 78.567231 136.252279 75.609139 134.07157 73.42843 
C 131.890861 71.247721 128.932769 70.022439 125.84878 70.022439 
C 122.764792 70.022439 119.8067 71.247721 117.625991 73.42843 
C 115.445282 75.609139 114.22 78.567231 114.22 81.65122 
C 114.22 84.735208 115.445282 87.6933 117.625991 89.874009 
C 119.8067 92.054718 122.764792 93.28 125.84878 93.28 
z
" clip-path="url(#pd2bb594431)" style="fill: #9aa0a6; fill-opacity: 0.3"/>
   </g>
   <g id="patch_4">
    <path d="M 133.35122 59.143902 
L 137.477561 81.65122 
L 114.22 81.65122 
L 118.346341 59.143902 
z
" clip-path="url(#pd2bb594431)" style="fill: #9aa0a6; fill-opacity: 0.3"/>
   </g>
   <g id="patch_5">
    <path d="M 125.84878 104.90878 
C 132.016758 104.90878 137.932941 102.458217 142.29436 98.096799 
C 146.655778 93.73538 149.106341 87.819197 149.106341 81.65122 
C 149.106341 75.483242 146.655778 69.567059 142.29436 65.20564 
C 137.932941 60.844222 132.016758 58.393659 125.84878 58.393659 
C 119.680803 58.393659 113.76462 60.844222 109.403201 65.20564 
C 105.041783 69.567059 102.59122 75.483242 102.59122 81.65122 
C 102.59122 87.819197 105.041783 93.73538 109.403201 98.096799 
C 113.76462 102.458217 119.680803 104.90878 125.84878 104.90878 
z
" clip-path="url(#pd2bb594431)" style="fill: #9aa0a6; fill-opacity: 0.3"/>
   </g>
   <g id="patch_6">
    <path d="M 125.84878 166.42878 
C 130.425022 166.42878 134.814448 164.610621 138.050339 161.374729 
C 141.28623 158.138838 143.10439 153.749412 143.10439 149.173171 
C 143.10439 144.59693 141.28623 140.207503 138.050339 136.971612 
C 134.814448 133.735721 130.425022 131.917561 125.84878 131.917561 
C 121.272539 131.917561 116.883113 133.735721 113.647222 136.971612 
C 110.411331 140.207503 108.593171 144.59693 108.593171 149.173171 
C 108.593171 153.749412 110.411331 158.138838 113.647222 161.374729 
C 116.883113 164.610621 121.272539 166.42878 125.84878 166.42878 
z
" clip-path="url(#pd2bb594431)" style="fill: #9aa0a6; fill-opacity: 0.3"/>
   </g>
   <g id="patch_7">
    <path d="M 149.106341 81.65122 
L 143.10439 149.173171 
L 108.593171 149.173171 
L 102.59122 81.65122 
z
" clip-path="url(#pd2bb594431)" style="fill: #9aa0a6; fill-opacity: 0.3"/>
   </g>
   <g id="patch_8">
    <path d="M 125.84878 163.427805 
C 129.629154 163.427805 133.255201 161.925847 135.928329 159.252719 
C 138.601456 156.579592 140.103415 152.953544 140.103415 149.173171 
C 140.103415 145.392798 138.601456 141.76675 135.928329 139.093622 
C 133.255201 136.420495 129.629154 134.918537 125.84878 134.918537 
C 122.068407 134.918537 118.44236 136.420495 115.769232 139.093622 
C 113.096105 141.76675 111.594146 145.392798 111.594146 149.173171 
C 111.594146 152.953544 113.096105 156.579592 115.769232 159.252719 
C 118.44236 161.925847 122.068407 163.427805 125.84878 163.427805 
z
" clip-path="url(#pd2bb594431)" style="fill: #9aa0a6; fill-opacity: 0.3"/>
   </g>
   <g id="patch_9">
    <path d="M 125.84878 229.636829 
C 128.286126 229.636829 130.623973 228.668461 132.347437 226.944998 
C 134.070901 225.221534 135.039268 222.883687 135.039268 220.446341 
C 135.039268 218.008996 134.070901 215.671149 132.347437 213.947685 
C 130.623973 212.224221 128.286126 211.255854 125.84878 211.255854 
C 123.411435 211.255854 121.073588 212.224221 119.350124 213.947685 
C 117.62666 215.671149 116.658293 218.008996 116.658293 220.446341 
C 116.658293 222.883687 117.62666 225.221534 119.350124 226.944998 
C 121.073588 228.668461 123.411435 229.636829 125.84878 229.636829 
z
" clip-path="url(#pd2bb594431)" style="fill: #9aa0a6; fill-opacity: 0.3"/>
   </g>
   <g id="patch_10">
    <path d="M 140.103415 149.173171 
L 135.039268 220.446341 
L 116.658293 220.446341 
L 111.594146 149.173171 
z
" clip-path="url(#pd2bb594431)" style="fill: #9aa0a6; fill-opacity: 0.3"/>
   </g>
   <g id="patch_11">
    <path d="M 125.84878 229.636829 
C 128.286126 229.636829 130.623973 228.668461 132.347437 226.944998 
C 134.070901 225.221534 135.039268 222.883687 135.039268 220.446341 
C 135.039268 218.008996 134.070901 215.671149 132.347437 213.947685 
C 130.623973 212.224221 128.286126 211.255854 125.84878 211.255854 
C 123.411435 211.255854 121.073588 212.224221 119.350124 213.947685 
C 117.62666 215.671149 116.658293 218.008996 116.658293 220.446341 
C 116.658293 222.883687 117.62666 225.221534 119.350124 226.944998 
C 121.073588 228.668461 123.411435 229.636829 125.84878 229.636829 
z
" clip-path="url(#pd2bb594431)" style="fill: #9aa0a6; fill-opacity: 0.3"/>
   </g>
   <g id="patch_12">
    <path d="M 125.84878 290.406585 
C 127.490258 290.406585 129.064726 289.754419 130.225427 288.593719 
C 131.386127 287.433019 132.038293 285.858551 132.038293 284.217073 
C 132.038293 282.575595 131.386127 281.001127 130.225427 279.840427 
C 129.064726 278.679727 127.490258 278.027561 125.84878 278.027561 
C 124.207303 278.027561 122.632835 278.679727 121.472134 279.840427 
C 120.311434 281.001127 119.659268 282.575595 119.659268 284.217073 
C 119.659268 285.858551 120.311434 287.433019 121.472134 288.593719 
C 122.632835 289.754419 124.207303 290.406585 125.84878 290.406585 
z
" clip-path="url(#pd2bb594431)" style="fill: #9aa0a6; fill-opacity: 0.3"/>
   </g>
   <g id="patch_13">
    <path d="M 135.039268 220.446341 
L 132.038293 284.217073 
L 119.659268 284.217073 
L 116.658293 220.446341 
z
" clip-path="url(#pd2bb594431)" style="fill: #9aa0a6; fill-opacity: 0.3"/>
   </g>
   <g id="patch_14">
    <path d="M 125.84878 289.478159 
C 127.244037 289.478159 128.582335 288.923817 129.56893 287.937222 
C 130.555525 286.950627 131.109866 285.612329 131.109866 284.217073 
C 131.109866 282.821817 130.555525 281.483519 129.56893 280.496924 
C 128.582335 279.510329 127.244037 278.955988 125.84878 278.955988 
C 124.453524 278.955988 123.115226 279.510329 122.128631 280.496924 
C 121.142036 281.483519 120.587695 282.821817 120.587695 284.217073 
C 120.587695 285.612329 121.142036 286.950627 122.128631 287.937222 
C 123.115226 288.923817 124.453524 289.478159 125.84878 289.478159 
z
" clip-path="url(#pd2bb594431)" style="fill: #9aa0a6; fill-opacity: 0.3"/>
   </g>
   <g id="patch_15">
    <path d="M 140.853659 287.621305 
C 141.756471 287.621305 142.622429 287.262614 143.260814 286.624228 
C 143.899199 285.985843 144.25789 285.119886 144.25789 284.217073 
C 144.25789 283.31426 143.899199 282.448303 143.260814 281.809918 
C 142.622429 281.171533 141.756471 280.812841 140.853659 280.812841 
C 139.950846 280.812841 139.084888 281.171533 138.446503 281.809918 
C 137.808118 282.448303 137.449427 283.31426 137.449427 284.217073 
C 137.449427 285.119886 137.808118 285.985843 138.446503 286.624228 
C 139.084888 287.262614 139.950846 287.621305 140.853659 287.621305 
z
" clip-path="url(#pd2bb594431)" style="fill: #9aa0a6; fill-opacity: 0.3"/>
   </g>
   <g id="patch_16">
    <path d="M 125.84878 278.955988 
L 140.853659 280.812841 
L 140.853659 287.621305 
L 125.84878 289.478159 
z
" clip-path="url(#pd2bb594431)" style="fill: #9aa0a6; fill-opacity: 0.3"/>
   </g>
   <g id="line2d_2">
    <path d="M 133.35122 59.143902 
L 137.477561 81.65122 
L 136.77626 85.628497 
L 134.756943 89.126056 
L 131.663171 91.722039 
L 127.868097 93.103333 
L 123.829464 93.103333 
L 120.03439 91.722039 
L 116.940618 89.126056 
L 114.921301 85.628497 
L 114.22 81.65122 
L 118.346341 59.143902 
L 118.798794 56.577917 
L 120.101579 54.321428 
L 122.097561 52.6466 
L 124.545996 51.755442 
L 127.151565 51.755442 
L 129.6 52.6466 
L 131.595982 54.321428 
L 132.898767 56.577917 
L 133.35122 59.143902 
L 133.35122 59.143902 
" clip-path="url(#pd2bb594431)" style="fill: none; stroke: #7d8288; stroke-opacity: 0.85; stroke-width: 1.7; stroke-linecap: round"/>
   </g>
   <g id="line2d_3">
    <path d="M 149.106341 81.65122 
L 143.10439 149.173171 
L 142.06375 155.074937 
L 139.067344 160.264863 
L 134.476585 164.116967 
L 128.845186 166.166629 
L 122.852375 166.166629 
L 117.220976 164.116967 
L 112.630217 160.264863 
L 109.633811 155.074937 
L 108.593171 149.173171 
L 102.59122 81.65122 
L 103.993822 73.696665 
L 108.032455 66.701547 
L 114.22 61.509581 
L 121.810147 58.746993 
L 129.887414 58.746993 
L 137.477561 61.509581 
L 143.665106 66.701547 
L 147.703739 73.696665 
L 149.106341 81.65122 
L 149.106341 81.65122 
" clip-path="url(#pd2bb594431)" style="fill: none; stroke: #7d8288; stroke-opacity: 0.85; stroke-width: 1.7; stroke-linecap: round"/>
   </g>
   <g id="patch_17">
    <path d="M 125.84878 91.029268 
C 128.335868 91.029268 130.721426 90.041138 132.480062 88.282501 
C 134.238699 86.523865 135.226829 84.138307 135.226829 81.65122 
C 135.226829 79.164132 134.238699 76.778574 132.480062 75.019938 
C 130.721426 73.261301 128.335868 72.273171 125.84878 72.273171 
C 123.361693 72.273171 120.976135 73.261301 119.217499 75.019938 
C 117.458862 76.778574 116.470732 79.164132 116.470732 81.65122 
C 116.470732 84.138307 117.458862 86.523865 119.217499 88.282501 
C 120.976135 90.041138 123.361693 91.029268 125.84878 91.029268 
z
" clip-path="url(#pd2bb594431)" style="fill: #9aa0a6; fill-opacity: 0.3"/>
   </g>
   <g id="patch_18">
    <path d="M 125.84878 118.600732 
C 127.689225 118.600732 129.454538 117.869515 130.755929 116.568124 
C 132.05732 115.266733 132.788537 113.50142 132.788537 111.660976 
C 132.788537 109.820531 132.05732 108.055218 130.755929 106.753827 
C 129.454538 105.452436 127.689225 104.72122 125.84878 104.72122 
C 124.008336 104.72122 122.243023 105.452436 120.941632 106.753827 
C 119.640241 108.055218 118.909024 109.820531 118.909024 111.660976 
C 118.909024 113.50142 119.640241 115.266733 120.941632 116.568124 
C 122.243023 117.869515 124.008336 118.600732 125.84878 118.600732 
z
" clip-path="url(#pd2bb594431)" style="fill: #9aa0a6; fill-opacity: 0.3"/>
   </g>
   <g id="patch_19">
    <path d="M 135.226829 81.65122 
L 132.788537 111.660976 
L 118.909024 111.660976 
L 116.470732 81.65122 
z
" clip-path="url(#pd2bb594431)" style="fill: #9aa0a6; fill-opacity: 0.3"/>
   </g>
   <g id="patch_20">
    <path d="M 125.84878 118.600732 
C 127.689225 118.600732 129.454538 117.869515 130.755929 116.568124 
C 132.05732 115.266733 132.788537 113.50142 132.788537 111.660976 
C 132.788537 109.820531 132.05732 108.055218 130.755929 106.753827 
C 129.454538 105.452436 127.689225 104.72122 125.84878 104.72122 
C 124.008336 104.72122 122.243023 105.452436 120.941632 106.753827 
C 119.640241 108.055218 118.909024 109.820531 118.909024 111.660976 
C 118.909024 113.50142 119.640241 115.266733 120.941632 116.568124 
C 122.243023 117.869515 124.008336 118.600732 125.84878 118.600732 
z
" clip-path="url(#pd2bb594431)" style="fill: #9aa0a6; fill-opacity: 0.3"/>
   </g>
   <g id="patch_21">
    <path d="M 125.84878 147.485122 
C 127.390775 147.485122 128.869821 146.872481 129.960175 145.782126 
C 131.05053 144.691772 131.663171 143.212726 131.663171 141.670732 
C 131.663171 140.128737 131.05053 138.649692 129.960175 137.559337 
C 128.869821 136.468982 127.390775 135.856341 125.84878 135.856341 
C 124.306786 135.856341 122.82774 136.468982 121.737386 137.559337 
C 120.647031 138.649692 120.03439 140.128737 120.03439 141.670732 
C 120.03439 143.212726 120.647031 144.691772 121.737386 145.782126 
C 122.82774 146.872481 124.306786 147.485122 125.84878 147.485122 
z
" clip-path="url(#pd2bb594431)" style="fill: #9aa0a6; fill-opacity: 0.3"/>
   </g>
   <g id="patch_22">
    <path d="M 132.788537 111.660976 
L 131.663171 141.670732 
L 120.03439 141.670732 
L 118.909024 111.660976 
z
" clip-path="url(#pd2bb594431)" style="fill: #9aa0a6; fill-opacity: 0.3"/>
   </g>
   <g id="patch_23">
    <path d="M 125.84878 288.673522 
C 127.030645 288.673522 128.164262 288.203962 128.999966 287.368258 
C 129.83567 286.532554 130.305229 285.398937 130.305229 284.217073 
C 130.305229 283.035209 129.83567 281.901592 128.999966 281.065888 
C 128.164262 280.230184 127.030645 279.760624 125.84878 279.760624 
C 124.666916 279.760624 123.533299 280.230184 122.697595 281.065888 
C 121.861891 281.901592 121.392332 283.035209 121.392332 284.217073 
C 121.392332 285.398937 121.861891 286.532554 122.697595 287.368258 
C 123.533299 288.203962 124.666916 288.673522 125.84878 288.673522 
z
" clip-path="url(#pd2bb594431)" style="fill: #9aa0a6; fill-opacity: 0.3; stroke: #7d8288; stroke-opacity: 0.85; stroke-width: 1.3; stroke-linejoin: miter"/>
   </g>
   <g id="patch_24">
    <path d="M 125.84878 147.860244 
C 127.490258 147.860244 129.064726 147.208078 130.225427 146.047378 
C 131.386127 144.886678 132.038293 143.31221 132.038293 141.670732 
C 132.038293 140.029254 131.386127 138.454786 130.225427 137.294086 
C 129.064726 136.133386 127.490258 135.48122 125.84878 135.48122 
C 124.207303 135.48122 122.632835 136.133386 121.472134 137.294086 
C 120.311434 138.454786 119.659268 140.029254 119.659268 141.670732 
C 119.659268 143.31221 120.311434 144.886678 121.472134 146.047378 
C 122.632835 147.208078 124.207303 147.860244 125.84878 147.860244 
z
" clip-path="url(#pd2bb594431)" style="fill: #9aa0a6; fill-opacity: 0.3; stroke: #7d8288; stroke-opacity: 0.85; stroke-width: 1.6; stroke-linejoin: miter"/>
   </g>
   <g id="line2d_4">
    <path d="M 140.103415 149.173171 
L 135.039268 220.446341 
L 134.485014 223.589673 
L 132.889103 226.353873 
L 130.444024 228.405537 
L 127.444692 229.497205 
L 124.252869 229.497205 
L 121.253537 228.405537 
L 118.808458 226.353873 
L 117.212547 223.589673 
L 116.658293 220.446341 
L 111.594146 149.173171 
L 112.453806 144.297799 
L 114.929097 140.010469 
L 118.721463 136.828295 
L 123.373489 135.135097 
L 128.324072 135.135097 
L 132.976098 136.828295 
L 136.768464 140.010469 
L 139.243755 144.297799 
L 140.103415 149.173171 
L 140.103415 149.173171 
" clip-path="url(#pd2bb594431)" style="fill: none; stroke: #7d8288; stroke-opacity: 0.85; stroke-width: 1.7; stroke-linecap: round"/>
   </g>
   <g id="line2d_5">
    <path d="M 135.039268 220.446341 
L 132.038293 284.217073 
L 131.665019 286.334011 
L 130.590222 288.195615 
L 128.943537 289.577348 
L 126.923578 290.312553 
L 124.773983 290.312553 
L 122.754024 289.577348 
L 121.107339 288.195615 
L 120.032542 286.334011 
L 119.659268 284.217073 
L 116.658293 220.446341 
L 117.212547 217.30301 
L 118.808458 214.53881 
L 121.253537 212.487146 
L 124.252869 211.395478 
L 127.444692 211.395478 
L 130.444024 212.487146 
L 132.889103 214.53881 
L 134.485014 217.30301 
L 135.039268 220.446341 
L 135.039268 220.446341 
" clip-path="url(#pd2bb594431)" style="fill: none; stroke: #7d8288; stroke-opacity: 0.85; stroke-width: 1.7; stroke-linecap: round"/>
   </g>
   <g id="line2d_6">
    <path d="M 125.84878 278.955988 
L 140.853659 280.812841 
L 142.017974 281.018142 
L 143.041856 281.60928 
L 143.80181 282.514957 
L 144.206172 283.625935 
L 144.206172 284.808212 
L 143.80181 285.919189 
L 143.041856 286.824866 
L 142.017974 287.416005 
L 140.853659 287.621305 
L 125.84878 289.478159 
L 124.049383 289.160876 
L 122.46702 288.247298 
L 121.292547 286.847616 
L 120.667623 285.130651 
L 120.667623 283.303495 
L 121.292547 281.58653 
L 122.46702 280.186848 
L 124.049383 279.27327 
L 125.84878 278.955988 
L 125.84878 278.955988 
" clip-path="url(#pd2bb594431)" style="fill: none; stroke: #7d8288; stroke-opacity: 0.85; stroke-width: 1.5; stroke-linecap: round"/>
   </g>
   <g id="line2d_7">
    <path d="M 135.226829 81.65122 
L 132.788537 111.660976 
L 132.370018 114.034512 
L 131.164942 116.121765 
L 129.318659 117.670981 
L 127.053856 118.495301 
L 124.643704 118.495301 
L 122.378902 117.670981 
L 120.532619 116.121765 
L 119.327543 114.034512 
L 118.909024 111.660976 
L 116.470732 81.65122 
L 117.036297 78.443738 
L 118.664778 75.623126 
L 121.159756 73.529591 
L 124.220299 72.415644 
L 127.477262 72.415644 
L 130.537805 73.529591 
L 133.032783 75.623126 
L 134.661264 78.443738 
L 135.226829 81.65122 
L 135.226829 81.65122 
" clip-path="url(#pd2bb594431)" style="fill: none; stroke: #7d8288; stroke-opacity: 0.85; stroke-width: 1.7; stroke-linecap: round"/>
   </g>
   <g id="line2d_8">
    <path d="M 132.788537 111.660976 
L 131.663171 141.670732 
L 131.31252 143.65937 
L 130.302862 145.40815 
L 128.755976 146.706141 
L 126.858439 147.396788 
L 124.839122 147.396788 
L 122.941585 146.706141 
L 121.394699 145.40815 
L 120.385041 143.65937 
L 120.03439 141.670732 
L 118.909024 111.660976 
L 119.327543 109.287439 
L 120.532619 107.200186 
L 122.378902 105.650971 
L 124.643704 104.82665 
L 127.053856 104.82665 
L 129.318659 105.650971 
L 131.164942 107.200186 
L 132.370018 109.287439 
L 132.788537 111.660976 
L 132.788537 111.660976 
" clip-path="url(#pd2bb594431)" style="fill: none; stroke: #7d8288; stroke-opacity: 0.85; stroke-width: 1.7; stroke-linecap: round"/>
   </g>
   <g id="patch_25">
    <path d="M 125.84878 74.14878 
C 129.828121 74.14878 133.645013 72.567772 136.458832 69.753953 
C 139.27265 66.940135 140.853659 63.123243 140.853659 59.143902 
C 140.853659 55.164562 139.27265 51.34767 136.458832 48.533851 
C 133.645013 45.720033 129.828121 44.139024 125.84878 44.139024 
C 121.86944 44.139024 118.052548 45.720033 115.238729 48.533851 
C 112.424911 51.34767 110.843902 55.164562 110.843902 59.143902 
C 110.843902 63.123243 112.424911 66.940135 115.238729 69.753953 
C 118.052548 72.567772 121.86944 74.14878 125.84878 74.14878 
z
" clip-path="url(#pd2bb594431)" style="fill: #9aa0a6; fill-opacity: 0.3; stroke: #7d8288; stroke-opacity: 0.85; stroke-width: 1.8; stroke-linejoin: miter"/>
   </g>
   <g id="patch_26">
    <path d="M 140.853659 201.675239 
C 144.331602 201.675239 147.667566 200.293438 150.126843 197.83416 
C 152.58612 195.374883 153.967922 192.038919 153.967922 188.560976 
C 153.967922 185.083032 152.58612 181.747068 150.126843 179.287791 
C 147.667566 176.828514 144.331602 175.446712 140.853659 175.446712 
C 137.375715 175.446712 134.039751 176.828514 131.580474 179.287791 
C 129.121197 181.747068 127.739395 185.083032 127.739395 188.560976 
C 127.739395 192.038919 129.121197 195.374883 131.580474 197.83416 
C 134.039751 200.293438 137.375715 201.675239 140.853659 201.675239 
z
" clip-path="url(#pd2bb594431)" style="fill: #3c3f42; fill-opacity: 0.95"/>
   </g>
   <g id="patch_27">
    <path d="M 114.595122 264.538176 
C 116.83748 264.538176 118.988299 263.647277 120.573886 262.061691 
C 122.159472 260.476104 123.050371 258.325285 123.050371 256.082927 
C 123.050371 253.840569 122.159472 251.68975 120.573886 250.104163 
C 118.988299 248.518576 116.83748 247.627678 114.595122 247.627678 
C 112.352764 247.627678 110.201945 248.518576 108.616358 250.104163 
C 107.030772 251.68975 106.139873 253.840569 106.139873 256.082927 
C 106.139873 258.325285 107.030772 260.476104 108.616358 262.061691 
C 110.201945 263.647277 112.352764 264.538176 114.595122 264.538176 
z
" clip-path="url(#pd2bb594431)" style="fill: #3c3f42; fill-opacity: 0.95"/>
   </g>
   <g id="patch_28">
    <path d="M 153.076213 193.314191 
L 122.475453 259.1475 
L 106.714791 253.018354 
L 128.631104 183.80776 
z
" clip-path="url(#pd2bb594431)" style="fill: #3c3f42; fill-opacity: 0.95"/>
   </g>
   <g id="patch_29">
    <path d="M 114.595122 264.538176 
C 116.83748 264.538176 118.988299 263.647277 120.573886 262.061691 
C 122.159472 260.476104 123.050371 258.325285 123.050371 256.082927 
C 123.050371 253.840569 122.159472 251.68975 120.573886 250.104163 
C 118.988299 248.518576 116.83748 247.627678 114.595122 247.627678 
C 112.352764 247.627678 110.201945 248.518576 108.616358 250.104163 
C 107.030772 251.68975 106.139873 253.840569 106.139873 256.082927 
C 106.139873 258.325285 107.030772 260.476104 108.616358 262.061691 
C 110.201945 263.647277 112.352764 264.538176 114.595122 264.538176 
z
" clip-path="url(#pd2bb594431)" style="fill: #3c3f42; fill-opacity: 0.95"/>
   </g>
   <g id="patch_30">
    <path d="M 103.341463 288.035815 
C 104.851623 288.035815 106.300134 287.435822 107.367978 286.367978 
C 108.435822 285.300134 109.035815 283.851623 109.035815 282.341463 
C 109.035815 280.831304 108.435822 279.382793 107.367978 278.314949 
C 106.300134 277.247105 104.851623 276.647112 103.341463 276.647112 
C 101.831304 276.647112 100.382793 277.247105 99.314949 278.314949 
C 98.247105 279.382793 97.647112 280.831304 97.647112 282.341463 
C 97.647112 283.851623 98.247105 285.300134 99.314949 286.367978 
C 100.382793 287.435822 101.831304 288.035815 103.341463 288.035815 
z
" clip-path="url(#pd2bb594431)" style="fill: #3c3f42; fill-opacity: 0.95"/>
   </g>
   <g id="patch_31">
    <path d="M 122.366722 259.413612 
L 108.575398 284.584578 
L 98.107529 280.098349 
L 106.823522 252.752241 
z
" clip-path="url(#pd2bb594431)" style="fill: #3c3f42; fill-opacity: 0.95"/>
   </g>
   <g id="patch_32">
    <path d="M 103.341463 287.181662 
C 104.625099 287.181662 105.856333 286.671668 106.764001 285.764001 
C 107.671668 284.856333 108.181662 283.625099 108.181662 282.341463 
C 108.181662 281.057828 107.671668 279.826594 106.764001 278.918926 
C 105.856333 278.011259 104.625099 277.501265 103.341463 277.501265 
C 102.057828 277.501265 100.826594 278.011259 99.918926 278.918926 
C 99.011259 279.826594 98.501265 281.057828 98.501265 282.341463 
C 98.501265 283.625099 99.011259 284.856333 99.918926 285.764001 
C 100.826594 286.671668 102.057828 287.181662 103.341463 287.181662 
z
" clip-path="url(#pd2bb594431)" style="fill: #1b1b1b; fill-opacity: 0.95"/>
   </g>
   <g id="patch_33">
    <path d="M 88.336585 287.348966 
C 89.167173 287.348966 89.963854 287.01897 90.551168 286.431656 
C 91.138483 285.844342 91.468479 285.047661 91.468479 284.217073 
C 91.468479 283.386485 91.138483 282.589805 90.551168 282.00249 
C 89.963854 281.415176 89.167173 281.08518 88.336585 281.08518 
C 87.505998 281.08518 86.709317 281.415176 86.122002 282.00249 
C 85.534688 282.589805 85.204692 283.386485 85.204692 284.217073 
C 85.204692 285.047661 85.534688 285.844342 86.122002 286.431656 
C 86.709317 287.01897 87.505998 287.348966 88.336585 287.348966 
z
" clip-path="url(#pd2bb594431)" style="fill: #1b1b1b; fill-opacity: 0.95"/>
   </g>
   <g id="patch_34">
    <path d="M 103.941816 287.144285 
L 88.725049 287.324781 
L 87.948122 281.109365 
L 102.741111 277.538641 
z
" clip-path="url(#pd2bb594431)" style="fill: #1b1b1b; fill-opacity: 0.95"/>
   </g>
   <g id="patch_35">
    <path d="M 103.341463 286.441396 
C 104.428778 286.441396 105.471706 286.009402 106.240554 285.240554 
C 107.009402 284.471706 107.441396 283.428778 107.441396 282.341463 
C 107.441396 281.254149 107.009402 280.211221 106.240554 279.442373 
C 105.471706 278.673525 104.428778 278.241531 103.341463 278.241531 
C 102.254149 278.241531 101.211221 278.673525 100.442373 279.442373 
C 99.673525 280.211221 99.241531 281.254149 99.241531 282.341463 
C 99.241531 283.428778 99.673525 284.471706 100.442373 285.240554 
C 101.211221 286.009402 102.254149 286.441396 103.341463 286.441396 
z
" clip-path="url(#pd2bb594431)" style="fill: #1b1b1b; fill-opacity: 0.95; stroke: #121212; stroke-width: 1.3; stroke-linejoin: miter"/>
   </g>
   <g id="line2d_9">
    <path d="M 153.076213 193.314191 
L 122.475453 259.1475 
L 120.952065 261.657916 
L 118.661936 263.495906 
L 115.881289 264.439781 
L 112.945512 264.375696 
L 110.208701 263.311381 
L 108.000958 261.375207 
L 106.588568 258.800707 
L 106.141887 255.898402 
L 106.714791 253.018354 
L 128.631104 183.80776 
L 130.99391 179.914054 
L 134.545947 177.063294 
L 138.858787 175.599325 
L 143.412238 175.698722 
L 147.657087 177.349496 
L 151.081342 180.352541 
L 153.271987 184.345643 
L 153.964799 188.847177 
L 153.076213 193.314191 
L 153.076213 193.314191 
" clip-path="url(#pd2bb594431)" style="fill: none; stroke: #282a2c; stroke-width: 1.7; stroke-linecap: round"/>
   </g>
   <g id="line2d_10">
    <path d="M 122.366722 259.413612 
L 108.575398 284.584578 
L 107.492563 286.239413 
L 105.909044 287.424097 
L 104.015836 287.995741 
L 102.04129 287.885396 
L 100.223563 287.10637 
L 98.781902 285.752626 
L 97.89019 283.987446 
L 97.655983 282.023736 
L 98.107529 280.098349 
L 106.823522 252.752241 
L 108.431368 250.295062 
L 110.782655 248.535985 
L 113.59378 247.687181 
L 116.525683 247.851028 
L 119.224731 249.007762 
L 121.36538 251.017867 
L 122.689436 253.638892 
L 123.037199 256.554704 
L 122.366722 259.413612 
L 122.366722 259.413612 
" clip-path="url(#pd2bb594431)" style="fill: none; stroke: #282a2c; stroke-width: 1.7; stroke-linecap: round"/>
   </g>
   <g id="line2d_11">
    <path d="M 103.941816 287.144285 
L 88.725049 287.324781 
L 87.638723 287.270226 
L 86.636569 286.847415 
L 85.839463 286.107347 
L 85.343546 285.139283 
L 85.208634 284.059987 
L 85.450999 282.999638 
L 86.041409 282.08613 
L 86.90865 281.429645 
L 87.948122 281.109365 
L 102.741111 277.538641 
L 104.419978 277.622954 
L 105.968761 278.276389 
L 107.200653 279.420132 
L 107.96707 280.91623 
L 108.17557 282.584233 
L 107.801006 284.222954 
L 106.888555 285.634739 
L 105.548272 286.649307 
L 103.941816 287.144285 
L 103.941816 287.144285 
" clip-path="url(#pd2bb594431)" style="fill: none; stroke: #121212; stroke-width: 1.5; stroke-linecap: round"/>
   </g>
   <g id="patch_36">
    <path d="M 140.853659 109.785366 
C 142.843329 109.785366 144.751775 108.994862 146.158684 107.587952 
C 147.565593 106.181043 148.356098 104.272597 148.356098 102.282927 
C 148.356098 100.293257 147.565593 98.384811 146.158684 96.977901 
C 144.751775 95.570992 142.843329 94.780488 140.853659 94.780488 
C 138.863988 94.780488 136.955542 95.570992 135.548633 96.977901 
C 134.141724 98.384811 133.35122 100.293257 133.35122 102.282927 
C 133.35122 104.272597 134.141724 106.181043 135.548633 107.587952 
C 136.955542 108.994862 138.863988 109.785366 140.853659 109.785366 
z
" clip-path="url(#pd2bb594431)" style="fill: #2c3e50"/>
   </g>
   <g id="patch_37">
    <path d="M 140.853659 132.667805 
C 143.937647 132.667805 146.895739 131.442523 149.076448 129.261814 
C 151.257157 127.081105 152.482439 124.123013 152.482439 121.039024 
C 152.482439 117.955036 151.257157 114.996944 149.076448 112.816235 
C 146.895739 110.635526 143.937647 109.410244 140.853659 109.410244 
C 137.76967 109.410244 134.811578 110.635526 132.630869 112.816235 
C 130.45016 114.996944 129.224878 117.955036 129.224878 121.039024 
C 129.224878 124.123013 130.45016 127.081105 132.630869 129.261814 
C 134.811578 131.442523 137.76967 132.667805 140.853659 132.667805 
z
" clip-path="url(#pd2bb594431)" style="fill: #2c3e50"/>
   </g>
   <g id="patch_38">
    <path d="M 148.356098 102.282927 
L 152.482439 121.039024 
L 129.224878 121.039024 
L 133.35122 102.282927 
z
" clip-path="url(#pd2bb594431)" style="fill: #2c3e50"/>
   </g>
   <g id="patch_39">
    <path d="M 140.853659 144.296585 
C 147.021636 144.296585 152.937819 141.846022 157.299238 137.484603 
C 161.660656 133.123185 164.11122 127.207002 164.11122 121.039024 
C 164.11122 114.871047 161.660656 108.954864 157.299238 104.593445 
C 152.937819 100.232027 147.021636 97.781463 140.853659 97.781463 
C 134.685681 97.781463 128.769498 100.232027 124.408079 104.593445 
C 120.046661 108.954864 117.596098 114.871047 117.596098 121.039024 
C 117.596098 127.207002 120.046661 133.123185 124.408079 137.484603 
C 128.769498 141.846022 134.685681 144.296585 140.853659 144.296585 
z
" clip-path="url(#pd2bb594431)" style="fill: #2c3e50"/>
   </g>
   <g id="patch_40">
    <path d="M 140.853659 205.816585 
C 145.4299 205.816585 149.819326 203.998425 153.055217 200.762534 
C 156.291108 197.526643 158.109268 193.137217 158.109268 188.560976 
C 158.109268 183.984734 156.291108 179.595308 153.055217 176.359417 
C 149.819326 173.123526 145.4299 171.305366 140.853659 171.305366 
C 136.277417 171.305366 131.887991 173.123526 128.6521 176.359417 
C 125.416209 179.595308 123.598049 183.984734 123.598049 188.560976 
C 123.598049 193.137217 125.416209 197.526643 128.6521 200.762534 
C 131.887991 203.998425 136.277417 205.816585 140.853659 205.816585 
z
" clip-path="url(#pd2bb594431)" style="fill: #2c3e50"/>
   </g>
   <g id="patch_41">
    <path d="M 164.11122 121.039024 
L 158.109268 188.560976 
L 123.598049 188.560976 
L 117.596098 121.039024 
z
" clip-path="url(#pd2bb594431)" style="fill: #2c3e50"/>
   </g>
   <g id="patch_42">
    <path d="M 140.853659 202.81561 
C 144.634032 202.81561 148.26008 201.313652 150.933207 198.640524 
C 153.606335 195.967397 155.108293 192.341349 155.108293 188.560976 
C 155.108293 184.780602 153.606335 181.154555 150.933207 178.481427 
C 148.26008 175.8083 144.634032 174.306341 140.853659 174.306341 
C 137.073285 174.306341 133.447238 175.8083 130.77411 178.481427 
C 128.100983 181.154555 126.599024 184.780602 126.599024 188.560976 
C 126.599024 192.341349 128.100983 195.967397 130.77411 198.640524 
C 133.447238 201.313652 137.073285 202.81561 140.853659 202.81561 
z
" clip-path="url(#pd2bb594431)" style="fill: #3c3f42"/>
   </g>
   <g id="patch_43">
    <path d="M 167.112195 235.263659 
C 169.549541 235.263659 171.887388 234.295291 173.610851 232.571827 
C 175.334315 230.848363 176.302683 228.510517 176.302683 226.073171 
C 176.302683 223.635825 175.334315 221.297978 173.610851 219.574514 
C 171.887388 217.851051 169.549541 216.882683 167.112195 216.882683 
C 164.674849 216.882683 162.337003 217.851051 160.613539 219.574514 
C 158.890075 221.297978 157.921707 223.635825 157.921707 226.073171 
C 157.921707 228.510517 158.890075 230.848363 160.613539 232.571827 
C 162.337003 234.295291 164.674849 235.263659 167.112195 235.263659 
z
" clip-path="url(#pd2bb594431)" style="fill: #3c3f42"/>
   </g>
   <g id="patch_44">
    <path d="M 152.53151 180.38648 
L 174.641336 220.802772 
L 159.583054 231.343569 
L 129.175807 196.735472 
z
" clip-path="url(#pd2bb594431)" style="fill: #3c3f42"/>
   </g>
   <g id="patch_45">
    <path d="M 167.112195 235.263659 
C 169.549541 235.263659 171.887388 234.295291 173.610851 232.571827 
C 175.334315 230.848363 176.302683 228.510517 176.302683 226.073171 
C 176.302683 223.635825 175.334315 221.297978 173.610851 219.574514 
C 171.887388 217.851051 169.549541 216.882683 167.112195 216.882683 
C 164.674849 216.882683 162.337003 217.851051 160.613539 219.574514 
C 158.890075 221.297978 157.921707 223.635825 157.921707 226.073171 
C 157.921707 228.510517 158.890075 230.848363 160.613539 232.571827 
C 162.337003 234.295291 164.674849 235.263659 167.112195 235.263659 
z
" clip-path="url(#pd2bb594431)" style="fill: #3c3f42"/>
   </g>
   <g id="patch_46">
    <path d="M 167.112195 290.406585 
C 168.753673 290.406585 170.328141 289.754419 171.488841 288.593719 
C 172.649541 287.433019 173.301707 285.858551 173.301707 284.217073 
C 173.301707 282.575595 172.649541 281.001127 171.488841 279.840427 
C 170.328141 278.679727 168.753673 278.027561 167.112195 278.027561 
C 165.470717 278.027561 163.896249 278.679727 162.735549 279.840427 
C 161.574849 281.001127 160.922683 282.575595 160.922683 284.217073 
C 160.922683 285.858551 161.574849 287.433019 162.735549 288.593719 
C 163.896249 289.754419 165.470717 290.406585 167.112195 290.406585 
z
" clip-path="url(#pd2bb594431)" style="fill: #3c3f42"/>
   </g>
   <g id="patch_47">
    <path d="M 176.302683 226.073171 
L 173.301707 284.217073 
L 160.922683 284.217073 
L 157.921707 226.073171 
z
" clip-path="url(#pd2bb594431)" style="fill: #3c3f42"/>
   </g>
   <g id="patch_48">
    <path d="M 167.112195 289.478159 
C 168.507451 289.478159 169.845749 288.923817 170.832344 287.937222 
C 171.818939 286.950627 172.37328 285.612329 172.37328 284.217073 
C 172.37328 282.821817 171.818939 281.483519 170.832344 280.496924 
C 169.845749 279.510329 168.507451 278.955988 167.112195 278.955988 
C 165.716939 278.955988 164.378641 279.510329 163.392046 280.496924 
C 162.405451 281.483519 161.85111 282.821817 161.85111 284.217073 
C 161.85111 285.612329 162.405451 286.950627 163.392046 287.937222 
C 164.378641 288.923817 165.716939 289.478159 167.112195 289.478159 
z
" clip-path="url(#pd2bb594431)" style="fill: #1b1b1b"/>
   </g>
   <g id="patch_49">
    <path d="M 182.117073 287.621305 
C 183.019886 287.621305 183.885843 287.262614 184.524228 286.624228 
C 185.162614 285.985843 185.521305 285.119886 185.521305 284.217073 
C 185.521305 283.31426 185.162614 282.448303 184.524228 281.809918 
C 183.885843 281.171533 183.019886 280.812841 182.117073 280.812841 
C 181.21426 280.812841 180.348303 281.171533 179.709918 281.809918 
C 179.071533 282.448303 178.712841 283.31426 178.712841 284.217073 
C 178.712841 285.119886 179.071533 285.985843 179.709918 286.624228 
C 180.348303 287.262614 181.21426 287.621305 182.117073 287.621305 
z
" clip-path="url(#pd2bb594431)" style="fill: #1b1b1b"/>
   </g>
   <g id="patch_50">
    <path d="M 167.112195 278.955988 
L 182.117073 280.812841 
L 182.117073 287.621305 
L 167.112195 289.478159 
z
" clip-path="url(#pd2bb594431)" style="fill: #1b1b1b"/>
   </g>
   <g id="line2d_12">
    <path d="M 148.356098 102.282927 
L 152.482439 121.039024 
L 151.781138 125.016302 
L 149.761821 128.51386 
L 146.668049 131.109844 
L 142.872975 132.491138 
L 138.834342 132.491138 
L 135.039268 131.109844 
L 131.945496 128.51386 
L 129.926179 125.016302 
L 129.224878 121.039024 
L 133.35122 102.282927 
L 133.803672 99.716942 
L 135.106457 97.460452 
L 137.102439 95.785624 
L 139.550874 94.894467 
L 142.156443 94.894467 
L 144.604878 95.785624 
L 146.60086 97.460452 
L 147.903645 99.716942 
L 148.356098 102.282927 
L 148.356098 102.282927 
" clip-path="url(#pd2bb594431)" style="fill: none; stroke: #1d2a36; stroke-width: 1.7; stroke-linecap: round"/>
   </g>
   <g id="line2d_13">
    <path d="M 164.11122 121.039024 
L 158.109268 188.560976 
L 157.068628 194.462742 
L 154.072223 199.652668 
L 149.481463 203.504772 
L 143.850064 205.554434 
L 137.857253 205.554434 
L 132.225854 203.504772 
L 127.635095 199.652668 
L 124.638689 194.462742 
L 123.598049 188.560976 
L 117.596098 121.039024 
L 118.9987 113.08447 
L 123.037333 106.089352 
L 129.224878 100.897386 
L 136.815025 98.134798 
L 144.892292 98.134798 
L 152.482439 100.897386 
L 158.669984 106.089352 
L 162.708617 113.08447 
L 164.11122 121.039024 
L 164.11122 121.039024 
" clip-path="url(#pd2bb594431)" style="fill: none; stroke: #1d2a36; stroke-width: 1.7; stroke-linecap: round"/>
   </g>
   <g id="patch_51">
    <path d="M 140.853659 130.417073 
C 143.340746 130.417073 145.726304 129.428943 147.48494 127.670306 
C 149.243577 125.91167 150.231707 123.526112 150.231707 121.039024 
C 150.231707 118.551937 149.243577 116.166379 147.48494 114.407743 
C 145.726304 112.649106 143.340746 111.660976 140.853659 111.660976 
C 138.366571 111.660976 135.981013 112.649106 134.222377 114.407743 
C 132.46374 116.166379 131.47561 118.551937 131.47561 121.039024 
C 131.47561 123.526112 132.46374 125.91167 134.222377 127.670306 
C 135.981013 129.428943 138.366571 130.417073 140.853659 130.417073 
z
" clip-path="url(#pd2bb594431)" style="fill: #2c3e50"/>
   </g>
   <g id="patch_52">
    <path d="M 140.853659 157.988537 
C 142.694103 157.988537 144.459416 157.25732 145.760807 155.955929 
C 147.062198 154.654538 147.793415 152.889225 147.793415 151.04878 
C 147.793415 149.208336 147.062198 147.443023 145.760807 146.141632 
C 144.459416 144.840241 142.694103 144.109024 140.853659 144.109024 
C 139.013214 144.109024 137.247901 144.840241 135.94651 146.141632 
C 134.645119 147.443023 133.913902 149.208336 133.913902 151.04878 
C 133.913902 152.889225 134.645119 154.654538 135.94651 155.955929 
C 137.247901 157.25732 139.013214 157.988537 140.853659 157.988537 
z
" clip-path="url(#pd2bb594431)" style="fill: #2c3e50"/>
   </g>
   <g id="patch_53">
    <path d="M 150.231707 121.039024 
L 147.793415 151.04878 
L 133.913902 151.04878 
L 131.47561 121.039024 
z
" clip-path="url(#pd2bb594431)" style="fill: #2c3e50"/>
   </g>
   <g id="patch_54">
    <path d="M 140.853659 157.988537 
C 142.694103 157.988537 144.459416 157.25732 145.760807 155.955929 
C 147.062198 154.654538 147.793415 152.889225 147.793415 151.04878 
C 147.793415 149.208336 147.062198 147.443023 145.760807 146.141632 
C 144.459416 144.840241 142.694103 144.109024 140.853659 144.109024 
C 139.013214 144.109024 137.247901 144.840241 135.94651 146.141632 
C 134.645119 147.443023 133.913902 149.208336 133.913902 151.04878 
C 133.913902 152.889225 134.645119 154.654538 135.94651 155.955929 
C 137.247901 157.25732 139.013214 157.988537 140.853659 157.988537 
z
" clip-path="url(#pd2bb594431)" style="fill: #2c3e50"/>
   </g>
   <g id="patch_55">
    <path d="M 140.853659 186.872927 
C 142.395653 186.872927 143.874699 186.260286 144.965053 185.169931 
C 146.055408 184.079577 146.668049 182.600531 146.668049 181.058537 
C 146.668049 179.516542 146.055408 178.037496 144.965053 176.947142 
C 143.874699 175.856787 142.395653 175.244146 140.853659 175.244146 
C 139.311664 175.244146 137.832618 175.856787 136.742264 176.947142 
C 135.651909 178.037496 135.039268 179.516542 135.039268 181.058537 
C 135.039268 182.600531 135.651909 184.079577 136.742264 185.169931 
C 137.832618 186.260286 139.311664 186.872927 140.853659 186.872927 
z
" clip-path="url(#pd2bb594431)" style="fill: #2c3e50"/>
   </g>
   <g id="patch_56">
    <path d="M 147.793415 151.04878 
L 146.668049 181.058537 
L 135.039268 181.058537 
L 133.913902 151.04878 
z
" clip-path="url(#pd2bb594431)" style="fill: #2c3e50"/>
   </g>
   <g id="patch_57">
    <path d="M 167.112195 288.673522 
C 168.294059 288.673522 169.427676 288.203962 170.26338 287.368258 
C 171.099084 286.532554 171.568644 285.398937 171.568644 284.217073 
C 171.568644 283.035209 171.099084 281.901592 170.26338 281.065888 
C 169.427676 280.230184 168.294059 279.760624 167.112195 279.760624 
C 165.930331 279.760624 164.796714 280.230184 163.96101 281.065888 
C 163.125306 281.901592 162.655746 283.035209 162.655746 284.217073 
C 162.655746 285.398937 163.125306 286.532554 163.96101 287.368258 
C 164.796714 288.203962 165.930331 288.673522 167.112195 288.673522 
z
" clip-path="url(#pd2bb594431)" style="fill: #1b1b1b; stroke: #121212; stroke-width: 1.3; stroke-linejoin: miter"/>
   </g>
   <g id="patch_58">
    <path d="M 140.853659 187.248049 
C 142.495136 187.248049 144.069604 186.595883 145.230305 185.435183 
C 146.391005 184.274483 147.043171 182.700014 147.043171 181.058537 
C 147.043171 179.417059 146.391005 177.842591 145.230305 176.681891 
C 144.069604 175.52119 142.495136 174.869024 140.853659 174.869024 
C 139.212181 174.869024 137.637713 175.52119 136.477012 176.681891 
C 135.316312 177.842591 134.664146 179.417059 134.664146 181.058537 
C 134.664146 182.700014 135.316312 184.274483 136.477012 185.435183 
C 137.637713 186.595883 139.212181 187.248049 140.853659 187.248049 
z
" clip-path="url(#pd2bb594431)" style="fill: #f2e0c9; stroke: #a49888; stroke-width: 1.6; stroke-linejoin: miter"/>
   </g>
   <g id="line2d_14">
    <path d="M 152.53151 180.38648 
L 174.641336 220.802772 
L 175.989856 223.695734 
L 176.267599 226.87545 
L 175.441065 229.958399 
L 173.609946 232.572732 
L 170.995103 234.403122 
L 167.911924 235.228797 
L 164.732285 234.950169 
L 161.839699 233.600843 
L 159.583054 231.343569 
L 129.175807 196.735472 
L 127.084226 192.248429 
L 126.653441 187.316625 
L 127.935412 182.534908 
L 130.775514 178.480023 
L 134.831189 175.641051 
L 139.613263 174.360412 
L 144.544947 174.79257 
L 149.031407 176.885402 
L 152.53151 180.38648 
L 152.53151 180.38648 
" clip-path="url(#pd2bb594431)" style="fill: none; stroke: #282a2c; stroke-width: 1.7; stroke-linecap: round"/>
   </g>
   <g id="line2d_15">
    <path d="M 176.302683 226.073171 
L 173.301707 284.217073 
L 172.928434 286.334011 
L 171.853637 288.195615 
L 170.206951 289.577348 
L 168.186993 290.312553 
L 166.037398 290.312553 
L 164.017439 289.577348 
L 162.370754 288.195615 
L 161.295956 286.334011 
L 160.922683 284.217073 
L 157.921707 226.073171 
L 158.475962 222.929839 
L 160.071873 220.165639 
L 162.516951 218.113975 
L 165.516284 217.022307 
L 168.708107 217.022307 
L 171.707439 218.113975 
L 174.152517 220.165639 
L 175.748429 222.929839 
L 176.302683 226.073171 
L 176.302683 226.073171 
" clip-path="url(#pd2bb594431)" style="fill: none; stroke: #282a2c; stroke-width: 1.7; stroke-linecap: round"/>
   </g>
   <g id="line2d_16">
    <path d="M 167.112195 278.955988 
L 182.117073 280.812841 
L 183.281389 281.018142 
L 184.305271 281.60928 
L 185.065224 282.514957 
L 185.469587 283.625935 
L 185.469587 284.808212 
L 185.065224 285.919189 
L 184.305271 286.824866 
L 183.281389 287.416005 
L 182.117073 287.621305 
L 167.112195 289.478159 
L 165.312798 289.160876 
L 163.730435 288.247298 
L 162.555962 286.847616 
L 161.931037 285.130651 
L 161.931037 283.303495 
L 162.555962 281.58653 
L 163.730435 280.186848 
L 165.312798 279.27327 
L 167.112195 278.955988 
L 167.112195 278.955988 
" clip-path="url(#pd2bb594431)" style="fill: none; stroke: #121212; stroke-width: 1.5; stroke-linecap: round"/>
   </g>
   <g id="line2d_17">
    <path d="M 150.231707 121.039024 
L 147.793415 151.04878 
L 147.374896 153.422317 
L 146.16982 155.50957 
L 144.323537 157.058786 
L 142.058735 157.883106 
L 139.648583 157.883106 
L 137.38378 157.058786 
L 135.537497 155.50957 
L 134.332421 153.422317 
L 133.913902 151.04878 
L 131.47561 121.039024 
L 132.041175 117.831543 
L 133.669656 115.010931 
L 136.164634 112.917396 
L 139.225177 111.803449 
L 142.48214 111.803449 
L 145.542683 112.917396 
L 148.037661 115.010931 
L 149.666142 117.831543 
L 150.231707 121.039024 
L 150.231707 121.039024 
" clip-path="url(#pd2bb594431)" style="fill: none; stroke: #1d2a36; stroke-width: 1.7; stroke-linecap: round"/>
   </g>
   <g id="line2d_18">
    <path d="M 147.793415 151.04878 
L 146.668049 181.058537 
L 146.317398 183.047175 
L 145.30774 184.795955 
L 143.760854 186.093946 
L 141.863317 186.784593 
L 139.844 186.784593 
L 137.946463 186.093946 
L 136.399577 184.795955 
L 135.389919 183.047175 
L 135.039268 181.058537 
L 133.913902 151.04878 
L 134.332421 148.675244 
L 135.537497 146.587991 
L 137.38378 145.038775 
L 139.648583 144.214455 
L 142.058735 144.214455 
L 144.323537 145.038775 
L 146.16982 146.587991 
L 147.374896 148.675244 
L 147.793415 151.04878 
L 147.793415 151.04878 
" clip-path="url(#pd2bb594431)" style="fill: none; stroke: #1d2a36; stroke-width: 1.7; stroke-linecap: round"/>
   </g>
   <g id="patch_59">
    <path d="M 140.853659 117.287805 
C 144.832999 117.287805 148.649891 115.706796 151.46371 112.892978 
C 154.277528 110.079159 155.858537 106.262267 155.858537 102.282927 
C 155.858537 98.303587 154.277528 94.486694 151.46371 91.672876 
C 148.649891 88.859057 144.832999 87.278049 140.853659 87.278049 
C 136.874318 87.278049 133.057426 88.859057 130.243608 91.672876 
C 127.429789 94.486694 125.84878 98.303587 125.84878 102.282927 
C 125.84878 106.262267 127.429789 110.079159 130.243608 112.892978 
C 133.057426 115.706796 136.874318 117.287805 140.853659 117.287805 
z
" clip-path="url(#pd2bb594431)" style="fill: #f2e0c9; stroke: #a49888; stroke-width: 1.8; stroke-linejoin: miter"/>
   </g>
   <g id="line2d_19">
    <path d="M 123.973171 181.058537 
L 157.734146 181.058537 
" clip-path="url(#pd2bb594431)" style="fill: none; stroke: #5b6b73; stroke-width: 5; stroke-linecap: round"/>
   </g>
   <g id="patch_60">
    <path d="M 123.973171 185.785073 
C 125.226663 185.785073 126.428984 185.287055 127.315337 184.400703 
C 128.20169 183.51435 128.699707 182.312029 128.699707 181.058537 
C 128.699707 179.805044 128.20169 178.602723 127.315337 177.716371 
C 126.428984 176.830018 125.226663 176.332 123.973171 176.332 
C 122.719679 176.332 121.517357 176.830018 120.631005 177.716371 
C 119.744652 178.602723 119.246634 179.805044 119.246634 181.058537 
C 119.246634 182.312029 119.744652 183.51435 120.631005 184.400703 
C 121.517357 185.287055 122.719679 185.785073 123.973171 185.785073 
z
" clip-path="url(#pd2bb594431)" style="fill: #5b6b73; stroke: #5b6b73; stroke-linejoin: miter"/>
   </g>
   <g id="patch_61">
    <path d="M 157.734146 185.785073 
C 158.987638 185.785073 160.18996 185.287055 161.076312 184.400703 
C 161.962665 183.51435 162.460683 182.312029 162.460683 181.058537 
C 162.460683 179.805044 161.962665 178.602723 161.076312 177.716371 
C 160.18996 176.830018 158.987638 176.332 157.734146 176.332 
C 156.480654 176.332 155.278333 176.830018 154.39198 177.716371 
C 153.505627 178.602723 153.00761 179.805044 153.00761 181.058537 
C 153.00761 182.312029 153.505627 183.51435 154.39198 184.400703 
C 155.278333 185.287055 156.480654 185.785073 157.734146 185.785073 
z
" clip-path="url(#pd2bb594431)" style="fill: #5b6b73; stroke: #5b6b73; stroke-linejoin: miter"/>
   </g>
   <g id="line2d_20">
    <path d="M 108.968293 141.670732 
L 142.729268 141.670732 
" clip-path="url(#pd2bb594431)" style="fill: none; stroke: #5b6b73; stroke-width: 5; stroke-linecap: round"/>
   </g>
   <g id="patch_62">
    <path d="M 108.968293 146.397268 
C 110.221785 146.397268 111.424106 145.899251 112.310459 145.012898 
C 113.196812 144.126545 113.694829 142.924224 113.694829 141.670732 
C 113.694829 140.41724 113.196812 139.214918 112.310459 138.328566 
C 111.424106 137.442213 110.221785 136.944195 108.968293 136.944195 
C 107.714801 136.944195 106.512479 137.442213 105.626127 138.328566 
C 104.739774 139.214918 104.241756 140.41724 104.241756 141.670732 
C 104.241756 142.924224 104.739774 144.126545 105.626127 145.012898 
C 106.512479 145.899251 107.714801 146.397268 108.968293 146.397268 
z
" clip-path="url(#pd2bb594431)" style="fill: #5b6b73; stroke: #5b6b73; stroke-linejoin: miter"/>
   </g>
   <g id="patch_63">
    <path d="M 142.729268 146.397268 
C 143.98276 146.397268 145.185082 145.899251 146.071434 145.012898 
C 146.957787 144.126545 147.455805 142.924224 147.455805 141.670732 
C 147.455805 140.41724 146.957787 139.214918 146.071434 138.328566 
C 145.185082 137.442213 143.98276 136.944195 142.729268 136.944195 
C 141.475776 136.944195 140.273455 137.442213 139.387102 138.328566 
C 138.500749 139.214918 138.002732 140.41724 138.002732 141.670732 
C 138.002732 142.924224 138.500749 144.126545 139.387102 145.012898 
C 140.273455 145.899251 141.475776 146.397268 142.729268 146.397268 
z
" clip-path="url(#pd2bb594431)" style="fill: #5b6b73; stroke: #5b6b73; stroke-linejoin: miter"/>
   </g>
   <g id="patch_64">
    <path d="M 126.130485 160.533382 
Q 128.787305 177.4589 138.021696 188.861585 
" clip-path="url(#pd2bb594431)" style="fill: none; stroke-dasharray: 2.2,0; stroke-dashoffset: 0; stroke: #c0392b; stroke-width: 2.2; stroke-linecap: round"/>
    <path d="M 136.673291 182.747519 
L 138.021696 188.861585 
L 132.3214 186.27187 
z
" clip-path="url(#pd2bb594431)" style="fill: #c0392b; stroke-dasharray: 2.2,0; stroke-dashoffset: 0; stroke: #c0392b; stroke-width: 2.2; stroke-linecap: round"/>
   </g>
  </g>
 </g>
 <defs>
  <clipPath id="pd2bb594431">
   <rect x="5.809756" y="1" width="247.580488" height="307.6"/>
  </clipPath>
 </defs>
</svg>
