<?xml version="1.0" encoding="utf-8" standalone="no"?>
<!DOCTYPE svg PUBLIC "-//W3C//DTD SVG 1.1//EN"
  "http://www.w3.org/Graphics/SVG/1.1/DTD/svg11.dtd">
<svg xmlns:xlink="http://www.w3.org/1999/xlink" width="259.2pt" height="309.6pt" viewBox="0 0 259.2 309.6" xmlns="http://www.w3.org/2000/svg" version="1.1">
 <metadata>
  <rdf:RDF xmlns:dc="http://purl.org/dc/elements/1.1/" xmlns:cc="http://creativecommons.org/ns#" xmlns:rdf="http://www.w3.org/1999/02/22-rdf-syntax-ns#">
   <cc:Work>
    <dc:type rdf:resource="http://purl.org/dc/dcmitype/StillImage"/>
    <dc:date>2026-07-10T23:04:55.947703</dc:date>
    <dc:format>image/svg+xml</dc:format>
    <dc:creator>
     <cc:Agent>
      <dc:title>Matplotlib v3.10.8, https://matplotlib.org/</dc:title>
     </cc:Agent>
    </dc:creator>
   </cc:Work>
  </rdf:RDF>
 </metadata>
 <defs>
  <style type="text/css">*{stroke-linejoin: round; stroke-linecap: butt}</style>
 </defs>
 <g id="figure_1">
  <g id="patch_1">
   <path d="M 0 309.6 
L 259.2 309.6 
L 259.2 0 
L 0 0 
L 0 309.6 
z
" style="fill: none"/>
  </g>
  <g id="axes_1">
   <g id="line2d_1">
    <path d="M 17.063415 299.221951 
L 242.136585 299.221951 
" clip-path="url(#p3705a29aef)" style="fill: none; stroke: #c3c3c3; stroke-width: 3; stroke-linecap: round"/>
   </g>
   <g id="patch_2">
    <path d="M 123.973171 192.29719 
C 127.451114 192.29719 130.787078 190.915389 133.246355 188.456111 
C 135.705633 185.996834 137.087434 182.66087 137.087434 179.182927 
C 137.087434 175.704984 135.705633 172.36902 133.246355 169.909742 
C 130.787078 167.450465 127.451114 166.068663 123.973171 166.068663 
C 120.495227 166.068663 117.159263 167.450465 114.699986 169.909742 
C 112.240709 172.36902 110.858907 175.704984 110.858907 179.182927 
C 110.858907 182.66087 112.240709 185.996834 114.699986 188.456111 
C 117.159263 190.915389 120.495227 192.29719 123.973171 192.29719 
z
" clip-path="url(#p3705a29aef)" style="fill: #3c3f42; fill-opacity: 0.95"/>
   </g>
   <g id="patch_3">
    <path d="M 88.336585 223.274761 
C 90.578944 223.274761 92.729762 222.383863 94.315349 220.798276 
C 95.900936 219.212689 96.791834 217.06187 96.791834 214.819512 
C 96.791834 212.577154 95.900936 210.426335 94.315349 208.840748 
C 92.729762 207.255162 90.578944 206.364263 88.336585 206.364263 
C 86.094227 206.364263 83.943408 207.255162 82.357822 208.840748 
C 80.772235 210.426335 79.881337 212.577154 79.881337 214.819512 
C 79.881337 217.06187 80.772235 219.212689 82.357822 220.798276 
C 83.943408 222.383863 86.094227 223.274761 88.336585 223.274761 
z
" clip-path="url(#p3705a29aef)" style="fill: #3c3f42; fill-opacity: 0.95"/>
   </g>
   <g id="patch_4">
    <path d="M 133.246355 188.456111 
L 94.315349 220.798276 
L 82.357822 208.840748 
L 114.699986 169.909742 
z
" clip-path="url(#p3705a29aef)" style="fill: #3c3f42; fill-opacity: 0.95"/>
   </g>
   <g id="patch_5">
    <path d="M 88.336585 223.274761 
C 90.578944 223.274761 92.729762 222.383863 94.315349 220.798276 
C 95.900936 219.212689 96.791834 217.06187 96.791834 214.819512 
C 96.791834 212.577154 95.900936 210.426335 94.315349 208.840748 
C 92.729762 207.255162 90.578944 206.364263 88.336585 206.364263 
C 86.094227 206.364263 83.943408 207.255162 82.357822 208.840748 
C 80.772235 210.426335 79.881337 212.577154 79.881337 214.819512 
C 79.881337 217.06187 80.772235 219.212689 82.357822 220.798276 
C 83.943408 222.383863 86.094227 223.274761 88.336585 223.274761 
z
" clip-path="url(#p3705a29aef)" style="fill: #3c3f42; fill-opacity: 0.95"/>
   </g>
   <g id="patch_6">
    <path d="M 65.829268 289.911424 
C 67.339428 289.911424 68.787939 289.311432 69.855783 288.243588 
C 70.923627 287.175743 71.52362 285.727233 71.52362 284.217073 
C 71.52362 282.706914 70.923627 281.258403 69.855783 280.190559 
C 68.787939 279.122715 67.339428 278.522722 65.829268 278.522722 
C 64.319109 278.522722 62.870598 279.122715 61.802754 280.190559 
C 60.73491 281.258403 60.134917 282.706914 60.134917 284.217073 
C 60.134917 285.727233 60.73491 287.175743 61.802754 288.243588 
C 62.870598 289.311432 64.319109 289.911424 65.829268 289.911424 
z
" clip-path="url(#p3705a29aef)" style="fill: #3c3f42; fill-opacity: 0.95"/>
   </g>
   <g id="patch_7">
    <path d="M 96.379411 217.427996 
L 71.245865 285.973807 
L 60.412671 282.460339 
L 80.29376 212.211028 
z
" clip-path="url(#p3705a29aef)" style="fill: #3c3f42; fill-opacity: 0.95"/>
   </g>
   <g id="patch_8">
    <path d="M 65.829268 289.057272 
C 67.112904 289.057272 68.344138 288.547278 69.251806 287.63961 
C 70.159473 286.731943 70.669467 285.500709 70.669467 284.217073 
C 70.669467 282.933438 70.159473 281.702203 69.251806 280.794536 
C 68.344138 279.886868 67.112904 279.376875 65.829268 279.376875 
C 64.545633 279.376875 63.314399 279.886868 62.406731 280.794536 
C 61.499064 281.702203 60.98907 282.933438 60.98907 284.217073 
C 60.98907 285.500709 61.499064 286.731943 62.406731 287.63961 
C 63.314399 288.547278 64.545633 289.057272 65.829268 289.057272 
z
" clip-path="url(#p3705a29aef)" style="fill: #1b1b1b; fill-opacity: 0.95"/>
   </g>
   <g id="patch_9">
    <path d="M 48.94878 287.348966 
C 49.779368 287.348966 50.576049 287.01897 51.163363 286.431656 
C 51.750678 285.844342 52.080674 285.047661 52.080674 284.217073 
C 52.080674 283.386485 51.750678 282.589805 51.163363 282.00249 
C 50.576049 281.415176 49.779368 281.08518 48.94878 281.08518 
C 48.118193 281.08518 47.321512 281.415176 46.734198 282.00249 
C 46.146883 282.589805 45.816887 283.386485 45.816887 284.217073 
C 45.816887 285.047661 46.146883 285.844342 46.734198 286.431656 
C 47.321512 287.01897 48.118193 287.348966 48.94878 287.348966 
z
" clip-path="url(#p3705a29aef)" style="fill: #1b1b1b; fill-opacity: 0.95"/>
   </g>
   <g id="patch_10">
    <path d="M 65.829268 289.057272 
L 48.94878 287.348966 
L 48.94878 281.08518 
L 65.829268 279.376875 
z
" clip-path="url(#p3705a29aef)" style="fill: #1b1b1b; fill-opacity: 0.95"/>
   </g>
   <g id="patch_11">
    <path d="M 65.829268 288.317006 
C 66.916583 288.317006 67.959511 287.885011 68.728359 287.116164 
C 69.497206 286.347316 69.929201 285.304388 69.929201 284.217073 
C 69.929201 283.129758 69.497206 282.086831 68.728359 281.317983 
C 67.959511 280.549135 66.916583 280.11714 65.829268 280.11714 
C 64.741953 280.11714 63.699026 280.549135 62.930178 281.317983 
C 62.16133 282.086831 61.729335 283.129758 61.729335 284.217073 
C 61.729335 285.304388 62.16133 286.347316 62.930178 287.116164 
C 63.699026 287.885011 64.741953 288.317006 65.829268 288.317006 
z
" clip-path="url(#p3705a29aef)" style="fill: #1b1b1b; fill-opacity: 0.95; stroke: #121212; stroke-width: 1.3; stroke-linejoin: miter"/>
   </g>
   <g id="line2d_2">
    <path d="M 133.246355 188.456111 
L 94.315349 220.798276 
L 91.909928 222.48257 
L 89.073509 223.242586 
L 86.148206 222.986655 
L 83.486854 221.745647 
L 81.410451 219.669244 
L 80.169442 217.007892 
L 79.913511 214.082589 
L 80.673528 211.24617 
L 82.357822 208.840748 
L 114.699986 169.909742 
L 118.430844 167.297368 
L 122.830187 166.118567 
L 127.367392 166.515521 
L 131.495203 168.440351 
L 134.715746 171.660894 
L 136.640576 175.788706 
L 137.03753 180.32591 
L 135.85873 184.725254 
L 133.246355 188.456111 
L 133.246355 188.456111 
" clip-path="url(#p3705a29aef)" style="fill: none; stroke: #282a2c; stroke-width: 1.7; stroke-linecap: round"/>
   </g>
   <g id="line2d_3">
    <path d="M 96.379411 217.427996 
L 71.245865 285.973807 
L 70.318366 287.720448 
L 68.849415 289.044531 
L 67.01619 289.786351 
L 65.039805 289.856433 
L 63.158641 289.246326 
L 61.599594 288.029617 
L 60.550707 286.353058 
L 60.138494 284.418868 
L 60.412671 282.460339 
L 80.29376 212.211028 
L 81.670956 209.617531 
L 83.852125 207.651469 
L 86.574186 206.549979 
L 89.508819 206.445917 
L 92.302063 207.351834 
L 94.617012 209.158463 
L 96.174448 211.647898 
L 96.786523 214.519877 
L 96.379411 217.427996 
L 96.379411 217.427996 
" clip-path="url(#p3705a29aef)" style="fill: none; stroke: #282a2c; stroke-width: 1.7; stroke-linecap: round"/>
   </g>
   <g id="line2d_4">
    <path d="M 65.829268 289.057272 
L 48.94878 287.348966 
L 47.87761 287.16009 
L 46.935638 286.616243 
L 46.236481 285.78302 
L 45.864468 284.760921 
L 45.864468 283.673226 
L 46.236481 282.651127 
L 46.935638 281.817904 
L 47.87761 281.274056 
L 48.94878 281.08518 
L 65.829268 279.376875 
L 67.484714 279.668774 
L 68.940488 280.509266 
L 70.021003 281.796974 
L 70.595933 283.376582 
L 70.595933 285.057565 
L 70.021003 286.637172 
L 68.940488 287.92488 
L 67.484714 288.765372 
L 65.829268 289.057272 
L 65.829268 289.057272 
" clip-path="url(#p3705a29aef)" style="fill: none; stroke: #121212; stroke-width: 1.5; stroke-linecap: round"/>
   </g>
   <g id="patch_12">
    <path d="M 112.719512 98.531707 
C 114.709182 98.531707 116.617628 97.741203 118.024538 96.334294 
C 119.431447 94.927385 120.221951 93.018938 120.221951 91.029268 
C 120.221951 89.039598 119.431447 87.131152 118.024538 85.724243 
C 116.617628 84.317334 114.709182 83.526829 112.719512 83.526829 
C 110.729842 83.526829 108.821396 84.317334 107.414487 85.724243 
C 106.007577 87.131152 105.217073 89.039598 105.217073 91.029268 
C 105.217073 93.018938 106.007577 94.927385 107.414487 96.334294 
C 108.821396 97.741203 110.729842 98.531707 112.719512 98.531707 
z
" clip-path="url(#p3705a29aef)" style="fill: #2c3e50"/>
   </g>
   <g id="patch_13">
    <path d="M 116.470732 125.165366 
C 119.55472 125.165366 122.512812 123.940084 124.693521 121.759375 
C 126.874231 119.578666 128.099512 116.620574 128.099512 113.536585 
C 128.099512 110.452597 126.874231 107.494505 124.693521 105.313796 
C 122.512812 103.133087 119.55472 101.907805 116.470732 101.907805 
C 113.386743 101.907805 110.428651 103.133087 108.247942 105.313796 
C 106.067233 107.494505 104.841951 110.452597 104.841951 113.536585 
C 104.841951 116.620574 106.067233 119.578666 108.247942 121.759375 
C 110.428651 123.940084 113.386743 125.165366 116.470732 125.165366 
z
" clip-path="url(#p3705a29aef)" style="fill: #2c3e50"/>
   </g>
   <g id="patch_14">
    <path d="M 120.119872 89.795875 
L 127.94129 111.624826 
L 105.000173 115.448345 
L 105.319152 92.262662 
z
" clip-path="url(#p3705a29aef)" style="fill: #2c3e50"/>
   </g>
   <g id="patch_15">
    <path d="M 116.470732 136.794146 
C 122.638709 136.794146 128.554892 134.343583 132.916311 129.982164 
C 137.277729 125.620746 139.728293 119.704563 139.728293 113.536585 
C 139.728293 107.368608 137.277729 101.452425 132.916311 97.091006 
C 128.554892 92.729588 122.638709 90.279024 116.470732 90.279024 
C 110.302754 90.279024 104.386571 92.729588 100.025153 97.091006 
C 95.663734 101.452425 93.213171 107.368608 93.213171 113.536585 
C 93.213171 119.704563 95.663734 125.620746 100.025153 129.982164 
C 104.386571 134.343583 110.302754 136.794146 116.470732 136.794146 
z
" clip-path="url(#p3705a29aef)" style="fill: #2c3e50"/>
   </g>
   <g id="patch_16">
    <path d="M 123.973171 196.438537 
C 128.549412 196.438537 132.938838 194.620377 136.174729 191.384486 
C 139.410621 188.148594 141.22878 183.759168 141.22878 179.182927 
C 141.22878 174.606686 139.410621 170.217259 136.174729 166.981368 
C 132.938838 163.745477 128.549412 161.927317 123.973171 161.927317 
C 119.39693 161.927317 115.007503 163.745477 111.771612 166.981368 
C 108.535721 170.217259 106.717561 174.606686 106.717561 179.182927 
C 106.717561 183.759168 108.535721 188.148594 111.771612 191.384486 
C 115.007503 194.620377 119.39693 196.438537 123.973171 196.438537 
z
" clip-path="url(#p3705a29aef)" style="fill: #2c3e50"/>
   </g>
   <g id="patch_17">
    <path d="M 139.577878 110.895769 
L 141.117183 177.223611 
L 106.829159 181.142242 
L 93.363585 116.177402 
z
" clip-path="url(#p3705a29aef)" style="fill: #2c3e50"/>
   </g>
   <g id="patch_18">
    <path d="M 123.973171 193.437561 
C 127.753544 193.437561 131.379592 191.935603 134.052719 189.262475 
C 136.725847 186.589348 138.227805 182.9633 138.227805 179.182927 
C 138.227805 175.402554 136.725847 171.776506 134.052719 169.103378 
C 131.379592 166.430251 127.753544 164.928293 123.973171 164.928293 
C 120.192798 164.928293 116.56675 166.430251 113.893622 169.103378 
C 111.220495 171.776506 109.718537 175.402554 109.718537 179.182927 
C 109.718537 182.9633 111.220495 186.589348 113.893622 189.262475 
C 116.56675 191.935603 120.192798 193.437561 123.973171 193.437561 
z
" clip-path="url(#p3705a29aef)" style="fill: #3c3f42"/>
   </g>
   <g id="patch_19">
    <path d="M 153.982927 233.388049 
C 156.420273 233.388049 158.758119 232.419681 160.481583 230.696217 
C 162.205047 228.972753 163.173415 226.634907 163.173415 224.197561 
C 163.173415 221.760215 162.205047 219.422369 160.481583 217.698905 
C 158.758119 215.975441 156.420273 215.007073 153.982927 215.007073 
C 151.545581 215.007073 149.207734 215.975441 147.484271 217.698905 
C 145.760807 219.422369 144.792439 221.760215 144.792439 224.197561 
C 144.792439 226.634907 145.760807 228.972753 147.484271 230.696217 
C 149.207734 232.419681 151.545581 233.388049 153.982927 233.388049 
z
" clip-path="url(#p3705a29aef)" style="fill: #3c3f42"/>
   </g>
   <g id="patch_20">
    <path d="M 135.833743 171.275878 
L 161.629875 219.099596 
L 146.335979 229.295526 
L 112.112598 187.089975 
z
" clip-path="url(#p3705a29aef)" style="fill: #3c3f42"/>
   </g>
   <g id="patch_21">
    <path d="M 153.982927 233.388049 
C 156.420273 233.388049 158.758119 232.419681 160.481583 230.696217 
C 162.205047 228.972753 163.173415 226.634907 163.173415 224.197561 
C 163.173415 221.760215 162.205047 219.422369 160.481583 217.698905 
C 158.758119 215.975441 156.420273 215.007073 153.982927 215.007073 
C 151.545581 215.007073 149.207734 215.975441 147.484271 217.698905 
C 145.760807 219.422369 144.792439 221.760215 144.792439 224.197561 
C 144.792439 226.634907 145.760807 228.972753 147.484271 230.696217 
C 149.207734 232.419681 151.545581 233.388049 153.982927 233.388049 
z
" clip-path="url(#p3705a29aef)" style="fill: #3c3f42"/>
   </g>
   <g id="patch_22">
    <path d="M 161.485366 290.406585 
C 163.126844 290.406585 164.701312 289.754419 165.862012 288.593719 
C 167.022712 287.433019 167.674878 285.858551 167.674878 284.217073 
C 167.674878 282.575595 167.022712 281.001127 165.862012 279.840427 
C 164.701312 278.679727 163.126844 278.027561 161.485366 278.027561 
C 159.843888 278.027561 158.26942 278.679727 157.10872 279.840427 
C 155.94802 281.001127 155.295854 282.575595 155.295854 284.217073 
C 155.295854 285.858551 155.94802 287.433019 157.10872 288.593719 
C 158.26942 289.754419 159.843888 290.406585 161.485366 290.406585 
z
" clip-path="url(#p3705a29aef)" style="fill: #3c3f42"/>
   </g>
   <g id="patch_23">
    <path d="M 163.102445 223.057621 
L 167.627082 283.449359 
L 155.34365 284.984788 
L 144.863409 225.337501 
z
" clip-path="url(#p3705a29aef)" style="fill: #3c3f42"/>
   </g>
   <g id="patch_24">
    <path d="M 161.485366 289.478159 
C 162.880622 289.478159 164.21892 288.923817 165.205515 287.937222 
C 166.19211 286.950627 166.746451 285.612329 166.746451 284.217073 
C 166.746451 282.821817 166.19211 281.483519 165.205515 280.496924 
C 164.21892 279.510329 162.880622 278.955988 161.485366 278.955988 
C 160.09011 278.955988 158.751812 279.510329 157.765217 280.496924 
C 156.778622 281.483519 156.22428 282.821817 156.22428 284.217073 
C 156.22428 285.612329 156.778622 286.950627 157.765217 287.937222 
C 158.751812 288.923817 160.09011 289.478159 161.485366 289.478159 
z
" clip-path="url(#p3705a29aef)" style="fill: #1b1b1b"/>
   </g>
   <g id="patch_25">
    <path d="M 178.365854 287.621305 
C 179.268666 287.621305 180.134624 287.262614 180.773009 286.624228 
C 181.411394 285.985843 181.770085 285.119886 181.770085 284.217073 
C 181.770085 283.31426 181.411394 282.448303 180.773009 281.809918 
C 180.134624 281.171533 179.268666 280.812841 178.365854 280.812841 
C 177.463041 280.812841 176.597083 281.171533 175.958698 281.809918 
C 175.320313 282.448303 174.961622 283.31426 174.961622 284.217073 
C 174.961622 285.119886 175.320313 285.985843 175.958698 286.624228 
C 176.597083 287.262614 177.463041 287.621305 178.365854 287.621305 
z
" clip-path="url(#p3705a29aef)" style="fill: #1b1b1b"/>
   </g>
   <g id="patch_26">
    <path d="M 161.485366 278.955988 
L 178.365854 280.812841 
L 178.365854 287.621305 
L 161.485366 289.478159 
z
" clip-path="url(#p3705a29aef)" style="fill: #1b1b1b"/>
   </g>
   <g id="line2d_5">
    <path d="M 120.119872 89.795875 
L 127.94129 111.624826 
L 127.903391 115.663281 
L 126.486545 119.445225 
L 123.861643 122.5145 
L 120.345289 124.500907 
L 116.361606 125.164854 
L 112.391085 124.42626 
L 108.91263 122.374211 
L 106.345793 119.256214 
L 105.000173 115.448345 
L 105.319152 92.262662 
L 105.343603 89.657207 
L 106.257697 87.217243 
L 107.951182 85.237065 
L 110.219798 83.955513 
L 112.789916 83.52716 
L 115.351542 84.003672 
L 117.595707 85.327574 
L 119.251731 87.339185 
L 120.119872 89.795875 
L 120.119872 89.795875 
" clip-path="url(#p3705a29aef)" style="fill: none; stroke: #1d2a36; stroke-width: 1.7; stroke-linecap: round"/>
   </g>
   <g id="line2d_6">
    <path d="M 139.577878 110.895769 
L 141.117183 177.223611 
L 140.753398 183.20537 
L 138.36567 188.701962 
L 134.241994 193.050419 
L 128.879746 195.726251 
L 122.925694 196.406714 
L 117.097982 195.009735 
L 112.099519 191.703808 
L 108.533195 186.887679 
L 106.829159 181.142242 
L 93.363585 116.177402 
L 93.853904 108.115032 
L 97.072146 100.706581 
L 102.630144 94.845618 
L 109.857521 91.239061 
L 117.882549 90.321915 
L 125.737291 92.204801 
L 132.474349 96.660615 
L 137.281134 103.15192 
L 139.577878 110.895769 
L 139.577878 110.895769 
" clip-path="url(#p3705a29aef)" style="fill: none; stroke: #1d2a36; stroke-width: 1.7; stroke-linecap: round"/>
   </g>
   <g id="patch_27">
    <path d="M 116.470732 122.914634 
C 118.957819 122.914634 121.343377 121.926504 123.102014 120.167867 
C 124.86065 118.409231 125.84878 116.023673 125.84878 113.536585 
C 125.84878 111.049498 124.86065 108.66394 123.102014 106.905303 
C 121.343377 105.146667 118.957819 104.158537 116.470732 104.158537 
C 113.983644 104.158537 111.598086 105.146667 109.83945 106.905303 
C 108.080813 108.66394 107.092683 111.049498 107.092683 113.536585 
C 107.092683 116.023673 108.080813 118.409231 109.83945 120.167867 
C 111.598086 121.926504 113.983644 122.914634 116.470732 122.914634 
z
" clip-path="url(#p3705a29aef)" style="fill: #2c3e50"/>
   </g>
   <g id="patch_28">
    <path d="M 92.087805 118.600732 
C 93.92825 118.600732 95.693562 117.869515 96.994953 116.568124 
C 98.296344 115.266733 99.027561 113.50142 99.027561 111.660976 
C 99.027561 109.820531 98.296344 108.055218 96.994953 106.753827 
C 95.693562 105.452436 93.92825 104.72122 92.087805 104.72122 
C 90.24736 104.72122 88.482047 105.452436 87.180656 106.753827 
C 85.879265 108.055218 85.148049 109.820531 85.148049 111.660976 
C 85.148049 113.50142 85.879265 115.266733 87.180656 116.568124 
C 88.482047 117.869515 90.24736 118.600732 92.087805 118.600732 
z
" clip-path="url(#p3705a29aef)" style="fill: #2c3e50"/>
   </g>
   <g id="patch_29">
    <path d="M 115.751468 122.887011 
L 91.55555 118.580291 
L 92.62006 104.741661 
L 117.189995 104.18616 
z
" clip-path="url(#p3705a29aef)" style="fill: #2c3e50"/>
   </g>
   <g id="patch_30">
    <path d="M 92.087805 118.600732 
C 93.92825 118.600732 95.693562 117.869515 96.994953 116.568124 
C 98.296344 115.266733 99.027561 113.50142 99.027561 111.660976 
C 99.027561 109.820531 98.296344 108.055218 96.994953 106.753827 
C 95.693562 105.452436 93.92825 104.72122 92.087805 104.72122 
C 90.24736 104.72122 88.482047 105.452436 87.180656 106.753827 
C 85.879265 108.055218 85.148049 109.820531 85.148049 111.660976 
C 85.148049 113.50142 85.879265 115.266733 87.180656 116.568124 
C 88.482047 117.869515 90.24736 118.600732 92.087805 118.600732 
z
" clip-path="url(#p3705a29aef)" style="fill: #2c3e50"/>
   </g>
   <g id="patch_31">
    <path d="M 62.078049 94.968049 
C 63.620043 94.968049 65.099089 94.355408 66.189444 93.265053 
C 67.279798 92.174699 67.892439 90.695653 67.892439 89.153659 
C 67.892439 87.611664 67.279798 86.132618 66.189444 85.042264 
C 65.099089 83.951909 63.620043 83.339268 62.078049 83.339268 
C 60.536054 83.339268 59.057009 83.951909 57.966654 85.042264 
C 56.876299 86.132618 56.263659 87.611664 56.263659 89.153659 
C 56.263659 90.695653 56.876299 92.174699 57.966654 93.265053 
C 59.057009 94.355408 60.536054 94.968049 62.078049 94.968049 
z
" clip-path="url(#p3705a29aef)" style="fill: #2c3e50"/>
   </g>
   <g id="patch_32">
    <path d="M 87.923951 117.21278 
L 58.589415 93.805171 
L 65.566683 84.502146 
L 96.251659 106.109171 
z
" clip-path="url(#p3705a29aef)" style="fill: #2c3e50"/>
   </g>
   <g id="patch_33">
    <path d="M 161.485366 288.673522 
C 162.66723 288.673522 163.800847 288.203962 164.636551 287.368258 
C 165.472255 286.532554 165.941815 285.398937 165.941815 284.217073 
C 165.941815 283.035209 165.472255 281.901592 164.636551 281.065888 
C 163.800847 280.230184 162.66723 279.760624 161.485366 279.760624 
C 160.303502 279.760624 159.169885 280.230184 158.334181 281.065888 
C 157.498477 281.901592 157.028917 283.035209 157.028917 284.217073 
C 157.028917 285.398937 157.498477 286.532554 158.334181 287.368258 
C 159.169885 288.203962 160.303502 288.673522 161.485366 288.673522 
z
" clip-path="url(#p3705a29aef)" style="fill: #1b1b1b; stroke: #121212; stroke-width: 1.3; stroke-linejoin: miter"/>
   </g>
   <g id="patch_34">
    <path d="M 62.078049 95.343171 
C 63.719527 95.343171 65.293995 94.691005 66.454695 93.530305 
C 67.615395 92.369604 68.267561 90.795136 68.267561 89.153659 
C 68.267561 87.512181 67.615395 85.937713 66.454695 84.777012 
C 65.293995 83.616312 63.719527 82.964146 62.078049 82.964146 
C 60.436571 82.964146 58.862103 83.616312 57.701403 84.777012 
C 56.540703 85.937713 55.888537 87.512181 55.888537 89.153659 
C 55.888537 90.795136 56.540703 92.369604 57.701403 93.530305 
C 58.862103 94.691005 60.436571 95.343171 62.078049 95.343171 
z
" clip-path="url(#p3705a29aef)" style="fill: #f2e0c9; stroke: #a49888; stroke-width: 1.6; stroke-linejoin: miter"/>
   </g>
   <g id="line2d_7">
    <path d="M 135.833743 171.275878 
L 161.629875 219.099596 
L 162.912314 222.022451 
L 163.117738 225.207656 
L 162.221368 228.27103 
L 160.331321 230.843082 
L 157.675564 232.613587 
L 154.57442 233.368995 
L 151.401934 233.018193 
L 148.540753 231.603492 
L 146.335979 229.295526 
L 112.112598 187.089975 
L 110.123508 182.556567 
L 109.804892 177.616248 
L 111.19518 172.864894 
L 114.126681 168.875588 
L 118.245815 166.129499 
L 123.055752 164.957846 
L 127.976344 165.501947 
L 132.414093 167.696177 
L 135.833743 171.275878 
L 135.833743 171.275878 
" clip-path="url(#p3705a29aef)" style="fill: none; stroke: #282a2c; stroke-width: 1.7; stroke-linecap: round"/>
   </g>
   <g id="line2d_8">
    <path d="M 163.102445 223.057621 
L 167.627082 283.449359 
L 167.519265 285.596248 
L 166.683671 287.576789 
L 165.221084 289.152098 
L 163.307915 290.13217 
L 161.174919 290.398795 
L 159.079368 289.919813 
L 157.274016 288.752996 
L 155.976614 287.039079 
L 155.34365 284.984788 
L 144.863409 225.337501 
L 145.023501 222.149695 
L 146.264232 219.208892 
L 148.435951 216.869797 
L 151.276718 215.414538 
L 154.443893 215.018641 
L 157.555469 215.729857 
L 160.236144 217.462403 
L 162.162588 220.007309 
L 163.102445 223.057621 
L 163.102445 223.057621 
" clip-path="url(#p3705a29aef)" style="fill: none; stroke: #282a2c; stroke-width: 1.7; stroke-linecap: round"/>
   </g>
   <g id="line2d_9">
    <path d="M 161.485366 278.955988 
L 178.365854 280.812841 
L 179.530169 281.018142 
L 180.554052 281.60928 
L 181.314005 282.514957 
L 181.718367 283.625935 
L 181.718367 284.808212 
L 181.314005 285.919189 
L 180.554052 286.824866 
L 179.530169 287.416005 
L 178.365854 287.621305 
L 161.485366 289.478159 
L 159.685969 289.160876 
L 158.103605 288.247298 
L 156.929132 286.847616 
L 156.304208 285.130651 
L 156.304208 283.303495 
L 156.929132 281.58653 
L 158.103605 280.186848 
L 159.685969 279.27327 
L 161.485366 278.955988 
L 161.485366 278.955988 
" clip-path="url(#p3705a29aef)" style="fill: none; stroke: #121212; stroke-width: 1.5; stroke-linecap: round"/>
   </g>
   <g id="line2d_10">
    <path d="M 115.751468 122.887011 
L 91.55555 118.580291 
L 89.221104 117.980963 
L 87.232424 116.619351 
L 85.829375 114.659687 
L 85.181185 112.338333 
L 85.366035 109.93528 
L 86.36163 107.740372 
L 88.047886 106.018346 
L 90.221416 104.976904 
L 92.62006 104.741661 
L 117.189995 104.18616 
L 120.344652 104.996062 
L 123.032057 106.836077 
L 124.92807 109.484273 
L 125.804002 112.621237 
L 125.554205 115.868606 
L 124.208806 118.834699 
L 121.930082 121.161761 
L 118.992879 122.569114 
L 115.751468 122.887011 
L 115.751468 122.887011 
" clip-path="url(#p3705a29aef)" style="fill: none; stroke: #1d2a36; stroke-width: 1.7; stroke-linecap: round"/>
   </g>
   <g id="line2d_11">
    <path d="M 87.923951 117.21278 
L 58.589415 93.805171 
L 57.208894 92.331467 
L 56.415666 90.474473 
L 56.305404 88.458169 
L 56.891409 86.525751 
L 58.102998 84.910298 
L 59.794038 83.806657 
L 61.760563 83.347943 
L 63.765382 83.589484 
L 65.566683 84.502146 
L 96.251659 106.109171 
L 97.899377 107.868107 
L 98.846133 110.08452 
L 98.977736 112.491076 
L 98.278311 114.79751 
L 96.83222 116.725632 
L 94.813882 118.042881 
L 92.466739 118.590378 
L 90.073891 118.302088 
L 87.923951 117.21278 
L 87.923951 117.21278 
" clip-path="url(#p3705a29aef)" style="fill: none; stroke: #1d2a36; stroke-width: 1.7; stroke-linecap: round"/>
   </g>
   <g id="patch_35">
    <path d="M 112.719512 106.034146 
C 116.698852 106.034146 120.515745 104.453138 123.329563 101.639319 
C 126.143382 98.825501 127.72439 95.008608 127.72439 91.029268 
C 127.72439 87.049928 126.143382 83.233036 123.329563 80.419217 
C 120.515745 77.605399 116.698852 76.02439 112.719512 76.02439 
C 108.740172 76.02439 104.92328 77.605399 102.109461 80.419217 
C 99.295643 83.233036 97.714634 87.049928 97.714634 91.029268 
C 97.714634 95.008608 99.295643 98.825501 102.109461 101.639319 
C 104.92328 104.453138 108.740172 106.034146 112.719512 106.034146 
z
" clip-path="url(#p3705a29aef)" style="fill: #f2e0c9; stroke: #a49888; stroke-width: 1.8; stroke-linejoin: miter"/>
   </g>
   <g id="patch_36">
    <path d="M 114.48195 113.748414 
Q 82.370989 116.74423 64.70157 92.759026 
" clip-path="url(#p3705a29aef)" style="fill: none; stroke-dasharray: 2.2,0; stroke-dashoffset: 0; stroke: #c0392b; stroke-width: 2.2; stroke-linecap: round"/>
    <path d="M 65.76868 98.928408 
L 64.70157 92.759026 
L 70.277342 95.606967 
z
" clip-path="url(#p3705a29aef)" style="fill: #c0392b; stroke-dasharray: 2.2,0; stroke-dashoffset: 0; stroke: #c0392b; stroke-width: 2.2; stroke-linecap: round"/>
   </g>
  </g>
 </g>
 <defs>
  <clipPath id="p3705a29aef">
   <rect x="5.809756" y="1" width="247.580488" height="307.6"/>
  </clipPath>
 </defs>
</svg>
